<svg width="37" height="30" viewBox="0 0 37 30" fill="none" xmlns="http://www.w3.org/2000/svg">
<path fill-rule="evenodd" clip-rule="evenodd" d="M27.9349 17.4014C27.7409 17.4014 27.5459 17.4014 27.3529 17.4014C19.1329 17.4014 10.9149 17.3974 2.69493 17.4034C1.91393 17.4054 1.21595 17.2474 0.667952 16.6534C-0.0100477 15.9214 -0.176052 15.0674 0.188948 14.1514C0.555948 13.2374 1.26293 12.7294 2.25993 12.6634C2.44693 12.6514 2.63193 12.6574 2.81993 12.6574C10.9919 12.6574 19.1639 12.6574 27.3359 12.6574C27.4879 12.6574 27.641 12.6574 27.923 12.6574C27.748 12.4304 27.6579 12.2844 27.5389 12.1694C24.8359 9.46638 22.1259 6.77139 19.4239 4.06939C18.6679 3.30939 18.4879 2.28839 18.9219 1.36839C19.3439 0.468387 20.244 -0.0596195 21.272 0.00538048C21.926 0.0503805 22.4379 0.374385 22.8929 0.831385C25.5239 3.47238 28.163 6.10439 30.798 8.74339C32.336 10.2784 33.8769 11.8134 35.4109 13.3544C36.4309 14.3794 36.4449 15.7864 35.4319 16.8014C31.2949 20.9474 27.1509 25.0844 23.0099 29.2274C22.3239 29.9134 21.512 30.1704 20.581 29.8834C19.637 29.5904 19.0739 28.9124 18.9159 27.9384C18.7829 27.1084 19.1039 26.4204 19.6889 25.8404C21.7829 23.7604 23.874 21.6744 25.964 19.5944C26.536 19.0244 27.1089 18.4514 27.6789 17.8814C27.7839 17.7724 27.881 17.6544 27.982 17.5434C27.966 17.4954 27.9499 17.4484 27.9349 17.4014Z" fill="#5FCEEA"/>
</svg>
