<svg width="163" height="120" viewBox="0 0 163 120" fill="none" xmlns="http://www.w3.org/2000/svg">
<path fill-rule="evenodd" clip-rule="evenodd" d="M24.6259 0C11.8991 0 1.58203 10.317 1.58203 23.0439C1.58203 35.7707 11.8991 46.0877 24.6259 46.0877C37.3527 46.0877 47.6699 35.7707 47.6699 23.0439C47.6699 10.317 37.3527 0 24.6259 0ZM24.6259 42.1701C14.0629 42.1701 5.49981 33.607 5.49981 23.0439C5.49981 12.4807 14.0629 3.91766 24.6259 3.91766C35.1892 3.91766 43.7522 12.4809 43.7522 23.0439C43.7522 33.6071 35.1892 42.1701 24.6259 42.1701Z" fill="#8E2E26"/>
<path fill-rule="evenodd" clip-rule="evenodd" d="M24.6294 39.9292C15.3273 39.9445 7.80278 32.4401 7.79103 23.135C7.77904 13.9138 15.3235 6.3603 24.5612 6.34378C33.8082 6.32726 41.3644 13.8696 41.3746 23.1264C41.3845 32.3782 33.8747 39.9141 24.6294 39.9292Z" fill="#8E2E26"/>
<path fill-rule="evenodd" clip-rule="evenodd" d="M28.4784 10.875C32.8884 10.8909 36.3112 14.1901 36.5598 18.4958C36.7941 22.5559 33.7027 26.1713 29.5684 26.6897C28.3574 26.8413 27.1852 26.6977 26.0428 26.2981C25.7775 26.2051 25.6096 26.2198 25.4037 26.43C24.2656 27.59 23.1187 28.741 21.9556 29.8758C21.7136 30.112 21.7464 30.2342 21.969 30.4444C22.5037 30.9494 23.0043 31.4907 23.5397 31.9949C23.7518 32.1949 23.731 32.3057 23.5336 32.4997C22.4621 33.5525 21.3996 34.6148 20.3473 35.6864C20.1497 35.8877 20.0364 35.8978 19.8383 35.6891C19.2998 35.1225 18.728 34.5879 18.1898 34.0212C17.9908 33.8117 17.8726 33.8174 17.6824 34.0264C17.3526 34.3888 16.9861 34.7174 16.6493 35.0737C16.4998 35.2318 16.4045 35.2396 16.2454 35.0786C15.1463 33.9668 14.0445 32.8572 12.9266 31.764C12.6923 31.5349 12.8494 31.4406 12.9907 31.2992C14.7899 29.4998 16.5875 27.699 18.3858 25.8989C19.4042 24.8796 20.4217 23.8592 21.4444 22.8442C21.5941 22.6958 21.6851 22.5918 21.5615 22.351C19.4463 18.2267 21.4155 13.0851 25.7402 11.4341C26.1667 11.2712 26.6098 11.1348 27.0575 11.049C27.5822 10.9484 28.1197 10.9166 28.4784 10.875Z" fill="white"/>
<path fill-rule="evenodd" clip-rule="evenodd" d="M28.5119 25.5051C27.6017 25.5234 26.6303 25.2769 25.7095 24.8323C25.4795 24.7213 25.3377 24.7415 25.1538 24.9272C23.4924 26.6031 21.8234 28.2708 20.148 29.9325C19.9754 30.1038 19.9785 30.1985 20.1491 30.3633C20.7111 30.9061 21.2496 31.4733 21.814 32.0134C22.0045 32.1955 22.0012 32.3009 21.812 32.4805C21.3016 32.9662 20.8056 33.4676 20.3175 33.9756C20.1536 34.1459 20.0518 34.1579 19.88 33.9797C19.3377 33.4173 18.7659 32.8833 18.2279 32.3169C18.0139 32.0914 17.8778 32.0511 17.6551 32.305C17.3528 32.65 16.9958 32.9468 16.691 33.2898C16.4934 33.5123 16.3763 33.4813 16.187 33.2806C15.725 32.7902 15.2589 32.2993 14.7539 31.855C14.4565 31.5932 14.5775 31.4664 14.7878 31.2568C17.4797 28.5747 20.1607 25.8817 22.8583 23.2054C23.1368 22.9289 23.2153 22.7558 22.982 22.3793C20.6521 18.6188 22.4426 14.0417 26.202 12.5863C29.8108 11.1888 33.8582 13.1109 35.0112 16.7564C36.1988 20.5117 33.9655 24.4528 30.1353 25.3526C29.6423 25.4687 29.1375 25.5083 28.5119 25.5051Z" fill="#8E2E26"/>
<path fill-rule="evenodd" clip-rule="evenodd" d="M28.6091 23.0961C26.215 23.0766 24.328 21.1454 24.3498 18.7375C24.371 16.4054 26.3483 14.505 28.725 14.5315C31.0384 14.5575 32.9359 16.5244 32.9138 18.8739C32.8917 21.2165 30.9561 23.1152 28.6091 23.0961Z" fill="white"/>
<path fill-rule="evenodd" clip-rule="evenodd" d="M28.5951 21.8799C26.9459 21.8528 25.5536 20.4347 25.5744 18.8039C25.5957 17.1212 26.9965 15.7488 28.6751 15.7658C30.3247 15.7824 31.7101 17.1909 31.6958 18.8366C31.6809 20.5054 30.2527 21.9072 28.5951 21.8799Z" fill="#8E2E26"/>
<path fill-rule="evenodd" clip-rule="evenodd" d="M47.6688 23.0977H43.7512C43.7337 29.4989 40.5721 35.1606 35.7285 38.6194L38.0053 41.8077C43.8422 37.6382 47.6513 30.8134 47.6688 23.0977Z" fill="#C53339"/>
<path fill-rule="evenodd" clip-rule="evenodd" d="M24.6253 3.91754C31.1039 3.91754 36.8293 7.13926 40.2892 12.0674L43.4349 9.72904C39.2603 3.84203 32.3916 0 24.6253 0C24.6181 0 24.6111 0.000244612 24.6039 0.000244612L24.5059 3.91925C24.5459 3.91888 24.5854 3.91754 24.6253 3.91754Z" fill="#C53239"/>
<path fill-rule="evenodd" clip-rule="evenodd" d="M18.6356 4.87572C20.5199 4.2548 22.5331 3.91766 24.6252 3.91766C24.6305 3.91766 24.6357 3.9179 24.6409 3.9179L24.6302 0C24.6284 0 24.6269 0 24.6252 0C22.1183 0 19.7052 0.401996 17.4453 1.14223L18.6356 4.87572Z" fill="#EAA5B2"/>
<path fill-rule="evenodd" clip-rule="evenodd" d="M2.75586 92.871C2.75586 86.6828 2.75586 80.5189 2.75586 74.3267C2.93428 74.3116 3.08174 74.2879 3.22932 74.2884C5.70726 74.2929 8.18581 74.2663 10.6628 74.3152C14.6188 74.393 18.0168 76.823 19.1511 80.5571C20.9529 86.4873 17.5088 92.5039 10.7716 92.8392C8.22325 92.9662 5.66504 92.898 3.11135 92.9162C3.00146 92.917 2.89084 92.8891 2.75586 92.871ZM7.08347 89.5717C8.31234 89.5717 9.4941 89.6485 10.6623 89.5546C12.6765 89.3928 14.0673 88.3016 14.7491 86.3999C15.4418 84.4673 15.4241 82.5062 14.6842 80.5889C14.1216 79.1309 13.0719 78.0597 11.5277 77.7931C10.0848 77.5446 8.59025 77.5931 7.08359 77.5087C7.08347 81.6147 7.08347 85.5709 7.08347 89.5717Z" fill="#8E2E26"/>
<path fill-rule="evenodd" clip-rule="evenodd" d="M64.3223 92.9213C64.3223 88.4872 64.3223 84.1284 64.3223 79.7089C65.2359 79.7089 66.1591 79.6039 67.0364 79.7582C67.414 79.8249 67.6969 80.4295 68.0883 80.862C68.1324 80.827 68.305 80.7015 68.464 80.5604C69.1712 79.9327 69.9949 79.5689 70.9345 79.48C72.5468 79.3272 73.5285 79.9131 74.5341 81.6457C74.6371 81.5288 74.7355 81.431 74.8181 81.3211C76.3807 79.242 79.9444 78.8065 81.9554 80.4617C83.0016 81.3231 83.4381 82.5211 83.4656 83.8022C83.5297 86.8118 83.486 89.8235 83.486 92.9166C82.2556 92.9166 81.0421 92.9286 79.8301 92.8947C79.7306 92.8921 79.5608 92.5776 79.5585 92.4064C79.5405 91.1102 79.5596 89.8136 79.5605 88.5173C79.5613 87.1067 79.5871 85.695 79.5423 84.2856C79.5008 82.9889 78.9268 82.41 77.8072 82.4082C76.6707 82.4067 75.945 83.0793 75.9259 84.3233C75.8858 86.9343 75.9146 89.5464 75.9147 92.1581C75.9147 92.9206 75.9142 92.9209 75.1358 92.9211C74.1089 92.9214 73.0821 92.9211 71.9936 92.9211C71.982 92.6761 71.9646 92.4761 71.9644 92.2761C71.9624 89.7786 71.9641 87.2813 71.9621 84.7835C71.9619 84.5356 71.9643 84.2862 71.9349 84.0412C71.8181 83.067 71.4723 82.6227 70.7181 82.4505C69.9134 82.2668 68.7068 82.6541 68.3411 83.2518C68.2421 83.4132 68.2378 83.6498 68.2376 83.8517C68.2352 86.6737 68.2314 89.4953 68.255 92.3167C68.2586 92.7854 68.1342 92.9467 67.6502 92.9317C66.5506 92.898 65.4493 92.9213 64.3223 92.9213Z" fill="#8E2E26"/>
<path fill-rule="evenodd" clip-rule="evenodd" d="M19.4006 119.736C18.1528 119.736 16.9725 119.766 15.7948 119.723C15.1721 119.7 14.8247 119.235 14.6278 118.685C14.3132 117.807 14.01 116.924 13.7278 116.036C13.6277 115.721 13.4916 115.575 13.1332 115.577C11.0553 115.594 8.97699 115.592 6.89909 115.578C6.55755 115.576 6.38929 115.682 6.28698 116.013C6.02315 116.868 5.72786 117.713 5.43661 118.558C5.14022 119.419 4.69013 119.749 3.78114 119.757C2.75578 119.766 1.73029 119.759 0.619141 119.759C0.699295 119.509 0.750815 119.315 0.822648 119.13C3.0704 113.329 5.32439 107.53 7.56052 101.725C7.72793 101.29 7.9318 101.108 8.41958 101.126C9.52351 101.167 10.6305 101.147 11.7364 101.134C12.0565 101.13 12.2489 101.201 12.3788 101.539C14.678 107.503 16.9912 113.462 19.3009 119.422C19.3339 119.509 19.3573 119.599 19.4006 119.736ZM10.0043 105.029C9.13192 107.636 8.3059 110.107 7.46226 112.629C9.21391 112.629 10.845 112.629 12.5704 112.629C11.7171 110.101 10.8811 107.626 10.0043 105.029Z" fill="#8E2E26"/>
<path fill-rule="evenodd" clip-rule="evenodd" d="M122.846 106.557C126.067 106.557 129.186 106.557 132.35 106.557C132.35 110.967 132.35 115.322 132.35 119.731C131.086 119.731 129.824 119.731 128.476 119.731C128.476 119.498 128.476 119.276 128.476 119.055C128.476 115.985 128.464 112.916 128.487 109.846C128.491 109.33 128.328 109.199 127.834 109.209C126.386 109.238 124.937 109.218 123.488 109.221C123.302 109.221 123.116 109.241 122.868 109.256C122.868 109.71 122.868 110.124 122.868 110.538C122.868 112.216 122.865 113.894 122.869 115.572C122.871 116.821 123.332 117.131 124.515 116.745C124.718 116.679 125.097 116.739 125.208 116.883C125.666 117.485 126.053 118.141 126.51 118.844C126.154 119.045 125.857 119.245 125.536 119.39C124.246 119.975 122.896 120.148 121.52 119.803C120.064 119.437 119.057 118.266 119.001 116.762C118.917 114.496 118.933 112.227 118.907 109.959C118.904 109.736 118.906 109.513 118.906 109.206C118.498 109.206 118.161 109.212 117.824 109.205C117.337 109.196 117.084 108.927 117.066 108.456C117.048 107.963 117.062 107.469 117.062 106.947C117.613 106.83 118.127 106.678 118.652 106.62C119.081 106.574 119.226 106.356 119.309 105.979C119.492 105.143 119.719 104.317 119.903 103.48C120.024 102.925 120.341 102.668 120.905 102.676C121.532 102.686 122.159 102.679 122.846 102.679C122.846 103.964 122.846 105.214 122.846 106.557Z" fill="#8E2E26"/>
<path fill-rule="evenodd" clip-rule="evenodd" d="M57.3335 119.768C56.1685 119.768 55.0073 119.767 53.8463 119.769C53.4008 119.769 53.5131 119.435 53.5126 119.193C53.5091 116.963 53.5167 114.732 53.5142 112.501C53.5138 111.988 53.5269 111.469 53.464 110.961C53.3025 109.657 52.538 109.053 51.2492 109.327C50.6602 109.452 50.1105 109.822 49.5863 110.15C49.4376 110.243 49.3851 110.579 49.3842 110.805C49.3737 113.55 49.3813 116.295 49.3841 119.041C49.3842 119.248 49.3841 119.455 49.3841 119.716C48.062 119.716 46.7811 119.716 45.459 119.716C45.459 113.374 45.459 107.038 45.459 100.664C46.7548 100.664 48.038 100.664 49.3872 100.664C49.3872 102.968 49.3872 105.245 49.3872 107.617C49.8267 107.35 50.1688 107.122 50.5289 106.928C53.6962 105.22 57.1812 107.028 57.3682 110.605C57.524 113.59 57.4076 116.59 57.4098 119.582C57.41 119.616 57.383 119.65 57.3335 119.768Z" fill="#8E2E26"/>
<path fill-rule="evenodd" clip-rule="evenodd" d="M148.317 113.599C148.289 115.66 147.44 117.787 145.134 119.11C142.167 120.812 137.954 119.989 136.039 117.368C134.067 114.667 134.194 109.175 138.038 107.15C140.815 105.686 144.629 106.185 146.658 108.375C147.889 109.704 148.318 111.34 148.317 113.599ZM138.773 113.145C138.908 113.916 138.973 114.681 139.186 115.403C139.507 116.487 140.336 117.033 141.516 117.078C142.636 117.12 143.49 116.609 143.875 115.543C144.452 113.95 144.442 112.322 143.884 110.728C143.529 109.712 142.661 109.204 141.555 109.22C140.379 109.237 139.523 109.777 139.199 110.852C138.976 111.59 138.91 112.375 138.773 113.145Z" fill="#8E2E26"/>
<path fill-rule="evenodd" clip-rule="evenodd" d="M73.1324 113.622C73.104 115.645 72.2655 117.758 69.9919 119.086C67.047 120.806 62.8117 120.006 60.8828 117.408C58.8736 114.701 59.0035 109.169 62.8602 107.146C65.6627 105.676 69.4919 106.195 71.5178 108.424C72.7201 109.747 73.1357 111.37 73.1324 113.622ZM63.5909 113.125C63.722 113.892 63.7839 114.658 63.9923 115.381C64.3111 116.485 65.1782 117.058 66.3648 117.08C67.491 117.102 68.3258 116.588 68.7056 115.514C69.2632 113.937 69.2539 112.327 68.7092 110.751C68.3498 109.71 67.4574 109.186 66.338 109.222C65.1474 109.26 64.3225 109.796 64.0011 110.883C63.7877 111.604 63.7235 112.37 63.5909 113.125Z" fill="#8E2E26"/>
<path fill-rule="evenodd" clip-rule="evenodd" d="M154.567 119.784C153.308 119.784 152.113 119.795 150.919 119.766C150.811 119.763 150.63 119.506 150.619 119.357C150.582 118.845 150.604 118.329 150.604 117.815C150.604 114.289 150.604 110.763 150.604 107.237C150.604 107.031 150.604 106.824 150.604 106.589C151.572 106.589 152.499 106.545 153.417 106.62C153.647 106.639 153.872 107.023 154.051 107.274C154.166 107.436 154.193 107.662 154.282 107.926C154.488 107.767 154.667 107.638 154.837 107.497C156.078 106.469 157.515 106.146 159.071 106.414C161.076 106.76 162.489 108.349 162.563 110.51C162.664 113.461 162.633 116.416 162.638 119.37C162.638 119.508 162.436 119.765 162.324 119.767C161.146 119.796 159.967 119.785 158.706 119.785C158.706 119.506 158.706 119.285 158.706 119.063C158.707 116.567 158.706 114.07 158.708 111.573C158.708 110.749 158.644 109.906 157.822 109.485C156.999 109.063 156.168 109.261 155.37 109.706C154.778 110.036 154.532 110.435 154.546 111.155C154.599 113.803 154.567 116.453 154.567 119.102C154.567 119.307 154.567 119.512 154.567 119.784Z" fill="#8E2E26"/>
<path fill-rule="evenodd" clip-rule="evenodd" d="M28.3802 106.563C29.7181 106.563 31.0034 106.563 32.3172 106.563C32.3172 110.947 32.3172 115.306 32.3172 119.708C31.3858 119.708 30.4603 119.747 29.543 119.678C29.3255 119.662 29.1074 119.3 28.9408 119.062C28.8163 118.883 28.7746 118.647 28.6779 118.39C28.4443 118.569 28.25 118.713 28.0618 118.864C26.873 119.817 25.5031 120.111 24.0268 119.91C21.9694 119.629 20.4581 117.946 20.3826 115.624C20.2862 112.652 20.3524 109.675 20.3507 106.701C20.3507 106.666 20.3782 106.632 20.4093 106.559C21.6608 106.559 22.9282 106.559 24.2588 106.559C24.2588 106.819 24.259 107.043 24.2588 107.268C24.2562 109.671 24.2523 112.074 24.2528 114.477C24.253 114.743 24.2616 115.011 24.2951 115.275C24.4737 116.687 25.3802 117.296 26.7586 116.929C26.9599 116.875 27.1541 116.792 27.3462 116.709C28.0919 116.387 28.4472 115.915 28.4184 115.004C28.3361 112.413 28.3837 109.818 28.3803 107.225C28.3799 107.019 28.3802 106.813 28.3802 106.563Z" fill="#8E2E26"/>
<path fill-rule="evenodd" clip-rule="evenodd" d="M47.8848 92.9164C46.6676 92.9164 45.5068 92.9123 44.3462 92.9186C43.9105 92.9211 43.992 92.6096 43.992 92.3573C43.9932 89.897 44.0008 87.4368 44.0016 84.9763C44.0019 84.6911 43.9882 84.4042 43.9553 84.1207C43.798 82.7575 42.9224 82.1125 41.5969 82.4758C41.063 82.6223 40.5615 82.9456 40.1 83.2671C39.9365 83.3812 39.8709 83.7282 39.8698 83.969C39.8583 86.7345 39.8532 89.5001 39.8838 92.2652C39.8897 92.7997 39.7322 92.9481 39.2107 92.9298C38.1303 92.8917 37.0479 92.9183 35.9414 92.9183C35.9414 88.4804 35.9414 84.1203 35.9414 79.7075C36.8636 79.7075 37.7722 79.6678 38.6725 79.7352C38.8986 79.752 39.134 80.0868 39.3004 80.3213C39.4353 80.5116 39.4731 80.7708 39.5754 81.0598C39.8064 80.8789 39.9857 80.7442 40.1594 80.6024C41.3195 79.6555 42.661 79.3062 44.121 79.5085C46.2964 79.8092 47.7234 81.2567 47.8475 83.6934C48.0029 86.7341 47.8848 89.7888 47.8848 92.9164Z" fill="#8E2E26"/>
<path fill-rule="evenodd" clip-rule="evenodd" d="M58.1288 91.3795C57.5852 91.7559 57.1775 92.0681 56.7415 92.3347C55.319 93.2048 53.7866 93.3037 52.2239 92.8497C50.8893 92.4615 50.1353 91.5237 49.9294 90.1428C49.7323 88.8211 50.1322 87.7282 51.1871 86.9083C52.3675 85.9914 53.7662 85.6203 55.2123 85.4127C55.9993 85.2997 56.7946 85.247 57.7147 85.1541C57.6179 84.5401 57.5863 83.9516 57.4226 83.4029C57.2185 82.7197 56.6379 82.4619 55.9637 82.4067C55.1146 82.3372 54.3535 82.6129 53.6094 82.987C53.2911 83.1467 52.9463 83.2801 52.5984 83.3483C52.0187 83.4623 51.5501 83.2403 51.2366 82.73C50.9902 82.3286 50.7528 81.9218 50.4899 81.4819C52.7407 79.6763 55.2234 78.9938 57.9703 79.6611C59.9716 80.1471 61.3286 81.8227 61.404 83.8887C61.5089 86.7634 61.4695 89.6435 61.4991 92.5212C61.5019 92.8166 61.3913 92.94 61.0964 92.9215C60.8684 92.9074 60.6379 92.9011 60.4105 92.9187C59.2877 93.0049 58.3109 92.8604 58.1288 91.3795ZM57.6466 87.4957C57.0621 87.5497 56.546 87.546 56.0553 87.6558C55.4317 87.7948 54.8 87.9652 54.2247 88.2345C53.6816 88.4886 53.5572 89.0383 53.6578 89.608C53.7529 90.1477 54.121 90.4072 54.644 90.4897C55.7434 90.6627 56.6704 90.3154 57.4478 89.5489C57.5557 89.4424 57.6301 89.2559 57.6376 89.1028C57.6615 88.6105 57.6466 88.1166 57.6466 87.4957Z" fill="#8E2E26"/>
<path fill-rule="evenodd" clip-rule="evenodd" d="M115.379 119.744C114.678 119.744 114.012 119.751 113.346 119.742C112.848 119.735 112.537 119.463 112.357 119.011C112.268 118.787 112.158 118.57 112.03 118.29C111.716 118.518 111.446 118.719 111.171 118.914C109.515 120.084 107.717 120.3 105.849 119.573C103.803 118.775 103.179 115.862 104.675 114.247C105.829 113 107.38 112.588 108.973 112.315C109.704 112.19 110.449 112.136 111.191 112.093C111.546 112.073 111.669 111.933 111.637 111.604C111.602 111.263 111.598 110.915 111.529 110.582C111.368 109.803 110.783 109.258 109.998 109.306C109.292 109.35 108.59 109.547 107.899 109.723C107.591 109.8 107.321 110.016 107.018 110.126C106.201 110.422 105.584 110.234 105.158 109.485C104.423 108.196 104.136 108.479 105.568 107.575C107.448 106.389 109.527 105.979 111.709 106.457C113.858 106.928 115.339 108.635 115.409 110.841C115.5 113.737 115.442 116.638 115.445 119.537C115.445 119.589 115.413 119.641 115.379 119.744ZM111.628 115.507C111.601 114.209 111.758 114.327 110.539 114.441C110.444 114.449 110.345 114.443 110.256 114.469C109.584 114.659 108.89 114.797 108.252 115.069C107.702 115.304 107.516 115.905 107.659 116.533C107.789 117.108 108.22 117.383 108.745 117.349C109.392 117.307 110.066 117.216 110.663 116.979C111.313 116.722 111.86 116.258 111.628 115.507Z" fill="#8E2E26"/>
<path fill-rule="evenodd" clip-rule="evenodd" d="M23.1766 97.1169C23.5218 96.3859 23.8335 95.7217 24.1492 95.0592C24.608 94.0962 25.0901 93.1441 25.5147 92.1668C25.6182 91.928 25.627 91.5691 25.5249 91.3327C23.9168 87.6104 22.2835 83.9001 20.6561 80.1865C20.5963 80.0501 20.538 79.9129 20.4336 79.6715C21.2742 79.6715 22.0423 79.6717 22.8104 79.6715C24.7368 79.6702 24.6878 79.524 25.3904 81.4258C26.1277 83.4217 26.8958 85.406 27.6935 87.5106C27.8128 87.2267 27.9124 87.0216 27.987 86.8074C28.6838 84.8125 29.3768 82.8163 30.0699 80.8202C30.4124 79.8342 30.6334 79.6749 31.6963 79.6701C32.586 79.666 33.4758 79.6691 34.45 79.6691C33.8599 81.0597 33.3052 82.3682 32.7496 83.6759C31.008 87.7748 29.2521 91.8673 27.5365 95.9768C27.1957 96.7932 26.7113 97.1852 25.8102 97.1281C24.9639 97.0751 24.1115 97.1169 23.1766 97.1169Z" fill="#8E2E26"/>
<path fill-rule="evenodd" clip-rule="evenodd" d="M96.3443 116.883C98.4173 116.883 100.315 116.883 102.243 116.883C102.243 117.857 102.243 118.778 102.243 119.736C98.7678 119.736 95.3275 119.736 91.8236 119.736C91.8105 118.703 91.6844 117.703 92.3857 116.791C94.0694 114.601 95.7102 112.378 97.3677 110.169C97.515 109.973 97.6574 109.773 97.8776 109.473C97.5851 109.455 97.3916 109.433 97.1984 109.432C95.7312 109.428 94.2635 109.404 92.7969 109.439C92.2755 109.452 92.1369 109.276 92.1672 108.787C92.2052 108.18 92.1822 107.568 92.1747 106.958C92.1715 106.698 92.2153 106.519 92.5399 106.52C95.7955 106.525 99.0511 106.523 102.371 106.523C102.385 107.676 102.541 108.741 101.738 109.746C100.039 111.873 98.4384 114.08 96.7981 116.255C96.6761 116.417 96.5602 116.584 96.3443 116.883Z" fill="#8E2E26"/>
<path fill-rule="evenodd" clip-rule="evenodd" d="M40.1277 102.678C40.1277 104 40.1277 105.235 40.1277 106.554C41.2379 106.554 42.311 106.554 43.4111 106.554C43.4111 107.468 43.4111 108.298 43.4111 109.201C42.3394 109.201 41.2824 109.201 40.178 109.201C40.1572 109.429 40.1302 109.592 40.1297 109.754C40.1256 111.718 40.1206 113.682 40.1261 115.646C40.1292 116.813 40.6352 117.162 41.7249 116.74C42.0869 116.599 42.3474 116.649 42.558 116.978C42.9376 117.571 43.3229 118.16 43.7321 118.792C43.6035 118.899 43.5025 119.007 43.3806 119.08C41.9931 119.906 40.4972 120.16 38.9232 119.836C37.4066 119.524 36.3303 118.36 36.2617 116.803C36.1633 114.577 36.1861 112.345 36.1583 110.115C36.1549 109.85 36.1578 109.584 36.1578 109.21C35.8027 109.21 35.4873 109.22 35.1731 109.208C34.5717 109.185 34.3365 108.96 34.3179 108.377C34.3034 107.921 34.3149 107.465 34.3149 106.953C34.8637 106.837 35.3928 106.692 35.9317 106.624C36.3275 106.574 36.4718 106.38 36.5506 106.019C36.7327 105.183 36.9474 104.353 37.1558 103.523C37.3308 102.826 37.5013 102.69 38.2287 102.68C38.8357 102.672 39.443 102.678 40.1277 102.678Z" fill="#8E2E26"/>
<path fill-rule="evenodd" clip-rule="evenodd" d="M104.223 81.4231C103.88 81.8693 103.561 82.2939 103.231 82.711C102.748 83.3223 102.411 83.3469 101.697 83.0109C101.104 82.7318 100.476 82.4447 99.8372 82.3624C98.547 82.1966 97.5193 82.911 97.1259 84.1523C96.689 85.532 96.6761 86.9336 97.1248 88.3121C97.7269 90.1615 99.641 90.8129 101.276 89.7504C101.483 89.6155 101.668 89.4467 101.877 89.3145C102.38 88.9959 102.871 89.0657 103.251 89.5141C103.608 89.9348 103.95 90.3681 104.326 90.8291C103.492 91.8469 102.427 92.4557 101.195 92.8096C97.9443 93.7439 94.9723 92.6092 93.5773 89.8331C92.6202 87.928 92.5518 85.917 93.1211 83.8812C93.6109 82.129 94.6924 80.8607 96.3341 80.0782C98.8951 78.8577 102.39 79.4378 104.223 81.4231Z" fill="#8E2E26"/>
<path fill-rule="evenodd" clip-rule="evenodd" d="M79.3812 119.737C78.0316 119.737 76.7631 119.737 75.457 119.737C75.457 115.344 75.457 110.987 75.457 106.605C76.4131 106.605 77.3766 106.563 78.3308 106.638C78.5375 106.655 78.7671 107.069 78.8853 107.343C79.0229 107.662 79.0494 108.03 79.1275 108.39C79.6548 107.85 80.0957 107.295 80.637 106.866C81.4727 106.204 82.4423 106.117 83.4492 106.471C83.7368 106.572 83.8689 106.735 83.8277 107.069C83.7345 107.825 83.6711 108.584 83.6152 109.344C83.5788 109.835 83.3463 110.076 82.8478 110.042C82.4866 110.017 82.1256 109.976 81.7641 109.968C80.3794 109.938 79.3814 110.922 79.3813 112.307C79.3811 114.556 79.3813 116.806 79.3813 119.054C79.3812 119.261 79.3812 119.468 79.3812 119.737Z" fill="#8E2E26"/>
<path fill-rule="evenodd" clip-rule="evenodd" d="M90.341 92.9192C89.1291 92.9192 87.97 92.9307 86.8117 92.9023C86.6886 92.8992 86.4808 92.6733 86.4673 92.5357C86.423 92.0829 86.449 91.6232 86.449 91.1661C86.4488 87.6048 86.449 84.0437 86.449 80.482C86.449 80.2392 86.449 79.9958 86.449 79.7109C87.7762 79.7109 89.0397 79.7109 90.3411 79.7109C90.341 84.0963 90.341 88.4677 90.341 92.9192Z" fill="#8E2E26"/>
<path fill-rule="evenodd" clip-rule="evenodd" d="M89.453 106.566C89.453 110.963 89.453 115.319 89.453 119.732C88.1731 119.732 86.9127 119.732 85.6055 119.732C85.6055 115.359 85.6055 110.989 85.6055 106.566C86.863 106.566 88.1244 106.566 89.453 106.566Z" fill="#8E2E26"/>
<path fill-rule="evenodd" clip-rule="evenodd" d="M18.8321 62.0049C18.8416 59.3687 20.5683 57.5958 23.1209 57.6016C25.6383 57.6072 27.4059 59.4493 27.3879 62.0489C27.3704 64.662 25.6049 66.4646 23.0765 66.4511C20.5279 66.4373 18.8228 64.6513 18.8321 62.0049ZM26.1857 62.0254C26.1857 61.8348 26.2056 61.642 26.1828 61.4543C26.0341 60.2444 25.5468 59.2229 24.3356 58.793C23.1406 58.3687 21.9328 58.4293 20.9707 59.3608C19.9086 60.3891 19.82 61.7144 20.0961 63.0793C20.3296 64.2343 21.0008 65.0435 22.1581 65.3693C24.4297 66.0096 26.204 64.5334 26.1857 62.0254Z" fill="#49423D"/>
<path fill-rule="evenodd" clip-rule="evenodd" d="M14.167 62.5627C15.0966 63.8235 15.9947 65.0412 16.9304 66.3101C16.163 66.4603 15.6122 66.4045 15.1934 65.7156C14.7201 64.9371 14.086 64.2563 13.6093 63.4794C13.166 62.757 12.5879 62.5807 11.7574 62.793C11.7574 63.9382 11.7574 65.11 11.7574 66.2799C11.628 66.3232 11.5594 66.3623 11.4886 66.3672C10.5785 66.4324 10.5781 66.4312 10.5781 65.5116C10.5781 63.1677 10.5781 60.8235 10.5781 58.4796C10.5781 58.2531 10.5781 58.0267 10.5781 57.6887C11.983 57.7757 13.3476 57.5121 14.6852 57.948C15.5992 58.246 16.104 58.8925 16.1816 59.8382C16.2588 60.7803 15.9321 61.5638 15.1068 62.0813C14.819 62.2615 14.5009 62.3936 14.167 62.5627ZM11.7363 58.5503C11.7363 59.6523 11.7303 60.6571 11.7464 61.6617C11.748 61.7503 11.9023 61.9175 11.9732 61.911C12.7232 61.8414 13.4995 61.8407 14.2098 61.6259C14.8791 61.4234 15.1737 60.6702 15.0805 59.9324C14.993 59.2416 14.6305 58.7889 13.8812 58.6685C13.1978 58.5586 12.4923 58.5862 11.7363 58.5503Z" fill="#49423D"/>
<path fill-rule="evenodd" clip-rule="evenodd" d="M29.0586 66.3068C30.0476 63.8425 31.0168 61.4274 31.9862 59.0123C32.0711 58.8005 32.1956 58.5952 32.2332 58.3753C32.3436 57.7299 32.7687 57.6028 33.31 57.7094C33.4935 57.7458 33.744 57.8778 33.8064 58.0304C34.9053 60.724 35.9803 63.4276 37.0591 66.1294C37.0787 66.1789 37.0813 66.2353 37.0919 66.2879C36.1817 66.5051 36.0405 66.4312 35.708 65.61C35.4946 65.0827 35.4016 64.3647 35.0065 64.0927C34.6114 63.821 33.9078 63.9902 33.3395 63.9808C32.7489 63.9711 32.1571 63.9962 31.5675 63.9725C31.225 63.9588 31.0472 64.081 30.9451 64.4085C30.8208 64.8071 30.6463 65.1899 30.4945 65.5799C30.1597 66.4383 30.0985 66.4718 29.0586 66.3068ZM31.4619 63.1594C32.5914 63.1594 33.6061 63.1594 34.7428 63.1594C34.1892 61.6962 33.6624 60.3042 33.0987 58.8152C32.5374 60.305 32.0124 61.6977 31.4619 63.1594Z" fill="#49423D"/>
<path fill-rule="evenodd" clip-rule="evenodd" d="M76.6036 65.4798C76.6036 65.7987 76.6036 66.0409 76.6036 66.3305C74.8579 66.3305 73.1184 66.3305 71.3301 66.3305C71.3301 63.4889 71.3301 60.6454 71.3301 57.75C73.0596 57.75 74.7995 57.75 76.5843 57.75C76.5843 57.9928 76.5843 58.2484 76.5843 58.5965C75.9029 58.5965 75.2066 58.5965 74.5104 58.5966C73.9582 58.5966 73.4052 58.6125 72.8536 58.5916C72.5002 58.5783 72.3882 58.7166 72.3986 59.0591C72.4185 59.7252 72.4221 60.3928 72.3978 61.0587C72.3838 61.4397 72.53 61.5557 72.8956 61.5488C73.8453 61.5311 74.7952 61.5428 75.7861 61.5428C75.7861 61.8444 75.7861 62.0962 75.7861 62.4244C74.6815 62.4244 73.5865 62.4244 72.4109 62.4244C72.4109 63.4024 72.3973 64.3085 72.4318 65.2128C72.4355 65.3072 72.7254 65.4634 72.8853 65.4671C73.8944 65.491 74.904 65.4796 75.9138 65.4798C76.1217 65.4798 76.3298 65.4798 76.6036 65.4798Z" fill="#49423D"/>
<path fill-rule="evenodd" clip-rule="evenodd" d="M3.16734 63.0869C3.16734 64.2257 3.16734 65.2515 3.16734 66.3257C2.80242 66.3257 2.47165 66.3257 2.08984 66.3257C2.08984 63.4898 2.08984 60.6465 2.08984 57.7088C3.53984 57.7773 5.0257 57.4456 6.44523 58.0606C7.39313 58.4713 7.90759 59.4504 7.80357 60.5422C7.68389 61.7953 6.97792 62.6625 5.78601 62.9292C5.29003 63.0402 4.76933 63.0495 4.25842 63.0826C3.92189 63.1048 3.58268 63.0869 3.16734 63.0869ZM3.19341 62.1765C3.88677 62.1765 4.51736 62.2305 5.13498 62.164C6.06698 62.0638 6.65767 61.3583 6.69757 60.4183C6.73464 59.5427 6.28639 58.8243 5.45609 58.6786C4.72466 58.5501 3.96399 58.5885 3.19341 58.5523C3.19341 59.8209 3.19341 60.9717 3.19341 62.1765Z" fill="#49423D"/>
<path fill-rule="evenodd" clip-rule="evenodd" d="M68.823 57.7413C68.2404 59.174 67.6762 60.5624 67.111 61.9506C66.5734 63.2716 66.0231 64.5876 65.5041 65.916C65.3634 66.276 65.17 66.3943 64.7857 66.3913C64.4047 66.3881 64.2128 66.274 64.0682 65.9124C63.035 63.335 61.9783 60.7666 60.9309 58.1948C60.8749 58.0574 60.8329 57.9142 60.7832 57.7697C61.8257 57.5849 61.8815 57.6148 62.2502 58.5396C63.0962 60.658 63.9418 62.7766 64.7924 64.9076C65.6431 62.7733 66.4866 60.6552 67.332 58.5375C67.6934 57.6318 67.6951 57.6327 68.823 57.7413Z" fill="#49423D"/>
<path fill-rule="evenodd" clip-rule="evenodd" d="M46.0507 65.2236C44.7793 66.4955 43.2517 66.7339 41.6136 66.2488C39.9773 65.7641 39.1291 64.5227 38.9058 62.8896C38.666 61.1348 39.0054 59.5318 40.5222 58.3941C42.1126 57.2008 44.5699 57.3441 45.8881 58.6827C45.4811 59.4053 45.4811 59.4053 44.7912 59.0059C42.622 57.7499 40.0925 59.1342 40.0196 61.6356C40.0038 62.1814 40.0311 62.7505 40.1687 63.2749C40.7102 65.3371 43.2133 66.2297 44.9349 64.9639C45.4398 64.5929 45.7281 64.644 46.0507 65.2236Z" fill="#49423D"/>
<path fill-rule="evenodd" clip-rule="evenodd" d="M87.4673 105.126C86.2103 105.111 85.147 104.07 85.1445 102.851C85.142 101.61 86.2404 100.546 87.5122 100.559C88.8112 100.571 89.896 101.606 89.902 102.838C89.9083 104.087 88.7858 105.142 87.4673 105.126Z" fill="#8E2E26"/>
<path fill-rule="evenodd" clip-rule="evenodd" d="M88.4182 73.7071C89.7325 73.7196 90.7985 74.7405 90.7974 75.9857C90.7968 77.2278 89.6515 78.2981 88.3508 78.273C87.0994 78.2483 86.0398 77.1931 86.0449 75.9759C86.0504 74.7194 87.1216 73.6953 88.4182 73.7071Z" fill="#8E2E26"/>
<path fill-rule="evenodd" clip-rule="evenodd" d="M130.541 105.108C129.256 105.105 128.23 104.114 128.219 102.863C128.207 101.602 129.266 100.546 130.546 100.543C131.854 100.54 132.956 101.608 132.944 102.868C132.931 104.113 131.86 105.113 130.541 105.108Z" fill="#8E2E26"/>
<path fill-rule="evenodd" clip-rule="evenodd" d="M47.8359 58.6188C47.8359 58.2897 47.8359 58.0465 47.8359 57.75C50.0552 57.75 52.2705 57.75 54.4888 57.75C54.7407 58.4933 54.6597 58.6169 53.908 58.6184C53.2277 58.6197 52.5476 58.6187 51.7996 58.6187C51.7996 61.2286 51.7996 63.7682 51.7996 66.335C51.605 66.3528 51.4751 66.357 51.3478 66.3777C50.816 66.4641 50.6248 66.2784 50.6333 65.7079C50.6664 63.5566 50.6323 61.4042 50.6571 59.2527C50.6626 58.7495 50.513 58.5803 50.0087 58.6088C49.3094 58.6483 48.6059 58.6188 47.8359 58.6188Z" fill="#49423D"/>
<path fill-rule="evenodd" clip-rule="evenodd" d="M58.2742 66.3488C57.9125 66.3488 57.5957 66.3488 57.2207 66.3488C57.2207 63.4785 57.2207 60.6251 57.2207 57.7344C57.5711 57.7344 57.9038 57.7344 58.2742 57.7344C58.2742 60.5958 58.2742 63.4398 58.2742 66.3488Z" fill="#49423D"/>
</svg>
