<svg width="133" height="20" viewBox="0 0 133 20" fill="none" xmlns="http://www.w3.org/2000/svg">
<path d="M36.0332 11.6882C36.0332 11.9462 36.0601 12.2293 36.1381 12.4933C36.2141 12.6983 36.3202 12.9313 36.4232 13.1403C36.4742 13.1913 36.4741 13.2693 36.4741 13.3453C36.4741 13.4523 36.3961 13.5533 36.2941 13.6063L35.7471 13.9673C35.6691 14.0213 35.5951 14.0463 35.5151 14.0463C35.4111 14.0463 35.3081 13.9923 35.2551 13.9153C35.1261 13.7873 35.0211 13.6573 34.9421 13.5023C34.8641 13.3453 34.7602 13.1673 34.6572 12.9553C34.0072 13.7623 33.0482 14.2012 32.0382 14.2012C31.3862 14.2272 30.7371 14.0203 30.2431 13.5533C29.8051 13.0843 29.5691 12.4623 29.5981 11.8423C29.5691 11.1403 29.8561 10.4653 30.3751 10.0253C30.9961 9.53427 31.7771 9.30028 32.5551 9.32428C32.8641 9.32428 33.1782 9.34924 33.4912 9.40124C33.8272 9.45524 34.1651 9.50428 34.5031 9.58728V8.93628C34.5561 8.41528 34.3981 7.89724 34.0871 7.50824C33.6731 7.19924 33.1532 7.04023 32.6362 7.08923C32.3232 7.08923 31.9841 7.14827 31.6751 7.22327C31.3331 7.30127 31.0252 7.40325 30.7142 7.53625C30.6102 7.58625 30.5071 7.61125 30.4011 7.66125H30.2722C30.1432 7.66125 30.0902 7.55926 30.0902 7.37726V6.96423C30.0902 6.86023 30.1151 6.75524 30.1431 6.65124C30.2211 6.57624 30.2971 6.49726 30.4011 6.46826C30.7661 6.29126 31.1281 6.15824 31.5181 6.05524C31.9591 5.95324 32.4262 5.87323 32.9182 5.87323C33.7502 5.79423 34.6061 6.05528 35.2541 6.60028C35.7991 7.20028 36.0592 8.00424 36.0062 8.80524V11.6893H36.0332V11.6882ZM32.4011 13.0582C32.7151 13.0582 33.0241 13.0062 33.3371 12.9042C33.6751 12.8002 33.9622 12.5952 34.1672 12.3342C34.2982 12.1782 34.3992 11.9963 34.4802 11.7903C34.5332 11.5273 34.5582 11.2713 34.5582 11.0143V10.6483C34.2982 10.5963 34.0091 10.5452 33.7261 10.4952C33.4391 10.4672 33.1811 10.4423 32.8941 10.4423C32.4291 10.4143 31.9621 10.5463 31.5721 10.8043C31.2851 11.0653 31.1311 11.4253 31.1561 11.7903C31.1311 12.1273 31.2611 12.4932 31.4941 12.7222C31.7251 12.9552 32.0631 13.0582 32.4011 13.0582ZM39.5632 14.0212C39.4342 14.0212 39.3312 13.9933 39.2252 13.9443C39.1232 13.8413 39.0731 13.7373 39.0451 13.6063L36.9692 6.70227C36.9162 6.59927 36.8912 6.46827 36.8912 6.34027C36.8662 6.23727 36.9421 6.13226 37.0471 6.13226C37.0701 6.13226 37.0701 6.13226 37.0981 6.13226H37.9831C38.1121 6.13226 38.2151 6.15824 38.3171 6.21124C38.3971 6.31524 38.4731 6.41824 38.4991 6.54724L40.0072 12.4382L41.3801 6.54724C41.4071 6.41824 41.4581 6.29124 41.5621 6.21124C41.6671 6.13224 41.7981 6.10726 41.9271 6.13226H42.6541C42.7811 6.13226 42.9141 6.15824 43.0151 6.21124C43.1201 6.31524 43.1711 6.41824 43.1971 6.54724L44.5991 12.5143L46.1582 6.54724C46.1832 6.41824 46.2602 6.29124 46.3402 6.21124C46.4422 6.13224 46.5721 6.10726 46.6761 6.13226H47.5041C47.6111 6.10726 47.7131 6.18526 47.7131 6.29126C47.7131 6.31426 47.7131 6.31427 47.7131 6.34027C47.7131 6.39127 47.7131 6.44326 47.7131 6.46826C47.6881 6.54726 47.6882 6.62728 47.6622 6.67828L45.5101 13.5803C45.4831 13.7133 45.4051 13.8423 45.3261 13.9163C45.2221 13.9933 45.0921 14.0213 44.9881 13.9933H44.2111C44.0821 14.0213 43.9531 13.9682 43.8461 13.8932C43.7441 13.7882 43.6921 13.6583 43.6661 13.5283L42.2641 7.79327L40.8641 13.5543C40.8391 13.6863 40.7861 13.8153 40.6821 13.9163C40.5771 13.9933 40.4482 14.0212 40.3192 14.0212H39.5632V14.0212ZM51.0081 14.2532C50.5391 14.2532 50.0742 14.2013 49.6312 14.0983C49.2702 14.0213 48.9322 13.9152 48.5942 13.7372C48.3852 13.6582 48.2562 13.4532 48.2562 13.2422V12.7733C48.2562 12.5953 48.3342 12.4933 48.4652 12.4933C48.5162 12.4933 48.5672 12.4933 48.6212 12.5143L48.8552 12.6202C49.1662 12.7512 49.5012 12.8553 49.8392 12.9323C50.2002 13.0073 50.5381 13.0363 50.9031 13.0363C51.3421 13.0593 51.8091 12.9573 52.2001 12.7523C52.4851 12.5693 52.6672 12.2613 52.6672 11.9233C52.6672 11.6903 52.5891 11.4543 52.4371 11.2963C52.1751 11.0663 51.8372 10.9083 51.5012 10.8303L50.2001 10.4142C49.6571 10.2612 49.1651 9.94925 48.8021 9.50525C48.5151 9.14125 48.3612 8.67927 48.3612 8.21027C48.3612 7.87427 48.4371 7.50924 48.5931 7.22424C48.7491 6.93724 48.9841 6.67925 49.2431 6.49725C49.5261 6.29225 49.8132 6.13323 50.1472 6.02923C50.5122 5.92523 50.9031 5.87427 51.2641 5.87427C51.4731 5.87427 51.6551 5.87428 51.8641 5.90228C52.0711 5.92428 52.2511 5.95425 52.4361 6.00525C52.6161 6.05625 52.7972 6.08124 52.9542 6.13324C53.0852 6.18624 53.2121 6.23824 53.3171 6.29224C53.4191 6.34124 53.4971 6.41925 53.5751 6.49725C53.6281 6.57625 53.6551 6.67928 53.6551 6.78528V7.20026C53.6551 7.37726 53.5751 7.48425 53.4461 7.48425C53.3171 7.45525 53.2121 7.43226 53.1061 7.37726C52.5651 7.14826 51.9911 7.01626 51.3951 7.04126C50.9811 7.01626 50.5631 7.11725 50.2001 7.30225C49.9171 7.45525 49.7612 7.76925 49.7882 8.10925C49.7882 8.34125 49.8641 8.57026 50.0461 8.73126C50.3331 8.96426 50.6692 9.11924 51.0322 9.22424L52.3032 9.61127C52.8462 9.74127 53.3172 10.0493 53.6782 10.4673C53.9632 10.8303 54.1191 11.2963 54.0961 11.7653C54.0961 12.1283 54.0141 12.4942 53.8581 12.8022C53.7061 13.1152 53.4711 13.3732 53.2121 13.5812C52.9271 13.8152 52.5891 13.9692 52.2261 14.0762C51.8651 14.2022 51.4511 14.2532 51.0081 14.2532Z" fill="white"/>
<path d="M36.0332 11.6882C36.0332 11.9462 36.0601 12.2293 36.1381 12.4933C36.2141 12.6983 36.3202 12.9313 36.4232 13.1403C36.4742 13.1913 36.4741 13.2693 36.4741 13.3453C36.4741 13.4523 36.3961 13.5533 36.2941 13.6063L35.7471 13.9673C35.6691 14.0213 35.5951 14.0463 35.5151 14.0463C35.4111 14.0463 35.3081 13.9923 35.2551 13.9153C35.1261 13.7873 35.0211 13.6573 34.9421 13.5023C34.8641 13.3453 34.7602 13.1673 34.6572 12.9553C34.0072 13.7623 33.0482 14.2012 32.0382 14.2012C31.3862 14.2272 30.7371 14.0203 30.2431 13.5533C29.8051 13.0843 29.5691 12.4623 29.5981 11.8423C29.5691 11.1403 29.8561 10.4653 30.3751 10.0253C30.9961 9.53427 31.7771 9.30028 32.5551 9.32428C32.8641 9.32428 33.1782 9.34924 33.4912 9.40124C33.8272 9.45524 34.1651 9.50428 34.5031 9.58728V8.93628C34.5561 8.41528 34.3981 7.89724 34.0871 7.50824C33.6731 7.19924 33.1532 7.04023 32.6362 7.08923C32.3232 7.08923 31.9841 7.14827 31.6751 7.22327C31.3331 7.30127 31.0252 7.40325 30.7142 7.53625C30.6102 7.58625 30.5071 7.61125 30.4011 7.66125H30.2722C30.1432 7.66125 30.0902 7.55926 30.0902 7.37726V6.96423C30.0902 6.86023 30.1151 6.75524 30.1431 6.65124C30.2211 6.57624 30.2971 6.49726 30.4011 6.46826C30.7661 6.29126 31.1281 6.15824 31.5181 6.05524C31.9591 5.95324 32.4262 5.87323 32.9182 5.87323C33.7502 5.79423 34.6061 6.05528 35.2541 6.60028C35.7991 7.20028 36.0592 8.00424 36.0062 8.80524V11.6893H36.0332V11.6882ZM32.4011 13.0582C32.7151 13.0582 33.0241 13.0062 33.3371 12.9042C33.6751 12.8002 33.9622 12.5952 34.1672 12.3342C34.2982 12.1782 34.3992 11.9963 34.4802 11.7903C34.5332 11.5273 34.5582 11.2713 34.5582 11.0143V10.6483C34.2982 10.5963 34.0091 10.5452 33.7261 10.4952C33.4391 10.4672 33.1811 10.4423 32.8941 10.4423C32.4291 10.4143 31.9621 10.5463 31.5721 10.8043C31.2851 11.0653 31.1311 11.4253 31.1561 11.7903C31.1311 12.1273 31.2611 12.4932 31.4941 12.7222C31.7251 12.9552 32.0631 13.0582 32.4011 13.0582ZM39.5632 14.0212C39.4342 14.0212 39.3312 13.9933 39.2252 13.9443C39.1232 13.8413 39.0731 13.7373 39.0451 13.6063L36.9692 6.70227C36.9162 6.59927 36.8912 6.46827 36.8912 6.34027C36.8662 6.23727 36.9421 6.13226 37.0471 6.13226C37.0701 6.13226 37.0701 6.13226 37.0981 6.13226H37.9831C38.1121 6.13226 38.2151 6.15824 38.3171 6.21124C38.3971 6.31524 38.4731 6.41824 38.4991 6.54724L40.0072 12.4382L41.3801 6.54724C41.4071 6.41824 41.4581 6.29124 41.5621 6.21124C41.6671 6.13224 41.7981 6.10726 41.9271 6.13226H42.6541C42.7811 6.13226 42.9141 6.15824 43.0151 6.21124C43.1201 6.31524 43.1711 6.41824 43.1971 6.54724L44.5991 12.5143L46.1582 6.54724C46.1832 6.41824 46.2602 6.29124 46.3402 6.21124C46.4422 6.13224 46.5721 6.10726 46.6761 6.13226H47.5041C47.6111 6.10726 47.7131 6.18526 47.7131 6.29126C47.7131 6.31426 47.7131 6.31427 47.7131 6.34027C47.7131 6.39127 47.7131 6.44326 47.7131 6.46826C47.6881 6.54726 47.6882 6.62728 47.6622 6.67828L45.5101 13.5803C45.4831 13.7133 45.4051 13.8423 45.3261 13.9163C45.2221 13.9933 45.0921 14.0213 44.9881 13.9933H44.2111C44.0821 14.0213 43.9531 13.9682 43.8461 13.8932C43.7441 13.7882 43.6921 13.6583 43.6661 13.5283L42.2641 7.79327L40.8641 13.5543C40.8391 13.6863 40.7861 13.8153 40.6821 13.9163C40.5771 13.9933 40.4482 14.0212 40.3192 14.0212H39.5632V14.0212ZM51.0081 14.2532C50.5391 14.2532 50.0742 14.2013 49.6312 14.0983C49.2702 14.0213 48.9322 13.9152 48.5942 13.7372C48.3852 13.6582 48.2562 13.4532 48.2562 13.2422V12.7733C48.2562 12.5953 48.3342 12.4933 48.4652 12.4933C48.5162 12.4933 48.5672 12.4933 48.6212 12.5143L48.8552 12.6202C49.1662 12.7512 49.5012 12.8553 49.8392 12.9323C50.2002 13.0073 50.5381 13.0363 50.9031 13.0363C51.3421 13.0593 51.8091 12.9573 52.2001 12.7523C52.4851 12.5693 52.6672 12.2613 52.6672 11.9233C52.6672 11.6903 52.5891 11.4543 52.4371 11.2963C52.1751 11.0663 51.8372 10.9083 51.5012 10.8303L50.2001 10.4142C49.6571 10.2612 49.1651 9.94925 48.8021 9.50525C48.5151 9.14125 48.3612 8.67927 48.3612 8.21027C48.3612 7.87427 48.4371 7.50924 48.5931 7.22424C48.7491 6.93724 48.9841 6.67925 49.2431 6.49725C49.5261 6.29225 49.8132 6.13323 50.1472 6.02923C50.5122 5.92523 50.9031 5.87427 51.2641 5.87427C51.4731 5.87427 51.6551 5.87428 51.8641 5.90228C52.0711 5.92428 52.2511 5.95425 52.4361 6.00525C52.6161 6.05625 52.7972 6.08124 52.9542 6.13324C53.0852 6.18624 53.2121 6.23824 53.3171 6.29224C53.4191 6.34124 53.4971 6.41925 53.5751 6.49725C53.6281 6.57625 53.6551 6.67928 53.6551 6.78528V7.20026C53.6551 7.37726 53.5751 7.48425 53.4461 7.48425C53.3171 7.45525 53.2121 7.43226 53.1061 7.37726C52.5651 7.14826 51.9911 7.01626 51.3951 7.04126C50.9811 7.01626 50.5631 7.11725 50.2001 7.30225C49.9171 7.45525 49.7612 7.76925 49.7882 8.10925C49.7882 8.34125 49.8641 8.57026 50.0461 8.73126C50.3331 8.96426 50.6692 9.11924 51.0322 9.22424L52.3032 9.61127C52.8462 9.74127 53.3172 10.0493 53.6782 10.4673C53.9632 10.8303 54.1191 11.2963 54.0961 11.7653C54.0961 12.1283 54.0141 12.4942 53.8581 12.8022C53.7061 13.1152 53.4711 13.3732 53.2121 13.5812C52.9271 13.8152 52.5891 13.9692 52.2261 14.0762C51.8651 14.2022 51.4511 14.2532 51.0081 14.2532Z" fill="white"/>
<path d="M58.1188 14.0994C57.9608 14.0994 57.8848 14.0223 57.8848 13.8663V6.39136C57.8848 6.23836 57.9608 6.15936 58.1188 6.15936H58.4038C58.5558 6.15936 58.6378 6.23836 58.6638 6.39136L58.7148 7.01538C59.1558 6.65138 59.6248 6.39136 60.1168 6.18536C60.6068 5.97736 61.0758 5.90234 61.5428 5.90234C62.4788 5.90234 63.0738 6.31537 63.3848 7.11737C63.8538 6.72937 64.3479 6.41934 64.8649 6.21234C65.3849 6.00534 65.9018 5.90234 66.4238 5.90234C67.0978 5.90234 67.6188 6.10735 67.9808 6.52435C68.3438 6.93635 68.4988 7.53636 68.4988 8.31036V13.8663C68.4988 14.0223 68.4208 14.0994 68.2668 14.0994H67.8528C67.6968 14.0994 67.6208 14.0223 67.6208 13.8663V8.70233C67.6208 8.02533 67.5138 7.50938 67.2808 7.20038C67.0448 6.88538 66.7108 6.72937 66.2178 6.72937C65.2798 6.72937 64.3998 7.06735 63.5438 7.71735C63.5708 7.97335 63.5948 8.20936 63.5948 8.46936V13.8654C63.5948 14.0214 63.5168 14.0983 63.3608 14.0983H62.9718C62.8158 14.0983 62.7399 14.0214 62.7399 13.8654V8.70135C62.7399 8.02435 62.6349 7.50834 62.4019 7.19934C62.1679 6.88434 61.8318 6.72833 61.3358 6.72833C60.4278 6.72833 59.5488 7.04035 58.7168 7.68835V13.8654C58.7168 14.0214 58.6409 14.0983 58.4849 14.0983H58.1188V14.0994Z" fill="white"/>
<path d="M72.1602 14.2813C71.4862 14.2813 70.9371 14.0753 70.5471 13.6583C70.1581 13.2423 69.9512 12.6723 69.9512 11.9963C69.9512 11.2193 70.1871 10.6223 70.6761 10.1823C71.1701 9.74031 71.8482 9.50433 72.6742 9.50433C73.3282 9.50433 74.0261 9.63734 74.7811 9.87134V8.54529C74.7811 7.89729 74.6482 7.43233 74.3652 7.17133C74.0782 6.88433 73.6092 6.75433 72.9612 6.75433C72.2872 6.75433 71.5841 6.88432 70.8071 7.14832C70.7331 7.17132 70.6532 7.20032 70.5752 7.20032C70.4712 7.20032 70.4211 7.1173 70.4211 6.9873V6.72931C70.4211 6.65131 70.4462 6.57629 70.4722 6.52429C70.4972 6.46829 70.5482 6.4433 70.6262 6.3913C71.4072 6.0553 72.2122 5.90234 73.0952 5.90234C73.9742 5.90234 74.5992 6.10731 75.0132 6.49731C75.4272 6.88531 75.6362 7.48429 75.6362 8.26129V13.8663C75.6362 14.0223 75.5582 14.0993 75.4042 14.0993H75.0902C74.9362 14.0993 74.8602 14.0223 74.8602 13.8663L74.8052 13.1923C73.9472 13.9153 73.0672 14.2813 72.1602 14.2813ZM72.2622 13.4533C72.6252 13.4533 73.0392 13.3723 73.4552 13.2193C73.8962 13.0593 74.3102 12.8293 74.7522 12.5143V10.5453C74.1042 10.3643 73.4552 10.2603 72.8322 10.2603C71.4572 10.2603 70.7811 10.8293 70.7811 11.9733C70.7811 12.4633 70.9122 12.8293 71.1442 13.0853C71.4322 13.3203 71.7932 13.4533 72.2622 13.4533Z" fill="white"/>
<path d="M77.818 14.101C77.66 14.101 77.584 14.024 77.584 13.868V6.39301C77.584 6.24001 77.66 6.16101 77.818 6.16101H78.0969C78.2549 6.16101 78.331 6.24001 78.359 6.39301L78.437 7.30298C78.802 6.86198 79.166 6.549 79.527 6.367C79.892 6.186 80.2789 6.08203 80.7479 6.08203C80.9019 6.08203 81.0309 6.08203 81.1389 6.10803C81.2929 6.10803 81.369 6.212 81.369 6.367V6.75598C81.369 6.81198 81.344 6.83699 81.318 6.88599C81.293 6.91399 81.242 6.93799 81.189 6.93799C81.109 6.93799 81.031 6.93799 80.953 6.93799C80.879 6.93799 80.7749 6.93799 80.6439 6.93799C80.2009 6.93799 79.7869 7.01703 79.4509 7.20203C79.1109 7.37903 78.777 7.66303 78.437 8.08203V13.896C78.437 14.049 78.359 14.129 78.203 14.129H77.818V14.101V14.101Z" fill="white"/>
<path d="M82.7711 14.0994C82.6151 14.0994 82.5391 14.0224 82.5391 13.8664V2.62744C82.5391 2.47444 82.6151 2.39844 82.7711 2.39844H83.1621C83.3181 2.39844 83.394 2.47444 83.394 2.62744V9.68939L86.9231 6.31641C87.0281 6.21241 87.1551 6.1604 87.2841 6.1604H87.8071C87.9361 6.1604 87.9871 6.2134 87.9871 6.2934C87.9871 6.3424 87.9361 6.42039 87.8331 6.52539L84.2761 9.89642L88.1411 13.7394C88.2191 13.8164 88.27 13.8954 88.27 13.9464C88.27 14.0494 88.219 14.1004 88.092 14.1004H87.467C87.336 14.1004 87.2331 14.0484 87.1541 13.9694L83.4181 10.2094V13.8664C83.4181 14.0224 83.3401 14.0994 83.1841 14.0994H82.7711Z" fill="white"/>
<path d="M92.2164 14.3348C91.0504 14.3348 90.1674 13.9698 89.5704 13.2718C88.9744 12.5708 88.6895 11.5058 88.6895 10.1058C88.6895 8.78177 88.9744 7.74278 89.5704 7.01678C90.1684 6.29278 90.9964 5.92578 92.0604 5.92578C92.9454 5.92578 93.6424 6.21274 94.1134 6.75574C94.5804 7.30274 94.8385 8.08077 94.8385 9.11877C94.8385 9.53577 94.8135 9.84376 94.7875 10.0778C94.7625 10.2338 94.6834 10.3127 94.5254 10.3127H89.5435C89.5435 11.4257 89.7794 12.2308 90.2214 12.7748C90.6624 13.2958 91.3344 13.5547 92.2684 13.5547C92.9714 13.5547 93.6435 13.4248 94.2975 13.1688C94.4265 13.1148 94.5025 13.0858 94.5535 13.0858C94.6085 13.0858 94.6314 13.1148 94.6584 13.1418C94.6834 13.1688 94.7095 13.2198 94.7095 13.2708V13.5038C94.7095 13.6868 94.6585 13.7888 94.5535 13.8428C93.8275 14.1528 93.0734 14.3348 92.2164 14.3348ZM94.0325 9.53674C94.0325 9.37774 94.0614 9.22475 94.0614 9.01575C94.0614 8.26175 93.8774 7.69073 93.5404 7.30273C93.2044 6.91373 92.6855 6.70374 92.0365 6.70374C90.4795 6.70374 89.6755 7.63877 89.5695 9.53577H94.0325V9.53674Z" fill="white"/>
<path d="M98.8336 14.202C98.2636 14.202 97.8216 14.047 97.5116 13.713C97.1976 13.372 97.0426 12.904 97.0426 12.26V6.93604H95.8785C95.7205 6.93604 95.6426 6.86 95.6426 6.703V6.54803C95.6426 6.46903 95.6696 6.39203 95.6956 6.36603C95.7206 6.31503 95.7755 6.29199 95.8795 6.29199L97.0725 6.18604L97.1746 4.11102C97.1746 4.03202 97.1976 3.95502 97.2526 3.92902C97.2796 3.90402 97.3306 3.875 97.4086 3.875H97.6686C97.8226 3.875 97.9026 3.95399 97.9026 4.10999V6.185H100.028C100.184 6.185 100.266 6.26303 100.266 6.41803V6.729C100.266 6.884 100.184 6.96301 100.028 6.96301H97.9026V12.23C97.9026 12.672 97.9786 12.957 98.1586 13.141C98.3426 13.321 98.6296 13.402 99.0156 13.402C99.3026 13.402 99.5606 13.373 99.7676 13.321C99.8726 13.295 99.9516 13.27 100.028 13.27C100.081 13.243 100.133 13.243 100.159 13.243C100.266 13.243 100.317 13.295 100.317 13.425V13.659C100.317 13.843 100.266 13.945 100.159 13.994C99.7676 14.126 99.3276 14.202 98.8336 14.202Z" fill="white"/>
<path d="M101.845 17.3718C101.687 17.3718 101.611 17.2958 101.611 17.1388V6.39276C101.611 6.23976 101.687 6.16077 101.845 6.16077H102.132C102.286 6.16077 102.364 6.23976 102.392 6.39276L102.443 7.04181C102.882 6.65181 103.324 6.36677 103.765 6.18677C104.206 6.00677 104.62 5.92578 105.089 5.92578C106.052 5.92578 106.802 6.29278 107.345 7.01678C107.892 7.74278 108.179 8.75477 108.179 10.0278C108.179 11.3238 107.892 12.3628 107.32 13.1428C106.75 13.9178 105.972 14.3118 104.984 14.3118C104.078 14.3118 103.248 13.9468 102.519 13.2448V17.1638C102.519 17.3208 102.443 17.3968 102.287 17.3968H101.846V17.3718H101.845ZM104.857 13.4548C105.66 13.4548 106.259 13.1698 106.673 12.5978C107.087 12.0268 107.294 11.1938 107.294 10.0778C107.294 7.84676 106.515 6.7298 104.933 6.7298C104.128 6.7298 103.3 7.06776 102.494 7.74176V12.3878C102.883 12.7528 103.301 13.0368 103.662 13.1938C104.025 13.3468 104.441 13.4548 104.857 13.4548Z" fill="white"/>
<path d="M111.061 14.1514C110.666 14.1514 110.358 14.0224 110.153 13.7894C109.917 13.5294 109.811 13.1924 109.811 12.7524V2.62744C109.811 2.47444 109.893 2.39844 110.045 2.39844H110.438C110.592 2.39844 110.667 2.47444 110.667 2.62744V12.7234C110.667 12.9574 110.722 13.1164 110.802 13.2204C110.876 13.3224 111.032 13.3474 111.241 13.3474C111.292 13.3474 111.368 13.3474 111.448 13.3224C111.526 13.3224 111.579 13.2964 111.628 13.2964C111.761 13.2964 111.837 13.3744 111.837 13.5304V13.8434C111.837 13.9694 111.786 14.0484 111.653 14.0764C111.447 14.1274 111.266 14.1514 111.061 14.1514Z" fill="white"/>
<path d="M115.027 14.2813C114.355 14.2813 113.81 14.0753 113.42 13.6583C113.029 13.2423 112.822 12.6723 112.822 11.9963C112.822 11.2193 113.056 10.6223 113.552 10.1823C114.042 9.74031 114.718 9.50433 115.548 9.50433C116.196 9.50433 116.898 9.63734 117.652 9.87134V8.54529C117.652 7.89729 117.519 7.43233 117.234 7.17133C116.949 6.88433 116.482 6.75433 115.832 6.75433C115.156 6.75433 114.459 6.88432 113.678 7.14832C113.602 7.17132 113.524 7.20032 113.448 7.20032C113.344 7.20032 113.29 7.1173 113.29 6.9873V6.72931C113.29 6.65131 113.317 6.57629 113.345 6.52429C113.37 6.46829 113.421 6.4433 113.497 6.3913C114.278 6.0553 115.081 5.90234 115.964 5.90234C116.849 5.90234 117.47 6.10731 117.884 6.49731C118.302 6.88531 118.507 7.48429 118.507 8.26129V13.8663C118.507 14.0223 118.431 14.0993 118.277 14.0993H117.963C117.807 14.0993 117.729 14.0223 117.729 13.8663L117.678 13.1923C116.818 13.9153 115.937 14.2813 115.027 14.2813ZM115.132 13.4533C115.493 13.4533 115.911 13.3723 116.325 13.2193C116.766 13.0593 117.182 12.8293 117.622 12.5143V10.5453C116.974 10.3643 116.325 10.2603 115.702 10.2603C114.325 10.2603 113.651 10.8293 113.651 11.9733C113.651 12.4633 113.784 12.8293 114.014 13.0853C114.298 13.3203 114.663 13.4533 115.132 13.4533Z" fill="white"/>
<path d="M123.594 14.2816C122.451 14.2816 121.594 13.9166 120.998 13.2186C120.4 12.5136 120.117 11.4766 120.117 10.1296C120.117 8.77858 120.426 7.73955 121.023 7.03955C121.62 6.33955 122.502 5.97656 123.617 5.97656C124.166 5.97656 124.683 6.08059 125.176 6.29059C125.305 6.33959 125.358 6.44159 125.358 6.62659V6.85858C125.358 6.98558 125.305 7.06555 125.176 7.06555C125.153 7.06555 125.098 7.06555 125.074 7.03955C125.019 7.03955 124.967 7.01453 124.865 6.98553C124.474 6.88253 124.084 6.83453 123.693 6.83453C122.763 6.83453 122.088 7.08856 121.673 7.60956C121.257 8.12856 121.05 8.93456 121.05 10.0756V10.2596C121.05 11.3496 121.257 12.1506 121.673 12.6976C122.087 13.2186 122.763 13.4756 123.671 13.4756C124.06 13.4756 124.474 13.4006 124.941 13.2686C125.045 13.2416 125.123 13.2176 125.175 13.2176C125.226 13.2176 125.253 13.1906 125.279 13.1906C125.41 13.1906 125.461 13.2686 125.461 13.4006V13.6296C125.461 13.8146 125.41 13.9156 125.305 13.9676C124.735 14.1506 124.19 14.2816 123.594 14.2816Z" fill="white"/>
<path d="M129.795 14.3348C128.625 14.3348 127.746 13.9698 127.147 13.2718C126.551 12.5708 126.266 11.5058 126.266 10.1058C126.266 8.78177 126.551 7.74278 127.147 7.01678C127.747 6.29278 128.575 5.92578 129.639 5.92578C130.522 5.92578 131.221 6.21274 131.688 6.75574C132.159 7.30274 132.417 8.08077 132.417 9.11877C132.417 9.53577 132.39 9.84376 132.366 10.0778C132.339 10.2338 132.259 10.3127 132.106 10.3127H127.122C127.122 11.4257 127.358 12.2308 127.796 12.7748C128.239 13.2958 128.913 13.5547 129.847 13.5547C130.548 13.5547 131.222 13.4248 131.872 13.1688C132.003 13.1148 132.079 13.0858 132.13 13.0858C132.185 13.0858 132.21 13.1148 132.235 13.1418C132.258 13.1688 132.288 13.2198 132.288 13.2708V13.5038C132.288 13.6868 132.235 13.7888 132.13 13.8428C131.403 14.1528 130.625 14.3348 129.795 14.3348ZM131.612 9.53674C131.612 9.37774 131.637 9.22475 131.637 9.01575C131.637 8.26175 131.457 7.69073 131.119 7.30273C130.779 6.91373 130.264 6.70374 129.615 6.70374C128.056 6.70374 127.252 7.63877 127.146 9.53577H131.612V9.53674Z" fill="white"/>
<path d="M5.32837 19.4185C6.16342 19.4185 6.84045 18.7415 6.84045 17.9065C6.84045 17.0714 6.16342 16.3945 5.32837 16.3945C4.49331 16.3945 3.81641 17.0714 3.81641 17.9065C3.81641 18.7415 4.49331 19.4185 5.32837 19.4185Z" fill="white"/>
<path d="M14.0393 19.4185C14.8744 19.4185 15.5513 18.7415 15.5513 17.9065C15.5513 17.0714 14.8744 16.3945 14.0393 16.3945C13.2043 16.3945 12.5273 17.0714 12.5273 17.9065C12.5273 18.7415 13.2043 19.4185 14.0393 19.4185Z" fill="white"/>
<path d="M23.9648 3.80859H17.1758L14.4808 13.0376H4.66382L2.96484 7.60956H0.382812L3.07776 15.6916H16.0668L19.1328 5.87457H23.9648V3.80859Z" fill="white"/>
<path d="M9.9043 5.47144L12.8583 6.83441L15.7723 2.14844H9.9043V5.47144Z" fill="#00A5CB"/>
<path d="M15.7715 5.47144L12.8574 6.83441V2.14844H15.7715V5.47144Z" fill="#008EBA"/>
<path d="M12.8583 0.667969L9.9043 2.14697L12.8583 3.47394L15.7723 2.14697L12.8583 0.667969Z" fill="#36C1DA"/>
<path d="M3.26367 5.47144L6.21472 6.83441L9.12671 2.14844H3.26367V5.47144Z" fill="#F17C22"/>
<path d="M9.12683 5.47144L6.21484 6.83441V2.14844H9.12683V5.47144Z" fill="#E66024"/>
<path d="M6.21472 0.667969L3.26367 2.14697L6.21472 3.47394L9.12671 2.14697L6.21472 0.667969Z" fill="#F7972A"/>
<path d="M6.58203 10.929L9.53503 12.297L12.453 7.5H6.58203V10.929Z" fill="#1D66B0"/>
<path d="M12.4531 10.929L9.53516 12.297V7.5H12.4531V10.929Z" fill="#13509F"/>
<path d="M9.53503 6.13281L12.453 7.49878L9.53503 8.93677L6.58203 7.49878L9.53503 6.13281Z" fill="#177EBC"/>
</svg>
