<svg width="140" height="20" viewBox="0 0 140 20" fill="none" xmlns="http://www.w3.org/2000/svg">
<path d="M41.2483 15.6137H39.4733V8.73975C39.4733 8.17475 39.5062 7.48974 39.5782 6.67474H39.5472C39.4382 7.14074 39.3403 7.47072 39.2543 7.67572L36.0312 15.6137H34.7972L31.5653 7.73474C31.4753 7.50174 31.3773 7.14871 31.2803 6.67371H31.2513C31.2923 7.09771 31.3123 7.79172 31.3123 8.75372V15.6127H29.6562V4.99371H32.1772L35.0153 12.0627C35.2303 12.6067 35.3743 13.0117 35.4373 13.2797H35.4742C35.6602 12.7217 35.8122 12.3068 35.9272 12.0338L38.8184 4.99371H41.2523L41.2483 15.6137ZM44.5863 6.43671C44.2993 6.43671 44.0533 6.34471 43.8523 6.16071C43.6473 5.98071 43.5472 5.75072 43.5472 5.46472C43.5472 5.18672 43.6473 4.95173 43.8523 4.76373C44.0573 4.57773 44.2993 4.48175 44.5863 4.48175C44.8833 4.48175 45.1333 4.57873 45.3403 4.76373C45.5433 4.95173 45.6512 5.18672 45.6512 5.46472C45.6512 5.73472 45.5443 5.96071 45.3403 6.15271C45.1313 6.34071 44.8833 6.43671 44.5863 6.43671ZM45.4513 15.6137H43.7032V8.02875H45.4513V15.6137ZM53.2623 15.2637C52.6453 15.6137 51.9123 15.7897 51.0713 15.7897C49.9263 15.7897 49.0013 15.4377 48.2963 14.7357C47.5953 14.0307 47.2433 13.1177 47.2433 11.9967C47.2433 10.7507 47.6242 9.74873 48.3802 8.98773C49.1342 8.23173 50.1463 7.85071 51.4093 7.85071C52.1143 7.85071 52.7313 7.97172 53.2683 8.21472V9.81274C52.7313 9.41774 52.1593 9.22272 51.5513 9.22272C50.8153 9.22272 50.2113 9.46874 49.7373 9.95874C49.2643 10.4477 49.0303 11.0907 49.0303 11.8887C49.0303 12.6717 49.2533 13.2897 49.6943 13.7457C50.1393 14.2007 50.7374 14.4277 51.4854 14.4277C52.1144 14.4277 52.7043 14.2067 53.2623 13.7677V15.2637V15.2637ZM59.4753 9.66571C59.2643 9.50171 58.9613 9.4187 58.5613 9.4187C58.0473 9.4187 57.6143 9.65173 57.2683 10.1077C56.9203 10.5697 56.7483 11.1917 56.7483 11.9827V15.6127H55.0002V8.02771H56.7483V9.59174H56.7773C56.9473 9.05674 57.2093 8.64071 57.5623 8.34271C57.9153 8.04471 58.3123 7.89673 58.7513 7.89673C59.0653 7.89673 59.3063 7.94273 59.4723 8.03473L59.4753 9.66571ZM64.1453 15.7907C62.9543 15.7907 62.0043 15.4387 61.2933 14.7277C60.5823 14.0207 60.2273 13.0807 60.2273 11.9127C60.2273 10.6357 60.5983 9.64173 61.3383 8.92773C62.0783 8.21073 63.0763 7.85272 64.3303 7.85272C65.5353 7.85272 66.4753 8.20174 67.1483 8.89874C67.8203 9.59374 68.1562 10.5567 68.1562 11.7927C68.1562 13.0027 67.7933 13.9707 67.0663 14.6997C66.3423 15.4267 65.3693 15.7907 64.1453 15.7907ZM64.2253 9.22369C63.5413 9.22369 63.0023 9.45672 62.6083 9.92572C62.2103 10.3937 62.0123 11.0387 62.0123 11.8637C62.0123 12.6577 62.2133 13.2867 62.6143 13.7417C63.0183 14.2027 63.5533 14.4297 64.2253 14.4297C64.9143 14.4297 65.4444 14.2037 65.8134 13.7537C66.1824 13.3017 66.3663 12.6647 66.3663 11.8347C66.3663 11.0007 66.1824 10.3557 65.8134 9.9007C65.4444 9.4517 64.9123 9.22369 64.2253 9.22369ZM69.4594 15.3747V13.7817C70.1134 14.2717 70.8323 14.5177 71.6213 14.5177C72.6743 14.5177 73.2032 14.2107 73.2032 13.6007C73.2032 13.4257 73.1564 13.2798 73.0684 13.1588C72.9744 13.0358 72.8553 12.9277 72.7013 12.8387C72.5473 12.7437 72.3673 12.6567 72.1603 12.5847C71.9493 12.5097 71.7193 12.4287 71.4633 12.3317C71.1723 12.2167 70.8833 12.0907 70.6093 11.9397C70.3533 11.7997 70.1423 11.6437 69.9763 11.4688C69.8083 11.2977 69.6813 11.0937 69.5933 10.8747C69.5073 10.6477 69.4663 10.3907 69.4663 10.0938C69.4663 9.73275 69.5543 9.4077 69.7323 9.1297C69.9063 8.8497 70.1423 8.61474 70.4393 8.42474C70.7343 8.23774 71.0703 8.09373 71.4493 7.99573C71.8303 7.89973 72.2223 7.84973 72.6133 7.84973C73.3283 7.84973 73.9653 7.95672 74.5273 8.17072V9.67273C73.9843 9.30573 73.3633 9.12274 72.6603 9.12274C72.4393 9.12274 72.2403 9.14671 72.0623 9.19171C71.8843 9.23471 71.7303 9.29872 71.6073 9.37372C71.4783 9.45472 71.3823 9.54773 71.3123 9.65973C71.2423 9.76673 71.2053 9.8967 71.2073 10.0257C71.2073 10.1897 71.2423 10.3247 71.3123 10.4397C71.3823 10.5527 71.4863 10.6557 71.6233 10.7397C71.7643 10.8277 71.9283 10.9057 72.1213 10.9787C72.3163 11.0487 72.5373 11.1287 72.7893 11.2117C73.0923 11.3337 73.3913 11.4667 73.6823 11.6207C73.9463 11.7597 74.1703 11.9107 74.3563 12.0877C74.5403 12.2607 74.6843 12.4647 74.7863 12.6957C74.8863 12.9247 74.9363 13.1977 74.9363 13.5127C74.9363 13.8977 74.8463 14.2347 74.6653 14.5187C74.4833 14.8087 74.2433 15.0418 73.9423 15.2318C73.6413 15.4198 73.2942 15.5577 72.9012 15.6497C72.5032 15.7427 72.0883 15.7867 71.6533 15.7867C70.8073 15.7907 70.0764 15.6537 69.4594 15.3747ZM80.0203 15.7907C78.8293 15.7907 77.8773 15.4387 77.1683 14.7277C76.4573 14.0207 76.1023 13.0807 76.1023 11.9127C76.1023 10.6357 76.4753 9.64173 77.2133 8.92773C77.9513 8.21073 78.9533 7.85272 80.2073 7.85272C81.4103 7.85272 82.3502 8.20174 83.0212 8.89874C83.6952 9.59374 84.0312 10.5567 84.0312 11.7927C84.0312 13.0027 83.6684 13.9707 82.9434 14.6997C82.2194 15.4267 81.2443 15.7907 80.0203 15.7907ZM80.1023 9.22369C79.4183 9.22369 78.8773 9.45672 78.4833 9.92572C78.0853 10.3937 77.8873 11.0387 77.8873 11.8637C77.8873 12.6577 78.0903 13.2867 78.4893 13.7417C78.8913 14.2027 79.4283 14.4297 80.1023 14.4297C80.7883 14.4297 81.3173 14.2037 81.6863 13.7537C82.0553 13.3017 82.2413 12.6647 82.2413 11.8347C82.2413 11.0007 82.0553 10.3557 81.6863 9.9007C81.3173 9.4517 80.7873 9.22369 80.1023 9.22369ZM90.1763 5.78571C89.9423 5.65471 89.6743 5.58771 89.3713 5.58771C88.5213 5.58771 88.0983 6.05673 88.0983 7.00073V8.02875H89.8893V9.37671H88.1063V15.6137H86.3623V9.37671H85.0424V8.02875H86.3623V6.79773C86.3623 5.99973 86.6283 5.36971 87.1593 4.91071C87.6923 4.44771 88.3563 4.21875 89.1553 4.21875C89.5873 4.21875 89.9263 4.26173 90.1763 4.35773V5.78571V5.78571ZM95.2153 15.5347C94.8733 15.7007 94.4243 15.7847 93.8673 15.7847C92.3733 15.7847 91.6233 15.0787 91.6233 13.6667V9.37671H90.3363V8.02875H91.6233V6.27472L93.3733 5.78973V8.02875H95.2153V9.37671H93.3733V13.1717C93.3733 13.6177 93.4533 13.9398 93.6193 14.1328C93.7833 14.3268 94.0623 14.4217 94.4493 14.4217C94.7443 14.4217 95.0003 14.3367 95.2153 14.1697V15.5347V15.5347ZM110.035 15.6137H108.07L107.099 12.9137H102.853L101.919 15.6137H99.9603L104.003 4.99475H106.021L110.035 15.6137ZM106.627 11.4697L105.125 7.23773C105.08 7.09773 105.033 6.87872 104.984 6.57172H104.953C104.908 6.85472 104.857 7.07473 104.803 7.23773L103.321 11.4697H106.627ZM117.026 8.74872L112.862 14.2727H117.008V15.6137H110.41V14.9697L114.668 9.36871H110.816V8.02771H117.025V8.74872H117.026ZM125.225 15.6137H123.481V14.4127H123.448C122.942 15.3307 122.155 15.7907 121.085 15.7907C119.265 15.7907 118.355 14.7147 118.355 12.5617V8.02875H120.099V12.3837C120.099 13.7467 120.634 14.4287 121.703 14.4287C122.223 14.4287 122.644 14.2397 122.98 13.8657C123.316 13.4897 123.482 13.0007 123.482 12.3907V8.02771H125.23L125.225 15.6137ZM131.981 9.66571C131.77 9.50171 131.467 9.4187 131.069 9.4187C130.551 9.4187 130.12 9.65173 129.776 10.1077C129.428 10.5697 129.255 11.1917 129.255 11.9827V15.6127H127.507V8.02771H129.255V9.59174H129.286C129.454 9.05674 129.716 8.64071 130.071 8.34271C130.426 8.04471 130.821 7.89673 131.257 7.89673C131.573 7.89673 131.814 7.94273 131.98 8.03473L131.981 9.66571ZM139.76 12.2897H134.502C134.522 12.9887 134.742 13.5297 135.162 13.9097C135.58 14.2907 136.158 14.4777 136.891 14.4777C137.713 14.4777 138.471 14.2387 139.159 13.7527V15.1367C138.458 15.5717 137.526 15.7897 136.37 15.7897C135.237 15.7897 134.349 15.4437 133.702 14.7557C133.055 14.0677 132.735 13.1037 132.735 11.8487C132.735 10.6707 133.089 9.70971 133.799 8.96771C134.512 8.22371 135.395 7.85175 136.447 7.85175C137.502 7.85175 138.316 8.18271 138.892 8.85071C139.47 9.51471 139.759 10.4427 139.759 11.6297V12.2897H139.76ZM138.072 11.0727C138.066 10.4587 137.92 9.97373 137.627 9.63373C137.338 9.28873 136.936 9.11871 136.424 9.11871C135.922 9.11871 135.496 9.30275 135.147 9.65875C134.799 10.0188 134.584 10.4897 134.502 11.0727H138.072Z" fill="white"/>
<path d="M9.37146 0.667969H0.439453V9.59998H9.37146V0.667969Z" fill="#F25022"/>
<path d="M19.1877 0.667969H10.2617V9.59998H19.1877V0.667969Z" fill="#7FBA00"/>
<path d="M9.37146 10.4883H0.439453V19.4203H9.37146V10.4883Z" fill="#00A4EF"/>
<path d="M19.1877 10.4883H10.2617V19.4203H19.1877V10.4883Z" fill="#FFB900"/>
</svg>
