<svg width="1902" height="890" viewBox="0 0 1902 890" fill="none" xmlns="http://www.w3.org/2000/svg">
<mask id="mask0" mask-type="alpha" maskUnits="userSpaceOnUse" x="0" y="0" width="1902" height="890">
<path d="M1902 0H0V890H1902V0Z" fill="#005072"/>
</mask>
<g mask="url(#mask0)">
<path opacity="0.2" fill-rule="evenodd" clip-rule="evenodd" d="M833.718 881.371C834.111 879.549 834.393 877.695 834.915 875.912C837.826 865.978 844.165 859.076 853.659 855.066C854.686 854.632 855.008 854.214 854.947 853.052C854.187 838.482 865.693 824.111 880.306 821.591C883.567 821.028 886.973 821.163 890.307 821.239C891.664 821.27 892.412 821.087 893.182 819.864C899.624 809.626 908.743 803.106 920.61 800.569C943.549 795.663 966.833 811.62 970.608 834.753C971.507 840.265 971.432 845.71 970.075 851.134C969.982 851.505 969.929 851.888 969.878 852.267C969.866 852.359 969.94 852.46 970.003 852.638C976.223 852.452 982.111 853.824 987.449 857.095C996.078 862.384 1001.18 870.066 1002.68 880.105C1002.74 880.533 1002.89 880.949 1003 881.371C1003 883.353 1003 885.338 1003 887.322C1002.89 887.687 1002.74 888.049 1002.69 888.422C1000.51 904.365 987.356 916.022 971.246 916.047C935.876 916.102 900.506 916.086 865.137 916.049C852.331 916.035 840.636 908.008 836.047 896.049C834.974 893.254 834.479 890.236 833.717 887.322C833.718 885.338 833.718 883.353 833.718 881.371ZM955.952 863.978C956.085 863.277 956.141 862.845 956.251 862.427C957.336 858.277 958.426 854.128 959.526 849.982C960.581 846.003 960.924 842.005 960.43 837.882C957.614 814.435 930.071 802.325 910.835 816.077C905.709 819.743 902.258 824.686 899.369 830.149C897.766 833.18 897.701 833.151 894.295 832.508C889.961 831.692 885.669 830.92 881.224 832.082C871.289 834.678 864.594 844.123 865.631 854.277C865.844 856.357 865.871 858.457 866.087 860.539C866.193 861.568 865.819 861.98 864.87 862.273C862.77 862.925 860.709 863.699 858.637 864.437C848.537 868.042 842.826 877.72 844.624 888.177C846.336 898.134 855.207 905.511 865.603 905.517C900.805 905.537 936.006 905.535 971.207 905.494C973.059 905.492 974.959 905.242 976.752 904.777C987.418 902.009 994.086 891.443 992.049 880.369C989.965 869.035 979.343 862.06 969.729 863.254C965.268 863.81 960.732 863.748 955.952 863.978Z" fill="#231F20"/>
<path fill-rule="evenodd" clip-rule="evenodd" d="M214.963 465.57C214.559 467.121 214.295 468.724 213.725 470.211C211.286 476.568 205.068 480.836 198.259 480.844C179.455 480.864 160.651 480.871 141.846 480.842C133.281 480.83 126.286 474.633 125.128 466.156C125.101 465.957 125.02 465.765 124.963 465.57C124.963 464.515 124.963 463.461 124.963 462.406C125.022 462.181 125.102 461.961 125.136 461.734C125.933 456.396 128.644 452.312 133.231 449.502C136.07 447.762 139.199 447.031 142.506 447.131C142.54 447.037 142.579 446.983 142.572 446.934C142.545 446.733 142.517 446.53 142.468 446.332C141.747 443.449 141.707 440.553 142.185 437.623C144.191 425.324 156.57 416.84 168.766 419.449C175.075 420.799 179.923 424.263 183.348 429.707C183.757 430.357 184.155 430.455 184.877 430.437C186.649 430.398 188.46 430.326 190.194 430.625C197.963 431.965 204.08 439.605 203.676 447.352C203.644 447.969 203.815 448.192 204.361 448.422C209.409 450.555 212.778 454.223 214.326 459.504C214.604 460.453 214.754 461.438 214.963 462.406C214.963 463.46 214.963 464.515 214.963 465.57ZM142.653 452.775C137.542 452.142 131.895 455.849 130.786 461.875C129.703 467.762 133.248 473.381 138.919 474.852C139.872 475.1 140.882 475.233 141.867 475.233C160.581 475.256 179.297 475.256 198.012 475.247C203.539 475.243 208.255 471.321 209.166 466.028C210.122 460.467 207.085 455.323 201.715 453.405C200.614 453.012 199.518 452.602 198.402 452.257C197.898 452.099 197.698 451.88 197.755 451.333C197.87 450.228 197.884 449.11 197.998 448.005C198.549 442.607 194.99 437.585 189.708 436.204C187.345 435.587 185.063 435.995 182.758 436.431C180.947 436.773 180.913 436.788 180.06 435.177C178.524 432.273 176.689 429.644 173.964 427.695C163.737 420.382 149.094 426.822 147.597 439.289C147.334 441.48 147.516 443.605 148.077 445.721C148.662 447.926 149.241 450.131 149.818 452.338C149.877 452.559 149.906 452.789 149.977 453.162C147.436 453.036 145.024 453.07 142.653 452.775Z" fill="#0081AB"/>
<path fill-rule="evenodd" clip-rule="evenodd" d="M1720 516.975C1720.5 518.903 1720.83 520.898 1721.54 522.748C1724.58 530.658 1732.31 535.968 1740.79 535.977C1764.19 536.003 1787.59 536.013 1810.99 535.976C1821.65 535.96 1830.35 528.249 1831.79 517.702C1831.83 517.454 1831.93 517.216 1832 516.975C1832 515.662 1832 514.35 1832 513.038C1831.93 512.759 1831.83 512.484 1831.79 512.201C1830.79 505.561 1827.42 500.479 1821.71 496.98C1818.18 494.816 1814.28 493.908 1810.17 494.031C1810.13 493.914 1810.08 493.847 1810.09 493.786C1810.12 493.536 1810.15 493.281 1810.22 493.036C1811.11 489.449 1811.16 485.846 1810.57 482.2C1808.07 466.898 1792.67 456.343 1777.49 459.588C1769.64 461.267 1763.61 465.579 1759.34 472.352C1758.83 473.16 1758.34 473.282 1757.44 473.262C1755.24 473.21 1752.98 473.121 1750.82 473.494C1741.16 475.161 1733.54 484.666 1734.05 494.305C1734.09 495.075 1733.87 495.35 1733.19 495.637C1726.91 498.291 1722.72 502.856 1720.79 509.427C1720.45 510.607 1720.26 511.832 1720 513.038C1720 514.35 1720 515.663 1720 516.975ZM1809.99 501.056C1816.35 500.266 1823.37 504.879 1824.75 512.376C1826.1 519.702 1821.69 526.692 1814.63 528.524C1813.45 528.831 1812.19 528.995 1810.96 528.997C1787.67 529.024 1764.38 529.025 1741.09 529.012C1734.22 529.008 1728.35 524.128 1727.22 517.542C1726.03 510.625 1729.8 504.222 1736.49 501.838C1737.86 501.349 1739.22 500.838 1740.61 500.408C1741.24 500.213 1741.49 499.94 1741.42 499.259C1741.27 497.883 1741.25 496.493 1741.11 495.117C1740.43 488.401 1744.86 482.152 1751.43 480.435C1754.37 479.666 1757.21 480.176 1760.08 480.716C1762.33 481.141 1762.38 481.161 1763.44 479.156C1765.35 475.543 1767.63 472.271 1771.02 469.847C1783.75 460.75 1801.97 468.761 1803.83 484.271C1804.16 486.998 1803.93 489.644 1803.24 492.275C1802.51 495.018 1801.79 497.762 1801.07 500.508C1801 500.783 1800.96 501.069 1800.87 501.533C1804.03 501.381 1807.03 501.422 1809.99 501.056Z" fill="#0081AB"/>
<path fill-rule="evenodd" clip-rule="evenodd" d="M215.001 876.31C214.034 880.013 213.405 883.843 212.042 887.394C206.214 902.582 191.361 912.777 175.097 912.794C130.176 912.843 85.254 912.862 40.333 912.792C19.872 912.761 3.15902 897.956 0.39502 877.706C0.33102 877.231 0.136 876.774 0 876.31C0 873.79 0 871.271 0 868.751C0.141 868.216 0.332109 867.688 0.412109 867.144C2.31711 854.396 8.79308 844.638 19.7521 837.921C26.5321 833.765 34.0101 832.023 41.9091 832.259C41.9891 832.034 42.0841 831.905 42.0681 831.788C42.0041 831.308 41.9351 830.819 41.8181 830.349C40.0941 823.462 40.0011 816.544 41.1421 809.544C45.9341 780.165 75.5051 759.899 104.641 766.129C119.713 769.353 131.293 777.632 139.475 790.636C140.454 792.188 141.404 792.421 143.126 792.382C147.361 792.284 151.687 792.113 155.829 792.828C174.389 796.028 189.002 814.278 188.037 832.784C187.96 834.263 188.367 834.792 189.672 835.343C201.73 840.437 209.78 849.202 213.478 861.818C214.141 864.084 214.501 866.437 214.999 868.752C215.001 871.271 215.001 873.791 215.001 876.31ZM42.2611 845.746C30.0491 844.23 16.5601 853.086 13.9121 867.48C11.3251 881.546 19.7951 894.966 33.3411 898.484C35.6161 899.074 38.0321 899.388 40.3831 899.392C85.0901 899.445 129.799 899.447 174.507 899.421C187.71 899.413 198.976 890.044 201.15 877.4C203.433 864.119 196.182 851.826 183.352 847.248C180.723 846.31 178.103 845.328 175.437 844.502C174.232 844.127 173.756 843.604 173.89 842.297C174.166 839.654 174.199 836.986 174.47 834.344C175.785 821.449 167.283 809.451 154.666 806.155C149.02 804.679 143.568 805.657 138.064 806.695C133.739 807.511 133.655 807.549 131.619 803.7C127.95 796.762 123.566 790.481 117.057 785.827C92.626 768.36 57.6441 783.741 54.0681 813.52C53.4401 818.756 53.8771 823.836 55.2161 828.887C56.6121 834.153 57.9971 839.422 59.3761 844.694C59.5151 845.223 59.5881 845.772 59.7561 846.663C53.6861 846.371 47.9251 846.449 42.2611 845.746Z" fill="#0081AB"/>
<path opacity="0.2" fill-rule="evenodd" clip-rule="evenodd" d="M63.748 100.895C64.127 99.1381 64.4 97.3501 64.903 95.6301C67.71 86.0511 73.822 79.3961 82.978 75.5281C83.969 75.1101 84.278 74.7071 84.22 73.5851C83.487 59.5351 94.583 45.6771 108.676 43.2471C111.821 42.7041 115.105 42.8341 118.321 42.9081C119.63 42.9371 120.351 42.7611 121.093 41.5821C127.305 31.7081 136.098 25.4221 147.542 22.9741C169.665 18.2441 192.119 33.6311 195.758 55.9391C196.625 61.2541 196.552 66.5061 195.244 71.7361C195.154 72.0931 195.103 72.4631 195.054 72.8291C195.043 72.9171 195.113 73.0141 195.175 73.1851C201.174 73.0061 206.85 74.3291 211.999 77.4841C220.32 82.5851 225.237 89.9931 226.683 99.6731C226.745 100.085 226.891 100.486 226.996 100.893C226.996 102.806 226.996 104.719 226.996 106.632C226.894 106.985 226.746 107.333 226.697 107.693C224.598 123.069 211.909 134.31 196.374 134.334C162.265 134.387 128.156 134.372 94.0471 134.335C81.6971 134.321 70.42 126.58 65.994 115.048C64.96 112.352 64.481 109.444 63.748 106.632C63.748 104.721 63.748 102.808 63.748 100.895ZM181.624 84.1221C181.752 83.4461 181.807 83.0301 181.913 82.6271C182.96 78.6251 184.011 74.6241 185.072 70.6261C186.089 66.7901 186.421 62.9341 185.944 58.9591C183.229 36.3481 156.667 24.6681 138.116 37.9311C133.174 41.4661 129.846 46.2341 127.06 51.5021C125.514 54.4251 125.451 54.3961 122.166 53.7771C117.987 52.9891 113.847 52.2461 109.561 53.3661C99.98 55.8701 93.525 64.9791 94.524 74.7711C94.73 76.7771 94.755 78.8021 94.964 80.8091C95.066 81.8021 94.705 82.1991 93.789 82.4831C91.765 83.1111 89.776 83.8561 87.779 84.5691C78.038 88.0451 72.531 97.3791 74.265 107.464C75.916 117.066 84.471 124.179 94.495 124.185C128.442 124.204 162.389 124.203 196.336 124.163C198.121 124.161 199.954 123.92 201.683 123.473C211.969 120.803 218.399 110.613 216.435 99.9331C214.425 89.0031 204.182 82.2781 194.911 83.4291C190.608 83.9611 186.234 83.9001 181.624 84.1221Z" fill="#231F20"/>
<path fill-rule="evenodd" clip-rule="evenodd" d="M31.3501 182.466C10.2171 182.466 -10.911 182.452 -32.044 182.417C-54.255 182.381 -72.564 165.634 -75.576 142.595C-75.588 142.51 -75.664 142.268 -75.721 142.092C-75.781 141.904 -75.839 141.717 -75.892 141.528L-76.002 141.133V132.337L-75.912 131.978C-75.86 131.77 -75.802 131.563 -75.744 131.355C-75.661 131.057 -75.581 130.774 -75.553 130.577C-73.5 116.219 -66.436 105.084 -54.559 97.482C-48.35 93.508 -41.38 91.339 -33.815 91.022C-35.249 84.13 -35.367 77.054 -34.179 69.448C-29.745 41.069 -5.40796 19.668 22.433 19.668C26.293 19.668 30.162 20.095 33.933 20.937C49.885 24.5 62.4331 33.709 71.229 48.309C71.355 48.519 71.4451 48.63 71.4921 48.683C71.5671 48.696 71.73 48.714 72.043 48.714L73.28 48.686C74.721 48.65 76.1711 48.614 77.6171 48.614C80.9101 48.614 83.435 48.804 85.804 49.231C105.883 52.847 121.968 73.6 120.986 94.587C134.117 100.419 142.772 110.496 146.713 124.542C147.211 126.315 147.545 128.1 147.868 129.826C148.011 130.585 148.152 131.344 148.308 132.099L148.37 132.399V141.092L148.28 141.45C147.978 142.658 147.71 143.88 147.441 145.102C146.831 147.874 146.199 150.741 145.181 153.512C138.834 170.781 122.624 182.397 104.843 182.418C80.349 182.447 55.8461 182.466 31.3501 182.466ZM-32.862 111.128C-42.268 111.128 -53.546 118.401 -55.921 131.881C-58.288 145.324 -50.737 157.993 -38.356 161.348C-36.288 161.908 -34.084 162.205 -31.983 162.208C-4.56295 162.242 22.8621 162.256 50.2831 162.256C68.2701 162.256 86.254 162.25 104.241 162.239C116.22 162.232 126.358 153.466 128.346 141.394C130.447 128.624 123.95 117.097 112.18 112.71L110.458 112.064C108.426 111.299 106.325 110.508 104.263 109.839C100.921 108.757 100.444 106.259 100.633 104.354C100.768 103.004 100.842 101.656 100.921 100.229C100.999 98.826 101.079 97.375 101.221 95.922C102.405 83.804 94.701 72.319 83.302 69.208C81.598 68.743 79.8191 68.517 77.8631 68.517C74.4831 68.517 70.937 69.215 67.808 69.831C66.231 70.142 65.14 70.357 64.129 70.357C60.687 70.357 59.445 67.905 58.007 65.066C53.77 56.7 49.4801 51.177 44.0981 47.157C37.7811 42.441 30.378 39.949 22.689 39.949C3.40504 39.949 -12.845 54.79 -15.108 74.47C-15.688 79.527 -15.33 84.505 -14.014 89.687C-12.595 95.276 -11.1879 100.868 -9.78595 106.46C-9.67595 106.9 -9.59595 107.35 -9.49895 107.927C-9.45895 108.167 -9.41396 108.435 -9.35796 108.743L-8.68295 112.463L-12.458 112.273C-14.385 112.176 -16.28 112.118 -18.151 112.061C-22.383 111.932 -26.381 111.809 -30.465 111.279C-31.25 111.179 -32.057 111.128 -32.862 111.128Z" fill="#0081AB"/>
<path d="M22.435 22.6689C26.026 22.6689 29.657 23.0559 33.282 23.8659C48.592 27.2849 60.353 36.0669 68.663 49.8589C69.593 51.3999 70.498 51.7139 72.045 51.7139C72.151 51.7139 72.26 51.7129 72.372 51.7099C74.113 51.6679 75.868 51.6139 77.62 51.6139C80.199 51.6139 82.769 51.7319 85.275 52.1839C104.126 55.5789 118.969 74.9349 117.988 94.5609C117.91 96.1279 118.324 96.6909 119.65 97.2749C131.897 102.677 140.074 111.974 143.829 125.354C144.503 127.756 144.868 130.254 145.374 132.708C145.374 135.381 145.374 138.053 145.374 140.725C144.393 144.652 143.752 148.715 142.369 152.48C136.449 168.588 121.363 179.402 104.842 179.421C80.347 179.448 55.844 179.467 31.348 179.467C10.216 179.467 -10.907 179.453 -32.039 179.418C-52.821 179.385 -69.794 163.684 -72.603 142.206C-72.669 141.703 -72.866 141.217 -73.003 140.724C-73.003 138.052 -73.003 135.38 -73.003 132.707C-72.861 132.14 -72.667 131.58 -72.584 131.003C-70.65 117.481 -64.073 107.133 -52.942 100.008C-46.463 95.8619 -39.358 93.9799 -31.859 93.9799C-31.386 93.9799 -30.913 93.9879 -30.437 94.0019C-30.355 93.7629 -30.26 93.6269 -30.275 93.5039C-30.341 92.9919 -30.409 92.4759 -30.529 91.9769C-32.279 84.6719 -32.376 77.3359 -31.216 69.9119C-26.943 42.5689 -3.291 22.6689 22.435 22.6689ZM-12.308 109.279C-18.475 108.969 -24.327 109.053 -30.08 108.306C-31.001 108.187 -31.932 108.128 -32.862 108.128C-44.459 108.128 -56.384 117.227 -58.874 131.36C-61.501 146.277 -52.899 160.512 -39.14 164.241C-36.827 164.867 -34.375 165.202 -31.987 165.206C-4.568 165.24 22.854 165.253 50.274 165.253C68.264 165.253 86.253 165.247 104.244 165.237C117.654 165.229 129.097 155.292 131.306 141.881C133.624 127.794 126.259 114.756 113.228 109.901C110.557 108.905 107.896 107.865 105.188 106.987C103.963 106.591 103.48 106.036 103.617 104.649C103.896 101.846 103.93 99.0169 104.205 96.2149C105.541 82.5369 96.907 69.8129 84.091 66.3159C81.992 65.7439 79.92 65.5199 77.862 65.5199C74.296 65.5199 70.773 66.1919 67.228 66.8899C65.823 67.1669 64.858 67.3589 64.128 67.3589C62.577 67.3589 62.087 66.4889 60.681 63.7129C56.954 56.3549 52.503 49.6939 45.891 44.7559C38.71 39.3949 30.631 36.9519 22.688 36.9519C3.182 36.9509 -15.506 51.6839 -18.088 74.1289C-18.725 79.6829 -18.282 85.0689 -16.921 90.4269C-15.502 96.0119 -14.096 101.601 -12.695 107.191C-12.553 107.753 -12.48 108.334 -12.308 109.279ZM22.435 16.6719C8.429 16.6719 -5.352 21.9419 -16.368 31.5099C-27.497 41.1769 -34.874 54.4869 -37.14 68.9879C-38.194 75.7379 -38.265 82.0989 -37.345 88.2929C-44.141 89.0659 -50.455 91.2989 -56.174 94.9599C-68.809 103.047 -76.325 114.877 -78.515 130.121C-78.534 130.206 -78.589 130.402 -78.63 130.547C-78.696 130.781 -78.761 131.016 -78.82 131.252L-79 131.969V132.708V140.725V141.544L-78.781 142.333C-78.719 142.556 -78.65 142.778 -78.579 143C-78.561 143.056 -78.543 143.112 -78.526 143.167C-75.244 167.621 -55.726 185.377 -32.05 185.415C-12.071 185.448 8.66501 185.464 31.346 185.464C53.3 185.464 76.655 185.449 104.846 185.418C123.877 185.396 141.217 172.991 147.994 154.549C149.082 151.586 149.736 148.619 150.368 145.749C150.641 144.507 150.9 143.333 151.188 142.18L151.367 141.464V140.726V132.709V132.096L151.243 131.496C151.091 130.759 150.952 130.018 150.814 129.278C150.479 127.488 150.132 125.637 149.599 123.736C145.59 109.449 136.992 99.0179 124.027 92.6989C124.021 82.4539 120.437 72.2229 113.816 63.6269C106.667 54.3459 96.907 48.1869 86.335 46.2829C83.03 45.6869 79.776 45.6179 77.617 45.6179C76.119 45.6179 74.637 45.6559 73.203 45.6919L73.14 45.6929C63.942 30.9849 50.976 21.6739 34.587 18.0139C30.603 17.1229 26.514 16.6719 22.435 16.6719ZM-5.059 115.648L-6.408 108.209C-6.461 107.916 -6.504 107.66 -6.543 107.431C-6.638 106.866 -6.728 106.332 -6.878 105.731C-8.28 100.137 -9.688 94.5419 -11.108 88.9499C-12.333 84.1269 -12.667 79.5019 -12.129 74.8119C-10.04 56.6459 4.929 42.9469 22.689 42.9479C29.727 42.9479 36.51 45.2349 42.305 49.5609C47.297 53.2889 51.315 58.4889 55.333 66.4219C56.897 69.5109 58.845 73.3559 64.129 73.3559C65.432 73.3559 66.707 73.1049 68.321 72.7869L68.388 72.7739C71.381 72.1849 74.775 71.5169 77.862 71.5169C79.549 71.5169 81.07 71.7079 82.513 72.1019C92.52 74.8329 99.281 84.9499 98.237 95.6329C98.089 97.1459 98.007 98.6299 97.927 100.065C97.85 101.458 97.778 102.773 97.65 104.055C97.242 108.18 99.37 111.408 103.342 112.693C105.334 113.339 107.31 114.083 109.401 114.871C109.979 115.088 110.556 115.306 111.134 115.521C121.522 119.392 127.251 129.594 125.389 140.909C123.64 151.526 114.745 159.236 104.241 159.242C86.252 159.252 68.264 159.258 50.275 159.258C20.965 159.258 -5.94 159.242 -31.978 159.211C-33.818 159.209 -35.753 158.947 -37.571 158.455C-48.444 155.508 -55.063 144.308 -52.966 132.402C-50.875 120.532 -41.047 114.127 -32.86 114.127C-32.183 114.127 -31.506 114.17 -30.849 114.255C-26.62 114.804 -22.361 114.935 -18.242 115.061C-16.4 115.117 -14.495 115.175 -12.608 115.27L-5.059 115.648Z" fill="#005072"/>
<path opacity="0.2" fill-rule="evenodd" clip-rule="evenodd" d="M1791.23 123.312C1790.53 126.014 1790.07 128.809 1789.08 131.399C1784.82 142.481 1773.99 149.92 1762.12 149.932C1729.34 149.967 1696.57 149.982 1663.79 149.931C1648.86 149.909 1636.67 139.107 1634.65 124.332C1634.6 123.986 1634.46 123.651 1634.37 123.312C1634.37 121.474 1634.37 119.636 1634.37 117.797C1634.47 117.406 1634.61 117.022 1634.67 116.625C1636.06 107.323 1640.78 100.204 1648.78 95.3033C1653.72 92.2703 1659.18 90.9993 1664.94 91.1713C1665 91.0073 1665.07 90.9133 1665.06 90.8283C1665.01 90.4763 1664.96 90.1213 1664.88 89.7783C1663.62 84.7533 1663.55 79.7063 1664.38 74.5983C1667.88 53.1623 1689.46 38.3753 1710.71 42.9213C1721.71 45.2733 1730.16 51.3143 1736.13 60.8023C1736.84 61.9343 1737.54 62.1043 1738.79 62.0763C1741.88 62.0053 1745.04 61.8813 1748.06 62.4023C1761.6 64.7373 1772.27 78.0533 1771.56 91.5553C1771.51 92.6343 1771.8 93.0203 1772.75 93.4223C1781.55 97.1383 1787.43 103.533 1790.12 112.738C1790.61 114.391 1790.87 116.109 1791.23 117.797C1791.23 119.636 1791.23 121.474 1791.23 123.312ZM1665.2 101.011C1656.29 99.9063 1646.45 106.367 1644.51 116.87C1642.63 127.132 1648.81 136.924 1658.69 139.49C1660.35 139.921 1662.11 140.151 1663.83 140.155C1696.45 140.193 1729.07 140.194 1761.69 140.176C1771.32 140.17 1779.54 133.335 1781.13 124.108C1782.79 114.417 1777.5 105.448 1768.14 102.108C1766.22 101.423 1764.31 100.707 1762.37 100.104C1761.49 99.8313 1761.14 99.4493 1761.24 98.4953C1761.44 96.5673 1761.47 94.6213 1761.66 92.6933C1762.62 83.2843 1756.42 74.5313 1747.21 72.1253C1743.09 71.0483 1739.12 71.7623 1735.1 72.5203C1731.94 73.1163 1731.88 73.1443 1730.4 70.3343C1727.72 65.2723 1724.52 60.6903 1719.77 57.2933C1701.95 44.5493 1676.42 55.7723 1673.82 77.5003C1673.36 81.3213 1673.67 85.0263 1674.65 88.7113C1675.67 92.5543 1676.68 96.3993 1677.69 100.244C1677.79 100.631 1677.84 101.031 1677.96 101.681C1673.53 101.466 1669.33 101.525 1665.2 101.011Z" fill="#231F20"/>
<path fill-rule="evenodd" clip-rule="evenodd" d="M1708.07 123.633C1708.89 119.82 1709.49 115.94 1710.58 112.207C1716.67 91.4179 1729.94 76.9739 1749.81 68.5809C1751.96 67.6729 1752.63 66.7999 1752.5 64.3639C1750.91 33.8699 1774.99 3.7949 1805.58 -1.4791C1812.4 -2.6561 1819.53 -2.3741 1826.51 -2.2141C1829.35 -2.1491 1830.92 -2.53309 1832.53 -5.09109C1846.01 -26.5201 1865.09 -40.1641 1889.93 -45.4761C1937.94 -55.7421 1986.67 -22.3471 1994.57 26.0669C1996.45 37.6019 1996.3 49.0009 1993.46 60.3499C1993.26 61.1269 1993.15 61.9279 1993.04 62.7249C1993.02 62.9139 1993.17 63.1259 1993.31 63.4979C2006.33 63.1089 2018.65 65.9789 2029.82 72.8289C2047.88 83.8979 2058.55 99.9759 2061.69 120.985C2061.82 121.881 2062.14 122.75 2062.37 123.632C2062.37 127.784 2062.37 131.936 2062.37 136.088C2062.15 136.854 2061.83 137.609 2061.72 138.391C2057.16 171.76 2029.62 196.155 1995.91 196.206C1921.88 196.322 1847.86 196.289 1773.83 196.21C1747.03 196.18 1722.55 179.379 1712.95 154.352C1710.71 148.501 1709.67 142.188 1708.07 136.087C1708.07 131.937 1708.07 127.785 1708.07 123.633ZM1963.9 87.2309C1964.17 85.7629 1964.29 84.8599 1964.52 83.9859C1966.79 75.3009 1969.08 66.6169 1971.38 57.9399C1973.59 49.6149 1974.31 41.2469 1973.27 32.6179C1967.37 -16.4531 1909.73 -41.8001 1869.47 -13.0171C1858.74 -5.3461 1851.52 5.00291 1845.47 16.4349C1842.12 22.7789 1841.98 22.7169 1834.85 21.3729C1825.78 19.6619 1816.8 18.0499 1807.5 20.4799C1786.71 25.9149 1772.69 45.6839 1774.86 66.9349C1775.31 71.2899 1775.37 75.6839 1775.82 80.0379C1776.04 82.1919 1775.26 83.0549 1773.27 83.6709C1768.87 85.0339 1764.56 86.6509 1760.22 88.1979C1739.08 95.7419 1727.13 116 1730.9 137.886C1734.48 158.723 1753.05 174.163 1774.8 174.176C1848.48 174.217 1922.15 174.214 1995.82 174.128C1999.7 174.122 2003.68 173.602 2007.43 172.629C2029.75 166.835 2043.7 144.718 2039.44 121.541C2035.08 97.8189 2012.85 83.2259 1992.73 85.7229C1983.39 86.8809 1973.9 86.7499 1963.9 87.2309Z" fill="#0081AB" stroke="#005072" stroke-width="5.6645" stroke-miterlimit="10"/>
<path fill-rule="evenodd" clip-rule="evenodd" d="M710.593 -0.587753C710.85 -1.77875 711.035 -2.99075 711.376 -4.15675C713.279 -10.6518 717.424 -15.1638 723.631 -17.7858C724.303 -18.0698 724.512 -18.3428 724.473 -19.1038C723.976 -28.6298 731.5 -38.0258 741.055 -39.6738C743.187 -40.0418 745.414 -39.9538 747.595 -39.9028C748.482 -39.8828 748.971 -40.0028 749.475 -40.8018C753.687 -47.4958 759.648 -51.7588 767.408 -53.4188C782.407 -56.6268 797.632 -46.1928 800.099 -31.0678C800.686 -27.4638 800.637 -23.9028 799.75 -20.3577C799.689 -20.1147 799.654 -19.8648 799.621 -19.6168C799.614 -19.5568 799.661 -19.4908 799.703 -19.3748C803.77 -19.4958 807.619 -18.5988 811.11 -16.4588C816.752 -13.0008 820.086 -7.97775 821.066 -1.41475C821.108 -1.13475 821.207 -0.863753 821.278 -0.587753C821.278 0.709247 821.278 2.00625 821.278 3.30325C821.209 3.54325 821.109 3.77825 821.076 4.02225C819.652 14.4472 811.049 22.0683 800.515 22.0853C777.388 22.1213 754.262 22.1113 731.136 22.0863C722.763 22.0773 715.116 16.8282 712.115 9.00925C711.414 7.18125 711.09 5.20925 710.592 3.30325C710.593 2.00625 710.593 0.709247 710.593 -0.587753ZM790.515 -11.9598C790.601 -12.4188 790.639 -12.7008 790.71 -12.9738C791.42 -15.6868 792.133 -18.3998 792.852 -21.1108C793.541 -23.7118 793.766 -26.3258 793.443 -29.0218C791.602 -44.3528 773.593 -52.2718 761.015 -43.2788C757.664 -40.8828 755.408 -37.6498 753.519 -34.0778C752.471 -32.0958 752.428 -32.1158 750.201 -32.5358C747.367 -33.0708 744.56 -33.5738 741.654 -32.8148C735.158 -31.1168 730.781 -24.9408 731.459 -18.3018C731.599 -16.9418 731.616 -15.5688 731.757 -14.2088C731.826 -13.5358 731.581 -13.2657 730.961 -13.0737C729.588 -12.6477 728.24 -12.1428 726.886 -11.6588C720.281 -9.30275 716.548 -2.97275 717.723 3.86425C718.843 10.3743 724.642 15.1972 731.44 15.2012C754.457 15.2132 777.473 15.2132 800.489 15.1852C801.7 15.1842 802.943 15.0212 804.115 14.7172C811.089 12.9072 815.448 5.99825 814.117 -1.24275C812.754 -8.65375 805.808 -13.2128 799.523 -12.4328C796.606 -12.0698 793.64 -12.1108 790.515 -11.9598Z" fill="#0081AB"/>
<path fill-rule="evenodd" clip-rule="evenodd" d="M1630 830.622C1629.73 831.675 1629.55 832.763 1629.16 833.772C1627.51 838.086 1623.29 840.983 1618.68 840.988C1605.93 841.002 1593.19 841.006 1580.44 840.987C1574.64 840.979 1569.9 836.773 1569.11 831.02C1569.09 830.885 1569.04 830.754 1569 830.622C1569 829.906 1569 829.191 1569 828.475C1569.04 828.322 1569.09 828.173 1569.12 828.019C1569.66 824.396 1571.49 821.624 1574.6 819.717C1576.53 818.536 1578.65 818.04 1580.89 818.108C1580.91 818.044 1580.94 818.008 1580.93 817.974C1580.92 817.838 1580.9 817.7 1580.86 817.566C1580.38 815.609 1580.35 813.644 1580.67 811.655C1582.03 803.308 1590.42 797.55 1598.69 799.321C1602.96 800.237 1606.25 802.588 1608.57 806.283C1608.85 806.724 1609.12 806.79 1609.61 806.778C1610.81 806.752 1612.04 806.703 1613.21 806.906C1618.48 807.815 1622.62 813 1622.35 818.258C1622.33 818.677 1622.44 818.828 1622.81 818.984C1626.24 820.432 1628.52 822.921 1629.57 826.505C1629.76 827.149 1629.86 827.818 1630 828.475C1630 829.19 1630 829.906 1630 830.622ZM1580.99 821.938C1577.53 821.509 1573.7 824.025 1572.95 828.114C1572.21 832.11 1574.62 835.923 1578.46 836.922C1579.1 837.09 1579.79 837.18 1580.46 837.18C1593.14 837.196 1605.83 837.196 1618.51 837.19C1622.26 837.187 1625.45 834.525 1626.07 830.933C1626.72 827.159 1624.66 823.668 1621.02 822.366C1620.27 822.099 1619.53 821.821 1618.78 821.587C1618.43 821.48 1618.3 821.331 1618.34 820.96C1618.41 820.21 1618.42 819.451 1618.5 818.701C1618.87 815.038 1616.46 811.629 1612.88 810.692C1611.28 810.273 1609.73 810.55 1608.17 810.846C1606.94 811.078 1606.92 811.088 1606.34 809.995C1605.3 808.024 1604.06 806.24 1602.21 804.917C1595.28 799.954 1585.36 804.325 1584.34 812.786C1584.16 814.273 1584.29 815.715 1584.67 817.151C1585.06 818.648 1585.46 820.144 1585.85 821.642C1585.89 821.792 1585.91 821.948 1585.95 822.201C1584.23 822.116 1582.6 822.139 1580.99 821.938Z" fill="#0081AB"/>
<path fill-rule="evenodd" clip-rule="evenodd" d="M1621 863.412C1621.26 862.221 1621.44 861.009 1621.78 859.843C1623.69 853.348 1627.83 848.836 1634.04 846.214C1634.71 845.93 1634.92 845.657 1634.88 844.896C1634.38 835.37 1641.91 825.974 1651.46 824.326C1653.6 823.958 1655.82 824.046 1658 824.097C1658.89 824.117 1659.38 823.997 1659.88 823.198C1664.09 816.504 1670.06 812.241 1677.82 810.581C1692.81 807.373 1708.04 817.807 1710.51 832.932C1711.09 836.536 1711.05 840.097 1710.16 843.642C1710.1 843.885 1710.06 844.135 1710.03 844.383C1710.02 844.443 1710.07 844.509 1710.11 844.625C1714.18 844.504 1718.03 845.401 1721.52 847.541C1727.16 850.999 1730.49 856.022 1731.47 862.585C1731.52 862.865 1731.62 863.136 1731.69 863.412C1731.69 864.709 1731.69 866.006 1731.69 867.303C1731.62 867.543 1731.52 867.778 1731.48 868.022C1730.06 878.447 1721.46 886.068 1710.92 886.085C1687.8 886.121 1664.67 886.111 1641.54 886.086C1633.17 886.077 1625.52 880.828 1622.52 873.009C1621.82 871.181 1621.5 869.209 1621 867.303C1621 866.006 1621 864.709 1621 863.412ZM1700.92 852.04C1701.01 851.581 1701.05 851.299 1701.12 851.026C1701.83 848.313 1702.54 845.6 1703.26 842.889C1703.95 840.288 1704.17 837.674 1703.85 834.978C1702.01 819.647 1684 811.728 1671.42 820.721C1668.07 823.117 1665.82 826.35 1663.93 829.922C1662.88 831.904 1662.84 831.884 1660.61 831.464C1657.78 830.929 1654.97 830.426 1652.06 831.185C1645.57 832.883 1641.19 839.059 1641.87 845.698C1642.01 847.058 1642.02 848.431 1642.17 849.791C1642.23 850.464 1641.99 850.734 1641.37 850.926C1640 851.352 1638.65 851.857 1637.29 852.341C1630.69 854.697 1626.96 861.027 1628.13 867.864C1629.25 874.374 1635.05 879.197 1641.85 879.201C1664.87 879.213 1687.88 879.213 1710.9 879.185C1712.11 879.184 1713.35 879.021 1714.52 878.717C1721.5 876.907 1725.86 869.998 1724.53 862.757C1723.16 855.346 1716.22 850.787 1709.93 851.567C1707.01 851.93 1704.05 851.889 1700.92 852.04Z" fill="#074662"/>
</g>
</svg>
