<svg width="1902" height="690" viewBox="0 0 1902 690" fill="none" xmlns="http://www.w3.org/2000/svg">
<mask id="mask0" mask-type="alpha" maskUnits="userSpaceOnUse" x="0" y="0" width="1902" height="690">
<path d="M1902 0H0V689.544H1902V0Z" fill="#36424A"/>
</mask>
<g mask="url(#mask0)">
<g opacity="0.3">
<path d="M276.213 427.273L411.213 547.273L514.213 411.273L276.213 427.273Z" stroke="white" stroke-width="1.51"/>
<path d="M374.213 296.273L276.213 427.273L514.213 411.273L374.213 296.273Z" stroke="white" stroke-width="1.51"/>
<path d="M192.213 223.273L276.213 427.273L374.213 296.273L192.213 223.273Z" stroke="white" stroke-width="1.51"/>
<path d="M86.2129 417.273L190.213 584.273L236.213 553.273L86.2129 417.273Z" stroke="white" stroke-width="1.51"/>
<path d="M86.2129 417.273L236.213 553.273L276.213 427.273L86.2129 417.273Z" stroke="white" stroke-width="1.51"/>
<path d="M1572.21 330.273L1581.21 268.273L1420.21 278.273L1572.21 330.273Z" stroke="white" stroke-width="1.51"/>
<path d="M192.213 223.273L86.2129 417.273L276.213 427.273L192.213 223.273Z" stroke="white" stroke-width="1.51"/>
<path d="M86.2129 417.273L32.2129 459.273L190.213 584.273L86.2129 417.273Z" stroke="white" stroke-width="1.51"/>
<path d="M-45.7871 362.273L32.2129 459.273L86.2129 417.273L-45.7871 362.273Z" stroke="white" stroke-width="1.51"/>
<path d="M1581.21 268.273L1591.21 106.273L1420.21 278.273L1581.21 268.273Z" stroke="white" stroke-width="1.51"/>
<path d="M192.213 223.273L57.2129 247.273L86.2129 417.273L192.213 223.273Z" stroke="white" stroke-width="1.51"/>
<path d="M1581.21 268.273L1689.21 270.273L1591.21 106.273L1581.21 268.273Z" stroke="white" stroke-width="1.51"/>
<path d="M1572.21 330.273L1682.21 339.273L1581.21 268.273L1572.21 330.273Z" stroke="white" stroke-width="1.51"/>
<path d="M1742.21 450.273L1682.21 339.273L1518.21 482.273L1742.21 450.273Z" stroke="white" stroke-width="1.51"/>
<path d="M1682.21 339.273L1689.21 270.273L1581.21 268.273L1682.21 339.273Z" stroke="white" stroke-width="1.51"/>
<path d="M57.2129 247.273L-45.7871 362.273L86.2129 417.273L57.2129 247.273Z" stroke="white" stroke-width="1.51"/>
<path d="M1682.21 339.273L1771.21 399.273L1689.21 270.273L1682.21 339.273Z" stroke="white" stroke-width="1.51"/>
<path d="M1742.21 450.273L1771.21 399.273L1682.21 339.273L1742.21 450.273Z" stroke="white" stroke-width="1.51"/>
<path d="M1844.21 261.273L1672.21 82.2734L1689.21 270.273L1844.21 261.273Z" stroke="white" stroke-width="1.51"/>
<path d="M1689.21 270.273L1672.21 82.2734L1591.21 106.273L1689.21 270.273Z" stroke="white" stroke-width="1.51"/>
<path d="M1844.21 261.273L1994.21 362.273L1882.21 251.273L1844.21 261.273Z" stroke="white" stroke-width="1.51"/>
<path d="M1757.21 476.273L1771.21 399.273L1742.21 450.273L1757.21 476.273Z" stroke="white" stroke-width="1.51"/>
<path d="M-45.7871 362.273L-65.7871 543.273L32.2129 459.273L-45.7871 362.273Z" stroke="white" stroke-width="1.51"/>
<path d="M1771.21 399.273L1844.21 261.273L1689.21 270.273L1771.21 399.273Z" stroke="white" stroke-width="1.51"/>
<path d="M1948.21 487.273L1771.21 399.273L1757.21 476.273L1948.21 487.273Z" stroke="white" stroke-width="1.51"/>
<path d="M1994.21 362.273L1844.21 261.273L1771.21 399.273L1994.21 362.273Z" stroke="white" stroke-width="1.51"/>
<path d="M1889.21 144.273L1672.21 82.2734L1844.21 261.273L1889.21 144.273Z" stroke="white" stroke-width="1.51"/>
<path d="M1882.21 251.273L1889.21 144.273L1844.21 261.273L1882.21 251.273Z" stroke="white" stroke-width="1.51"/>
<path d="M1891.21 607.273L1948.21 487.273L1757.21 476.273L1891.21 607.273Z" stroke="white" stroke-width="1.51"/>
<path d="M1948.21 487.273L1994.21 362.273L1771.21 399.273L1948.21 487.273Z" stroke="white" stroke-width="1.51"/>
</g>
</g>
</svg>
