<svg width="17" height="17" viewBox="0 0 17 17" fill="none" xmlns="http://www.w3.org/2000/svg">
<path d="M8.5 0C13.1944 0 17 3.80558 17 8.5C17 13.1944 13.1944 17 8.5 17C3.80558 17 0 13.1944 0 8.5C0 3.80558 3.80558 0 8.5 0Z" fill="white"/>
<path d="M12.172 6.95056L8.50002 9.29761L4.82705 6.95056C4.42605 6.69356 3.89201 6.81056 3.63601 7.21356C3.37901 7.61456 3.49701 8.1486 3.89901 8.4046L8.03603 11.0476C8.17803 11.1386 8.34 11.1836 8.501 11.1836C8.662 11.1836 8.82405 11.1386 8.96505 11.0476L13.102 8.4046C13.503 8.1476 13.622 7.61356 13.365 7.21356C13.107 6.81056 12.574 6.69356 12.172 6.95056Z" fill="#36424A"/>
</svg>
