<svg width="18" height="18" viewBox="0 0 18 18" fill="none" xmlns="http://www.w3.org/2000/svg">
<path d="M9.20703 17.9062C13.9015 17.9062 17.707 14.1007 17.707 9.40625C17.707 4.71183 13.9015 0.90625 9.20703 0.90625C4.51261 0.90625 0.707031 4.71183 0.707031 9.40625C0.707031 14.1007 4.51261 17.9062 9.20703 17.9062Z" fill="white"/>
<path d="M12.8791 10.9557L9.20705 8.60864L5.53408 10.9557C5.13308 11.2127 4.59904 11.0957 4.34304 10.6927C4.08604 10.2917 4.20404 9.75765 4.60604 9.50165L8.74306 6.85864C8.88506 6.76764 9.04703 6.72266 9.20803 6.72266C9.36903 6.72266 9.53108 6.76764 9.67208 6.85864L13.809 9.50165C14.21 9.75865 14.329 10.2927 14.072 10.6927C13.814 11.0957 13.2811 11.2127 12.8791 10.9557Z" fill="#36424A"/>
</svg>
