<svg width="88" height="36" viewBox="0 0 88 36" fill="none" xmlns="http://www.w3.org/2000/svg">
<path d="M9.67377 20.1489C9.60377 20.2329 9.53876 20.2989 9.47476 20.3479C9.41076 20.3969 9.31676 20.4219 9.19376 20.4219C9.07276 20.4219 8.94576 20.3729 8.81076 20.2789C8.67976 20.1829 8.50976 20.0819 8.31076 19.9699C8.10776 19.8609 7.86577 19.7569 7.57877 19.6609C7.29377 19.5669 6.94177 19.5199 6.52277 19.5199C5.97477 19.5199 5.49277 19.6179 5.07477 19.8149C4.65477 20.0129 4.30675 20.2949 4.02975 20.6609C3.74975 21.0239 3.54076 21.4719 3.39476 21.9949C3.25076 22.5219 3.17776 23.1119 3.17776 23.7659C3.17776 24.4419 3.25376 25.0459 3.40776 25.5749C3.55776 26.1039 3.77675 26.5519 4.05775 26.9109C4.33675 27.2719 4.68076 27.5469 5.08376 27.7329C5.48676 27.9179 5.93476 28.0139 6.43076 28.0139C6.90976 28.0139 7.30576 27.9529 7.61876 27.8339C7.92976 27.7169 8.18677 27.5899 8.39377 27.4529C8.59877 27.3149 8.76876 27.1889 8.90776 27.0699C9.04376 26.9529 9.18476 26.8919 9.32976 26.8919C9.51376 26.8919 9.65577 26.9599 9.75377 27.0969L10.3928 27.9189C10.1258 28.2469 9.82876 28.5259 9.49776 28.7529C9.16476 28.9829 8.81177 29.1689 8.44077 29.3119C8.06777 29.4579 7.67677 29.5639 7.26877 29.6319C6.86277 29.7019 6.45076 29.7359 6.03276 29.7359C5.30776 29.7359 4.63477 29.6029 4.00577 29.3359C3.37877 29.0699 2.83276 28.6829 2.37376 28.1719C1.91376 27.6619 1.55076 27.0369 1.28276 26.2949C1.01676 25.5529 0.884766 24.7079 0.884766 23.7659C0.884766 22.9069 1.00376 22.1119 1.24376 21.3799C1.48176 20.6509 1.83776 20.0219 2.30476 19.4919C2.77276 18.9629 3.34977 18.5489 4.03377 18.2479C4.72177 17.9469 5.50476 17.7969 6.38776 17.7969C7.21576 17.7969 7.94877 17.9299 8.57877 18.1959C9.20877 18.4629 9.76976 18.8379 10.2678 19.3259L9.67377 20.1489Z" fill="#29AAE1"/>
<path d="M14.5221 12.7266V29.5766H12.2871V12.7266H14.5221Z" fill="#29AAE1"/>
<path d="M22.4126 17.793C23.2646 17.793 24.0356 17.934 24.7236 18.211C25.4126 18.488 25.9986 18.887 26.4836 19.41C26.9656 19.93 27.3367 20.558 27.5947 21.292C27.8527 22.027 27.9836 22.852 27.9836 23.766C27.9836 24.678 27.8527 25.504 27.5947 26.243C27.3357 26.981 26.9656 27.608 26.4836 28.125C25.9996 28.644 25.4136 29.04 24.7236 29.319C24.0356 29.596 23.2646 29.736 22.4126 29.736C21.5516 29.736 20.7777 29.596 20.0887 29.319C19.4007 29.04 18.8116 28.643 18.3266 28.125C17.8386 27.608 17.4636 26.981 17.2016 26.243C16.9376 25.505 16.8066 24.679 16.8066 23.766C16.8066 22.852 16.9376 22.028 17.2016 21.292C17.4636 20.559 17.8386 19.93 18.3266 19.41C18.8106 18.887 19.4007 18.488 20.0887 18.211C20.7777 17.934 21.5516 17.793 22.4126 17.793ZM22.4126 27.998C23.5106 27.998 24.3266 27.63 24.8656 26.891C25.4066 26.153 25.6786 25.116 25.6786 23.776C25.6786 22.436 25.4076 21.395 24.8656 20.655C24.3266 19.913 23.5106 19.541 22.4126 19.541C21.3016 19.541 20.4746 19.913 19.9306 20.655C19.3856 21.395 19.1146 22.436 19.1146 23.776C19.1146 25.116 19.3856 26.153 19.9306 26.891C20.4756 27.63 21.3016 27.998 22.4126 27.998Z" fill="#29AAE1"/>
<path d="M39.8765 17.9766V29.5746H38.5405C38.2365 29.5746 38.0375 29.4266 37.9475 29.1296L37.7875 27.9656C37.5355 28.2326 37.2725 28.4756 36.9985 28.6976C36.7255 28.9156 36.4345 29.1036 36.1215 29.2606C35.8085 29.4176 35.4785 29.5396 35.1265 29.6256C34.7775 29.7136 34.4005 29.7586 33.9985 29.7586C33.3595 29.7586 32.7975 29.6516 32.3105 29.4386C31.8305 29.2256 31.4255 28.9266 31.0975 28.5426C30.7695 28.1566 30.5225 27.6956 30.3535 27.1546C30.1855 26.6156 30.1035 26.0176 30.1035 25.3616V17.9766H32.3415V25.3616C32.3415 26.1916 32.5325 26.8366 32.9135 27.2996C33.2925 27.7586 33.8735 27.9876 34.6575 27.9876C35.2275 27.9876 35.7625 27.8526 36.2575 27.5836C36.7505 27.3136 37.2165 26.9426 37.6505 26.4706V17.9766H39.8765V17.9766V17.9766Z" fill="#29AAE1"/>
<path d="M52.4797 12.7266V29.5766H51.1317C50.8207 29.5766 50.6247 29.4286 50.5497 29.1316L50.3547 27.7956C49.8627 28.3826 49.2997 28.8546 48.6727 29.2056C48.0447 29.5596 47.3187 29.7346 46.4967 29.7346C45.8337 29.7346 45.2367 29.6076 44.6977 29.3476C44.1627 29.0896 43.7037 28.7086 43.3227 28.2096C42.9437 27.7126 42.6467 27.0956 42.4437 26.3566C42.2387 25.6186 42.1367 24.7706 42.1367 23.8096C42.1367 22.9506 42.2507 22.1536 42.4787 21.4136C42.7077 20.6756 43.0397 20.0366 43.4707 19.4956C43.9067 18.9566 44.4297 18.5306 45.0467 18.2226C45.6637 17.9156 46.3597 17.7616 47.1347 17.7616C47.8347 17.7616 48.4317 17.8746 48.9217 18.1036C49.4117 18.3326 49.8517 18.6566 50.2397 19.0746V12.7266H52.4797V12.7266ZM50.2407 20.7866C49.8747 20.3066 49.4827 19.9726 49.0607 19.7816C48.6367 19.5916 48.1647 19.4956 47.6387 19.4956C46.6177 19.4956 45.8297 19.8626 45.2697 20.5986C44.7097 21.3336 44.4317 22.4046 44.4317 23.8106C44.4317 24.5506 44.4947 25.1776 44.6197 25.7016C44.7467 26.2226 44.9287 26.6486 45.1677 26.9786C45.4067 27.3106 45.7037 27.5546 46.0537 27.7096C46.4037 27.8666 46.7997 27.9426 47.2397 27.9426C47.8857 27.9426 48.4467 27.7976 48.9187 27.5086C49.3907 27.2196 49.8317 26.8116 50.2417 26.2876V20.7866H50.2407Z" fill="#29AAE1"/>
<path d="M68.5871 21.8219C67.5661 21.8179 66.2481 21.8739 66.1201 21.8739C66.9071 20.4079 67.7711 18.9369 68.5391 17.6349C69.3041 16.3279 69.8061 15.4419 70.0421 14.9669C70.2781 14.4939 70.3961 14.0739 70.3961 13.7129C70.3961 13.2769 70.2461 12.8609 69.9371 12.4609C68.3801 13.2869 66.9121 14.1949 65.5331 15.1839C64.1541 16.1699 62.8441 17.2149 61.5991 18.3169C60.3571 19.4149 58.974 20.7089 57.451 22.1919C57.275 22.2039 57.0041 22.2089 56.6371 22.2129C56.2701 22.2169 55.9751 22.2209 55.7461 22.2209C55.5191 22.2209 55.2691 22.2209 55.0011 22.2209C55.0291 21.9689 55.1861 21.7819 55.4691 21.6569C55.7491 21.5309 56.2331 21.4209 56.9081 21.3289C55.7581 21.3389 54.9781 21.4089 54.5701 21.5379C54.1621 21.6689 53.726 21.9699 53.261 22.4419C52.406 23.2969 51.9821 23.9219 51.9821 24.3229C51.9821 24.5729 52.0741 24.7299 52.2591 24.7959C52.4451 24.8599 52.8061 24.9009 53.3451 24.9149C53.8821 24.9269 54.3201 24.9569 54.6541 25.0069L52.0091 27.8309C51.8211 27.7409 51.6791 27.6919 51.5751 27.6919C51.2041 27.6919 50.7271 27.9519 50.1411 28.4709C49.5571 28.9909 49.0321 29.5879 48.5691 30.2679C48.1021 30.9439 47.873 31.4459 47.873 31.7719C47.873 32.0669 48.034 32.2149 48.36 32.2149C48.649 32.2149 48.9641 32.0919 49.3051 31.8479C49.6511 31.5999 49.977 31.3249 50.287 31.0199C50.598 30.7129 51.2671 30.0589 52.2991 29.0549C52.4751 28.8789 52.7011 28.6589 52.9751 28.3929C53.2471 28.1289 53.5751 27.8089 53.9561 27.4319C54.3361 27.0589 54.7401 26.6489 55.1651 26.2069C55.5941 25.7679 55.9561 25.3849 56.2541 25.0589C57.6631 25.0979 58.768 25.1159 59.567 25.1159C60.084 25.1159 60.9031 25.0979 62.0161 25.0589C61.2841 26.4339 60.8271 27.3029 60.6451 27.6639C60.4651 28.0229 60.2921 28.4019 60.1371 28.7969C59.9771 29.1919 59.9011 29.4959 59.9011 29.7079C59.9011 30.2289 60.0491 30.6309 60.3441 30.9139C60.6431 31.1969 60.9461 31.3379 61.2491 31.3379C61.5101 31.3379 61.7681 31.2829 62.0231 31.1779C62.2771 31.0729 62.5581 30.9079 62.8711 30.6919C63.1841 30.4759 63.5491 30.1979 63.9731 29.8699C64.3951 29.5409 64.9871 29.0889 65.7461 28.5129L65.8571 27.7749C64.4391 28.5909 63.63 29.0009 63.433 29.0009C63.037 29.0009 62.8371 28.8109 62.8371 28.4299C62.8371 28.1689 63.3781 27.0179 64.4661 24.9769C64.4661 24.9769 64.7941 24.9949 66.2201 24.8909C66.2201 24.8909 67.0291 24.3109 67.8511 23.1309C68.1401 22.7189 68.5871 21.8219 68.5871 21.8219ZM63.8101 22.0789L59.386 22.1619C60.118 21.4099 60.8241 20.4639 61.5031 19.8479C62.1791 19.2299 62.9541 18.5629 63.8271 17.8419C64.6981 17.1229 65.483 16.5079 66.179 15.9959C66.875 15.4859 67.5581 15.0209 68.2281 14.6049C67.8821 15.1789 67.57 15.6949 67.287 16.1499C67.004 16.6029 66.6641 17.1599 66.2691 17.8139C65.8751 18.4659 65.5151 19.0739 65.1851 19.6299C64.8531 20.1889 64.3371 21.1779 63.8101 22.0789Z" fill="#F16A25"/>
<path d="M81.7008 28.49C81.6228 28.301 81.5008 28.21 81.3398 28.22C81.1798 28.23 80.1168 28.216 77.1858 29.271C75.4028 29.912 74.1998 30.465 73.1608 31.257C73.6468 29.914 73.8768 29.56 74.7838 27.964C76.3068 25.286 80.3338 20.293 80.3338 20.293C80.3338 20.293 76.2548 21.179 74.0688 21.489C71.5478 21.848 70.2798 21.915 69.2058 21.936C69.2058 21.936 68.9358 22.631 68.4868 23.276C67.7408 24.348 67.0918 24.948 67.0918 24.948C68.7678 24.811 71.7888 24.538 74.3238 23.989C74.5578 23.936 74.7688 23.889 74.9698 23.841C73.9308 24.839 72.8778 26.081 71.9568 27.607C68.3078 33.673 69.6548 35.587 69.6548 35.587H69.6568C69.7208 35.587 74.6818 32.884 76.7918 32.075C79.4498 31.059 79.9888 31.081 80.0768 31.046C80.1358 31.243 80.0768 31.435 79.9028 31.62C79.7268 31.806 79.3988 32.04 78.9138 32.327C79.7838 31.953 80.3518 31.653 80.6218 31.423C80.8898 31.196 81.1248 30.83 81.3268 30.321C81.7048 29.406 81.8278 28.793 81.7008 28.49Z" fill="#F16A25"/>
<path d="M85.2425 29.0246L85.4985 28.4366L85.7175 27.8426C85.8445 27.4386 85.9635 27.0376 86.0435 26.6266L86.1075 26.3316L86.1525 26.0156C86.1815 25.8056 86.2205 25.5906 86.2405 25.3856C86.2635 24.9756 86.3045 24.5746 86.2905 24.1626C86.2935 23.9566 86.2895 23.7546 86.2645 23.5536C86.2415 23.3526 86.2415 23.1476 86.2005 22.9496L86.0965 22.3576L85.9445 21.7776C85.8275 21.4006 85.6985 21.0236 85.5305 20.6646C85.3665 20.3076 85.1805 19.9576 84.9615 19.6296C84.8645 19.4616 84.7455 19.3036 84.6275 19.1436C84.5155 18.9836 84.3885 18.8306 84.2595 18.6806C84.1365 18.5286 84.0025 18.3816 83.8665 18.2396C83.7355 18.0916 83.5955 17.9526 83.4485 17.8156C83.3095 17.6766 83.1615 17.5456 83.0095 17.4176C82.8635 17.2846 82.7065 17.1616 82.5505 17.0406C82.2375 16.7916 81.9115 16.5606 81.5775 16.3396C81.2435 16.1186 80.8955 15.9156 80.5455 15.7166C80.1895 15.5286 79.8365 15.3376 79.4705 15.1696C79.1055 14.9956 78.7365 14.8396 78.3615 14.6946C77.9965 14.5536 77.5915 14.4096 77.2615 14.3146L76.6255 14.1296L76.5235 13.4526L76.4735 13.1076L76.4525 12.9596L76.4915 12.7426C76.5775 12.2636 76.6365 11.6726 76.6575 11.1296C76.6805 10.5746 76.6755 10.0226 76.6305 9.47763C76.5365 8.38763 76.2955 7.33063 75.8645 6.39763C75.4345 5.45963 74.7885 4.68063 73.9835 4.08663C73.5755 3.79063 73.1205 3.55963 72.6475 3.35063L72.2805 3.21363L72.1865 3.17863L72.1435 3.16263L72.1185 3.15263L72.1085 3.14863L72.1025 3.14663C72.0615 3.13463 72.1475 3.16063 72.1375 3.15663L71.9225 3.09363C71.6355 3.01263 71.3305 2.91963 71.1095 2.88863L70.7445 2.81663L70.3575 2.77363C70.0975 2.73263 69.8415 2.74863 69.5835 2.73063C69.0725 2.75063 68.5615 2.79463 68.0665 2.93363C67.5745 3.07263 67.0835 3.24463 66.6235 3.49763C66.1625 3.74663 65.7175 4.04663 65.2995 4.38863C64.4605 5.07963 63.7215 5.93163 63.0765 6.86463C62.7515 7.33163 62.4585 7.82063 62.1785 8.32263C61.9035 8.81663 61.6395 9.35163 61.4365 9.84963L61.1205 10.6286L60.4795 10.2206C60.3335 10.1256 60.1615 10.0256 59.9975 9.92963L59.4975 9.65063C59.1575 9.46663 58.8115 9.29563 58.4685 9.12463C57.7775 8.78963 57.0645 8.49063 56.3345 8.26463C55.6055 8.04663 54.8555 7.86063 54.0995 7.87363C53.9105 7.87563 53.7225 7.88763 53.5355 7.92063C53.3495 7.94363 53.1645 7.99263 52.9865 8.05763C52.8045 8.12063 52.6345 8.20563 52.4725 8.30963C52.3945 8.36663 52.3125 8.41763 52.2345 8.48163L52.0195 8.68263L52.1935 8.43863C52.2565 8.36063 52.3285 8.29163 52.3985 8.21763C52.5455 8.08163 52.7105 7.95563 52.8905 7.85463C53.0685 7.75063 53.2595 7.66463 53.4565 7.60063C53.6515 7.52663 53.8545 7.48763 54.0605 7.45263C54.8775 7.31563 55.7095 7.37463 56.5155 7.51163C57.3205 7.65463 58.1055 7.87063 58.8745 8.13063C59.2615 8.25963 59.6385 8.40763 60.0135 8.56463L60.5745 8.80663C60.7625 8.89063 60.9375 8.97463 61.1375 9.07463L60.1805 9.44363C60.3685 8.80863 60.5805 8.24463 60.8305 7.66463C61.0765 7.08663 61.3655 6.52963 61.6825 5.98263C62.3075 4.88663 63.0945 3.86163 64.0495 2.96063C64.5335 2.51863 65.0635 2.11563 65.6415 1.76763C66.2155 1.41463 66.8485 1.14363 67.5005 0.940632C68.1565 0.733632 68.8425 0.639632 69.5215 0.592632C69.8635 0.598632 70.2095 0.571631 70.5445 0.615631L71.0505 0.662631C71.2225 0.685631 71.3985 0.721632 71.5715 0.751632C71.9385 0.811632 72.2115 0.891632 72.5005 0.967632L72.7205 1.02463L73.0005 1.11863L73.4785 1.28663C74.1095 1.54363 74.7225 1.86063 75.2915 2.26363C75.8555 2.67363 76.3735 3.15263 76.8185 3.69363C77.2655 4.23363 77.6215 4.83663 77.9045 5.45763C78.4765 6.70563 78.7445 8.02763 78.8225 9.32463C78.8595 9.97263 78.8555 10.6196 78.8105 11.2606C78.7555 11.9126 78.6815 12.5146 78.5295 13.2076L78.5465 12.8426L78.5855 13.1886L77.8505 12.3276C78.3325 12.4866 78.7235 12.6476 79.1415 12.8336C79.5515 13.0186 79.9555 13.2116 80.3505 13.4236C81.1435 13.8436 81.8995 14.3256 82.6215 14.8686C82.9785 15.1396 83.3305 15.4226 83.6645 15.7316C83.8305 15.8836 83.9965 16.0386 84.1545 16.2026C84.3125 16.3626 84.4725 16.5266 84.6195 16.6986C84.7715 16.8666 84.9215 17.0386 85.0605 17.2196C85.2035 17.3976 85.3435 17.5766 85.4685 17.7706C85.5995 17.9586 85.7265 18.1476 85.8395 18.3486C85.9565 18.5436 86.0735 18.7396 86.1685 18.9486C86.3825 19.3526 86.5585 19.7786 86.7065 20.2086C86.8545 20.6406 86.9645 21.0846 87.0525 21.5286L87.1445 22.2026L87.1775 22.8766C87.1935 23.1016 87.1665 23.3256 87.1635 23.5476C87.1615 23.7736 87.1385 23.9936 87.1045 24.2116C87.0675 24.6516 86.9675 25.0936 86.8705 25.5246C86.8135 25.7356 86.7475 25.9326 86.6865 26.1396L86.5925 26.4466C86.5555 26.5656 86.5145 26.6536 86.4755 26.7606C86.3305 27.1696 86.1395 27.5636 85.9365 27.9446L85.6085 28.5036L85.2425 29.0246Z" fill="#29AAE1"/>
</svg>
