<svg width="296" height="120" viewBox="0 0 296 120" fill="none" xmlns="http://www.w3.org/2000/svg">
<path d="M30.1132 67.0552C29.8784 67.342 29.6505 67.5701 29.4293 67.7395C29.2068 67.9089 28.8874 67.995 28.471 67.995C28.0533 67.995 27.6165 67.8324 27.1606 67.5059C26.7047 67.1794 26.13 66.827 25.4393 66.4486C24.7486 66.0729 23.9145 65.7206 22.9358 65.3927C21.9584 65.0676 20.7516 64.905 19.3197 64.905C17.4414 64.905 15.7855 65.2438 14.3522 65.9213C12.9175 66.6016 11.7245 67.5661 10.773 68.8187C9.8216 70.0699 9.09817 71.5956 8.60265 73.3973C8.10713 75.199 7.85863 77.2207 7.85863 79.4637C7.85863 81.7858 8.11932 83.8525 8.64214 85.6679C9.16223 87.4819 9.90627 89.0076 10.8714 90.2465C11.8351 91.4868 13.0091 92.4268 14.3905 93.0647C15.7719 93.7053 17.3103 94.0248 19.0057 94.0248C20.6479 94.0248 22.0034 93.8227 23.0736 93.417C24.1411 93.014 25.0284 92.577 25.7314 92.1071C26.4344 91.6372 27.0213 91.2 27.4909 90.7943C27.9605 90.3913 28.4424 90.1892 28.9393 90.1892C29.5658 90.1892 30.0477 90.4241 30.3876 90.894L32.5772 93.7121C31.6653 94.835 30.6415 95.7883 29.5085 96.5697C28.3727 97.3537 27.1674 97.9917 25.891 98.4875C24.612 98.9834 23.2756 99.3494 21.8805 99.5844C20.4854 99.8193 19.0713 99.9367 17.6393 99.9367C15.1618 99.9367 12.8479 99.4806 10.6966 98.5654C8.54523 97.6529 6.68189 96.3211 5.10252 94.5741C3.52587 92.827 2.28099 90.6783 1.36776 88.1362C0.455902 85.5914 3.59928e-05 82.7009 3.59928e-05 79.4677C3.59928e-05 76.5199 0.410889 73.7935 1.23129 71.2883C2.05169 68.7831 3.26515 66.6248 4.86773 64.8108C6.47168 62.9995 8.44701 61.5777 10.7935 60.545C13.1414 59.515 15.8265 58.9999 18.8501 58.9999C21.6908 58.9999 24.1943 59.4563 26.3593 60.3687C28.5229 61.2839 30.4517 62.5748 32.1471 64.244L30.1132 67.0552Z" fill="#00AEEF"/>
<path d="M46.7332 41.6172V99.3813H39.0684V41.6172H46.7332Z" fill="#00AEEF"/>
<path d="M73.757 58.996C76.6768 58.996 79.3169 59.4728 81.6771 60.4235C84.0372 61.377 86.0439 62.7471 87.6997 64.5338C89.3555 66.3218 90.6277 68.4733 91.5123 70.9921C92.3982 73.511 92.8433 76.3331 92.8433 79.4652C92.8433 82.5961 92.3995 85.429 91.5123 87.9574C90.6277 90.4899 89.3555 92.64 87.6997 94.4144C86.0439 96.1915 84.0359 97.5521 81.6771 98.5041C79.3182 99.4562 76.6768 99.9343 73.757 99.9343C70.8098 99.9343 68.1562 99.4562 65.7974 98.5041C63.4386 97.5521 61.4237 96.1915 59.7556 94.4144C58.0861 92.64 56.8016 90.4899 55.9034 87.9574C55.0038 85.4276 54.5546 82.5947 54.5546 79.4652C54.5546 76.3331 55.0038 73.511 55.9034 70.9921C56.8016 68.4733 58.0875 66.3218 59.7556 64.5338C61.4237 62.7471 63.4372 61.377 65.7974 60.4235C68.1576 59.4714 70.8098 58.996 73.757 58.996ZM73.757 93.9827C77.5123 93.9827 80.3148 92.7179 82.1645 90.1868C84.0155 87.657 84.9422 84.0959 84.9422 79.5021C84.9422 74.9111 84.0155 71.3417 82.1645 68.7983C80.3148 66.2548 77.5123 64.9818 73.757 64.9818C69.9498 64.9818 67.1146 66.2548 65.2513 68.7983C63.3867 71.3417 62.4542 74.9111 62.4542 79.5021C62.4542 84.0959 63.3867 87.657 65.2513 90.1868C67.1146 92.7193 69.9498 93.9827 73.757 93.9827Z" fill="#00AEEF"/>
<path d="M133.597 59.6185V99.3806H129.02C127.975 99.3806 127.298 98.8739 126.987 97.8549L126.44 93.8635C125.58 94.776 124.679 95.6105 123.74 96.3687C122.8 97.1268 121.797 97.7715 120.73 98.3056C119.659 98.8424 118.525 99.2577 117.327 99.5568C116.127 99.8587 114.837 100.008 113.454 100.008C111.264 100.008 109.341 99.6415 107.685 98.9107C106.029 98.1826 104.642 97.1582 103.519 95.8401C102.4 94.5219 101.552 92.9374 100.979 91.0865C100.404 89.2329 100.117 87.1867 100.117 84.9397V59.6185H107.782V84.9397C107.782 87.7836 108.435 89.995 109.74 91.5741C111.042 93.1531 113.037 93.94 115.722 93.94C117.679 93.94 119.504 93.4783 121.199 92.5522C122.892 91.6261 124.484 90.3543 125.97 88.7343V59.6172H133.597V59.6185Z" fill="#00AEEF"/>
<path d="M176.771 41.6172V99.3813H172.155C171.087 99.3813 170.422 98.8746 170.161 97.8556L169.498 93.2768C167.802 95.2862 165.88 96.8967 163.728 98.1111C161.578 99.3227 159.093 99.9306 156.278 99.9306C154.01 99.9306 151.957 99.4851 150.117 98.5986C148.279 97.7135 146.708 96.4132 145.406 94.703C144.101 92.9955 143.097 90.8741 142.393 88.3457C141.689 85.8132 141.338 82.9064 141.338 79.6171C141.338 76.6693 141.73 73.9306 142.51 71.3981C143.293 68.8669 144.427 66.6759 145.914 64.8237C147.4 62.9714 149.199 61.5167 151.311 60.4608C153.423 59.4049 155.809 58.8762 158.467 58.8762C160.867 58.8762 162.906 59.2669 164.588 60.0496C166.269 60.831 167.774 61.9415 169.105 63.3772V41.6172H176.771V41.6172ZM169.106 69.2468C167.856 67.6035 166.507 66.4561 165.059 65.8031C163.61 65.1516 161.988 64.825 160.191 64.825C156.695 64.825 153.991 66.0845 152.076 68.602C150.159 71.1208 149.202 74.7925 149.202 79.6184C149.202 82.1496 149.415 84.3079 149.848 86.096C150.276 87.884 150.903 89.3456 151.725 90.4793C152.546 91.6158 153.557 92.4504 154.756 92.9845C155.954 93.5213 157.311 93.7877 158.823 93.7877C161.038 93.7877 162.955 93.2919 164.574 92.2989C166.19 91.3085 167.701 89.9112 169.109 88.1136V69.2468H169.106Z" fill="#00AEEF"/>
<path d="M231.968 72.1183C228.472 72.1101 223.957 72.3028 223.517 72.3028C226.22 67.276 229.182 62.2273 231.806 57.7565C234.43 53.287 236.147 50.2395 236.956 48.6167C237.766 46.9939 238.173 45.561 238.173 44.3194C238.173 42.825 237.65 41.3922 236.6 40.0235C231.257 42.8565 226.225 45.9667 221.504 49.3557C216.779 52.7433 212.29 56.325 208.026 60.0937C203.766 63.8652 199.028 68.2963 193.813 73.3873C193.209 73.4187 192.278 73.4433 191.022 73.4583C189.766 73.4761 188.75 73.483 187.97 73.483C187.192 73.483 186.341 73.483 185.418 73.483C185.514 72.6238 186.048 71.979 187.018 71.5501C187.986 71.1212 189.631 70.7468 191.953 70.4286C188.009 70.46 185.338 70.6991 183.941 71.1444C182.542 71.5897 181.046 72.6237 179.457 74.2465C176.529 77.1738 175.069 79.3211 175.069 80.6898C175.069 81.549 175.385 82.09 176.023 82.3126C176.657 82.5366 177.897 82.6705 179.742 82.7183C181.588 82.7661 183.083 82.8699 184.227 83.0311L175.164 92.7185C174.527 92.4016 174.034 92.2404 173.684 92.2404C172.412 92.2404 170.775 93.1311 168.77 94.9137C166.768 96.6963 164.971 98.7506 163.382 101.071C161.792 103.395 160.996 105.113 160.996 106.225C160.996 107.244 161.553 107.754 162.666 107.754C163.652 107.754 164.735 107.332 165.91 106.489C167.086 105.646 168.209 104.698 169.273 103.648C170.339 102.599 172.635 100.356 176.165 96.9189C176.769 96.3138 177.541 95.5584 178.478 94.6514C179.416 93.7444 180.537 92.6448 181.843 91.3567C183.144 90.0686 184.528 88.6698 185.992 87.1577C187.452 85.6483 188.694 84.3355 189.711 83.2195C194.545 83.3479 198.33 83.4121 201.066 83.4121C202.845 83.4121 205.645 83.3479 209.458 83.2195C206.947 87.928 205.382 90.9059 204.761 92.1462C204.14 93.3865 203.559 94.6828 203.021 96.0365C202.48 97.3888 202.21 98.4296 202.21 99.1631C202.21 100.946 202.716 102.32 203.735 103.29C204.753 104.26 205.788 104.746 206.835 104.746C207.725 104.746 208.608 104.562 209.482 104.197C210.355 103.832 211.327 103.273 212.391 102.526C213.457 101.779 214.713 100.841 216.161 99.7082C217.607 98.5799 219.635 97.0296 222.242 95.0557L222.623 92.5259C217.758 95.3275 214.992 96.7248 214.324 96.7248C212.956 96.7248 212.273 96.0734 212.273 94.7689C212.273 93.8783 214.131 89.932 217.854 82.9314C217.854 82.9314 218.981 82.9928 223.863 82.6294C223.863 82.6294 226.64 80.6475 229.454 76.6001C230.441 75.1863 231.968 72.1183 231.968 72.1183ZM215.598 72.9979L200.444 73.2849C202.955 70.7073 205.373 67.4618 207.694 65.3445C210.015 63.2286 212.67 60.9365 215.66 58.4723C218.649 56.0081 221.336 53.8977 223.719 52.1478C226.105 50.398 228.441 48.8067 230.734 47.3738C229.556 49.3476 228.485 51.1137 227.514 52.6723C226.543 54.2322 225.381 56.1323 224.032 58.3766C222.681 60.6209 221.441 62.6958 220.309 64.6068C219.182 66.5137 217.411 69.9108 215.598 72.9979Z" fill="white"/>
<path d="M235.972 118.961H235.97C235.881 118.979 235.906 118.979 235.972 118.961Z" fill="white"/>
<path d="M276.898 94.9771C276.627 94.3256 276.213 94.0141 275.662 94.0482C275.108 94.0824 271.471 94.0428 261.432 97.6531C255.311 99.8509 251.197 101.748 247.639 104.461C249.3 99.8564 250.091 98.6448 253.2 93.17C258.412 83.9893 272.21 66.875 272.21 66.875C272.21 66.875 258.234 69.9142 250.747 70.9769C242.109 72.2036 237.768 72.4318 234.081 72.5041C234.081 72.5041 233.158 74.8919 231.622 77.098C229.065 80.7752 226.842 82.8295 226.842 82.8295C232.582 82.3623 242.943 81.4266 251.626 79.5416C252.429 79.3668 253.159 79.1987 253.836 79.0375C250.274 82.4579 246.669 86.7144 243.52 91.9516C231.013 112.746 235.631 119.311 235.631 119.311L235.637 119.313C235.853 119.308 252.852 110.037 260.088 107.268C269.19 103.781 271.037 103.861 271.339 103.733C271.538 104.416 271.341 105.072 270.741 105.707C270.14 106.342 269.013 107.151 267.355 108.129C270.334 106.847 272.285 105.819 273.202 105.036C274.122 104.252 274.927 102.993 275.618 101.255C276.909 98.1065 277.333 96.0126 276.898 94.9771Z" fill="white"/>
<path d="M231.968 72.8005C228.472 72.7923 223.957 72.9864 223.517 72.9864C226.22 67.9582 229.182 62.9109 231.806 58.4401C234.43 53.9693 236.147 50.9217 236.956 49.3003C237.767 47.6775 238.173 46.246 238.173 45.0043C238.173 43.5072 237.65 42.0757 236.6 40.707C231.257 43.5386 226.225 46.6504 221.504 50.038C216.779 53.427 212.29 57.0072 208.026 60.7787C203.766 64.5488 199.028 68.9799 193.813 74.0696C193.209 74.101 192.278 74.1255 191.022 74.1419C189.766 74.1583 188.75 74.1664 187.97 74.1664C187.192 74.1664 186.341 74.1664 185.418 74.1664C185.514 73.3072 186.048 72.6626 187.018 72.2324C187.986 71.8034 189.631 71.4291 191.953 71.1122C188.009 71.1436 185.338 71.3826 183.941 71.8265C182.542 72.2732 181.046 73.3074 179.457 74.9288C176.529 77.8588 175.069 80.006 175.069 81.372C175.069 82.2312 175.385 82.772 176.023 82.9961C176.657 83.2173 177.897 83.3541 179.742 83.4019C181.588 83.447 183.083 83.5507 184.227 83.7119L175.164 93.4021C174.527 93.0852 174.034 92.924 173.684 92.924C172.412 92.924 170.775 93.8147 168.77 95.5973C166.768 97.3799 164.971 99.4315 163.382 101.755C161.792 104.076 160.996 105.794 160.996 106.909C160.996 107.925 161.553 108.435 162.666 108.435C163.652 108.435 164.735 108.012 165.91 107.17C167.086 106.327 168.209 105.379 169.273 104.331C170.339 103.279 172.635 101.036 176.165 97.5997C176.769 96.9973 177.541 96.2392 178.478 95.3322C179.416 94.4251 180.537 93.3284 181.843 92.0403C183.144 90.7522 184.528 89.3506 185.992 87.8385C187.452 86.3291 188.694 85.0164 189.711 83.9031C194.545 84.0288 198.33 84.0931 201.066 84.0931C202.845 84.0931 205.645 84.0288 209.458 83.9031C206.947 88.6116 205.382 91.5867 204.761 92.827C204.14 94.0673 203.559 95.3636 203.021 96.7173C202.48 98.0696 202.21 99.1133 202.21 99.8441C202.21 101.627 202.716 103.004 203.735 103.973C204.753 104.942 205.788 105.427 206.835 105.427C207.725 105.427 208.608 105.242 209.482 104.878C210.355 104.513 211.327 103.954 212.391 103.207C213.457 102.46 214.713 101.522 216.161 100.392C217.607 99.2636 219.635 97.7103 222.242 95.7365L222.623 93.2068C217.758 96.0084 214.992 97.4085 214.324 97.4085C212.956 97.4085 212.273 96.7542 212.273 95.4497C212.273 94.5591 214.131 90.6128 217.854 83.6122C217.854 83.6122 218.981 83.6737 223.863 83.313C223.863 83.313 226.64 81.331 229.454 77.2822C230.441 75.8698 231.968 72.8005 231.968 72.8005ZM215.598 73.6815L200.444 73.967C202.955 71.3894 205.373 68.1452 207.694 66.028C210.015 63.9121 212.67 61.6214 215.66 59.1544C218.648 56.6888 221.336 54.5813 223.719 52.8315C226.105 51.0817 228.441 49.4903 230.734 48.0587C229.556 50.0298 228.485 51.7959 227.514 53.3559C226.543 54.9158 225.381 56.8159 224.032 59.0602C222.681 61.3031 221.441 63.3795 220.309 65.2891C219.182 67.1987 217.411 70.5944 215.598 73.6815Z" fill="#F26924"/>
<path d="M235.972 119.641H235.97C235.881 119.661 235.906 119.661 235.972 119.641Z" fill="#F26924"/>
<path d="M276.898 95.6633C276.627 95.0118 276.213 94.703 275.662 94.7344C275.108 94.7686 271.471 94.729 261.432 98.3393C255.311 100.54 251.197 102.434 247.639 105.147C249.3 100.543 250.091 99.3309 253.2 93.8588C258.412 84.6754 272.21 67.5626 272.21 67.5626C272.21 67.5626 258.234 70.6004 250.747 71.6645C242.109 72.8911 237.768 73.1193 234.081 73.193C234.081 73.193 233.158 75.5795 231.622 77.7855C229.065 81.4641 226.842 83.5157 226.842 83.5157C232.582 83.0512 242.943 82.1155 251.626 80.2291C252.429 80.0557 253.159 79.8877 253.836 79.7237C250.274 83.1441 246.669 87.4005 243.52 92.6376C231.013 113.435 235.631 119.999 235.631 119.999H235.637C235.853 119.997 252.852 110.726 260.088 107.954C269.19 104.47 271.037 104.548 271.339 104.422C271.538 105.102 271.341 105.761 270.741 106.396C270.141 107.028 269.013 107.837 267.355 108.815C270.334 107.536 272.285 106.505 273.202 105.722C274.122 104.938 274.927 103.681 275.618 101.944C276.909 98.7954 277.333 96.7015 276.898 95.6633Z" fill="#F26924"/>
<path d="M289.033 97.4956L289.906 95.4794L290.656 93.4413C291.086 92.0617 291.497 90.6834 291.775 89.2792L291.992 88.2644L292.149 87.1784C292.246 86.4585 292.379 85.7264 292.447 85.0147C292.523 83.6091 292.672 82.2404 292.619 80.8266C292.63 80.1258 292.615 79.4278 292.533 78.7353C292.452 78.0441 292.452 77.3475 292.312 76.6687L291.95 74.636L291.43 72.6513C291.029 71.3481 290.586 70.0642 290.013 68.8362C289.449 67.6081 288.812 66.4143 288.069 65.2847C287.728 64.7041 287.321 64.1618 286.918 63.6196C286.535 63.065 286.101 62.5444 285.66 62.0308C285.237 61.5063 284.779 61.0064 284.312 60.5146C283.865 60.0092 283.38 59.5325 282.885 59.0681C282.405 58.5886 281.895 58.1378 281.375 57.698C280.871 57.2431 280.335 56.8183 279.794 56.4017C278.728 55.5534 277.61 54.7571 276.465 54.0031C275.322 53.2436 274.133 52.5469 272.933 51.8721C271.717 51.2205 270.502 50.569 269.248 49.9925C268.001 49.3997 266.729 48.8615 265.447 48.3643C264.193 47.8834 262.811 47.389 261.674 47.0585L259.505 46.4274L259.158 44.1079L258.982 42.9306L258.906 42.4183L259.04 41.6778C259.337 40.0304 259.542 38.0007 259.613 36.1402C259.688 34.2401 259.672 32.3415 259.515 30.4729C259.195 26.7383 258.371 23.1117 256.891 19.9153C255.422 16.7039 253.208 14.0334 250.451 11.9913C249.056 10.9845 247.495 10.1854 245.875 9.46692L244.615 9.00103L244.301 8.88365L244.144 8.82495L244.065 8.79477L244.025 8.77976L244.005 8.77293C243.87 8.73331 244.167 8.8194 244.128 8.80711L243.388 8.59684C242.404 8.31545 241.364 7.99706 240.603 7.89051L239.357 7.64473L238.029 7.49583C237.141 7.3524 236.265 7.41113 235.379 7.34693C233.628 7.41659 231.872 7.56963 230.178 8.04225C228.492 8.52034 226.816 9.1118 225.235 9.97782C223.655 10.8343 222.133 11.8559 220.697 13.0348C217.824 15.4006 215.291 18.3198 213.079 21.5189C211.968 23.1157 210.966 24.8013 210.003 26.5142C209.058 28.2121 208.156 30.0508 207.462 31.7542L206.376 34.4259L204.182 33.0258C203.677 32.7034 203.093 32.3566 202.532 32.0315L200.81 31.0697C199.653 30.4427 198.473 29.8541 197.29 29.2708C194.919 28.118 192.482 27.0962 189.98 26.319C187.482 25.5704 184.91 24.9283 182.316 24.9775C181.672 24.9871 181.021 25.0267 180.388 25.1387C179.745 25.2234 179.115 25.3872 178.504 25.6058C177.887 25.8189 177.301 26.1194 176.741 26.4732C176.479 26.6713 176.19 26.8475 175.933 27.062L175.189 27.7505L175.787 26.9172C176.002 26.6481 176.253 26.4105 176.492 26.1564C177.002 25.6879 177.563 25.2562 178.179 24.9106C178.789 24.5596 179.44 24.2576 180.115 24.0404C180.784 23.7891 181.482 23.654 182.18 23.5297C184.988 23.0625 187.844 23.2632 190.597 23.7331C193.356 24.2194 196.048 24.9666 198.684 25.8572C200.005 26.2957 201.3 26.8024 202.583 27.3393L204.501 28.1725C205.146 28.4634 205.757 28.7476 206.432 29.0878L203.151 30.358C203.793 28.1793 204.529 26.2437 205.382 24.2522C206.224 22.2783 207.215 20.3673 208.293 18.4918C210.441 14.7367 213.137 11.2222 216.405 8.13096C218.063 6.60927 219.892 5.2337 221.862 4.03438C223.831 2.82823 225.996 1.89673 228.234 1.19872C230.481 0.489783 232.829 0.171486 235.169 0.0116672C236.332 0.0307908 237.518 -0.0634199 238.666 0.0882029L240.4 0.249278C240.988 0.332602 241.589 0.450075 242.181 0.555255C243.453 0.758784 244.379 1.03476 245.375 1.29293L246.119 1.48819L247.082 1.81067L248.72 2.38027C250.877 3.26816 252.98 4.35551 254.931 5.73651C256.865 7.13663 258.638 8.78387 260.159 10.6361C261.685 12.4857 262.908 14.5524 263.88 16.682C265.838 20.9547 266.756 25.4924 267.02 29.9373C267.154 32.1638 267.14 34.3782 266.979 36.5788C266.799 38.8148 266.542 40.876 266.021 43.2542L266.078 42.0016L266.212 43.1845L263.696 40.2355C265.339 40.7764 266.681 41.3324 268.116 41.9703C269.522 42.6 270.903 43.2692 272.256 43.9972C274.971 45.4288 277.574 47.0816 280.037 48.9462C281.266 49.8792 282.474 50.849 283.613 51.9036C284.187 52.4254 284.755 52.954 285.292 53.5182C285.843 54.0659 286.383 54.6259 286.891 55.2201C287.416 55.7952 287.926 56.3867 288.399 57.011C288.892 57.6161 289.369 58.2362 289.796 58.896C290.244 59.538 290.68 60.1869 291.067 60.8739C291.469 61.5474 291.871 62.218 292.205 62.9311C292.93 64.3203 293.533 65.7764 294.04 67.2558C294.557 68.7351 294.922 70.2581 295.226 71.7812L295.535 74.0896L295.652 76.4037C295.708 77.1714 295.619 77.9403 295.607 78.7053C295.6 79.4716 295.521 80.2297 295.414 80.9823C295.278 82.489 294.941 83.9998 294.604 85.4791C294.419 86.2031 294.184 86.8848 293.978 87.5896L293.659 88.6386C293.521 89.0525 293.389 89.3557 293.254 89.7191C292.754 91.1274 292.097 92.4689 291.403 93.7775L290.282 95.6897L289.033 97.4956Z" fill="#2AACE3"/>
</svg>
