<svg width="151" height="114" viewBox="0 0 151 114" fill="none" xmlns="http://www.w3.org/2000/svg">
<path fill-rule="evenodd" clip-rule="evenodd" d="M60.6524 68.3248C44.2654 68.3248 27.8774 68.3698 11.4904 68.3048C3.47241 68.2728 -1.72659 61.2836 0.615408 53.8986C2.11741 49.1646 6.25044 46.4057 12.1194 46.3917C27.0494 46.3557 41.9804 46.3776 56.9104 46.3766C58.2344 46.3766 59.5605 46.3766 61.8945 46.3766C57.0625 41.5826 52.8495 37.4758 48.7225 33.2838C45.7245 30.2378 44.7384 26.5317 45.9494 22.4357C47.2014 18.1987 50.1764 15.6288 54.4744 14.7018C58.0214 13.9358 61.2964 14.8716 63.8144 17.3536C76.3654 29.7256 88.8044 42.2086 101.293 54.6456C103.203 56.5466 103.037 58.3226 101.186 60.1666C88.8545 72.4446 76.5945 84.7906 64.1965 96.9996C59.7455 101.385 53.0225 101.217 48.7375 96.9757C44.3585 92.6447 44.3414 85.9547 48.8564 81.2887C52.8764 77.1347 57.0494 73.1287 61.1554 69.0577C60.9864 68.8137 60.8184 68.5698 60.6524 68.3248Z" fill="#FF664A"/>
<path fill-rule="evenodd" clip-rule="evenodd" d="M70.6467 17.7859C73.7307 16.5239 76.7738 15.0947 79.9418 14.0457C82.2468 13.2817 83.0668 12.0228 83.0918 9.62677C83.1818 0.811768 83.2557 0.794646 92.2047 0.777646C94.6717 0.773646 97.1438 0.808549 99.6088 0.927549C102.361 1.06055 104.382 2.39694 103.857 5.32794C102.757 11.4839 105.566 14.4819 111.267 15.5599C111.697 15.6409 112.093 15.9056 112.499 16.0936C117.884 18.5926 117.106 19.1229 121.853 14.3289C125.384 10.7619 126.554 10.6899 130.222 14.1019C132.849 16.5449 135.329 19.1529 137.788 21.7659C139.827 23.9319 140.018 26.3167 137.487 28.1287C132.921 31.3967 132.971 34.7497 135.171 39.8167C137.359 44.8637 139.351 48.0617 145.401 46.9617C148.172 46.4567 149.917 48.1559 149.979 51.0379C150.071 55.2979 150.083 59.5626 149.958 63.8206C149.88 66.5196 148.267 68.1777 145.571 67.6727C139.592 66.5487 136.559 69.1958 135.493 74.8148C135.452 75.0308 135.323 75.2289 135.233 75.4349C132.61 81.4929 132.61 81.4926 137.137 86.1556C139.963 89.0656 140.141 90.373 137.457 93.284C134.725 96.25 131.779 99.0256 128.828 101.781C126.851 103.628 124.564 103.658 122.99 101.433C119.57 96.6049 116.068 96.7687 110.779 99.0447C105.716 101.225 102.916 103.364 103.883 109.11C104.365 111.979 102.678 113.649 99.8668 113.745C95.6128 113.891 91.3458 113.885 87.0918 113.733C84.2518 113.631 82.6528 111.897 83.0978 109.059C83.9588 103.575 81.9938 100.397 76.3948 99.3348C74.4788 98.9708 72.7288 97.733 70.3008 96.619C73.7698 93.164 76.8537 89.8388 80.2717 86.8978C80.9807 86.2868 82.9808 86.8929 84.2798 87.2869C101.247 92.4159 119.165 82.7556 123.706 65.6956C126.849 53.8876 124.054 43.3348 115.227 34.8528C106.518 26.4838 95.9888 24.057 84.4108 27.492C81.5808 28.33 79.9308 27.9708 78.1278 25.8148C75.8458 23.0878 73.2827 20.5899 70.6467 17.7859Z" fill="#D1D4D3"/>
</svg>
