<svg width="339" height="269" viewBox="0 0 339 269" fill="none" xmlns="http://www.w3.org/2000/svg">
<path d="M192.703 113.438C174.459 113.438 159.617 98.5946 159.617 80.3506C159.617 62.1076 174.459 47.2656 192.703 47.2656C210.946 47.2656 225.788 62.1076 225.788 80.3506C225.788 98.5946 210.946 113.438 192.703 113.438Z" fill="#FECB91"/>
<path d="M192.703 49.7656C209.568 49.7656 223.288 63.4866 223.288 80.3506C223.288 97.2166 209.567 110.938 192.703 110.938C175.838 110.938 162.117 97.2166 162.117 80.3506C162.117 63.4856 175.837 49.7656 192.703 49.7656ZM192.703 44.7656C173.049 44.7656 157.117 60.6986 157.117 80.3506C157.117 100.004 173.049 115.938 192.703 115.938C212.356 115.938 228.288 100.004 228.288 80.3506C228.288 60.6976 212.356 44.7656 192.703 44.7656Z" fill="#FF986D"/>
<path fill-rule="evenodd" clip-rule="evenodd" d="M202.165 59.0127C202.562 59.3057 203.058 59.5267 203.323 59.9147C203.573 60.2727 203.687 60.8107 203.687 61.2767C203.708 69.3847 203.702 77.4947 203.698 85.6097C203.698 90.2447 203.702 94.8827 203.702 99.5247C203.702 100.819 202.863 101.683 201.596 101.685C195.668 101.685 189.736 101.685 183.809 101.685C182.538 101.685 181.707 100.831 181.707 99.5227C181.703 86.7327 181.707 73.9417 181.703 61.1497C181.703 60.0347 182.307 59.4017 183.243 59.0117C189.551 59.0127 195.857 59.0127 202.165 59.0127ZM183.932 63.0327C183.932 74.1517 183.932 85.2407 183.932 96.3297C190.398 96.3297 195.026 96.3297 201.479 96.3297C201.479 85.2237 201.479 74.1367 201.479 63.0327C195.024 63.0327 190.395 63.0327 183.932 63.0327ZM192.699 97.6857C191.993 97.6907 191.414 98.2887 191.411 99.0117C191.41 99.7477 192.014 100.363 192.729 100.353C193.425 100.339 194.002 99.7217 193.999 98.9987C193.989 98.2797 193.401 97.6797 192.699 97.6857Z" fill="white"/>
<path d="M227.292 188.723C204.502 188.723 185.961 170.182 185.961 147.393C185.961 124.604 204.502 106.062 227.292 106.062C250.082 106.062 268.623 124.604 268.623 147.393C268.623 170.182 250.082 188.723 227.292 188.723Z" fill="#FF664A"/>
<path d="M227.292 109.562C248.152 109.562 265.123 126.534 265.123 147.393C265.123 168.252 248.152 185.223 227.292 185.223C206.432 185.223 189.461 168.252 189.461 147.393C189.461 126.534 206.432 109.562 227.292 109.562ZM227.292 102.562C202.533 102.562 182.461 122.634 182.461 147.393C182.461 172.152 202.533 192.223 227.292 192.223C252.052 192.223 272.123 172.152 272.123 147.393C272.123 122.634 252.051 102.562 227.292 102.562Z" fill="#E55C42"/>
<path d="M230.869 265.919C207.825 265.919 189.078 247.172 189.078 224.128C189.078 201.084 207.825 182.336 230.869 182.336C253.912 182.336 272.66 201.084 272.66 224.128C272.66 247.172 253.913 265.919 230.869 265.919Z" fill="#FECB91"/>
<path d="M230.87 185.375C252.238 185.375 269.621 202.76 269.621 224.128C269.621 245.496 252.237 262.879 230.87 262.879C209.503 262.879 192.118 245.496 192.118 224.128C192.118 202.76 209.502 185.375 230.87 185.375ZM230.87 179.297C206.111 179.297 186.039 199.369 186.039 224.128C186.039 248.886 206.111 268.958 230.87 268.958C255.63 268.958 275.7 248.886 275.7 224.128C275.7 199.369 255.63 179.297 230.87 179.297Z" fill="#FF986D"/>
<path d="M44.831 170.156C22.041 170.156 3.5 151.615 3.5 128.826C3.5 106.037 22.041 87.4961 44.831 87.4961C67.621 87.4961 86.162 106.037 86.162 128.826C86.162 151.615 67.621 170.156 44.831 170.156Z" fill="#FF664A"/>
<path d="M44.831 90.9961C65.691 90.9961 82.662 107.967 82.662 128.826C82.662 149.685 65.691 166.656 44.831 166.656C23.971 166.656 7 149.685 7 128.826C7 107.967 23.971 90.9961 44.831 90.9961ZM44.831 83.9961C20.072 83.9961 0 104.067 0 128.826C0 153.585 20.072 173.656 44.831 173.656C69.591 173.656 89.662 153.585 89.662 128.826C89.662 104.067 69.59 83.9961 44.831 83.9961Z" fill="#E55C42"/>
<path d="M44.5681 240.564C29.7331 240.564 17.6641 228.495 17.6641 213.66C17.6641 198.826 29.7331 186.758 44.5681 186.758C59.4021 186.758 71.4711 198.826 71.4711 213.66C71.4711 228.494 59.4031 240.564 44.5681 240.564Z" fill="#FECB91"/>
<path d="M44.5681 188.758C58.2991 188.758 69.4711 199.929 69.4711 213.66C69.4711 227.392 58.3001 238.564 44.5681 238.564C30.8361 238.564 19.6641 227.392 19.6641 213.66C19.6641 199.929 30.8361 188.758 44.5681 188.758ZM44.5681 184.758C28.6041 184.758 15.6641 197.698 15.6641 213.66C15.6641 229.623 28.6041 242.564 44.5681 242.564C60.5301 242.564 73.4711 229.623 73.4711 213.66C73.4711 197.698 60.5311 184.758 44.5681 184.758Z" fill="#FF986D"/>
<path d="M280.443 106.18C262.64 106.18 248.156 91.6974 248.156 73.8944C248.156 56.0924 262.64 41.6094 280.443 41.6094C298.245 41.6094 312.727 56.0924 312.727 73.8944C312.728 91.6964 298.245 106.18 280.443 106.18Z" fill="#FF664A"/>
<path d="M280.443 45.1094C296.315 45.1094 309.227 58.0224 309.227 73.8944C309.227 89.7674 296.314 102.68 280.443 102.68C264.57 102.68 251.656 89.7674 251.656 73.8944C251.657 58.0224 264.57 45.1094 280.443 45.1094ZM280.443 38.1094C260.678 38.1094 244.656 54.1304 244.656 73.8944C244.656 93.6584 260.678 109.68 280.443 109.68C300.206 109.68 316.227 93.6584 316.227 73.8944C316.227 54.1304 300.207 38.1094 280.443 38.1094Z" fill="#E55C42"/>
<path d="M309.342 187.564C294.507 187.564 282.438 175.495 282.438 160.66C282.438 145.826 294.507 133.758 309.342 133.758C324.176 133.758 336.245 145.826 336.245 160.66C336.245 175.494 324.177 187.564 309.342 187.564Z" fill="#FECB91"/>
<path d="M309.342 135.758C323.073 135.758 334.245 146.929 334.245 160.66C334.245 174.392 323.074 185.564 309.342 185.564C295.61 185.564 284.438 174.392 284.438 160.66C284.438 146.929 295.61 135.758 309.342 135.758ZM309.342 131.758C293.378 131.758 280.438 144.698 280.438 160.66C280.438 176.623 293.378 189.564 309.342 189.564C325.304 189.564 338.245 176.623 338.245 160.66C338.245 144.698 325.305 131.758 309.342 131.758Z" fill="#FF986D"/>
<path fill-rule="evenodd" clip-rule="evenodd" d="M214.422 209.742C215.031 208.201 215.843 206.859 217.031 205.77C218.652 204.286 220.62 203.537 222.751 203.283C224.663 203.054 226.595 202.971 228.521 202.902C230.92 202.814 233.32 202.815 235.686 202.296C239.036 201.561 241.478 199.699 242.917 196.565C242.969 196.454 243.02 196.341 243.079 196.233C243.096 196.203 243.137 196.185 243.21 196.129C243.295 196.291 243.382 196.442 243.454 196.6C246.836 203.982 250.215 211.363 253.607 218.74C253.78 219.114 253.763 219.403 253.596 219.773C251.949 223.435 249.01 225.321 245.138 225.785C242.964 226.044 240.76 226.092 238.567 226.169C236.143 226.254 233.723 226.311 231.383 227.045C228.645 227.902 226.688 229.652 225.428 232.219C225.247 232.586 225.26 232.879 225.432 233.246C228.135 238.953 230.819 244.67 233.521 250.377C233.883 251.142 233.926 251.925 233.761 252.72C233.52 253.876 232.646 254.699 231.575 254.861C230.228 255.062 228.973 254.54 228.35 253.424C227.863 252.547 227.463 251.621 227.035 250.713C221.048 238.009 215.065 225.303 209.073 212.6C208.696 211.799 208.631 210.972 208.855 210.142C209.122 209.158 209.701 208.394 210.754 208.165C212.029 207.89 213.159 208.175 214.026 209.216C214.159 209.369 214.269 209.535 214.422 209.742Z" fill="white"/>
<path fill-rule="evenodd" clip-rule="evenodd" d="M280.492 55.7734C286.998 55.7914 292.472 60.5404 293.389 66.9774C293.688 69.0804 293.329 71.0834 292.577 73.0464C291.466 75.9464 289.959 78.6424 288.349 81.2834C286.196 84.8144 283.812 88.1895 281.332 91.4965C280.815 92.1845 280.085 92.2014 279.576 91.5214C276.329 87.1894 273.237 82.7544 270.635 77.9974C269.638 76.1754 268.753 74.3024 268.057 72.3374C266.928 69.1494 267.268 66.0604 268.756 63.1084C270.804 59.0444 274.143 56.6664 278.637 55.9324C279.248 55.8324 279.874 55.8234 280.492 55.7734ZM280.458 79.0533C285.947 79.1113 290.541 74.5584 290.595 69.0084C290.65 63.4134 286.169 58.8564 280.568 58.8104C274.987 58.7644 270.457 63.2654 270.396 68.9164C270.335 74.4504 274.847 78.9943 280.458 79.0533Z" fill="white"/>
<path fill-rule="evenodd" clip-rule="evenodd" d="M280.471 74.5564C277.371 74.5604 274.837 72.0125 274.83 68.8875C274.824 65.8135 277.384 63.2424 280.462 63.2344C283.573 63.2254 286.152 65.7755 286.157 68.8615C286.162 72.0205 283.633 74.5524 280.471 74.5564Z" fill="white"/>
<path fill-rule="evenodd" clip-rule="evenodd" d="M43.2726 115.562C41.9416 114.885 40.6945 114.251 39.3605 113.573C37.1605 115.541 34.8405 117.615 32.5165 119.693C33.4365 121.523 33.7726 123.406 33.2896 125.378C32.5866 128.24 30.8386 130.2 28.0696 131.22C27.6876 131.362 27.5356 131.518 27.5426 131.946C27.5706 133.706 27.5545 135.466 27.5545 137.259C29.9825 138.016 31.7755 139.514 32.8135 141.841C33.6225 143.651 33.7105 145.527 33.1625 147.428C32.1315 151.006 28.5095 153.52 24.8865 153.181C20.8215 152.799 17.6986 149.817 17.3236 146C16.8906 141.599 19.8235 137.82 24.1845 137.002C24.1845 135.223 24.1845 133.435 24.1845 131.636C20.3705 130.766 17.8825 128.521 17.3645 124.569C16.9345 121.287 18.2075 118.584 21.0335 116.826C24.1305 114.9 27.2596 115.145 30.3066 117.192C32.6676 115.076 35.0416 112.95 37.3636 110.869C37.1586 109.972 36.8845 109.133 36.7835 108.273C36.2575 103.777 39.5775 99.8214 44.2315 99.3494C48.4365 98.9224 52.4336 102.256 52.8426 106.553C52.9616 107.806 52.8415 109.04 52.4205 110.241C52.3645 110.4 52.4006 110.694 52.5126 110.795C54.8026 112.856 57.1096 114.897 59.4136 116.941C59.4396 116.964 59.4776 116.975 59.5106 116.99C63.8686 113.982 69.4366 115.713 71.5616 120.031C73.7586 124.497 71.3885 130.443 65.9685 131.575C65.9685 133.421 65.9685 135.268 65.9685 137.113C70.5265 138.128 73.0396 142.57 72.2276 146.696C71.4996 150.393 68.1626 153.196 64.4156 153.201C60.5196 153.207 57.2416 150.505 56.4266 146.629C55.6786 143.077 57.7016 138.286 62.7296 137.102C62.7296 135.354 62.7395 133.596 62.7095 131.838C62.7065 131.697 62.4456 131.485 62.2686 131.435C58.5946 130.372 56.1665 127.093 56.2875 123.303C56.3295 121.962 56.7295 120.713 57.3915 119.509C55.0875 117.452 52.7946 115.405 50.4716 113.331C49.3996 114.297 48.2066 114.985 46.8296 115.337C46.7376 115.36 46.6256 115.544 46.6256 115.652C46.6146 119.006 46.6166 122.36 46.6166 125.754C46.8616 125.826 47.1215 125.896 47.3785 125.978C51.0865 127.163 53.5136 130.992 52.9416 134.751C52.3096 138.895 49.0256 141.784 44.9376 141.793C40.7766 141.802 37.4205 138.849 36.8345 134.664C36.2935 130.8 38.8386 126.995 42.7026 125.897C42.9886 125.816 43.2246 125.777 43.2246 125.357C43.2276 122.13 43.2596 118.903 43.2816 115.675C43.2816 115.581 43.2676 115.491 43.2726 115.562Z" fill="white"/>
<path fill-rule="evenodd" clip-rule="evenodd" d="M199.789 148.062C200.05 147.257 200.579 146.646 201.17 146.058C204.775 142.478 208.361 138.879 211.966 135.297C212.259 135.007 212.362 134.71 212.358 134.309C212.339 132.537 212.342 130.765 212.353 128.995C212.355 128.623 212.38 128.24 212.471 127.882C212.786 126.619 213.742 125.929 215.082 125.948C216.395 125.969 217.335 126.724 217.62 127.989C217.658 128.16 217.694 128.331 217.731 128.502C217.795 128.553 217.861 128.606 217.926 128.656C218.022 128.483 218.085 128.271 218.219 128.136C220.221 126.139 222.231 124.152 224.24 122.162C226.346 120.074 229.013 120.074 231.06 122.203C238.164 129.594 245.256 136.997 252.351 144.397C252.809 144.875 253.294 145.339 253.679 145.871C254.101 146.457 254.424 147.113 254.789 147.739C254.789 148.025 254.789 148.312 254.789 148.599C254.072 150.165 252.594 150.73 251.025 149.968C250.522 149.724 250.046 149.359 249.66 148.952C244.834 143.859 240.014 138.761 235.219 133.639C232.858 131.116 230.551 128.543 228.222 125.993C228.151 125.916 228.106 125.812 227.976 125.608C227.824 125.833 227.757 125.967 227.659 126.068C220.278 133.67 212.894 141.271 205.505 148.866C205.133 149.25 204.743 149.638 204.295 149.922C203.82 150.223 203.288 150.49 202.744 150.613C201.391 150.921 200.55 150.431 199.789 149.028C199.789 148.706 199.789 148.384 199.789 148.062Z" fill="white"/>
<path fill-rule="evenodd" clip-rule="evenodd" d="M228.003 130.387C228.344 130.768 228.666 131.123 228.983 131.484C234.518 137.747 240.051 144.01 245.586 150.272C246.748 151.586 247.229 153.175 247.244 154.871C247.288 160.204 247.28 165.538 247.254 170.872C247.246 172.67 245.974 174.047 244.043 174.118C240.954 174.229 237.858 174.148 234.727 174.148C234.718 173.956 234.702 173.783 234.702 173.609C234.698 168.33 234.699 163.048 234.689 157.769C234.687 157.215 234.669 156.657 234.581 156.113C234.418 155.102 233.823 154.618 232.806 154.617C229.263 154.612 225.718 154.611 222.174 154.617C221.122 154.618 220.63 155.039 220.463 156.075C220.416 156.373 220.418 156.681 220.418 156.985C220.415 162.534 220.415 168.083 220.415 173.631C220.415 173.789 220.415 173.946 220.415 174.137C220.239 174.148 220.101 174.164 219.963 174.164C217.189 174.165 214.414 174.171 211.64 174.158C211.234 174.154 210.817 174.095 210.424 173.991C208.763 173.554 207.855 172.392 207.851 170.676C207.84 166.738 207.838 162.8 207.851 158.863C207.856 157.253 207.839 155.638 207.968 154.037C208.098 152.433 208.764 151.03 209.889 149.826C215.793 143.513 221.676 137.177 227.565 130.848C227.699 130.706 227.833 130.565 228.003 130.387Z" fill="white"/>
<path d="M149.064 223.911C112.739 223.911 83.1875 194.358 83.1875 158.033C83.1875 121.709 112.739 92.1562 149.064 92.1562C185.389 92.1562 214.941 121.709 214.941 158.033C214.941 194.359 185.389 223.911 149.064 223.911Z" fill="#FF664A"/>
<path d="M149.064 96.1562C183.183 96.1562 210.941 123.914 210.941 158.033C210.941 192.152 183.183 219.911 149.064 219.911C114.945 219.911 87.1875 192.152 87.1875 158.033C87.1875 123.914 114.945 96.1562 149.064 96.1562ZM149.064 88.1562C110.472 88.1562 79.1875 119.441 79.1875 158.033C79.1875 196.626 110.472 227.911 149.064 227.911C187.655 227.911 218.941 196.626 218.941 158.033C218.941 119.442 187.655 88.1562 149.064 88.1562Z" fill="#E55C42"/>
<path d="M112.514 104.003C84.8047 104.003 62.2617 81.46 62.2617 53.752C62.2617 26.043 84.8047 3.5 112.514 3.5C140.222 3.5 162.765 26.043 162.765 53.752C162.765 81.46 140.223 104.003 112.514 104.003Z" fill="#FF664A"/>
<path d="M112.514 7C138.292 7 159.265 27.973 159.265 53.752C159.265 79.53 138.292 100.503 112.514 100.503C86.7347 100.503 65.7617 79.53 65.7617 53.752C65.7617 27.973 86.7347 7 112.514 7ZM112.514 0C82.8277 0 58.7617 24.065 58.7617 53.752C58.7617 83.439 82.8277 107.503 112.514 107.503C142.2 107.503 166.265 83.439 166.265 53.752C166.265 24.065 142.2 0 112.514 0Z" fill="#E55C42"/>
<path d="M178.626 137.836C178.626 154.158 165.386 167.375 149.075 167.375C132.741 167.375 119.512 154.158 119.512 137.836C119.512 121.503 132.741 108.273 149.075 108.273C165.386 108.273 178.626 121.503 178.626 137.836Z" fill="white"/>
<path d="M149.076 172.523C131.989 172.523 115.851 176.578 101.562 183.773C111.285 199.834 128.924 210.574 149.076 210.574C169.214 210.574 186.847 199.829 196.562 183.771C182.281 176.577 166.153 172.523 149.076 172.523Z" fill="white"/>
<path fill-rule="evenodd" clip-rule="evenodd" d="M128.502 16.2813C128.847 18.1133 129.191 19.9442 129.603 22.1232C130.596 22.1232 131.901 22.1423 133.205 22.1183C134.441 22.0963 135.025 22.7072 135.05 23.9082C135.06 24.4292 135.056 24.9532 135.056 25.4752C135.056 43.9442 135.056 62.4143 135.056 80.8843C135.056 81.5663 135.056 82.2472 135.056 83.1512C136.499 83.1512 137.787 83.0012 139.011 83.2142C139.625 83.3202 140.123 84.0943 140.672 84.5663C140.13 85.0493 139.596 85.9462 139.046 85.9562C133.414 86.0602 127.779 86.0292 122.146 86.0122C120.872 86.0092 120.477 85.2023 120.487 84.0463C120.506 81.8553 120.492 79.6643 120.492 77.4003C115.589 77.4003 110.862 77.4003 105.94 77.4003C105.94 79.6243 105.897 81.7602 105.954 83.8932C105.997 85.4692 105.307 86.0572 103.755 86.0422C98.411 85.9962 93.068 86.0173 87.726 86.0303C86.625 86.0343 85.634 85.8133 85.673 84.5043C85.708 83.2903 86.692 83.1252 87.702 83.1412C88.856 83.1602 90.011 83.1462 91.464 83.1462C91.464 82.3502 91.464 81.6832 91.464 81.0182C91.464 62.3752 91.464 43.7323 91.465 25.0883C91.465 22.1723 91.514 22.1233 94.355 22.1183C95.216 22.1183 96.077 22.1183 96.906 22.1183C97.844 20.1803 96.268 17.8563 98.163 16.2813C108.276 16.2812 118.39 16.2813 128.502 16.2813ZM124.681 59.8712C129.584 59.8962 129.226 60.1962 129.207 55.3752C129.207 55.3182 129.207 55.2602 129.207 55.2012C129.207 51.1542 129.207 51.1562 125.114 51.1532C120.167 51.1482 120.473 50.7082 120.488 55.7262C120.501 59.8712 120.49 59.8712 124.681 59.8712ZM113.283 36.5923C117.656 36.5873 117.66 37.0862 117.626 32.2522C117.594 27.8762 117.619 27.8982 113.273 27.8702C108.395 27.8372 108.905 27.8232 108.902 32.1722C108.9 36.9352 108.469 36.6043 113.283 36.5923ZM124.825 36.5923C129.598 36.6133 129.212 36.8992 129.21 32.1512C129.208 27.9332 129.675 27.8512 124.969 27.8612C120.114 27.8722 120.488 27.7572 120.485 32.2712C120.48 36.9122 120.215 36.6123 124.825 36.5923ZM108.901 43.9153C108.93 48.1443 108.282 48.3232 113.04 48.2812C117.619 48.2402 117.59 48.2723 117.627 43.7812C117.664 39.0693 117.596 39.5603 113.345 39.5563C108.505 39.5533 108.899 39.1703 108.901 43.9153ZM129.207 43.9003C129.224 39.2943 129.576 39.5293 124.904 39.5563C124.846 39.5563 124.789 39.5563 124.73 39.5563C120.254 39.5333 120.471 39.2642 120.485 43.7972C120.499 48.3012 120.028 48.2843 124.89 48.2863C129.71 48.2913 129.211 48.2373 129.207 43.9003ZM113.268 51.1542C108.624 51.1342 108.89 50.7873 108.897 55.4313C108.904 60.1723 108.521 59.8752 113.292 59.8772C117.681 59.8772 117.63 60.2322 117.632 55.4952C117.635 50.7012 117.631 51.1412 113.268 51.1542ZM113.009 71.4633C117.695 71.4393 117.656 72.0572 117.623 67.0502C117.595 62.7472 117.618 62.7682 113.373 62.7422C108.303 62.7132 108.922 62.6443 108.902 67.2913C108.884 71.6943 108.563 71.4923 113.009 71.4633ZM124.825 71.4633C129.598 71.4843 129.212 71.7712 129.21 67.0242C129.208 62.8062 129.675 62.7243 124.969 62.7333C120.114 62.7443 120.488 62.6282 120.484 67.1422C120.48 71.7822 120.215 71.4833 124.825 71.4633ZM101.568 36.5923C106.215 36.5893 105.955 37.0062 105.941 32.3292C105.926 27.7782 106.439 27.8412 101.546 27.8702C97.223 27.8962 97.247 27.8762 97.218 32.2682C97.183 37.1252 97.198 36.5773 101.568 36.5923ZM105.939 43.9492C105.947 39.1362 106.282 39.5533 101.526 39.5573C97.162 39.5603 97.185 39.0572 97.216 43.9172C97.244 48.2712 97.221 48.2492 101.587 48.2782C106.408 48.3112 105.935 48.3282 105.939 43.9492ZM105.939 55.5222C105.961 50.8272 106.225 51.1262 101.657 51.1542C101.599 51.1542 101.541 51.1542 101.483 51.1542C97.274 51.1402 97.2 50.6972 97.208 55.4042C97.215 60.2882 97.135 59.8702 101.628 59.8762C106.228 59.8832 105.962 60.1642 105.939 55.5222ZM101.627 71.4633C106.238 71.4663 105.948 71.8562 105.94 67.1422C105.932 62.6032 106.39 62.7163 101.485 62.7443C97.222 62.7663 97.242 62.7482 97.217 67.0282C97.19 71.9862 97.12 71.4503 101.627 71.4633Z" fill="white"/>
<path fill-rule="evenodd" clip-rule="evenodd" d="M289.699 160.652C289.716 149.815 298.52 141.017 309.35 141.016C320.168 141.015 328.991 149.844 328.988 160.666C328.985 171.487 320.15 180.316 309.336 180.304C298.505 180.293 289.683 171.464 289.699 160.652ZM292.968 160.674C292.955 169.75 300.239 177.021 309.365 177.038C318.398 177.055 325.693 169.77 325.719 160.706C325.746 151.614 318.458 144.291 309.377 144.286C300.249 144.28 292.982 151.536 292.968 160.674Z" fill="white"/>
<path fill-rule="evenodd" clip-rule="evenodd" d="M307.774 154.188C307.774 152.076 307.772 149.963 307.776 147.852C307.778 147.033 308.227 146.4 308.922 146.21C309.925 145.938 310.89 146.66 310.906 147.732C310.927 149.199 310.914 150.668 310.914 152.135C310.914 154.543 310.917 156.951 310.908 159.36C310.907 159.633 310.995 159.803 311.218 159.964C313.385 161.535 315.545 163.118 317.707 164.697C318.459 165.247 318.678 165.914 318.351 166.671C318.031 167.412 317.255 167.789 316.395 167.602C316.239 167.568 316.085 167.479 315.953 167.383C313.515 165.635 311.089 163.873 308.642 162.138C308.038 161.709 307.764 161.181 307.77 160.446C307.786 158.36 307.774 156.273 307.774 154.188Z" fill="white"/>
<path fill-rule="evenodd" clip-rule="evenodd" d="M45.847 228.79C44.792 228.79 43.7381 228.79 42.6801 228.79C42.6101 228.774 42.5371 228.753 42.4661 228.747C41.4251 228.667 40.3791 228.615 39.3411 228.503C37.5931 228.315 35.8641 228.002 34.1991 227.408C33.3061 227.087 32.4501 226.695 31.7271 226.063C31.1541 225.565 30.7891 224.966 30.7891 224.167C30.7951 217.755 30.795 211.34 30.795 204.923C30.795 204.786 30.805 204.648 30.83 204.512C30.966 203.792 31.4271 203.296 31.9871 202.875C32.8021 202.26 33.7321 201.879 34.6981 201.575C36.8021 200.917 38.9731 200.626 41.1611 200.46C41.6661 200.423 42.1721 200.386 42.6781 200.348C43.7351 200.348 44.7901 200.348 45.8451 200.348C45.9271 200.362 46.0101 200.383 46.0921 200.389C47.1241 200.47 48.1581 200.521 49.1871 200.635C50.8911 200.818 52.572 201.125 54.2 201.683C55.182 202.017 56.1291 202.437 56.9181 203.143C57.4441 203.617 57.7901 204.183 57.7901 204.925C57.7861 211.329 57.7901 217.736 57.7861 224.14C57.7861 224.295 57.7851 224.455 57.7561 224.608C57.6241 225.352 57.1501 225.86 56.5731 226.292C55.7741 226.895 54.8591 227.27 53.9131 227.568C51.8071 228.23 49.6381 228.515 47.4491 228.678C46.9161 228.717 46.38 228.751 45.847 228.79ZM32.593 207.316C32.589 207.37 32.584 207.44 32.584 207.513C32.584 208.672 32.607 209.828 32.575 210.985C32.56 211.485 32.7511 211.815 33.1601 212.02C33.6791 212.284 34.201 212.545 34.752 212.731C37.37 213.62 40.0891 213.909 42.8351 214.01C44.9901 214.088 47.1451 214.012 49.2881 213.731C50.9871 213.51 52.6701 213.201 54.2711 212.569C54.7411 212.385 55.1851 212.129 55.6221 211.875C55.8971 211.719 56.0061 211.458 56.0031 211.124C55.9871 209.931 55.9991 208.737 55.9971 207.543C55.9971 207.458 55.9871 207.37 55.9791 207.256C55.7151 207.385 55.483 207.503 55.252 207.61C55.015 207.714 54.775 207.817 54.532 207.902C51.951 208.82 49.2671 209.141 46.5531 209.293C44.5271 209.404 42.5 209.364 40.476 209.184C38.596 209.016 36.7271 208.747 34.9211 208.187C34.1391 207.939 33.383 207.613 32.593 207.316ZM55.9961 213.777C55.3211 214.049 54.683 214.344 54.019 214.56C51.6 215.345 49.093 215.646 46.567 215.778C43.546 215.939 40.5371 215.807 37.5531 215.288C35.8801 214.995 34.2401 214.598 32.7241 213.795C32.6891 213.775 32.643 213.774 32.584 213.759C32.584 215.046 32.596 216.316 32.58 217.583C32.576 217.947 32.7051 218.223 33.0001 218.397C33.3811 218.622 33.77 218.844 34.179 219.004C36.195 219.802 38.3111 220.139 40.4521 220.333C43.7351 220.633 47.0131 220.569 50.2761 220.064C51.7791 219.833 53.2571 219.507 54.6561 218.896C55.0271 218.736 55.3791 218.522 55.7031 218.284C55.8471 218.178 55.98 217.951 55.985 217.776C56.006 216.446 55.9961 215.112 55.9961 213.777ZM32.584 220.231C32.584 221.502 32.6011 222.739 32.5781 223.979C32.5681 224.436 32.7341 224.76 33.1161 224.958C33.6231 225.221 34.137 225.484 34.675 225.673C37.16 226.543 39.7511 226.824 42.3621 226.948C44.7331 227.063 47.1021 226.977 49.4571 226.672C51.0731 226.463 52.6721 226.164 54.1971 225.567C54.6931 225.374 55.159 225.106 55.623 224.841C55.896 224.685 56.0071 224.421 56.0051 224.089C55.9911 222.895 56.0011 221.7 55.9991 220.506C55.9991 220.419 55.9891 220.331 55.9831 220.256C55.3521 220.515 54.752 220.803 54.127 221.01C51.519 221.869 48.821 222.165 46.097 222.282C43.76 222.385 41.4321 222.303 39.1161 222.009C37.4161 221.791 35.732 221.487 34.119 220.893C33.609 220.703 33.12 220.463 32.584 220.231ZM44.3011 207.562C46.9531 207.535 49.5901 207.356 52.1771 206.735C53.2491 206.477 54.3121 206.175 55.2761 205.629C56.2281 205.091 56.2391 204.587 55.2761 204.084C54.6671 203.766 54.0141 203.511 53.3591 203.302C51.2381 202.626 49.046 202.353 46.834 202.226C43.587 202.036 40.36 202.164 37.162 202.8C35.99 203.03 34.8391 203.342 33.7531 203.846C33.4281 203.997 33.1161 204.19 32.8391 204.414C32.4991 204.689 32.5051 204.999 32.8311 205.285C33.0331 205.46 33.2531 205.639 33.4961 205.727C34.3831 206.067 35.2701 206.429 36.1861 206.668C38.8431 207.366 41.5661 207.534 44.3011 207.562Z" fill="white"/>
</svg>
