<svg width="101" height="101" viewBox="0 0 101 101" fill="none" xmlns="http://www.w3.org/2000/svg">
<path fill-rule="evenodd" clip-rule="evenodd" d="M100.156 50.1436C100.169 77.6946 77.7584 100.11 50.1814 100.127C22.6084 100.146 0.206337 77.7873 0.156337 50.1963C0.105337 22.6173 22.5934 0.11938 50.1794 0.15238C77.7654 0.18538 100.144 22.5676 100.156 50.1436ZM50.1964 27.2735C40.8984 27.2735 31.6004 27.2704 22.3014 27.2754C20.0914 27.2764 19.2024 28.1794 19.2024 30.4024C19.2014 43.5454 19.2024 56.6876 19.2064 69.8316C19.2074 72.0936 20.1264 73.0283 22.3724 73.0293C40.8984 73.0333 59.4244 73.0333 77.9504 73.0293C80.1734 73.0283 81.1134 72.0616 81.1134 69.8116C81.1154 56.7386 81.1154 43.6653 81.1134 30.5923C81.1134 28.0943 80.2954 27.2764 77.7744 27.2754C68.5834 27.2724 59.3904 27.2735 50.1964 27.2735Z" fill="#FF664A"/>
<path fill-rule="evenodd" clip-rule="evenodd" d="M28.002 32.4102C42.835 32.4102 57.466 32.4102 72.26 32.4102C72.004 32.7152 71.835 32.9489 71.634 33.1499C64.85 39.9569 58.065 46.76 51.277 53.563C50.309 54.533 49.985 54.5438 49.038 53.5928C42.179 46.7128 35.326 39.8268 28.472 32.9438C28.351 32.8238 28.245 32.6892 28.002 32.4102Z" fill="#FF664A"/>
<path fill-rule="evenodd" clip-rule="evenodd" d="M27.543 67.7856C32.055 62.6956 36.4519 57.7362 40.9559 52.6562C42.4299 54.1513 43.8619 55.6115 45.3009 57.0645C48.4519 60.2505 51.817 60.2573 54.986 57.0933C56.44 55.6413 57.8999 54.1945 59.3949 52.7065C63.8399 57.7175 68.2439 62.6797 72.7729 67.7847C57.6589 67.7857 42.708 67.7856 27.543 67.7856Z" fill="#FF664A"/>
<path fill-rule="evenodd" clip-rule="evenodd" d="M63.0293 49.0957C67.3843 44.7817 71.6453 40.5586 75.9353 36.3086C75.9353 45.3146 75.9353 54.3527 75.9353 63.6377C71.5593 58.7047 67.3113 53.9197 63.0293 49.0957Z" fill="#FF664A"/>
<path fill-rule="evenodd" clip-rule="evenodd" d="M24.375 36.293C28.69 40.568 32.954 44.791 37.285 49.082C33.028 53.883 28.776 58.6791 24.375 63.6431C24.375 54.3831 24.375 45.346 24.375 36.293Z" fill="#FF664A"/>
</svg>
