<svg width="88" height="100" viewBox="0 0 88 100" fill="none" xmlns="http://www.w3.org/2000/svg">
<path fill-rule="evenodd" clip-rule="evenodd" d="M43.957 100C43.826 100 43.6971 100 43.5641 100C43.2481 99.793 42.9391 99.559 42.6011 99.387C35.9561 95.977 29.646 92.051 23.865 87.3C17.963 82.449 12.84 76.905 8.81604 70.383C2.74204 60.531 0.0950811 49.74 0.0330811 38.25C-0.0119189 29.949 0.029 21.652 0 13.35C0 12.688 0.197051 12.229 0.727051 11.88C2.79105 10.531 4.77202 9.016 6.94202 7.862C15.587 3.275 24.95 1.24801 34.614 0.39801C36.233 0.25401 37.8461 0.13 39.4661 0C42.3311 0 45.1951 0 48.0601 0C48.7011 0.061 49.341 0.153001 49.988 0.192001C57.816 0.632001 65.496 1.892 72.912 4.509C77.871 6.256 82.5781 8.507 86.7261 11.813C87.2791 12.25 87.523 12.714 87.519 13.449C87.488 20.969 87.4741 28.486 87.5071 36.004C87.5321 41.388 87.1671 46.73 86.0441 52.003C83.4071 64.363 77.187 74.676 68.108 83.348C61.301 89.852 53.5141 94.953 45.1741 99.246C44.7501 99.464 44.362 99.746 43.957 100ZM39.338 55.291C38.961 54.936 38.723 54.727 38.498 54.5C35.389 51.397 32.289 48.292 29.17 45.192C27.606 43.637 25.738 43.627 24.178 45.161C22.715 46.599 21.268 48.049 19.832 49.518C18.369 51.009 18.3591 52.882 19.8361 54.363C25.4861 60.03 31.1491 65.688 36.8151 71.336C38.2921 72.809 40.2061 72.834 41.6631 71.336C51.3351 61.41 60.989 51.467 70.63 41.512C72.028 40.07 71.9561 38.166 70.5381 36.719C69.2001 35.343 67.833 33.996 66.475 32.638C64.559 30.72 62.825 30.731 60.944 32.684C54.061 39.835 47.1781 46.981 40.2991 54.136C39.9651 54.484 39.678 54.878 39.338 55.291Z" fill="#FF664A"/>
</svg>
