<svg width="82" height="101" viewBox="0 0 82 101" fill="none" xmlns="http://www.w3.org/2000/svg">
<path d="M0.111328 83.1221V58.4961H9.12833C12.0303 58.4961 14.4493 59.4451 16.4053 61.3231C18.3523 63.2151 19.3313 65.6371 19.3313 68.5951V73.0281C19.3313 75.9881 18.3523 78.4201 16.4053 80.2931C14.4493 82.1871 12.0303 83.1221 9.12833 83.1221H0.111328V83.1221ZM5.83533 62.8931V78.7261H9.12833C10.4263 78.7261 11.4953 78.1931 12.3333 77.1371C13.1753 76.0741 13.5943 74.7061 13.5943 73.0281V68.5611C13.5943 66.9041 13.1753 65.5431 12.3333 64.4841C11.4953 63.4231 10.4263 62.8931 9.12833 62.8931H5.83533V62.8931Z" fill="#FF664A"/>
<path d="M35.2816 78.3341H27.9586L26.5386 83.1221H20.5156L28.5466 58.4961H31.6106V58.5111L31.6296 58.4961H34.6926L42.7456 83.1221H36.7246L35.2816 78.3341ZM29.2756 73.9421H33.9606L31.6586 66.2951H31.5606L29.2756 73.9421Z" fill="#FF664A"/>
<path d="M50.2559 69.2541H50.3599L55.2649 58.4961H61.4559L53.0959 74.4651V83.1221H47.3979V74.2081L39.1719 58.4961H45.3629L50.2559 69.2541Z" fill="#FF664A"/>
<path d="M75.7689 76.5916C75.7689 75.7116 75.4789 75.0486 74.9069 74.5726C74.3289 74.1066 73.2879 73.6016 71.7769 73.0776C68.7139 72.0796 66.4519 71.0236 64.9649 69.8996C63.4809 68.7786 62.738 67.1676 62.738 65.0546C62.738 62.9916 63.6009 61.3226 65.3279 60.0526C67.0529 58.7746 69.2479 58.1406 71.9119 58.1406C74.7149 58.1406 76.9779 58.7936 78.6939 60.1116C80.4089 61.4186 81.2389 63.2756 81.1829 65.6726L81.143 65.7656H75.5969C75.5969 64.6096 75.2769 63.7616 74.6499 63.2396C74.0179 62.7076 73.066 62.4536 71.791 62.4536C70.752 62.4536 69.937 62.7046 69.338 63.2156C68.74 63.7236 68.442 64.3486 68.442 65.0916C68.442 65.8176 68.7509 66.3966 69.3619 66.8266C69.9789 67.2626 71.1279 67.8036 72.8059 68.4606C75.6579 69.3076 77.8199 70.3346 79.2869 71.5556C80.7529 72.7776 81.4829 74.4436 81.4829 76.5586C81.4829 78.7276 80.6369 80.4196 78.9479 81.6446C77.2549 82.8726 75.012 83.4796 72.213 83.4796C69.431 83.4796 67.0669 82.8256 65.1359 81.5106C63.1969 80.1936 62.2609 78.1316 62.3189 75.3036L62.3549 75.2026H67.9169C67.9169 76.6436 68.2679 77.6536 68.9719 78.2626C69.6799 78.8676 70.7639 79.1666 72.2139 79.1666C73.4079 79.1666 74.2989 78.9296 74.8869 78.4536C75.4759 77.9796 75.7689 77.3686 75.7689 76.5916Z" fill="#FF664A"/>
<path d="M6.728 95.4768H2.61301V100.002H0V88.7578H7.51599V90.7698H2.61398V93.4728H6.729V95.4768H6.728Z" fill="#FF664A"/>
<path d="M11.4361 95.6918V100.002H8.83008V88.7578H12.7451C14.0481 88.7578 15.0791 89.0598 15.8371 89.6598C16.6011 90.2638 16.9831 91.0858 16.9831 92.1368C16.9831 92.7158 16.8291 93.2188 16.5211 93.6348C16.2151 94.0498 15.7621 94.3888 15.1671 94.6508C15.8581 94.8488 16.3531 95.1748 16.6531 95.6298C16.9541 96.0788 17.1061 96.6518 17.1061 97.3318V98.0418C17.1061 98.3358 17.1471 98.6718 17.2331 99.0418C17.3231 99.4198 17.4731 99.6888 17.6921 99.8488V100.002H14.9991C14.7921 99.8408 14.6571 99.5638 14.5991 99.1578C14.5351 98.7608 14.5021 98.3798 14.5021 98.0248V97.3448C14.5021 96.8098 14.3601 96.3998 14.0801 96.1178C13.7921 95.8308 13.3811 95.6908 12.8371 95.6908H11.4361V95.6918ZM11.4361 93.6898H12.7581C13.2831 93.6898 13.6861 93.5678 13.9611 93.3278C14.2401 93.0878 14.3791 92.7478 14.3791 92.3018C14.3791 91.8378 14.2401 91.4668 13.9491 91.1858C13.6631 90.9108 13.2621 90.7698 12.7441 90.7698H11.4351V93.6898H11.4361Z" fill="#FF664A"/>
<path d="M25.4831 95.1938H21.5221V97.9948H26.2701V100.002H18.9121V88.7578H26.2761V90.7698H21.5221V93.1888H25.4831V95.1938V95.1938Z" fill="#FF664A"/>
<path d="M34.3064 95.1938H30.3504V97.9948H35.0974V100.002H27.7344V88.7578H35.1044V90.7698H30.3504V93.1888H34.3064V95.1938Z" fill="#FF664A"/>
<path d="M48.3262 90.7698H45.3482V100.002H42.7432V90.7698H39.8242V88.7578H48.3262V90.7698Z" fill="#FF664A"/>
<path d="M51.9919 95.6918V100.002H49.3809V88.7578H53.2989C54.5989 88.7578 55.6309 89.0598 56.3939 89.6598C57.1609 90.2638 57.5359 91.0858 57.5359 92.1368C57.5359 92.7158 57.3819 93.2188 57.0779 93.6348C56.7689 94.0498 56.3189 94.3888 55.7239 94.6508C56.4119 94.8488 56.9099 95.1748 57.2109 95.6298C57.5059 96.0788 57.6609 96.6518 57.6609 97.3318V98.0418C57.6609 98.3358 57.7039 98.6718 57.7929 99.0418C57.8789 99.4198 58.0269 99.6888 58.2479 99.8488V100.002H55.5529C55.3479 99.8408 55.2119 99.5638 55.1509 99.1578C55.0899 98.7608 55.0629 98.3798 55.0629 98.0248V97.3448C55.0629 96.8098 54.9139 96.3998 54.6359 96.1178C54.3479 95.8308 53.9369 95.6908 53.3889 95.6908H51.9919V95.6918ZM51.9919 93.6898H53.3119C53.8389 93.6898 54.2399 93.5678 54.5159 93.3278C54.7949 93.0878 54.9349 92.7478 54.9349 92.3018C54.9349 91.8378 54.7899 91.4668 54.5049 91.1858C54.2179 90.9108 53.8169 90.7698 53.2979 90.7698H51.9909V93.6898H51.9919Z" fill="#FF664A"/>
<path d="M62.2299 100.002H59.627V88.7578H62.2299V100.002Z" fill="#FF664A"/>
<path d="M70.2068 97.8198H66.8628L66.2148 100.002H63.4668L67.1358 88.7578H68.5318V88.7678L68.5428 88.7578H69.9378L73.6128 100.002H70.8628L70.2068 97.8198ZM67.4648 95.8088H69.6068L68.5568 92.3178H68.5108L67.4648 95.8088Z" fill="#FF664A"/>
<path d="M77.0261 97.9948H81.8521V100.002H74.4141V88.7578H77.025V97.9948H77.0261Z" fill="#FF664A"/>
<path d="M18.5208 22.462C20.7608 22.462 22.4828 21.864 23.6938 20.653C24.8978 19.442 25.5038 17.77 25.5038 15.631C25.5038 13.954 24.8888 12.528 23.6548 11.362C22.4238 10.19 20.7608 9.604 18.6678 9.604C17.0918 9.604 15.7558 10.064 14.6588 10.992C13.5598 11.916 13.0128 13.125 13.0128 14.633H0.890822L0.81584 14.406C0.66984 10.123 2.35182 6.646 5.86082 3.987C9.37382 1.329 13.6428 0 18.6678 0C24.5078 0 29.1818 1.335 32.6888 4.007C36.1998 6.68 37.9578 10.471 37.9578 15.371C37.9578 17.808 37.2158 20.054 35.7398 22.096C34.2608 24.143 32.2538 25.747 29.7148 26.936C32.6228 27.999 34.8628 29.59 36.4438 31.719C38.0178 33.85 38.8068 36.446 38.8068 39.5C38.8068 44.426 36.9198 48.303 33.1328 51.119C29.3538 53.944 24.5288 55.351 18.6678 55.351C13.5918 55.351 9.18184 54.026 5.43684 51.375C1.69384 48.735 -0.115174 44.895 0.00782607 39.868L0.079817 39.644H12.2398C12.2398 41.397 12.8378 42.845 14.0488 44.011C15.2538 45.161 16.7958 45.74 18.6678 45.74C20.9088 45.74 22.7478 45.12 24.1888 43.877C25.6328 42.631 26.3558 41.084 26.3558 39.238C26.3558 36.625 25.6678 34.724 24.2998 33.533C22.9368 32.337 21.0098 31.738 18.5218 31.738H12.6098V22.46H18.5208V22.462Z" fill="#FF664A"/>
<path d="M81.6351 34.805C81.6351 41.237 79.9191 46.266 76.5001 49.905C73.0721 53.536 68.5551 55.352 62.9361 55.352C57.2721 55.352 52.724 53.536 49.299 49.905C45.876 46.266 44.1641 41.237 44.1641 34.805V20.543C44.1641 14.11 45.861 9.07899 49.264 5.44499C52.667 1.81099 57.196 0 62.86 0C68.479 0 73.012 1.822 76.462 5.464C79.91 9.112 81.636 14.14 81.636 20.543V34.805H81.6351ZM69.1771 19.697C69.1771 16.417 68.619 13.914 67.498 12.197C66.381 10.471 64.829 9.605 62.859 9.605C60.865 9.605 59.326 10.471 58.244 12.197C57.16 13.914 56.6151 16.417 56.6151 19.697V35.584C56.6151 38.935 57.166 41.466 58.261 43.175C59.354 44.89 60.9151 45.743 62.9351 45.743C64.9041 45.743 66.437 44.889 67.536 43.175C68.633 41.466 69.1771 38.935 69.1771 35.584V19.697Z" fill="#FF664A"/>
</svg>
