<svg width="83" height="101" viewBox="0 0 83 101" fill="none" xmlns="http://www.w3.org/2000/svg">
<path d="M16.7156 61.6946H7.10359V72.2643H1V46H18.5562V50.6997H7.10588V57.0135H16.718V61.6946H16.7156Z" fill="#FF664A"/>
<path d="M27.7128 62.199V72.2665H21.6255V46.0022H30.7704C33.814 46.0022 36.2223 46.7076 37.9928 48.1091C39.7774 49.52 40.6697 51.4401 40.6697 53.895C40.6697 55.2475 40.31 56.4224 39.5905 57.3941C38.8758 58.3635 37.8176 59.1554 36.4278 59.7673C38.0419 60.2298 39.1981 60.9913 39.8988 62.0542C40.6019 63.1029 40.957 64.4414 40.957 66.0298V67.6882C40.957 68.375 41.0528 69.1598 41.2537 70.0241C41.4639 70.907 41.8142 71.5354 42.3258 71.9091V72.2665H36.0354C35.5518 71.8904 35.2365 71.2434 35.101 70.295C34.9515 69.3677 34.8744 68.4778 34.8744 67.6485V66.0601C34.8744 64.8104 34.5427 63.8528 33.8887 63.1941C33.216 62.5237 32.256 62.1966 30.9853 62.1966H27.7128V62.199ZM27.7128 57.5226H30.8007C32.0271 57.5226 32.9684 57.2376 33.6108 56.677C34.2625 56.1164 34.5872 55.3222 34.5872 54.2804C34.5872 53.1966 34.2625 52.33 33.5828 51.6736C32.9147 51.0313 31.978 50.7019 30.768 50.7019H27.7104V57.5226H27.7128Z" fill="#FF664A"/>
<path d="M60.5267 61.0357H51.2744V67.5785H62.3651V72.2665H45.1779V46.0022H62.379V50.7019H51.2744V56.3524H60.5267V61.0357V61.0357Z" fill="#FF664A"/>
<path d="M81.1361 61.0357H71.8954V67.5785H82.9837V72.2665H65.7848V46.0022H83V50.7019H71.8954V56.3524H81.1361V61.0357Z" fill="#FF664A"/>
<path d="M17.4755 82.9256H11.6652V100.938H6.5826V82.9256H0.887451V79H17.4755V82.9256Z" fill="#FF664A"/>
<path d="M24.6282 92.5306V100.94H19.5339V79.0018H27.1783C29.7147 79.0018 31.7282 79.591 33.2168 80.7617C34.7133 81.9401 35.445 83.5439 35.445 85.5945C35.445 86.7242 35.1445 87.7056 34.5514 88.5172C33.9485 89.3269 33.0705 89.9883 31.9096 90.4995C33.252 90.8858 34.2236 91.5219 34.8109 92.4096C35.3865 93.2857 35.6888 94.4036 35.6888 95.7303V97.1156C35.6888 97.6892 35.7728 98.3448 35.9464 99.0667C36.1142 99.8042 36.403 100.329 36.8341 100.641V100.94H31.576C31.176 100.626 30.9107 100.085 30.7917 99.293C30.6727 98.5184 30.62 97.7751 30.62 97.0825V95.7557C30.62 94.7119 30.3293 93.912 29.7869 93.3618C29.2249 92.8018 28.423 92.5286 27.3538 92.5286H24.6282V92.5306ZM24.6282 88.6245H27.2036C28.2318 88.6245 29.0142 88.3865 29.5527 87.9182C30.0971 87.45 30.3702 86.7866 30.3702 85.9164C30.3702 85.0111 30.0874 84.2873 29.5313 83.739C28.9713 83.2025 28.189 82.9274 27.1763 82.9274H24.6263V88.6245H24.6282Z" fill="#FF664A"/>
<path d="M44.6014 100.94H39.5227V79.0018H44.6014V100.94Z" fill="#FF664A"/>
<path d="M60.1671 96.6825H53.6428L52.3784 100.94H47.0168L54.1754 79.0018H56.8991V79.0213L56.9205 79.0018H59.6423L66.8125 100.94H61.447L60.1671 96.6825ZM54.8173 92.7589H58.9965L56.9479 85.9477H56.8581L54.8173 92.7589Z" fill="#FF664A"/>
<path d="M73.4715 97.0239H82.8873V100.94H68.3752V79.0018H73.4694V97.0239H73.4715Z" fill="#FF664A"/>
<path d="M59.5266 29.3131L50.7821 22.9223L55.6958 18.964C56.0798 18.6546 56.2533 18.1533 56.1426 17.6729C56.032 17.1923 55.6567 16.8173 55.1761 16.7073L29.6074 10.8482C29.106 10.7332 28.5845 10.928 28.281 11.3432C27.9775 11.7586 27.9503 12.3146 28.212 12.7573L41.5588 35.3416C41.8098 35.766 42.2811 36.0098 42.7726 35.9693C43.2641 35.929 43.689 35.6113 43.867 35.1514L46.1454 29.2676L54.8897 35.6586C55.1652 35.8602 55.5096 35.9438 55.8468 35.8913C56.1841 35.8389 56.4867 35.6546 56.688 35.3789L59.8063 31.1115C60.2257 30.5376 60.1005 29.7325 59.5266 29.3131ZM55.3694 32.8214L46.3104 26.2003C46.0328 25.9975 45.6882 25.9155 45.3532 25.9676C45.2982 25.9762 45.2432 25.9884 45.1891 26.0043C44.8049 26.1167 44.4952 26.4015 44.3509 26.7747L42.4251 31.7481L31.9517 14.0263L52.0155 18.624L47.8616 21.9698C47.55 22.2206 47.3728 22.6023 47.3823 23.0025C47.3916 23.4023 47.5864 23.7751 47.9095 24.0112L56.9689 30.6322L55.3694 32.8214Z" fill="#FF664A"/>
<path d="M23.0437 5.92173C22.4698 5.50272 21.6649 5.6279 21.2451 6.20148C20.8257 6.77551 20.9509 7.5806 21.5248 8.00014L24.7899 10.3863C25.0768 10.5958 25.4217 10.6695 25.7472 10.6189C26.0725 10.5683 26.3786 10.3934 26.5885 10.1066C27.0078 9.53271 26.8825 8.72748 26.3088 8.30805L23.0437 5.92173Z" fill="#FF664A"/>
<path d="M25.3686 14.5642C25.2594 13.862 24.6013 13.3813 23.8991 13.4905L19.903 14.112C19.2009 14.2212 18.7197 14.8789 18.829 15.5813C18.9382 16.2835 19.5963 16.7644 20.2986 16.6552L24.2946 16.0337C24.9969 15.9244 25.4778 15.2664 25.3686 14.5642Z" fill="#FF664A"/>
<path d="M25.4636 18.5694L23.0772 21.8348C22.6576 22.4085 22.7828 23.2137 23.3569 23.6331C23.6437 23.8427 23.9883 23.9164 24.314 23.8657C24.6393 23.8151 24.9454 23.6403 25.155 23.3534L27.5415 20.0881C27.961 19.5143 27.8357 18.709 27.2618 18.2897C26.6882 17.8704 25.8831 17.9956 25.4636 18.5694Z" fill="#FF664A"/>
<path d="M30.4648 7.5904C31.167 7.4812 31.6479 6.82311 31.5387 6.12083L30.9171 2.12441C30.8079 1.42226 30.15 0.941303 29.4477 1.05053C28.7454 1.15976 28.2647 1.81767 28.3739 2.51995L28.9955 6.5165C29.1047 7.21865 29.7624 7.69965 30.4648 7.5904Z" fill="#FF664A"/>
<path d="M35.5454 8.49521C35.8712 8.44455 36.1772 8.27001 36.3869 7.983L38.7729 4.7179C39.1924 4.14398 39.0672 3.33876 38.4932 2.9195C37.9194 2.50006 37.1139 2.62534 36.6949 3.19918L34.3087 6.4643C33.8893 7.03807 34.0146 7.84343 34.5884 8.26271C34.8753 8.47249 35.2201 8.54581 35.5454 8.49521Z" fill="#FF664A"/>
</svg>
