<svg width="151" height="121" viewBox="0 0 151 121" fill="none" xmlns="http://www.w3.org/2000/svg">
<path d="M134.288 59.0303H88.865C78.558 59.0303 70.168 50.6396 70.168 40.3286C70.168 32.8496 74.594 26.3855 80.938 23.4165C80.898 22.8305 80.854 22.2106 80.854 21.6216C80.854 9.80458 90.418 0.242188 102.226 0.242188C111.157 0.242188 118.799 5.71553 122.016 13.5195C123.847 11.8905 126.271 10.9336 128.944 10.9336C134.836 10.9336 139.632 15.7336 139.632 21.6216C139.632 23.7526 139.008 25.7113 137.918 27.3843C145.013 29.0533 150.316 35.3995 150.316 43.0005C150.316 51.8515 143.137 59.0303 134.288 59.0303Z" fill="#FF664A"/>
<path d="M59.0874 117.57C59.0874 119.032 57.8814 120.24 56.4234 120.24H2.9884C1.5274 120.24 0.316406 119.025 0.316406 117.57V48.0898C0.316406 46.6278 1.5274 45.418 2.9884 45.418H56.4234C57.8854 45.418 59.0874 46.6278 59.0874 48.0898V117.57ZM53.7454 114.897V50.7671H5.65439V114.897H21.6864V105.543C21.6864 104.832 22.3154 104.207 23.0184 104.207H36.3784C37.0924 104.207 37.7144 104.832 37.7144 105.543V114.897H53.7454ZM16.3424 60.1147C16.3424 60.8247 15.7174 61.4512 15.0094 61.4512H12.3344C11.6264 61.4512 11.0024 60.8207 11.0024 60.1147V57.4448C11.0024 56.7348 11.6264 56.103 12.3344 56.103H15.0094C15.7174 56.103 16.3424 56.7348 16.3424 57.4448V60.1147ZM16.3424 70.8027C16.3424 71.5137 15.7174 72.1401 15.0094 72.1401H12.3344C11.6264 72.1401 11.0024 71.5137 11.0024 70.8027V68.1309C11.0024 67.4209 11.6264 66.7979 12.3344 66.7979H15.0094C15.7174 66.7979 16.3424 67.4209 16.3424 68.1309V70.8027ZM16.3424 81.4917C16.3424 82.2017 15.7174 82.8262 15.0094 82.8262H12.3344C11.6264 82.8262 11.0024 82.2017 11.0024 81.4917V78.8188C11.0024 78.1088 11.6264 77.4819 12.3344 77.4819H15.0094C15.7174 77.4819 16.3424 78.1088 16.3424 78.8188V81.4917ZM16.3424 92.1841C16.3424 92.8941 15.7174 93.5161 15.0094 93.5161H12.3344C11.6264 93.5161 11.0024 92.8901 11.0024 92.1841V89.5107C11.0024 88.8007 11.6264 88.1758 12.3344 88.1758H15.0094C15.7174 88.1758 16.3424 88.8007 16.3424 89.5107V92.1841ZM16.3424 102.872C16.3424 103.581 15.7174 104.205 15.0094 104.205H12.3344C11.6264 104.205 11.0024 103.581 11.0024 102.872V100.195C11.0024 99.4858 11.6264 98.8618 12.3344 98.8618H15.0094C15.7174 98.8618 16.3424 99.4858 16.3424 100.195V102.872ZM27.0274 60.1147C27.0274 60.8247 26.4014 61.4512 25.6944 61.4512H23.0184C22.3114 61.4512 21.6864 60.8207 21.6864 60.1147V57.4448C21.6864 56.7348 22.3154 56.103 23.0184 56.103H25.6944C26.4014 56.103 27.0274 56.7348 27.0274 57.4448V60.1147ZM27.0274 70.8027C27.0274 71.5137 26.4014 72.1401 25.6944 72.1401H23.0184C22.3114 72.1401 21.6864 71.5137 21.6864 70.8027V68.1309C21.6864 67.4209 22.3154 66.7979 23.0184 66.7979H25.6944C26.4014 66.7979 27.0274 67.4209 27.0274 68.1309V70.8027ZM27.0274 81.4917C27.0274 82.2017 26.4014 82.8262 25.6944 82.8262H23.0184C22.3114 82.8262 21.6864 82.2017 21.6864 81.4917V78.8188C21.6864 78.1088 22.3154 77.4819 23.0184 77.4819H25.6944C26.4014 77.4819 27.0274 78.1088 27.0274 78.8188V81.4917ZM27.0274 92.1841C27.0274 92.8941 26.4014 93.5161 25.6944 93.5161H23.0184C22.3114 93.5161 21.6864 92.8901 21.6864 92.1841V89.5107C21.6864 88.8007 22.3154 88.1758 23.0184 88.1758H25.6944C26.4014 88.1758 27.0274 88.8007 27.0274 89.5107V92.1841ZM37.7154 60.1147C37.7154 60.8247 37.0914 61.4512 36.3794 61.4512H33.7084C32.9974 61.4512 32.3744 60.8207 32.3744 60.1147V57.4448C32.3744 56.7348 33.0004 56.103 33.7084 56.103H36.3794C37.0934 56.103 37.7154 56.7348 37.7154 57.4448V60.1147ZM37.7154 70.8027C37.7154 71.5137 37.0914 72.1401 36.3794 72.1401H33.7084C32.9974 72.1401 32.3744 71.5137 32.3744 70.8027V68.1309C32.3744 67.4209 33.0004 66.7979 33.7084 66.7979H36.3794C37.0934 66.7979 37.7154 67.4209 37.7154 68.1309V70.8027ZM37.7154 81.4917C37.7154 82.2017 37.0914 82.8262 36.3794 82.8262H33.7084C32.9974 82.8262 32.3744 82.2017 32.3744 81.4917V78.8188C32.3744 78.1088 33.0004 77.4819 33.7084 77.4819H36.3794C37.0934 77.4819 37.7154 78.1088 37.7154 78.8188V81.4917ZM37.7154 92.1841C37.7154 92.8941 37.0914 93.5161 36.3794 93.5161H33.7084C32.9974 93.5161 32.3744 92.8901 32.3744 92.1841V89.5107C32.3744 88.8007 33.0004 88.1758 33.7084 88.1758H36.3794C37.0934 88.1758 37.7154 88.8007 37.7154 89.5107V92.1841ZM48.4044 60.1147C48.4044 60.8247 47.7784 61.4512 47.0714 61.4512H44.3954C43.6854 61.4512 43.0634 60.8207 43.0634 60.1147V57.4448C43.0634 56.7348 43.6884 56.103 44.3954 56.103H47.0714C47.7784 56.103 48.4044 56.7348 48.4044 57.4448V60.1147ZM48.4044 70.8027C48.4044 71.5137 47.7784 72.1401 47.0714 72.1401H44.3954C43.6854 72.1401 43.0634 71.5137 43.0634 70.8027V68.1309C43.0634 67.4209 43.6884 66.7979 44.3954 66.7979H47.0714C47.7784 66.7979 48.4044 67.4209 48.4044 68.1309V70.8027ZM48.4044 81.4917C48.4044 82.2017 47.7784 82.8262 47.0714 82.8262H44.3954C43.6854 82.8262 43.0634 82.2017 43.0634 81.4917V78.8188C43.0634 78.1088 43.6884 77.4819 44.3954 77.4819H47.0714C47.7784 77.4819 48.4044 78.1088 48.4044 78.8188V81.4917ZM48.4044 92.1841C48.4044 92.8941 47.7784 93.5161 47.0714 93.5161H44.3954C43.6854 93.5161 43.0634 92.8901 43.0634 92.1841V89.5107C43.0634 88.8007 43.6884 88.1758 44.3954 88.1758H47.0714C47.7784 88.1758 48.4044 88.8007 48.4044 89.5107V92.1841ZM48.4044 102.872C48.4044 103.581 47.7784 104.205 47.0714 104.205H44.3954C43.6854 104.205 43.0634 103.581 43.0634 102.872V100.195C43.0634 99.4858 43.6884 98.8618 44.3954 98.8618H47.0714C47.7784 98.8618 48.4044 99.4858 48.4044 100.195V102.872Z" fill="#FF664A"/>
<path d="M117.442 62.6133C111.545 76.5653 97.732 86.3481 81.641 86.3481H81.26L81.25 88.1494H81.641C98.48 88.1494 112.931 77.9115 119.105 63.3135L117.442 62.6133Z" fill="#D1D4D3" stroke="#D1D4D3" stroke-width="2" stroke-miterlimit="10" stroke-linecap="round" stroke-linejoin="round"/>
<path d="M87.1184 80.9883L83.5014 87.2734L85.5074 94.2393L70.6094 85.6963L87.1184 80.9883Z" fill="#D1D4D3"/>
<path d="M44.1472 37.2319C47.2312 25.9309 55.2952 16.675 65.8272 11.98L65.0933 10.332C54.0693 15.25 45.6412 24.9288 42.4062 36.7588L44.1472 37.2319Z" fill="#D1D4D3" stroke="#D1D4D3" stroke-width="2" stroke-miterlimit="10" stroke-linecap="round" stroke-linejoin="round"/>
<path d="M62.7181 19.2749L63.4151 12.0527L58.7031 6.54297L75.7991 8.1499L62.7181 19.2749Z" fill="#D1D4D3"/>
</svg>
