<svg width="27" height="28" viewBox="0 0 27 28" fill="none" xmlns="http://www.w3.org/2000/svg">
<path fill-rule="evenodd" clip-rule="evenodd" d="M13.5803 27.6489C20.9773 27.6489 26.9714 21.6518 26.9714 14.2598C26.9714 6.86077 20.9773 0.871094 13.5803 0.871094C6.18532 0.871094 0.191406 6.86177 0.191406 14.2598C0.191406 21.6518 6.18532 27.6489 13.5803 27.6489ZM14.7186 12.3843L19.8186 19.5112C19.8746 19.5932 19.9056 19.6942 19.9076 19.8042C19.9076 20.0982 19.6696 20.3774 19.3356 20.3774H17.2306C17.0666 20.3774 16.9026 20.2974 16.8126 20.1904L12.9666 14.8184L10.9626 17.6143C10.8706 17.7293 10.6906 17.8232 10.5266 17.8232H8.41956C8.10556 17.8232 7.85156 17.5535 7.85156 17.2515C7.85156 17.1555 7.86863 17.0535 7.92163 16.9785L11.2166 12.3843L8.04663 7.9585L8.04607 7.95772C7.9583 7.83704 7.88062 7.73023 7.88062 7.55859C7.87662 7.26459 8.13758 6.98828 8.44458 6.98828H10.5676C10.7706 6.98828 10.9306 7.11143 11.0616 7.29443L12.9656 9.94727L14.8737 7.28857C15.0147 7.09357 15.1827 6.98828 15.3737 6.98828H17.4866C17.8106 6.98828 18.0526 7.26159 18.0526 7.55859C18.0526 7.65959 18.0316 7.7464 17.9766 7.8374L14.7186 12.3843Z" fill="white"/>
</svg>
