<svg width="85" height="35" viewBox="0 0 85 35" fill="none" xmlns="http://www.w3.org/2000/svg">
<path d="M9.37439 19.6865C9.30739 19.7675 9.2434 19.8324 9.1814 19.8804C9.1184 19.9274 9.02735 19.9526 8.90735 19.9526C8.78935 19.9526 8.66636 19.9055 8.53436 19.8135C8.40736 19.7195 8.24236 19.6202 8.04736 19.5122C7.85036 19.4072 7.61335 19.3054 7.33435 19.2134C7.05735 19.1194 6.71537 19.0742 6.30737 19.0742C5.77337 19.0742 5.3034 19.1713 4.8974 19.3613C4.4874 19.5543 4.14936 19.8295 3.87836 20.1865C3.60636 20.5395 3.40238 20.9743 3.26038 21.4863C3.12138 21.9983 3.04938 22.5725 3.04938 23.2095C3.04938 23.8695 3.12335 24.4572 3.27435 24.9712C3.42035 25.4872 3.63335 25.9225 3.90735 26.2725C4.17935 26.6255 4.51435 26.8922 4.90735 27.0732C5.30035 27.2552 5.73636 27.3462 6.21936 27.3462C6.68536 27.3462 7.07237 27.2874 7.37537 27.1724C7.67837 27.0574 7.93037 26.9343 8.13037 26.8013C8.33037 26.6683 8.49737 26.5452 8.63037 26.4282C8.76337 26.3132 8.90136 26.2544 9.04236 26.2544C9.22036 26.2544 9.35841 26.3206 9.45441 26.4546L10.0764 27.2554C9.81735 27.5744 9.52638 27.8484 9.20538 28.0674C8.88138 28.2924 8.53839 28.4733 8.17639 28.6123C7.81339 28.7553 7.43338 28.8573 7.03638 28.9243C6.64038 28.9923 6.23736 29.0254 5.83136 29.0254C5.12536 29.0254 4.46938 28.8962 3.85638 28.6372C3.24538 28.3762 2.7144 27.9994 2.2674 27.5034C1.8194 27.0054 1.46541 26.3963 1.20441 25.6733C0.945407 24.9503 0.816406 24.1304 0.816406 23.2104C0.816406 22.3744 0.931382 21.5992 1.16638 20.8882C1.39838 20.1772 1.7444 19.5653 2.1994 19.0503C2.6544 18.5323 3.21739 18.1304 3.88239 17.8374C4.55239 17.5444 5.31538 17.3984 6.17438 17.3984C6.98138 17.3984 7.69439 17.5276 8.30939 17.7886C8.92239 18.0476 9.46941 18.4142 9.95441 18.8882L9.37439 19.6865Z" fill="white"/>
<path d="M14.0979 12.457V28.8647H11.9199V12.457H14.0979Z" fill="white"/>
<path d="M21.7803 17.3945C22.6093 17.3945 23.3613 17.5293 24.0313 17.7983C24.7023 18.0693 25.2723 18.4583 25.7443 18.9663C26.2153 19.4723 26.5753 20.0873 26.8263 20.8003C27.0783 21.5173 27.2053 22.3185 27.2053 23.2085C27.2053 24.0975 27.0783 24.9016 26.8263 25.6206C26.5753 26.3396 26.2153 26.9506 25.7443 27.4546C25.2723 27.9606 24.7023 28.3457 24.0313 28.6167C23.3613 28.8867 22.6093 29.0225 21.7803 29.0225C20.9413 29.0225 20.1883 28.8857 19.5173 28.6167C18.8473 28.3457 18.2733 27.9606 17.8003 27.4546C17.3253 26.9506 16.9603 26.3396 16.7043 25.6206C16.4493 24.9016 16.3203 24.0975 16.3203 23.2085C16.3203 22.3175 16.4493 21.5173 16.7043 20.8003C16.9603 20.0873 17.3253 19.4723 17.8003 18.9663C18.2733 18.4583 18.8473 18.0703 19.5173 17.7983C20.1893 17.5283 20.9423 17.3945 21.7803 17.3945ZM21.7803 27.3315C22.8493 27.3315 23.6443 26.9724 24.1703 26.2534C24.6963 25.5344 24.9613 24.5237 24.9613 23.2207C24.9613 21.9137 24.6963 20.9027 24.1703 20.1797C23.6453 19.4557 22.8503 19.0942 21.7803 19.0942C20.6983 19.0942 19.8933 19.4557 19.3633 20.1797C18.8323 20.9027 18.5683 21.9137 18.5683 23.2207C18.5683 24.5237 18.8323 25.5344 19.3633 26.2534C19.8943 26.9724 20.6983 27.3315 21.7803 27.3315Z" fill="white"/>
<path d="M38.7875 17.5732V28.8652H37.4865C37.1905 28.8652 36.9965 28.7226 36.9095 28.4316L36.7535 27.2983C36.5075 27.5583 36.2525 27.7962 35.9845 28.0112C35.7175 28.2242 35.4345 28.4085 35.1305 28.5615C34.8265 28.7145 34.5055 28.8325 34.1615 28.9155C33.8215 29.0015 33.4545 29.0464 33.0625 29.0464C32.4405 29.0464 31.8925 28.9394 31.4195 28.7324C30.9505 28.5254 30.5575 28.2363 30.2375 27.8613C29.9175 27.4863 29.6775 27.0363 29.5135 26.5093C29.3495 25.9843 29.2695 25.4027 29.2695 24.7637V17.5732H31.4495V24.7637C31.4495 25.5737 31.6355 26.2014 32.0065 26.6504C32.3755 27.0984 32.9425 27.3193 33.7055 27.3193C34.2615 27.3193 34.7815 27.1893 35.2625 26.9253C35.7435 26.6623 36.1975 26.3013 36.6195 25.8413V17.5703H38.7865V17.5732H38.7875Z" fill="white"/>
<path d="M51.0612 12.458V28.8657H49.7482C49.4462 28.8657 49.2563 28.7231 49.1823 28.4321L48.9932 27.1328C48.5132 27.7028 47.9662 28.1619 47.3542 28.5039C46.7432 28.8509 46.0362 29.022 45.2352 29.022C44.5902 29.022 44.0083 28.8971 43.4843 28.6431C42.9633 28.3931 42.5163 28.0231 42.1453 27.5371C41.7763 27.0541 41.4872 26.4519 41.2892 25.7329C41.0892 25.0119 40.9902 24.1869 40.9902 23.2539C40.9902 22.4139 41.1022 21.638 41.3232 20.918C41.5462 20.199 41.8692 19.5758 42.2902 19.0508C42.7142 18.5258 43.2243 18.11 43.8253 17.811C44.4263 17.51 45.1022 17.3608 45.8582 17.3608C46.5402 17.3608 47.1212 17.4708 47.5982 17.6938C48.0752 17.9168 48.5032 18.2332 48.8812 18.6392V12.457H51.0612V12.458ZM48.8812 20.3081C48.5262 19.8411 48.1432 19.5151 47.7332 19.3291C47.3202 19.1451 46.8602 19.0518 46.3482 19.0518C45.3542 19.0518 44.5863 19.407 44.0413 20.125C43.4963 20.84 43.2252 21.8819 43.2252 23.2549C43.2252 23.9729 43.2862 24.5848 43.4082 25.0928C43.5322 25.6028 43.7083 26.0159 43.9423 26.3389C44.1743 26.6599 44.4632 26.8978 44.8032 27.0498C45.1442 27.2018 45.5302 27.2788 45.9572 27.2788C46.5882 27.2788 47.1333 27.136 47.5933 26.855C48.0523 26.576 48.4832 26.177 48.8812 25.667V20.3081V20.3081Z" fill="white"/>
<path d="M66.7491 21.3184C65.7541 21.3154 64.4731 21.3687 64.3471 21.3687C65.1141 19.9427 65.9551 18.5093 66.7031 17.2393C67.4471 15.9673 67.9351 15.1036 68.1661 14.6436C68.3961 14.1806 68.5121 13.7744 68.5121 13.4204C68.5121 12.9954 68.3651 12.5902 68.0651 12.1992C66.5481 13.0062 65.1181 13.8886 63.7751 14.8516C62.4321 15.8126 61.1561 16.8303 59.9441 17.9023C58.7351 18.9703 57.3871 20.2322 55.9051 21.6772C55.7331 21.6872 55.4691 21.6933 55.1111 21.6973C54.7551 21.7013 54.4661 21.7056 54.2441 21.7056C54.0231 21.7056 53.7801 21.7056 53.5181 21.7056C53.5451 21.4616 53.6981 21.2762 53.9731 21.1562C54.2461 21.0332 54.7171 20.9274 55.3751 20.8364C54.2541 20.8474 53.4961 20.9156 53.0981 21.0396C52.7021 21.1686 52.2771 21.4614 51.8251 21.9224C50.9911 22.7524 50.5791 23.3634 50.5791 23.7524C50.5791 23.9964 50.6681 24.1484 50.8491 24.2114C51.0311 24.2754 51.3821 24.3156 51.9071 24.3286C52.4301 24.3416 52.8561 24.3695 53.1811 24.4185L50.6061 27.1685C50.4231 27.0805 50.2851 27.0342 50.1831 27.0342C49.8221 27.0342 49.3591 27.2855 48.7871 27.7925C48.2181 28.2975 47.7061 28.8815 47.2561 29.5415C46.8021 30.2015 46.5781 30.6873 46.5781 31.0063C46.5781 31.2933 46.7351 31.4404 47.0521 31.4404C47.3341 31.4404 47.6401 31.3185 47.9741 31.0815C48.3101 30.8395 48.6281 30.5714 48.9301 30.2744C49.2331 29.9754 49.8851 29.3403 50.8891 28.3623C51.0601 28.1893 51.2811 27.9743 51.5471 27.7173C51.8141 27.4593 52.1311 27.1472 52.5031 26.7812C52.8721 26.4182 53.2671 26.0164 53.6811 25.5884C54.0981 25.1604 54.4521 24.7852 54.7421 24.4712C56.1141 24.5062 57.1891 24.5244 57.9671 24.5244C58.4711 24.5244 59.2691 24.5062 60.3531 24.4712C59.6401 25.8072 59.1951 26.6553 59.0181 27.0063C58.8421 27.3583 58.6751 27.7254 58.5241 28.1104C58.3681 28.4964 58.2941 28.7905 58.2941 28.9985C58.2941 29.5065 58.4391 29.8954 58.7261 30.1714C59.0171 30.4474 59.3121 30.5854 59.6081 30.5854C59.8611 30.5854 60.1131 30.5312 60.3621 30.4292C60.6091 30.3272 60.8841 30.1695 61.1871 29.9565C61.4921 29.7455 61.8471 29.4763 62.2601 29.1553C62.6711 28.8353 63.2471 28.3935 63.9871 27.8325L64.0951 27.1133C62.7141 27.9103 61.9271 28.3076 61.7361 28.3076C61.3491 28.3076 61.1551 28.1205 61.1551 27.7505C61.1551 27.4965 61.6811 26.3746 62.7421 24.3896C62.7421 24.3896 63.0611 24.4062 64.4491 24.3042C64.4491 24.3042 65.2371 23.7394 66.0381 22.5894C66.3141 22.1914 66.7491 21.3184 66.7491 21.3184ZM62.0971 21.5684L57.7891 21.6484C58.5021 20.9164 59.1881 19.9955 59.8511 19.3945C60.5091 18.7935 61.2641 18.1434 62.1141 17.4424C62.9641 16.7424 63.7271 16.1416 64.4051 15.6436C65.0831 15.1476 65.7481 14.6966 66.4001 14.2896C66.0631 14.8486 65.7581 15.3505 65.4831 15.7935C65.2081 16.2365 64.8771 16.7786 64.4931 17.4146C64.1101 18.0516 63.7591 18.6416 63.4361 19.1846C63.1131 19.7276 62.6101 20.6914 62.0971 21.5684Z" fill="white"/>
<path d="M79.52 27.812C79.444 27.626 79.326 27.5379 79.168 27.5469C79.012 27.5559 77.977 27.5458 75.123 28.5708C73.386 29.1958 72.214 29.7329 71.202 30.5049C71.676 29.1979 71.899 28.8539 72.783 27.2979C74.265 24.6909 78.187 19.8281 78.187 19.8281C78.187 19.8281 74.214 20.6901 72.085 20.9941C69.63 21.3431 68.396 21.4067 67.35 21.4277C67.35 21.4277 67.087 22.1049 66.65 22.7349C65.923 23.7789 65.293 24.3608 65.293 24.3608C66.924 24.2298 69.867 23.9647 72.336 23.4277C72.565 23.3777 72.771 23.3307 72.965 23.2827C71.953 24.2547 70.928 25.4642 70.031 26.9512C66.477 32.8592 67.789 34.7231 67.789 34.7231H67.791C67.854 34.7231 72.686 32.0897 74.74 31.3027C77.328 30.3137 77.853 30.3319 77.939 30.2979C77.996 30.4919 77.939 30.6769 77.769 30.8579C77.599 31.0399 77.279 31.2679 76.806 31.5459C77.654 31.1829 78.206 30.89 78.469 30.666C78.73 30.444 78.959 30.0888 79.156 29.5938C79.524 28.7017 79.644 28.107 79.52 27.812Z" fill="white"/>
<path d="M82.9693 28.3318L83.2173 27.7586L83.4313 27.1809C83.5553 26.7869 83.6703 26.3949 83.7483 25.9959L83.8113 25.7088L83.8553 25.3997C83.8833 25.1947 83.9223 24.9869 83.9413 24.7849C83.9633 24.3889 84.0043 23.996 83.9903 23.596C83.9933 23.396 83.9893 23.1977 83.9643 23.0017C83.9423 22.8057 83.9423 22.6059 83.9013 22.4139L83.7993 21.8377L83.6513 21.2747C83.5383 20.9067 83.4133 20.5397 83.2493 20.1897C83.0893 19.8417 82.9083 19.5019 82.6943 19.1809C82.6003 19.0179 82.4843 18.8638 82.3703 18.7088C82.2603 18.5508 82.1363 18.4016 82.0113 18.2556C81.8913 18.1086 81.7613 17.9649 81.6283 17.8269C81.5013 17.6819 81.3643 17.5469 81.2223 17.4139C81.0863 17.2799 80.9423 17.1497 80.7943 17.0257C80.6503 16.8957 80.4993 16.778 80.3473 16.659C80.0423 16.416 79.7243 16.1919 79.4003 15.9759C79.0743 15.7599 78.7363 15.5619 78.3943 15.3709C78.0483 15.1869 77.7053 15.0017 77.3473 14.8377C76.9933 14.6697 76.6323 14.5157 76.2673 14.3767C75.9123 14.2377 75.5173 14.0977 75.1963 14.0047L74.5783 13.8235L74.4783 13.1658L74.4293 12.8318L74.4083 12.6858L74.4463 12.4739C74.5303 12.0079 74.5873 11.4316 74.6083 10.9026C74.6293 10.3626 74.6253 9.82574 74.5813 9.29374C74.4893 8.23274 74.2553 7.20369 73.8353 6.29569C73.4173 5.38269 72.7883 4.62269 72.0043 4.04569C71.6073 3.75669 71.1633 3.53294 70.7023 3.32694L70.3453 3.19364L70.2553 3.1619L70.2123 3.14481L70.1883 3.13456L70.1783 3.13065L70.1723 3.1287C70.1333 3.1187 70.2173 3.14495 70.2063 3.13895L69.9973 3.07791C69.7183 2.99991 69.4213 2.9077 69.2063 2.8787L68.8513 2.80887L68.4743 2.7659C68.2213 2.7259 67.9723 2.74291 67.7203 2.72391C67.2223 2.74491 66.7243 2.78666 66.2423 2.92166C65.7633 3.05766 65.2853 3.22698 64.8373 3.47098C64.3883 3.71498 63.9543 4.00563 63.5483 4.33963C62.7313 5.01163 62.0113 5.84179 61.3833 6.74979C61.0673 7.20479 60.7813 7.68271 60.5083 8.16971C60.2393 8.64971 59.9833 9.17355 59.7843 9.65555L59.4763 10.4158L58.8523 10.0198C58.7093 9.92681 58.5423 9.82865 58.3823 9.73465L57.8953 9.46366C57.5653 9.28466 57.2293 9.11794 56.8933 8.95194C56.2193 8.62594 55.5273 8.33658 54.8163 8.11258C54.1053 7.90158 53.3753 7.7207 52.6383 7.7327C52.4533 7.7347 52.2713 7.74762 52.0883 7.77762C51.9073 7.80262 51.7273 7.84992 51.5543 7.91092C51.3773 7.97292 51.2113 8.05653 51.0533 8.15653C50.9783 8.21353 50.8983 8.26252 50.8223 8.32352L50.6133 8.51981L50.7823 8.28397C50.8433 8.20797 50.9133 8.13868 50.9813 8.06668C51.1263 7.93568 51.2863 7.81268 51.4613 7.71268C51.6333 7.61268 51.8203 7.52761 52.0123 7.46561C52.2023 7.39261 52.4013 7.35561 52.6003 7.31961C53.3973 7.18661 54.2073 7.24567 54.9913 7.37967C55.7753 7.51767 56.5403 7.72875 57.2903 7.98075C57.6663 8.10875 58.0333 8.2516 58.3983 8.4036L58.9443 8.6409C59.1273 8.7229 59.2983 8.80367 59.4923 8.90067L58.5593 9.25956C58.7433 8.64256 58.9503 8.09165 59.1933 7.52665C59.4323 6.96465 59.7143 6.42395 60.0223 5.88895C60.6313 4.82295 61.3973 3.82557 62.3283 2.94657C62.8003 2.51457 63.3153 2.12395 63.8783 1.78495C64.4383 1.43995 65.0543 1.17679 65.6893 0.978794C66.3293 0.775794 66.9963 0.684903 67.6603 0.640903C67.9913 0.644903 68.3283 0.618899 68.6553 0.661899L69.1483 0.708774C69.3153 0.731774 69.4863 0.764712 69.6563 0.794712C70.0133 0.853712 70.2793 0.931696 70.5603 1.0037L70.7733 1.06082L71.0463 1.15067L71.5113 1.31473C72.1263 1.56573 72.7233 1.8739 73.2773 2.2659C73.8283 2.6639 74.3313 3.13297 74.7643 3.65897C75.2003 4.18497 75.5463 4.77077 75.8223 5.37577C76.3793 6.59177 76.6403 7.87988 76.7173 9.14188C76.7523 9.77688 76.7483 10.4036 76.7053 11.0286C76.6513 11.6656 76.5793 12.2516 76.4313 12.9246L76.4483 12.5706L76.4863 12.9065L75.7703 12.0686C76.2393 12.2226 76.6203 12.3818 77.0273 12.5598C77.4263 12.7408 77.8203 12.9276 78.2043 13.1346C78.9763 13.5436 79.7143 14.0128 80.4173 14.5408C80.7653 14.8058 81.1063 15.0816 81.4333 15.3836C81.5953 15.5296 81.7563 15.6806 81.9103 15.8396C82.0663 15.9956 82.2213 16.1565 82.3633 16.3235C82.5123 16.4865 82.6583 16.6558 82.7933 16.8318C82.9323 17.0038 83.0693 17.181 83.1913 17.367C83.3183 17.551 83.4413 17.736 83.5523 17.93C83.6653 18.121 83.7803 18.3099 83.8723 18.5159C84.0803 18.9079 84.2513 19.323 84.3953 19.742C84.5413 20.162 84.6473 20.5956 84.7323 21.0276L84.8213 21.6829L84.8543 22.3406C84.8703 22.5576 84.8443 22.777 84.8403 22.993C84.8383 23.212 84.8163 23.428 84.7833 23.639C84.7463 24.067 84.6503 24.4978 84.5543 24.9178C84.4993 25.1228 84.4343 25.3159 84.3763 25.5159L84.2843 25.8147C84.2473 25.9327 84.2083 26.0188 84.1693 26.1228C84.0283 26.5208 83.8433 26.9047 83.6453 27.2757L83.3263 27.8186L82.9693 28.3318Z" fill="white"/>
</svg>
