<svg width="124" height="21" viewBox="0 0 124 21" fill="none" xmlns="http://www.w3.org/2000/svg">
<path d="M100.931 12.3894C100.931 13.2124 100.214 13.6704 98.9778 13.6704H95.8218V11.0864H98.9328C100.3 11.0864 100.931 11.5884 100.931 12.3504V12.3894V12.3894ZM95.8208 5.90044H98.4688C99.6878 5.90044 100.321 6.33944 100.321 7.10144V7.14144C100.321 7.96244 99.6258 8.36444 98.3848 8.36444H95.8208V5.90044ZM102.087 9.46644C103.392 8.92744 104.357 7.96344 104.357 6.34044V6.30144C104.357 5.34044 104.002 4.60044 103.409 4.03944C102.551 3.21744 101.246 2.77344 99.3958 2.77344H92.5798C92.2228 2.77344 91.8418 3.07044 91.8418 3.50544V16.0694C91.8418 16.4404 92.1898 16.7974 92.5798 16.7974H99.4388C102.948 16.7974 105.009 15.3304 105.009 12.9304V12.8884C105.009 10.9854 103.876 10.0254 102.087 9.46644Z" fill="#36424A"/>
<path d="M29.2065 16.7973C29.6125 16.7973 29.9425 16.4673 29.9425 16.0603V14.2263C29.9425 13.8203 29.6125 13.4903 29.2065 13.4903L22.1455 13.4923V11.2683H28.5245C28.9035 11.2683 29.2065 10.9643 29.2065 10.5853V8.88634C29.2065 8.50934 28.9035 8.20234 28.5245 8.20234H22.1455V6.08234H29.2065C29.6125 6.08234 29.9425 5.75534 29.9425 5.34934V3.51334C29.9425 3.10734 29.6125 2.78034 29.2065 2.78034L19.0015 2.77734C18.5055 2.77734 18.1055 3.17834 18.1055 3.67234L18.1135 15.9013C18.1135 16.3973 18.5135 16.7963 19.0065 16.7963L29.2065 16.7973Z" fill="#36424A"/>
<path d="M47.9272 18.9693L41.3292 9.75825L45.5442 3.88125C45.6142 3.76625 45.6442 3.65125 45.6442 3.51925C45.6442 3.13925 45.3312 2.78325 44.9092 2.78325C44.8812 2.78325 42.2172 2.78125 42.1802 2.78125C41.9362 2.78125 41.7172 2.91425 41.5342 3.17125L39.0662 6.60925L36.6072 3.17725C36.4352 2.93925 36.2242 2.78325 35.9592 2.78325C35.9342 2.78325 33.2562 2.78325 33.2252 2.78325C32.8242 2.78325 32.4872 3.14425 32.4912 3.51725C32.4912 3.73825 32.5932 3.88125 32.7062 4.03825L36.8102 9.75925L32.5502 15.7022C32.4802 15.7992 32.4512 15.9262 32.4512 16.0572C32.4512 16.4422 32.7832 16.7913 33.1862 16.7913C33.2072 16.7913 35.8872 16.7922 35.9132 16.7922C36.1282 16.7922 36.3582 16.6672 36.4792 16.5212L39.0672 12.9093L44.0422 19.8492C44.1592 19.9872 44.3662 20.0873 44.5812 20.0873C44.6012 20.0873 47.2802 20.0883 47.3082 20.0883C47.7382 20.0883 48.0422 19.7343 48.0422 19.3533C48.0402 19.2113 47.9972 19.0813 47.9272 18.9693Z" fill="#36424A"/>
<path d="M59.6968 2.77544L48.3128 2.77344C47.8908 2.77344 47.5508 3.11344 47.5508 3.53244V5.41844C47.5508 5.83444 47.8908 6.17944 48.3128 6.17944H51.9648L51.9608 15.8894C51.9608 16.3894 52.3658 16.7984 52.8638 16.7984H55.1418C55.6418 16.7984 56.0458 16.3894 56.0458 15.8894L56.0418 6.17944H59.6948C60.1118 6.17944 60.4538 5.83444 60.4538 5.41844V3.53244C60.4558 3.11344 60.1138 2.77544 59.6968 2.77544Z" fill="#36424A"/>
<path d="M79.7677 11.2677L81.4317 7.28369L83.0727 11.2677H79.7677V11.2677ZM89.2947 15.8317L83.6367 3.08869C83.5217 2.85469 83.2907 2.67969 83.0097 2.67969H79.9937C79.7817 2.67969 79.4547 2.81769 79.3687 3.03069L73.7617 15.6637C73.6777 15.8357 73.6387 15.9807 73.6387 16.0677C73.6387 16.4527 73.9787 16.7987 74.3767 16.7987H77.0677C77.4477 16.7987 77.6377 16.5397 77.7767 16.2457L78.5967 14.2947H84.2747L85.1847 16.4207C85.2817 16.6377 85.5437 16.7987 85.8247 16.7987H88.5987C88.9857 16.7987 89.3327 16.4497 89.3327 16.0677C89.3337 15.9837 89.3227 15.9117 89.2947 15.8317Z" fill="#36424A"/>
<path d="M114.253 8.06506C112.212 7.62206 111.708 7.34306 111.708 6.70306V6.66406C111.708 6.16306 112.19 5.76306 113.181 5.76306C114.29 5.76306 115.513 6.12106 116.689 6.76906C117.152 7.02406 117.455 6.90706 117.689 6.62506L118.931 4.95006C119.158 4.58806 119.048 4.18006 118.587 3.88606C117.134 2.99906 115.407 2.53906 113.286 2.53906C109.755 2.53906 107.589 4.42006 107.589 7.02306V7.06206C107.589 9.94706 110.005 10.7871 113.138 11.4681C115.136 11.9121 115.618 12.2331 115.618 12.8121V12.8511C115.618 13.4531 115.031 13.8121 113.938 13.8121C112.461 13.8121 111.047 13.3741 109.75 12.5411C109.703 12.5131 109.66 12.4821 109.617 12.4511C109.515 12.4011 109.402 12.3671 109.28 12.3671C109.086 12.3671 108.91 12.4461 108.78 12.5681C108.78 12.5681 107.375 14.1541 107.34 14.2091C107.266 14.3221 107.219 14.4611 107.219 14.6091C107.219 14.8361 107.322 15.0371 107.485 15.1701C107.516 15.1931 107.544 15.2171 107.574 15.2371C109.302 16.4321 111.497 17.0371 113.79 17.0371C117.364 17.0371 119.739 15.3331 119.739 12.4721V12.4331C119.739 9.80706 117.638 8.76606 114.253 8.06506Z" fill="#36424A"/>
<path d="M13.8158 2.78125H11.5638C11.0678 2.78125 10.6688 3.17925 10.6688 3.67325L10.6628 10.1892L4.89283 3.13325C4.74983 2.94725 4.59583 2.78125 4.26783 2.78125H1.69383C1.19883 2.78125 0.798828 3.18125 0.798828 3.67725V15.9062C0.798828 16.4002 1.19783 16.8022 1.69383 16.8022H3.94583C4.43983 16.8022 4.84083 16.4012 4.84083 15.9062L4.83683 9.10725L10.9598 16.5953C11.0738 16.7073 11.2688 16.8012 11.4738 16.8012H13.8058C14.2978 16.8012 14.6998 16.3992 14.6998 15.9042L14.7088 3.67425C14.7078 3.18025 14.3078 2.78125 13.8158 2.78125Z" fill="#36424A"/>
<path d="M62.9023 15.8993C62.9023 16.3953 63.3023 16.7972 63.7973 16.7972H70.9913C71.4103 16.7972 71.7503 16.4582 71.7503 16.0382V14.1512C71.7503 13.7312 71.4103 13.3942 70.9913 13.3942L66.9843 13.3903V3.68425C66.9843 3.18425 66.5783 2.78125 66.0783 2.78125H63.8053C63.3053 2.78125 62.9033 3.18425 62.9033 3.68425V15.8993H62.9023Z" fill="#36424A"/>
<path d="M121.966 0.0898438C122.292 0.0898438 122.612 0.172843 122.925 0.340843C123.236 0.508843 123.478 0.747844 123.654 1.06184C123.83 1.37384 123.916 1.70084 123.916 2.04084C123.916 2.37684 123.83 2.69984 123.658 3.01184C123.486 3.32084 123.244 3.56284 122.939 3.73284C122.626 3.90484 122.306 3.98984 121.966 3.98984C121.628 3.98984 121.306 3.90484 120.993 3.73284C120.684 3.56284 120.446 3.32084 120.274 3.01184C120.102 2.69984 120.016 2.37684 120.016 2.04084C120.016 1.70084 120.102 1.37384 120.274 1.06184C120.449 0.748844 120.696 0.508843 121.008 0.340843C121.317 0.172843 121.638 0.0898438 121.966 0.0898438ZM121.966 0.409843C121.691 0.409843 121.423 0.479844 121.165 0.619844C120.903 0.760844 120.699 0.961844 120.556 1.22484C120.408 1.48584 120.333 1.75584 120.333 2.03884C120.333 2.31984 120.403 2.58984 120.55 2.84984C120.693 3.10784 120.896 3.30884 121.154 3.45184C121.416 3.59784 121.685 3.66884 121.967 3.66884C122.249 3.66884 122.518 3.59784 122.776 3.45184C123.033 3.30884 123.237 3.10784 123.38 2.84984C123.523 2.58984 123.597 2.32084 123.597 2.03884C123.597 1.75584 123.523 1.48484 123.378 1.22484C123.23 0.960844 123.026 0.759844 122.769 0.619844C122.505 0.479844 122.237 0.409843 121.966 0.409843ZM121.107 3.12184V1.01784H121.83C122.075 1.01784 122.256 1.03884 122.365 1.07584C122.478 1.11384 122.564 1.18184 122.631 1.27784C122.694 1.37384 122.729 1.47584 122.729 1.58484C122.729 1.73584 122.674 1.87084 122.565 1.98384C122.458 2.09484 122.315 2.16084 122.135 2.17284C122.207 2.20384 122.268 2.24284 122.311 2.28484C122.395 2.36984 122.497 2.50884 122.62 2.70684L122.874 3.12184H122.464L122.276 2.78784C122.128 2.52584 122.01 2.35984 121.924 2.29384C121.863 2.24484 121.776 2.22284 121.658 2.22584H121.459V3.12184H121.107ZM121.458 1.93684H121.868C122.063 1.93684 122.196 1.90784 122.268 1.84784C122.338 1.78984 122.375 1.71484 122.375 1.61884C122.375 1.55584 122.359 1.49984 122.323 1.45184C122.289 1.40284 122.242 1.36684 122.179 1.34284C122.118 1.31984 122.007 1.30584 121.843 1.30584H121.456V1.93684H121.458Z" fill="#36424A"/>
</svg>
