<svg width="28" height="28" viewBox="0 0 28 28" fill="none" xmlns="http://www.w3.org/2000/svg">
<path fill-rule="evenodd" clip-rule="evenodd" d="M13.7093 27.6489C21.1043 27.6489 27.0983 21.6518 27.0983 14.2598C27.0983 6.86077 21.1043 0.871094 13.7093 0.871094C6.31429 0.871094 0.320312 6.86177 0.320312 14.2598C0.320312 21.6518 6.31429 27.6489 13.7093 27.6489ZM10.9303 17.1049C9.6143 18.0989 8.13228 18.511 6.48828 18.349C6.49188 18.3724 6.50675 18.3801 6.51916 18.3865C6.52056 18.3872 6.52193 18.3879 6.52325 18.3886C7.29225 18.8716 8.11727 19.2247 8.99927 19.4457C9.73627 19.6327 10.4873 19.7199 11.2513 19.7079C11.6253 19.6999 11.9963 19.6788 12.3663 19.6298C13.1173 19.5278 13.8443 19.3388 14.5443 19.0488C15.5193 18.6398 16.3803 18.0618 17.1363 17.3178C17.6053 16.8588 18.0123 16.345 18.3653 15.787C18.8533 15.019 19.2163 14.1968 19.4573 13.3197C19.6873 12.4888 19.7943 11.6398 19.7643 10.7768C19.7613 10.6928 19.7843 10.6397 19.8523 10.5907C20.3873 10.1917 20.8403 9.71982 21.2213 9.17083C21.2237 9.16683 21.2267 9.16299 21.2298 9.15902C21.2406 9.14515 21.2525 9.12978 21.2463 9.101C20.7043 9.333 20.1433 9.48957 19.5583 9.55657C20.1843 9.15557 20.6233 8.60667 20.8693 7.88567C20.8281 7.90704 20.7915 7.92742 20.7572 7.94658C20.7256 7.96416 20.6959 7.9807 20.6663 7.99602C20.1363 8.28402 19.5793 8.48681 18.9903 8.60881C18.9543 8.61781 18.9293 8.60893 18.9043 8.58293C18.8933 8.5722 18.8824 8.56135 18.8713 8.55045C18.8341 8.51362 18.7962 8.47613 18.7553 8.43987C18.0463 7.82087 17.2233 7.55687 16.2913 7.68987C15.2573 7.84187 14.4953 8.39873 14.0103 9.32073C13.6763 9.94773 13.6043 10.6257 13.7393 11.3227C13.7457 11.3571 13.7492 11.3743 13.7422 11.3826C13.7351 11.3909 13.7174 11.3901 13.6813 11.3886C13.5953 11.3836 13.5113 11.3756 13.4263 11.3656C13.0623 11.3406 12.7013 11.285 12.3443 11.206C11.5573 11.035 10.8093 10.7589 10.1003 10.3759C9.50128 10.0539 8.94829 9.66679 8.43829 9.21379C8.11329 8.92279 7.81226 8.61283 7.53326 8.27483C7.48726 8.21683 7.48228 8.21683 7.44928 8.27483C7.11928 8.87683 7.0033 9.52205 7.1073 10.2031C7.2283 11.0021 7.61829 11.6547 8.25629 12.1537C8.30529 12.1927 8.35331 12.2298 8.41431 12.2768C8.27331 12.2708 8.1523 12.2597 8.0293 12.2387C7.7023 12.1837 7.39429 12.0817 7.10229 11.9257L7.09928 11.9242C7.06587 11.9069 7.04238 11.8948 7.04529 11.955L7.04587 11.9699C7.05264 12.1447 7.0593 12.3166 7.09625 12.4887C7.34925 13.6567 8.04029 14.4409 9.17029 14.8339C9.24052 14.8603 9.3113 14.8782 9.38396 14.8966C9.40751 14.9026 9.43127 14.9086 9.45526 14.915C9.44352 14.9306 9.42873 14.9339 9.41278 14.9375C9.40836 14.9385 9.40385 14.9395 9.39929 14.9408C9.00029 15.0368 8.59627 15.0479 8.18927 14.9819C8.15198 14.9769 8.13324 14.9744 8.12688 14.9821C8.12046 14.9899 8.12671 15.0081 8.13928 15.0448C8.33328 15.6008 8.65929 16.0598 9.11829 16.4228C9.60429 16.8048 10.1553 17.0257 10.7753 17.0727C10.8253 17.0757 10.8783 17.0818 10.9293 17.0888C10.9303 17.0928 10.9303 17.1049 10.9303 17.1049Z" fill="white"/>
</svg>
