<svg width="27" height="28" viewBox="0 0 27 28" fill="none" xmlns="http://www.w3.org/2000/svg">
<path fill-rule="evenodd" clip-rule="evenodd" d="M13.3881 27.6489C20.7851 27.6489 26.7791 21.6518 26.7791 14.2598C26.7791 6.86077 20.7851 0.871094 13.3881 0.871094C5.99406 0.871094 0 6.86177 0 14.2598C0 21.6518 5.99406 27.6489 13.3881 27.6489ZM20.7474 20.3784V15.1973C20.7474 12.4263 19.2674 11.1333 17.2884 11.1333C15.6944 11.1333 14.9794 12.0105 14.5834 12.6255V11.3442H11.5774C11.6204 12.1932 11.5774 20.3784 11.5774 20.3784H14.5834V15.3345C14.5834 15.0645 14.6033 14.7935 14.6813 14.6025C14.9003 14.0615 15.3944 13.5034 16.2224 13.5034C17.3094 13.5034 17.7433 14.3314 17.7433 15.5464V20.3784H20.7474ZM14.5834 12.6255V12.6543H14.5624C14.5648 12.6481 14.5714 12.6401 14.5779 12.6322C14.5798 12.63 14.5817 12.6277 14.5834 12.6255ZM6.73438 8.54932C6.73438 7.66332 7.40836 6.98828 8.43536 6.98828C9.46236 6.98828 10.0954 7.66332 10.1164 8.54932C10.1164 9.41832 9.46236 10.1123 8.41736 10.1123H8.39636C7.38836 10.1123 6.73438 9.41832 6.73438 8.54932ZM9.91736 20.3784H6.91541V11.3442H9.91736V20.3784Z" fill="white"/>
</svg>
