<svg width="102" height="100" viewBox="0 0 102 100" fill="none" xmlns="http://www.w3.org/2000/svg">
<path fill-rule="evenodd" clip-rule="evenodd" d="M72.1111 63.7236C68.2521 63.7236 64.5881 63.7236 61.0681 63.7236C59.7301 65.7066 58.75 68.7686 56.892 69.4456C55.124 70.0896 52.3261 68.4916 50.1931 67.4466C45.1231 64.9696 50.289 61.9586 49.808 59.3626C47.509 56.9416 45.2881 54.4736 42.8961 52.1866C42.3921 51.7096 41.134 51.5746 40.423 51.8286C34.878 53.8076 34.8981 53.8516 32.6651 48.4266C32.3951 47.7596 32.1381 47.0876 31.8251 46.4376C30.8971 44.4686 31.5321 43.1476 33.4681 42.3356C34.8661 41.7446 36.2572 41.1476 37.6632 40.5456C37.6632 37.0116 37.7471 33.6066 37.5911 30.2066C37.5681 29.5926 36.7061 28.7316 36.0421 28.4776C29.5321 26.0296 31.1081 25.2586 32.9051 20.6466C33.2351 19.8116 33.5671 18.9666 33.9641 18.1586C34.7001 16.6496 35.819 16.0126 37.48 16.7446C38.06 17.0016 38.7201 17.1166 39.2321 17.4556C41.3101 18.8356 42.75 18.3686 44.017 16.2416C44.695 15.1116 45.8041 14.2236 46.7921 13.3036C47.7801 12.3866 48.8581 11.5716 50.0871 10.5506C49.5561 9.21065 49.066 7.79064 48.439 6.42664C47.462 4.30864 48.1381 2.97065 50.2341 2.19265C50.7401 2.00465 51.2361 1.78964 51.7341 1.58464C57.4231 -0.763356 57.3691 -0.733361 60.0541 4.63564C60.3981 5.32164 61.5851 5.81365 62.4501 5.94965C63.5811 6.12565 64.811 5.64764 65.944 5.81264C69.926 6.39264 73.368 6.31365 74.319 1.22965C74.424 0.671649 76.038 0.374643 76.975 0.0176431C77.18 -0.0593569 77.493 0.135647 77.746 0.218647C85.498 2.73965 85.4981 2.73964 82.7231 10.5286C84.0981 11.7326 85.5691 12.9026 86.8951 14.2246C88.2251 15.5516 89.4011 17.0336 90.7471 18.5636C92.1511 17.9916 93.5771 17.4546 94.9641 16.8346C96.8251 16.0006 98.0931 16.5746 98.8901 18.3726C99.1461 18.9516 99.359 19.5496 99.595 20.1296C101.935 25.8036 101.923 25.7746 96.4211 28.5966C95.8471 28.8906 95.1981 29.6966 95.1771 30.2856C95.0601 33.6836 95.1201 37.0936 95.1201 40.0986C97.0111 42.6626 103.048 41.2256 100.684 46.8216C99.7662 48.9946 98.9011 51.9406 97.1611 52.8006C95.5791 53.5736 92.8391 51.9866 91.6301 51.6946C88.7511 54.6346 86.1791 57.2576 83.6091 59.8826C83.4121 59.6116 83.2111 59.3396 83.0191 59.0646C83.5191 61.3626 84.7201 63.8166 84.2611 65.9036C83.9861 67.1546 81.1811 67.9646 79.4111 68.7476C77.7841 69.4736 75.8661 70.9627 74.3901 68.6737C73.3781 67.1177 72.8101 65.2806 72.1111 63.7236ZM66.4211 54.7806C77.4331 54.7646 86.4051 45.7826 86.3841 34.7996C86.3631 23.8926 77.2471 14.8246 66.3251 14.8466C55.3781 14.8686 46.38 23.9266 46.397 34.9006C46.415 45.9076 55.3631 54.7926 66.4211 54.7806Z" fill="#FF664A"/>
<path fill-rule="evenodd" clip-rule="evenodd" d="M7.79102 86.5157C6.80302 84.1367 5.90798 81.9877 5.00598 79.8037C0.00398159 79.2967 0 79.2957 0 75.9127C0 72.4957 0.0119491 72.4887 5.02295 71.9197C5.91795 69.7637 6.81401 67.6147 7.73401 65.4057C4.77301 61.2447 4.77306 61.2447 7.63806 58.6007C9.56006 56.8197 9.68901 56.8527 13.14 59.8687C15.044 59.0987 17.001 58.4327 18.826 57.5047C19.41 57.2067 19.912 56.2417 19.988 55.5387C20.316 52.3517 20.619 52.1467 24.092 52.0467C26.694 51.9717 27.778 53.0257 27.522 55.5807C27.473 56.0997 27.588 56.6407 27.624 57.0507C29.907 57.9977 32.062 58.8897 34.298 59.8217C38.523 56.8917 38.441 56.9777 41.118 59.6887C43.749 62.3507 40.925 63.5717 39.868 65.2037C40.639 67.1957 41.29 69.1577 42.175 71.0047C42.429 71.5407 43.325 72.0067 43.972 72.0747C47.466 72.4387 47.5131 72.6057 47.5811 76.5427C47.6361 79.4447 45.999 79.8027 43.755 79.6477C43.4 79.6217 43.038 79.6957 42.661 79.7287C41.727 81.9707 40.798 84.1887 39.866 86.4307C42.882 90.4697 42.882 90.5167 40.03 93.1527C38.092 94.9437 37.911 94.9037 34.444 91.9327C32.258 92.8287 30.044 93.7327 27.686 94.6987C27.647 94.9107 27.536 95.2557 27.526 95.6047C27.378 99.4327 25.44 100.839 21.749 99.5107C20.991 99.2397 20.095 97.9047 20.145 97.1167C20.286 94.9297 19.2841 94.1557 17.3831 93.6817C16.0121 93.3337 14.7479 92.5617 13.4399 91.9767C8.94594 94.8687 8.96696 94.8187 6.26196 91.8297C3.80696 89.1187 6.95702 88.1767 7.79102 86.5157ZM22.125 73.2657C20.275 75.0387 18.523 76.8477 16.629 78.4947C14.709 80.1597 15.6231 81.2987 17.0081 82.6667C18.4301 84.0727 19.654 85.2047 21.397 83.1087C22.989 81.1947 24.667 79.3477 26.311 77.4687C26.499 77.6697 26.684 77.8687 26.874 78.0667C27.593 78.4787 28.31 78.8797 29.302 79.4457C30.372 75.3967 31.343 71.7437 32.527 67.2607C27.97 68.5037 24.205 69.5297 20.125 70.6377C20.973 71.7567 21.446 72.3757 22.125 73.2657Z" fill="#FF664A"/>
<path fill-rule="evenodd" clip-rule="evenodd" d="M67.0917 38.9735C67.8727 40.1815 68.3416 40.9075 69.1676 42.1865C64.5876 43.4355 60.3496 44.5975 55.2676 45.9855C56.6076 41.0105 57.7497 36.7675 59.0197 32.0565C60.1817 32.8335 60.9557 33.3495 62.1957 34.1785C64.1917 32.0365 66.2157 29.7605 68.3477 27.5905C72.5797 23.2915 72.6056 23.3136 75.2186 25.9226C77.9196 28.6216 77.9436 28.6475 73.5406 32.9795C71.4276 35.0535 69.2027 37.0125 67.0917 38.9735Z" fill="#FF664A"/>
</svg>
