<svg width="145" height="151" viewBox="0 0 145 151" fill="none" xmlns="http://www.w3.org/2000/svg">
<path d="M80.5195 141.152C80.5105 144.068 78.2066 146.401 75.3986 146.405H9.56055C6.75155 146.401 4.45349 144.068 4.44849 141.152V72.4424C4.45349 69.5224 6.75255 67.1895 9.56055 67.1895H58.2855H59.0005V66.4756V63.8325V63.1172H58.2855H9.56055C4.50755 63.1172 0.4375 67.3075 0.4375 72.4365V141.151C0.4375 146.285 4.50755 150.47 9.56055 150.47H75.4075C80.4515 150.47 84.5225 146.284 84.5225 141.151V89.2485V88.5342H83.8085H81.2335H80.5195V89.2485V89.2573V141.152Z" fill="#D1D4D3"/>
<path d="M43.6052 55.7622H44.3223V55.0483V11.9795C44.3283 8.22349 47.2972 5.21436 50.9172 5.21436H133.465C137.094 5.21436 140.051 8.22349 140.055 11.9795V98.1226C140.051 101.881 137.094 104.889 133.465 104.893H92.1942H91.4792V105.606V108.921V109.634H92.1942H133.465C139.701 109.634 144.721 104.467 144.721 98.1313V11.9805C144.721 5.63547 139.701 0.472656 133.465 0.472656H50.9172C44.6882 0.472656 39.6603 5.63547 39.6562 11.9805V55.0493V55.7637H40.3743H43.6052V55.7622Z" fill="#FF664A"/>
<path d="M111.009 61.0967L118.386 21.5469L80.6161 33.1519L93.2122 44.7319L41.8641 102.305L33.2222 94.0229L25.7461 125.243L55.4031 115.282L46.9601 107.192L98.4011 49.5039L111.009 61.0967Z" fill="#FF664A"/>
</svg>
