<svg width="287" height="271" viewBox="0 0 287 271" fill="none" xmlns="http://www.w3.org/2000/svg">
<path d="M20.8828 94.2148L21.6259 96.7623C22.9651 101.354 24.8222 105.776 27.1669 109.921L28.4933 112.265L26.8199 114.376L19.7008 123.354L20.8828 94.2148ZM20.8828 94.2148L18.2468 93.909M20.8828 94.2148L18.2468 93.909M18.2468 93.909L6.97553 92.6014M18.2468 93.909L6.97553 92.6014M144.004 120.899L137.29 112.384C140.08 107.56 142.26 102.416 143.713 97.0392L154.059 95.8476M144.004 120.899L113.721 23.1627L121.423 17.0596M144.004 120.899C146.329 123.835 146.096 128.02 143.451 130.664L131.187 142.929M144.004 120.899L48.0688 136.39C52.6607 139.035 57.5432 141.098 62.6291 142.551L63.966 154.031M154.059 95.8476C157.78 95.4117 160.569 92.273 160.569 88.553V71.2028C160.569 67.4828 157.779 64.3441 154.059 63.9081M154.059 95.8476L153.602 91.8739L153.597 91.8745C155.307 91.6727 156.569 90.2363 156.569 88.553V71.2028C156.569 69.5191 155.306 68.0823 153.595 67.8811L154.059 63.9081M154.059 95.8476L153.594 91.8748L143.255 93.0655L140.56 93.3759L139.852 95.9956C138.494 101.019 136.453 105.842 133.828 110.382L132.469 112.73L134.149 114.861L140.862 123.376L140.868 123.383C141.939 124.735 141.824 126.635 140.623 127.836L128.374 140.085L131.187 142.929M154.059 63.9081L143.858 62.7166C142.463 57.3982 140.371 52.3122 137.697 47.546L143.975 39.612C146.3 36.6767 146.038 32.4917 143.423 29.847M154.059 63.9081L153.594 67.8809L143.394 66.6896L140.682 66.3728L139.989 63.7316C138.684 58.7576 136.724 53.9869 134.209 49.5029L132.898 47.1656L134.561 45.0641L140.838 37.1301L140.839 37.1284C141.893 35.7987 141.789 33.8892 140.584 32.6655L140.594 32.6755L143.423 29.847M143.423 29.847L131.187 17.6118C128.543 14.9671 124.358 14.7346 121.423 17.0596M143.423 29.847L140.579 32.6598M121.423 17.0596L123.906 20.1952M121.423 17.0596L123.907 20.1946L123.906 20.1952M6.97553 92.6014C5.26403 92.4008 4 90.9637 4 89.2796V71.9293C4 70.2464 5.26227 68.8101 6.97195 68.6079C6.97314 68.6078 6.97434 68.6076 6.97553 68.6075L17.6585 67.3883L20.4131 67.0739L21.0855 64.3842C22.3371 59.3779 24.2423 54.5593 26.7485 50.0372L28.0396 47.7075L26.388 45.6179L19.7037 37.1607L19.7011 37.1574C18.6301 35.8053 18.7453 33.9053 19.9462 32.7045L32.2011 20.4495C33.4248 19.2455 35.334 19.1421 36.6634 20.1952L44.6543 26.5298L46.8177 28.2447L49.1885 26.8303C53.9881 23.9669 59.1395 21.7867 64.5355 20.3423L67.1597 19.6399L67.4743 16.9417L68.6366 6.97553M6.97553 92.6014L68.6366 6.97553M123.906 20.1952C125.258 19.1242 127.158 19.2394 128.359 20.4402L140.579 32.6598M123.906 20.1952L116.205 26.2977L114.058 27.9993L111.696 26.612C107.007 23.859 101.991 21.7595 96.7251 20.3406L94.1068 19.6351L93.7927 16.9417L92.6304 6.97553M140.579 32.6598L19.6996 123.356C18.6479 124.685 18.7516 126.593 19.9551 127.816L19.9459 127.807L17.1174 130.636L19.9614 127.823L32.2102 140.071C33.4108 141.272 35.3107 141.387 36.6631 140.316L36.6641 140.315L45.5863 133.253L47.714 131.569L50.0654 132.924C54.3734 135.405 58.9543 137.341 63.728 138.705L66.2936 139.438L66.6022 142.088L67.9388 153.565L63.966 154.031M140.579 32.6598L92.6304 6.97553M131.187 142.929L128.359 140.1L128.369 140.09C127.145 141.295 125.235 141.398 123.906 140.345L123.904 140.344L115.273 133.514L113.169 131.85L110.831 133.164C106.215 135.759 101.303 137.751 96.1754 139.087L93.5249 139.778L93.2106 142.499L91.9327 153.565L95.9055 154.031M131.187 142.929C128.542 145.544 124.358 145.806 121.422 143.481L112.791 136.651C107.879 139.412 102.648 141.534 97.1842 142.958L95.9055 154.031M95.9055 154.031L91.9319 153.572L91.9322 153.569C91.7296 155.278 90.2934 156.54 88.6108 156.54H71.2606C69.577 156.54 68.1403 155.277 67.939 153.567L67.9391 153.568L63.966 154.031M95.9055 154.031C95.4695 157.75 92.3308 160.54 88.6108 160.54H71.2606C67.5406 160.54 64.4019 157.75 63.966 154.031M92.6304 6.97553C92.4299 5.26403 90.9928 4 89.3086 4H71.9584C70.2742 4 68.8371 5.26403 68.6366 6.97553M92.6304 6.97553H68.6366M113.332 79.6311C113.332 61.6121 98.6668 46.9466 80.6477 46.9466C62.6287 46.9466 47.9632 61.6121 47.9632 79.6311C47.9632 97.6502 62.629 112.316 80.6477 112.316C98.6668 112.316 113.332 97.6502 113.332 79.6311Z" fill="#FECB91" stroke="#FF986D" stroke-width="8"/>
<path d="M256.8 56.8928L256.798 56.8917C255.144 55.4933 252.71 55.565 251.148 57.0419L251.143 57.0468L251.138 57.0517L246.081 61.7888L244.579 63.1961L242.725 62.3008C238.706 60.3593 234.433 58.9886 230.013 58.1926L228.012 57.8321L227.606 55.84L226.182 48.865L226.181 48.858C225.757 46.7577 223.794 45.2751 221.635 45.4427C221.633 45.4428 221.63 45.443 221.628 45.4432L209.707 46.4585C209.706 46.4585 209.705 46.4586 209.704 46.4587C207.536 46.6493 205.857 48.4184 205.789 50.5683L205.789 50.572L205.557 57.6632L205.49 59.6967L203.576 60.3871C199.24 61.9513 195.159 64.0891 191.437 66.7705L189.754 67.9836L188.025 66.8364L181.986 62.8295C181.985 62.829 181.984 62.8285 181.984 62.8281C180.167 61.6304 177.769 61.9753 176.372 63.6249C176.371 63.6261 176.369 63.6273 176.368 63.6285L168.645 72.8331L168.638 72.8416L168.638 72.8416C167.239 74.4959 167.311 76.9303 168.788 78.4922L168.795 78.5007L174.085 84.1385L175.446 85.5894L174.639 87.408C172.909 91.3074 171.674 95.398 170.961 99.5973L170.616 101.624L168.602 102.034L161.046 103.575L161.04 103.576C158.939 103.999 157.457 105.963 157.624 108.121C157.624 108.124 157.625 108.126 157.625 108.129L158.64 120.05C158.64 120.051 158.64 120.052 158.64 120.053C158.831 122.221 160.6 123.9 162.75 123.967L162.751 123.968L170.918 124.229L172.915 124.293L173.626 126.16C175.022 129.826 176.858 133.31 179.085 136.583L180.219 138.248L179.106 139.928L174.546 146.812C174.546 146.812 174.546 146.813 174.546 146.813C173.347 148.629 173.692 151.03 175.344 152.428L256.8 56.8928ZM256.8 56.8928L265.953 64.6224L256.8 56.8928ZM184.499 160.159L175.345 152.429L280.201 113.504L280.194 113.506L272.929 114.988L270.94 115.394L270.577 117.391C269.812 121.598 268.471 125.708 266.63 129.609L265.757 131.46L267.161 132.948L272.48 138.586L272.482 138.588C273.959 140.15 274.031 142.585 272.632 144.239L272.632 144.24L264.902 153.394C263.504 155.047 261.102 155.393 259.285 154.194C259.285 154.193 259.285 154.193 259.285 154.193L252.688 149.834L251.011 148.726L249.348 149.856C245.753 152.298 241.857 154.274 237.742 155.728L235.809 156.41L235.743 158.458L235.481 166.48L235.481 166.483C235.413 168.633 233.734 170.402 231.567 170.593C231.565 170.593 231.564 170.593 231.563 170.593L219.642 171.608C219.639 171.609 219.636 171.609 219.633 171.609C217.476 171.776 215.513 170.293 215.09 168.194L215.089 168.192L213.433 159.996L213.034 158.024L211.057 157.645C207.07 156.88 203.179 155.594 199.468 153.862L197.629 153.004L196.148 154.391L190.161 160L190.151 160.009C188.589 161.487 186.155 161.558 184.5 160.16L184.499 160.159ZM282.601 97.0305L283.616 108.952L265.954 64.6234C267.603 66.0181 267.944 68.4287 266.716 70.2353L266.708 70.2476L266.7 70.2601L262.718 76.2469L261.602 77.9263L262.735 79.5943C265.12 83.1034 267.038 86.8853 268.465 90.8885L269.151 92.8151L271.195 92.8803L278.49 93.1128L278.491 93.1128C280.641 93.1805 282.41 94.8596 282.6 97.0274C282.6 97.0284 282.601 97.0295 282.601 97.0305ZM218.667 81.6034C204.114 82.8181 193.268 95.662 194.512 110.217C195.726 124.771 208.571 135.617 223.125 134.373C237.679 133.158 248.525 120.314 247.281 105.759C246.067 91.2049 233.222 80.3596 218.667 81.6034Z" fill="#FF664A" stroke="#E55C42" stroke-width="6"/>
<path d="M76.5959 215.179L76.5986 215.186L79.0553 222.117L79.0579 222.124C79.9395 224.643 82.5783 226.095 85.1864 225.495L85.1901 225.494L90.504 224.282L91.8023 223.986L92.5762 225.07C94.4634 227.712 96.6382 230.096 99.0918 232.199L100.12 233.081L99.6829 234.364L97.8959 239.601C97.0297 242.154 98.1867 244.909 100.601 246.057L100.602 246.058L107.245 249.218C109.67 250.372 112.546 249.539 113.979 247.257L113.979 247.257L116.889 242.625L117.609 241.478L118.942 241.722C122.275 242.331 125.628 242.542 128.958 242.317L130.297 242.227L130.888 243.431L133.36 248.468L133.361 248.469C134.534 250.865 137.336 252.009 139.846 251.108L139.854 251.105L146.785 248.648L146.792 248.646C149.31 247.764 150.762 245.126 150.163 242.519L76.5959 215.179ZM76.5959 215.179C75.6949 212.668 76.8387 209.866 79.2344 208.693L83.8261 206.447L85.0735 205.836L84.9376 204.454C84.5947 200.966 84.7475 197.458 85.31 193.989L85.5226 192.678L84.3961 191.973L80.096 189.284C80.0955 189.284 80.0949 189.284 80.0944 189.283C77.8143 187.851 76.9817 184.975 78.1348 182.552L78.1349 182.551L81.3128 175.87C81.3128 175.87 81.3129 175.87 81.3129 175.87C82.4611 173.457 85.2137 172.3 87.7651 173.163C87.7665 173.164 87.7679 173.164 87.7693 173.164L92.1931 174.689L93.4966 175.139L94.3802 174.08C96.8018 171.179 99.6101 168.609 102.719 166.461L103.834 165.691L103.532 164.369L102.512 159.914L102.511 159.911C101.912 157.303 103.364 154.664 105.882 153.783L105.89 153.78L112.82 151.324L112.828 151.321C115.338 150.42 118.14 151.563 119.313 153.958C119.313 153.959 119.313 153.959 119.313 153.959L121.324 158.079L121.921 159.302L123.278 159.195C126.949 158.907 130.628 159.118 134.253 159.822L135.596 160.083L136.326 158.926L138.694 155.175L138.696 155.171C140.128 152.89 143.005 152.056 145.429 153.21L152.073 156.371L152.073 156.371C154.487 157.519 155.644 160.272 154.78 162.824C154.779 162.825 154.779 162.826 154.779 162.827L153.271 167.215L152.834 168.486L153.845 169.37C156.456 171.656 158.784 174.287 160.761 177.169L161.529 178.289L162.854 177.987L167.483 176.935L167.488 176.934C170.096 176.333 172.735 177.786 173.616 180.304L173.619 180.312L176.076 187.243L176.079 187.25M76.5959 215.179L176.079 187.25M176.079 187.25C176.979 189.76 175.836 192.561 173.442 193.735L176.079 187.25ZM77.1707 222.785L77.1702 222.785L77.1707 222.785ZM148.964 237.324L150.163 242.517L173.44 193.735L169.084 195.864L167.866 196.459L167.968 197.811C168.234 201.339 168.028 204.866 167.363 208.359L167.109 209.698L168.262 210.425L172.576 213.142L172.578 213.144C174.86 214.577 175.693 217.453 174.54 219.877L171.379 226.521L171.379 226.521C170.23 228.936 167.475 230.093 164.922 229.227L164.921 229.226L159.969 227.549L158.704 227.121L157.824 228.124C155.447 230.834 152.774 233.205 149.794 235.216L148.655 235.985L148.964 237.324ZM106.498 207.792L106.498 207.792C110.399 218.769 122.476 224.556 133.463 220.651C144.439 216.749 150.227 204.672 146.322 193.685C142.421 182.709 130.344 176.921 119.356 180.826C108.38 184.728 102.593 196.805 106.498 207.792Z" fill="#FF664A" stroke="#E55C42" stroke-width="4"/>
<path d="M212.324 137.815C211.357 137.815 210.521 137.564 209.839 137.069C209.17 136.592 208.688 135.953 208.421 135.18L207.032 131.071H198.028L196.641 135.168C196.386 135.883 195.931 136.488 195.277 136.997C194.58 137.539 193.739 137.815 192.778 137.815H187.334C186.778 137.815 186.259 137.541 185.944 137.083C185.629 136.624 185.562 136.039 185.762 135.52L197.391 105.479C197.642 104.83 198.267 104.402 198.963 104.402H206.097C206.793 104.402 207.417 104.83 207.67 105.479L219.298 135.52C219.499 136.039 219.431 136.622 219.116 137.083C218.801 137.539 218.282 137.815 217.726 137.815H212.324V137.815ZM204.291 122.959L202.538 117.737L200.777 122.959H204.291Z" fill="white"/>
<path d="M206.098 106.089L217.727 136.13H212.324C211.719 136.13 211.221 135.99 210.829 135.705C210.438 135.426 210.165 135.065 210.013 134.627L208.24 129.386H196.819L195.044 134.627C194.908 135.01 194.64 135.357 194.242 135.665C193.842 135.977 193.354 136.128 192.777 136.128H187.334L198.962 106.088H206.098V106.089ZM198.428 124.645H206.632L203.87 116.419C203.69 115.898 203.481 115.283 203.241 114.573C203 113.867 202.763 113.097 202.53 112.274C202.309 113.112 202.084 113.889 201.849 114.604C201.617 115.322 201.394 115.938 201.189 116.463L198.428 124.645ZM206.098 102.719H198.964C197.572 102.719 196.323 103.575 195.821 104.873L184.192 134.913C183.791 135.95 183.926 137.118 184.555 138.035C185.183 138.953 186.223 139.501 187.335 139.501H192.779C194.105 139.501 195.327 139.095 196.315 138.324C197.223 137.618 197.864 136.755 198.219 135.763L199.237 132.756H205.823L206.821 135.707C207.207 136.824 207.913 137.765 208.87 138.449C209.823 139.14 210.992 139.501 212.324 139.501H217.727C218.839 139.501 219.879 138.953 220.508 138.036C221.136 137.12 221.271 135.952 220.87 134.913L209.241 104.873C208.739 103.575 207.49 102.719 206.098 102.719Z" fill="#E55C42"/>
<path d="M220.158 137.814C219.228 137.814 218.473 137.06 218.473 136.128V106.088C218.473 105.156 219.228 104.402 220.158 104.402H230.755C233.047 104.402 235.063 104.686 236.74 105.242C238.474 105.815 239.937 106.627 241.088 107.659C242.263 108.712 243.144 109.974 243.709 111.411C244.251 112.805 244.526 114.315 244.526 115.901C244.526 117.6 244.245 119.191 243.692 120.632C243.117 122.129 242.226 123.428 241.042 124.497C239.885 125.54 238.417 126.361 236.681 126.937C234.992 127.493 233 127.774 230.757 127.774H228.814V136.13C228.814 137.062 228.059 137.815 227.128 137.815H220.158V137.814ZM230.755 119.146C231.659 119.146 232.857 119.014 233.433 118.389C233.934 117.85 234.185 117.014 234.185 115.9C234.185 115.416 234.114 114.981 233.976 114.604C233.86 114.282 233.684 114.01 233.447 113.778C233.209 113.547 232.894 113.367 232.489 113.228C232.024 113.068 231.441 112.987 230.757 112.987H228.814V119.144H230.755V119.146Z" fill="white"/>
<path d="M230.757 106.089C232.874 106.089 234.694 106.339 236.211 106.843C237.731 107.345 238.981 108.034 239.964 108.914C240.946 109.794 241.671 110.832 242.14 112.027C242.606 113.225 242.841 114.516 242.841 115.901C242.841 117.403 242.6 118.775 242.118 120.027C241.637 121.278 240.901 122.351 239.912 123.244C238.922 124.136 237.667 124.832 236.15 125.336C234.632 125.836 232.835 126.087 230.757 126.087H227.129V136.128H220.16V106.088H230.757V106.089ZM227.129 120.833H230.757C232.572 120.833 233.877 120.398 234.675 119.532C235.474 118.67 235.872 117.459 235.872 115.903C235.872 115.217 235.767 114.593 235.562 114.029C235.356 113.466 235.043 112.984 234.625 112.576C234.203 112.17 233.676 111.857 233.036 111.637C232.397 111.418 231.638 111.307 230.757 111.307H227.129V120.833V120.833ZM230.757 102.719H220.16C218.299 102.719 216.789 104.229 216.789 106.089V136.13C216.789 137.991 218.299 139.501 220.16 139.501H227.129C228.989 139.501 230.499 137.991 230.499 136.13V129.46H230.757C233.179 129.46 235.348 129.15 237.203 128.538C239.17 127.886 240.839 126.949 242.168 125.749C243.552 124.5 244.593 122.981 245.264 121.237C245.893 119.601 246.211 117.807 246.211 115.901C246.211 114.105 245.898 112.389 245.281 110.805C244.617 109.113 243.587 107.635 242.212 106.405C240.889 105.22 239.226 104.29 237.267 103.642C235.422 103.031 233.231 102.719 230.757 102.719ZM230.499 114.676H230.757C231.379 114.676 231.745 114.757 231.943 114.825C232.168 114.902 232.255 114.971 232.282 114.998C232.321 115.037 232.36 115.087 232.395 115.185C232.466 115.375 232.501 115.618 232.501 115.903C232.501 116.538 232.39 117.039 232.205 117.239C232.201 117.239 231.852 117.464 230.759 117.464H230.501V114.676H230.499Z" fill="#E55C42"/>
<path d="M247.086 137.814C246.155 137.814 245.4 137.06 245.4 136.128V106.088C245.4 105.156 246.155 104.402 247.086 104.402H254.097C255.027 104.402 255.782 105.156 255.782 106.088V136.128C255.782 137.06 255.027 137.814 254.097 137.814H247.086Z" fill="white"/>
<path d="M254.096 106.089V136.13H247.085V106.089H254.096ZM254.096 102.719H247.085C245.225 102.719 243.715 104.229 243.715 106.089V136.13C243.715 137.991 245.225 139.501 247.085 139.501H254.096C255.957 139.501 257.467 137.991 257.467 136.13V106.089C257.467 104.229 255.957 102.719 254.096 102.719Z" fill="#E55C42"/>
<path d="M200.188 103.729C198.764 103.729 197.618 103.1 196.959 101.959L193.923 96.6556V102.044C193.923 102.976 193.168 103.729 192.238 103.729H187.334C186.403 103.729 185.648 102.976 185.648 102.044V80.908C185.648 79.976 186.403 79.2227 187.334 79.2227H194.21C195.882 79.2227 197.355 79.4027 198.588 79.76C199.886 80.1392 200.975 80.6869 201.831 81.3931C202.729 82.1312 203.397 83.0264 203.809 84.0511C204.199 85.0083 204.398 86.06 204.398 87.1757C204.398 88.0251 204.281 88.8423 204.05 89.6057C203.814 90.386 203.461 91.1159 202.995 91.7766C202.552 92.4119 201.999 92.9901 201.357 93.494C201.43 93.5968 201.499 93.6996 201.565 93.8091L206.064 101.166C206.381 101.686 206.395 102.337 206.098 102.869C205.8 103.4 205.237 103.731 204.627 103.731H200.188V103.729ZM194.212 89.1609C194.675 89.1609 195.064 89.1086 195.339 89.0075C195.577 88.9215 195.755 88.8186 195.878 88.6939C195.995 88.5776 196.074 88.4499 196.126 88.2948C196.202 88.069 196.239 87.8192 196.239 87.5361C196.239 86.9901 196.074 86.7728 195.912 86.633C195.786 86.5251 195.359 86.2639 194.21 86.2639H193.923V89.1609H194.212Z" fill="white"/>
<path d="M194.212 80.9058C195.74 80.9058 197.043 81.0659 198.122 81.3777C199.2 81.6929 200.08 82.1291 200.761 82.6903C201.443 83.2515 201.939 83.9141 202.247 84.6792C202.557 85.441 202.712 86.2719 202.712 87.1718C202.712 87.8578 202.62 88.5084 202.436 89.1168C202.254 89.7252 201.979 90.288 201.617 90.8054C201.255 91.3245 200.81 91.7846 200.282 92.1908C199.755 92.5969 199.148 92.9306 198.462 93.1918C198.791 93.357 199.097 93.5606 199.384 93.8016C199.669 94.0443 199.918 94.3395 200.13 94.685L204.627 102.038H200.188C199.365 102.038 198.776 101.73 198.418 101.111L194.908 94.9747C194.753 94.7033 194.571 94.5096 194.363 94.3933C194.156 94.277 193.863 94.218 193.485 94.218H192.238V102.036H187.334V80.9009H194.212V80.9058ZM192.238 90.8441H194.21C194.877 90.8441 195.445 90.7596 195.914 90.5894C196.382 90.4208 196.768 90.185 197.068 89.885C197.368 89.585 197.586 89.236 197.722 88.8349C197.857 88.4338 197.924 88.0007 197.924 87.5356C197.924 86.6086 197.621 85.886 197.018 85.3602C196.413 84.8378 195.477 84.578 194.21 84.578H192.238V90.8441V90.8441ZM194.212 77.5352H187.335C185.475 77.5352 183.965 79.0452 183.965 80.9058V102.041C183.965 103.902 185.475 105.412 187.335 105.412H192.24C193.829 105.412 195.162 104.312 195.518 102.83C196.487 104.477 198.184 105.412 200.188 105.412H204.627C205.847 105.412 206.971 104.753 207.568 103.691C208.164 102.626 208.139 101.325 207.502 100.285L203.528 93.7884C203.838 93.4564 204.123 93.1074 204.379 92.7417C204.942 91.9361 205.377 91.0445 205.663 90.094C205.941 89.1704 206.083 88.1897 206.083 87.1768C206.083 85.8437 205.842 84.5798 205.37 83.4153C204.853 82.1344 204.022 81.0138 202.901 80.0936C201.87 79.2425 200.579 78.5869 199.064 78.147C197.673 77.7391 196.042 77.5352 194.212 77.5352Z" fill="#E55C42"/>
<path d="M206.629 103.729C205.698 103.729 204.943 102.976 204.943 102.044V80.908C204.943 79.976 205.698 79.2227 206.629 79.2227H220.236C221.168 79.2227 221.921 79.976 221.921 80.908V84.6814C221.921 85.6134 221.168 86.3667 220.236 86.3667H213.247V87.929H218.207C219.137 87.929 219.892 88.6824 219.892 89.6144V93.2409C219.892 94.1729 219.137 94.9262 218.207 94.9262H213.247V96.5881H220.236C221.168 96.5881 221.921 97.3414 221.921 98.2734V102.042C221.921 102.974 221.168 103.727 220.236 103.727H206.629V103.729Z" fill="white"/>
<path d="M220.236 80.9058V84.6792H211.561V89.6122H218.207V93.2387H211.561V98.2712H220.236V102.04H206.628V80.9041H220.236V80.9058ZM220.236 77.5352H206.628C204.768 77.5352 203.258 79.0452 203.258 80.9058V102.041C203.258 103.902 204.768 105.412 206.628 105.412H220.236C222.096 105.412 223.606 103.902 223.606 102.041V98.2729C223.606 96.7005 222.531 95.3809 221.077 95.0068C221.394 94.4927 221.577 93.8876 221.577 93.2387V89.6122C221.577 89.0004 221.414 88.4256 221.127 87.9301C222.556 87.5408 223.606 86.2314 223.606 84.6792V80.9058C223.606 79.0435 222.096 77.5352 220.236 77.5352Z" fill="#E55C42"/>
<path d="M228.737 103.962C227.96 103.962 227.17 103.88 226.393 103.724C225.636 103.574 224.88 103.355 224.148 103.077C223.412 102.79 222.721 102.453 222.08 102.067C221.411 101.664 220.81 101.197 220.292 100.683C219.733 100.126 219.637 99.2561 220.058 98.5888L221.509 96.2965C221.755 95.8921 222.123 95.5465 222.579 95.2971C223.021 95.0544 223.503 94.9317 224.007 94.9317C224.615 94.9317 225.21 95.1103 225.776 95.4625C226.064 95.6412 226.388 95.8401 226.749 96.0558C227.039 96.2294 227.382 96.391 227.768 96.5376C228.056 96.6455 228.432 96.7031 228.881 96.7031C229.354 96.7031 229.728 96.622 229.905 96.4805C229.934 96.4585 230.01 96.3136 230.01 95.9361C229.91 95.7153 229.74 95.5991 229.513 95.493C229.16 95.3278 228.741 95.1776 228.269 95.0461C227.692 94.8894 227.094 94.7125 226.479 94.5153C225.81 94.2996 225.149 94.0351 224.522 93.7233C223.798 93.3711 223.135 92.8923 222.562 92.3058C221.967 91.6974 221.487 90.9458 221.137 90.0745C220.781 89.1847 220.609 88.1649 220.609 86.9549C220.609 85.9386 220.815 84.9378 221.221 83.9772C221.629 83.0132 222.234 82.1435 223.014 81.3969C223.793 80.6588 224.741 80.067 225.84 79.6339C226.934 79.2058 228.181 78.9883 229.546 78.9883C230.284 78.9883 231.014 79.0457 231.712 79.1603C232.42 79.2782 233.107 79.4569 233.756 79.6878C234.405 79.922 235.015 80.2052 235.576 80.5271C236.161 80.8625 236.695 81.2535 237.162 81.6866C237.725 82.2074 237.865 83.0417 237.503 83.7175L236.284 85.9962C235.971 86.5051 235.671 86.8389 235.335 87.0832C234.879 87.4136 234.324 87.5836 233.724 87.5836C233.222 87.5836 232.71 87.4455 232.206 87.1725L231.336 86.7006C231.088 86.5658 230.802 86.4476 230.482 86.3381C230.247 86.2606 229.949 86.22 229.604 86.22C228.867 86.22 228.667 86.3885 228.658 86.3953C228.614 86.4324 228.56 86.4795 228.56 86.7121C228.614 86.7239 228.81 86.8522 229.061 86.9684C229.41 87.1319 229.829 87.2854 230.34 87.4371C230.933 87.6157 231.533 87.8143 232.148 88.03C232.801 88.2592 233.448 88.5326 234.071 88.8393C234.803 89.2034 235.46 89.6717 236.023 90.2329C236.608 90.8093 237.088 91.5205 237.445 92.3396C237.808 93.1806 237.991 94.1648 237.991 95.2704C237.991 96.4551 237.781 97.5858 237.365 98.6324C236.938 99.7009 236.315 100.643 235.507 101.438C234.703 102.229 233.711 102.856 232.556 103.302C231.429 103.742 230.143 103.962 228.737 103.962Z" fill="white"/>
<path d="M229.549 80.6753C230.197 80.6753 230.828 80.724 231.441 80.8251C232.056 80.9279 232.639 81.078 233.19 81.2769C233.742 81.4757 234.256 81.7135 234.736 81.9899C235.215 82.2646 235.643 82.5763 236.018 82.9252L234.8 85.2038C234.655 85.4364 234.503 85.608 234.343 85.7259C234.183 85.8405 233.978 85.9012 233.726 85.9012C233.502 85.9012 233.265 85.8304 233.008 85.6922C232.751 85.5506 232.461 85.3922 232.137 85.2186C231.814 85.0433 231.443 84.8886 231.028 84.7471C230.612 84.6089 230.138 84.5381 229.606 84.5381C228.687 84.5381 228.003 84.735 227.553 85.1277C227.103 85.5187 226.879 86.0464 226.879 86.7155C226.879 87.1385 227.015 87.494 227.285 87.7737C227.556 88.0535 227.912 88.2944 228.352 88.5C228.792 88.7039 229.296 88.886 229.862 89.0562C230.427 89.2281 231.005 89.4168 231.594 89.6241C232.186 89.8313 232.762 90.0759 233.327 90.3556C233.893 90.6371 234.397 90.9942 234.837 91.4324C235.279 91.8672 235.632 92.395 235.904 93.0186C236.173 93.6438 236.31 94.3935 236.31 95.2766C236.31 96.2524 236.14 97.1658 235.801 98.0169C235.462 98.8663 234.972 99.6096 234.328 100.243C233.686 100.875 232.892 101.372 231.948 101.738C231.005 102.102 229.934 102.281 228.734 102.281C228.077 102.281 227.406 102.215 226.726 102.077C226.043 101.942 225.384 101.752 224.745 101.507C224.107 101.26 223.507 100.966 222.945 100.629C222.386 100.292 221.897 99.9115 221.481 99.4969L222.932 97.2047C223.038 97.0294 223.188 96.8895 223.382 96.785C223.574 96.6788 223.783 96.6233 224.005 96.6233C224.295 96.6233 224.589 96.7161 224.884 96.8998C225.178 97.0835 225.512 97.2855 225.885 97.5079C226.257 97.7304 226.685 97.9344 227.169 98.1181C227.653 98.3001 228.222 98.393 228.881 98.393C229.769 98.393 230.462 98.1973 230.954 97.8046C231.448 97.4136 231.694 96.7918 231.694 95.9407C231.694 95.4469 231.557 95.0494 231.288 94.736C231.016 94.4259 230.661 94.1729 230.221 93.969C229.779 93.7651 229.281 93.5846 228.719 93.4296C228.158 93.2762 227.583 93.1061 226.994 92.9157C226.402 92.7269 225.827 92.4943 225.268 92.2179C224.707 91.9448 224.206 91.5824 223.766 91.1324C223.325 90.6808 222.969 90.1212 222.699 89.4488C222.43 88.7746 222.293 87.9475 222.293 86.9599C222.293 86.1661 222.453 85.3922 222.772 84.6389C223.09 83.8855 223.559 83.2118 224.177 82.6219C224.798 82.0321 225.556 81.5617 226.456 81.2077C227.358 80.8521 228.387 80.6753 229.549 80.6753ZM229.549 77.3047C227.971 77.3047 226.518 77.5607 225.229 78.0646C223.925 78.5787 222.79 79.2881 221.858 80.1729C220.903 81.0864 220.168 82.143 219.669 83.3193C219.174 84.4889 218.924 85.7125 218.924 86.9545C218.924 88.3837 219.135 89.6055 219.571 90.6959C220.008 91.7812 220.608 92.715 221.356 93.4819C221.477 93.6049 221.602 93.7265 221.729 93.8411C221.043 94.2219 220.461 94.778 220.053 95.4437L218.634 97.6869C217.79 99.02 217.984 100.759 219.101 101.875C219.715 102.485 220.422 103.034 221.208 103.508C221.932 103.944 222.711 104.324 223.523 104.641C224.364 104.961 225.214 105.207 226.072 105.377C226.945 105.552 227.845 105.645 228.736 105.645C230.351 105.645 231.839 105.387 233.162 104.876C234.537 104.342 235.723 103.59 236.691 102.642C237.667 101.681 238.418 100.543 238.932 99.2591C239.428 98.0103 239.681 96.6689 239.681 95.27C239.681 93.9336 239.451 92.7234 238.998 91.6752C238.551 90.6488 237.948 89.7589 237.203 89.0258C236.966 88.7882 236.714 88.5658 236.448 88.3568C236.918 87.986 237.321 87.5293 237.66 86.9866C237.699 86.9243 237.737 86.8586 237.773 86.7928L238.991 84.5142C239.714 83.1609 239.435 81.4926 238.309 80.4511C237.749 79.932 237.112 79.4685 236.414 79.0674C235.776 78.6983 235.073 78.3729 234.336 78.1083C233.583 77.8386 232.798 77.6366 231.996 77.5034C231.198 77.3703 230.379 77.3047 229.549 77.3047Z" fill="#E55C42"/>
<path d="M243.244 103.729C242.314 103.729 241.559 102.976 241.559 102.044V86.4811H237.297C236.366 86.4811 235.611 85.7278 235.611 84.7958V80.908C235.611 79.976 236.366 79.2227 237.297 79.2227H254.096C255.028 79.2227 255.781 79.976 255.781 80.908V84.7958C255.781 85.7278 255.028 86.4811 254.096 86.4811H249.834V102.044C249.834 102.976 249.079 103.729 248.148 103.729H243.244Z" fill="white"/>
<path d="M254.094 80.9058V84.7936H248.146V102.041H243.244V84.7936H237.296V80.9058H254.094ZM254.094 77.5352H237.294C235.434 77.5352 233.924 79.0452 233.924 80.9058V84.7936C233.924 86.6542 235.434 88.1643 237.294 88.1643H239.871V102.041C239.871 103.902 241.381 105.412 243.242 105.412H248.145C250.005 105.412 251.515 103.902 251.515 102.041V88.1643H254.092C255.953 88.1643 257.463 86.6542 257.463 84.7936V80.9058C257.464 79.0435 255.956 77.5352 254.094 77.5352Z" fill="#E55C42"/>
<path d="M103.724 213.906C102.955 213.906 102.163 213.825 101.37 213.667C100.589 213.513 99.8199 213.291 99.0864 213.007C98.3538 212.723 97.6526 212.382 97.004 211.991C96.3305 211.585 95.7319 211.122 95.2238 210.614C94.8034 210.194 94.7304 209.538 95.0492 209.036L96.5698 206.634C96.7916 206.272 97.1103 205.972 97.5075 205.756C97.8928 205.544 98.3187 205.434 98.7677 205.434C99.3128 205.434 99.8486 205.597 100.361 205.916C100.663 206.105 101.005 206.313 101.387 206.539C101.709 206.732 102.095 206.916 102.539 207.087C102.894 207.221 103.348 207.29 103.877 207.29C104.502 207.29 104.981 207.172 105.264 206.948C105.457 206.795 105.557 206.471 105.557 205.99C105.557 205.692 105.474 205.596 105.446 205.565C105.282 205.379 105.046 205.212 104.75 205.076C104.35 204.891 103.887 204.725 103.376 204.586C102.768 204.418 102.148 204.232 101.512 204.028C100.843 203.815 100.175 203.547 99.5307 203.231C98.8138 202.877 98.1681 202.408 97.6101 201.837C97.0336 201.246 96.5671 200.514 96.2225 199.66C95.8788 198.81 95.7033 197.773 95.7033 196.578C95.7033 195.578 95.9065 194.592 96.3065 193.649C96.7065 192.703 97.3015 191.848 98.0757 191.111C98.8407 190.381 99.783 189.793 100.876 189.366C101.96 188.939 103.206 188.723 104.577 188.723C105.322 188.723 106.06 188.782 106.769 188.899C107.497 189.021 108.187 189.198 108.825 189.427C109.478 189.664 110.09 189.947 110.648 190.266C111.232 190.604 111.76 190.989 112.22 191.412C112.647 191.804 112.755 192.436 112.481 192.947L111.203 195.336C110.927 195.786 110.655 196.091 110.354 196.311C109.955 196.596 109.489 196.736 108.958 196.736C108.503 196.736 108.042 196.608 107.589 196.356L106.689 195.868C106.412 195.722 106.084 195.582 105.724 195.462C105.419 195.36 105.054 195.308 104.64 195.308C103.798 195.308 103.454 195.498 103.325 195.611C103.188 195.73 103.052 195.905 103.052 196.318C103.052 196.476 103.093 196.519 103.125 196.551C103.293 196.725 103.542 196.889 103.862 197.038C104.265 197.224 104.741 197.4 105.272 197.558C105.879 197.738 106.506 197.943 107.146 198.169C107.814 198.404 108.474 198.683 109.106 198.997C109.818 199.35 110.461 199.807 111.016 200.357C111.591 200.924 112.057 201.618 112.406 202.419C112.758 203.231 112.938 204.197 112.938 205.29C112.938 206.467 112.728 207.591 112.315 208.632C111.895 209.689 111.277 210.62 110.482 211.402C109.686 212.188 108.7 212.808 107.552 213.249C106.419 213.684 105.132 213.906 103.724 213.906Z" fill="white"/>
<path d="M104.575 189.994C105.255 189.994 105.916 190.047 106.559 190.153C107.204 190.261 107.815 190.417 108.392 190.625C108.97 190.834 109.51 191.081 110.013 191.37C110.513 191.659 110.963 191.987 111.358 192.35L110.079 194.739C109.929 194.983 109.768 195.166 109.601 195.288C109.434 195.407 109.218 195.468 108.954 195.468C108.721 195.468 108.47 195.397 108.202 195.249C107.934 195.103 107.628 194.937 107.29 194.754C106.95 194.574 106.563 194.408 106.126 194.261C105.691 194.115 105.193 194.04 104.636 194.04C103.672 194.04 102.956 194.247 102.485 194.657C102.012 195.067 101.777 195.623 101.777 196.321C101.777 196.767 101.92 197.138 102.203 197.433C102.487 197.726 102.859 197.979 103.32 198.193C103.781 198.404 104.308 198.6 104.901 198.779C105.493 198.953 106.098 199.152 106.718 199.371C107.338 199.59 107.943 199.845 108.536 200.138C109.13 200.432 109.656 200.807 110.117 201.264C110.578 201.72 110.951 202.276 111.234 202.929C111.519 203.584 111.661 204.373 111.661 205.295C111.661 206.318 111.483 207.277 111.128 208.168C110.772 209.061 110.26 209.839 109.585 210.501C108.911 211.166 108.078 211.689 107.091 212.067C106.101 212.448 104.979 212.638 103.721 212.638C103.031 212.638 102.33 212.567 101.616 212.425C100.902 212.284 100.209 212.084 99.542 211.826C98.8722 211.567 98.244 211.261 97.6564 210.907C97.067 210.551 96.556 210.156 96.1191 209.72L97.6397 207.318C97.7515 207.136 97.9076 206.987 98.1118 206.875C98.3132 206.764 98.5322 206.708 98.765 206.708C99.0708 206.708 99.3757 206.804 99.6861 206.997C99.9947 207.19 100.345 207.402 100.735 207.634C101.125 207.868 101.573 208.08 102.08 208.275C102.588 208.465 103.187 208.563 103.875 208.563C104.807 208.563 105.532 208.356 106.05 207.948C106.566 207.537 106.826 206.886 106.826 205.993C106.826 205.475 106.683 205.053 106.401 204.731C106.114 204.407 105.743 204.138 105.283 203.925C104.82 203.712 104.297 203.523 103.709 203.364C103.121 203.201 102.518 203.02 101.899 202.821C101.282 202.626 100.676 202.382 100.09 202.093C99.5031 201.804 98.9785 201.424 98.5165 200.952C98.0546 200.479 97.6831 199.893 97.3986 199.188C97.114 198.485 96.9717 197.614 96.9717 196.582C96.9717 195.749 97.139 194.939 97.4744 194.148C97.8088 193.358 98.3003 192.653 98.9498 192.034C99.5983 191.415 100.394 190.921 101.336 190.553C102.279 190.178 103.359 189.994 104.575 189.994ZM104.575 187.453C103.044 187.453 101.642 187.7 100.407 188.185C99.1631 188.672 98.0813 189.349 97.1954 190.194C96.2974 191.05 95.6027 192.047 95.1343 193.157C94.6687 194.255 94.4312 195.406 94.4312 196.579C94.4312 197.938 94.6373 199.136 95.0437 200.139C95.4493 201.145 96.0064 202.016 96.6984 202.725C97.2582 203.298 97.8911 203.783 98.5849 204.17C97.9862 204.196 97.4152 204.357 96.8877 204.648C96.3029 204.967 95.8253 205.418 95.4761 205.986L93.9739 208.358C93.3382 209.362 93.4842 210.673 94.324 211.513C94.9051 212.094 95.5852 212.621 96.3464 213.08C97.0587 213.508 97.8264 213.882 98.6274 214.193C99.4293 214.503 100.271 214.746 101.126 214.914C101.995 215.088 102.871 215.176 103.723 215.176C105.287 215.176 106.728 214.927 108.005 214.435C109.314 213.933 110.447 213.217 111.37 212.307C112.29 211.403 113.005 210.324 113.49 209.102C113.963 207.912 114.202 206.629 114.202 205.291C114.202 204.022 113.988 202.885 113.565 201.913C113.153 200.963 112.594 200.136 111.905 199.454C111.285 198.84 110.572 198.324 109.785 197.919C110.257 197.818 110.695 197.628 111.076 197.354C111.533 197.021 111.917 196.597 112.239 196.074C112.267 196.028 112.294 195.982 112.319 195.936L113.597 193.547C114.144 192.525 113.929 191.261 113.075 190.478C112.548 189.993 111.946 189.553 111.287 189.171C110.655 188.808 109.976 188.496 109.258 188.235C108.543 187.979 107.779 187.782 106.98 187.647C106.196 187.518 105.389 187.453 104.575 187.453ZM103.695 206.018C103.333 206.003 103.104 205.945 102.972 205.895C102.737 205.804 102.517 205.707 102.321 205.607C102.562 205.678 102.799 205.745 103.031 205.81C103.268 205.875 103.49 205.943 103.695 206.018Z" fill="#E55C42"/>
<path d="M114.218 213.663C113.516 213.663 112.947 213.095 112.947 212.393V190.239C112.947 189.537 113.516 188.969 114.218 188.969H122.824C124.701 188.969 126.443 189.28 127.998 189.893C129.563 190.511 130.925 191.38 132.046 192.479C133.169 193.578 134.051 194.901 134.668 196.411C135.28 197.916 135.591 199.563 135.591 201.309C135.591 203.066 135.28 204.719 134.668 206.22C134.051 207.729 133.169 209.054 132.048 210.159C130.922 211.267 129.558 212.139 127.993 212.75C126.443 213.356 124.703 213.664 122.824 213.664H114.218V213.663ZM122.824 207.17C123.629 207.17 124.348 207.037 124.96 206.778C125.553 206.523 126.042 206.169 126.45 205.699C126.867 205.218 127.195 204.613 127.425 203.9C127.667 203.146 127.79 202.273 127.79 201.308C127.79 200.353 127.667 199.486 127.425 198.733C127.196 198.021 126.868 197.415 126.45 196.935C126.043 196.464 125.553 196.11 124.954 195.851C124.351 195.594 123.634 195.463 122.824 195.463H120.659V207.17H122.824V207.17Z" fill="white"/>
<path d="M122.823 190.236C124.546 190.236 126.116 190.514 127.53 191.071C128.943 191.629 130.151 192.4 131.155 193.383C132.159 194.366 132.937 195.535 133.49 196.888C134.041 198.242 134.318 199.714 134.318 201.304C134.318 202.906 134.041 204.385 133.49 205.737C132.936 207.091 132.159 208.261 131.155 209.251C130.151 210.238 128.942 211.01 127.53 211.562C126.116 212.116 124.546 212.39 122.823 212.39H114.216V190.236H122.823ZM119.388 208.438H122.824C123.806 208.438 124.685 208.272 125.456 207.945C126.225 207.614 126.877 207.143 127.409 206.53C127.941 205.917 128.35 205.168 128.634 204.287C128.917 203.405 129.06 202.411 129.06 201.305C129.06 200.21 128.917 199.222 128.634 198.342C128.35 197.458 127.941 196.711 127.409 196.099C126.876 195.483 126.225 195.013 125.456 194.682C124.685 194.353 123.807 194.19 122.824 194.19H119.388V208.438ZM122.823 187.695H114.216C112.813 187.695 111.676 188.833 111.676 190.236V212.39C111.676 213.793 112.813 214.93 114.216 214.93H122.823C124.862 214.93 126.758 214.593 128.457 213.927C130.18 213.254 131.688 212.29 132.937 211.06C134.184 209.834 135.16 208.366 135.843 206.697C136.517 205.04 136.86 203.226 136.86 201.304C136.86 199.393 136.518 197.585 135.844 195.93C135.159 194.255 134.181 192.788 132.934 191.566C131.691 190.349 130.187 189.388 128.464 188.707C126.759 188.037 124.862 187.695 122.823 187.695ZM121.929 196.731H122.824C123.46 196.731 124.01 196.827 124.456 197.019C124.871 197.197 125.21 197.442 125.488 197.762C125.796 198.116 126.039 198.572 126.215 199.12C126.417 199.749 126.519 200.484 126.519 201.307C126.519 202.14 126.417 202.882 126.214 203.511C126.039 204.06 125.795 204.515 125.491 204.864C125.211 205.187 124.87 205.431 124.451 205.613C124.008 205.801 123.458 205.899 122.824 205.899H121.929V196.731V196.731Z" fill="#E55C42"/>
<path d="M152.02 213.663C151.64 213.663 151.316 213.637 151.028 213.58C150.701 213.518 150.395 213.412 150.125 213.267C149.87 213.133 149.626 212.951 149.417 212.734C149.265 212.579 149.111 212.387 148.956 212.157L143.93 204.434C143.886 204.366 143.848 204.327 143.813 204.312C143.775 204.296 143.602 204.238 143.193 204.236V212.393C143.193 213.095 142.623 213.663 141.922 213.663H136.782C136.081 213.663 135.512 213.095 135.512 212.393V190.239C135.512 189.537 136.081 188.969 136.782 188.969H141.922C142.623 188.969 143.193 189.537 143.193 190.239V197.877C143.263 197.85 143.314 197.814 143.346 197.768L148.329 190.537C148.746 189.936 149.249 189.513 149.829 189.276C150.341 189.069 150.918 188.97 151.595 188.97H156.066C156.544 188.97 156.982 189.239 157.199 189.666C157.415 190.093 157.373 190.606 157.09 190.992L150.522 199.948C150.407 200.109 150.286 200.261 150.16 200.404C150.466 200.695 150.746 201.042 150.997 201.439L157.678 211.701C157.932 212.092 157.952 212.59 157.729 212.999C157.508 213.408 157.079 213.664 156.613 213.664H152.02V213.663Z" fill="white"/>
<path d="M156.673 190.283H156.677H156.673ZM156.673 190.283L150.105 199.239C149.872 199.562 149.627 199.832 149.374 200.043C149.12 200.256 148.862 200.434 148.599 200.575C148.984 200.718 149.336 200.915 149.655 201.163C149.974 201.412 150.267 201.742 150.529 202.159L157.22 212.437H152.628C152.334 212.437 152.082 212.417 151.877 212.378C151.668 212.338 151.488 212.275 151.336 212.193C151.183 212.113 151.053 212.014 150.941 211.898C150.828 211.783 150.723 211.648 150.621 211.494L145.602 203.785C145.42 203.501 145.189 203.301 144.91 203.184C144.631 203.069 144.254 203.011 143.778 203.011H142.53V212.438H137.389V190.284H142.53V199.255H143.353C144.113 199.255 144.66 199.017 144.993 198.541L149.982 191.302C150.256 190.906 150.568 190.638 150.916 190.496C151.267 190.355 151.695 190.285 152.202 190.285H156.673V190.283ZM156.677 187.742H156.673H152.202C151.371 187.742 150.618 187.876 149.966 188.139C149.144 188.475 148.451 189.051 147.894 189.853L145.071 193.95V190.283C145.071 188.879 143.934 187.742 142.53 187.742H137.39C135.987 187.742 134.85 188.879 134.85 190.283V212.437C134.85 213.84 135.987 214.977 137.39 214.977H142.53C143.934 214.977 145.071 213.84 145.071 212.437V207.624L148.492 212.879C148.708 213.203 148.912 213.456 149.13 213.679C149.415 213.974 149.767 214.238 150.159 214.443C150.515 214.636 150.943 214.785 151.401 214.872C151.763 214.942 152.167 214.976 152.628 214.976H157.22C158.152 214.976 159.009 214.465 159.453 213.647C159.896 212.828 159.857 211.832 159.348 211.05L152.658 200.772C152.577 200.644 152.492 200.519 152.404 200.397L158.674 191.848C159.013 191.416 159.214 190.872 159.214 190.282C159.215 188.88 158.08 187.742 156.677 187.742Z" fill="#E55C42"/>
</svg>
