<svg width="287" height="270" viewBox="0 0 287 270" fill="none" xmlns="http://www.w3.org/2000/svg">
<path d="M17.7859 97.8823C19.2099 102.765 21.1862 107.473 23.6855 111.89L16.5653 120.871C14.2403 123.806 14.5018 127.991 17.1174 130.636L29.3818 142.9C32.0264 145.545 36.2114 145.777 39.1467 143.452L48.0688 136.39C52.6607 139.035 57.5432 141.098 62.6291 142.551L63.966 154.031C64.4019 157.75 67.5406 160.54 71.2606 160.54H88.6108C92.3308 160.54 95.4695 157.75 95.9055 154.031L97.1842 142.958C102.648 141.534 107.879 139.412 112.791 136.651L121.422 143.481C124.358 145.806 128.543 145.544 131.187 142.929L143.451 130.664C146.096 128.02 146.329 123.835 144.004 120.899L137.29 112.384C140.08 107.559 142.26 102.416 143.713 97.0392L154.059 95.8476C157.78 95.4117 160.569 92.273 160.569 88.553V71.2028C160.569 67.4828 157.779 64.3441 154.059 63.9081L143.858 62.7166C142.463 57.3982 140.371 52.3122 137.697 47.546L143.975 39.612C146.3 36.6767 146.038 32.4917 143.423 29.847L131.187 17.6118C128.543 14.9671 124.358 14.7346 121.423 17.0596L113.721 23.1627C108.722 20.2274 103.375 17.9896 97.7658 16.4784L96.6033 6.50997C96.1673 2.78999 93.0286 0 89.3086 0H71.9584C68.2384 0 65.0997 2.78999 64.6637 6.50997L63.5012 16.4784C57.7469 18.0187 52.2541 20.3436 47.1391 23.3952L39.147 17.0596C36.2117 14.7346 32.0267 14.9962 29.382 17.6118L17.1177 29.8761C14.4731 32.5208 14.2406 36.7058 16.5655 39.6411L23.2499 48.0982C20.5761 52.9226 18.5418 58.0666 17.2049 63.4141L6.50997 64.6347C2.78999 65.0706 0 68.2094 0 71.9293V89.2796C0 92.9995 2.78999 96.1383 6.50997 96.5742L17.7859 97.8823ZM80.6477 50.9466C96.4577 50.9466 109.332 63.8212 109.332 79.6311C109.332 95.4411 96.4577 108.316 80.6477 108.316C64.8381 108.316 51.9632 95.4411 51.9632 79.6311C51.9632 63.8212 64.8378 50.9466 80.6477 50.9466Z" fill="#FECB91"/>
<path d="M267.89 62.3328L258.736 54.6022C255.917 52.2191 251.761 52.3353 249.087 54.8637L244.03 59.6009C239.759 57.5375 235.225 56.0843 230.546 55.2415L229.122 48.2666C228.395 44.6628 225.053 42.1635 221.391 42.4541L209.446 43.4713C205.784 43.791 202.907 46.7844 202.791 50.4753L202.559 57.5665C197.967 59.2231 193.636 61.4899 189.684 64.3381L183.639 60.3275C180.558 58.2931 176.46 58.8743 174.078 61.6934L166.347 70.9061C163.964 73.7252 164.08 77.8811 166.608 80.5548L171.898 86.1927C170.066 90.3195 168.759 94.6501 168.003 99.0963L160.447 100.637C156.843 101.363 154.344 104.705 154.635 108.368L155.652 120.312C155.972 123.974 158.965 126.851 162.656 126.967L170.822 127.229C172.305 131.123 174.252 134.814 176.606 138.272L172.043 145.16C170.009 148.241 170.59 152.339 173.409 154.722L182.564 162.452C185.383 164.835 189.539 164.719 192.213 162.191L198.199 156.582C202.123 158.413 206.249 159.779 210.492 160.592L212.149 168.788C212.876 172.392 216.218 174.891 219.88 174.6L231.825 173.583C235.486 173.263 238.364 170.27 238.48 166.579L238.741 158.558C243.101 157.017 247.227 154.925 251.034 152.339L257.632 156.698C260.713 158.732 264.81 158.151 267.193 155.332L274.924 146.177C277.307 143.358 277.191 139.202 274.662 136.529L269.344 130.891C271.291 126.764 272.716 122.405 273.529 117.929L280.794 116.447C284.398 115.72 286.897 112.378 286.607 108.716L285.59 96.7711C285.27 93.1092 282.277 90.232 278.586 90.1158L271.291 89.8833C269.779 85.6402 267.745 81.6299 265.217 77.9096L269.198 71.9227C271.291 68.8427 270.71 64.7159 267.89 62.3328ZM222.873 131.385C209.97 132.489 198.577 122.869 197.502 109.966C196.397 97.0623 206.017 85.6695 218.92 84.5942C231.824 83.4899 243.217 93.1098 244.292 106.013C245.397 118.917 235.776 130.31 222.873 131.385Z" fill="#FF664A"/>
<path d="M78.3554 206.897C75.0491 208.516 73.4669 212.38 74.714 215.854L77.1707 222.785C78.3904 226.269 82.038 228.272 85.6353 227.444L90.9492 226.232C92.9287 229.003 95.2124 231.508 97.7906 233.718L96.0025 238.959C94.8137 242.461 96.4023 246.274 99.7428 247.864L106.387 251.024C109.727 252.613 113.701 251.461 115.673 248.321L118.583 243.689C122.069 244.326 125.588 244.549 129.093 244.313L131.565 249.349C133.184 252.655 137.048 254.237 140.522 252.99L147.453 250.533C150.937 249.314 152.94 245.666 152.112 242.069L150.913 236.874C154.039 234.764 156.841 232.278 159.328 229.443L164.28 231.121C167.783 232.309 171.596 230.721 173.185 227.38L176.346 220.736C177.935 217.396 176.783 213.422 173.643 211.45L169.329 208.732C170.025 205.07 170.243 201.367 169.963 197.661L174.32 195.532C177.626 193.913 179.208 190.048 177.962 186.574L175.504 179.643C174.285 176.159 170.638 174.157 167.04 174.984L162.411 176.037C160.341 173.021 157.903 170.264 155.162 167.865L156.673 163.47C157.862 159.967 156.273 156.154 152.933 154.565L146.289 151.404C142.948 149.815 138.975 150.967 137.003 154.108L134.635 157.859C130.834 157.121 126.974 156.899 123.122 157.201L121.11 153.08C119.491 149.773 115.627 148.191 112.153 149.438L105.222 151.895C101.738 153.115 99.7353 156.762 100.563 160.36L101.583 164.816C98.3237 167.067 95.3816 169.76 92.8453 172.798L88.4125 171.271C84.9095 170.082 81.0964 171.671 79.5073 175.011L76.3293 181.692C74.7401 185.033 75.8922 189.006 79.033 190.978L83.3363 193.669C82.7489 197.291 82.5862 200.974 82.9477 204.65L78.3554 206.897ZM120.026 182.711C129.967 179.178 140.904 184.414 144.438 194.355C147.971 204.296 142.735 215.233 132.794 218.766C122.853 222.299 111.916 217.064 108.383 207.122C104.85 197.181 110.085 186.244 120.026 182.711Z" fill="#FF664A"/>
<path fill-rule="evenodd" clip-rule="evenodd" d="M23.9798 90.5472L25.4659 95.6423C26.7203 99.9432 28.4582 104.08 30.6483 107.951L33.3011 112.639L23.1888 125.393L34.6242 136.829L47.3591 126.749L52.0619 129.457C56.086 131.775 60.3653 133.584 64.8269 134.859L69.9581 136.325L71.8465 152.54H88.0244L89.8655 136.598L95.1665 135.216C99.9574 133.968 104.55 132.106 108.871 129.678L113.547 127.049L125.944 136.858L137.381 125.421L127.649 113.076L130.365 108.379C132.825 104.125 134.728 99.6227 135.99 94.9519L137.406 89.7127L152.569 87.9664V71.7885L137.506 70.029L136.12 64.7467C134.906 60.117 133.077 55.6616 130.72 51.4597L128.098 46.7853L137.352 35.0898L125.945 23.6831L114.395 32.8359L109.67 30.0613C105.292 27.4905 100.607 25.5293 95.6844 24.2029L90.4478 22.7919L88.7228 8H72.5442L70.8181 22.8015L65.5698 24.2063C60.5321 25.5548 55.7221 27.5902 51.2379 30.2655L46.4962 33.0943L34.6244 23.6832L23.1885 35.119L32.8294 47.3168L30.2471 51.9762C27.9084 56.196 26.1323 60.6892 24.9661 65.3543L23.6212 70.7337L8 72.5166V88.6934L23.9798 90.5472ZM6.50997 96.5742C2.78999 96.1383 0 92.9995 0 89.2796V71.9293C0 68.2094 2.78999 65.0706 6.50997 64.6347L17.2049 63.4141C18.5418 58.0666 20.5761 52.9226 23.2499 48.0982L16.5655 39.6411C14.2406 36.7058 14.4731 32.5208 17.1177 29.8761L29.382 17.6118C32.0267 14.9962 36.2117 14.7346 39.147 17.0596L47.1391 23.3952C52.2541 20.3436 57.7469 18.0187 63.5012 16.4784L64.6637 6.50997C65.0997 2.78999 68.2384 0 71.9584 0H89.3086C93.0286 0 96.1673 2.78999 96.6033 6.50997L97.7658 16.4784C103.375 17.9896 108.722 20.2274 113.721 23.1627L121.423 17.0596C124.358 14.7346 128.543 14.9671 131.187 17.6118L143.423 29.847C146.038 32.4917 146.3 36.6767 143.975 39.612L137.697 47.546C140.371 52.3122 142.463 57.3982 143.858 62.7166L154.059 63.9081C157.779 64.3441 160.569 67.4828 160.569 71.2028V88.553C160.569 92.273 157.78 95.4117 154.059 95.8476L143.713 97.0392C142.26 102.416 140.08 107.56 137.29 112.384L144.004 120.899C146.329 123.835 146.096 128.02 143.451 130.664L131.187 142.929C128.543 145.544 124.358 145.806 121.422 143.481L112.791 136.651C107.879 139.412 102.648 141.534 97.1842 142.958L95.9055 154.031C95.4695 157.75 92.3308 160.54 88.6108 160.54H71.2606C67.5406 160.54 64.4019 157.75 63.966 154.031L62.6291 142.551C57.5432 141.098 52.6607 139.035 48.0688 136.39L39.1467 143.452C36.2114 145.777 32.0264 145.545 29.3818 142.9L17.1174 130.636C14.5018 127.991 14.2403 123.806 16.5653 120.871L23.6855 111.89C21.1862 107.473 19.2099 102.765 17.7859 97.8823L6.50997 96.5742ZM126.389 137.21L126.386 137.207ZM137.704 34.6448L137.701 34.6481ZM80.6477 42.9466C100.876 42.9466 117.332 59.4029 117.332 79.6311C117.332 99.8594 100.876 116.316 80.6477 116.316C60.4199 116.316 43.9632 99.8594 43.9632 79.6311C43.9632 59.403 60.4195 42.9466 80.6477 42.9466ZM109.332 79.6311C109.332 63.8212 96.4577 50.9466 80.6477 50.9466C64.8378 50.9466 51.9632 63.8212 51.9632 79.6311C51.9632 95.4411 64.8381 108.316 80.6477 108.316C96.4577 108.316 109.332 95.4411 109.332 79.6311Z" fill="#FF986D"/>
<path fill-rule="evenodd" clip-rule="evenodd" d="M278.586 90.1158L271.291 89.8833C269.779 85.6402 267.745 81.6299 265.217 77.9096L269.198 71.9227C271.291 68.8427 270.71 64.7159 267.89 62.3328L258.736 54.6022C255.917 52.2191 251.761 52.3353 249.087 54.8637L244.03 59.6009C239.759 57.5375 235.225 56.0843 230.546 55.2415L229.122 48.2666C228.395 44.6628 225.053 42.1635 221.391 42.4541L209.446 43.4713C205.784 43.791 202.907 46.7844 202.791 50.4753L202.559 57.5665C197.967 59.2231 193.636 61.4899 189.684 64.3381L183.639 60.3275C180.558 58.2931 176.46 58.8743 174.078 61.6934L166.347 70.9061C163.964 73.7252 164.08 77.8811 166.608 80.5548L171.898 86.1927C170.066 90.3195 168.759 94.6501 168.003 99.0963L160.447 100.637C156.843 101.363 154.344 104.705 154.635 108.368L155.652 120.312C155.972 123.974 158.965 126.851 162.656 126.967L170.822 127.229C172.305 131.123 174.252 134.814 176.606 138.272L172.043 145.16C170.009 148.241 170.59 152.339 173.409 154.722L182.564 162.452C185.383 164.835 189.539 164.719 192.213 162.191L198.199 156.582C202.123 158.413 206.249 159.779 210.492 160.592L212.149 168.788C212.876 172.392 216.218 174.891 219.88 174.6L231.825 173.583C235.486 173.263 238.364 170.27 238.48 166.579L238.741 158.558C243.101 157.017 247.227 154.925 251.034 152.339L257.632 156.698C260.713 158.732 264.81 158.151 267.193 155.332L274.924 146.177C277.307 143.358 277.191 139.202 274.662 136.529L269.344 130.891C271.291 126.764 272.716 122.405 273.529 117.929L280.794 116.447C284.398 115.72 286.897 112.378 286.607 108.716L285.59 96.7711C285.27 93.1092 282.277 90.232 278.586 90.1158ZM279.612 97.2929C279.612 97.2915 279.612 97.2901 279.612 97.2887C279.551 96.614 279.006 96.132 278.397 96.1128L278.394 96.1127L267.012 95.7499L265.639 91.8967C264.298 88.1334 262.495 84.5798 260.254 81.2819L257.987 77.9458L264.219 68.5754L264.235 68.5507C264.598 68.0177 264.498 67.3233 264.019 66.9169C264.019 66.9168 264.019 66.917 264.019 66.9169C264.019 66.9164 264.018 66.9156 264.017 66.9151L254.862 59.1841C254.373 58.7704 253.66 58.7976 253.21 59.2229L253.2 59.2328L245.128 66.7943L241.421 65.0036C237.654 63.1841 233.642 61.8958 229.482 61.1465L225.48 60.4257L223.242 49.4594L223.24 49.4524C223.12 48.8538 222.533 48.3876 221.876 48.4345C221.872 48.4348 221.869 48.435 221.866 48.4353L209.968 49.4485C209.967 49.4487 209.966 49.4488 209.964 49.4489C209.289 49.5097 208.807 50.0547 208.788 50.6642L208.788 50.6717L208.422 61.8298L204.595 63.2105C200.515 64.6824 196.681 66.6911 193.192 69.2059L189.825 71.632L180.333 65.3345C180.332 65.3338 180.331 65.3331 180.33 65.3323C179.778 64.97 179.076 65.079 178.664 65.5618C178.663 65.5634 178.661 65.565 178.66 65.5666L170.936 74.7715L170.929 74.78C170.515 75.2696 170.542 75.9825 170.968 76.4326L170.976 76.441L178.996 84.9891L177.382 88.6262C175.753 92.2981 174.59 96.1489 173.919 100.101L173.23 104.154L161.633 106.518C161.034 106.639 160.568 107.226 160.615 107.883C160.615 107.886 160.616 107.889 160.616 107.893L161.629 119.79C161.629 119.792 161.629 119.793 161.629 119.794C161.69 120.469 162.235 120.951 162.845 120.97L162.848 120.971L175.008 121.36L176.43 125.094C177.739 128.532 179.464 131.809 181.566 134.896L183.833 138.227L177.05 148.467C177.05 148.467 177.049 148.468 177.049 148.469C176.686 149.021 176.794 149.725 177.28 150.138C177.28 150.138 177.28 150.137 177.28 150.138C177.281 150.138 177.282 150.139 177.283 150.14L186.437 157.87C186.927 158.284 187.64 158.257 188.09 157.831L188.1 157.822L197.059 149.428L200.737 151.145C204.237 152.778 207.892 153.984 211.623 154.7L215.576 155.458L218.031 167.602C218.152 168.201 218.739 168.667 219.395 168.62C219.398 168.62 219.402 168.619 219.405 168.619L231.303 167.606C231.304 167.606 231.305 167.606 231.307 167.606C231.982 167.545 232.464 167 232.483 166.39L232.483 166.384L232.878 154.266L236.743 152.9C240.613 151.533 244.279 149.674 247.663 147.375L250.988 145.117L260.938 151.691M279.612 97.2929L280.626 109.19C280.626 109.194 280.626 109.197 280.626 109.201C280.673 109.858 280.207 110.444 279.609 110.565L268.351 112.861L267.625 116.856C266.91 120.795 265.652 124.655 263.918 128.33L262.171 132.031L270.303 140.651C270.728 141.101 270.756 141.814 270.342 142.304L270.34 142.306L262.612 151.458C262.198 151.947 261.493 152.056 260.94 151.692M191.523 110.47C190.14 94.2651 202.21 79.9703 218.414 78.6156C234.621 77.2316 248.918 89.3032 250.271 105.509C251.654 121.715 239.582 136.01 223.377 137.363C207.172 138.746 192.876 126.675 191.523 110.47ZM222.873 131.385C209.97 132.489 198.577 122.869 197.502 109.966C196.397 97.0623 206.017 85.6695 218.92 84.5942C231.824 83.4899 243.217 93.1098 244.292 106.013C245.397 118.917 235.776 130.31 222.873 131.385Z" fill="#E55C42"/>
<path fill-rule="evenodd" clip-rule="evenodd" d="M76.3293 181.692C74.7401 185.033 75.8922 189.006 79.033 190.978L83.3363 193.669C82.7489 197.291 82.5862 200.974 82.9477 204.65L78.3554 206.897C75.0491 208.516 73.4669 212.38 74.714 215.854L77.1707 222.785C78.3904 226.269 82.038 228.272 85.6353 227.444L90.9492 226.232C92.9287 229.003 95.2124 231.508 97.7906 233.718L96.0025 238.959C94.8137 242.461 96.4023 246.274 99.7428 247.864L106.387 251.024C109.727 252.613 113.701 251.461 115.673 248.321L118.583 243.689C122.069 244.326 125.588 244.549 129.093 244.313L131.565 249.349C133.184 252.655 137.048 254.237 140.522 252.99L147.453 250.533C150.937 249.314 152.94 245.666 152.112 242.069L150.913 236.874C154.039 234.764 156.841 232.278 159.328 229.443L164.28 231.121C167.783 232.309 171.596 230.721 173.185 227.38L176.346 220.736C177.935 217.396 176.783 213.422 173.643 211.45L169.329 208.732C170.025 205.07 170.243 201.367 169.963 197.661L174.32 195.532C177.626 193.913 179.208 190.048 177.962 186.574L175.504 179.643C174.285 176.159 170.638 174.157 167.04 174.984L162.411 176.037C160.341 173.021 157.903 170.264 155.162 167.865L156.673 163.47C157.862 159.967 156.273 156.154 152.933 154.565L146.289 151.404C142.948 149.815 138.975 150.967 137.003 154.108L134.635 157.859C130.834 157.121 126.974 156.899 123.122 157.201L121.11 153.08C119.491 149.773 115.627 148.191 112.153 149.438L105.222 151.895C101.738 153.115 99.7353 156.762 100.563 160.36L101.583 164.816C98.3237 167.067 95.3816 169.76 92.8453 172.798L88.4125 171.271C84.9095 170.082 81.0964 171.671 79.5073 175.011L76.3293 181.692ZM87.1198 175.056C85.5198 174.517 83.8269 175.242 83.1195 176.729C83.1194 176.729 83.1195 176.729 83.1195 176.729L79.9415 183.411C79.2243 184.918 79.7374 186.696 81.1576 187.589C81.1584 187.59 81.1591 187.59 81.1599 187.591L87.71 191.686L87.2847 194.309C86.7472 197.624 86.604 200.959 86.9285 204.259L87.2002 207.023L80.1144 210.489C78.6293 211.217 77.9238 212.957 78.4788 214.503L78.4815 214.51L80.9435 221.456L80.946 221.463C81.4896 223.016 83.1197 223.918 84.7385 223.546L84.7459 223.544L92.6563 221.74L94.2042 223.907C95.9991 226.42 98.0649 228.684 100.394 230.681L102.451 232.445L99.7903 240.244C99.7901 240.245 99.7898 240.246 99.7896 240.246C99.2472 241.848 99.9727 243.543 101.461 244.251L108.105 247.412C109.614 248.13 111.392 247.616 112.285 246.193L116.637 239.267L119.302 239.754C122.481 240.336 125.668 240.535 128.823 240.322L131.501 240.141L135.158 247.59C135.885 249.075 137.625 249.78 139.171 249.225L139.178 249.223L146.124 246.761L146.132 246.758C147.684 246.215 148.586 244.585 148.214 242.967C148.214 242.967 148.214 242.967 148.214 242.967L146.398 235.096L148.675 233.559C151.509 231.646 154.054 229.39 156.321 226.805L158.082 224.798L165.565 227.333C167.168 227.877 168.865 227.151 169.573 225.662L172.734 219.018C173.452 217.51 172.938 215.731 171.515 214.838L171.51 214.835L164.89 210.664L165.399 207.985C166.031 204.661 166.227 201.311 165.974 197.962L165.77 195.258L172.561 191.939C172.561 191.939 172.561 191.939 172.561 191.939C174.046 191.212 174.752 189.472 174.197 187.925L174.194 187.918L171.732 180.972L171.729 180.965C171.186 179.412 169.556 178.51 167.937 178.883L167.927 178.885L160.649 180.54L159.112 178.3C157.228 175.553 155.011 173.049 152.528 170.875L150.506 169.106L152.885 162.185C152.886 162.183 152.886 162.181 152.887 162.179C153.427 160.578 152.702 158.885 151.214 158.177L144.571 155.016C144.571 155.016 144.571 155.016 144.571 155.016C143.062 154.298 141.283 154.813 140.391 156.235L140.385 156.243L136.558 162.307L133.873 161.785C130.424 161.116 126.926 160.915 123.435 161.189L120.721 161.402L117.517 154.839C117.517 154.838 117.517 154.838 117.517 154.837C116.789 153.353 115.05 152.648 113.504 153.203L113.497 153.206L106.551 155.668L106.544 155.67C104.991 156.214 104.089 157.844 104.461 159.463L104.462 159.467L106.087 166.566L103.856 168.107C100.897 170.151 98.2229 172.598 95.9161 175.362L94.149 177.479L87.1198 175.056ZM118.687 178.942C130.721 174.665 143.938 181.004 148.207 193.015C152.484 205.049 146.145 218.266 134.134 222.535C122.1 226.812 108.883 220.473 104.614 208.462C100.337 196.428 106.675 183.211 118.687 178.942ZM144.438 194.355C140.904 184.414 129.967 179.178 120.026 182.711C110.085 186.244 104.85 197.181 108.383 207.122C111.916 217.064 122.853 222.299 132.794 218.766C142.735 215.233 147.971 204.296 144.438 194.355Z" fill="#E55C42"/>
<path d="M212.78 137.383C211.813 137.383 210.977 137.132 210.294 136.636C209.625 136.159 209.143 135.521 208.877 134.747L207.488 130.638H198.484L197.097 134.735C196.842 135.45 196.387 136.055 195.733 136.564C195.035 137.107 194.194 137.383 193.234 137.383H187.79C187.234 137.383 186.715 137.108 186.4 136.65C186.085 136.192 186.017 135.607 186.218 135.088L197.846 105.047C198.098 104.398 198.723 103.97 199.419 103.97H206.553C207.249 103.97 207.872 104.398 208.125 105.047L219.754 135.088C219.954 135.607 219.887 136.19 219.572 136.65C219.257 137.107 218.738 137.383 218.182 137.383H212.78V137.383ZM204.746 122.527L202.993 117.304L201.232 122.527H204.746Z" fill="white"/>
<path d="M206.555 105.657L218.183 135.697H212.78C212.175 135.697 211.678 135.558 211.285 135.273C210.894 134.993 210.621 134.633 210.469 134.194L208.697 128.953H197.275L195.5 134.194C195.364 134.577 195.096 134.924 194.698 135.233C194.299 135.544 193.81 135.696 193.234 135.696H187.79L199.419 105.655H206.555V105.657ZM198.885 124.212H207.089L204.326 115.986C204.146 115.466 203.937 114.85 203.698 114.141C203.457 113.434 203.219 112.664 202.987 111.842C202.766 112.679 202.54 113.456 202.306 114.171C202.073 114.889 201.851 115.506 201.645 116.03L198.885 124.212ZM206.555 102.286H199.42C198.028 102.286 196.78 103.142 196.277 104.44L184.649 134.481C184.248 135.517 184.382 136.685 185.011 137.602C185.64 138.521 186.679 139.068 187.792 139.068H193.235C194.562 139.068 195.784 138.662 196.771 137.892C197.68 137.186 198.32 136.323 198.676 135.33L199.693 132.324H206.28L207.277 135.275C207.663 136.392 208.37 137.332 209.327 138.016C210.279 138.707 211.449 139.068 212.78 139.068H218.183C219.295 139.068 220.335 138.521 220.964 137.604C221.593 136.687 221.727 135.519 221.326 134.481L209.698 104.44C209.195 103.142 207.947 102.286 206.555 102.286Z" fill="#E55C42"/>
<path d="M220.615 137.383C219.685 137.383 218.93 136.63 218.93 135.698V105.657C218.93 104.725 219.685 103.972 220.615 103.972H231.212C233.504 103.972 235.52 104.255 237.197 104.811C238.931 105.384 240.394 106.197 241.545 107.228C242.72 108.281 243.601 109.543 244.166 110.981C244.708 112.375 244.983 113.885 244.983 115.471C244.983 117.169 244.702 118.761 244.149 120.202C243.574 121.698 242.683 122.997 241.5 124.066C240.342 125.109 238.874 125.93 237.138 126.506C235.449 127.062 233.457 127.344 231.214 127.344H229.271V135.699C229.271 136.631 228.516 137.385 227.586 137.385H220.615V137.383ZM231.212 118.715C232.116 118.715 233.314 118.584 233.89 117.958C234.391 117.419 234.642 116.583 234.642 115.469C234.642 114.985 234.571 114.55 234.433 114.173C234.317 113.851 234.142 113.58 233.904 113.347C233.666 113.116 233.351 112.936 232.947 112.798C232.481 112.638 231.898 112.557 231.214 112.557H229.271V118.713H231.212V118.715Z" fill="white"/>
<path d="M231.213 105.657C233.329 105.657 235.149 105.906 236.666 106.41C238.186 106.912 239.437 107.602 240.42 108.481C241.402 109.361 242.127 110.399 242.595 111.594C243.062 112.792 243.296 114.083 243.296 115.469C243.296 116.97 243.055 118.342 242.573 119.594C242.093 120.845 241.357 121.918 240.367 122.812C239.378 123.703 238.122 124.399 236.606 124.903C235.087 125.404 233.291 125.655 231.213 125.655H227.584V135.696H220.615V105.655H231.213V105.657ZM227.584 120.4H231.213C233.028 120.4 234.332 119.965 235.131 119.099C235.93 118.238 236.327 117.026 236.327 115.47C236.327 114.784 236.223 114.161 236.017 113.596C235.812 113.033 235.498 112.552 235.08 112.144C234.659 111.738 234.132 111.424 233.491 111.205C232.852 110.986 232.094 110.874 231.213 110.874H227.584V120.4V120.4ZM231.213 102.286H220.615C218.755 102.286 217.245 103.796 217.245 105.657V135.697C217.245 137.558 218.755 139.068 220.615 139.068H227.584C229.445 139.068 230.955 137.558 230.955 135.697V129.027H231.213C233.634 129.027 235.803 128.717 237.659 128.105C239.626 127.453 241.294 126.516 242.624 125.316C244.008 124.067 245.049 122.549 245.72 120.804C246.348 119.168 246.667 117.375 246.667 115.469C246.667 113.672 246.353 111.957 245.737 110.372C245.073 108.68 244.043 107.202 242.668 105.972C241.345 104.787 239.681 103.857 237.723 103.21C235.878 102.598 233.687 102.286 231.213 102.286ZM230.955 114.243H231.213C231.834 114.243 232.2 114.325 232.399 114.392C232.623 114.469 232.711 114.539 232.738 114.566C232.777 114.604 232.815 114.655 232.851 114.752C232.921 114.943 232.957 115.186 232.957 115.47C232.957 116.106 232.846 116.606 232.66 116.807C232.657 116.807 232.308 117.031 231.214 117.031H230.956V114.243H230.955Z" fill="#E55C42"/>
<path d="M247.542 137.383C246.611 137.383 245.856 136.63 245.856 135.698V105.657C245.856 104.725 246.611 103.972 247.542 103.972H254.553C255.483 103.972 256.238 104.725 256.238 105.657V135.698C256.238 136.63 255.483 137.383 254.553 137.383H247.542Z" fill="white"/>
<path d="M254.553 105.657V135.697H247.542V105.657H254.553ZM254.553 102.286H247.542C245.681 102.286 244.171 103.796 244.171 105.657V135.697C244.171 137.558 245.681 139.068 247.542 139.068H254.553C256.413 139.068 257.923 137.558 257.923 135.697V105.657C257.923 103.796 256.413 102.286 254.553 102.286Z" fill="#E55C42"/>
<path d="M200.644 103.297C199.22 103.297 198.074 102.669 197.415 101.528L194.38 96.2239V101.612C194.38 102.544 193.625 103.297 192.695 103.297H187.79C186.86 103.297 186.105 102.544 186.105 101.612V80.4763C186.105 79.5444 186.86 78.791 187.79 78.791H194.666C196.338 78.791 197.811 78.9711 199.045 79.3284C200.343 79.7076 201.431 80.2553 202.287 80.9614C203.186 81.6996 203.853 82.5948 204.266 83.6194C204.655 84.5767 204.854 85.6283 204.854 86.744C204.854 87.5934 204.738 88.4106 204.507 89.1741C204.271 89.9544 203.917 90.6843 203.452 91.3449C203.009 91.9803 202.456 92.5584 201.814 93.0623C201.886 93.1651 201.955 93.268 202.021 93.3775L206.521 100.734C206.838 101.255 206.851 101.905 206.555 102.438C206.256 102.969 205.693 103.299 205.083 103.299H200.644V103.297ZM194.668 88.7293C195.132 88.7293 195.521 88.6769 195.796 88.5758C196.033 88.4899 196.212 88.387 196.335 88.2623C196.451 88.146 196.53 88.0182 196.583 87.8632C196.658 87.6373 196.696 87.3876 196.696 87.1045C196.696 86.5584 196.53 86.3412 196.369 86.2013C196.242 86.0935 195.816 85.8322 194.666 85.8322H194.38V88.7293H194.668Z" fill="white"/>
<path d="M194.668 80.4761C196.197 80.4761 197.499 80.6363 198.578 80.948C199.657 81.2632 200.536 81.6994 201.217 82.2606C201.9 82.8218 202.395 83.4844 202.704 84.2496C203.014 85.0113 203.169 85.8422 203.169 86.7422C203.169 87.4281 203.076 88.0787 202.892 88.6871C202.71 89.2955 202.436 89.8583 202.073 90.3757C201.711 90.8948 201.266 91.3549 200.739 91.7611C200.211 92.1672 199.604 92.5009 198.918 92.7621C199.247 92.9273 199.554 93.1309 199.84 93.3719C200.125 93.6146 200.375 93.9098 200.587 94.2553L205.083 101.608H200.644C199.822 101.608 199.232 101.3 198.875 100.681L195.364 94.545C195.209 94.2736 195.027 94.0799 194.82 93.9636C194.612 93.8473 194.319 93.7883 193.942 93.7883H192.695V101.606H187.79V80.4712H194.668V80.4761ZM192.695 90.4144H194.666C195.334 90.4144 195.902 90.3299 196.37 90.1597C196.839 89.9912 197.225 89.7553 197.525 89.4553C197.825 89.1553 198.042 88.8064 198.179 88.4053C198.313 88.0041 198.381 87.571 198.381 87.1059C198.381 86.179 198.077 85.4563 197.474 84.9305C196.869 84.4081 195.934 84.1483 194.666 84.1483H192.695V90.4144V90.4144ZM194.668 77.1055H187.792C185.931 77.1055 184.421 78.6155 184.421 80.4761V101.612C184.421 103.472 185.931 104.982 187.792 104.982H192.696C194.285 104.982 195.619 103.882 195.974 102.4C196.943 104.047 198.64 104.982 200.644 104.982H205.083C206.303 104.982 207.428 104.323 208.024 103.262C208.621 102.197 208.595 100.895 207.958 99.8556L203.984 93.3588C204.295 93.0267 204.579 92.6777 204.836 92.312C205.398 91.5064 205.833 90.6148 206.12 89.6643C206.398 88.7407 206.539 87.76 206.539 86.7471C206.539 85.414 206.298 84.1501 205.827 82.9856C205.309 81.7047 204.478 80.5841 203.358 79.6639C202.326 78.8128 201.035 78.1572 199.52 77.7173C198.13 77.3095 196.498 77.1055 194.668 77.1055Z" fill="#E55C42"/>
<path d="M207.086 103.297C206.156 103.297 205.401 102.544 205.401 101.612V80.4763C205.401 79.5444 206.156 78.791 207.086 78.791H220.693C221.625 78.791 222.378 79.5444 222.378 80.4763V84.2498C222.378 85.1818 221.625 85.9351 220.693 85.9351H213.704V87.4974H218.664C219.594 87.4974 220.349 88.2507 220.349 89.1827V92.8093C220.349 93.7413 219.594 94.4946 218.664 94.4946H213.704V96.1565H220.693C221.625 96.1565 222.378 96.9098 222.378 97.8418V101.61C222.378 102.542 221.625 103.296 220.693 103.296H207.086V103.297Z" fill="white"/>
<path d="M220.693 80.4761V84.2496H212.019V89.1825H218.664V92.8091H212.019V97.8416H220.693V101.61H207.086V80.4745H220.693V80.4761ZM220.693 77.1055H207.086C205.225 77.1055 203.715 78.6155 203.715 80.4761V101.612C203.715 103.472 205.225 104.982 207.086 104.982H220.693C222.554 104.982 224.064 103.472 224.064 101.612V97.8432C224.064 96.2708 222.989 94.9512 221.534 94.5771C221.851 94.0631 222.035 93.4579 222.035 92.8091V89.1825C222.035 88.5707 221.871 87.9959 221.585 87.5005C223.014 87.1112 224.064 85.8017 224.064 84.2496V80.4761C224.064 78.6138 222.554 77.1055 220.693 77.1055Z" fill="#E55C42"/>
<path d="M229.194 103.529C228.417 103.529 227.626 103.448 226.849 103.292C226.093 103.142 225.336 102.923 224.605 102.645C223.868 102.358 223.177 102.021 222.537 101.635C221.868 101.232 221.266 100.765 220.749 100.251C220.189 99.6935 220.093 98.824 220.514 98.1566L221.965 95.8644C222.211 95.4599 222.579 95.1144 223.036 94.865C223.477 94.6223 223.959 94.4996 224.463 94.4996C225.071 94.4996 225.666 94.6782 226.233 95.0304C226.521 95.209 226.844 95.408 227.205 95.6237C227.495 95.7973 227.839 95.9589 228.225 96.1055C228.513 96.2134 228.889 96.2709 229.337 96.2709C229.81 96.2709 230.185 96.1899 230.362 96.0483C230.39 96.0264 230.466 95.8815 230.466 95.504C230.367 95.2832 230.196 95.167 229.969 95.0608C229.617 94.8957 229.197 94.7455 228.725 94.614C228.149 94.4573 227.55 94.2804 226.935 94.0832C226.266 93.8675 225.606 93.603 224.979 93.2912C224.254 92.9389 223.592 92.4602 223.019 91.8737C222.424 91.2653 221.943 90.5137 221.593 89.6424C221.237 88.7525 221.065 87.7328 221.065 86.5227C221.065 85.5065 221.271 84.5057 221.677 83.545C222.085 82.581 222.69 81.7114 223.47 80.9648C224.249 80.2266 225.198 79.6349 226.297 79.2017C227.39 78.7737 228.637 78.5562 230.003 78.5562C230.741 78.5562 231.471 78.6135 232.168 78.7281C232.876 78.8461 233.564 79.0247 234.212 79.2556C234.861 79.4899 235.471 79.7731 236.033 80.095C236.617 80.4304 237.152 80.8213 237.619 81.2545C238.181 81.7752 238.321 82.6096 237.959 83.2854L236.74 85.564C236.427 86.073 236.127 86.4067 235.792 86.6511C235.335 86.9814 234.78 87.1514 234.181 87.1514C233.678 87.1514 233.166 87.0134 232.662 86.7404L231.792 86.2685C231.545 86.1336 231.258 86.0155 230.938 85.906C230.704 85.8284 230.405 85.7879 230.06 85.7879C229.323 85.7879 229.123 85.9564 229.114 85.9632C229.071 86.0002 229.017 86.0474 229.017 86.28C229.071 86.2918 229.266 86.42 229.517 86.5363C229.866 86.6998 230.286 86.8533 230.796 87.005C231.39 87.1836 231.99 87.3821 232.605 87.5979C233.257 87.8271 233.904 88.1005 234.528 88.4072C235.259 88.7712 235.916 89.2396 236.479 89.8008C237.064 90.3772 237.544 91.0884 237.902 91.9074C238.264 92.7484 238.448 93.7327 238.448 94.8382C238.448 96.023 238.237 97.1537 237.821 98.2002C237.394 99.2687 236.771 100.211 235.964 101.006C235.16 101.797 234.167 102.424 233.013 102.87C231.885 103.31 230.599 103.529 229.194 103.529Z" fill="white"/>
<path d="M230.006 80.2451C230.655 80.2451 231.285 80.2938 231.898 80.3949C232.514 80.4977 233.097 80.6478 233.648 80.8467C234.199 81.0456 234.713 81.2834 235.193 81.5597C235.672 81.8345 236.1 82.1461 236.476 82.495L235.257 84.7736C235.112 85.0062 234.961 85.1778 234.801 85.2958C234.64 85.4104 234.435 85.471 234.184 85.471C233.96 85.471 233.722 85.4002 233.466 85.262C233.208 85.1205 232.918 84.962 232.595 84.7884C232.271 84.6132 231.9 84.4585 231.486 84.3169C231.069 84.1787 230.596 84.1079 230.063 84.1079C229.145 84.1079 228.46 84.3048 228.01 84.6975C227.56 85.0885 227.336 85.6162 227.336 86.2853C227.336 86.7083 227.473 87.0638 227.742 87.3436C228.014 87.6233 228.369 87.8642 228.809 88.0698C229.249 88.2737 229.753 88.4559 230.319 88.6261C230.884 88.798 231.462 88.9866 232.052 89.1939C232.643 89.4012 233.22 89.6457 233.784 89.9254C234.351 90.2069 234.855 90.564 235.294 91.0022C235.736 91.437 236.09 91.9648 236.361 92.5884C236.631 93.2136 236.767 93.9633 236.767 94.8464C236.767 95.8222 236.597 96.7356 236.258 97.5867C235.92 98.4361 235.429 99.1794 234.785 99.8131C234.143 100.445 233.35 100.942 232.406 101.308C231.462 101.672 230.392 101.851 229.192 101.851C228.535 101.851 227.864 101.785 227.183 101.647C226.5 101.512 225.841 101.321 225.203 101.077C224.564 100.829 223.964 100.536 223.403 100.199C222.843 99.862 222.355 99.4813 221.938 99.0667L223.389 96.7745C223.495 96.5992 223.646 96.4593 223.839 96.3548C224.031 96.2487 224.24 96.1931 224.463 96.1931C224.753 96.1931 225.046 96.2859 225.341 96.4696C225.636 96.6533 225.97 96.8553 226.342 97.0778C226.714 97.3002 227.143 97.5043 227.626 97.688C228.11 97.87 228.68 97.9628 229.339 97.9628C230.227 97.9628 230.919 97.7671 231.411 97.3744C231.905 96.9834 232.151 96.3616 232.151 95.5105C232.151 95.0167 232.015 94.6193 231.745 94.3058C231.474 93.9957 231.118 93.7428 230.678 93.5388C230.237 93.3349 229.738 93.1545 229.177 92.9994C228.616 92.8461 228.041 92.676 227.451 92.4855C226.859 92.2968 226.285 92.0641 225.725 91.7877C225.164 91.5147 224.663 91.1523 224.224 90.7023C223.782 90.2506 223.426 89.691 223.157 89.0186C222.887 88.3445 222.751 87.5173 222.751 86.5297C222.751 85.7359 222.911 84.962 223.229 84.2087C223.548 83.4554 224.016 82.7816 224.635 82.1917C225.255 81.6019 226.013 81.1315 226.913 80.7776C227.815 80.422 228.845 80.2451 230.006 80.2451ZM230.006 76.8745C228.428 76.8745 226.976 77.1306 225.686 77.6345C224.382 78.1485 223.248 78.858 222.316 79.7428C221.36 80.6562 220.625 81.7128 220.127 82.8892C219.631 84.0588 219.382 85.2823 219.382 86.5244C219.382 87.9535 219.592 89.1753 220.029 90.2657C220.465 91.3511 221.065 92.2849 221.814 93.0517C221.935 93.1747 222.06 93.2963 222.186 93.4109C221.5 93.7918 220.919 94.3478 220.511 95.0135L219.092 97.2567C218.247 98.5898 218.441 100.329 219.559 101.445C220.172 102.055 220.88 102.604 221.665 103.078C222.39 103.514 223.169 103.893 223.981 104.21C224.822 104.531 225.671 104.777 226.529 104.947C227.402 105.122 228.302 105.215 229.194 105.215C230.808 105.215 232.296 104.957 233.619 104.446C234.994 103.912 236.181 103.16 237.148 102.211C238.124 101.251 238.876 100.113 239.39 98.8289C239.885 97.5801 240.138 96.2387 240.138 94.8399C240.138 93.5034 239.909 92.2932 239.455 91.245C239.009 90.2186 238.406 89.3287 237.661 88.5956C237.423 88.358 237.172 88.1356 236.906 87.9266C237.376 87.5558 237.779 87.0991 238.117 86.5565C238.156 86.4941 238.195 86.4284 238.23 86.3627L239.449 84.084C240.172 82.7307 239.892 81.0624 238.766 80.0209C238.207 79.5018 237.57 79.0383 236.872 78.6372C236.233 78.2681 235.53 77.9427 234.794 77.6781C234.041 77.4084 233.255 77.2064 232.453 77.0732C231.656 76.9401 230.837 76.8745 230.006 76.8745Z" fill="#E55C42"/>
<path d="M243.701 103.297C242.77 103.297 242.015 102.544 242.015 101.612V86.0495H237.753C236.823 86.0495 236.068 85.2962 236.068 84.3642V80.4763C236.068 79.5444 236.823 78.791 237.753 78.791H254.552C255.484 78.791 256.238 79.5444 256.238 80.4763V84.3642C256.238 85.2962 255.484 86.0495 254.552 86.0495H250.29V101.612C250.29 102.544 249.535 103.297 248.605 103.297H243.701Z" fill="white"/>
<path d="M254.551 80.4761V84.3639H248.603V101.612H243.701V84.3639H237.753V80.4761H254.551ZM254.551 77.1055H237.752C235.891 77.1055 234.381 78.6155 234.381 80.4761V84.3639C234.381 86.2245 235.891 87.7346 237.752 87.7346H240.328V101.612C240.328 103.472 241.839 104.982 243.699 104.982H248.602C250.462 104.982 251.972 103.472 251.972 101.612V87.7346H254.549C256.41 87.7346 257.92 86.2245 257.92 84.3639V80.4761C257.921 78.6138 256.413 77.1055 254.551 77.1055Z" fill="#E55C42"/>
<path d="M104.181 213.475C103.411 213.475 102.619 213.394 101.826 213.236C101.046 213.082 100.276 212.86 99.5428 212.576C98.8102 212.292 98.109 211.95 97.4604 211.56C96.7869 211.154 96.1883 210.691 95.6802 210.183C95.2598 209.763 95.1869 209.107 95.5056 208.605L97.0262 206.203C97.248 205.841 97.5667 205.541 97.964 205.325C98.3492 205.113 98.7751 205.003 99.2241 205.003C99.7692 205.003 100.305 205.165 100.818 205.485C101.12 205.674 101.462 205.882 101.843 206.108C102.166 206.301 102.552 206.485 102.995 206.656C103.351 206.79 103.804 206.859 104.334 206.859C104.958 206.859 105.438 206.741 105.721 206.517C105.914 206.364 106.013 206.039 106.013 205.559C106.013 205.261 105.93 205.165 105.903 205.134C105.738 204.948 105.503 204.781 105.207 204.644C104.807 204.46 104.343 204.294 103.832 204.155C103.224 203.987 102.604 203.801 101.969 203.597C101.299 203.384 100.631 203.115 99.9871 202.799C99.2702 202.446 98.6245 201.977 98.0665 201.406C97.49 200.815 97.0235 200.082 96.6789 199.229C96.3352 198.379 96.1597 197.341 96.1597 196.147C96.1597 195.146 96.3629 194.161 96.7629 193.217C97.1629 192.271 97.7579 191.417 98.5321 190.68C99.2971 189.95 100.239 189.362 101.332 188.935C102.416 188.508 103.662 188.292 105.033 188.292C105.779 188.292 106.516 188.351 107.225 188.468C107.953 188.59 108.644 188.767 109.281 188.996C109.934 189.233 110.547 189.516 111.105 189.835C111.689 190.173 112.216 190.558 112.676 190.981C113.103 191.372 113.211 192.004 112.938 192.515L111.659 194.904C111.384 195.355 111.111 195.66 110.81 195.88C110.412 196.165 109.945 196.305 109.414 196.305C108.96 196.305 108.499 196.176 108.045 195.925L107.145 195.437C106.868 195.29 106.54 195.151 106.181 195.031C105.876 194.929 105.511 194.877 105.096 194.877C104.254 194.877 103.911 195.067 103.781 195.18C103.645 195.299 103.508 195.473 103.508 195.887C103.508 196.044 103.55 196.088 103.581 196.12C103.749 196.294 103.998 196.458 104.318 196.607C104.722 196.793 105.198 196.969 105.728 197.127C106.336 197.306 106.962 197.512 107.602 197.738C108.27 197.973 108.93 198.252 109.562 198.565C110.274 198.918 110.917 199.376 111.472 199.926C112.047 200.493 112.514 201.187 112.862 201.988C113.215 202.8 113.394 203.766 113.394 204.859C113.394 206.036 113.184 207.16 112.771 208.2C112.351 209.257 111.734 210.189 110.938 210.971C110.142 211.756 109.156 212.377 108.009 212.818C106.875 213.253 105.588 213.475 104.181 213.475Z" fill="white"/>
<path d="M105.032 189.562C105.712 189.562 106.373 189.615 107.017 189.721C107.662 189.829 108.272 189.985 108.85 190.192C109.427 190.402 109.968 190.649 110.47 190.938C110.97 191.227 111.42 191.555 111.815 191.918L110.537 194.307C110.386 194.551 110.225 194.734 110.058 194.856C109.891 194.975 109.676 195.036 109.411 195.036C109.179 195.036 108.927 194.965 108.659 194.816C108.391 194.67 108.086 194.505 107.748 194.322C107.408 194.142 107.02 193.976 106.583 193.829C106.148 193.683 105.65 193.608 105.093 193.608C104.13 193.608 103.413 193.815 102.943 194.225C102.47 194.635 102.234 195.19 102.234 195.889C102.234 196.335 102.377 196.706 102.66 197C102.944 197.294 103.317 197.546 103.778 197.761C104.239 197.972 104.765 198.168 105.358 198.346C105.951 198.521 106.556 198.72 107.176 198.939C107.796 199.158 108.401 199.413 108.993 199.706C109.587 200 110.113 200.375 110.574 200.832C111.035 201.288 111.408 201.844 111.691 202.497C111.976 203.152 112.118 203.941 112.118 204.863C112.118 205.886 111.94 206.845 111.585 207.735C111.23 208.629 110.717 209.407 110.042 210.069C109.368 210.734 108.536 211.256 107.548 211.635C106.558 212.016 105.436 212.206 104.179 212.206C103.489 212.206 102.787 212.135 102.073 211.993C101.359 211.852 100.666 211.652 99.9993 211.394C99.3295 211.135 98.7012 210.829 98.1137 210.475C97.5243 210.119 97.0133 209.724 96.5763 209.288L98.097 206.886C98.2088 206.704 98.3649 206.555 98.5691 206.443C98.7705 206.332 98.9894 206.276 99.2222 206.276C99.528 206.276 99.833 206.372 100.143 206.565C100.452 206.758 100.802 206.97 101.192 207.202C101.582 207.436 102.031 207.648 102.537 207.843C103.045 208.033 103.644 208.131 104.332 208.131C105.264 208.131 105.989 207.924 106.507 207.516C107.023 207.104 107.283 206.454 107.283 205.561C107.283 205.042 107.141 204.621 106.858 204.299C106.571 203.974 106.2 203.706 105.74 203.493C105.277 203.28 104.754 203.091 104.166 202.931C103.578 202.769 102.975 202.588 102.356 202.389C101.739 202.193 101.134 201.949 100.547 201.661C99.9604 201.372 99.4357 200.991 98.9738 200.52C98.5119 200.047 98.1404 199.461 97.8559 198.756C97.5713 198.053 97.429 197.182 97.429 196.149C97.429 195.317 97.5963 194.507 97.9317 193.716C98.2661 192.925 98.7576 192.221 99.4071 191.602C100.056 190.983 100.851 190.489 101.793 190.12C102.737 189.746 103.817 189.562 105.032 189.562ZM105.032 187.021C103.502 187.021 102.099 187.268 100.864 187.753C99.6204 188.24 98.5386 188.917 97.6526 189.762C96.7547 190.618 96.06 191.615 95.5916 192.725C95.126 193.822 94.8884 194.974 94.8884 196.147C94.8884 197.506 95.0945 198.704 95.501 199.707C95.9066 200.713 96.4637 201.584 97.1557 202.293C97.7155 202.866 98.3483 203.351 99.0421 203.738C98.4435 203.764 97.8725 203.925 97.345 204.216C96.7602 204.534 96.2826 204.986 95.9334 205.554L94.4311 207.926C93.7955 208.93 93.9415 210.241 94.7813 211.081C95.3624 211.662 96.0424 212.188 96.8037 212.648C97.516 213.076 98.2837 213.45 99.0847 213.761C99.8866 214.071 100.728 214.314 101.584 214.482C102.452 214.656 103.328 214.744 104.181 214.744C105.745 214.744 107.185 214.494 108.463 214.003C109.772 213.5 110.904 212.784 111.827 211.875C112.747 210.971 113.462 209.892 113.947 208.67C114.42 207.479 114.66 206.197 114.66 204.859C114.66 203.59 114.445 202.453 114.022 201.481C113.61 200.531 113.051 199.704 112.362 199.022C111.742 198.408 111.029 197.892 110.242 197.487C110.714 197.386 111.152 197.195 111.533 196.922C111.99 196.589 112.374 196.164 112.697 195.641C112.724 195.596 112.751 195.55 112.776 195.504L114.055 193.115C114.602 192.093 114.386 190.829 113.533 190.046C113.005 189.561 112.403 189.121 111.744 188.739C111.112 188.376 110.433 188.064 109.715 187.803C109 187.547 108.236 187.35 107.437 187.215C106.654 187.086 105.846 187.021 105.032 187.021ZM104.152 205.586C103.79 205.571 103.562 205.513 103.43 205.463C103.194 205.372 102.974 205.275 102.778 205.175C103.019 205.246 103.257 205.313 103.489 205.378C103.725 205.442 103.947 205.511 104.152 205.586Z" fill="#E55C42"/>
<path d="M114.674 213.231C113.973 213.231 113.404 212.662 113.404 211.96V189.806C113.404 189.104 113.973 188.536 114.674 188.536H123.281C125.158 188.536 126.899 188.847 128.454 189.46C130.019 190.078 131.381 190.947 132.503 192.046C133.625 193.145 134.507 194.468 135.124 195.979C135.737 197.484 136.047 199.13 136.047 200.876C136.047 202.633 135.737 204.286 135.124 205.787C134.507 207.297 133.626 208.622 132.504 209.726C131.378 210.834 130.014 211.706 128.449 212.317C126.899 212.923 125.16 213.231 123.281 213.231H114.674V213.231ZM123.281 206.737C124.085 206.737 124.804 206.605 125.417 206.345C126.01 206.09 126.498 205.736 126.907 205.266C127.323 204.786 127.651 204.181 127.881 203.467C128.123 202.714 128.246 201.84 128.246 200.875C128.246 199.921 128.123 199.053 127.881 198.3C127.652 197.588 127.324 196.982 126.907 196.503C126.499 196.031 126.01 195.677 125.41 195.419C124.808 195.161 124.091 195.03 123.281 195.03H121.115V206.737H123.281V206.737Z" fill="white"/>
<path d="M123.28 189.805C125.003 189.805 126.573 190.083 127.987 190.64C129.4 191.198 130.608 191.969 131.613 192.952C132.617 193.935 133.395 195.104 133.947 196.458C134.499 197.811 134.776 199.283 134.776 200.874C134.776 202.475 134.499 203.954 133.947 205.307C133.394 206.66 132.617 207.83 131.613 208.82C130.608 209.808 129.399 210.58 127.987 211.131C126.573 211.686 125.003 211.959 123.28 211.959H114.674V189.805H123.28ZM119.845 208.007H123.281C124.263 208.007 125.142 207.841 125.913 207.514C126.682 207.184 127.334 206.713 127.866 206.099C128.398 205.487 128.808 204.737 129.091 203.856C129.374 202.975 129.517 201.981 129.517 200.875C129.517 199.779 129.374 198.791 129.091 197.911C128.808 197.028 128.398 196.28 127.866 195.668C127.333 195.053 126.682 194.582 125.913 194.252C125.142 193.922 124.264 193.759 123.281 193.759H119.845V208.007ZM123.28 187.265H114.674C113.27 187.265 112.133 188.402 112.133 189.805V211.959C112.133 213.362 113.27 214.5 114.674 214.5H123.28C125.319 214.5 127.215 214.163 128.914 213.496C130.637 212.823 132.146 211.859 133.395 210.63C134.641 209.404 135.617 207.935 136.3 206.266C136.975 204.609 137.317 202.795 137.317 200.873C137.317 198.962 136.976 197.155 136.301 195.499C135.617 193.824 134.638 192.358 133.391 191.136C132.148 189.919 130.644 188.957 128.921 188.276C127.216 187.606 125.319 187.265 123.28 187.265ZM122.386 196.3H123.281C123.918 196.3 124.467 196.396 124.914 196.588C125.328 196.766 125.668 197.011 125.946 197.332C126.253 197.686 126.496 198.141 126.673 198.689C126.874 199.318 126.977 200.054 126.977 200.876C126.977 201.709 126.874 202.451 126.672 203.08C126.496 203.629 126.252 204.084 125.949 204.433C125.669 204.757 125.328 205.001 124.908 205.183C124.466 205.37 123.915 205.468 123.281 205.468H122.386V196.3V196.3Z" fill="#E55C42"/>
<path d="M152.476 213.231C152.097 213.231 151.772 213.204 151.484 213.148C151.157 213.086 150.851 212.979 150.582 212.834C150.327 212.7 150.083 212.518 149.874 212.301C149.721 212.146 149.567 211.954 149.413 211.724L144.386 204.001C144.343 203.933 144.305 203.894 144.27 203.88C144.231 203.863 144.058 203.806 143.649 203.804V211.96C143.649 212.662 143.08 213.231 142.379 213.231H137.238C136.537 213.231 135.968 212.662 135.968 211.96V189.806C135.968 189.104 136.537 188.536 137.238 188.536H142.379C143.08 188.536 143.649 189.104 143.649 189.806V197.445C143.719 197.417 143.77 197.381 143.802 197.335L148.786 190.104C149.202 189.503 149.706 189.08 150.285 188.844C150.798 188.636 151.374 188.537 152.051 188.537H156.522C157.001 188.537 157.438 188.806 157.655 189.234C157.872 189.661 157.829 190.173 157.547 190.56L150.979 199.515C150.863 199.676 150.742 199.828 150.617 199.972C150.922 200.263 151.202 200.609 151.454 201.006L158.134 211.268C158.388 211.659 158.408 212.157 158.186 212.566C157.964 212.976 157.535 213.231 157.07 213.231H152.476V213.231Z" fill="white"/>
<path d="M157.129 189.852H157.134H157.129ZM157.129 189.852L150.561 198.808C150.329 199.131 150.083 199.401 149.831 199.613C149.577 199.825 149.319 200.003 149.055 200.145C149.44 200.287 149.793 200.484 150.112 200.732C150.43 200.981 150.723 201.312 150.986 201.728L157.676 212.006H153.084C152.791 212.006 152.538 211.987 152.333 211.947C152.125 211.907 151.944 211.844 151.792 211.762C151.64 211.683 151.509 211.584 151.397 211.467C151.284 211.352 151.18 211.217 151.077 211.064L146.059 203.354C145.877 203.071 145.646 202.87 145.367 202.754C145.088 202.638 144.711 202.58 144.234 202.58H142.986V212.007H137.846V189.853H142.986V198.825H143.809C144.569 198.825 145.116 198.586 145.45 198.11L150.439 190.871C150.712 190.476 151.024 190.208 151.373 190.065C151.724 189.924 152.151 189.854 152.659 189.854H157.129V189.852ZM157.134 187.312H157.129H152.659C151.827 187.312 151.074 187.445 150.422 187.709C149.601 188.044 148.907 188.62 148.351 189.423L145.527 193.52V189.852C145.527 188.449 144.39 187.312 142.987 187.312H137.846C136.443 187.312 135.306 188.449 135.306 189.852V212.006C135.306 213.409 136.443 214.547 137.846 214.547H142.987C144.39 214.547 145.527 213.409 145.527 212.006V207.194L148.948 212.449C149.165 212.773 149.368 213.025 149.587 213.249C149.871 213.543 150.223 213.808 150.615 214.013C150.972 214.205 151.399 214.354 151.858 214.441C152.22 214.511 152.623 214.546 153.084 214.546H157.676C158.608 214.546 159.465 214.035 159.909 213.216C160.352 212.398 160.314 211.401 159.804 210.619L153.114 200.341C153.034 200.213 152.949 200.088 152.86 199.966L159.13 191.417C159.469 190.986 159.671 190.442 159.671 189.851C159.672 188.45 158.536 187.312 157.134 187.312Z" fill="#E55C42"/>
</svg>
