<svg width="334" height="272" viewBox="0 0 334 272" fill="none" xmlns="http://www.w3.org/2000/svg">
<path d="M40.58 77.16C60.7826 77.16 77.16 60.7826 77.16 40.58C77.16 20.3774 60.7826 4 40.58 4C20.3774 4 4 20.3774 4 40.58C4 60.7826 20.3774 77.16 40.58 77.16Z" fill="#FECB91" stroke="#FF986D" stroke-width="6.0786" stroke-miterlimit="10" stroke-linejoin="round"/>
<path d="M40.58 265.617C60.7826 265.617 77.16 249.24 77.16 229.037C77.16 208.834 60.7826 192.457 40.58 192.457C20.3774 192.457 4 208.834 4 229.037C4 249.24 20.3774 265.617 40.58 265.617Z" fill="#FECB91" stroke="#FF986D" stroke-width="6.0786" stroke-miterlimit="10" stroke-linejoin="round"/>
<path d="M293.42 77.16C313.622 77.16 330 60.7826 330 40.58C330 20.3774 313.622 4 293.42 4C273.217 4 256.84 20.3774 256.84 40.58C256.84 60.7826 273.217 77.16 293.42 77.16Z" fill="#FECB91" stroke="#FF986D" stroke-width="6.0786" stroke-miterlimit="10" stroke-linejoin="round"/>
<path d="M293.42 268.328C313.622 268.328 330 251.951 330 231.748C330 211.545 313.622 195.168 293.42 195.168C273.217 195.168 256.84 211.545 256.84 231.748C256.84 251.951 273.217 268.328 293.42 268.328Z" fill="#FECB91" stroke="#FF986D" stroke-width="6.0786" stroke-miterlimit="10" stroke-linejoin="round"/>
<path fill-rule="evenodd" clip-rule="evenodd" d="M295.625 251.901C294.13 251.901 292.635 251.901 291.137 251.901C291.038 251.876 290.937 251.847 290.835 251.841C289.36 251.727 287.878 251.655 286.407 251.492C283.933 251.227 281.481 250.783 279.122 249.942C277.856 249.489 276.644 248.932 275.621 248.04C274.807 247.332 274.293 246.479 274.293 245.349C274.301 236.267 274.301 227.176 274.301 218.085C274.301 217.89 274.316 217.694 274.349 217.498C274.544 216.481 275.196 215.778 275.991 215.182C277.147 214.308 278.463 213.772 279.832 213.34C282.816 212.406 285.89 211.997 288.99 211.758C289.705 211.707 290.424 211.655 291.139 211.602C292.637 211.602 294.132 211.602 295.627 211.602C295.742 211.622 295.861 211.651 295.975 211.66C297.44 211.77 298.904 211.846 300.36 212.007C302.774 212.267 305.154 212.702 307.461 213.493C308.854 213.966 310.196 214.561 311.314 215.561C312.059 216.229 312.549 217.036 312.549 218.089C312.542 227.162 312.549 236.238 312.542 245.311C312.542 245.532 312.541 245.758 312.501 245.975C312.314 247.027 311.643 247.748 310.825 248.36C309.693 249.213 308.398 249.747 307.057 250.169C304.073 251.108 300.999 251.512 297.897 251.743C297.141 251.797 296.381 251.845 295.625 251.901ZM276.845 221.476C276.841 221.553 276.832 221.647 276.832 221.755C276.832 223.397 276.866 225.036 276.821 226.674C276.799 227.377 277.072 227.85 277.65 228.139C278.385 228.514 279.126 228.884 279.907 229.146C283.618 230.406 287.468 230.815 291.358 230.958C294.411 231.07 297.465 230.96 300.502 230.561C302.909 230.252 305.294 229.814 307.563 228.917C308.229 228.652 308.857 228.292 309.477 227.933C309.867 227.712 310.019 227.342 310.016 226.869C309.994 225.178 310.009 223.488 310.008 221.795C310.008 221.669 309.993 221.552 309.983 221.388C309.607 221.572 309.28 221.736 308.952 221.889C308.616 222.036 308.28 222.183 307.934 222.302C304.275 223.604 300.47 224.059 296.626 224.273C293.755 224.433 290.886 224.375 288.017 224.12C285.354 223.881 282.705 223.502 280.145 222.707C279.036 222.357 277.964 221.897 276.845 221.476ZM310.005 230.627C309.047 231.012 308.144 231.433 307.204 231.739C303.777 232.851 300.224 233.276 296.644 233.464C292.366 233.692 288.102 233.506 283.872 232.768C281.503 232.354 279.18 231.792 277.032 230.654C276.983 230.626 276.917 230.623 276.833 230.602C276.833 232.427 276.85 234.227 276.828 236.021C276.822 236.538 277.005 236.928 277.423 237.178C277.963 237.495 278.514 237.811 279.094 238.037C281.949 239.168 284.946 239.644 287.981 239.919C292.633 240.345 297.277 240.256 301.903 239.538C304.031 239.212 306.126 238.749 308.107 237.88C308.632 237.656 309.129 237.354 309.59 237.015C309.794 236.865 309.983 236.544 309.99 236.292C310.018 234.408 310.005 232.521 310.005 230.627ZM276.832 239.774C276.832 241.571 276.856 243.326 276.825 245.083C276.808 245.731 277.046 246.191 277.586 246.469C278.303 246.842 279.032 247.215 279.797 247.482C283.315 248.717 286.986 249.114 290.684 249.291C294.046 249.453 297.401 249.329 300.737 248.899C303.029 248.601 305.293 248.181 307.453 247.332C308.156 247.06 308.817 246.679 309.474 246.301C309.864 246.082 310.018 245.709 310.015 245.24C309.995 243.548 310.009 241.851 310.007 240.161C310.007 240.038 309.992 239.912 309.984 239.808C309.092 240.174 308.241 240.581 307.354 240.875C303.659 242.092 299.836 242.512 295.977 242.678C292.669 242.822 289.366 242.709 286.084 242.291C283.677 241.982 281.291 241.549 279.005 240.708C278.285 240.444 277.591 240.102 276.832 239.774ZM293.434 221.823C297.194 221.783 300.931 221.529 304.594 220.65C306.113 220.284 307.622 219.856 308.983 219.082C310.333 218.319 310.351 217.605 308.983 216.894C308.123 216.445 307.196 216.081 306.268 215.786C303.262 214.827 300.157 214.441 297.023 214.26C292.424 213.99 287.851 214.173 283.319 215.074C281.658 215.401 280.028 215.842 278.487 216.552C278.03 216.771 277.586 217.043 277.193 217.36C276.711 217.75 276.72 218.189 277.182 218.595C277.468 218.842 277.778 219.094 278.124 219.222C279.381 219.702 280.638 220.219 281.937 220.556C285.7 221.545 289.56 221.783 293.434 221.823Z" fill="white"/>
<path fill-rule="evenodd" clip-rule="evenodd" d="M311.898 53.1487C312.929 54.8717 313.958 56.5968 315.049 58.4236C314.074 58.2454 313.205 58.0887 312.334 57.9204C310.208 57.5258 308.082 57.1176 305.953 56.7251C305.761 56.6888 305.539 56.7329 305.336 56.7818C301.554 57.7001 297.89 57.38 294.415 55.605C291.213 53.9603 288.888 51.5021 288.051 47.9219C287.1 43.8836 288.37 40.4404 291.347 37.663C294.502 34.7212 298.332 33.6149 302.591 33.9037C305.951 34.1377 308.931 35.3115 311.425 37.5955C313.698 39.6817 315.006 42.2643 315.076 45.3765C315.141 48.0629 314.186 50.4047 312.459 52.4527C312.292 52.6466 312.119 52.8452 311.949 53.042C311.934 53.0528 311.934 53.0704 311.898 53.1487ZM296.737 46.1626C296.745 44.8469 295.697 43.7847 294.403 43.7817C293.053 43.7778 292.017 44.8078 292.009 46.1549C292.007 47.4569 293.06 48.5064 294.368 48.5064C295.669 48.5113 296.737 47.4657 296.737 46.1626ZM308.45 48.5064C309.762 48.5113 310.816 47.4716 310.824 46.1656C310.834 44.8499 309.789 43.7876 308.489 43.7808C307.153 43.7681 306.094 44.8186 306.094 46.15C306.094 47.4569 307.139 48.5064 308.45 48.5064ZM299.053 46.1362C299.053 47.4716 300.096 48.5113 301.447 48.5064C302.724 48.5054 303.773 47.4568 303.779 46.1793C303.783 44.8331 302.743 43.7817 301.41 43.7817C300.103 43.7778 299.053 44.8303 299.053 46.1362Z" fill="white"/>
<path fill-rule="evenodd" clip-rule="evenodd" d="M271.739 46.7167C272.903 44.7744 274.001 42.93 275.121 41.0562C274.999 40.9192 274.884 40.788 274.771 40.6568C272.648 38.271 271.521 35.5141 271.745 32.304C271.993 28.7013 273.757 25.8945 276.573 23.7231C279.041 21.8258 281.864 20.8352 284.965 20.6139C289.093 20.3143 292.857 21.3139 296.137 23.8769C298.587 25.7947 300.158 28.2715 300.683 31.3808C300.721 31.6481 300.721 31.9183 300.744 32.1953C299.714 32.3285 298.735 32.4567 297.726 32.584C297.615 31.2976 297.269 30.07 296.586 28.9569C295.016 26.3801 292.679 24.8333 289.813 24.1079C285.522 23.0291 281.52 23.6683 278.03 26.5103C275.902 28.2461 274.717 30.5095 274.809 33.3231C274.878 35.4632 275.772 37.2557 277.237 38.7692C277.813 39.3615 278.457 39.8981 279.065 40.4502C278.65 41.1639 278.314 41.7318 277.917 42.4112C278.711 42.2692 279.388 42.1477 280.066 42.0224C280.504 41.9431 280.931 41.8267 281.362 41.7807C281.676 41.7503 281.999 41.7827 282.317 41.8297C283.554 42.0118 284.787 42.2075 286.021 42.3984C286.177 42.4229 286.34 42.4229 286.492 42.4327C286.347 43.4381 286.209 44.4161 286.053 45.5096C285.177 45.4166 284.223 45.4558 283.355 45.2032C281.959 44.792 280.638 45.0251 279.282 45.2933C276.81 45.7867 274.327 46.2321 271.739 46.7167Z" fill="white"/>
<path fill-rule="evenodd" clip-rule="evenodd" d="M59.7091 213.563C59.7091 223.874 59.7091 234.189 59.7091 244.501C59.339 245.746 58.5363 246.416 57.2049 246.416C46.1246 246.412 35.0425 246.416 23.9613 246.416C23.1096 246.416 22.3841 246.149 21.8927 245.437C21.6998 245.156 21.5961 244.815 21.4531 244.501C21.4531 234.19 21.4531 223.875 21.4531 213.563C21.8251 212.324 22.6289 211.652 23.9623 211.652C35.0435 211.653 46.1257 211.652 57.2059 211.652C58.0547 211.652 58.781 211.913 59.2745 212.633C59.4644 212.916 59.5642 213.254 59.7091 213.563ZM56.9288 219.904C46.0121 219.904 35.1218 219.904 24.2334 219.904C24.2334 227.828 24.2334 235.72 24.2334 243.633C35.1394 243.633 46.0277 243.633 56.9288 243.633C56.9288 235.72 56.9288 227.824 56.9288 219.904ZM53.0198 215.978H53.0275C53.0275 215.877 53.0334 215.779 53.0275 215.68C53.006 214.988 52.6986 214.68 52.0172 214.67C51.7539 214.67 51.4905 214.66 51.2321 214.69C50.8375 214.73 50.5536 214.989 50.5184 215.384C50.4802 215.791 50.4802 216.201 50.5184 216.608C50.5526 217.005 50.8356 217.264 51.2321 217.3C51.5405 217.328 51.8527 217.328 52.1611 217.313C52.6702 217.287 52.9571 217.011 53.01 216.502C53.0325 216.329 53.0198 216.154 53.0198 215.978ZM46.5545 215.978C46.5486 215.978 46.5436 215.978 46.5378 215.978C46.5378 216.107 46.5348 216.221 46.5378 216.35C46.5583 217 46.8599 217.302 47.506 217.317C47.7586 217.325 48.0072 217.328 48.251 217.312C48.6974 217.279 48.9911 217.049 49.0362 216.607C49.0831 216.189 49.0763 215.763 49.0303 215.349C48.9794 214.948 48.6916 214.713 48.2902 214.687C47.9691 214.66 47.6421 214.66 47.322 214.687C46.8971 214.718 46.6083 214.998 46.5594 215.417C46.5388 215.604 46.5545 215.79 46.5545 215.978ZM56.967 216.012C56.967 215.883 56.971 215.76 56.967 215.637C56.9494 214.989 56.643 214.685 55.9939 214.671C55.7325 214.671 55.4672 214.661 55.2087 214.689C54.8113 214.722 54.5283 214.952 54.4706 215.355C54.4206 215.734 54.4069 216.126 54.4402 216.505C54.4882 217.033 54.7975 217.296 55.3321 217.319C55.5807 217.329 55.8324 217.329 56.081 217.319C56.6371 217.293 56.9357 216.986 56.967 216.424C56.9739 216.282 56.967 216.145 56.967 216.012Z" fill="white"/>
<path d="M251.278 207.493C250.556 207.493 249.833 207.255 249.234 206.77L248.614 206.269C247.218 205.142 247.004 203.094 248.13 201.698C249.26 200.295 251.308 200.085 252.702 201.212L253.321 201.712C254.718 202.84 254.934 204.888 253.804 206.285C253.163 207.08 252.226 207.493 251.278 207.493Z" fill="#FECB91"/>
<path d="M241.396 199.497C240.679 199.497 239.956 199.259 239.356 198.772L238.737 198.273C237.341 197.146 237.123 195.096 238.252 193.699C239.381 192.303 241.43 192.087 242.824 193.215L243.443 193.717C244.84 194.843 245.056 196.891 243.926 198.288C243.285 199.082 242.344 199.497 241.396 199.497Z" fill="#FECB91"/>
<path d="M231.517 191.494C230.799 191.494 230.075 191.257 229.473 190.77L228.857 190.269C227.458 189.14 227.246 187.091 228.376 185.697C229.505 184.298 231.552 184.081 232.948 185.216L233.565 185.716C234.961 186.845 235.177 188.893 234.045 190.289C233.403 191.083 232.464 191.494 231.517 191.494Z" fill="#FECB91"/>
<path d="M221.64 183.495C220.919 183.495 220.195 183.257 219.592 182.77L218.976 182.269C217.58 181.139 217.366 179.09 218.5 177.695C219.63 176.301 221.68 176.088 223.072 177.217L223.688 177.712C225.084 178.848 225.298 180.896 224.167 182.293C223.523 183.083 222.586 183.495 221.64 183.495Z" fill="#FECB91"/>
<path d="M211.762 175.497C211.042 175.497 210.316 175.258 209.714 174.771L209.099 174.269C207.704 173.139 207.488 171.091 208.624 169.695C209.754 168.3 211.804 168.088 213.195 169.218L213.811 169.72C215.206 170.85 215.421 172.898 214.289 174.293C213.647 175.085 212.707 175.497 211.762 175.497Z" fill="#FECB91"/>
<path d="M201.882 167.495C201.166 167.495 200.439 167.258 199.837 166.771L199.22 166.269C197.826 165.141 197.609 163.089 198.743 161.697C199.868 160.303 201.919 160.086 203.314 161.217L203.931 161.719C205.328 162.846 205.542 164.895 204.41 166.289C203.77 167.082 202.83 167.495 201.882 167.495Z" fill="#FECB91"/>
<path d="M192.004 159.495C191.286 159.495 190.562 159.256 189.96 158.769L189.342 158.271C187.946 157.14 187.731 155.091 188.864 153.697C189.991 152.302 192.041 152.087 193.434 153.217L194.053 153.717C195.448 154.845 195.664 156.895 194.534 158.287C193.89 159.083 192.953 159.495 192.004 159.495Z" fill="#FECB91"/>
<path d="M182.126 151.499C181.405 151.499 180.682 151.261 180.081 150.774L179.462 150.273C178.068 149.144 177.852 147.096 178.983 145.701C180.113 144.305 182.16 144.092 183.556 145.22L184.174 145.722C185.572 146.85 185.785 148.899 184.655 150.295C184.012 151.088 183.072 151.499 182.126 151.499Z" fill="#FECB91"/>
<path d="M172.246 143.498C171.528 143.498 170.805 143.262 170.202 142.774L169.585 142.275C168.193 141.145 167.974 139.097 169.105 137.701C170.236 136.305 172.282 136.091 173.679 137.221L174.296 137.72C175.693 138.85 175.907 140.9 174.776 142.295C174.136 143.088 173.195 143.498 172.246 143.498Z" fill="#FECB91"/>
<path d="M162.37 135.497C161.653 135.497 160.928 135.261 160.328 134.774L159.709 134.275C158.317 133.144 158.098 131.099 159.225 129.703C160.354 128.307 162.403 128.091 163.797 129.218L164.415 129.718C165.811 130.847 166.029 132.894 164.901 134.29C164.258 135.084 163.318 135.497 162.37 135.497Z" fill="#FECB91"/>
<path d="M152.491 127.498C151.769 127.498 151.045 127.261 150.442 126.774L149.827 126.273C148.434 125.143 148.217 123.094 149.348 121.696C150.481 120.304 152.529 120.084 153.924 121.221L154.54 121.718C155.934 122.853 156.148 124.902 155.017 126.296C154.377 127.084 153.437 127.498 152.491 127.498Z" fill="#FECB91"/>
<path d="M142.61 119.5C141.891 119.5 141.167 119.263 140.564 118.775L139.947 118.273C138.554 117.144 138.339 115.095 139.47 113.701C140.601 112.305 142.651 112.091 144.043 113.223L144.661 113.718C146.056 114.854 146.269 116.898 145.141 118.296C144.497 119.089 143.557 119.5 142.61 119.5Z" fill="#FECB91"/>
<path d="M132.736 111.494C132.015 111.494 131.293 111.264 130.69 110.774L130.072 110.274C128.678 109.145 128.461 107.097 129.592 105.7C130.721 104.307 132.769 104.091 134.165 105.22L134.783 105.721C136.18 106.852 136.394 108.898 135.264 110.295C134.622 111.087 133.685 111.494 132.736 111.494Z" fill="#FECB91"/>
<path d="M122.859 103.505C122.138 103.505 121.413 103.265 120.813 102.779L120.195 102.277C118.798 101.149 118.583 99.0996 119.713 97.7045C120.844 96.3094 122.892 96.095 124.288 97.2248L124.906 97.7241C126.301 98.8548 126.517 100.902 125.384 102.297C124.742 103.091 123.806 103.505 122.859 103.505Z" fill="#FECB91"/>
<path d="M112.979 95.5031C112.259 95.5031 111.536 95.2682 110.933 94.7796L110.314 94.2784C108.919 93.1487 108.704 91.1006 109.835 89.7055C110.964 88.3095 113.011 88.0952 114.409 89.2239L115.029 89.7251C116.422 90.8549 116.637 92.903 115.505 94.302C114.864 95.092 113.924 95.5031 112.979 95.5031Z" fill="#FECB91"/>
<path d="M103.099 87.5022C102.38 87.5022 101.658 87.2644 101.055 86.7798L100.436 86.2784C99.0392 85.1497 98.8248 83.1006 99.9575 81.7046C101.085 80.3105 103.133 80.0942 104.53 81.2249L105.15 81.7251C106.542 82.8539 106.76 84.902 105.627 86.299C104.985 87.092 104.046 87.5022 103.099 87.5022Z" fill="#FECB91"/>
<path d="M93.2201 79.5049C92.5025 79.5049 91.7801 79.267 91.1761 78.7805L90.5603 78.2782C89.1632 77.1504 88.9478 75.1004 90.0785 73.7053C91.2093 72.3102 93.2564 72.0939 94.6544 73.2256L95.274 73.7249C96.6652 74.8537 96.8836 76.9028 95.7499 78.2998C95.1077 79.0928 94.1687 79.5049 93.2201 79.5049Z" fill="#FECB91"/>
<path d="M83.3436 71.5026C82.625 71.5026 81.9034 71.2656 81.2974 70.7801L80.6787 70.2778C79.2846 69.1461 79.0682 67.1001 80.2019 65.705C81.3277 64.3109 83.3787 64.0936 84.7757 65.2253L85.3915 65.7245C86.7876 66.8562 87.0029 68.9024 85.8712 70.2984C85.229 71.0924 84.2902 71.5026 83.3436 71.5026Z" fill="#FECB91"/>
<path d="M80.1989 206.285C79.0682 204.888 79.2856 202.84 80.6816 201.712L81.2993 201.212C82.6944 200.085 84.7424 200.295 85.8702 201.698C87.0019 203.094 86.7846 205.142 85.3896 206.269L84.7747 206.77C84.1667 207.255 83.4462 207.493 82.7296 207.493C81.7819 207.494 80.8412 207.081 80.1989 206.285Z" fill="#FECB91"/>
<path d="M90.0746 198.285C88.9458 196.888 89.1622 194.84 90.5592 193.713L91.1779 193.211C92.572 192.083 94.6211 192.299 95.7498 193.695C96.8806 195.092 96.6623 197.142 95.2682 198.269L94.6515 198.768C94.0474 199.255 93.3248 199.493 92.6062 199.493C91.6595 199.494 90.7178 199.079 90.0746 198.285Z" fill="#FECB91"/>
<path d="M99.9571 190.289C98.8254 188.893 99.0388 186.845 100.436 185.716L101.055 185.216C102.449 184.081 104.499 184.298 105.626 185.697C106.758 187.091 106.542 189.14 105.15 190.269L104.53 190.77C103.927 191.257 103.204 191.494 102.487 191.494C101.536 191.495 100.597 191.084 99.9571 190.289Z" fill="#FECB91"/>
<path d="M109.836 182.293C108.705 180.896 108.917 178.848 110.312 177.712L110.93 177.217C112.322 176.089 114.372 176.3 115.503 177.694C116.633 179.089 116.421 181.138 115.028 182.268L114.409 182.769C113.806 183.257 113.081 183.495 112.363 183.495C111.415 183.496 110.478 183.084 109.836 182.293Z" fill="#FECB91"/>
<path d="M119.714 174.292C118.583 172.897 118.797 170.849 120.193 169.72L120.809 169.217C122.204 168.089 124.254 168.3 125.381 169.695C126.514 171.09 126.299 173.138 124.905 174.269L124.289 174.77C123.686 175.258 122.964 175.497 122.241 175.497C121.295 175.497 120.356 175.084 119.714 174.292Z" fill="#FECB91"/>
<path d="M129.589 166.288C128.46 164.894 128.675 162.845 130.071 161.718L130.689 161.217C132.086 160.086 134.132 160.303 135.262 161.697C136.393 163.089 136.177 165.141 134.782 166.269L134.164 166.771C133.562 167.257 132.84 167.494 132.12 167.494C131.171 167.494 130.231 167.081 129.589 166.288Z" fill="#FECB91"/>
<path d="M139.469 158.286C138.339 156.895 138.554 154.845 139.949 153.716L140.566 153.217C141.963 152.087 144.009 152.302 145.142 153.697C146.269 155.091 146.054 157.14 144.66 158.271L144.042 158.769C143.44 159.255 142.719 159.494 141.996 159.494C141.05 159.494 140.112 159.082 139.469 158.286Z" fill="#FECB91"/>
<path d="M149.345 150.294C148.215 148.898 148.432 146.849 149.826 145.721L150.444 145.219C151.84 144.092 153.887 144.305 155.018 145.701C156.146 147.096 155.933 149.144 154.538 150.273L153.919 150.774C153.316 151.261 152.594 151.498 151.875 151.498C150.927 151.498 149.988 151.087 149.345 150.294Z" fill="#FECB91"/>
<path d="M159.224 142.295C158.096 140.9 158.315 138.85 159.706 137.72L160.324 137.221C161.72 136.092 163.766 136.304 164.897 137.7C166.026 139.097 165.811 141.145 164.417 142.274L163.799 142.774C163.197 143.261 162.473 143.498 161.755 143.498C160.806 143.498 159.867 143.088 159.224 142.295Z" fill="#FECB91"/>
<path d="M169.103 134.29C167.974 132.894 168.194 130.847 169.586 129.718L170.204 129.218C171.602 128.092 173.648 128.306 174.777 129.702C175.905 131.098 175.691 133.143 174.294 134.274L173.676 134.773C173.074 135.261 172.35 135.497 171.634 135.497C170.685 135.498 169.746 135.085 169.103 134.29Z" fill="#FECB91"/>
<path d="M178.985 126.296C177.853 124.902 178.066 122.853 179.46 121.718L180.078 121.221C181.472 120.084 183.519 120.304 184.651 121.696C185.782 123.094 185.57 125.143 184.174 126.273L183.556 126.774C182.955 127.261 182.231 127.498 181.511 127.498C180.564 127.499 179.627 127.085 178.985 126.296Z" fill="#FECB91"/>
<path d="M188.864 118.296C187.731 116.898 187.946 114.853 189.34 113.718L189.956 113.222C191.352 112.092 193.399 112.304 194.531 113.7C195.661 115.094 195.448 117.143 194.053 118.273L193.438 118.774C192.835 119.263 192.111 119.5 191.389 119.5C190.442 119.501 189.506 119.09 188.864 118.296Z" fill="#FECB91"/>
<path d="M198.739 110.295C197.609 108.898 197.822 106.852 199.218 105.721L199.836 105.22C201.232 104.091 203.28 104.306 204.409 105.7C205.54 107.097 205.324 109.145 203.929 110.273L203.313 110.774C202.709 111.263 201.986 111.493 201.267 111.493C200.319 111.494 199.384 111.088 198.739 110.295Z" fill="#FECB91"/>
<path d="M208.62 102.297C207.487 100.902 207.702 98.8544 209.097 97.7237L209.714 97.2244C211.111 96.0956 213.158 96.309 214.287 97.7041C215.418 99.0991 215.204 101.148 213.807 102.277L213.19 102.778C212.587 103.265 211.864 103.505 211.147 103.505C210.2 103.505 209.261 103.091 208.62 102.297Z" fill="#FECB91"/>
<path d="M218.497 94.3016C217.363 92.9026 217.579 90.8545 218.975 89.7247L219.593 89.2235C220.99 88.0957 223.037 88.3091 224.166 89.7051C225.296 91.1002 225.083 93.1483 223.685 94.278L223.068 94.7792C222.467 95.2677 221.742 95.5027 221.027 95.5027C220.081 95.5027 219.14 95.0916 218.497 94.3016Z" fill="#FECB91"/>
<path d="M228.376 86.2986C227.246 84.9016 227.458 82.8535 228.857 81.7247L229.473 81.2245C230.869 80.0947 232.917 80.3101 234.045 81.7042C235.176 83.1002 234.961 85.1493 233.565 86.278L232.948 86.7794C232.344 87.264 231.622 87.5018 230.905 87.5018C229.959 87.5018 229.016 87.0916 228.376 86.2986Z" fill="#FECB91"/>
<path d="M238.253 78.2994C237.121 76.9024 237.337 74.8533 238.734 73.7245L239.349 73.2252C240.746 72.0945 242.794 72.3098 243.922 73.7049C245.054 75.1 244.841 77.15 243.444 78.2778L242.825 78.7801C242.225 79.2666 241.501 79.5045 240.784 79.5045C239.834 79.5045 238.895 79.0924 238.253 78.2994Z" fill="#FECB91"/>
<path d="M248.132 70.298C247.005 68.902 247.216 66.8558 248.613 65.7241L249.232 65.2249C250.625 64.0942 252.672 64.3105 253.803 65.7046C254.934 67.0997 254.718 69.1456 253.323 70.2774L252.705 70.7796C252.105 71.2652 251.38 71.5022 250.661 71.5022C249.715 71.5022 248.774 71.092 248.132 70.298Z" fill="#FECB91"/>
<path fill-rule="evenodd" clip-rule="evenodd" d="M228.551 97.4552C228.551 98.5673 228.551 99.6795 228.551 100.789C227.744 103.109 226.083 103.98 223.678 103.881C221.062 103.777 218.441 103.851 215.822 103.849C215.005 103.849 214.185 103.849 213.282 103.849C213.282 104.773 213.282 105.518 213.282 106.266C213.282 128.967 213.291 151.666 213.278 174.366C213.269 184.116 206.718 192.411 197.249 194.726C196.335 194.949 195.412 195.13 194.492 195.335C172.502 195.335 150.516 195.335 128.526 195.335C126.421 194.822 124.232 194.532 122.225 193.763C114.189 190.684 109.727 184.49 107.616 176.396C107.157 174.645 106.946 172.829 106.617 171.045C106.617 169.933 106.617 168.819 106.617 167.711C107.616 165.457 109.36 164.724 111.773 164.845C114.778 164.996 117.798 164.883 120.814 164.878C121.152 164.875 121.491 164.831 121.88 164.801C121.88 164.302 121.88 163.911 121.88 163.516C121.885 140.473 121.879 117.427 121.89 94.3821C121.896 85.0072 127.991 76.8836 136.983 74.2756C138.269 73.9016 139.599 73.6872 140.91 73.4023C163.853 73.4023 186.793 73.4023 209.733 73.4023C209.998 73.4787 210.253 73.5893 210.527 73.6284C213.783 74.0435 216.691 75.2986 219.234 77.3594C223.84 81.0894 226.269 86.1097 227.561 91.7516C227.992 93.6274 228.228 95.553 228.551 97.4552ZM212.964 80.9973C212.527 80.9973 212.332 80.9973 212.135 80.9973C188.96 80.9973 165.784 80.9738 142.609 81.0071C135.256 81.0188 129.454 87.0074 129.453 94.482C129.441 117.499 129.449 140.515 129.449 163.532C129.449 163.952 129.449 164.368 129.449 164.881C130.128 164.881 130.638 164.881 131.145 164.881C144.479 164.881 157.813 164.881 171.147 164.883C173.986 164.883 175.37 166.249 175.461 169.072C175.596 173.138 176.496 177 178.692 180.489C182.866 187.133 191.677 189.782 198.374 186.298C203.099 183.839 205.68 179.855 205.691 174.507C205.748 148.156 205.717 121.807 205.726 95.458C205.728 94.8256 205.753 94.1814 205.887 93.5696C206.957 88.7529 208.926 84.4218 212.964 80.9973Z" fill="#E55C42"/>
<path fill-rule="evenodd" clip-rule="evenodd" d="M212.964 80.9963C208.925 84.4208 206.957 88.7529 205.888 93.5686C205.753 94.1805 205.729 94.8246 205.727 95.457C205.717 121.806 205.748 148.155 205.692 174.506C205.681 179.854 203.1 183.838 198.375 186.297C191.676 189.782 182.866 187.133 178.693 180.488C176.496 176.999 175.597 173.137 175.461 169.071C175.369 166.247 173.987 164.882 171.148 164.882C157.814 164.88 144.479 164.88 131.145 164.88C130.637 164.88 130.128 164.88 129.45 164.88C129.45 164.368 129.45 163.951 129.45 163.531C129.45 140.514 129.442 117.498 129.454 94.481C129.456 87.0064 135.257 81.0179 142.609 81.0061C165.785 80.9728 188.961 80.9963 212.135 80.9963C212.331 80.9963 212.526 80.9963 212.964 80.9963ZM189.275 130.636C188.755 131.061 188.393 131.308 188.085 131.609C184.271 135.376 180.483 139.157 176.666 142.918C175.603 143.961 175.003 145.152 175.31 146.651C175.602 148.086 176.477 149.11 177.879 149.515C179.403 149.953 180.75 149.541 181.899 148.391C186.815 143.485 191.758 138.603 196.678 133.707C198.741 131.662 198.738 129.582 196.654 127.512C191.763 122.643 186.853 117.783 181.949 112.922C180.2 111.185 177.923 111.077 176.346 112.652C174.769 114.222 174.871 116.534 176.598 118.256C179.864 121.5 183.135 124.744 186.409 127.975C187.289 128.833 188.205 129.642 189.275 130.636ZM146.001 130.806C146.582 130.191 146.868 129.873 147.172 129.572C151.027 125.744 154.897 121.927 158.742 118.088C160.359 116.471 160.419 114.191 158.939 112.659C157.46 111.129 155.113 111.095 153.507 112.679C148.39 117.716 143.29 122.772 138.211 127.849C136.613 129.446 136.617 131.678 138.211 133.271C143.293 138.344 148.386 143.407 153.529 148.419C154.111 148.987 155 149.395 155.808 149.542C157.403 149.835 158.929 148.919 159.622 147.498C160.331 146.05 160.056 144.353 158.826 143.121C155.012 139.306 151.178 135.512 147.331 131.724C146.973 131.368 146.49 131.136 146.001 130.806Z" fill="#FF664A"/>
<path fill-rule="evenodd" clip-rule="evenodd" d="M189.275 130.637C188.204 129.642 187.289 128.834 186.409 127.973C183.135 124.741 179.864 121.499 176.599 118.254C174.872 116.532 174.77 114.221 176.346 112.65C177.923 111.076 180.201 111.182 181.95 112.92C186.854 117.782 191.763 122.642 196.655 127.51C198.739 129.58 198.743 131.66 196.679 133.705C191.76 138.601 186.816 143.483 181.9 148.389C180.75 149.539 179.403 149.952 177.88 149.513C176.478 149.108 175.603 148.084 175.311 146.648C175.004 145.151 175.604 143.96 176.667 142.916C180.484 139.155 184.273 135.374 188.085 131.607C188.393 131.308 188.755 131.061 189.275 130.637Z" fill="#FF664A"/>
<path fill-rule="evenodd" clip-rule="evenodd" d="M146 130.807C146.49 131.138 146.973 131.369 147.333 131.726C151.18 135.512 155.014 139.307 158.828 143.123C160.058 144.355 160.332 146.052 159.624 147.5C158.93 148.921 157.404 149.837 155.81 149.544C155.001 149.397 154.112 148.989 153.531 148.42C148.387 143.41 143.294 138.346 138.212 133.272C136.619 131.68 136.615 129.448 138.212 127.851C143.291 122.773 148.392 117.717 153.508 112.68C155.115 111.098 157.461 111.132 158.941 112.661C160.421 114.192 160.36 116.473 158.744 118.09C154.897 121.93 151.028 125.746 147.173 129.574C146.868 129.874 146.582 130.194 146 130.807Z" fill="#FF664A"/>
<path fill-rule="evenodd" clip-rule="evenodd" d="M51.7602 15.3672C52.2291 15.7138 52.8145 15.9742 53.1288 16.4333C53.4244 16.8572 53.5586 17.4926 53.5586 18.0438C53.5841 27.6252 53.5762 37.2065 53.5713 46.7967C53.5713 52.2732 53.5762 57.7537 53.5762 63.239C53.5762 64.7681 52.5835 65.7882 51.0876 65.7911C44.0819 65.7911 37.0733 65.7911 30.0696 65.7911C28.5679 65.7911 27.585 64.7828 27.585 63.236C27.5801 48.1233 27.585 33.0087 27.5801 17.894C27.5801 16.5763 28.2937 15.8292 29.398 15.3681C36.855 15.3672 44.3052 15.3672 51.7602 15.3672ZM30.2135 20.1173C30.2135 33.2564 30.2135 46.3592 30.2135 59.462C37.8555 59.462 43.3242 59.462 50.9486 59.462C50.9486 46.3386 50.9486 33.2378 50.9486 20.1173C43.3203 20.1173 37.8516 20.1173 30.2135 20.1173ZM40.5742 61.0636C39.7401 61.0695 39.0547 61.7763 39.0518 62.6309C39.0508 63.5012 39.7636 64.2267 40.6094 64.215C41.4328 64.1983 42.1141 63.4689 42.1092 62.6153C42.0975 61.7665 41.4024 61.0567 40.5742 61.0636Z" fill="white"/>
<path fill-rule="evenodd" clip-rule="evenodd" d="M164.48 153.88C164.403 153.88 164.326 153.88 164.247 153.88C164.06 153.759 163.877 153.621 163.676 153.52C159.737 151.517 155.996 149.211 152.569 146.42C149.069 143.571 146.032 140.314 143.647 136.483C140.046 130.696 138.476 124.358 138.44 117.608C138.413 112.733 138.437 107.859 138.42 102.982C138.42 102.593 138.537 102.324 138.851 102.119C140.075 101.326 141.249 100.437 142.536 99.7587C147.661 97.0643 153.212 95.8737 158.941 95.3744C159.901 95.2898 160.857 95.217 161.818 95.1406C163.516 95.1406 165.214 95.1406 166.913 95.1406C167.293 95.1765 167.672 95.2305 168.056 95.2534C172.697 95.5119 177.25 96.252 181.647 97.7892C184.587 98.8154 187.377 100.138 189.836 102.08C190.164 102.336 190.309 102.609 190.306 103.041C190.288 107.458 190.28 111.873 190.299 116.289C190.314 119.452 190.098 122.59 189.432 125.687C187.869 132.947 184.181 139.005 178.798 144.099C174.763 147.919 170.146 150.916 165.202 153.437C164.95 153.565 164.72 153.731 164.48 153.88ZM161.742 127.618C161.518 127.41 161.377 127.287 161.244 127.154C159.401 125.331 157.563 123.507 155.714 121.686C154.786 120.773 153.679 120.767 152.754 121.668C151.887 122.513 151.029 123.364 150.178 124.227C149.31 125.103 149.304 126.203 150.18 127.073C153.53 130.402 156.887 133.725 160.246 137.043C161.122 137.908 162.257 137.923 163.12 137.043C168.854 131.213 174.578 125.372 180.294 119.525C181.122 118.678 181.08 117.559 180.239 116.709C179.446 115.901 178.635 115.11 177.83 114.312C176.694 113.185 175.666 113.192 174.551 114.339C170.471 118.54 166.39 122.737 162.312 126.94C162.114 127.144 161.943 127.376 161.742 127.618Z" fill="white"/>
<path d="M198.199 136.403V137.788V137.8V137.811V137.823V137.835V137.847V137.859V137.871V137.883V137.895V137.907V137.919V137.931V137.942V137.954V137.966V137.978V137.99V138.002V138.014V138.026V138.038V138.049V138.061V138.073V138.085V138.097V138.109V138.121V138.133V138.144V138.156V138.168V138.18V138.192V138.204V138.216V138.227V138.239V138.251V138.263V138.275V138.287V138.299V138.31V138.322V138.334V138.346V138.358V138.37V138.381V138.393V138.405V138.417V138.429V138.44V138.452V138.464V138.476V138.488V138.5V138.511V138.523V138.535V138.547V138.559V138.57V138.582V138.594V138.606V138.618V138.629V138.641V138.653V138.665V138.677V138.688V138.7V138.712V138.724V138.735V138.747V138.759V138.771V138.783V138.794V138.806V138.818V138.83V138.841V138.853V138.865V138.877V138.889V138.9V138.912V138.924V138.936V138.947V138.959V138.971V138.983V138.994V139.006V139.018V139.03V139.041V139.053V139.065V139.077V139.088V139.1V139.112V139.123V139.135V139.147V139.159V139.17V139.182V139.194V139.206V139.217V139.229V139.241V139.252V139.264V139.276V139.288V139.299V139.311V139.323V139.334V139.346V139.358V139.37V139.381V139.393V139.405V139.416V139.428V139.44V139.451V139.463V139.475V139.487V139.498V139.51V139.522V139.533V139.545V139.557V139.568V139.58V139.592V139.603V139.615V139.627V139.638V139.65V139.662V139.673V139.685V139.697V139.709V139.72V139.732V139.744V139.755V139.767V139.779V139.79V139.802V139.814V139.825V139.837V139.849V139.86V139.872V139.883V139.895V139.907V139.918V139.93V139.942V139.953V139.965V139.977V139.988V140V140.012V140.023V140.035V140.047V140.058V140.07V140.082V140.093V140.105V140.116V140.128V140.14V140.151V140.163V140.175V140.186V140.198V140.209V140.221V140.233V140.244V140.256V140.268V140.279V140.291V140.303V140.314V140.326V140.337V140.349V140.361V140.372V140.384V140.395V140.407V140.419V140.43V140.442V140.454V140.465V140.477V140.488V140.5V140.512V140.523V140.535V140.546V140.558V140.57V140.581V140.593V140.605V140.616V140.628V140.639V140.651V140.663V140.674V140.686V140.697V140.709V140.721V140.732V140.744V140.755V140.767V140.779V140.79V140.802V140.813V140.825V140.836V140.848V140.86V140.871V140.883V140.894V140.906V140.918V140.929V140.941V140.952V140.964V140.976V140.987V140.999V141.01V141.022V141.034V141.045V141.057V141.068V141.08V141.091V141.103V141.115V141.126V141.138V141.149V141.161V141.173V141.184V141.196V141.207V141.219V141.23V141.242V141.254V141.265V141.277V141.288V141.3V141.311V141.323V141.335V141.346V141.358V141.369V141.381V141.392V141.404V141.416V141.427V141.439V141.45V141.462V141.473V141.485V141.497V141.508V141.52V141.531V141.543V141.554V141.566V141.578V141.589V141.601V141.612V141.624V141.635V141.647V141.659V141.67V141.682V141.693V141.705V141.716V141.728V141.74V141.751V141.763V141.774V141.786V141.797V141.809V141.821V141.832V141.844V141.855V141.867V141.878V141.89V141.902V141.913V141.925V141.936V141.948V141.959V141.971V141.982V141.994V142.006V142.017V142.029V142.04V142.052V142.063V142.075V142.087V142.098V142.11V142.121V142.133V142.144V142.156V142.168V142.179V142.191V142.202V142.214V142.225V142.237V142.249V142.26V142.272V142.283V142.295V142.306V142.318V142.33V142.341V142.353V142.364V142.376V142.387V142.399V142.411V142.422V142.434V142.445V142.457V142.468V142.48V142.492V142.503V142.515V142.526V142.538V142.549V142.561V142.573V142.584V142.596V142.607V142.619V142.63V142.642V142.654V142.665V142.677V142.688V142.7V142.711V142.723V142.735V142.746V142.758V142.769V142.781V142.793V142.804V142.816V142.827V142.839V142.85V142.862V142.874V142.885V142.897V142.908V142.92V142.932V142.943V142.955V142.966V142.978V142.989V143.001V143.013V143.024V143.036V143.047V143.059V143.071V143.082V143.094V143.105V143.117V143.129V143.14V143.152V143.163V143.175V143.187V143.198V143.21V143.221V143.233V143.245V143.256V143.268V143.279V143.291V143.303V143.314V143.326V143.337V143.349V143.361V143.372V143.384V143.395V143.407V143.419V143.43V143.442V143.453V143.465V143.477V143.488V143.5V143.511V143.523V143.535V143.546V143.558V143.57V143.581V143.593V143.604V143.616V143.628V143.639V143.651V143.663V143.674V143.686V143.697V143.709V143.721V143.732V143.744V143.756V144.916L197.141 144.439C196.248 144.037 195.351 143.633 194.444 143.224C193.557 142.825 192.661 142.42 191.749 142.009L190.508 141.451L191.643 140.7C192.003 140.462 192.345 140.236 192.692 140.006C192.429 139.77 192.181 139.553 191.909 139.346M198.199 136.403L198.166 147.199L198.172 146.449C197.7 146.446 197.256 146.61 196.927 146.952C196.604 147.287 196.453 147.73 196.435 148.184M198.199 136.403L197.039 137.159M198.199 136.403L197.039 137.159M191.909 139.346L192.363 138.749M191.909 139.346L192.363 138.749M191.909 139.346C185.079 134.144 175.199 137.944 173.6 146.386L173.6 146.386C172.375 152.852 176.89 159.071 183.419 159.91C189.739 160.722 195.462 156.36 196.336 150.053C196.394 149.63 196.405 149.218 196.417 148.76C196.422 148.576 196.426 148.386 196.435 148.184M192.363 138.749C192.699 139.005 193.014 139.286 193.338 139.578L192.363 138.749ZM196.435 148.184L197.184 148.215L196.435 148.184C196.435 148.184 196.435 148.184 196.435 148.184ZM197.039 137.159C196.632 137.425 196.255 137.671 195.888 137.91C195.804 137.964 195.721 138.019 195.638 138.073C192.013 134.473 187.597 132.962 182.482 133.758L182.482 133.758C175.535 134.84 170.244 140.697 169.988 147.944C169.815 152.816 171.678 156.898 175.417 160.034L175.417 160.034M197.039 137.159L175.417 160.034M175.417 160.034C181.183 164.871 189.917 164.53 195.312 159.262L175.417 160.034ZM199.839 149.528C199.839 149.528 199.839 149.528 199.839 149.528L199.092 149.467L199.839 149.529C199.839 149.529 199.839 149.529 199.839 149.528Z" fill="white" stroke="#FF664A" stroke-width="1.5"/>
<path d="M177.533 147.447C177.481 147.541 177.41 147.646 177.316 147.762C177.215 147.885 177.093 148.019 176.946 148.166L176.946 148.166L176.944 148.168L175.081 150.045C174.922 150.192 174.789 150.376 174.708 150.597C174.649 150.761 174.609 150.941 174.609 151.131V151.577V152.327H175.359H179.933H180.683V151.577V150.828C180.709 150.83 180.735 150.831 180.76 150.831H182.628V151.577V152.327H183.378H184.584H184.764L184.595 152.77H185.683H186.273C186.417 152.77 186.558 152.749 186.694 152.709C186.838 152.669 186.975 152.607 187.102 152.523C187.233 152.439 187.347 152.336 187.444 152.218C187.549 152.093 187.631 151.955 187.691 151.807L187.695 151.798L187.698 151.789L189.624 146.701L189.646 146.726L189.675 146.752C189.755 146.824 189.844 146.885 189.94 146.933L189.972 146.949L190.006 146.962C190.131 147.01 190.263 147.034 190.396 147.034H191.921L189.823 151.243L189.282 152.327H190.494H191.504C191.807 152.327 192.138 152.256 192.42 152.035C192.62 151.881 192.783 151.687 192.898 151.457L192.902 151.45L192.906 151.442L195.163 146.66C195.212 146.56 195.259 146.448 195.302 146.331L195.302 146.331L195.305 146.325C195.384 146.105 195.407 145.869 195.407 145.65V145.069V144.319H194.657H190.525L190.593 144.141H189.507H188.917C188.625 144.141 188.337 144.216 188.081 144.385C187.814 144.56 187.632 144.807 187.522 145.086L187.522 145.086L187.52 145.093L186.004 149.072V149.049V148.299H185.334V145.069V144.319H184.584H184.441L184.495 143.841L184.154 144.319H183.262H182.885L182.66 144.622L180.536 147.477C180.575 147.285 180.594 147.088 180.594 146.887C180.594 146.522 180.529 146.169 180.388 145.838C180.252 145.508 180.051 145.218 179.788 144.977C179.526 144.736 179.218 144.558 178.877 144.436C178.525 144.306 178.147 144.248 177.754 144.248C177.389 144.248 177.036 144.297 176.7 144.401C176.355 144.505 176.039 144.666 175.76 144.888L175.76 144.888L175.755 144.892C175.477 145.116 175.249 145.392 175.069 145.708L175.069 145.708L175.066 145.715C174.88 146.048 174.765 146.421 174.707 146.819L174.601 147.539L175.318 147.666L176.051 147.796L176.051 147.796L176.064 147.798C176.315 147.838 176.653 147.849 176.965 147.684C177.294 147.51 177.467 147.21 177.561 146.963L177.567 146.948L177.572 146.932C177.576 146.92 177.581 146.908 177.607 146.889L177.607 146.889L177.608 146.887C177.609 146.887 177.609 146.887 177.609 146.887C177.61 146.886 177.61 146.886 177.615 146.884C177.62 146.883 177.637 146.878 177.672 146.878C177.673 146.893 177.674 146.911 177.674 146.932C177.674 147.027 177.662 147.111 177.642 147.185C177.62 147.263 177.586 147.35 177.533 147.447ZM179.235 149.577C179.332 149.475 179.427 149.375 179.518 149.275L179.583 149.583C179.538 149.579 179.494 149.577 179.451 149.577H179.235ZM185.334 150.83V150.775C185.342 150.772 185.35 150.769 185.358 150.766L185.334 150.83Z" fill="white" stroke="#FF664A" stroke-width="1.5"/>
</svg>
