<svg width="151" height="132" viewBox="0 0 151 132" fill="none" xmlns="http://www.w3.org/2000/svg">
<path d="M128.272 89.0713L127.465 83.6313C126.572 83.3413 125.713 82.9855 124.884 82.5425L124.791 82.6084V99.0684C124.791 105.701 119.099 111.704 114.328 115.537C110.766 118.431 107.122 120.583 104.858 121.809V69.7812H110.428V63.9253C110.428 63.4833 110.77 62.9473 111.204 62.8623L116.543 62.0254C116.658 61.6694 116.838 61.3402 116.971 60.9922H79.2131C77.6521 60.9922 76.3691 62.3194 76.3691 63.9194V99.0693C76.3691 118.338 102.582 130.507 103.693 131.012C104.054 131.194 104.448 131.283 104.849 131.283C105.251 131.283 105.649 131.197 106.005 131.012C107.12 130.506 133.338 118.337 133.338 99.0693V89.9482H129.303C128.788 89.9602 128.327 89.5723 128.272 89.0713Z" fill="#FF664A"/>
<path d="M149.645 63.7539L145.566 63.1079C145.343 62.3529 145.027 61.5967 144.652 60.8657C145.41 59.7837 146.243 58.7678 146.987 57.7158L147.173 57.1929L147.014 56.6831C146.083 55.3371 144.518 53.9057 143.332 52.7827L142.774 52.5571L142.235 52.7651L139.075 55.2178C138.428 54.8748 137.755 54.5931 137.063 54.3701L136.438 50.1431C136.397 49.7591 136.04 49.457 135.634 49.457H130.679C130.278 49.457 129.961 49.7357 129.875 50.0938C129.519 51.4768 129.388 52.9677 129.224 54.3657C128.536 54.5917 127.839 54.8869 127.203 55.2319L124.116 52.7729L123.54 52.5498C122.782 52.5498 119.767 55.9001 119.239 56.6621L119.038 57.186L119.257 57.7251C120.079 58.7661 120.886 59.7999 121.644 60.9009C121.421 61.3249 121.276 61.7701 121.106 62.2021C120.994 62.4741 120.853 62.7299 120.774 63.0049L116.625 63.6528C116.291 63.7188 116.023 64.1321 116.023 64.4771V69.0288V69.5679C116.023 69.9619 116.291 70.33 116.666 70.396L120.749 71.021C120.969 71.795 121.288 72.5531 121.663 73.2861C120.905 74.3681 120.08 75.3841 119.32 76.4341L119.142 76.9668L119.302 77.4868C120.236 78.8258 121.8 80.2348 122.983 81.3418L123.545 81.6001L124.1 81.3921L127.17 78.9858L127.248 78.9458C127.888 79.2788 128.561 79.5577 129.252 79.7817L129.877 84.0068C129.925 84.3918 130.274 84.6938 130.681 84.6938H133.815H135.636C136.038 84.6938 136.358 84.4157 136.44 84.0537C136.797 82.6707 136.93 81.1841 137.086 79.7861C137.786 79.5581 138.47 79.265 139.112 78.915L142.199 81.3989L142.778 81.6001C143.534 81.6001 146.549 78.2308 147.085 77.4868L147.289 76.9668L147.066 76.3911C146.24 75.3611 145.44 74.3492 144.678 73.2222C145.028 72.5572 145.303 71.8658 145.545 71.1328L149.672 70.4932C150.036 70.4182 150.293 70.014 150.293 69.668V64.5771C150.295 64.1891 150.035 63.8199 149.645 63.7539ZM133.813 72.8857L133.17 72.9487C130.021 72.9487 127.447 70.3118 127.447 67.0698C127.447 65.0538 128.447 63.2699 129.965 62.2109C130.89 61.5669 131.98 61.2031 133.17 61.2031C136.308 61.2031 138.873 63.8388 138.873 67.0698C138.873 70.0778 136.65 72.5467 133.813 72.8857Z" fill="#FF664A"/>
<path d="M55.1767 47.2874V48.6433C70.0797 48.6433 83.5757 46.5733 93.4547 43.1863C98.3997 41.4873 102.442 39.4672 105.339 37.1252C106.785 35.9532 107.949 34.7003 108.767 33.3323C109.585 31.9593 110.054 30.4689 110.054 28.9299V19.7571C110.054 18.2101 109.585 16.7191 108.767 15.3511C107.325 12.9561 104.864 10.8932 101.614 9.05615C91.8647 3.57315 74.7427 0.0510625 55.1767 0.0390625C40.2697 0.0390625 26.7737 2.10714 16.8947 5.49414C11.9537 7.19314 7.9127 9.21218 5.0147 11.5552C3.5727 12.7262 2.4057 13.9831 1.5877 15.3511C0.767703 16.7191 0.300713 18.2101 0.304713 19.7571V28.9299C0.304713 30.4689 0.767703 31.9593 1.5877 33.3323C3.0257 35.7233 5.49471 37.7903 8.73971 39.6233C18.4897 45.1073 35.6007 48.6323 55.1767 48.6433V47.2874V45.9333C40.5127 45.9333 27.2357 43.874 17.7317 40.613C12.9797 38.985 9.1797 37.0449 6.6517 34.9919C5.3867 33.9769 4.4467 32.9249 3.8377 31.9099C3.2317 30.8879 2.9487 29.913 2.9447 28.925V19.7561C2.9447 18.7701 3.2267 17.7921 3.8377 16.7771C4.8927 14.9891 7.0017 13.1262 10.0177 11.4302C19.0557 6.31118 35.9447 2.74205 55.1777 2.74805C69.8387 2.74805 83.1197 4.80512 92.6217 8.06812C97.3757 9.69712 101.183 11.6312 103.712 13.6782C104.972 14.7042 105.917 15.7501 106.523 16.7761C107.128 17.7921 107.408 18.7691 107.416 19.7551V28.9241C107.408 29.9121 107.137 30.8829 106.523 31.9089C105.466 33.6929 103.359 35.5524 100.343 37.2444C91.2957 42.3674 74.4117 45.9404 55.1777 45.9324V47.2874H55.1767Z" fill="#D1D4D3"/>
<path d="M110.05 29.2983V29.2354L110.046 29.1616L110.027 29.0342L109.971 28.7935L109.778 28.4375L109.451 28.1172C109.283 28.0062 109.015 27.8984 108.73 27.8984C108.35 27.8984 108.048 28.0722 107.893 28.1992C107.583 28.4842 107.562 28.6315 107.513 28.7275L107.435 28.9985L107.414 29.1626L107.398 29.4673C107.361 30.5303 107.238 34.6883 106.929 38.6553C106.777 40.6373 106.573 42.5746 106.327 44.0166C106.204 44.7346 106.067 45.3253 105.94 45.6973L105.805 46.0322V46.0366L106.375 46.4683L106.059 45.8242L105.805 46.0366L106.375 46.4683L106.059 45.8242C94.4061 51.9662 73.3751 55.1273 55.1681 55.1123C34.3501 55.1333 13.4241 51.2084 2.37308 43.1694L0.289062 41.6675V56.4746C0.289062 58.0166 0.756066 59.5115 1.57407 60.8755C3.01607 63.2665 5.48208 65.3295 8.73108 67.1675C18.4801 72.6435 35.5911 76.1656 55.1641 76.1836C60.2431 76.1836 65.1351 75.9274 69.7991 75.4814L70.9921 75.3662V58.8906C70.9921 58.3696 71.2081 57.8825 71.5571 57.5215C71.9101 57.1625 72.3781 56.9385 72.8881 56.9385V54.2246C70.3861 54.2396 68.3631 56.3186 68.3521 58.8906V74.1274H69.6751L69.5481 72.7773C64.9721 73.2153 60.1571 73.4653 55.1631 73.4653C40.5031 73.4653 27.2201 71.4124 17.7141 68.1484C12.9661 66.5244 9.16508 64.5836 6.63608 62.5396C5.37308 61.5186 4.43308 60.4713 3.82608 59.4473C3.21608 58.4293 2.93408 57.4526 2.93008 56.4746V44.2793H1.61008L0.851074 45.3975C12.8211 54.0015 34.0101 57.8006 55.1631 57.8276C73.6901 57.8086 94.8431 54.7262 107.259 48.2422C107.738 47.9732 107.935 47.6475 108.103 47.3535C108.392 46.8065 108.56 46.2185 108.724 45.5005C109.263 43.0275 109.576 39.0422 109.769 35.5962C109.869 33.8782 109.932 32.3052 109.972 31.1592C109.995 30.5872 110.01 30.1262 110.025 29.8022L110.033 29.4395L110.037 29.3574L109.795 29.3413L110.037 29.3643V29.3564L109.795 29.3403L110.037 29.3633L108.85 29.2773L110.033 29.4155L110.037 29.3633L108.85 29.2773L110.033 29.4155L108.739 29.2632L110.013 29.5376L110.033 29.4155L108.739 29.2632L110.013 29.5376L108.724 29.2632L109.951 29.7495L110.014 29.5376L108.725 29.2632L109.952 29.7495L108.725 29.2554L109.777 30.0776L109.952 29.7495L108.722 29.2554L109.771 30.0776L108.722 29.2554V30.6152V29.2554L108 30.3975C108.167 30.5125 108.432 30.6162 108.722 30.6162V29.2563L108 30.3984L108.722 29.2563L107.539 29.8696C107.599 29.9766 107.673 30.1595 108 30.3975L108.722 29.2554L107.539 29.8687L108.718 29.2632L107.424 29.5376L107.539 29.8687L108.718 29.2632L107.424 29.5376L108.699 29.2632L107.397 29.3267L107.423 29.5273L108.698 29.2632L107.396 29.3267L108.359 29.2783L107.396 29.2896V29.3267L108.359 29.2783L107.396 29.2896V29.2974H110.047V29.2983H110.05Z" fill="#D1D4D3"/>
<path d="M69.683 83.3506L69.568 81.9976C64.842 82.4166 60.012 82.6362 55.172 82.6362C34.354 82.6622 13.428 78.7322 2.37695 70.6982L0.292969 69.1953V83.9902C0.292969 85.5412 0.759972 87.0315 1.57797 88.3955C3.01997 90.7945 5.48595 92.8534 8.73495 94.6904C18.484 100.168 35.595 103.692 55.168 103.705C60.339 103.705 65.3259 103.448 70.0699 102.976L71.431 102.834L71.252 101.439C71.114 100.419 71.003 99.4575 71.003 98.5015V81.8584L69.567 81.9844L69.683 83.3506H68.3589V98.5122C68.3589 99.6912 68.5019 100.782 68.6299 101.808L69.943 101.628L69.813 100.278C65.158 100.743 60.257 100.997 55.171 100.997C40.509 101.001 27.23 98.9396 17.726 95.6836C12.974 94.0516 9.16897 92.1103 6.64597 90.0693C5.38097 89.0473 4.44096 88.0025 3.83096 86.9795C3.22496 85.9605 2.94196 84.9905 2.93896 84.0005V71.8154H1.61896L0.859955 72.9233C12.828 81.5273 34.019 85.3345 55.172 85.3535C60.087 85.3535 64.995 85.1306 69.795 84.7036L69.683 83.3506H68.3589H69.683Z" fill="#D1D4D3"/>
<path d="M72.809 110.546L72.668 109.196C66.963 109.825 61.074 110.164 55.17 110.164C34.352 110.19 13.426 106.256 2.375 98.2246L0.291016 96.7227V111.525C0.291016 113.068 0.758019 114.558 1.57602 115.923C3.01802 118.32 5.484 120.382 8.733 122.223C18.478 127.7 35.593 131.23 55.166 131.238C67.172 131.238 78.23 129.877 87.258 127.587L89.994 126.893L87.726 125.174C82.542 121.259 77.162 116.061 73.972 109.9L73.546 109.093L72.663 109.19L72.809 110.546L71.645 111.187C75.137 117.89 80.802 123.309 86.165 127.369L86.946 126.278L86.626 124.958C77.855 127.182 66.983 128.527 55.171 128.527C40.509 128.527 27.233 126.479 17.73 123.211C12.978 121.578 9.17702 119.646 6.64902 117.598C5.38402 116.576 4.44502 115.526 3.83502 114.507C3.22902 113.488 2.94602 112.506 2.94202 111.528V99.3433H1.62302L0.860016 100.453C12.832 109.056 34.019 112.854 55.172 112.881C61.172 112.881 67.162 112.536 72.951 111.894L72.809 110.546L71.645 111.187L72.809 110.546Z" fill="#D1D4D3"/>
</svg>
