<svg width="124" height="20" viewBox="0 0 124 20" fill="none" xmlns="http://www.w3.org/2000/svg">
<path d="M100.132 12.3019C100.132 13.1249 99.415 13.5829 98.179 13.5829H95.023V10.9989H98.134C99.501 10.9989 100.132 11.5009 100.132 12.2629V12.3019V12.3019ZM95.022 5.81291H97.67C98.889 5.81291 99.522 6.25191 99.522 7.01391V7.05391C99.522 7.87491 98.827 8.27691 97.586 8.27691H95.022V5.81291ZM101.288 9.37891C102.593 8.83991 103.558 7.87591 103.558 6.25291V6.21391C103.558 5.25291 103.203 4.51291 102.61 3.95191C101.752 3.12991 100.447 2.68591 98.597 2.68591H91.781C91.424 2.68591 91.043 2.98291 91.043 3.41791V15.9819C91.043 16.3529 91.391 16.7099 91.781 16.7099H98.64C102.149 16.7099 104.21 15.2429 104.21 12.8429V12.8009C104.21 10.8979 103.077 9.93791 101.288 9.37891Z" fill="#36424A"/>
<path d="M28.4072 16.709C28.8132 16.709 29.1432 16.379 29.1432 15.972V14.138C29.1432 13.732 28.8132 13.402 28.4072 13.402L21.3462 13.404V11.18H27.7252C28.1042 11.18 28.4072 10.876 28.4072 10.497V8.79797C28.4072 8.42097 28.1042 8.11397 27.7252 8.11397H21.3462V5.99397H28.4072C28.8132 5.99397 29.1432 5.66697 29.1432 5.26097V3.42496C29.1432 3.01896 28.8132 2.69197 28.4072 2.69197L18.2022 2.68896C17.7062 2.68896 17.3062 3.08997 17.3062 3.58397L17.3142 15.813C17.3142 16.309 17.7142 16.708 18.2072 16.708L28.4072 16.709Z" fill="#36424A"/>
<path d="M47.1279 18.8799L40.5299 9.6689L44.7449 3.79189C44.8149 3.67689 44.8449 3.5619 44.8449 3.4299C44.8449 3.0499 44.5319 2.6939 44.1099 2.6939C44.0819 2.6939 41.4179 2.69189 41.3809 2.69189C41.1369 2.69189 40.9179 2.8249 40.7349 3.0819L38.2669 6.5199L35.8079 3.08789C35.6359 2.84989 35.4249 2.6939 35.1599 2.6939C35.1349 2.6939 32.4569 2.6939 32.4259 2.6939C32.0249 2.6939 31.6879 3.05489 31.6919 3.42789C31.6919 3.64889 31.7939 3.79189 31.9069 3.94889L36.0109 9.6699L31.7509 15.6129C31.6809 15.7099 31.6519 15.8369 31.6519 15.9679C31.6519 16.3529 31.9839 16.7019 32.3869 16.7019C32.4079 16.7019 35.0879 16.7029 35.1139 16.7029C35.3289 16.7029 35.5589 16.5779 35.6799 16.4319L38.2679 12.8199L43.2429 19.7599C43.3599 19.8979 43.5669 19.9979 43.7819 19.9979C43.8019 19.9979 46.4809 19.9989 46.5089 19.9989C46.9389 19.9989 47.2429 19.6449 47.2429 19.2639C47.2409 19.1219 47.1979 18.9919 47.1279 18.8799Z" fill="#36424A"/>
<path d="M58.898 2.68791L47.514 2.68591C47.092 2.68591 46.752 3.02591 46.752 3.44491V5.33091C46.752 5.74691 47.092 6.09191 47.514 6.09191H51.166L51.162 15.8019C51.162 16.3019 51.567 16.7109 52.065 16.7109H54.343C54.843 16.7109 55.247 16.3019 55.247 15.8019L55.243 6.09191H58.896C59.313 6.09191 59.655 5.74691 59.655 5.33091V3.44491C59.657 3.02591 59.315 2.68791 58.898 2.68791Z" fill="#36424A"/>
<path d="M78.9679 11.1799L80.6319 7.19592L82.2729 11.1799H78.9679V11.1799ZM88.4949 15.7439L82.8369 3.00092C82.7219 2.76692 82.4909 2.59192 82.2099 2.59192H79.1939C78.9819 2.59192 78.6549 2.72992 78.5689 2.94292L72.9619 15.5759C72.8779 15.7479 72.8389 15.8929 72.8389 15.9799C72.8389 16.3649 73.1789 16.7109 73.5769 16.7109H76.2679C76.6479 16.7109 76.8379 16.4519 76.9769 16.1579L77.7969 14.2069H83.4749L84.3849 16.3329C84.4819 16.5499 84.7439 16.7109 85.0249 16.7109H87.7989C88.1859 16.7109 88.5329 16.3619 88.5329 15.9799C88.5339 15.8959 88.5229 15.8239 88.4949 15.7439Z" fill="#36424A"/>
<path d="M113.454 7.97595C111.413 7.53295 110.909 7.25395 110.909 6.61395V6.57495C110.909 6.07395 111.391 5.67395 112.382 5.67395C113.491 5.67395 114.714 6.03195 115.89 6.67995C116.353 6.93495 116.656 6.81795 116.89 6.53595L118.132 4.86095C118.359 4.49895 118.249 4.09095 117.788 3.79695C116.335 2.90995 114.608 2.44995 112.487 2.44995C108.956 2.44995 106.79 4.33095 106.79 6.93395V6.97295C106.79 9.85795 109.206 10.698 112.339 11.379C114.337 11.823 114.819 12.1439 114.819 12.7229V12.762C114.819 13.364 114.232 13.7229 113.139 13.7229C111.662 13.7229 110.248 13.285 108.951 12.452C108.904 12.424 108.861 12.3929 108.818 12.3619C108.716 12.3119 108.603 12.278 108.481 12.278C108.287 12.278 108.111 12.357 107.981 12.479C107.981 12.479 106.576 14.0649 106.541 14.1199C106.467 14.2329 106.42 14.372 106.42 14.52C106.42 14.747 106.523 14.948 106.686 15.081C106.717 15.104 106.745 15.1279 106.775 15.1479C108.503 16.3429 110.698 16.9479 112.991 16.9479C116.565 16.9479 118.94 15.2439 118.94 12.3829V12.3439C118.94 9.71795 116.839 8.67695 113.454 7.97595Z" fill="#36424A"/>
<path d="M13.017 2.69092H10.765C10.269 2.69092 9.87 3.08892 9.87 3.58292L9.864 10.0989L4.094 3.04292C3.951 2.85692 3.797 2.69092 3.469 2.69092H0.895C0.4 2.69092 0 3.09092 0 3.58692V15.8159C0 16.3099 0.399 16.7119 0.895 16.7119H3.147C3.641 16.7119 4.042 16.3109 4.042 15.8159L4.038 9.01692L10.161 16.5049C10.275 16.6169 10.47 16.7109 10.675 16.7109H13.007C13.499 16.7109 13.901 16.3089 13.901 15.8139L13.91 3.58392C13.909 3.08992 13.509 2.69092 13.017 2.69092Z" fill="#36424A"/>
<path d="M62.104 15.812C62.104 16.308 62.504 16.71 62.999 16.71H70.193C70.612 16.71 70.952 16.371 70.952 15.951V14.064C70.952 13.644 70.612 13.307 70.193 13.307L66.186 13.303V3.59697C66.186 3.09697 65.78 2.69397 65.28 2.69397H63.007C62.507 2.69397 62.105 3.09697 62.105 3.59697V15.812H62.104Z" fill="#36424A"/>
<path d="M121.167 0C121.493 0 121.813 0.0829995 122.126 0.250999C122.437 0.418999 122.679 0.658 122.855 0.972C123.031 1.284 123.117 1.611 123.117 1.951C123.117 2.287 123.031 2.61 122.859 2.922C122.687 3.231 122.445 3.473 122.14 3.643C121.827 3.815 121.507 3.9 121.167 3.9C120.829 3.9 120.507 3.815 120.194 3.643C119.885 3.473 119.647 3.231 119.475 2.922C119.303 2.61 119.217 2.287 119.217 1.951C119.217 1.611 119.303 1.284 119.475 0.972C119.65 0.659 119.897 0.418999 120.209 0.250999C120.518 0.0829995 120.839 0 121.167 0ZM121.167 0.32C120.892 0.32 120.624 0.390001 120.366 0.530001C120.104 0.671001 119.9 0.872 119.757 1.135C119.609 1.396 119.534 1.666 119.534 1.949C119.534 2.23 119.604 2.5 119.751 2.76C119.894 3.018 120.097 3.219 120.355 3.362C120.617 3.508 120.886 3.579 121.168 3.579C121.45 3.579 121.719 3.508 121.977 3.362C122.234 3.219 122.438 3.018 122.581 2.76C122.724 2.5 122.798 2.231 122.798 1.949C122.798 1.666 122.724 1.395 122.579 1.135C122.431 0.871 122.227 0.670001 121.97 0.530001C121.706 0.390001 121.438 0.32 121.167 0.32ZM120.308 3.032V0.927999H121.031C121.276 0.927999 121.457 0.949 121.566 0.986C121.679 1.024 121.765 1.092 121.832 1.188C121.895 1.284 121.93 1.386 121.93 1.495C121.93 1.646 121.875 1.781 121.766 1.894C121.659 2.005 121.516 2.071 121.336 2.083C121.408 2.114 121.469 2.153 121.512 2.195C121.596 2.28 121.698 2.419 121.821 2.617L122.075 3.032H121.665L121.477 2.698C121.329 2.436 121.211 2.27 121.125 2.204C121.064 2.155 120.977 2.133 120.859 2.136H120.66V3.032H120.308ZM120.659 1.847H121.069C121.264 1.847 121.397 1.818 121.469 1.758C121.539 1.7 121.576 1.625 121.576 1.529C121.576 1.466 121.56 1.41 121.524 1.362C121.49 1.313 121.443 1.277 121.38 1.253C121.319 1.23 121.208 1.216 121.044 1.216H120.657V1.847H120.659Z" fill="#36424A"/>
</svg>
