<svg width="101" height="101" viewBox="0 0 101 101" fill="none" xmlns="http://www.w3.org/2000/svg">
<path fill-rule="evenodd" clip-rule="evenodd" d="M53.2596 100.142C51.2326 100.142 49.2106 100.142 47.1856 100.142C45.9786 99.9856 44.7737 99.8136 43.5627 99.6626C37.9087 98.9596 32.5506 97.2694 27.4926 94.6724C20.2756 90.9624 14.2857 85.8054 9.55865 79.1934C4.74765 72.4624 1.78566 65.0053 0.70166 56.8003C0.53966 55.5933 0.383656 54.3882 0.222656 53.1772C0.222656 51.1522 0.222656 49.1295 0.222656 47.1035C0.271656 46.8745 0.33965 46.6446 0.37265 46.4106C0.74965 43.9396 0.99366 41.4453 1.52066 39.0083C3.33166 30.6693 7.19865 23.3483 12.8297 16.9673C15.9877 13.3833 19.6207 10.3212 23.6887 7.78125C29.8017 3.96825 36.4136 1.54763 43.5616 0.619629C44.7726 0.463629 45.9776 0.297625 47.1846 0.140625C49.2096 0.140625 51.2316 0.140625 53.2586 0.140625C54.4636 0.296625 55.6707 0.462629 56.8817 0.619629C62.5067 1.32263 67.8387 2.99222 72.8777 5.57422C80.1277 9.28522 86.1397 14.4574 90.8857 21.0894C95.7097 27.8464 98.6786 35.3266 99.7526 43.5596C99.9026 44.7416 100.066 45.9225 100.222 47.1045C100.222 49.1305 100.222 51.1532 100.222 53.1782C100.056 54.4382 99.8937 55.6984 99.7277 56.9624C98.9957 62.5534 97.3317 67.8655 94.7527 72.8755C91.0357 80.0925 85.8796 86.0822 79.2686 90.8052C72.5396 95.6192 65.0847 98.5896 56.8817 99.6626C55.6717 99.8186 54.4646 99.9846 53.2596 100.142ZM22.0977 32.3975C22.5317 41.1085 24.7836 48.6674 29.0256 55.6304C33.4886 62.9634 39.5237 68.6474 47.0587 72.6904C53.9827 76.4014 61.4136 78.2667 69.2856 78.2437C70.7346 78.2377 72.0296 77.7235 73.0746 76.6455C74.0706 75.6105 75.0957 74.6044 76.1317 73.6084C77.1517 72.6224 77.8636 71.4795 78.1826 70.0835C79.0556 66.2355 76.3016 62.4763 72.9876 61.4663C70.7456 60.7823 68.4696 60.2364 66.2196 59.5854C63.4016 58.7784 60.9756 59.3994 58.9056 61.4604C58.3006 62.0654 57.7277 62.7006 57.0797 63.2476C56.8257 63.4636 56.3567 63.6225 56.0587 63.5405C52.6017 62.6065 49.4766 60.9774 46.6546 58.7944C42.2266 55.3604 39.1406 50.9525 37.2116 45.7085C36.7626 44.4975 36.4756 43.3812 37.8466 42.5542C38.0416 42.4312 38.1847 42.2226 38.3607 42.0566C40.8217 39.8006 41.7437 37.1246 40.7047 33.8496C40.1777 32.1776 39.8066 30.4546 39.3376 28.7656C38.9806 27.4566 38.5607 26.1975 37.7007 25.0835C35.7477 22.5545 32.5206 21.3686 29.6246 22.4116C28.6386 22.7686 27.7296 23.4635 26.9096 24.1455C25.9326 24.9625 25.1327 25.9813 24.1757 26.8213C22.2637 28.4903 21.8627 30.6135 22.0977 32.3975Z" fill="#FF664A"/>
</svg>
