<svg width="1920" height="739" viewBox="0 0 1920 739" fill="none" xmlns="http://www.w3.org/2000/svg">
<mask id="mask0" mask-type="alpha" maskUnits="userSpaceOnUse" x="0" y="0" width="1920" height="739">
<rect width="1920" height="738.306" fill="#C4C4C4"/>
</mask>
<g mask="url(#mask0)">
<path fill-rule="evenodd" clip-rule="evenodd" d="M216.103 442.954C215.695 444.521 215.428 446.14 214.852 447.641C212.389 454.062 206.109 458.373 199.232 458.381C180.24 458.401 161.248 458.408 142.255 458.379C133.604 458.367 126.539 452.108 125.37 443.546C125.343 443.345 125.261 443.151 125.203 442.954C125.203 441.888 125.203 440.824 125.203 439.758C125.263 439.531 125.344 439.309 125.378 439.08C126.183 433.688 128.921 429.564 133.554 426.725C136.421 424.968 139.581 424.23 142.921 424.331C142.956 424.236 142.995 424.181 142.988 424.132C142.961 423.929 142.933 423.724 142.883 423.524C142.155 420.612 142.114 417.687 142.597 414.728C144.623 402.306 157.126 393.737 169.444 396.372C175.816 397.736 180.712 401.234 184.172 406.733C184.585 407.389 184.987 407.488 185.716 407.47C187.506 407.43 189.335 407.358 191.086 407.66C198.933 409.013 205.111 416.729 204.703 424.554C204.671 425.177 204.843 425.402 205.395 425.635C210.493 427.789 213.896 431.494 215.459 436.827C215.74 437.786 215.892 438.781 216.103 439.758C216.103 440.823 216.103 441.888 216.103 442.954ZM143.07 430.031C137.908 429.392 132.204 433.136 131.084 439.222C129.991 445.168 133.571 450.843 139.299 452.329C140.261 452.579 141.281 452.714 142.276 452.714C161.177 452.737 180.08 452.737 198.982 452.728C204.564 452.724 209.328 448.763 210.248 443.417C211.213 437.8 208.146 432.605 202.722 430.667C201.61 430.271 200.503 429.856 199.376 429.508C198.867 429.348 198.665 429.127 198.723 428.575C198.839 427.459 198.853 426.33 198.968 425.213C199.525 419.762 195.93 414.689 190.595 413.294C188.209 412.671 185.904 413.083 183.576 413.524C181.747 413.869 181.712 413.884 180.851 412.257C179.299 409.324 177.446 406.669 174.694 404.7C164.365 397.314 149.575 403.819 148.063 416.41C147.798 418.623 147.982 420.769 148.548 422.907C149.139 425.134 149.724 427.361 150.307 429.59C150.366 429.813 150.395 430.045 150.467 430.422C147.901 430.295 145.465 430.329 143.07 430.031Z" fill="#0081AB"/>
<path fill-rule="evenodd" clip-rule="evenodd" d="M1736.18 494.871C1736.69 496.819 1737.02 498.833 1737.74 500.701C1740.8 508.691 1748.62 514.054 1757.18 514.063C1780.81 514.089 1804.45 514.099 1828.08 514.062C1838.85 514.046 1847.64 506.257 1849.09 495.605C1849.13 495.355 1849.23 495.115 1849.3 494.871C1849.3 493.545 1849.3 492.22 1849.3 490.894C1849.23 490.613 1849.13 490.335 1849.08 490.049C1848.08 483.343 1844.67 478.21 1838.91 474.676C1835.34 472.49 1831.41 471.574 1827.25 471.698C1827.21 471.579 1827.16 471.511 1827.17 471.45C1827.2 471.197 1827.24 470.94 1827.3 470.693C1828.21 467.07 1828.25 463.431 1827.65 459.749C1825.13 444.294 1809.57 433.633 1794.25 436.91C1786.32 438.606 1780.22 442.961 1775.92 449.802C1775.4 450.618 1774.9 450.741 1774 450.72C1771.77 450.669 1769.49 450.579 1767.31 450.955C1757.55 452.638 1749.86 462.239 1750.37 471.974C1750.41 472.752 1750.19 473.03 1749.51 473.32C1743.16 476 1738.93 480.61 1736.98 487.247C1736.63 488.439 1736.44 489.677 1736.18 490.895C1736.18 492.22 1736.18 493.545 1736.18 494.871ZM1827.07 478.792C1833.49 477.995 1840.59 482.654 1841.98 490.226C1843.34 497.625 1838.89 504.685 1831.76 506.535C1830.56 506.846 1829.29 507.011 1828.05 507.013C1804.53 507.041 1781.01 507.042 1757.49 507.028C1750.54 507.024 1744.61 502.095 1743.47 495.444C1742.27 488.458 1746.08 481.991 1752.83 479.583C1754.22 479.089 1755.59 478.573 1757 478.138C1757.63 477.941 1757.88 477.666 1757.81 476.978C1757.67 475.588 1757.65 474.184 1757.51 472.794C1756.81 466.011 1761.29 459.7 1767.93 457.966C1770.9 457.189 1773.76 457.704 1776.66 458.25C1778.94 458.679 1778.98 458.699 1780.05 456.674C1781.98 453.025 1784.29 449.72 1787.71 447.272C1800.57 438.084 1818.97 446.175 1820.85 461.84C1821.18 464.594 1820.95 467.267 1820.25 469.924C1819.52 472.694 1818.79 475.466 1818.06 478.239C1817.99 478.517 1817.95 478.806 1817.86 479.275C1821.05 479.121 1824.09 479.162 1827.07 478.792Z" fill="#0081AB"/>
<path fill-rule="evenodd" clip-rule="evenodd" d="M229.271 701.25C228.294 704.99 227.659 708.859 226.283 712.445C220.396 727.785 205.395 738.082 188.968 738.099C143.598 738.148 98.2272 738.168 52.8572 738.097C32.1917 738.066 15.3117 723.113 12.5201 702.66C12.4554 702.18 12.2585 701.719 12.1211 701.25C12.1211 698.705 12.1211 696.161 12.1211 693.616C12.2635 693.075 12.4565 692.542 12.5373 691.993C14.4614 679.117 21.0021 669.262 32.0706 662.478C38.9184 658.28 46.4711 656.521 54.449 656.759C54.5298 656.532 54.6258 656.401 54.6097 656.283C54.545 655.799 54.4753 655.305 54.3572 654.83C52.6159 647.874 52.522 640.887 53.6744 633.817C58.5143 604.144 88.3809 583.676 117.808 589.968C133.031 593.224 144.726 601.586 152.99 614.72C153.979 616.288 154.938 616.523 156.678 616.483C160.955 616.384 165.324 616.212 169.508 616.934C188.253 620.166 203.012 638.598 202.038 657.289C201.96 658.783 202.371 659.317 203.689 659.874C215.867 665.019 223.998 673.871 227.733 686.613C228.402 688.902 228.766 691.279 229.269 693.617C229.271 696.161 229.271 698.706 229.271 701.25ZM54.8046 670.381C42.4705 668.85 28.8467 677.794 26.1723 692.332C23.5594 706.539 32.114 720.093 45.7954 723.646C48.0931 724.242 50.5333 724.559 52.9078 724.563C98.0616 724.617 143.217 724.619 188.372 724.592C201.707 724.584 213.086 715.122 215.282 702.351C217.587 688.937 210.264 676.522 197.306 671.898C194.65 670.95 192.004 669.959 189.312 669.124C188.095 668.746 187.614 668.217 187.749 666.897C188.028 664.228 188.061 661.533 188.335 658.865C189.663 645.841 181.076 633.723 168.333 630.394C162.631 628.903 157.124 629.891 151.565 630.94C147.197 631.764 147.112 631.802 145.056 627.915C141.35 620.907 136.922 614.563 130.348 609.863C105.673 592.221 70.3413 607.756 66.7296 637.833C66.0953 643.121 66.5366 648.252 67.889 653.353C69.299 658.672 70.6979 663.994 72.0906 669.318C72.231 669.853 72.3048 670.407 72.4744 671.307C66.3438 671.012 60.5252 671.091 54.8046 670.381Z" fill="#0081AB"/>
<path opacity="0.2" fill-rule="evenodd" clip-rule="evenodd" d="M63.3789 93.8231C63.7617 92.0485 64.0374 90.2426 64.5454 88.5054C67.3805 78.8307 73.5536 72.1092 82.8011 68.2025C83.802 67.7804 84.1141 67.3733 84.0555 66.2401C83.3152 52.0497 94.5221 38.0532 108.756 35.5989C111.932 35.0505 115.249 35.1818 118.497 35.2565C119.819 35.2858 120.548 35.108 121.297 33.9173C127.571 23.9446 136.452 17.5957 148.01 15.1233C170.355 10.346 193.033 25.8868 196.708 48.4177C197.584 53.7859 197.51 59.0904 196.189 64.3726C196.098 64.7332 196.047 65.1069 195.997 65.4766C195.986 65.5654 196.057 65.6634 196.119 65.8361C202.178 65.6553 207.911 66.9915 213.112 70.1781C221.516 75.3301 226.482 82.8121 227.942 92.5889C228.005 93.005 228.152 93.41 228.259 93.821C228.259 95.7532 228.259 97.6853 228.259 99.6174C228.155 99.9739 228.006 100.325 227.957 100.689C225.837 116.219 213.021 127.572 197.33 127.596C162.881 127.65 128.431 127.635 93.9807 127.597C81.5073 127.583 70.1176 119.765 65.6473 108.118C64.603 105.395 64.1192 102.458 63.3789 99.6174C63.3789 97.6873 63.3789 95.7552 63.3789 93.8231ZM182.433 76.8824C182.562 76.1997 182.618 75.7795 182.725 75.3725C183.782 71.3305 184.844 67.2895 185.916 63.2515C186.943 59.3772 187.278 55.4827 186.796 51.4679C184.054 28.6309 157.227 16.8342 138.49 30.2298C133.499 33.8001 130.138 38.6157 127.324 43.9364C125.762 46.8886 125.699 46.8593 122.381 46.2341C118.16 45.4383 113.979 44.6878 109.65 45.819C99.973 48.3481 93.4535 57.5481 94.4625 67.438C94.6706 69.464 94.6958 71.5092 94.9069 73.5363C95.0099 74.5392 94.6453 74.9402 93.7202 75.227C91.6759 75.8613 89.667 76.6138 87.6501 77.3339C77.8117 80.8446 72.2497 90.2719 74.001 100.458C75.6685 110.156 84.309 117.34 94.4332 117.346C128.72 117.365 163.006 117.364 197.292 117.324C199.095 117.322 200.946 117.078 202.693 116.627C213.081 113.93 219.576 103.638 217.592 92.8514C215.562 81.8122 205.217 75.02 195.853 76.1825C191.507 76.7198 187.089 76.6582 182.433 76.8824Z" fill="#231F20"/>
<path fill-rule="evenodd" clip-rule="evenodd" d="M30.6554 176.21C9.31121 176.21 -12.028 176.196 -33.3722 176.161C-55.8052 176.124 -74.2972 159.21 -77.3393 135.941C-77.3514 135.855 -77.4282 135.611 -77.4857 135.433C-77.5463 135.243 -77.6049 135.054 -77.6584 134.863L-77.7695 134.464V125.58L-77.6786 125.218C-77.6261 125.008 -77.5675 124.799 -77.509 124.588C-77.4251 124.287 -77.3443 124.002 -77.316 123.803C-75.2425 109.301 -68.1079 98.0549 -56.1122 90.3769C-49.8412 86.3632 -42.8015 84.1725 -35.1609 83.8523C-36.6092 76.8914 -36.7284 69.7447 -35.5285 62.0627C-31.0502 33.4001 -6.46996 11.7852 21.6493 11.7852C25.5479 11.7852 29.4555 12.2164 33.2642 13.0668C49.3757 16.6654 62.0491 25.9665 70.933 40.7124C71.0603 40.9245 71.1512 41.0366 71.1986 41.0902C71.2744 41.1033 71.439 41.1215 71.7551 41.1215L73.0045 41.0932C74.4599 41.0568 75.9244 41.0205 77.3849 41.0205C80.7108 41.0205 83.261 41.2124 85.6537 41.6436C105.933 45.2958 122.179 66.2562 121.187 87.4529C134.45 93.3432 143.191 103.521 147.171 117.707C147.674 119.498 148.012 121.301 148.338 123.044C148.482 123.811 148.625 124.577 148.782 125.34L148.845 125.643V134.423L148.754 134.784C148.449 136.004 148.178 137.239 147.907 138.473C147.291 141.273 146.652 144.168 145.624 146.967C139.214 164.408 122.842 176.141 104.883 176.162C80.1442 176.191 55.3963 176.21 30.6554 176.21ZM-34.1984 104.159C-43.6984 104.159 -55.0891 111.505 -57.4878 125.12C-59.8785 138.697 -52.252 151.493 -39.7473 154.881C-37.6586 155.447 -35.4326 155.747 -33.3106 155.75C-5.61652 155.784 22.0826 155.798 49.7777 155.798C67.9444 155.798 86.1082 155.792 104.275 155.781C116.374 155.774 126.613 146.92 128.621 134.728C130.743 121.83 124.181 110.188 112.293 105.757L110.554 105.105C108.502 104.332 106.38 103.533 104.297 102.857C100.922 101.765 100.44 99.2416 100.631 97.3176C100.767 95.9541 100.842 94.5926 100.922 93.1513C101.001 91.7343 101.081 90.2688 101.225 88.8013C102.421 76.5622 94.6396 64.9624 83.1267 61.8203C81.4056 61.3506 79.6089 61.1224 77.6333 61.1224C74.2195 61.1224 70.6381 61.8274 67.4778 62.4495C65.885 62.7636 64.7831 62.9808 63.762 62.9808C60.2856 62.9808 59.0312 60.5043 57.5789 57.6369C53.2995 49.1873 48.9666 43.6091 43.5308 39.5489C37.1507 34.7858 29.6737 32.2689 21.9079 32.2689C2.43112 32.2689 -13.9813 47.2582 -16.2669 67.1349C-16.8527 72.2424 -16.4911 77.2702 -15.162 82.504C-13.7288 88.1488 -12.3077 93.7967 -10.8917 99.4446C-10.7806 99.889 -10.6998 100.344 -10.6019 100.926C-10.5615 101.169 -10.516 101.439 -10.4594 101.75L-9.77769 105.508L-13.5904 105.316C-15.5367 105.218 -17.4506 105.159 -19.3403 105.102C-23.6146 104.971 -27.6526 104.847 -31.7774 104.312C-32.5702 104.211 -33.3853 104.159 -34.1984 104.159Z" fill="#0081AB"/>
<path d="M21.6519 14.8148C25.2788 14.8148 28.9461 15.2056 32.6074 16.0237C48.0704 19.4769 59.9489 28.3467 68.342 42.2765C69.2813 43.8329 70.1953 44.15 71.7578 44.15C71.8648 44.15 71.9749 44.149 72.088 44.146C73.8464 44.1036 75.619 44.0491 77.3885 44.0491C79.9933 44.0491 82.589 44.1682 85.12 44.6247C104.159 48.0537 119.151 67.6031 118.16 87.4253C118.081 89.008 118.499 89.5766 119.839 90.1664C132.208 95.6224 140.467 105.012 144.259 118.526C144.94 120.952 145.309 123.475 145.82 125.954C145.82 128.653 145.82 131.352 145.82 134.051C144.829 138.017 144.181 142.121 142.785 145.923C136.805 162.192 121.569 173.114 104.883 173.133C80.1428 173.161 55.3949 173.18 30.654 173.18C9.31082 173.18 -12.0233 173.166 -33.3665 173.13C-54.3562 173.097 -71.4989 157.239 -74.3359 135.546C-74.4026 135.038 -74.6016 134.548 -74.7399 134.05C-74.7399 131.351 -74.7399 128.652 -74.7399 125.953C-74.5965 125.38 -74.4006 124.814 -74.3167 124.232C-72.3634 110.574 -65.7207 100.123 -54.4784 92.9267C-47.9347 88.7393 -40.7587 86.8385 -33.1847 86.8385C-32.707 86.8385 -32.2293 86.8466 -31.7485 86.8607C-31.6657 86.6193 -31.5697 86.482 -31.5849 86.3577C-31.6515 85.8406 -31.7202 85.3195 -31.8414 84.8155C-33.6089 77.4375 -33.7069 70.0281 -32.5353 62.5299C-28.2196 34.9136 -4.33119 14.8148 21.6519 14.8148ZM-13.4383 102.29C-19.6669 101.977 -25.5774 102.062 -31.3879 101.308C-32.3181 101.187 -33.2584 101.128 -34.1977 101.128C-45.9106 101.128 -57.9548 110.318 -60.4697 124.592C-63.123 139.658 -54.435 154.035 -40.5385 157.802C-38.2024 158.434 -35.7259 158.772 -33.314 158.776C-5.62094 158.811 22.0751 158.824 49.7692 158.824C67.939 158.824 86.1078 158.818 104.279 158.808C117.823 158.8 129.38 148.763 131.611 135.218C133.952 120.99 126.514 107.822 113.352 102.919C110.655 101.913 107.967 100.862 105.232 99.9755C103.995 99.5755 103.507 99.015 103.645 97.6141C103.927 94.7831 103.961 91.9258 104.239 89.0958C105.589 75.2811 96.8683 62.4299 83.9242 58.898C81.8042 58.3203 79.7115 58.094 77.6329 58.094C74.0313 58.094 70.4731 58.7727 66.8926 59.4777C65.4736 59.7575 64.499 59.9514 63.7617 59.9514C62.1952 59.9514 61.7003 59.0727 60.2802 56.269C56.516 48.8374 52.0205 42.1099 45.3424 37.1225C38.0896 31.7079 29.9299 29.2405 21.9075 29.2405C2.20652 29.2395 -16.6683 44.1197 -19.2761 66.7891C-19.9194 72.3986 -19.472 77.8384 -18.0974 83.25C-16.6642 88.8908 -15.2442 94.5357 -13.8292 100.182C-13.6858 100.749 -13.612 101.336 -13.4383 102.29ZM21.6519 8.75781C7.50595 8.75781 -6.41278 14.0805 -17.5389 23.7441C-28.7791 33.5077 -36.2298 46.9508 -38.5185 61.5967C-39.583 68.4142 -39.6547 74.8387 -38.7255 81.0946C-45.5895 81.8754 -51.9666 84.1307 -57.7427 87.8283C-70.504 95.9961 -78.0951 107.944 -80.307 123.341C-80.3262 123.427 -80.3818 123.625 -80.4232 123.771C-80.4898 124.007 -80.5555 124.245 -80.6151 124.483L-80.7969 125.207V125.954V134.051V134.878L-80.5757 135.675C-80.5131 135.9 -80.4434 136.124 -80.3717 136.348C-80.3535 136.405 -80.3353 136.462 -80.3181 136.517C-77.0033 161.216 -57.2903 179.149 -33.3776 179.187C-13.1989 179.221 7.74432 179.237 30.652 179.237C52.8254 179.237 76.4139 179.222 104.887 179.19C124.108 179.168 141.621 166.639 148.466 148.013C149.565 145.02 150.225 142.024 150.864 139.125C151.139 137.87 151.401 136.685 151.692 135.52L151.873 134.797V134.052V125.955V125.335L151.747 124.729C151.594 123.985 151.453 123.237 151.314 122.489C150.976 120.681 150.625 118.812 150.087 116.892C146.038 102.462 137.354 91.9268 124.259 85.5447C124.253 75.1973 120.633 64.864 113.946 56.1821C106.726 46.8083 96.8683 40.5878 86.1906 38.6648C82.8526 38.0628 79.5661 37.9931 77.3855 37.9931C75.8725 37.9931 74.3757 38.0315 72.9274 38.0679L72.8637 38.0689C63.5738 23.2139 50.4782 13.8098 33.9254 10.1132C29.9016 9.21332 25.7717 8.75781 21.6519 8.75781ZM-6.11685 108.723L-7.47934 101.21C-7.53287 100.914 -7.5763 100.655 -7.61569 100.424C-7.71163 99.8533 -7.80253 99.3139 -7.95403 98.7069C-9.37004 93.057 -10.7921 87.4061 -12.2263 81.7582C-13.4636 76.887 -13.8009 72.2158 -13.2575 67.4789C-11.1476 49.1313 3.97097 35.2954 21.9085 35.2964C29.0168 35.2964 35.8676 37.6063 41.7205 41.9755C46.7624 45.7408 50.8206 50.9928 54.8788 59.005C56.4584 62.1249 58.4258 66.0084 63.7627 66.0084C65.0787 66.0084 66.3664 65.7548 67.9966 65.4337L68.0642 65.4205C71.0871 64.8256 74.5151 64.151 77.6329 64.151C79.3368 64.151 80.873 64.3439 82.3304 64.7418C92.4374 67.5001 99.266 77.7182 98.2116 88.508C98.0621 90.0361 97.9793 91.535 97.8985 92.9843C97.8207 94.3912 97.748 95.7194 97.6187 97.0142C97.2066 101.18 99.3559 104.441 103.368 105.739C105.379 106.391 107.375 107.142 109.487 107.938C110.071 108.157 110.654 108.378 111.237 108.595C121.729 112.504 127.516 122.808 125.635 134.237C123.868 144.96 114.885 152.747 104.276 152.753C86.1068 152.763 67.939 152.769 49.7702 152.769C20.1672 152.769 -7.00666 152.753 -33.3049 152.721C-35.1633 152.719 -37.1176 152.455 -38.9538 151.958C-49.9355 148.981 -56.6206 137.67 -54.5027 125.645C-52.3908 113.656 -42.4645 107.187 -34.1957 107.187C-33.512 107.187 -32.8282 107.23 -32.1646 107.316C-27.8933 107.871 -23.5918 108.003 -19.4316 108.13C-17.5712 108.187 -15.6472 108.245 -13.7413 108.341L-6.11685 108.723Z" fill="#F1F2F2"/>
<path opacity="0.2" fill-rule="evenodd" clip-rule="evenodd" d="M1808.13 172.019C1807.42 174.748 1806.96 177.57 1805.95 180.186C1801.66 191.379 1790.71 198.892 1778.73 198.905C1745.62 198.94 1712.52 198.955 1679.42 198.904C1664.34 198.881 1652.02 187.971 1649.99 173.049C1649.94 172.699 1649.79 172.361 1649.7 172.019C1649.7 170.162 1649.7 168.306 1649.7 166.448C1649.8 166.053 1649.94 165.666 1650 165.265C1651.4 155.87 1656.17 148.68 1664.25 143.73C1669.25 140.666 1674.76 139.383 1680.58 139.556C1680.64 139.391 1680.71 139.296 1680.7 139.21C1680.65 138.854 1680.6 138.496 1680.51 138.149C1679.24 133.074 1679.17 127.977 1680.01 122.818C1683.54 101.167 1705.34 86.2326 1726.81 90.824C1737.91 93.1996 1746.45 99.3009 1752.48 108.884C1753.2 110.027 1753.9 110.199 1755.17 110.17C1758.29 110.099 1761.48 109.974 1764.53 110.5C1778.21 112.858 1788.97 126.307 1788.26 139.944C1788.21 141.034 1788.51 141.424 1789.47 141.83C1798.35 145.583 1804.29 152.042 1807.01 161.339C1807.5 163.008 1807.76 164.744 1808.13 166.448C1808.13 168.306 1808.13 170.162 1808.13 172.019ZM1680.84 149.495C1671.84 148.379 1661.9 154.904 1659.95 165.512C1658.04 175.877 1664.28 185.767 1674.26 188.358C1675.94 188.794 1677.72 189.026 1679.45 189.03C1712.4 189.068 1745.35 189.069 1778.29 189.051C1788.02 189.045 1796.32 182.142 1797.93 172.822C1799.61 163.035 1794.26 153.976 1784.81 150.603C1782.87 149.911 1780.94 149.188 1778.98 148.579C1778.09 148.303 1777.74 147.917 1777.84 146.953C1778.04 145.006 1778.07 143.041 1778.26 141.094C1779.23 131.59 1772.97 122.75 1763.67 120.32C1759.51 119.232 1755.49 119.953 1751.44 120.719C1748.25 121.321 1748.19 121.349 1746.69 118.511C1743.98 113.398 1740.75 108.771 1735.96 105.34C1717.95 92.4683 1692.17 103.803 1689.54 125.749C1689.07 129.608 1689.4 133.35 1690.39 137.072C1691.42 140.953 1692.43 144.837 1693.45 148.72C1693.55 149.111 1693.6 149.515 1693.73 150.171C1689.26 149.954 1685.01 150.014 1680.84 149.495Z" fill="#231F20"/>
<path fill-rule="evenodd" clip-rule="evenodd" d="M1724.13 172.338C1724.96 168.487 1725.56 164.568 1726.66 160.798C1732.82 139.801 1746.22 125.212 1766.28 116.736C1768.46 115.818 1769.14 114.937 1769.01 112.476C1767.4 81.6776 1791.72 51.302 1822.61 45.9753C1829.51 44.7866 1836.71 45.0714 1843.75 45.233C1846.62 45.2986 1848.2 44.9108 1849.83 42.3272C1863.45 20.684 1882.72 6.90368 1907.81 1.53859C1956.3 -8.83002 2005.52 24.8988 2013.5 73.7966C2015.39 85.4469 2015.24 96.9599 2012.37 108.422C2012.17 109.207 2012.06 110.016 2011.95 110.821C2011.93 111.012 2012.08 111.226 2012.22 111.602C2025.37 111.209 2037.81 114.108 2049.1 121.026C2067.34 132.206 2078.11 148.444 2081.28 169.663C2081.42 170.568 2081.74 171.446 2081.97 172.337C2081.97 176.53 2081.97 180.724 2081.97 184.917C2081.75 185.691 2081.42 186.453 2081.31 187.243C2076.71 220.946 2048.9 245.585 2014.85 245.636C1940.08 245.753 1865.31 245.72 1790.55 245.64C1763.48 245.61 1738.76 228.641 1729.06 203.364C1726.79 197.454 1725.74 191.078 1724.13 184.916C1724.13 180.725 1724.13 176.531 1724.13 172.338ZM1982.51 135.572C1982.79 134.089 1982.91 133.177 1983.15 132.295C1985.44 123.523 1987.75 114.752 1990.07 105.988C1992.3 97.58 1993.03 89.1284 1991.98 80.4131C1986.03 30.8517 1927.81 5.25132 1887.14 34.322C1876.31 42.0697 1869.01 52.5221 1862.91 64.0684C1859.52 70.4758 1859.38 70.4132 1852.18 69.0557C1843.02 67.3276 1833.95 65.6995 1824.55 68.1538C1803.55 73.6431 1789.4 93.6097 1791.59 115.073C1792.04 119.472 1792.1 123.91 1792.55 128.307C1792.78 130.483 1791.99 131.354 1789.98 131.976C1785.54 133.353 1781.18 134.986 1776.81 136.549C1755.45 144.168 1743.38 164.629 1747.18 186.733C1750.8 207.779 1769.56 223.373 1791.53 223.386C1865.94 223.427 1940.35 223.424 2014.76 223.337C2018.67 223.331 2022.69 222.806 2026.48 221.823C2049.02 215.972 2063.12 193.634 2058.81 170.225C2054.41 146.266 2031.96 131.527 2011.63 134.049C2002.21 135.218 1992.62 135.086 1982.51 135.572Z" fill="#0081AB" stroke="#F1F2F2" stroke-width="5.6645" stroke-miterlimit="10"/>
<path fill-rule="evenodd" clip-rule="evenodd" d="M1645.28 638.946C1645 640.009 1644.82 641.108 1644.43 642.127C1642.76 646.485 1638.51 649.41 1633.85 649.416C1620.97 649.429 1608.1 649.434 1595.23 649.414C1589.37 649.406 1584.58 645.158 1583.78 639.348C1583.77 639.211 1583.71 639.08 1583.67 638.946C1583.67 638.223 1583.67 637.5 1583.67 636.777C1583.71 636.623 1583.77 636.472 1583.79 636.317C1584.34 632.658 1586.19 629.858 1589.33 627.932C1591.28 626.739 1593.42 626.238 1595.68 626.307C1595.7 626.242 1595.73 626.205 1595.73 626.172C1595.71 626.034 1595.69 625.895 1595.65 625.759C1595.16 623.783 1595.13 621.798 1595.46 619.789C1596.83 611.359 1605.31 605.544 1613.66 607.332C1617.98 608.257 1621.29 610.632 1623.64 614.363C1623.92 614.809 1624.19 614.876 1624.69 614.864C1625.9 614.837 1627.14 614.788 1628.33 614.993C1633.64 615.911 1637.83 621.148 1637.56 626.458C1637.53 626.881 1637.65 627.034 1638.02 627.192C1641.48 628.654 1643.79 631.168 1644.85 634.788C1645.04 635.438 1645.14 636.114 1645.28 636.777C1645.28 637.5 1645.28 638.223 1645.28 638.946ZM1595.78 630.176C1592.28 629.742 1588.42 632.283 1587.66 636.413C1586.92 640.448 1589.34 644.3 1593.23 645.308C1593.88 645.478 1594.57 645.57 1595.24 645.57C1608.05 645.585 1620.87 645.585 1633.68 645.579C1637.46 645.576 1640.69 642.888 1641.31 639.26C1641.97 635.448 1639.89 631.922 1636.21 630.607C1635.46 630.338 1634.71 630.057 1633.94 629.82C1633.6 629.712 1633.46 629.562 1633.5 629.187C1633.58 628.43 1633.59 627.663 1633.67 626.906C1634.05 623.206 1631.61 619.763 1627.99 618.817C1626.38 618.394 1624.81 618.674 1623.24 618.972C1622 619.207 1621.97 619.217 1621.39 618.113C1620.34 616.122 1619.08 614.32 1617.22 612.984C1610.21 607.971 1600.19 612.386 1599.17 620.931C1598.99 622.433 1599.11 623.89 1599.49 625.34C1599.9 626.852 1600.29 628.363 1600.69 629.876C1600.73 630.027 1600.75 630.185 1600.8 630.441C1599.06 630.354 1597.4 630.378 1595.78 630.176Z" fill="#0081AB"/>
<path fill-rule="evenodd" clip-rule="evenodd" d="M1636.19 672.063C1636.45 670.86 1636.64 669.636 1636.98 668.459C1638.91 661.899 1643.09 657.342 1649.36 654.693C1650.04 654.407 1650.25 654.131 1650.21 653.362C1649.71 643.741 1657.31 634.251 1666.96 632.587C1669.11 632.215 1671.36 632.304 1673.56 632.355C1674.46 632.376 1674.95 632.254 1675.46 631.447C1679.72 624.686 1685.74 620.381 1693.58 618.704C1708.72 615.464 1724.1 626.002 1726.59 641.279C1727.19 644.919 1727.14 648.515 1726.24 652.096C1726.18 652.341 1726.14 652.594 1726.11 652.844C1726.1 652.905 1726.15 652.971 1726.19 653.089C1730.3 652.966 1734.19 653.872 1737.71 656.034C1743.41 659.526 1746.78 664.599 1747.77 671.228C1747.81 671.511 1747.91 671.785 1747.98 672.063C1747.98 673.373 1747.98 674.683 1747.98 675.993C1747.91 676.236 1747.81 676.473 1747.78 676.719C1746.34 687.249 1737.65 694.946 1727.01 694.963C1703.66 694.999 1680.3 694.989 1656.94 694.964C1648.48 694.955 1640.76 689.653 1637.73 681.756C1637.02 679.91 1636.69 677.918 1636.19 675.993C1636.19 674.683 1636.19 673.373 1636.19 672.063ZM1716.91 660.578C1717 660.114 1717.04 659.829 1717.11 659.553C1717.83 656.813 1718.55 654.073 1719.27 651.335C1719.97 648.708 1720.2 646.068 1719.87 643.345C1718.01 627.861 1699.82 619.863 1687.12 628.946C1683.73 631.366 1681.46 634.631 1679.55 638.239C1678.49 640.24 1678.45 640.22 1676.2 639.796C1673.33 639.256 1670.5 638.748 1667.56 639.514C1661 641.229 1656.58 647.467 1657.27 654.172C1657.41 655.546 1657.43 656.933 1657.57 658.306C1657.64 658.986 1657.39 659.259 1656.76 659.452C1655.38 659.883 1654.02 660.393 1652.65 660.882C1645.98 663.261 1642.21 669.654 1643.39 676.56C1644.52 683.135 1650.38 688.006 1657.25 688.01C1680.49 688.022 1703.74 688.022 1726.99 687.994C1728.21 687.993 1729.47 687.828 1730.65 687.521C1737.69 685.693 1742.1 678.715 1740.75 671.402C1739.37 663.917 1732.36 659.312 1726.01 660.1C1723.07 660.467 1720.07 660.425 1716.91 660.578Z" fill="#074662"/>
</g>
</svg>
