<svg width="328" height="271" viewBox="0 0 328 271" fill="none" xmlns="http://www.w3.org/2000/svg">
<path fill-rule="evenodd" clip-rule="evenodd" d="M195.966 266.017C196.651 265.419 197.365 264.811 198 264.273C201.22 261.542 204.869 258.445 207.386 255.01C213.77 246.305 217.679 237.782 219.337 228.956C220.691 221.745 219.094 214.948 214.31 207.562L212.099 204.159C208.217 198.193 204.203 192.024 200.723 185.774C194.93 175.369 192.019 163.708 192.071 151.113C192.094 145.045 193.771 138.711 197.195 131.747C202.34 121.287 209.527 112.925 218.558 106.893C225.942 101.959 234.333 99.1035 243.498 98.4045C245.11 98.2805 246.711 98.1065 248.26 97.9385C248.911 97.8685 249.563 97.7965 250.214 97.7305H261.794C262.76 97.8595 263.728 97.9806 264.695 98.1016C266.952 98.3826 269.085 98.6484 271.21 99.0234C281.409 100.821 289.365 104.457 295.531 110.135C298.521 112.888 301.026 116.187 302.979 119.943C307.862 129.329 311.163 139.299 312.792 149.581C313.684 155.213 312.849 159.766 310.164 163.909C308.616 166.303 308.645 168.821 310.247 171.396C310.859 172.379 311.474 173.36 312.089 174.34C316.32 181.086 320.316 187.457 323.281 194.477C323.547 195.107 323.697 195.533 323.781 195.815C323.542 195.964 323.17 196.173 322.603 196.445C320.632 197.388 318.421 198.063 315.944 198.787C312.284 199.847 311.273 202.737 311.55 205.089C311.595 205.469 311.631 205.851 311.668 206.234C311.814 207.757 311.979 209.484 312.609 211.214C313.467 213.568 313.179 215.608 311.645 218.037L311.47 218.313C310.807 219.362 310.181 220.354 309.504 221.083C307.097 223.669 306.351 226.852 307.348 230.287C307.558 231.012 307.72 231.814 307.892 232.663C308.039 233.39 308.187 234.115 308.366 234.833C308.798 236.562 308.442 237.639 307.052 238.808C304.525 240.93 301.784 241.961 298.674 241.961C297.945 241.961 297.184 241.903 296.415 241.787C292.061 241.134 287.625 240.388 283.337 239.666C281.212 239.309 279.086 238.951 276.959 238.603C276.652 238.553 276.343 238.529 276.01 238.529C275.86 238.529 275.71 238.535 275.563 238.541C274.054 238.541 272.599 239.397 271.923 240.747C267.724 249.131 269.104 258.791 275.195 266.018H195.966V266.017Z" fill="#FECB91"/>
<path d="M261.529 101.717C262.419 101.834 263.31 101.946 264.201 102.057C266.407 102.332 268.491 102.592 270.517 102.95C280.073 104.634 287.163 107.848 292.83 113.068C295.478 115.506 297.702 118.437 299.441 121.782C304.125 130.786 307.291 140.348 308.852 150.203C309.581 154.806 308.934 158.472 306.811 161.747C305.428 163.886 303.595 168.257 306.86 173.503C307.474 174.489 308.091 175.474 308.709 176.459C312.386 182.321 315.881 187.894 318.607 193.773C317.449 194.183 316.187 194.561 314.841 194.954C309.924 196.378 307.009 200.638 307.589 205.558C307.631 205.907 307.663 206.259 307.697 206.612C307.857 208.286 308.057 210.369 308.863 212.581C309.176 213.44 309.332 214.23 308.279 215.898L308.098 216.184C307.562 217.032 307.008 217.91 306.584 218.365C303.218 221.982 302.128 226.61 303.516 231.393C303.681 231.962 303.827 232.686 303.982 233.452C304.123 234.147 304.282 234.932 304.485 235.754C302.681 237.269 300.834 237.974 298.672 237.974C298.14 237.974 297.579 237.93 297.005 237.844C292.684 237.195 288.267 236.452 283.995 235.734C281.864 235.376 279.733 235.017 277.594 234.667C277.076 234.582 276.557 234.541 276.007 234.541C275.807 234.541 275.607 234.548 275.369 234.558C272.396 234.602 269.69 236.296 268.355 238.96C264.67 246.317 264.733 254.728 268.043 262.031H206.489C207.977 260.566 209.399 259.007 210.598 257.371C217.343 248.172 221.482 239.119 223.253 229.692C225.296 218.815 221.036 210.617 217.655 205.398C216.918 204.26 216.178 203.123 215.438 201.985C211.593 196.076 207.617 189.965 204.204 183.838C198.747 174.037 196.006 163.033 196.055 151.129C196.076 145.68 197.618 139.916 200.77 133.508C205.669 123.547 212.211 115.926 220.77 110.209C227.673 105.597 235.206 103.036 243.802 102.381C245.475 102.252 247.108 102.074 248.687 101.903C249.264 101.84 249.84 101.778 250.416 101.718H261.529V101.717ZM262.062 93.7422C258.044 93.7422 254.028 93.7422 250.011 93.7422C247.74 93.9722 245.471 94.2532 243.195 94.4282C233.454 95.1712 224.482 98.1392 216.343 103.576C206.316 110.273 198.903 119.238 193.617 129.986C190.351 136.627 188.113 143.618 188.083 151.095C188.029 164.057 190.935 176.392 197.239 187.714C201.442 195.261 206.264 202.47 210.964 209.73C214.644 215.41 216.726 221.26 215.419 228.218C213.702 237.359 209.574 245.283 204.17 252.653C199.476 259.058 189.307 265.029 189.363 267.895C189.408 269.82 191.098 270.015 192.802 270.015C193.237 270.015 193.674 270.002 194.083 270.002C222.692 270.002 251.303 270.002 279.913 270.002C281.995 270.002 282.501 269.901 282.766 269.086C283.195 267.886 282.765 267.653 281.179 266.344C273.749 260.208 271.46 250.57 275.488 242.529C275.656 242.529 275.833 242.513 276.01 242.513C276.112 242.513 276.214 242.518 276.314 242.534C282.818 243.6 289.309 244.749 295.824 245.727C296.792 245.873 297.742 245.946 298.675 245.946C302.685 245.946 306.356 244.596 309.619 241.856C312.156 239.723 313.043 237.092 312.236 233.866C311.848 232.31 311.624 230.71 311.178 229.173C310.579 227.11 310.93 225.402 312.424 223.796C313.429 222.716 314.222 221.42 315.018 220.163C317.05 216.944 317.722 213.589 316.357 209.847C315.763 208.217 315.719 206.377 315.511 204.619C315.381 203.516 315.9 202.948 317.063 202.611C319.528 201.891 322.02 201.141 324.326 200.039C328.212 198.179 328.612 196.847 326.955 192.923C323.414 184.54 318.415 176.97 313.633 169.287C312.907 168.121 312.752 167.247 313.51 166.075C316.916 160.819 317.706 155.114 316.731 148.954C315.01 138.091 311.582 127.834 306.518 118.1C304.385 113.998 301.645 110.34 298.234 107.2C290.766 100.322 281.727 96.8262 271.904 95.0952C268.644 94.5212 265.341 94.1872 262.062 93.7422Z" fill="#FF986D"/>
<path fill-rule="evenodd" clip-rule="evenodd" d="M83.5135 262.524C91.6775 251.33 93.1945 237.065 86.9365 224.569C85.6695 222.039 83.0824 220.44 80.2514 220.44L80.2005 220.436C79.9505 220.425 79.6985 220.415 79.4455 220.415C78.8645 220.415 78.3225 220.457 77.7885 220.543C74.4895 221.084 71.2065 221.637 67.9235 222.189C61.3845 223.29 54.6235 224.427 47.9895 225.424C46.8795 225.59 45.7835 225.675 44.7335 225.675C40.3045 225.675 36.3935 224.197 32.7765 221.16C31.0405 219.701 30.6744 218.602 31.2104 216.458C31.5054 215.276 31.7335 214.147 31.9545 213.056C32.2105 211.788 32.4535 210.591 32.7585 209.535C34.4265 203.795 33.1765 198.465 29.1445 194.129C28.1905 193.104 27.2625 191.634 26.2805 190.077L26.0145 189.657C23.9195 186.341 23.5155 183.576 24.6685 180.417C25.6965 177.596 25.9585 174.855 26.1895 172.438C26.2445 171.863 26.2984 171.289 26.3654 170.721C26.8554 166.563 25.0845 161.457 18.6455 159.591C14.9285 158.506 11.6025 157.49 8.66345 156.085C8.38945 155.953 8.14945 155.835 7.93945 155.727C8.03745 155.472 8.15546 155.178 8.29846 154.84C12.7975 144.19 18.8885 134.479 25.3375 124.196C26.2825 122.69 27.2274 121.183 28.1674 119.674C31.6054 114.149 30.1275 109.59 28.2825 106.74C24.3635 100.69 23.1485 94.0206 24.4585 85.7466C26.9305 70.1456 31.9415 55.0114 39.3515 40.7654C42.2685 35.1554 46.0104 30.2274 50.4734 26.1174C59.7214 17.6004 71.6814 12.1445 87.0404 9.4375C90.2714 8.8675 93.5285 8.46049 96.9765 8.03149C98.4245 7.85049 99.8725 7.67056 101.317 7.47656H118.892C119.848 7.57556 120.803 7.67945 121.758 7.78345C124.157 8.04445 126.639 8.31359 129.145 8.50659C142.952 9.56059 155.584 13.8585 166.695 21.2815C180.326 30.3865 191.178 43.0175 198.952 58.8215C204.104 69.2975 206.626 78.8045 206.661 87.8855C206.739 106.944 202.337 124.583 193.579 140.314C188.27 149.845 182.133 159.277 176.198 168.398C175.068 170.135 173.937 171.873 172.812 173.612C168.075 180.925 162.101 192.383 164.916 207.375C167.495 221.102 173.563 234.339 183.466 247.845C187.416 253.234 193.071 258.032 198.06 262.265C198.161 262.351 198.263 262.438 198.367 262.526H83.5135V262.524Z" fill="#FF664A"/>
<path d="M118.505 14.9509C119.32 15.0369 120.135 15.1251 120.951 15.2141C123.409 15.4821 125.95 15.757 128.58 15.959C141.263 16.927 152.372 20.7011 162.544 27.4971C175.243 35.9801 184.958 47.3059 192.244 62.1189C196.949 71.6849 199.155 79.883 199.186 87.916C199.259 105.676 195.175 122.081 187.05 136.675C181.865 145.984 176.069 154.891 169.933 164.321C168.8 166.063 167.666 167.804 166.539 169.545C158.019 182.697 155.084 195.523 157.569 208.755C160.36 223.606 166.859 237.837 177.436 252.263C178.131 253.211 178.869 254.14 179.64 255.05H95.691C99.501 244.088 99.0041 231.972 93.6211 221.222C91.1261 216.242 86.0741 213.067 80.5181 212.968C80.1651 212.952 79.8071 212.941 79.4451 212.941C78.4611 212.941 77.529 213.015 76.566 213.17C73.27 213.71 69.9761 214.265 66.6821 214.818C60.1761 215.913 53.4481 217.045 46.8821 218.031C46.1371 218.143 45.4141 218.2 44.7351 218.2C42.5781 218.2 40.7241 217.643 38.8931 216.423C39.0371 215.761 39.1641 215.129 39.2831 214.539C39.5081 213.426 39.7211 212.375 39.9361 211.63C42.3451 203.339 40.4571 195.316 34.6211 189.041C34.1411 188.524 33.323 187.229 32.602 186.087L32.3391 185.672C31.3061 184.036 31.4431 183.661 31.6941 182.973C33.0481 179.258 33.3851 175.727 33.6311 173.149C33.6811 172.629 33.7291 172.111 33.7901 171.595C34.8381 162.689 29.5891 154.98 20.7521 152.417C19.8071 152.142 18.8921 151.872 18.0111 151.602C21.9011 143.746 26.676 136.132 31.671 128.169C32.621 126.655 33.57 125.142 34.516 123.622C40.533 113.953 36.5501 105.755 34.5561 102.675C31.6611 98.207 30.8241 93.347 31.8421 86.918C34.1881 72.113 38.9461 57.7461 45.9841 44.2141C48.5001 39.3761 51.7141 35.137 55.5371 31.616C63.8141 23.993 74.2371 19.285 88.3401 16.8C91.3831 16.263 94.5491 15.867 97.9011 15.449C99.2051 15.286 100.508 15.1239 101.81 14.9519H118.505V14.9509ZM119.276 0C113.124 0 106.971 0 100.818 0C95.794 0.682 90.7351 1.19297 85.7441 2.07397C70.6971 4.72597 56.8511 10.0809 45.4111 20.6169C40.1871 25.4289 35.9891 31.032 32.7221 37.314C24.9671 52.224 19.7141 67.9359 17.0771 84.5769C15.5831 94.0139 16.7931 102.752 22.0101 110.804C23.1721 112.598 22.9351 113.937 21.8231 115.723C14.4971 127.493 6.83906 139.087 1.41506 151.929C-1.12494 157.94 -0.510934 159.98 5.44107 162.829C8.97307 164.517 12.7911 165.668 16.5661 166.769C18.3481 167.286 19.142 168.157 18.943 169.844C18.625 172.537 18.5571 175.356 17.6481 177.853C15.5571 183.585 16.5861 188.724 19.7001 193.655C20.9191 195.581 22.1341 197.565 23.6731 199.22C25.9611 201.68 26.4991 204.295 25.5801 207.456C24.8981 209.811 24.5561 212.263 23.9611 214.644C22.7251 219.586 24.0841 223.618 27.9711 226.884C32.9691 231.081 38.592 233.149 44.736 233.149C46.163 233.149 47.619 233.038 49.102 232.815C59.081 231.316 69.0241 229.555 78.9861 227.922C79.1381 227.898 79.2931 227.89 79.4471 227.89C79.7201 227.89 79.9941 227.914 80.2541 227.914C86.4211 240.229 82.9161 254.994 71.5361 264.393C69.1061 266.4 68.4471 266.755 69.1041 268.594C69.5091 269.842 70.2841 269.997 73.4731 269.997C117.299 269.997 161.125 269.997 204.949 269.997C205.576 269.997 206.244 270.017 206.911 270.017C209.52 270.017 212.111 269.717 212.179 266.769C212.265 262.379 196.689 253.232 189.497 243.42C181.22 232.132 174.897 219.993 172.266 205.99C170.265 195.333 173.454 186.371 179.09 177.67C186.289 166.55 193.675 155.507 200.114 143.947C209.77 126.603 214.221 107.708 214.14 87.8521C214.095 76.3981 210.665 65.6891 205.663 55.5171C197.565 39.0531 186.209 25.321 170.851 15.061C158.384 6.73104 144.64 2.18612 129.719 1.04712C126.23 0.783119 122.755 0.354 119.276 0Z" fill="#E55C42"/>
<path fill-rule="evenodd" clip-rule="evenodd" d="M114.612 146.268C111.483 146.27 108.355 146.293 105.229 146.262C101.915 146.227 100.166 144.44 100.144 141.127C100.134 139.564 100.133 137.999 100.15 136.436C100.187 133.054 99.0749 130.089 96.9009 127.528C93.4309 123.437 90.4419 119.038 88.2209 114.142C84.0649 104.979 85.1649 96.0281 89.6829 87.3991C93.9299 79.2861 100.51 73.8213 109.628 72.1083C119.926 70.1733 128.592 73.5983 135.457 81.3483C141.369 88.0243 144.002 95.9942 143.522 104.893C143.21 110.657 140.697 115.687 137.63 120.431C136.112 122.78 134.411 125.022 132.639 127.187C130.285 130.065 129.018 133.256 129.17 136.999C129.228 138.453 129.218 139.913 129.166 141.368C129.049 144.516 127.307 146.225 124.159 146.261C120.978 146.293 117.795 146.268 114.612 146.268ZM92.0798 101.822C92.0058 104.321 93.1529 105.906 95.1409 106.022C97.1399 106.14 98.4519 104.683 98.5499 102.209C98.9739 91.6271 106.842 84.5953 114.775 84.7033C116.674 84.7293 117.942 83.1741 117.875 81.4591C117.806 79.6591 116.344 78.2051 114.411 78.4081C112.074 78.6531 109.626 78.8532 107.474 79.7062C97.5089 83.6542 93.0358 91.5512 92.0798 101.822Z" fill="white"/>
<path fill-rule="evenodd" clip-rule="evenodd" d="M136.941 67.4498C137.192 67.0108 137.532 66.002 138.202 65.318C142.228 61.191 146.312 57.1219 150.412 53.0699C152.07 51.4329 154.277 51.3899 155.751 52.8529C157.23 54.3189 157.193 56.5109 155.546 58.1769C151.457 62.3179 147.337 66.4268 143.205 70.5228C142.034 71.6818 140.619 72.0779 139.059 71.3549C137.66 70.7079 136.956 69.5638 136.941 67.4498Z" fill="white"/>
<path fill-rule="evenodd" clip-rule="evenodd" d="M88.0982 71.7836C87.6632 71.5436 86.6302 71.2338 85.9602 70.5578C81.8632 66.4288 77.8282 62.2317 73.8162 58.0197C72.1982 56.3197 72.2142 54.1237 73.7292 52.6887C75.2782 51.2197 77.3772 51.3176 79.0442 53.0256C83.0712 57.1526 87.0702 61.3057 91.0702 65.4587C92.2112 66.6427 92.6582 68.0358 91.9712 69.6008C91.3542 71.0088 90.2312 71.7486 88.0982 71.7836Z" fill="white"/>
<path fill-rule="evenodd" clip-rule="evenodd" d="M111.055 49.2036C111.053 46.4006 111.032 43.5986 111.058 40.7976C111.083 38.3386 112.568 36.7185 114.698 36.7505C116.844 36.7835 118.261 38.3956 118.268 40.8806C118.285 46.5376 118.289 52.1954 118.273 57.8554C118.267 60.2624 116.72 61.9514 114.612 61.9184C112.542 61.8864 111.091 60.2956 111.064 57.9326C111.03 55.0226 111.056 52.1126 111.055 49.2036Z" fill="white"/>
<path fill-rule="evenodd" clip-rule="evenodd" d="M106.178 157.181C104.135 157.237 102.647 156.054 102.428 154.276C102.207 152.485 103.335 150.877 105.29 150.634C111.376 149.878 117.473 149.19 123.576 148.581C125.416 148.4 126.91 149.924 127.003 151.727C127.094 153.513 125.836 154.983 123.895 155.211C119.887 155.684 115.872 156.103 111.859 156.543C109.936 156.757 108.011 156.975 106.178 157.181Z" fill="white"/>
<path fill-rule="evenodd" clip-rule="evenodd" d="M123.396 157.535C125.375 157.56 126.819 158.816 126.995 160.529C127.171 162.261 126.092 163.809 124.218 164.095C121.135 164.562 118.026 164.862 114.926 165.216C112.038 165.543 109.151 165.871 106.26 166.164C104.361 166.356 102.761 165.186 102.449 163.441C102.136 161.682 103.234 159.879 105.116 159.635C111.251 158.854 117.407 158.213 123.396 157.535Z" fill="white"/>
<path fill-rule="evenodd" clip-rule="evenodd" d="M106.031 168.258C106.808 168.137 107.489 168.002 108.177 167.928C113.202 167.374 118.225 166.832 123.383 166.273C123.383 167.46 123.497 168.541 123.359 169.586C123.102 171.523 121.589 172.715 119.473 172.73C116.345 172.758 113.215 172.758 110.088 172.73C107.367 172.706 106.017 171.255 106.031 168.258Z" fill="white"/>
</svg>
