<svg width="359" height="127" viewBox="0 0 359 127" fill="none" xmlns="http://www.w3.org/2000/svg">
<path fill-rule="evenodd" clip-rule="evenodd" d="M68.2009 120.574C66.9999 120.574 65.7999 120.574 64.5989 120.574C64.5199 120.557 64.4369 120.532 64.3589 120.525C63.1729 120.431 61.983 120.378 60.804 120.251C58.817 120.036 56.8539 119.679 54.9619 119.002C53.9479 118.638 52.9779 118.196 52.1509 117.476C51.5029 116.911 51.0849 116.23 51.0859 115.323C51.0919 108.033 51.092 100.745 51.092 93.457C51.092 93.299 51.104 93.1391 51.132 92.9861C51.287 92.1651 51.813 91.6042 52.447 91.1262C53.374 90.4252 54.4319 89.9922 55.5299 89.6472C57.9239 88.9022 60.3859 88.5671 62.8729 88.3801C63.4499 88.3361 64.0259 88.294 64.5989 88.25C65.7989 88.25 66.9999 88.25 68.2009 88.25C68.2919 88.271 68.384 88.2921 68.478 88.2971C69.651 88.3921 70.8279 88.4491 71.9979 88.5781C73.9349 88.7871 75.8429 89.1351 77.6909 89.7671C78.8109 90.1501 79.8859 90.6212 80.7789 91.4302C81.3779 91.9682 81.7709 92.6091 81.7709 93.4561C81.7669 100.731 81.771 108.008 81.767 115.29C81.767 115.464 81.762 115.648 81.733 115.821C81.585 116.664 81.042 117.245 80.39 117.733C79.48 118.417 78.442 118.844 77.364 119.184C74.975 119.939 72.51 120.261 70.02 120.444C69.415 120.491 68.8069 120.532 68.2009 120.574ZM53.1369 96.1711C53.1349 96.2341 53.1249 96.3142 53.1249 96.3982C53.1249 97.7112 53.1549 99.0271 53.1159 100.339C53.0989 100.909 53.317 101.284 53.782 101.518C54.372 101.814 54.969 102.113 55.592 102.325C58.566 103.337 61.655 103.662 64.775 103.78C67.228 103.869 69.675 103.782 72.111 103.46C74.043 103.209 75.955 102.859 77.773 102.144C78.309 101.934 78.8119 101.643 79.3129 101.354C79.6189 101.175 79.7459 100.876 79.7399 100.501C79.7239 99.1442 79.738 97.7852 79.736 96.4282C79.736 96.3292 79.7239 96.235 79.7159 96.104C79.4139 96.251 79.153 96.3842 78.887 96.5042C78.617 96.6232 78.346 96.7392 78.072 96.8372C75.139 97.8782 72.0849 98.2462 68.9999 98.4182C66.7009 98.5462 64.397 98.5012 62.098 98.2932C59.961 98.1032 57.8399 97.7982 55.7839 97.1572C54.8939 96.8802 54.0329 96.5111 53.1369 96.1711ZM79.733 103.515C78.961 103.819 78.2369 104.16 77.4839 104.404C74.7339 105.296 71.887 105.633 69.017 105.789C65.582 105.973 62.164 105.823 58.772 105.231C56.872 104.896 55.005 104.443 53.286 103.536C53.246 103.51 53.1919 103.508 53.1239 103.494C53.1239 104.955 53.137 106.397 53.118 107.84C53.115 108.256 53.263 108.567 53.597 108.766C54.031 109.023 54.473 109.276 54.938 109.458C57.224 110.363 59.6309 110.744 62.0649 110.963C65.7959 111.306 69.522 111.235 73.231 110.659C74.938 110.395 76.6189 110.026 78.2079 109.334C78.6279 109.147 79.0289 108.905 79.3989 108.635C79.5589 108.518 79.713 108.258 79.718 108.063C79.745 106.548 79.733 105.032 79.733 103.515ZM53.1249 110.847C53.1249 112.29 53.146 113.7 53.118 115.104C53.108 115.628 53.295 115.996 53.73 116.218C54.306 116.516 54.8909 116.82 55.4999 117.03C58.3259 118.017 61.2699 118.339 64.2369 118.48C66.9319 118.612 69.621 118.513 72.299 118.165C74.136 117.928 75.9539 117.586 77.6849 116.911C78.2479 116.69 78.7819 116.388 79.3079 116.084C79.6179 115.909 79.745 115.607 79.739 115.23C79.727 113.874 79.7369 112.515 79.7349 111.162C79.7349 111.06 79.723 110.961 79.718 110.875C79 111.167 78.3169 111.497 77.6049 111.732C74.6419 112.711 71.5749 113.043 68.4799 113.181C65.8259 113.294 63.1789 113.2 60.5449 112.868C58.6139 112.621 56.702 112.274 54.869 111.599C54.293 111.387 53.7339 111.112 53.1249 110.847ZM66.4409 96.4502C69.4559 96.4212 72.4529 96.218 75.3929 95.509C76.6099 95.218 77.816 94.872 78.913 94.25C79.996 93.641 80.0099 93.0691 78.9149 92.4971C78.2219 92.1341 77.4819 91.8452 76.7339 91.6052C74.3249 90.8362 71.8339 90.529 69.3199 90.385C65.6309 90.168 61.9599 90.3131 58.3289 91.0371C56.9979 91.2951 55.6879 91.6531 54.4529 92.2251C54.0859 92.3971 53.7279 92.6161 53.4139 92.8711C53.0299 93.1861 53.038 93.5351 53.407 93.8611C53.636 94.0611 53.8869 94.2572 54.1649 94.3662C55.1729 94.7492 56.1789 95.1651 57.2169 95.4321C60.2389 96.2291 63.3339 96.4192 66.4409 96.4502Z" fill="#FF664A"/>
<path fill-rule="evenodd" clip-rule="evenodd" d="M44.1641 29.4781C45.0441 30.9491 45.9241 32.423 46.8541 33.982C46.0231 33.828 45.2781 33.6931 44.5341 33.5511C42.7181 33.2121 40.9051 32.866 39.0901 32.534C38.9231 32.499 38.7331 32.538 38.5611 32.577C35.3301 33.362 32.2021 33.0939 29.2341 31.5709C26.5001 30.1749 24.5141 28.069 23.7991 25.012C22.9891 21.564 24.0751 18.6249 26.6201 16.2559C29.3081 13.7459 32.5831 12.798 36.2161 13.046C39.0821 13.246 41.6321 14.2491 43.7601 16.1971C45.7011 17.9821 46.8181 20.1799 46.8771 22.8409C46.9281 25.1349 46.1111 27.1329 44.6421 28.8809C44.4961 29.0499 44.3511 29.2159 44.2051 29.3809C44.1961 29.3939 44.1941 29.4131 44.1641 29.4781ZM31.2171 23.5101C31.2221 22.3871 30.3331 21.4791 29.2271 21.4791C28.0741 21.4771 27.1851 22.359 27.1831 23.504C27.1781 24.619 28.0771 25.5119 29.1941 25.5169C30.3081 25.5169 31.2151 24.6221 31.2171 23.5101ZM41.2181 25.5169C42.3351 25.5169 43.2351 24.6301 43.2451 23.5101C43.2521 22.3921 42.3631 21.4891 41.2521 21.4791C40.1091 21.4681 39.2081 22.3671 39.2081 23.5011C39.2081 24.6191 40.1021 25.5119 41.2181 25.5169ZM33.1911 23.4901C33.1911 24.6301 34.0901 25.5161 35.2351 25.5111C36.3291 25.5091 37.2231 24.6181 37.2281 23.5221C37.2351 22.3771 36.3501 21.4781 35.2081 21.4781C34.0921 21.4791 33.1911 22.3761 33.1911 23.4901Z" fill="#FF664A"/>
<path fill-rule="evenodd" clip-rule="evenodd" d="M9.87367 23.9882C10.8647 22.3262 11.7997 20.7583 12.7597 19.1483C12.6547 19.0353 12.5547 18.9224 12.4577 18.8134C10.6467 16.7784 9.68368 14.4183 9.87568 11.6793C10.0877 8.59934 11.5927 6.20419 13.9987 4.35219C16.1037 2.72719 18.5167 1.88634 21.1657 1.70034C24.6887 1.44434 27.9037 2.29432 30.7037 4.48232C32.7967 6.12332 34.1437 8.23823 34.5847 10.8922C34.6217 11.1212 34.6217 11.3514 34.6407 11.5844C33.7617 11.6984 32.9227 11.8083 32.0617 11.9193C31.9647 10.8183 31.6707 9.77221 31.0917 8.82021C29.7457 6.61921 27.7457 5.29927 25.3017 4.68227C21.6387 3.75827 18.2217 4.3033 15.2437 6.7333C13.4267 8.2133 12.4147 10.1503 12.4917 12.5473C12.5517 14.3773 13.3127 15.9063 14.5667 17.2013C15.0587 17.7053 15.6087 18.1624 16.1287 18.6354C15.7707 19.2444 15.4847 19.7292 15.1467 20.3102C15.8237 20.1862 16.4067 20.0844 16.9847 19.9804C17.3537 19.9114 17.7177 19.8112 18.0897 19.7692C18.3567 19.7432 18.6337 19.7692 18.9047 19.8112C19.9597 19.9662 21.0137 20.1353 22.0677 20.2973C22.1997 20.3173 22.3397 20.3173 22.4697 20.3263C22.3457 21.1853 22.2267 22.0163 22.0947 22.9533C21.3447 22.8813 20.5317 22.9073 19.7907 22.6903C18.5967 22.3413 17.4687 22.5424 16.3097 22.7704C14.2007 23.1934 12.0837 23.5722 9.87367 23.9882Z" fill="#FF664A"/>
<path fill-rule="evenodd" clip-rule="evenodd" d="M92.6501 46.3384C92.6501 56.0714 92.6501 65.8123 92.6501 75.5513C92.2861 76.4343 92.0411 77.4054 91.5351 78.1924C90.3741 79.9834 88.6651 80.7013 86.6411 80.6973C76.5711 80.6873 66.5031 80.6924 56.4361 80.6924C51.6801 80.6924 46.9201 80.6833 42.1621 80.6973C40.1531 80.7013 38.4671 79.9684 37.3181 78.1924C36.8111 77.4054 36.5681 76.4343 36.2031 75.5513C36.2031 65.8123 36.2031 56.0724 36.2031 46.3384C36.5691 45.4494 36.8111 44.4713 37.3181 43.6953C38.4791 41.8943 40.1911 41.1855 42.2151 41.1875C52.2821 41.2025 62.3481 41.2004 72.4191 41.2004C77.1751 41.2004 81.9351 41.2025 86.6941 41.1875C88.7041 41.1855 90.3911 41.9113 91.5341 43.6953C92.0411 44.4713 92.2861 45.4494 92.6501 46.3384ZM43.4241 45.2004C43.6061 45.4104 43.7051 45.5395 43.8181 45.6685C50.4131 52.7105 57.0121 59.7654 63.6081 66.8184C64.2451 67.4904 64.6061 67.4903 65.2361 66.8213C71.8491 59.7543 78.4571 52.6964 85.0701 45.6294C85.1761 45.5144 85.2641 45.3894 85.4071 45.2004C71.3871 45.2004 57.4731 45.2004 43.4241 45.2004ZM44.5961 76.6604C57.7951 76.6604 71.0721 76.6604 84.3091 76.6604C80.4801 72.5664 76.6541 68.4844 72.7661 64.3284C72.6751 64.4504 72.5561 64.6334 72.4161 64.7874C70.9011 66.4134 69.3901 68.0403 67.8601 69.6543C65.7691 71.8693 63.0731 71.8615 60.9791 69.6455C59.6481 68.2365 58.3251 66.8185 57.0091 65.3965C56.6761 65.0355 56.3641 64.6503 56.1131 64.3513C52.2181 68.5163 48.3961 72.6064 44.5961 76.6604ZM39.9761 47.3335C39.9651 47.3825 39.9471 47.4155 39.9471 47.4585C39.9441 56.5235 39.9441 65.5903 39.9511 74.6533C39.9511 74.9243 40.0401 75.2034 40.0851 75.4514C44.4981 70.7314 48.8611 66.0633 53.1841 61.4553C48.8141 56.7803 44.4061 52.0675 39.9761 47.3335ZM88.8621 47.4065C84.4691 52.0935 80.0491 56.8183 75.7291 61.4353C80.0421 66.0463 84.4121 70.7193 88.7581 75.3613C88.9331 74.9303 89.0501 48.5245 88.8621 47.4065Z" fill="#FF664A"/>
<path fill-rule="evenodd" clip-rule="evenodd" d="M0.00107542 60.8947C0.00107542 56.2667 -0.000924585 51.6388 0.00107542 47.0128C0.00207542 43.9958 2.61308 41.2558 5.62208 41.2218C9.86008 41.1728 14.0981 41.1728 18.3351 41.2448C19.0011 41.2568 19.7651 41.6208 20.2951 42.0548C21.6201 43.1368 22.8801 44.3117 24.0871 45.5267C25.8791 47.3337 27.6061 49.2049 29.3551 51.0529C30.0821 51.8229 30.2621 52.7918 30.2641 53.7938C30.2741 60.9438 30.2841 68.0948 30.2621 75.2448C30.2541 77.9888 27.5561 80.6457 24.6901 80.6647C18.2941 80.7077 11.8981 80.7038 5.50108 80.6688C2.64408 80.6508 0.0050825 77.8818 0.0020825 75.0118C-0.0019175 70.3068 0.00107542 65.6017 0.00107542 60.8947ZM15.1561 77.8698C18.3231 77.8698 21.4931 77.9047 24.6601 77.8527C26.0751 77.8297 27.3141 76.5628 27.4481 75.1598C27.5191 74.4108 27.5701 73.6567 27.5661 72.9047C27.5401 67.0177 27.5021 61.1277 27.4591 55.2387C27.4481 53.7177 26.9341 53.2418 25.3771 53.2208C23.5081 53.1938 21.6381 53.1678 19.7721 53.0858C18.7921 53.0438 18.4261 52.5807 18.4001 51.5717C18.3501 49.6267 18.3061 47.6778 18.2511 45.7328C18.2161 44.5198 17.6011 43.8847 16.4181 43.8937C12.8331 43.9247 9.24807 43.9618 5.66407 44.0258C4.25407 44.0508 2.9071 45.3728 2.8231 46.7618C2.7611 47.7708 2.69909 48.7838 2.70209 49.7938C2.73009 58.1618 2.77108 66.5289 2.81608 74.8959C2.82508 76.4589 4.06707 77.8237 5.65107 77.8527C8.81807 77.9127 11.9881 77.8728 15.1561 77.8698Z" fill="#FF664A"/>
<path fill-rule="evenodd" clip-rule="evenodd" d="M15.1649 56.6006C17.7069 56.6006 20.2499 56.5785 22.7919 56.6135C23.6189 56.6255 24.1689 57.2165 24.1629 57.9065C24.1569 58.6295 23.5699 59.1626 22.6869 59.1736C18.3279 59.2256 13.9679 59.2716 9.60689 59.2976C8.85689 59.3036 8.10487 59.2245 7.35487 59.1665C6.66887 59.1165 6.11089 58.5527 6.09789 57.9207C6.08489 57.2957 6.62689 56.6357 7.30489 56.6287C9.92389 56.5977 12.5449 56.6145 15.1659 56.6145C15.1649 56.6135 15.1649 56.6066 15.1649 56.6006Z" fill="#FF664A"/>
<path fill-rule="evenodd" clip-rule="evenodd" d="M15.1604 71.4846C12.6894 71.4846 10.2204 71.4866 7.75043 71.4846C6.78543 71.4826 6.12945 70.9685 6.10245 70.2075C6.07345 69.4165 6.75643 68.8157 7.72843 68.8147C12.6674 68.8097 17.6064 68.8175 22.5454 68.8125C23.2714 68.8105 23.8985 69.0526 24.0425 69.7776C24.1245 70.1866 23.9444 70.7566 23.6794 71.0896C23.4714 71.3506 22.9505 71.4635 22.5685 71.4685C20.0995 71.4995 17.6294 71.4846 15.1604 71.4846Z" fill="#FF664A"/>
<path fill-rule="evenodd" clip-rule="evenodd" d="M13.6774 62.7141C15.6524 62.7141 17.6275 62.7043 19.6025 62.7193C20.4825 62.7263 21.0445 63.2382 21.0635 63.9912C21.0815 64.6982 20.5604 65.2452 19.7424 65.3582C19.5134 65.3912 19.2765 65.3862 19.0425 65.3872C15.3525 65.3892 11.6625 65.3892 7.97346 65.3872C7.73946 65.3872 7.50145 65.3963 7.27345 65.3533C6.60445 65.2273 6.07844 64.6001 6.10444 63.9871C6.13344 63.2991 6.68345 62.7411 7.44145 62.7341C9.52045 62.7111 11.5984 62.7251 13.6774 62.7251V62.7141Z" fill="#FF664A"/>
<path d="M302.382 55.1128C288.58 55.1128 277.35 43.8838 277.35 30.0818C277.35 16.2798 288.579 5.05078 302.382 5.05078C316.185 5.05078 327.414 16.2798 327.414 30.0818C327.414 43.8838 316.185 55.1128 302.382 55.1128Z" fill="#005072"/>
<path d="M302.381 8.06934C314.518 8.06934 324.392 17.9433 324.392 30.0803C324.392 42.2173 314.518 52.0913 302.381 52.0913C290.244 52.0913 280.371 42.2173 280.371 30.0803C280.371 17.9433 290.245 8.06934 302.381 8.06934ZM302.381 2.02734C286.888 2.02734 274.328 14.5883 274.328 30.0803C274.328 45.5753 286.888 58.1333 302.381 58.1333C317.874 58.1333 330.434 45.5753 330.434 30.0803C330.435 14.5883 317.874 2.02734 302.381 2.02734Z" fill="#FF664A"/>
<path d="M330.436 87.2339C316.633 87.2339 305.404 76.0049 305.404 62.2029C305.404 48.4009 316.633 37.1719 330.436 37.1719C344.238 37.1719 355.468 48.4009 355.468 62.2029C355.468 76.0049 344.238 87.2339 330.436 87.2339Z" fill="#005072"/>
<path d="M330.436 40.1904C342.573 40.1904 352.447 50.0644 352.447 62.2014C352.447 74.3384 342.573 84.2124 330.436 84.2124C318.299 84.2124 308.425 74.3384 308.425 62.2014C308.425 50.0644 318.299 40.1904 330.436 40.1904ZM330.436 34.1484C314.943 34.1484 302.383 46.7094 302.383 62.2014C302.383 77.6954 314.943 90.2544 330.436 90.2544C345.929 90.2544 358.489 77.6954 358.489 62.2014C358.488 46.7084 345.929 34.1484 330.436 34.1484Z" fill="#FF664A"/>
<path fill-rule="evenodd" clip-rule="evenodd" d="M313.952 20.9102C315.796 21.7912 316.517 23.0681 315.968 24.5901C315.796 25.0431 315.495 25.4882 315.156 25.8362C310.127 30.8872 305.09 35.9242 300.048 40.9592C298.699 42.3002 297.108 42.3001 295.75 40.9551C293.52 38.7411 291.296 36.5213 289.083 34.2913C287.81 33.0053 287.747 31.3422 288.893 30.1702C290.055 28.9842 291.761 29.047 293.068 30.342C294.658 31.925 296.235 33.5151 297.876 35.1631C298.131 34.9241 298.353 34.7232 298.565 34.5142C302.549 30.5282 306.529 26.5312 310.534 22.5662C311.159 21.9502 311.909 21.4581 312.602 20.9111C313.049 20.9101 313.496 20.9102 313.952 20.9102Z" fill="#FF664A"/>
<path fill-rule="evenodd" clip-rule="evenodd" d="M329.573 66.8809C328.656 67.8029 327.786 68.6749 326.918 69.5499C325.058 71.4239 323.204 73.303 321.337 75.168C320.44 76.064 319.379 76.246 318.328 75.721C317.219 75.168 316.57 74.0361 316.7 72.8751C316.772 72.2281 317.12 71.73 317.564 71.283C318.914 69.923 320.259 68.558 321.613 67.203C322.977 65.838 324.348 64.482 325.753 63.086C325.615 62.941 325.5 62.818 325.381 62.701C322.768 60.101 320.155 57.5051 317.543 54.9061C316.598 53.9671 316.379 52.9161 316.903 51.8431C317.449 50.7211 318.606 50.0559 319.777 50.1929C320.423 50.2689 320.92 50.622 321.365 51.064C323.01 52.698 324.656 54.3299 326.299 55.9649C327.38 57.0429 328.453 58.1289 329.555 59.2349C329.68 59.1159 329.788 59.022 329.889 58.921C332.514 56.296 335.142 53.676 337.762 51.046C338.519 50.286 339.384 49.8959 340.448 50.2479C341.552 50.6139 342.248 51.386 342.475 52.533C342.642 53.374 342.35 54.0979 341.765 54.6939C340.696 55.7859 339.609 56.86 338.529 57.94C336.833 59.634 335.136 61.33 333.409 63.055C333.519 63.17 333.615 63.276 333.715 63.377C336.248 65.921 338.782 68.4671 341.316 71.0111C341.411 71.1061 341.503 71.204 341.599 71.297C342.389 72.068 342.711 72.977 342.307 74.034C341.874 75.166 341.034 75.847 339.817 75.974C339.034 76.056 338.389 75.707 337.842 75.16C336.129 73.443 334.412 71.731 332.698 70.015C331.666 68.984 330.638 67.9489 329.573 66.8809Z" fill="#FF664A"/>
<path d="M298.389 110.936C299.606 110.936 300.495 110.643 301.056 110.056C301.625 109.469 301.91 108.666 301.91 107.648C301.91 107.181 301.837 106.758 301.69 106.379C301.552 105.99 301.336 105.662 301.043 105.395C300.758 105.118 300.395 104.907 299.955 104.76C299.515 104.613 298.993 104.54 298.389 104.54H295.928V110.936H298.389ZM298.389 101.588C299.675 101.588 300.784 101.739 301.716 102.041C302.657 102.343 303.429 102.766 304.034 103.31C304.638 103.845 305.082 104.484 305.367 105.226C305.661 105.969 305.808 106.776 305.808 107.648C305.808 108.571 305.656 109.417 305.354 110.185C305.052 110.953 304.595 111.614 303.982 112.166C303.369 112.719 302.597 113.15 301.664 113.461C300.732 113.763 299.64 113.914 298.389 113.914H295.928V120.375H292.044V101.588H298.389ZM325.124 110.975C325.124 112.347 324.891 113.612 324.425 114.769C323.967 115.917 323.316 116.905 322.47 117.734C321.633 118.562 320.623 119.21 319.44 119.676C318.258 120.142 316.946 120.375 315.504 120.375H308.279V101.588H315.504C316.946 101.588 318.258 101.821 319.44 102.287C320.623 102.753 321.633 103.405 322.47 104.242C323.316 105.071 323.967 106.059 324.425 107.207C324.891 108.355 325.124 109.611 325.124 110.975ZM321.136 110.975C321.136 109.991 321.007 109.106 320.748 108.321C320.489 107.535 320.118 106.871 319.634 106.327C319.151 105.783 318.56 105.364 317.861 105.071C317.17 104.777 316.384 104.631 315.504 104.631H312.189V117.332H315.504C316.384 117.332 317.17 117.19 317.861 116.905C318.56 116.612 319.151 116.193 319.634 115.649C320.118 115.097 320.489 114.428 320.748 113.642C321.007 112.857 321.136 111.968 321.136 110.975ZM334.323 110.936C335.54 110.936 336.429 110.643 336.99 110.056C337.56 109.469 337.845 108.666 337.845 107.648C337.845 107.181 337.772 106.758 337.625 106.379C337.487 105.99 337.271 105.662 336.977 105.395C336.693 105.118 336.33 104.907 335.89 104.76C335.45 104.613 334.927 104.54 334.323 104.54H331.863V110.936H334.323ZM334.323 101.588C335.609 101.588 336.718 101.739 337.651 102.041C338.592 102.343 339.364 102.766 339.968 103.31C340.573 103.845 341.017 104.484 341.302 105.226C341.595 105.969 341.742 106.776 341.742 107.648C341.742 108.571 341.591 109.417 341.289 110.185C340.987 110.953 340.529 111.614 339.917 112.166C339.304 112.719 338.531 113.15 337.599 113.461C336.667 113.763 335.575 113.914 334.323 113.914H331.863V120.375H327.979V101.588H334.323Z" fill="#FF664A"/>
<path fill-rule="evenodd" clip-rule="evenodd" d="M191.069 92.3916C186.831 92.3916 182.806 92.3916 178.942 92.3916C177.472 94.5716 176.395 97.9335 174.356 98.6755C172.416 99.3835 169.341 97.6267 166.999 96.4807C161.43 93.7617 167.103 90.4535 166.576 87.6015C164.052 84.9445 161.613 82.2347 158.985 79.7207C158.431 79.1997 157.05 79.0486 156.27 79.3276C150.18 81.5036 150.202 81.5515 147.75 75.5915C147.454 74.8595 147.17 74.1207 146.828 73.4077C145.808 71.2457 146.506 69.7945 148.631 68.9035C150.167 68.2535 151.694 67.5965 153.238 66.9365C153.238 63.0545 153.33 59.3165 153.158 55.5825C153.133 54.9095 152.187 53.9645 151.457 53.6855C144.309 50.9965 146.039 50.1497 148.013 45.0847C148.375 44.1677 148.739 43.2396 149.175 42.3506C149.984 40.6946 151.213 39.9966 153.037 40.7986C153.674 41.0796 154.399 41.2076 154.96 41.5796C157.242 43.0936 158.823 42.5835 160.215 40.2475C160.959 39.0065 162.178 38.0305 163.263 37.0195C164.348 36.0125 165.533 35.1155 166.882 33.9975C166.299 32.5265 165.76 30.9665 165.07 29.4665C163.999 27.1415 164.74 25.6716 167.042 24.8176C167.598 24.6096 168.142 24.3746 168.689 24.1496C174.938 21.5716 174.878 21.6025 177.827 27.5005C178.204 28.2525 179.508 28.7936 180.459 28.9426C181.701 29.1366 183.052 28.6117 184.296 28.7937C188.669 29.4297 192.448 29.3445 193.493 23.7595C193.609 23.1495 195.38 22.8217 196.41 22.4297C196.635 22.3447 196.979 22.5596 197.258 22.6506C205.772 25.4206 205.772 25.4206 202.723 33.9716C204.234 35.2956 205.848 36.5797 207.306 38.0327C208.765 39.4877 210.057 41.1176 211.535 42.7986C213.077 42.1706 214.643 41.5796 216.165 40.8996C218.209 39.9836 219.602 40.6136 220.477 42.5886C220.758 43.2226 220.992 43.8785 221.251 44.5175C223.821 50.7475 223.808 50.7167 217.766 53.8147C217.135 54.1387 216.423 55.0246 216.4 55.6716C216.271 59.4016 216.337 63.1475 216.337 66.4475C218.413 69.2605 225.043 67.6846 222.447 73.8296C221.44 76.2166 220.489 79.4505 218.578 80.3955C216.84 81.2435 213.83 79.5007 212.503 79.1797C209.341 82.4087 206.516 85.2886 203.694 88.1716C203.476 87.8736 203.256 87.5747 203.046 87.2737C203.595 89.7977 204.914 92.4927 204.41 94.7837C204.108 96.1577 201.028 97.0475 199.084 97.9065C197.297 98.7035 195.191 100.339 193.569 97.8257C192.46 96.1177 191.836 94.1026 191.069 92.3916ZM184.82 82.5695C196.913 82.5525 206.767 72.6877 206.743 60.6267C206.72 48.6477 196.709 38.6886 184.715 38.7146C172.693 38.7386 162.811 48.6866 162.83 60.7356C162.85 72.8256 172.676 82.5845 184.82 82.5695Z" fill="#5FCEEA"/>
<path fill-rule="evenodd" clip-rule="evenodd" d="M231.798 92.7136C231.655 92.7136 231.513 92.7136 231.371 92.7136C225.353 92.7136 219.336 92.7135 213.318 92.7185C212.745 92.7185 212.235 92.6046 211.832 92.1696C211.336 91.6326 211.216 91.0086 211.482 90.3366C211.753 89.6666 212.269 89.2965 212.999 89.2475C213.136 89.2375 213.273 89.2436 213.409 89.2436C219.392 89.2436 225.376 89.2436 231.359 89.2436C231.47 89.2436 231.581 89.2436 231.788 89.2436C231.66 89.0756 231.594 88.9695 231.508 88.8835C229.528 86.9055 227.544 84.9335 225.566 82.9545C225.012 82.3975 224.882 81.6485 225.198 80.9755C225.509 80.3155 226.167 79.9295 226.918 79.9765C227.398 80.0095 227.773 80.2475 228.106 80.5805C230.031 82.5165 231.964 84.4414 233.893 86.3764C235.02 87.5004 236.147 88.6234 237.271 89.7514C238.017 90.5024 238.028 91.5316 237.287 92.2746C234.258 95.3116 231.224 98.3395 228.191 101.373C227.689 101.876 227.094 102.063 226.413 101.852C225.721 101.637 225.309 101.141 225.195 100.426C225.098 99.8215 225.333 99.3195 225.761 98.8925C227.294 97.3715 228.824 95.8435 230.355 94.3195C230.774 93.9005 231.193 93.4824 231.609 93.0644C231.688 92.9864 231.758 92.8995 231.833 92.8185C231.82 92.7825 231.809 92.7496 231.798 92.7136Z" fill="#5FCEEA"/>
<path fill-rule="evenodd" clip-rule="evenodd" d="M136.414 34.6785C136.557 34.6785 136.699 34.6785 136.841 34.6785C142.859 34.6785 148.876 34.6746 154.894 34.6816C155.467 34.6816 155.977 34.5656 156.38 34.1316C156.875 33.5946 156.996 32.9696 156.73 32.2996C156.459 31.6306 155.943 31.2585 155.212 31.2095C155.076 31.2015 154.939 31.2056 154.803 31.2056C148.82 31.2056 142.837 31.2056 136.853 31.2056C136.743 31.2056 136.631 31.2056 136.423 31.2056C136.551 31.0396 136.618 30.9347 136.705 30.8467C138.684 28.8687 140.669 26.8955 142.646 24.9165C143.201 24.3595 143.331 23.6117 143.014 22.9397C142.703 22.2797 142.046 21.8927 141.294 21.9417C140.815 21.9727 140.439 22.2107 140.106 22.5457C138.181 24.4797 136.249 26.4066 134.319 28.3386C133.192 29.4656 132.065 30.5875 130.941 31.7175C130.194 32.4675 130.184 33.4966 130.926 34.2376C133.953 37.2756 136.989 40.3047 140.021 43.3367C140.522 43.8417 141.118 44.0297 141.799 43.8157C142.491 43.6017 142.903 43.1066 143.017 42.3926C143.114 41.7846 142.879 41.2827 142.451 40.8577C140.918 39.3367 139.388 37.8097 137.858 36.2847C137.439 35.8657 137.019 35.4485 136.604 35.0305C136.525 34.9515 136.455 34.8655 136.38 34.7825C136.392 34.7465 136.404 34.7125 136.414 34.6785Z" fill="#5FCEEA"/>
<path d="M178.991 78.615C178.417 78.615 177.921 78.4661 177.516 78.1721C177.119 77.8891 176.833 77.51 176.675 77.051L175.851 74.613H170.508L169.685 77.0442C169.534 77.4682 169.264 77.8272 168.876 78.1292C168.462 78.4512 167.963 78.615 167.393 78.615H164.163C163.833 78.615 163.525 78.4522 163.338 78.1802C163.151 77.9082 163.111 77.5612 163.23 77.2532L170.13 59.428C170.279 59.043 170.65 58.7891 171.063 58.7891H175.296C175.709 58.7891 176.079 59.043 176.229 59.428L183.129 77.2532C183.248 77.5612 183.208 77.9072 183.021 78.1802C182.834 78.4512 182.526 78.615 182.196 78.615H178.991V78.615ZM174.224 69.8L173.184 66.7012L172.139 69.8H174.224Z" fill="white"/>
<path d="M175.297 59.7891L182.197 77.614H178.991C178.632 77.614 178.337 77.5311 178.104 77.3621C177.872 77.1961 177.71 76.9822 177.62 76.7222L176.568 73.6121H169.791L168.738 76.7222C168.657 76.9492 168.498 77.1551 168.262 77.3381C168.025 77.5231 167.735 77.613 167.393 77.613H164.163L171.063 59.7881H175.297V59.7891ZM170.746 70.7991H175.614L173.975 65.9182C173.868 65.6092 173.744 65.244 173.602 64.823C173.459 64.404 173.318 63.947 173.18 63.459C173.049 63.956 172.915 64.4171 172.776 64.8411C172.638 65.2671 172.506 65.6331 172.384 65.9441L170.746 70.7991ZM175.297 57.7891H171.064C170.238 57.7891 169.497 58.2971 169.199 59.0671L162.299 76.8921C162.061 77.5071 162.141 78.2001 162.514 78.7441C162.887 79.2891 163.504 79.614 164.164 79.614H167.394C168.181 79.614 168.906 79.373 169.492 78.916C170.031 78.497 170.411 77.985 170.622 77.396L171.226 75.6121H175.134L175.726 77.363C175.955 78.026 176.374 78.584 176.942 78.99C177.507 79.4 178.201 79.614 178.991 79.614H182.197C182.857 79.614 183.474 79.2891 183.847 78.7451C184.22 78.2011 184.3 77.5081 184.062 76.8921L177.162 59.0671C176.864 58.2971 176.123 57.7891 175.297 57.7891Z" fill="#005072"/>
<path d="M183.641 78.614C183.089 78.614 182.641 78.167 182.641 77.614V59.7891C182.641 59.2361 183.089 58.7891 183.641 58.7891H189.929C191.289 58.7891 192.485 58.9571 193.48 59.2871C194.509 59.6271 195.377 60.1092 196.06 60.7212C196.757 61.3462 197.28 62.095 197.615 62.948C197.937 63.775 198.1 64.6711 198.1 65.6121C198.1 66.6201 197.933 67.5642 197.605 68.4192C197.264 69.3072 196.735 70.0782 196.033 70.7122C195.346 71.3312 194.475 71.8182 193.445 72.1602C192.443 72.4902 191.261 72.657 189.93 72.657H188.777V77.615C188.777 78.168 188.329 78.615 187.777 78.615H183.641V78.614ZM189.929 67.5371C190.465 67.5371 191.176 67.4591 191.518 67.0881C191.815 66.7681 191.964 66.2721 191.964 65.6111C191.964 65.3241 191.922 65.066 191.84 64.842C191.771 64.651 191.667 64.4901 191.526 64.3521C191.385 64.2151 191.198 64.1081 190.958 64.0261C190.682 63.9311 190.336 63.8831 189.93 63.8831H188.777V67.5361H189.929V67.5371Z" fill="white"/>
<path d="M189.929 59.7891C191.185 59.7891 192.265 59.9371 193.165 60.2361C194.067 60.5341 194.809 60.9431 195.392 61.4651C195.975 61.9871 196.405 62.603 196.683 63.312C196.96 64.023 197.099 64.7891 197.099 65.6111C197.099 66.5021 196.956 67.3161 196.67 68.0591C196.385 68.8011 195.948 69.438 195.361 69.968C194.774 70.497 194.029 70.91 193.129 71.209C192.228 71.506 191.162 71.655 189.929 71.655H187.776V77.613H183.641V59.7881H189.929V59.7891ZM187.776 68.5371H189.929C191.006 68.5371 191.78 68.2791 192.254 67.7651C192.728 67.2541 192.964 66.5351 192.964 65.6121C192.964 65.2051 192.902 64.835 192.78 64.5C192.658 64.166 192.472 63.8802 192.224 63.6382C191.974 63.3972 191.661 63.2111 191.281 63.0811C190.902 62.9511 190.452 62.885 189.929 62.885H187.776V68.5371V68.5371ZM189.929 57.7891H183.641C182.537 57.7891 181.641 58.6851 181.641 59.7891V77.614C181.641 78.718 182.537 79.614 183.641 79.614H187.776C188.88 79.614 189.776 78.718 189.776 77.614V73.656H189.929C191.366 73.656 192.653 73.4721 193.754 73.1091C194.921 72.7221 195.911 72.1661 196.7 71.4541C197.521 70.7131 198.139 69.8121 198.537 68.7771C198.91 67.8061 199.099 66.7421 199.099 65.6111C199.099 64.5451 198.913 63.5272 198.547 62.5872C198.153 61.5832 197.542 60.7061 196.726 59.9761C195.941 59.2731 194.954 58.7212 193.792 58.3372C192.697 57.9742 191.397 57.7891 189.929 57.7891ZM189.776 64.884H189.929C190.298 64.884 190.515 64.9322 190.633 64.9722C190.766 65.0182 190.818 65.0592 190.834 65.0752C190.857 65.0982 190.88 65.128 190.901 65.186C190.943 65.299 190.964 65.4431 190.964 65.6121C190.964 65.9891 190.898 66.286 190.788 66.405C190.786 66.405 190.579 66.5381 189.93 66.5381H189.777V64.884H189.776Z" fill="#005072"/>
<path d="M199.617 78.614C199.065 78.614 198.617 78.167 198.617 77.614V59.7891C198.617 59.2361 199.065 58.7891 199.617 58.7891H203.777C204.329 58.7891 204.777 59.2361 204.777 59.7891V77.614C204.777 78.167 204.329 78.614 203.777 78.614H199.617Z" fill="white"/>
<path d="M203.777 59.7891V77.614H199.617V59.7891H203.777ZM203.777 57.7891H199.617C198.513 57.7891 197.617 58.6851 197.617 59.7891V77.614C197.617 78.718 198.513 79.614 199.617 79.614H203.777C204.881 79.614 205.777 78.718 205.777 77.614V59.7891C205.777 58.6851 204.881 57.7891 203.777 57.7891Z" fill="#005072"/>
<path d="M171.791 58.3887C170.946 58.3887 170.266 58.0156 169.875 57.3386L168.074 54.1917V57.3887C168.074 57.9417 167.626 58.3887 167.074 58.3887H164.164C163.612 58.3887 163.164 57.9417 163.164 57.3887V44.8477C163.164 44.2947 163.612 43.8477 164.164 43.8477H168.244C169.236 43.8477 170.11 43.9545 170.842 44.1665C171.612 44.3915 172.258 44.7165 172.766 45.1355C173.299 45.5735 173.695 46.1046 173.94 46.7126C174.171 47.2806 174.289 47.9047 174.289 48.5667C174.289 49.0707 174.22 49.5555 174.083 50.0085C173.943 50.4715 173.733 50.9046 173.457 51.2966C173.194 51.6736 172.866 52.0167 172.485 52.3157C172.528 52.3767 172.569 52.4377 172.608 52.5027L175.278 56.8677C175.466 57.1767 175.474 57.5627 175.298 57.8787C175.121 58.1937 174.787 58.3896 174.425 58.3896H171.791V58.3887ZM168.245 49.7446C168.52 49.7446 168.751 49.7136 168.914 49.6536C169.055 49.6026 169.161 49.5415 169.234 49.4675C169.303 49.3985 169.35 49.3227 169.381 49.2307C169.426 49.0967 169.448 48.9485 169.448 48.7805C169.448 48.4565 169.35 48.3276 169.254 48.2446C169.179 48.1806 168.926 48.0256 168.244 48.0256H168.074V49.7446H168.245Z" fill="white"/>
<path d="M168.244 44.8477C169.151 44.8477 169.924 44.9427 170.564 45.1277C171.204 45.3147 171.726 45.5735 172.13 45.9065C172.535 46.2395 172.829 46.6327 173.012 47.0867C173.196 47.5387 173.288 48.0317 173.288 48.5657C173.288 48.9727 173.233 49.3587 173.124 49.7197C173.016 50.0807 172.853 50.4147 172.638 50.7217C172.423 51.0297 172.159 51.3027 171.846 51.5437C171.533 51.7847 171.173 51.9827 170.766 52.1377C170.961 52.2357 171.143 52.3565 171.313 52.4995C171.482 52.6435 171.63 52.8187 171.756 53.0237L174.424 57.3867H171.79C171.302 57.3867 170.952 57.2037 170.74 56.8367L168.657 53.1956C168.565 53.0346 168.457 52.9196 168.334 52.8506C168.211 52.7816 168.037 52.7466 167.813 52.7466H167.073V57.3855H164.163V44.8447H168.244V44.8477ZM167.073 50.7446H168.243C168.639 50.7446 168.976 50.6945 169.254 50.5935C169.532 50.4935 169.761 50.3535 169.939 50.1755C170.117 49.9975 170.246 49.7905 170.327 49.5525C170.407 49.3145 170.447 49.0575 170.447 48.7815C170.447 48.2315 170.267 47.8027 169.909 47.4907C169.55 47.1807 168.995 47.0266 168.243 47.0266H167.073V50.7446V50.7446ZM168.244 42.8477H164.164C163.06 42.8477 162.164 43.7437 162.164 44.8477V57.3887C162.164 58.4927 163.06 59.3887 164.164 59.3887H167.074C168.017 59.3887 168.808 58.7357 169.019 57.8567C169.594 58.8337 170.601 59.3887 171.79 59.3887H174.424C175.148 59.3887 175.815 58.9977 176.169 58.3677C176.523 57.7357 176.508 56.9637 176.13 56.3467L173.772 52.4917C173.956 52.2947 174.125 52.0876 174.277 51.8706C174.611 51.3926 174.869 50.8636 175.039 50.2996C175.204 49.7516 175.288 49.1696 175.288 48.5686C175.288 47.7776 175.145 47.0277 174.865 46.3367C174.558 45.5767 174.065 44.9117 173.4 44.3657C172.788 43.8607 172.022 43.4717 171.123 43.2107C170.298 42.9687 169.33 42.8477 168.244 42.8477Z" fill="#005072"/>
<path d="M175.611 58.3887C175.059 58.3887 174.611 57.9417 174.611 57.3887V44.8477C174.611 44.2947 175.059 43.8477 175.611 43.8477H183.685C184.238 43.8477 184.685 44.2947 184.685 44.8477V47.0867C184.685 47.6397 184.238 48.0867 183.685 48.0867H179.538V49.0137H182.481C183.033 49.0137 183.481 49.4607 183.481 50.0137V52.1655C183.481 52.7185 183.033 53.1655 182.481 53.1655H179.538V54.1516H183.685C184.238 54.1516 184.685 54.5986 184.685 55.1516V57.3877C184.685 57.9407 184.238 58.3877 183.685 58.3877H175.611V58.3887Z" fill="white"/>
<path d="M183.685 44.8477V47.0867H178.538V50.0137H182.481V52.1655H178.538V55.1516H183.685V57.3877H175.611V44.8467H183.685V44.8477ZM183.685 42.8477H175.611C174.507 42.8477 173.611 43.7437 173.611 44.8477V57.3887C173.611 58.4927 174.507 59.3887 175.611 59.3887H183.685C184.789 59.3887 185.685 58.4927 185.685 57.3887V55.1526C185.685 54.2196 185.047 53.4366 184.184 53.2146C184.372 52.9096 184.481 52.5505 184.481 52.1655V50.0137C184.481 49.6507 184.384 49.3096 184.214 49.0156C185.062 48.7846 185.685 48.0077 185.685 47.0867V44.8477C185.685 43.7427 184.789 42.8477 183.685 42.8477Z" fill="#005072"/>
<path d="M188.731 58.5251C188.27 58.5251 187.801 58.477 187.34 58.384C186.891 58.295 186.442 58.1652 186.008 58.0002C185.571 57.8302 185.161 57.6301 184.781 57.4011C184.384 57.1621 184.027 56.8851 183.72 56.5801C183.388 56.2491 183.331 55.7332 183.581 55.3372L184.442 53.9771C184.588 53.7371 184.806 53.532 185.077 53.384C185.339 53.24 185.625 53.1672 185.924 53.1672C186.285 53.1672 186.638 53.2732 186.974 53.4822C187.145 53.5882 187.337 53.7062 187.551 53.8342C187.723 53.9372 187.927 54.0331 188.156 54.1201C188.327 54.1841 188.55 54.2183 188.816 54.2183C189.097 54.2183 189.319 54.1702 189.424 54.0862C189.441 54.0732 189.486 53.9872 189.486 53.7632C189.427 53.6322 189.326 53.5632 189.191 53.5002C188.982 53.4022 188.733 53.3131 188.453 53.2351C188.111 53.1421 187.756 53.0372 187.391 52.9202C186.994 52.7922 186.602 52.6352 186.23 52.4502C185.8 52.2412 185.407 51.9571 185.067 51.6091C184.714 51.2481 184.429 50.8022 184.221 50.2852C184.01 49.7572 183.908 49.1521 183.908 48.4341C183.908 47.8311 184.03 47.2372 184.271 46.6672C184.513 46.0952 184.872 45.5792 185.335 45.1362C185.797 44.6982 186.36 44.3471 187.012 44.0901C187.661 43.8361 188.401 43.707 189.211 43.707C189.649 43.707 190.082 43.7411 190.496 43.8091C190.916 43.8791 191.324 43.9851 191.709 44.1221C192.094 44.2611 192.456 44.4291 192.789 44.6201C193.136 44.8191 193.453 45.0511 193.73 45.3081C194.064 45.6171 194.147 46.1122 193.932 46.5132L193.209 47.8652C193.023 48.1672 192.845 48.3653 192.646 48.5103C192.375 48.7063 192.046 48.8071 191.69 48.8071C191.392 48.8071 191.088 48.7252 190.789 48.5632L190.273 48.2832C190.126 48.2032 189.956 48.1331 189.766 48.0681C189.627 48.0221 189.45 47.998 189.245 47.998C188.808 47.998 188.689 48.0981 188.684 48.1021C188.658 48.1241 188.626 48.152 188.626 48.29C188.658 48.297 188.774 48.3731 188.923 48.4421C189.13 48.5391 189.379 48.6302 189.682 48.7202C190.034 48.8262 190.39 48.944 190.755 49.072C191.142 49.208 191.526 49.3702 191.896 49.5522C192.33 49.7682 192.72 50.0462 193.054 50.3792C193.401 50.7212 193.686 51.1432 193.898 51.6292C194.113 52.1282 194.222 52.7122 194.222 53.3682C194.222 54.0712 194.097 54.742 193.85 55.363C193.597 55.997 193.227 56.5561 192.748 57.0281C192.271 57.4971 191.682 57.869 190.997 58.134C190.328 58.395 189.565 58.5251 188.731 58.5251Z" fill="white"/>
<path d="M189.212 44.7109C189.597 44.7109 189.971 44.7398 190.335 44.7998C190.7 44.8608 191.046 44.9499 191.373 45.0679C191.7 45.1859 192.005 45.327 192.29 45.491C192.574 45.654 192.828 45.8389 193.051 46.0459L192.328 47.3979C192.242 47.5359 192.152 47.6378 192.057 47.7078C191.962 47.7758 191.84 47.8118 191.691 47.8118C191.558 47.8118 191.417 47.7697 191.265 47.6877C191.112 47.6037 190.94 47.5097 190.748 47.4067C190.556 47.3027 190.336 47.211 190.09 47.127C189.843 47.045 189.562 47.0029 189.246 47.0029C188.701 47.0029 188.295 47.1198 188.028 47.3528C187.761 47.5848 187.628 47.8979 187.628 48.2949C187.628 48.5459 187.709 48.7569 187.869 48.9229C188.03 49.0889 188.241 49.2318 188.502 49.3538C188.763 49.4748 189.062 49.5828 189.398 49.6838C189.733 49.7858 190.076 49.8978 190.426 50.0208C190.777 50.1438 191.119 50.2888 191.454 50.4548C191.79 50.6218 192.089 50.8338 192.35 51.0938C192.612 51.3517 192.822 51.6649 192.983 52.0349C193.143 52.4059 193.224 52.8508 193.224 53.3748C193.224 53.9538 193.123 54.4957 192.922 55.0007C192.721 55.5047 192.43 55.9458 192.048 56.3218C191.667 56.6968 191.196 56.9917 190.636 57.2087C190.076 57.4247 189.441 57.5308 188.729 57.5308C188.339 57.5308 187.941 57.4919 187.537 57.4099C187.132 57.3299 186.741 57.2168 186.362 57.0718C185.983 56.9248 185.627 56.7508 185.294 56.5508C184.962 56.3508 184.672 56.1249 184.425 55.8789L185.286 54.5188C185.349 54.4148 185.438 54.3318 185.553 54.2698C185.667 54.2068 185.791 54.1738 185.923 54.1738C186.095 54.1738 186.269 54.2289 186.444 54.3379C186.619 54.4469 186.817 54.5667 187.038 54.6987C187.259 54.8307 187.513 54.9518 187.8 55.0608C188.087 55.1688 188.425 55.2239 188.816 55.2239C189.343 55.2239 189.754 55.1078 190.046 54.8748C190.339 54.6428 190.485 54.2738 190.485 53.7688C190.485 53.4758 190.404 53.24 190.244 53.054C190.083 52.87 189.872 52.7199 189.611 52.5989C189.349 52.4779 189.053 52.3708 188.72 52.2788C188.387 52.1878 188.046 52.0869 187.696 51.9739C187.345 51.8619 187.004 51.7238 186.672 51.5598C186.339 51.3978 186.042 51.1828 185.781 50.9158C185.519 50.6478 185.308 50.3157 185.148 49.9167C184.988 49.5167 184.907 49.0259 184.907 48.4399C184.907 47.9689 185.002 47.5097 185.191 47.0627C185.38 46.6157 185.658 46.216 186.025 45.866C186.393 45.516 186.843 45.2369 187.377 45.0269C187.912 44.8159 188.523 44.7109 189.212 44.7109ZM189.212 42.7109C188.276 42.7109 187.414 42.8629 186.649 43.1619C185.875 43.4669 185.202 43.8878 184.649 44.4128C184.082 44.9548 183.646 45.5818 183.35 46.2798C183.056 46.9738 182.908 47.6998 182.908 48.4368C182.908 49.2848 183.033 50.0097 183.292 50.6567C183.551 51.3007 183.907 51.8548 184.351 52.3098C184.423 52.3828 184.497 52.4549 184.572 52.5229C184.165 52.7489 183.82 53.0789 183.578 53.4739L182.736 54.8049C182.235 55.5959 182.35 56.6278 183.013 57.2898C183.377 57.6518 183.797 57.9778 184.263 58.2588C184.693 58.5178 185.155 58.7429 185.637 58.9309C186.136 59.1209 186.64 59.2669 187.149 59.3679C187.667 59.4719 188.201 59.5269 188.73 59.5269C189.688 59.5269 190.571 59.3738 191.356 59.0708C192.172 58.7538 192.876 58.3079 193.45 57.7449C194.029 57.1749 194.475 56.4998 194.78 55.7378C195.074 54.9968 195.224 54.2008 195.224 53.3708C195.224 52.5778 195.088 51.8598 194.819 51.2378C194.554 50.6288 194.196 50.1008 193.754 49.6658C193.613 49.5248 193.464 49.3928 193.306 49.2688C193.585 49.0488 193.824 48.7778 194.025 48.4558C194.048 48.4188 194.071 48.3798 194.092 48.3408L194.815 46.9888C195.244 46.1858 195.078 45.1959 194.41 44.5779C194.078 44.2699 193.7 43.9948 193.286 43.7568C192.907 43.5378 192.49 43.3447 192.053 43.1877C191.606 43.0277 191.14 42.9079 190.664 42.8289C190.191 42.7499 189.705 42.7109 189.212 42.7109Z" fill="#005072"/>
<path d="M197.338 58.3887C196.786 58.3887 196.338 57.9417 196.338 57.3887V48.1545H193.809C193.257 48.1545 192.809 47.7075 192.809 47.1545V44.8477C192.809 44.2947 193.257 43.8477 193.809 43.8477H203.777C204.33 43.8477 204.777 44.2947 204.777 44.8477V47.1545C204.777 47.7075 204.33 48.1545 203.777 48.1545H201.248V57.3887C201.248 57.9417 200.8 58.3887 200.248 58.3887H197.338Z" fill="white"/>
<path d="M203.777 44.8477V47.1545H200.248V57.3887H197.339V47.1545H193.81V44.8477H203.777ZM203.777 42.8477H193.809C192.705 42.8477 191.809 43.7437 191.809 44.8477V47.1545C191.809 48.2585 192.705 49.1545 193.809 49.1545H195.338V57.3887C195.338 58.4927 196.234 59.3887 197.338 59.3887H200.247C201.351 59.3887 202.247 58.4927 202.247 57.3887V49.1545H203.776C204.88 49.1545 205.776 48.2585 205.776 47.1545V44.8477C205.777 43.7427 204.882 42.8477 203.777 42.8477Z" fill="#005072"/>
<path d="M85.28 10.8882C85.28 10.2662 85.146 9.71622 84.877 9.24222C84.613 8.77922 84.217 8.38808 83.685 8.08108C79.298 5.55408 74.908 3.03005 70.523 0.499053C69.34 -0.184947 68.194 -0.158791 67.021 0.534209C65.276 1.56321 56.533 6.57108 53.929 8.08108C52.857 8.70008 52.334 9.65121 52.334 10.8882C52.332 15.9722 52.334 21.061 52.332 26.146C52.332 26.757 52.46 27.296 52.717 27.761C52.981 28.24 53.383 28.6402 53.926 28.9522C56.532 30.4622 65.274 35.4691 67.0201 36.4991C68.1931 37.1921 69.34 37.2182 70.522 36.5362C74.907 34.0032 79.297 31.4792 83.685 28.9522C84.228 28.6382 84.63 28.2351 84.896 27.7591C85.153 27.2941 85.28 26.755 85.281 26.146C85.281 26.146 85.281 15.9742 85.28 10.8882Z" fill="#9A4993"/>
<path d="M68.8568 18.4688L52.7168 27.7617C52.9808 28.2407 53.3828 28.6409 53.9258 28.9529C56.5318 30.4629 65.2738 35.4698 67.0198 36.4998C68.1928 37.1928 69.3398 37.2189 70.5218 36.5369C74.9068 34.0039 79.2968 31.4799 83.6848 28.9529C84.2278 28.6389 84.6298 28.2358 84.8958 27.7598L68.8568 18.4688Z" fill="#6A1577"/>
<path d="M64.0762 21.2209C65.0142 22.8599 66.7812 23.9658 68.8062 23.9658C70.8442 23.9658 72.6192 22.8469 73.5532 21.1899L68.8572 18.4688L64.0762 21.2209Z" fill="#6A1577"/>
<path d="M85.2804 10.8882C85.2804 10.2662 85.1464 9.71619 84.8774 9.24219L68.8574 18.468L84.8974 27.759C85.1544 27.294 85.2814 26.755 85.2824 26.146C85.2814 26.146 85.2814 15.9742 85.2804 10.8882Z" fill="#813084"/>
<path d="M73.5533 21.1912C72.6203 22.8482 70.8443 23.967 68.8063 23.967C66.7813 23.967 65.0143 22.8612 64.0763 21.2222C63.6203 20.4272 63.3573 19.504 63.3573 18.519C63.3573 15.51 65.7973 13.071 68.8063 13.071C70.8183 13.071 72.5743 14.1641 73.5183 15.7871L78.2793 13.043C76.3883 9.77597 72.8533 7.57812 68.8063 7.57812C62.7633 7.57812 57.8633 12.476 57.8633 18.519C57.8633 20.502 58.3903 22.3611 59.3123 23.9631C61.2003 27.2491 64.7443 29.46 68.8063 29.46C72.8733 29.46 76.4243 27.2391 78.3083 23.9441L73.5533 21.1912Z" fill="white"/>
<path d="M79.5712 15.9297H78.4902V21.1716H79.5712V15.9297Z" fill="white"/>
<path d="M81.9716 15.9297H80.8906V21.1716H81.9716V15.9297Z" fill="white"/>
<path d="M82.8524 16.8125H77.6113V17.8936H82.8524V16.8125Z" fill="white"/>
<path d="M82.8524 19.2109H77.6113V20.2939H82.8524V19.2109Z" fill="white"/>
<path d="M18.2983 118.926C18.2983 117.86 17.9933 117.313 17.3853 117.282C17.1423 117.269 16.9063 117.308 16.6773 117.398C16.4933 117.462 16.3694 117.528 16.3044 117.594V120.142C16.6944 120.384 17.0393 120.497 17.3413 120.48C17.9793 120.44 18.2983 119.921 18.2983 118.926ZM19.0483 118.971C19.0483 119.513 18.9213 119.962 18.6653 120.321C18.3803 120.726 17.9853 120.935 17.4803 120.946C17.0993 120.957 16.7084 120.839 16.3044 120.589V122.903L15.6523 122.671V117.532C15.7583 117.403 15.8974 117.289 16.0644 117.193C16.4534 116.966 16.9244 116.85 17.4814 116.844L17.4904 116.853C17.9964 116.846 18.3883 117.055 18.6643 117.478C18.9203 117.865 19.0483 118.363 19.0483 118.971Z" fill="white"/>
<path d="M23.0388 120.489C23.0388 121.217 22.9668 121.72 22.8198 122C22.6748 122.278 22.3958 122.504 21.9848 122.67C21.6508 122.802 21.2908 122.872 20.9038 122.885L20.7948 122.473C21.1898 122.42 21.4658 122.367 21.6268 122.315C21.9418 122.208 22.1598 122.043 22.2788 121.823C22.3748 121.642 22.4218 121.301 22.4218 120.795V120.624C21.9758 120.828 21.5088 120.929 21.0188 120.929C20.6968 120.929 20.4148 120.828 20.1698 120.624C19.8958 120.405 19.7578 120.124 19.7578 119.784V117.068L20.4108 116.844V119.578C20.4108 119.87 20.5058 120.094 20.6928 120.253C20.8818 120.41 21.1258 120.486 21.4258 120.481C21.7238 120.475 22.0458 120.361 22.3848 120.132V116.943H23.0378V120.489H23.0388Z" fill="white"/>
<path d="M25.585 120.909C25.508 120.915 25.4369 120.919 25.3709 120.919C25.0009 120.919 24.714 120.83 24.508 120.655C24.303 120.478 24.2 120.235 24.2 119.924V117.354H23.752V116.943H24.2V115.853L24.852 115.621V116.943H25.584V117.354H24.852V119.905C24.852 120.152 24.9159 120.326 25.0479 120.426C25.1609 120.51 25.34 120.557 25.585 120.571V120.909Z" fill="white"/>
<path d="M29.5375 120.856H28.8865V118.336C28.8865 118.08 28.8255 117.859 28.7055 117.676C28.5685 117.467 28.3765 117.363 28.1315 117.363C27.8315 117.363 27.4575 117.52 27.0085 117.837V120.857H26.3555V114.836L27.0085 114.629V117.372C27.4255 117.069 27.8815 116.918 28.3765 116.918C28.7215 116.918 29.0015 117.035 29.2155 117.265C29.4305 117.498 29.5375 117.787 29.5375 118.133V120.856Z" fill="white"/>
<path d="M33.0077 118.823C33.0077 118.415 32.9297 118.075 32.7757 117.808C32.5907 117.481 32.3047 117.309 31.9177 117.291C31.2027 117.332 30.8457 117.846 30.8457 118.829C30.8457 119.278 30.9197 119.654 31.0697 119.958C31.2607 120.341 31.5477 120.532 31.9307 120.525C32.6487 120.521 33.0077 119.954 33.0077 118.823ZM33.7227 118.83C33.7227 119.412 33.5737 119.898 33.2767 120.285C32.9477 120.721 32.4957 120.938 31.9177 120.938C31.3457 120.938 30.8997 120.72 30.5777 120.285C30.2847 119.898 30.1387 119.412 30.1387 118.83C30.1387 118.28 30.2967 117.819 30.6117 117.444C30.9457 117.045 31.3837 116.844 31.9267 116.844C32.4687 116.844 32.9097 117.044 33.2497 117.444C33.5647 117.819 33.7227 118.28 33.7227 118.83Z" fill="white"/>
<path d="M37.4636 120.855H36.8106V118.194C36.8106 117.9 36.7236 117.673 36.5476 117.509C36.3716 117.344 36.1376 117.265 35.8456 117.272C35.5346 117.278 35.2406 117.379 34.9606 117.575V120.855H34.3086V117.496C34.6846 117.222 35.0296 117.044 35.3446 116.96C35.6426 116.883 35.9066 116.844 36.1316 116.844C36.2856 116.844 36.4326 116.859 36.5696 116.889C36.8256 116.948 37.0336 117.059 37.1946 117.219C37.3736 117.399 37.4636 117.612 37.4636 117.864V120.855Z" fill="white"/>
<path d="M38.7348 116.359H38.8498V115.642H39.1208V115.555H38.4648V115.642H38.7348V116.359ZM39.2228 116.359H39.3208V115.704L39.5318 116.359H39.6408L39.8618 115.705V116.359H39.9688V115.555H39.8268L39.5848 116.243L39.3798 115.555H39.2218V116.359" fill="white"/>
<path d="M27.6801 90.5783C26.7731 90.5843 25.9081 90.6613 25.1471 90.7953C22.9031 91.1923 22.4951 92.0222 22.4951 93.5512V95.5722H27.7971V96.2463H22.4951H20.5051C18.9641 96.2463 17.6161 97.1732 17.1931 98.9342C16.7071 100.954 16.6851 102.213 17.1931 104.323C17.5701 105.891 18.4701 107.011 20.0101 107.011H21.8331V104.588C21.8331 102.84 23.3481 101.296 25.1461 101.296H30.4421C31.9161 101.296 33.0921 100.082 33.0921 98.6012V93.5522C33.0921 92.1162 31.8801 91.0363 30.4421 90.7963C29.5311 90.6443 28.5861 90.5743 27.6801 90.5783ZM24.8121 92.2052C25.3601 92.2052 25.8081 92.6592 25.8081 93.2192C25.8081 93.7762 25.3611 94.2262 24.8121 94.2262C24.2631 94.2262 23.8181 93.7762 23.8181 93.2192C23.8181 92.6592 24.2621 92.2052 24.8121 92.2052Z" fill="url(#paint0_linear)"/>
<path d="M33.7531 96.2471V98.6011C33.7531 100.426 32.2061 101.962 30.4421 101.962H25.1461C23.6951 101.962 22.4941 103.204 22.4941 104.657V109.706C22.4941 111.142 23.7441 111.988 25.1461 112.399C26.8241 112.893 28.4341 112.982 30.4421 112.399C31.7751 112.012 33.0921 111.235 33.0921 109.706V107.685H27.7971V107.011H33.0921H35.7431C37.2841 107.011 37.8581 105.937 38.3931 104.323C38.9471 102.663 38.9231 101.065 38.3931 98.9341C38.0131 97.4001 37.2861 96.2461 35.7431 96.2461H33.7531V96.2471ZM30.7751 109.032C31.3241 109.032 31.7691 109.482 31.7691 110.039C31.7691 110.6 31.3241 111.054 30.7751 111.054C30.2271 111.054 29.7802 110.6 29.7802 110.039C29.7812 109.483 30.2281 109.032 30.7751 109.032Z" fill="url(#paint1_linear)"/>
<path opacity="0.4438" d="M34.9639 115.831C34.9639 116.593 31.7819 117.21 27.8579 117.21C23.9339 117.21 20.7539 116.593 20.7539 115.831C20.7539 115.07 23.9349 114.453 27.8579 114.453C31.7809 114.453 34.9639 115.071 34.9639 115.831Z" fill="url(#paint2_radial)"/>
<defs>
<linearGradient id="paint0_linear" x1="16.3209" y1="91.3472" x2="28.5479" y2="101.765" gradientUnits="userSpaceOnUse">
<stop stop-color="#5A9FD4"/>
<stop offset="1" stop-color="#306998"/>
</linearGradient>
<linearGradient id="paint1_linear" x1="33.1344" y1="108.261" x2="28.7481" y2="102.115" gradientUnits="userSpaceOnUse">
<stop stop-color="#FFD43B"/>
<stop offset="1" stop-color="#FFE873"/>
</linearGradient>
<radialGradient id="paint2_radial" cx="0" cy="0" r="1" gradientUnits="userSpaceOnUse" gradientTransform="translate(27.7768 115.366) rotate(-90) scale(1.37762 6.05693)">
<stop stop-color="#B8B8B8" stop-opacity="0.498"/>
<stop offset="1" stop-color="#7F7F7F" stop-opacity="0"/>
</radialGradient>
</defs>
</svg>
