<svg width="151" height="102" viewBox="0 0 151 102" fill="none" xmlns="http://www.w3.org/2000/svg">
<path d="M94.2305 9.76172C109.629 9.76172 122.172 22.1951 122.355 37.5391C122.282 38.1061 122.227 38.6738 122.209 39.2598L121.971 46.145L128.49 48.416C136.034 51.043 141.106 61.6368 141.106 69.5278C141.106 79.8738 132.701 92.3799 122.356 92.3799H28.6065C18.2705 92.3799 9.85648 79.8738 9.85648 69.5278C9.85648 59.2928 18.1145 47.4267 28.3135 47.2617C28.7525 47.3247 29.2105 47.3807 29.6685 47.4077L36.7915 47.875L39.1355 41.146C41.7725 33.584 48.8395 28.5117 56.7315 28.5117C57.6475 28.5117 58.6545 28.6219 60.0095 28.8599L66.5735 30.041L69.8415 24.228C74.8575 15.31 84.1955 9.76172 94.2305 9.76172ZM94.2305 0.386719C80.1865 0.386719 68.0925 8.20586 61.6655 19.6309C60.0635 19.3479 58.4245 19.1367 56.7305 19.1367C44.4435 19.1367 34.1075 27.0658 30.2805 38.0518C29.7225 38.0148 29.1815 37.8867 28.6055 37.8867C13.0785 37.8867 0.480469 54.0008 0.480469 69.5278C0.480469 85.0548 13.0785 101.755 28.6055 101.755H122.355C137.882 101.755 150.48 85.0558 150.48 69.5278C150.48 57.2418 142.552 43.3807 131.565 39.5527C131.583 38.9857 131.73 38.4547 131.73 37.8867C131.73 17.1777 114.939 0.386719 94.2305 0.386719Z" fill="#D1D4D3"/>
<path d="M104.335 51.1019L103.318 48.8417C104.288 48.1307 105.121 47.2437 105.773 46.2347L108.089 47.1117C108.531 47.2797 109.027 47.0556 109.194 46.6136L110.045 44.3656C110.126 44.1526 110.119 43.9178 110.025 43.7108C109.931 43.5028 109.759 43.3406 109.547 43.2606L107.23 42.3836C107.413 41.1956 107.376 39.9796 107.121 38.8026L109.38 37.786C109.588 37.692 109.75 37.52 109.83 37.307C109.912 37.094 109.904 36.8587 109.81 36.6507L108.823 34.4608C108.628 34.0278 108.12 33.8366 107.689 34.0316L105.43 35.0477C104.718 34.0787 103.832 33.2446 102.821 32.5946L103.7 30.2777C103.867 29.8357 103.644 29.3407 103.2 29.1727L100.953 28.3216C100.741 28.2406 100.505 28.2477 100.297 28.3417C100.089 28.4347 99.9281 28.6067 99.8471 28.8207L98.9701 31.1356C97.7811 30.9526 96.5631 30.9899 95.3901 31.2459L94.3721 28.9857C94.2791 28.7787 94.1071 28.618 93.8941 28.537C93.6821 28.457 93.4451 28.463 93.2381 28.558L91.0471 29.5448C90.6151 29.7378 90.4231 30.2456 90.6171 30.6786L91.6351 32.9378C90.6651 33.6498 89.8321 34.5358 89.1811 35.5458L86.8641 34.6678C86.6521 34.5878 86.4161 34.5948 86.2081 34.6878C86.0011 34.7818 85.8391 34.9538 85.7581 35.1668L84.9071 37.4139C84.7401 37.8559 84.9621 38.3519 85.4051 38.5199L87.7211 39.3968C87.5391 40.5858 87.5771 41.8009 87.8311 42.9769L85.5711 43.995C85.3641 44.089 85.2031 44.261 85.1211 44.474C85.0401 44.685 85.0491 44.9227 85.1421 45.1297L86.1291 47.3187C86.2221 47.5277 86.3951 47.6879 86.6071 47.7699C86.8201 47.8499 87.0561 47.8419 87.2641 47.7489L89.5231 46.7328C90.2341 47.7028 91.1201 48.5349 92.1311 49.1859L91.2541 51.5018C91.0871 51.9448 91.3091 52.4398 91.7521 52.6068L94.0001 53.4588C94.0991 53.4958 94.2011 53.516 94.3031 53.516C94.4241 53.516 94.5441 53.4898 94.6561 53.4408C94.8641 53.3458 95.0251 53.1738 95.1061 52.9618L95.9841 50.6459C97.1731 50.8299 98.3901 50.7919 99.5641 50.5379L100.582 52.7958C100.675 53.0038 100.848 53.1639 101.06 53.2459C101.273 53.3259 101.51 53.3179 101.716 53.2259L103.907 52.2376C104.337 52.0396 104.529 51.5329 104.335 51.1019ZM102.914 42.9486C102.062 45.1946 99.8771 46.7049 97.4761 46.7049C96.7731 46.7049 96.0801 46.578 95.4161 46.327C93.9641 45.775 92.8121 44.6927 92.1751 43.2767C91.5371 41.8607 91.4891 40.281 92.0391 38.829C92.8901 36.582 95.0761 35.0716 97.4771 35.0716C98.1801 35.0716 98.8731 35.199 99.5361 35.452C100.989 36.002 102.14 37.0839 102.778 38.4999C103.416 39.9159 103.464 41.4956 102.914 42.9486ZM121.982 54.6585C121.829 54.4915 121.614 54.3917 121.387 54.3827L119.772 54.3128C119.623 53.5508 119.355 52.8146 118.977 52.1346L120.168 51.0418C120.517 50.7208 120.541 50.1799 120.22 49.8299L119.037 48.5409C118.884 48.3749 118.669 48.2735 118.442 48.2635C118.215 48.2555 117.993 48.3356 117.826 48.4906L116.635 49.5838C115.99 49.1488 115.281 48.8178 114.533 48.6058L114.603 46.9906C114.624 46.5176 114.256 46.1166 113.782 46.0956L112.035 46.0218C111.564 46.0038 111.162 46.3697 111.141 46.8407L111.072 48.4559C110.31 48.6049 109.574 48.8738 108.894 49.2508L107.801 48.0599C107.647 47.8909 107.432 47.7925 107.206 47.7835C106.979 47.7745 106.757 47.8546 106.589 48.0086L105.301 49.1917C104.952 49.5117 104.929 50.0537 105.249 50.4037L106.342 51.5926C105.908 52.2386 105.577 52.9476 105.364 53.6966L103.749 53.6288C103.278 53.6078 102.876 53.9746 102.856 54.4476L102.781 56.1947C102.771 56.4227 102.852 56.6439 103.006 56.8099C103.16 56.9779 103.374 57.0777 103.602 57.0877L105.216 57.1566C105.365 57.9186 105.633 58.6548 106.011 59.3348L104.819 60.4276C104.651 60.5816 104.552 60.7958 104.542 61.0248C104.532 61.2518 104.613 61.4719 104.767 61.6419L105.95 62.9295C106.104 63.0965 106.319 63.1969 106.546 63.2059C106.773 63.2149 106.995 63.1338 107.163 62.9808L108.354 61.8866C108.999 62.3206 109.709 62.6506 110.456 62.8636L110.387 64.4808C110.367 64.9538 110.735 65.3539 111.207 65.3739L112.955 65.4476C112.968 65.4496 112.979 65.4496 112.992 65.4496C113.206 65.4496 113.414 65.37 113.572 65.225C113.74 65.07 113.84 64.8558 113.849 64.6278L113.918 63.0135C114.681 62.8635 115.417 62.5956 116.096 62.2186L117.189 63.4095C117.343 63.5755 117.558 63.6759 117.784 63.6869C118.013 63.6959 118.234 63.6148 118.401 63.4598L119.689 62.2777C120.039 61.9577 120.062 61.4148 119.741 61.0648L118.648 59.8758C119.083 59.2298 119.413 58.5208 119.626 57.7728L121.241 57.8417C121.714 57.8597 122.115 57.4939 122.135 57.0209L122.21 55.2738C122.217 55.0488 122.135 54.8265 121.982 54.6585ZM112.322 59.7308C110.119 59.6368 108.403 57.7658 108.498 55.5648C108.59 53.4168 110.344 51.7357 112.49 51.7357C112.548 51.7357 112.606 51.7366 112.664 51.7406C114.867 51.8346 116.582 53.7036 116.488 55.9066C116.394 58.1096 114.543 59.8228 112.322 59.7308Z" fill="#FF664A"/>
<path d="M46.8792 63.8472C46.7242 64.0972 46.5622 64.2823 46.3922 64.4053C46.2242 64.5283 46.0042 64.5913 45.7362 64.5913C45.4992 64.5913 45.2442 64.5192 44.9712 64.3672C44.6982 64.2182 44.3892 64.0513 44.0452 63.8643C43.7002 63.6793 43.3062 63.5113 42.8632 63.3623C42.4212 63.2163 41.9152 63.1372 41.3492 63.1372C40.3712 63.1372 39.6422 63.3462 39.1642 63.7622C38.6842 64.1802 38.4452 64.7436 38.4452 65.4556C38.4452 65.9106 38.5902 66.2845 38.8782 66.5845C39.1672 66.8825 39.5452 67.1385 40.0142 67.3545C40.4822 67.5735 41.0182 67.7702 41.6202 67.9502C42.2222 68.1302 42.8372 68.3312 43.4662 68.5522C44.0942 68.7752 44.7092 69.0345 45.3112 69.3315C45.9132 69.6305 46.4492 70.0135 46.9172 70.4775C47.3862 70.9415 47.7652 71.5045 48.0532 72.1675C48.3412 72.8325 48.4862 73.6323 48.4862 74.5693C48.4862 75.6083 48.3052 76.5843 47.9442 77.4893C47.5832 78.3933 47.0622 79.1844 46.3772 79.8594C45.6922 80.5344 44.8482 81.0642 43.8442 81.4482C42.8402 81.8372 41.6992 82.0303 40.4232 82.0303C39.7222 82.0303 39.0092 81.9585 38.2832 81.8135C37.5572 81.6685 36.8542 81.4656 36.1762 81.2046C35.4962 80.9416 34.8582 80.6306 34.2602 80.2676C33.6622 79.9086 33.1432 79.5054 32.6992 79.0654L34.2442 76.6245C34.3572 76.4375 34.5162 76.2883 34.7232 76.1753C34.9282 76.0643 35.1502 76.0054 35.3872 76.0054C35.6972 76.0054 36.0072 76.1033 36.3222 76.3003C36.6362 76.4943 36.9912 76.7123 37.3872 76.9463C37.7842 77.1843 38.2402 77.4012 38.7552 77.5962C39.2692 77.7912 39.8782 77.8892 40.5782 77.8892C41.5242 77.8892 42.2612 77.6802 42.7862 77.2642C43.3102 76.8482 43.5742 76.1863 43.5742 75.2783C43.5742 74.7533 43.4292 74.3266 43.1412 73.9976C42.8522 73.6696 42.4742 73.3962 42.0062 73.1792C41.5362 72.9622 41.0052 72.7734 40.4062 72.6084C39.8092 72.4434 39.1962 72.2595 38.5692 72.0605C37.9412 71.8595 37.3282 71.6114 36.7302 71.3174C36.1342 71.0234 35.6002 70.6382 35.1322 70.1592C34.6632 69.6802 34.2842 69.0832 33.9962 68.3672C33.7082 67.6522 33.5632 66.7682 33.5632 65.7212C33.5632 64.8752 33.7342 64.0526 34.0732 63.2466C34.4132 62.4436 34.9122 61.7286 35.5722 61.1016C36.2302 60.4726 37.0382 59.9702 37.9972 59.5952C38.9542 59.2182 40.0522 59.0312 41.2872 59.0312C41.9762 59.0312 42.6492 59.0844 43.3022 59.1934C43.9562 59.3024 44.5762 59.4614 45.1632 59.6724C45.7502 59.8824 46.2992 60.1342 46.8092 60.4292C47.3182 60.7222 47.7742 61.0543 48.1762 61.4243L46.8792 63.8472Z" fill="#FF664A"/>
<path d="M62.1407 81.7808C61.6867 81.7808 61.3446 81.7188 61.1136 81.5938C60.8816 81.4707 60.6887 81.2108 60.5327 80.8228L60.1937 79.9419C59.7917 80.2819 59.4046 80.5799 59.0356 80.8379C58.6636 81.0949 58.2807 81.3127 57.8857 81.4917C57.4887 81.6757 57.0657 81.806 56.6187 81.894C56.1707 81.982 55.6726 82.0269 55.1266 82.0269C54.3956 82.0269 53.7307 81.9287 53.1337 81.7417C52.5357 81.5487 52.0296 81.265 51.6126 80.896C51.1956 80.523 50.8736 80.0608 50.6476 79.5068C50.4196 78.9558 50.3066 78.3178 50.3066 77.5928C50.3066 77.0268 50.4507 76.4428 50.7397 75.8428C51.0277 75.2428 51.5276 74.698 52.2386 74.208C52.9486 73.718 53.9057 73.3061 55.1107 72.9761C56.3157 72.6461 57.8347 72.48 59.6677 72.48V71.793C59.6677 70.849 59.4747 70.1652 59.0887 69.7432C58.7027 69.3222 58.1537 69.1118 57.4437 69.1118C56.8767 69.1118 56.4127 69.1749 56.0517 69.2979C55.6927 69.4209 55.3696 69.5608 55.0866 69.7158C54.8036 69.8678 54.5287 70.0088 54.2607 70.1328C53.9937 70.2548 53.6736 70.3159 53.3026 70.3159C52.9726 70.3159 52.6926 70.2381 52.4616 70.0781C52.2296 69.9181 52.0457 69.7209 51.9137 69.4829L51.0486 67.9858C52.0166 67.1308 53.0896 66.4971 54.2686 66.0781C55.4476 65.6611 56.7106 65.4531 58.0606 65.4531C59.0286 65.4531 59.9017 65.6088 60.6797 65.9238C61.4567 66.2368 62.1166 66.6748 62.6566 67.2368C63.1966 67.7978 63.6127 68.4628 63.8997 69.2378C64.1887 70.0088 64.3317 70.854 64.3317 71.769V81.7798H62.1407V81.7808ZM56.6417 78.8608C57.2607 78.8608 57.8006 78.7531 58.2636 78.5381C58.7266 78.3211 59.1946 77.9718 59.6696 77.4868V75.2939C58.7116 75.2939 57.9247 75.355 57.3057 75.481C56.6877 75.607 56.1997 75.7607 55.8387 75.9487C55.4777 76.1357 55.2287 76.3469 55.0887 76.5859C54.9497 76.8269 54.8817 77.0857 54.8817 77.3647C54.8817 77.9157 55.0296 78.3029 55.3286 78.5269C55.6276 78.7489 56.0647 78.8608 56.6417 78.8608Z" fill="#FF664A"/>
<path d="M78.792 81.7808C78.337 81.7808 77.996 81.7188 77.765 81.5938C77.534 81.4707 77.34 81.2108 77.185 80.8228L76.845 79.9419C76.444 80.2819 76.058 80.5799 75.687 80.8379C75.316 81.0949 74.932 81.3127 74.536 81.4917C74.14 81.6757 73.718 81.806 73.271 81.894C72.822 81.982 72.325 82.0269 71.779 82.0269C71.049 82.0269 70.384 81.9287 69.786 81.7417C69.189 81.5487 68.682 81.265 68.265 80.896C67.848 80.523 67.527 80.0608 67.3 79.5068C67.073 78.9558 66.959 78.3178 66.959 77.5928C66.959 77.0268 67.105 76.4428 67.392 75.8428C67.68 75.2428 68.18 74.698 68.891 74.208C69.6 73.718 70.559 73.3061 71.763 72.9761C72.968 72.6461 74.487 72.48 76.32 72.48V71.793C76.32 70.849 76.127 70.1652 75.74 69.7432C75.354 69.3222 74.805 69.1118 74.096 69.1118C73.529 69.1118 73.065 69.1749 72.704 69.2979C72.345 69.4209 72.023 69.5608 71.739 69.7158C71.456 69.8678 71.181 70.0088 70.913 70.1328C70.645 70.2548 70.325 70.3159 69.955 70.3159C69.624 70.3159 69.345 70.2381 69.113 70.0781C68.881 69.9181 68.698 69.7209 68.565 69.4829L67.701 67.9858C68.667 67.1308 69.742 66.4971 70.92 66.0781C72.099 65.6611 73.363 65.4531 74.712 65.4531C75.679 65.4531 76.553 65.6088 77.33 65.9238C78.107 66.2368 78.767 66.6748 79.307 67.2368C79.847 67.7978 80.261 68.4628 80.55 69.2378C80.839 70.0088 80.983 70.854 80.983 71.769V81.7798H78.792V81.7808ZM73.293 78.8608C73.911 78.8608 74.452 78.7531 74.916 78.5381C75.379 78.3211 75.847 77.9718 76.321 77.4868V75.2939C75.363 75.2939 74.576 75.355 73.957 75.481C73.34 75.607 72.851 75.7607 72.49 75.9487C72.13 76.1357 71.88 76.3469 71.741 76.5859C71.602 76.8269 71.533 77.0857 71.533 77.3647C71.533 77.9157 71.681 78.3029 71.98 78.5269C72.278 78.7489 72.716 78.8608 73.293 78.8608Z" fill="#FF664A"/>
<path d="M96.9251 63.8472C96.7711 64.0972 96.6091 64.2823 96.4391 64.4053C96.2691 64.5283 96.0501 64.5913 95.7831 64.5913C95.5461 64.5913 95.2901 64.5192 95.0181 64.3672C94.7461 64.2182 94.4351 64.0513 94.0921 63.8643C93.7461 63.6793 93.3531 63.5113 92.9091 63.3623C92.4671 63.2163 91.9611 63.1372 91.3951 63.1372C90.4161 63.1372 89.6891 63.3462 89.2101 63.7622C88.7301 64.1802 88.4911 64.7436 88.4911 65.4556C88.4911 65.9106 88.6361 66.2845 88.9241 66.5845C89.2121 66.8825 89.5902 67.1385 90.0602 67.3545C90.5282 67.5735 91.0641 67.7702 91.6661 67.9502C92.2681 68.1302 92.8831 68.3312 93.5111 68.5522C94.1401 68.7752 94.7551 69.0345 95.3571 69.3315C95.9591 69.6305 96.4961 70.0135 96.9631 70.4775C97.4321 70.9415 97.8101 71.5045 98.0981 72.1675C98.3861 72.8325 98.5321 73.6323 98.5321 74.5693C98.5321 75.6083 98.3511 76.5843 97.9901 77.4893C97.6301 78.3933 97.1082 79.1844 96.4232 79.8594C95.7382 80.5344 94.8941 81.0642 93.8901 81.4482C92.8861 81.8372 91.7451 82.0303 90.4681 82.0303C89.7671 82.0303 89.0542 81.9585 88.3282 81.8135C87.6022 81.6685 86.8992 81.4656 86.2202 81.2046C85.5412 80.9416 84.9021 80.6306 84.3051 80.2676C83.7071 79.9086 83.1871 79.5054 82.7441 79.0654L84.2892 76.6245C84.4032 76.4375 84.5611 76.2883 84.7681 76.1753C84.9741 76.0643 85.1951 76.0054 85.4321 76.0054C85.7421 76.0054 86.0521 76.1033 86.3661 76.3003C86.6801 76.4943 87.0351 76.7123 87.4321 76.9463C87.8281 77.1843 88.2851 77.4012 88.7991 77.5962C89.3141 77.7912 89.9221 77.8892 90.6221 77.8892C91.5691 77.8892 92.3051 77.6802 92.8301 77.2642C93.3551 76.8482 93.6181 76.1863 93.6181 75.2783C93.6181 74.7533 93.4732 74.3266 93.1852 73.9976C92.8962 73.6696 92.5181 73.3962 92.0501 73.1792C91.5801 72.9622 91.0481 72.7734 90.4511 72.6084C89.8531 72.4434 89.2402 72.2595 88.6122 72.0605C87.9852 71.8595 87.3711 71.6114 86.7741 71.3174C86.1781 71.0234 85.6441 70.6382 85.1761 70.1592C84.7071 69.6802 84.3281 69.0832 84.0401 68.3672C83.7521 67.6522 83.6071 66.7682 83.6071 65.7212C83.6071 64.8752 83.7771 64.0526 84.1181 63.2466C84.4561 62.4436 84.9561 61.7286 85.6161 61.1016C86.2751 60.4726 87.0841 59.9702 88.0411 59.5952C88.9981 59.2182 90.0961 59.0312 91.3311 59.0312C92.0201 59.0312 92.6931 59.0844 93.3461 59.1934C94.0011 59.3024 94.6211 59.4614 95.2081 59.6724C95.7951 59.8824 96.3442 60.1342 96.8542 60.4292C97.3622 60.7222 97.8192 61.0543 98.2202 61.4243L96.9251 63.8472Z" fill="#FF664A"/>
</svg>
