<svg width="338" height="246" viewBox="0 0 338 246" fill="none" xmlns="http://www.w3.org/2000/svg">
<path d="M276.28 211.497H84.1753C83.5266 211.489 69.522 211.274 55.2523 204.407C41.67 197.87 25.3448 184.027 24.707 155.196V155.065C24.707 126.671 39.4755 110.35 51.8627 101.661C60.1321 95.8597 68.3826 92.6652 73.5316 91.0557C73.5514 81.8823 76.1483 63.5218 94.9223 51.9698L95.0733 51.8817C102.46 47.6172 110.078 45.4544 117.714 45.4544C126.435 45.4544 133.544 48.2913 138.362 51.0165C140.888 45.8156 145.052 38.535 151.301 31.2494C166.616 13.3887 187.191 3.95312 210.803 3.95312C213.973 3.95312 217.25 4.12441 220.538 4.45701L220.672 4.46982C260.191 9.36979 277.219 34.3626 284.544 54.4643C290.054 69.581 290.952 84.0067 290.987 91.3843C296.202 93.0573 304.736 96.4566 313.111 102.683C325.415 111.827 339.69 128.921 337.836 158.423L337.788 158.908C333.875 186.08 317.293 198.973 304.071 205.007C290.007 211.425 276.832 211.497 276.28 211.497Z" fill="#E55C42"/>
<path d="M83.932 198.649H276.55C278.32 198.643 319.907 197.994 326.017 156.859C328.729 111.384 285.627 101.896 283.788 101.513L278.508 100.414L278.891 95.0767C278.903 94.8997 280.12 76.6653 273.138 57.8585C264.118 33.5614 246.017 19.5606 219.334 16.2465C216.473 15.9568 213.634 15.8125 210.89 15.8125C162.539 15.8125 146.947 61.3851 146.796 61.8429L143.743 71.096L136.67 64.3462C136.62 64.3008 128.925 57.2662 117.527 57.2662C112.089 57.2662 106.552 58.86 101.069 61.9932C82.8638 73.2118 85.6149 93.4285 85.7424 94.2867L86.5943 100.062L80.8253 101.204C80.7267 101.224 69.3291 103.545 58.2285 111.418C43.8728 121.598 36.5843 136.078 36.5664 154.446C37.5628 197.297 81.6612 198.613 83.932 198.649Z" fill="#FF664A"/>
<path fill-rule="evenodd" clip-rule="evenodd" d="M184.416 190.606C175.876 190.606 167.337 190.606 158.797 190.606C158.725 190.576 158.657 190.538 158.583 190.512C156.734 189.939 155.598 188.418 155.598 186.49C155.598 175.346 155.597 164.206 155.6 153.061C155.6 150.724 157.366 148.928 159.702 148.923C167.638 148.916 175.574 148.916 183.508 148.923C185.827 148.928 187.614 150.721 187.614 153.022C187.62 164.205 187.618 175.387 187.614 186.568C187.614 188.399 186.47 189.924 184.711 190.488C184.608 190.522 184.512 190.564 184.416 190.606ZM158.88 176.986C158.88 177.136 158.88 177.241 158.88 177.347C158.88 180.363 158.88 183.38 158.88 186.399C158.88 187.114 159.178 187.408 159.909 187.409C167.706 187.409 175.5 187.409 183.301 187.409C184.05 187.407 184.333 187.115 184.333 186.365C184.333 183.371 184.333 180.386 184.333 177.398C184.333 177.261 184.32 177.133 184.315 176.985C175.833 176.986 167.382 176.986 158.88 176.986ZM184.333 161.784C184.333 161.6 184.333 161.467 184.333 161.329C184.333 158.636 184.333 155.952 184.333 153.258C184.333 152.439 184.076 152.182 183.261 152.182C175.49 152.182 167.716 152.182 159.945 152.182C159.148 152.182 158.88 152.444 158.88 153.22C158.88 155.94 158.88 158.658 158.88 161.376C158.88 161.509 158.895 161.64 158.903 161.784C167.382 161.784 175.833 161.784 184.333 161.784ZM158.901 173.682C167.395 173.682 175.852 173.682 184.313 173.682C184.313 170.803 184.313 167.955 184.313 165.088C175.836 165.088 167.379 165.088 158.901 165.088C158.901 167.96 158.901 170.802 158.901 173.682Z" fill="white"/>
<path fill-rule="evenodd" clip-rule="evenodd" d="M176.223 180.561C177.224 180.561 178.223 180.555 179.222 180.561C180.236 180.565 180.958 181.243 180.966 182.172C180.97 183.095 180.24 183.81 179.242 183.818C177.216 183.83 175.189 183.83 173.166 183.818C172.17 183.81 171.439 183.095 171.441 182.172C171.449 181.245 172.176 180.573 173.188 180.561C173.216 180.561 173.243 180.561 173.269 180.561C174.255 180.561 175.241 180.561 176.223 180.561Z" fill="white"/>
<path fill-rule="evenodd" clip-rule="evenodd" d="M163.37 180.305C164.429 180.305 165.283 181.144 165.283 182.186C165.283 183.229 164.426 184.078 163.375 184.078C162.327 184.081 161.459 183.229 161.457 182.19C161.456 181.149 162.308 180.306 163.37 180.305Z" fill="white"/>
<path fill-rule="evenodd" clip-rule="evenodd" d="M176.231 155.688C177.228 155.688 178.228 155.686 179.228 155.688C180.236 155.696 180.962 156.381 180.966 157.304C180.966 158.23 180.236 158.943 179.238 158.949C177.21 158.959 175.187 158.959 173.162 158.949C172.166 158.94 171.435 158.218 171.441 157.298C171.451 156.371 172.178 155.694 173.192 155.688C174.205 155.686 175.215 155.688 176.231 155.688Z" fill="white"/>
<path fill-rule="evenodd" clip-rule="evenodd" d="M163.379 159.22C162.319 159.22 161.466 158.384 161.457 157.342C161.456 156.3 162.308 155.455 163.366 155.453C164.427 155.453 165.281 156.281 165.283 157.329C165.285 158.371 164.438 159.214 163.379 159.22Z" fill="white"/>
<path fill-rule="evenodd" clip-rule="evenodd" d="M176.191 168.084C177.203 168.084 178.215 168.08 179.224 168.084C180.236 168.092 180.958 168.767 180.966 169.696C180.97 170.619 180.24 171.338 179.248 171.34C177.21 171.35 175.179 171.354 173.141 171.34C172.151 171.336 171.429 170.605 171.442 169.683C171.459 168.767 172.176 168.095 173.16 168.086C174.17 168.08 175.182 168.084 176.191 168.084Z" fill="white"/>
<path fill-rule="evenodd" clip-rule="evenodd" d="M165.283 169.75C165.291 170.788 164.443 171.637 163.392 171.655C162.339 171.672 161.451 170.802 161.457 169.755C161.465 168.72 162.331 167.867 163.37 167.867C164.414 167.864 165.277 168.717 165.283 169.75Z" fill="white"/>
<path fill-rule="evenodd" clip-rule="evenodd" d="M69.4816 144.012C70.2746 144.012 71.0647 144.012 71.8578 144.012C72.205 144.058 72.5543 144.103 72.8996 144.156C76.5913 144.701 79.7407 146.301 82.3099 148.988C84.4921 151.276 85.8652 153.983 86.4314 157.086C86.5319 157.635 86.5996 158.186 86.6782 158.737C86.6782 159.521 86.6782 160.307 86.6782 161.099C86.6325 161.441 86.5907 161.788 86.5379 162.129C85.9877 165.798 84.3786 168.929 81.6671 171.479C79.3665 173.649 76.641 175.008 73.5156 175.574C72.9663 175.671 72.41 175.734 71.8578 175.817C71.0647 175.817 70.2746 175.817 69.4816 175.817C69.1313 175.771 68.7851 175.73 68.4378 175.676C64.7441 175.13 61.5967 173.533 59.0285 170.846C56.8443 168.555 55.4712 165.848 54.907 162.745C54.8065 162.197 54.7408 161.646 54.6582 161.099C54.6582 160.307 54.6582 159.521 54.6582 158.737C54.704 158.387 54.7488 158.045 54.8005 157.7C55.3488 154.031 56.9608 150.904 59.6693 148.354C61.9709 146.185 64.6953 144.819 67.8228 144.26C68.3701 144.16 68.9263 144.094 69.4816 144.012ZM84.6692 159.936C84.6831 152.364 78.5546 146.175 70.9722 146.015C63.1232 145.846 56.6433 152.146 56.6702 159.956C56.6911 167.582 62.8784 173.68 70.396 173.816C78.2769 173.97 84.6652 167.629 84.6692 159.936Z" fill="white"/>
<path fill-rule="evenodd" clip-rule="evenodd" d="M71.619 167.635C71.619 168.369 71.619 169.091 71.619 169.832C70.9891 169.832 70.3782 169.832 69.7324 169.832C69.7324 169.107 69.7324 168.381 69.7324 167.629C67.1024 167.346 65.6895 165.804 65.1113 163.317C66.0865 163.063 67.0547 162.814 68.0328 162.555C68.1184 162.847 68.181 163.109 68.2716 163.355C68.797 164.798 70.5294 165.486 71.9016 164.785C72.5165 164.475 72.7991 163.936 72.821 163.266C72.8429 162.628 72.5822 162.129 71.9921 161.854C71.3981 161.584 70.7861 161.343 70.1841 161.095C69.4816 160.804 68.7632 160.557 68.0825 160.229C66.4994 159.463 65.6865 158.171 65.6666 156.436C65.6447 154.656 66.2666 153.161 67.9124 152.264C68.4507 151.975 69.0766 151.838 69.7085 151.617C69.7085 151.137 69.7085 150.583 69.7085 150C70.3513 150 70.9692 150 71.614 150C71.614 150.559 71.614 151.117 71.614 151.699C73.8101 151.972 75.1385 153.206 75.7445 155.292C74.8758 155.646 74.0161 155.996 73.1375 156.355C73.0867 156.239 73.0469 156.126 72.9912 156.027C72.7574 155.632 72.5742 155.206 72.2827 154.864C71.5344 153.977 70.1603 153.93 69.4279 154.71C68.8518 155.318 68.7274 156.645 69.807 157.134C70.6299 157.504 71.4767 157.823 72.3086 158.179C72.8449 158.407 73.3802 158.633 73.8967 158.9C75.5644 159.762 76.4152 161.38 76.2092 163.248C75.9366 165.709 74.4579 167.215 71.9712 167.564C71.8598 167.58 71.7493 167.609 71.619 167.635Z" fill="white"/>
<path fill-rule="evenodd" clip-rule="evenodd" d="M118.221 109.396C116.968 109.396 115.714 109.396 114.462 109.396C114.38 109.377 114.294 109.351 114.212 109.345C112.975 109.248 111.732 109.191 110.501 109.059C108.428 108.837 106.379 108.466 104.405 107.766C103.348 107.388 102.334 106.928 101.472 106.182C100.795 105.595 100.359 104.89 100.361 103.95C100.367 96.395 100.367 88.8413 100.367 81.2867C100.367 81.1227 100.38 80.9566 100.409 80.7985C100.57 79.9476 101.119 79.3665 101.78 78.8704C102.748 78.145 103.852 77.6963 104.997 77.3365C107.495 76.5656 110.064 76.2177 112.66 76.025C113.261 75.9786 113.862 75.9351 114.461 75.8906C115.713 75.8906 116.967 75.8906 118.22 75.8906C118.315 75.9114 118.41 75.9331 118.508 75.938C119.733 76.0379 120.961 76.0962 122.182 76.2296C124.203 76.4461 126.194 76.8067 128.124 77.463C129.292 77.8603 130.414 78.3485 131.345 79.1866C131.969 79.743 132.381 80.4091 132.381 81.2867C132.377 88.8285 132.381 96.3692 132.377 103.915C132.377 104.097 132.371 104.288 132.342 104.467C132.186 105.341 131.62 105.942 130.939 106.45C129.989 107.158 128.907 107.601 127.782 107.953C125.289 108.735 122.716 109.069 120.118 109.258C119.486 109.309 118.853 109.351 118.221 109.396ZM102.501 84.1014C102.499 84.1657 102.489 84.2497 102.489 84.3357C102.489 85.6976 102.519 87.0615 102.479 88.4224C102.461 89.0134 102.688 89.4008 103.173 89.6439C103.789 89.9503 104.412 90.2596 105.062 90.478C108.165 91.5286 111.389 91.8656 114.645 91.9871C117.205 92.079 119.759 91.9881 122.301 91.6561C124.316 91.3952 126.312 91.0334 128.209 90.2902C128.768 90.0717 129.293 89.7723 129.815 89.4718C130.134 89.286 130.267 88.9768 130.261 88.5874C130.245 87.1801 130.259 85.7737 130.257 84.3664C130.257 84.2636 130.245 84.1657 130.237 84.0303C129.922 84.1825 129.649 84.3199 129.371 84.4454C129.091 84.5689 128.808 84.6885 128.521 84.7903C125.459 85.8705 122.274 86.251 119.053 86.4298C116.653 86.5613 114.25 86.5149 111.851 86.2994C109.621 86.1037 107.407 85.7866 105.261 85.1234C104.333 84.8368 103.436 84.4533 102.501 84.1014ZM130.255 91.7134C129.449 92.0277 128.695 92.3815 127.909 92.6345C125.04 93.5595 122.069 93.9083 119.073 94.0684C115.488 94.2592 111.922 94.1051 108.382 93.4903C106.399 93.1444 104.452 92.675 102.658 91.7351C102.616 91.7084 102.559 91.7065 102.49 91.6917C102.49 93.2057 102.504 94.7001 102.484 96.1954C102.48 96.6273 102.634 96.9484 102.984 97.1559C103.436 97.4228 103.898 97.6838 104.383 97.8735C106.77 98.8124 109.281 99.2077 111.82 99.434C115.715 99.7888 119.603 99.7147 123.473 99.1198C125.254 98.847 127.008 98.4635 128.666 97.745C129.104 97.5543 129.523 97.3012 129.909 97.0215C130.077 96.899 130.238 96.6302 130.242 96.4266C130.266 94.8572 130.255 93.2868 130.255 91.7134ZM102.488 99.3115C102.488 100.81 102.51 102.268 102.48 103.726C102.47 104.269 102.665 104.649 103.119 104.881C103.72 105.19 104.331 105.502 104.966 105.723C107.915 106.745 110.987 107.078 114.084 107.226C116.896 107.362 119.702 107.26 122.497 106.899C124.415 106.654 126.311 106.299 128.117 105.598C128.704 105.371 129.262 105.055 129.81 104.742C130.134 104.56 130.266 104.249 130.26 103.857C130.248 102.451 130.258 101.043 130.256 99.6386C130.256 99.5349 130.244 99.432 130.238 99.3431C129.489 99.6455 128.776 99.9875 128.034 100.231C124.942 101.244 121.741 101.588 118.513 101.733C115.743 101.85 112.981 101.753 110.233 101.409C108.218 101.152 106.222 100.793 104.309 100.093C103.707 99.8718 103.125 99.5882 102.488 99.3115ZM116.385 84.3921C119.53 84.3604 122.658 84.1499 125.725 83.4156C126.995 83.1142 128.255 82.7554 129.398 82.11C130.529 81.4795 130.542 80.8885 129.4 80.2946C128.676 79.918 127.906 79.6185 127.124 79.3695C124.611 78.5719 122.011 78.2546 119.388 78.1054C115.538 77.881 111.708 78.0313 107.918 78.7815C106.529 79.0493 105.161 79.4199 103.873 80.0129C103.49 80.1927 103.116 80.418 102.788 80.6829C102.387 81.01 102.395 81.3697 102.78 81.7097C103.019 81.9143 103.282 82.1199 103.571 82.2306C104.624 82.6279 105.673 83.0608 106.758 83.3385C109.911 84.1608 113.142 84.3575 116.385 84.3921Z" fill="white"/>
<path fill-rule="evenodd" clip-rule="evenodd" d="M304.212 168.48C304.973 169.743 305.733 171.01 306.538 172.348C305.821 172.217 305.175 172.1 304.531 171.98C302.961 171.688 301.394 171.391 299.824 171.105C299.678 171.076 299.515 171.109 299.366 171.143C296.572 171.818 293.867 171.585 291.301 170.278C288.937 169.079 287.219 167.271 286.601 164.646C285.901 161.683 286.84 159.16 289.041 157.125C291.366 154.969 294.198 154.155 297.339 154.369C299.818 154.54 302.023 155.402 303.863 157.075C305.541 158.608 306.507 160.497 306.558 162.782C306.602 164.751 305.895 166.467 304.625 167.968C304.498 168.113 304.374 168.257 304.248 168.399C304.24 168.409 304.238 168.424 304.212 168.48ZM293.016 163.355C293.02 162.39 292.251 161.61 291.294 161.61C290.298 161.607 289.53 162.364 289.528 163.351C289.524 164.307 290.3 165.073 291.266 165.077C292.229 165.077 293.014 164.311 293.016 163.355ZM301.665 165.077C302.631 165.077 303.409 164.315 303.417 163.355C303.423 162.393 302.655 161.619 301.694 161.609C300.706 161.6 299.926 162.371 299.926 163.347C299.926 164.307 300.698 165.074 301.665 165.077ZM294.723 163.338C294.723 164.316 295.499 165.078 296.49 165.074C297.436 165.072 298.209 164.309 298.213 163.366C298.219 162.382 297.453 161.611 296.466 161.61C295.502 161.61 294.723 162.381 294.723 163.338Z" fill="white"/>
<path fill-rule="evenodd" clip-rule="evenodd" d="M274.559 163.763C275.416 162.337 276.225 160.986 277.054 159.607C276.963 159.508 276.877 159.414 276.793 159.319C275.228 157.571 274.394 155.545 274.56 153.192C274.743 150.546 276.045 148.489 278.125 146.898C279.946 145.503 282.032 144.78 284.322 144.62C287.369 144.4 290.15 145.13 292.572 147.009C294.382 148.418 295.546 150.236 295.928 152.516C295.96 152.71 295.96 152.908 295.976 153.111C295.215 153.208 294.49 153.301 293.745 153.397C293.661 152.453 293.407 151.554 292.906 150.737C291.742 148.846 290.013 147.712 287.9 147.182C284.732 146.389 281.777 146.857 279.202 148.944C277.63 150.215 276.755 151.878 276.821 153.938C276.872 155.509 277.531 156.823 278.615 157.936C279.041 158.368 279.516 158.761 279.966 159.167C279.657 159.69 279.41 160.107 279.116 160.605C279.702 160.499 280.206 160.412 280.706 160.321C281.026 160.262 281.34 160.177 281.662 160.141C281.891 160.119 282.132 160.141 282.366 160.177C283.279 160.309 284.19 160.455 285.102 160.594C285.216 160.612 285.336 160.612 285.45 160.618C285.343 161.357 285.241 162.071 285.126 162.874C284.479 162.813 283.774 162.835 283.133 162.65C282.1 162.35 281.125 162.521 280.124 162.717C278.3 163.08 276.47 163.406 274.559 163.763Z" fill="white"/>
<path fill-rule="evenodd" clip-rule="evenodd" d="M262.323 98.6644C262.323 104.148 262.323 109.637 262.323 115.124C262.116 115.622 261.978 116.168 261.691 116.611C261.032 117.621 260.063 118.025 258.915 118.023C253.202 118.017 247.49 118.02 241.78 118.02C239.082 118.02 236.382 118.015 233.682 118.023C232.542 118.025 231.586 117.612 230.934 116.611C230.646 116.168 230.508 115.622 230.301 115.124C230.301 109.636 230.301 104.148 230.301 98.6644C230.508 98.1633 230.646 97.6129 230.934 97.1751C231.592 96.1611 232.564 95.7597 233.712 95.7617C239.422 95.7706 245.133 95.7687 250.847 95.7687C253.544 95.7687 256.245 95.7706 258.945 95.7617C260.085 95.7597 261.042 96.1699 261.691 97.1751C261.978 97.6129 262.116 98.1633 262.323 98.6644ZM234.397 98.024C234.5 98.1416 234.557 98.2138 234.621 98.2869C238.363 102.256 242.106 106.23 245.848 110.205C246.209 110.584 246.414 110.584 246.771 110.207C250.522 106.225 254.271 102.248 258.022 98.2661C258.083 98.2009 258.133 98.1297 258.213 98.025C250.261 98.024 242.367 98.024 234.397 98.024ZM235.062 115.749C242.55 115.749 250.082 115.749 257.591 115.749C255.419 113.442 253.249 111.143 251.043 108.8C250.991 108.87 250.923 108.972 250.845 109.059C249.985 109.977 249.127 110.893 248.261 111.802C247.075 113.05 245.545 113.045 244.357 111.796C243.603 111.002 242.851 110.204 242.105 109.402C241.916 109.199 241.739 108.981 241.597 108.813C239.387 111.161 237.217 113.464 235.062 115.749ZM232.441 99.2257C232.435 99.2534 232.425 99.2722 232.425 99.296C232.423 104.404 232.423 109.512 232.426 114.619C232.426 114.772 232.477 114.928 232.503 115.068C235.006 112.41 237.481 109.779 239.934 107.183C237.455 104.548 234.954 101.892 232.441 99.2257ZM260.174 99.2672C257.682 101.908 255.175 104.57 252.723 107.172C255.17 109.77 257.65 112.403 260.115 115.018C260.214 114.775 260.281 99.8958 260.174 99.2672Z" fill="white"/>
<path fill-rule="evenodd" clip-rule="evenodd" d="M229.75 30.05C229.75 38.6206 229.75 47.1922 229.75 55.7657C229.436 56.7985 228.761 57.358 227.652 57.358C218.378 57.356 209.1 57.358 199.823 57.358C199.115 57.358 198.507 57.1415 198.094 56.5446C197.937 56.3084 197.85 56.0286 197.729 55.7657C197.729 47.1922 197.729 38.6206 197.729 30.05C198.04 29.0153 198.714 28.4609 199.823 28.4609C209.1 28.4609 218.378 28.4609 227.652 28.4609C228.358 28.4609 228.971 28.6764 229.38 29.2743C229.542 29.5066 229.627 29.7931 229.75 30.05ZM227.421 35.3218C218.281 35.3218 209.172 35.3218 200.053 35.3218C200.053 41.9039 200.053 48.4661 200.053 55.0453C209.181 55.0453 218.297 55.0453 227.421 55.0453C227.421 48.4661 227.421 41.9029 227.421 35.3218ZM224.145 32.0554C224.149 32.0554 224.153 32.0554 224.155 32.0554C224.155 31.9733 224.157 31.8913 224.155 31.8053C224.137 31.2321 223.88 30.9792 223.305 30.9722C223.088 30.9722 222.866 30.9632 222.651 30.987C222.32 31.0176 222.086 31.2321 222.055 31.5622C222.025 31.8992 222.025 32.2421 222.055 32.5811C222.081 32.9112 222.32 33.1247 222.651 33.1524C222.909 33.181 223.171 33.181 223.432 33.1682C223.856 33.1425 224.095 32.9132 224.14 32.4882C224.157 32.3469 224.145 32.2006 224.145 32.0554ZM218.737 32.0554C218.731 32.0554 218.727 32.0554 218.723 32.0554C218.723 32.1621 218.72 32.2659 218.723 32.3677C218.739 32.9053 218.994 33.1584 219.536 33.1702C219.741 33.1762 219.953 33.182 220.158 33.1632C220.533 33.1356 220.779 32.9428 220.815 32.5811C220.853 32.2332 220.849 31.8784 220.809 31.5315C220.77 31.2024 220.525 31.0028 220.19 30.981C219.921 30.9623 219.651 30.9623 219.379 30.981C219.022 31.0067 218.779 31.2449 218.738 31.5888C218.723 31.742 218.737 31.9022 218.737 32.0554ZM227.45 32.0811H227.453C227.453 31.9763 227.457 31.8745 227.453 31.7717C227.435 31.2311 227.18 30.981 226.636 30.9711C226.417 30.9682 226.199 30.9623 225.98 30.981C225.647 31.0097 225.408 31.2044 225.361 31.5365C225.321 31.8488 225.308 32.1769 225.335 32.4941C225.376 32.928 225.637 33.1524 226.085 33.1702C226.296 33.1821 226.502 33.1821 226.707 33.1702C227.177 33.1465 227.429 32.8925 227.45 32.425C227.46 32.3123 227.45 32.1947 227.45 32.0811Z" fill="white"/>
<path fill-rule="evenodd" clip-rule="evenodd" d="M216.435 39.8405C216.418 39.9097 216.392 40.0648 216.347 40.2111C215.252 43.5852 214.161 46.9563 213.049 50.3165C212.962 50.5764 212.779 50.8383 212.569 51.0103C212.246 51.2702 211.763 51.2199 211.431 50.9768C211.083 50.7139 210.949 50.2988 211.096 49.8343C211.473 48.6513 211.856 47.4751 212.241 46.2961C212.966 44.0546 213.697 41.8161 214.425 39.5766C214.636 38.9342 215.143 38.6327 215.71 38.7919C216.16 38.9213 216.44 39.2949 216.435 39.8405Z" fill="white"/>
<path fill-rule="evenodd" clip-rule="evenodd" d="M207.382 44.9903C208.319 45.4231 209.213 45.8391 210.107 46.2503C210.278 46.3293 210.451 46.4006 210.614 46.4935C211.127 46.7781 211.31 47.3463 211.063 47.8404C210.823 48.3208 210.26 48.5204 209.727 48.2882C209.083 48.0025 208.445 47.6981 207.804 47.4026C206.794 46.9352 205.789 46.4697 204.778 46.0111C204.337 45.8085 204.037 45.517 204.029 45.0021C204.023 44.4773 204.323 44.1778 204.778 43.9693C206.4 43.2221 208.02 42.4671 209.644 41.7229C210.316 41.4155 210.971 41.6942 211.139 42.3366C211.263 42.8149 211.033 43.2844 210.527 43.5315C209.988 43.7924 209.438 44.0325 208.889 44.2875C208.402 44.5109 207.911 44.7392 207.382 44.9903Z" fill="white"/>
<path fill-rule="evenodd" clip-rule="evenodd" d="M220.099 44.9898C219.104 44.5263 218.164 44.0924 217.219 43.6555C217.1 43.5992 216.974 43.5459 216.857 43.4777C216.348 43.1881 216.167 42.6208 216.418 42.1266C216.664 41.6453 217.217 41.4566 217.759 41.6888C218.196 41.8776 218.629 42.0872 219.057 42.2888C220.304 42.86 221.55 43.4302 222.791 44.0143C223.509 44.3563 223.68 45.221 223.138 45.73C223.035 45.8288 222.905 45.905 222.775 45.9633C221.117 46.7371 219.458 47.504 217.795 48.262C217.323 48.4824 216.876 48.4035 216.569 48.0625C216.279 47.7522 216.196 47.2787 216.442 46.917C216.589 46.7015 216.83 46.5157 217.07 46.3981C218.051 45.9178 219.048 45.4741 220.099 44.9898Z" fill="white"/>
<path fill-rule="evenodd" clip-rule="evenodd" d="M267.778 158.238C267.778 160.837 265.655 162.952 263.031 162.952C260.409 162.952 258.283 160.837 258.283 158.238C258.283 155.632 260.409 153.523 263.031 153.523C265.655 153.524 267.778 155.633 267.778 158.238Z" fill="#FECB91"/>
<path d="M219.651 111.647C222.272 111.647 224.397 109.537 224.397 106.933C224.397 104.329 222.272 102.219 219.651 102.219C217.029 102.219 214.904 104.329 214.904 106.933C214.904 109.537 217.029 111.647 219.651 111.647Z" fill="#FECB91"/>
<path fill-rule="evenodd" clip-rule="evenodd" d="M190.353 45.5033C190.353 48.1025 188.227 50.2185 185.608 50.2185C182.986 50.2185 180.861 48.1025 180.861 45.5033C180.861 42.8952 182.986 40.7891 185.608 40.7891C188.227 40.7901 190.353 42.8961 190.353 45.5033Z" fill="#FECB91"/>
<path fill-rule="evenodd" clip-rule="evenodd" d="M148.862 93.2407C148.862 95.8409 146.74 97.9529 144.115 97.9529C141.496 97.9529 139.367 95.8409 139.367 93.2407C139.367 90.6325 141.496 88.5234 144.115 88.5234C146.74 88.5224 148.862 90.6325 148.862 93.2407Z" fill="#FECB91"/>
<path fill-rule="evenodd" clip-rule="evenodd" d="M178.157 137.663C178.157 140.27 176.031 142.381 173.41 142.381C170.79 142.381 168.662 140.269 168.662 137.663C168.662 135.061 170.791 132.949 173.41 132.949C176.031 132.95 178.157 135.061 178.157 137.663Z" fill="#FECB91"/>
<path fill-rule="evenodd" clip-rule="evenodd" d="M96.1686 143.774C96.1686 146.374 94.0451 148.488 91.4232 148.488C88.8032 148.488 86.6777 146.374 86.6777 143.774C86.6777 141.167 88.8032 139.059 91.4232 139.059C94.0461 139.058 96.1686 141.167 96.1686 143.774Z" fill="#FECB91"/>
<path d="M255.884 157.233C255.835 157.233 255.788 157.227 255.738 157.217L255.117 157.074C254.772 156.995 254.559 156.65 254.637 156.313C254.719 155.969 255.063 155.753 255.406 155.833L256.027 155.976C256.371 156.055 256.588 156.398 256.507 156.743C256.439 157.033 256.175 157.233 255.884 157.233Z" fill="#FECB91"/>
<path d="M253.396 156.663C253.35 156.663 253.301 156.656 253.251 156.646L252.629 156.502C252.286 156.425 252.071 156.081 252.152 155.738C252.232 155.399 252.578 155.184 252.919 155.262L253.541 155.406C253.885 155.487 254.101 155.827 254.02 156.168C253.952 156.464 253.688 156.663 253.396 156.663Z" fill="#FECB91"/>
<path d="M250.912 156.093C250.863 156.093 250.812 156.086 250.766 156.072L250.144 155.932C249.801 155.849 249.586 155.507 249.668 155.17C249.745 154.823 250.091 154.612 250.436 154.693L251.056 154.834C251.401 154.916 251.614 155.258 251.535 155.598C251.465 155.89 251.204 156.093 250.912 156.093Z" fill="#FECB91"/>
<path d="M248.423 155.518C248.377 155.518 248.328 155.516 248.279 155.507L247.658 155.358C247.315 155.285 247.098 154.939 247.176 154.599C247.259 154.257 247.602 154.043 247.946 154.122L248.566 154.265C248.913 154.343 249.127 154.688 249.046 155.028C248.979 155.32 248.717 155.518 248.423 155.518Z" fill="#FECB91"/>
<path d="M245.938 154.951C245.892 154.951 245.841 154.945 245.793 154.933L245.172 154.79C244.825 154.713 244.61 154.371 244.691 154.025C244.771 153.684 245.115 153.472 245.458 153.552L246.082 153.696C246.427 153.771 246.638 154.115 246.56 154.457C246.492 154.753 246.227 154.951 245.938 154.951Z" fill="#FECB91"/>
<path d="M243.451 154.382C243.403 154.382 243.356 154.376 243.305 154.363L242.685 154.22C242.339 154.141 242.125 153.801 242.204 153.456C242.284 153.115 242.631 152.9 242.973 152.983L243.595 153.127C243.94 153.208 244.155 153.545 244.074 153.89C244.007 154.18 243.741 154.382 243.451 154.382Z" fill="#FECB91"/>
<path d="M240.963 153.807C240.917 153.807 240.868 153.802 240.82 153.791L240.198 153.646C239.852 153.57 239.638 153.226 239.718 152.884C239.796 152.542 240.141 152.327 240.486 152.407L241.108 152.554C241.451 152.629 241.666 152.971 241.588 153.315C241.519 153.608 241.256 153.807 240.963 153.807Z" fill="#FECB91"/>
<path d="M238.479 153.24C238.43 153.24 238.382 153.232 238.333 153.222L237.713 153.081C237.366 153 237.151 152.659 237.229 152.318C237.311 151.972 237.657 151.762 237.998 151.841L238.622 151.981C238.967 152.064 239.178 152.405 239.101 152.747C239.035 153.041 238.767 153.24 238.479 153.24Z" fill="#FECB91"/>
<path d="M235.995 152.671C235.944 152.671 235.898 152.663 235.85 152.653L235.229 152.509C234.882 152.43 234.667 152.09 234.75 151.747C234.828 151.4 235.174 151.19 235.517 151.271L236.137 151.411C236.482 151.494 236.697 151.834 236.617 152.179C236.549 152.468 236.287 152.671 235.995 152.671Z" fill="#FECB91"/>
<path d="M233.504 152.097C233.457 152.097 233.411 152.091 233.361 152.081L232.741 151.937C232.395 151.861 232.18 151.517 232.261 151.176C232.342 150.834 232.685 150.622 233.028 150.7L233.65 150.844C233.993 150.917 234.208 151.263 234.13 151.605C234.062 151.9 233.798 152.097 233.504 152.097Z" fill="#FECB91"/>
<path d="M231.021 151.529C230.973 151.529 230.924 151.522 230.875 151.51L230.256 151.372C229.907 151.287 229.696 150.948 229.774 150.606C229.853 150.264 230.2 150.05 230.543 150.13L231.163 150.271C231.509 150.354 231.724 150.695 231.645 151.035C231.575 151.328 231.313 151.529 231.021 151.529Z" fill="#FECB91"/>
<path d="M228.534 150.954C228.486 150.954 228.438 150.949 228.39 150.938L227.768 150.796C227.425 150.716 227.21 150.37 227.29 150.033C227.369 149.687 227.713 149.475 228.059 149.556L228.676 149.699C229.024 149.779 229.239 150.119 229.158 150.462C229.087 150.753 228.828 150.954 228.534 150.954Z" fill="#FECB91"/>
<path d="M226.048 150.384C226 150.384 225.95 150.38 225.902 150.37L225.281 150.226C224.938 150.145 224.723 149.804 224.801 149.46C224.882 149.123 225.225 148.908 225.571 148.984L226.19 149.13C226.537 149.207 226.751 149.552 226.67 149.889C226.602 150.185 226.34 150.384 226.048 150.384Z" fill="#FECB91"/>
<path d="M223.563 149.815C223.517 149.815 223.466 149.809 223.421 149.797L222.799 149.656C222.451 149.573 222.241 149.237 222.319 148.892C222.396 148.546 222.743 148.335 223.086 148.416L223.708 148.555C224.054 148.636 224.266 148.978 224.188 149.318C224.119 149.613 223.854 149.815 223.563 149.815Z" fill="#FECB91"/>
<path d="M221.077 149.246C221.027 149.246 220.981 149.24 220.931 149.227L220.309 149.083C219.966 149.004 219.751 148.66 219.831 148.32C219.912 147.979 220.255 147.764 220.602 147.845L221.22 147.99C221.566 148.067 221.781 148.409 221.702 148.751C221.631 149.044 221.369 149.246 221.077 149.246Z" fill="#FECB91"/>
<path d="M218.59 148.673C218.542 148.673 218.496 148.665 218.445 148.655L217.824 148.511C217.481 148.433 217.266 148.093 217.344 147.748C217.425 147.409 217.769 147.197 218.114 147.274L218.735 147.418C219.081 147.495 219.294 147.841 219.215 148.178C219.146 148.474 218.882 148.673 218.59 148.673Z" fill="#FECB91"/>
<path d="M216.102 148.104C216.056 148.104 216.008 148.099 215.96 148.086L215.338 147.944C214.994 147.862 214.779 147.523 214.858 147.181C214.937 146.837 215.279 146.623 215.626 146.705L216.246 146.845C216.591 146.928 216.806 147.264 216.728 147.609C216.66 147.904 216.395 148.104 216.102 148.104Z" fill="#FECB91"/>
<path d="M213.618 147.53C213.572 147.53 213.521 147.527 213.473 147.517L212.849 147.372C212.505 147.293 212.291 146.949 212.373 146.608C212.451 146.266 212.794 146.054 213.139 146.134L213.761 146.278C214.106 146.355 214.321 146.697 214.241 147.039C214.173 147.332 213.911 147.53 213.618 147.53Z" fill="#FECB91"/>
<path d="M211.13 146.959C211.084 146.959 211.036 146.956 210.986 146.945L210.368 146.8C210.02 146.72 209.805 146.381 209.886 146.037C209.966 145.697 210.312 145.485 210.653 145.563L211.275 145.706C211.62 145.784 211.833 146.128 211.755 146.466C211.686 146.764 211.421 146.959 211.13 146.959Z" fill="#FECB91"/>
<path d="M208.645 146.391C208.597 146.391 208.55 146.384 208.503 146.374L207.881 146.234C207.535 146.154 207.32 145.81 207.399 145.472C207.48 145.123 207.821 144.91 208.168 144.996L208.79 145.134C209.133 145.213 209.348 145.555 209.27 145.898C209.201 146.189 208.935 146.391 208.645 146.391Z" fill="#FECB91"/>
<path d="M206.158 145.818C206.111 145.818 206.064 145.812 206.014 145.805L205.393 145.659C205.048 145.582 204.833 145.237 204.913 144.898C204.992 144.553 205.339 144.341 205.682 144.418L206.305 144.564C206.648 144.64 206.863 144.984 206.782 145.327C206.717 145.619 206.453 145.818 206.158 145.818Z" fill="#FECB91"/>
<path d="M203.672 145.248C203.624 145.248 203.576 145.244 203.527 145.23L202.905 145.089C202.561 145.008 202.346 144.667 202.427 144.326C202.506 143.982 202.849 143.772 203.193 143.847L203.817 143.99C204.162 144.071 204.377 144.414 204.296 144.754C204.229 145.051 203.966 145.248 203.672 145.248Z" fill="#FECB91"/>
<path d="M201.185 144.675C201.139 144.675 201.091 144.673 201.043 144.661L200.421 144.519C200.076 144.437 199.861 144.095 199.943 143.755C200.022 143.408 200.366 143.198 200.709 143.279L201.331 143.419C201.676 143.499 201.889 143.842 201.812 144.186C201.742 144.478 201.477 144.675 201.185 144.675Z" fill="#FECB91"/>
<path d="M198.7 144.103C198.653 144.103 198.605 144.099 198.556 144.09L197.934 143.945C197.589 143.873 197.376 143.527 197.456 143.183C197.537 142.842 197.88 142.629 198.224 142.708L198.846 142.85C199.189 142.929 199.406 143.274 199.326 143.614C199.256 143.908 198.994 144.103 198.7 144.103Z" fill="#FECB91"/>
<path d="M196.215 143.538C196.166 143.538 196.117 143.533 196.069 143.52L195.446 143.377C195.104 143.296 194.888 142.956 194.968 142.612C195.048 142.274 195.396 142.057 195.736 142.138L196.358 142.278C196.703 142.359 196.918 142.703 196.837 143.042C196.77 143.337 196.507 143.538 196.215 143.538Z" fill="#FECB91"/>
<path d="M193.731 142.967C193.681 142.967 193.632 142.961 193.584 142.951L192.963 142.808C192.62 142.728 192.404 142.382 192.483 142.045C192.564 141.701 192.906 141.488 193.25 141.567L193.872 141.711C194.217 141.789 194.432 142.132 194.354 142.473C194.281 142.765 194.019 142.967 193.731 142.967Z" fill="#FECB91"/>
<path d="M191.244 142.395C191.196 142.395 191.148 142.387 191.098 142.377L190.477 142.234C190.134 142.157 189.917 141.811 189.997 141.472C190.076 141.13 190.421 140.916 190.765 140.992L191.388 141.138C191.731 141.217 191.946 141.561 191.868 141.9C191.797 142.197 191.535 142.395 191.244 142.395Z" fill="#FECB91"/>
<path d="M188.756 141.827C188.707 141.827 188.657 141.819 188.611 141.809L187.989 141.665C187.643 141.583 187.429 141.245 187.509 140.902C187.588 140.56 187.935 140.346 188.277 140.428L188.899 140.568C189.245 140.65 189.459 140.99 189.377 141.331C189.31 141.625 189.048 141.827 188.756 141.827Z" fill="#FECB91"/>
<path d="M186.271 141.252C186.223 141.252 186.174 141.244 186.125 141.237L185.502 141.09C185.158 141.011 184.943 140.669 185.022 140.329C185.103 139.984 185.448 139.773 185.791 139.853L186.413 139.996C186.759 140.073 186.973 140.415 186.893 140.758C186.825 141.053 186.559 141.252 186.271 141.252Z" fill="#FECB91"/>
<path d="M183.784 140.684C183.739 140.684 183.689 140.675 183.64 140.667L183.018 140.524C182.675 140.445 182.458 140.102 182.538 139.758C182.617 139.417 182.964 139.202 183.308 139.282L183.929 139.429C184.273 139.504 184.488 139.848 184.409 140.19C184.34 140.485 184.076 140.684 183.784 140.684Z" fill="#FECB91"/>
<path d="M181.297 140.111C181.25 140.111 181.201 140.107 181.152 140.091L180.532 139.953C180.185 139.871 179.972 139.527 180.052 139.19C180.131 138.844 180.476 138.628 180.821 138.714L181.443 138.855C181.787 138.938 182.002 139.274 181.921 139.619C181.855 139.912 181.588 140.111 181.297 140.111Z" fill="#FECB91"/>
<path d="M169.456 132.304C169.249 132.304 169.042 132.204 168.922 132.017L168.571 131.486C168.379 131.192 168.46 130.799 168.756 130.607C169.052 130.416 169.449 130.498 169.643 130.791L169.993 131.325C170.186 131.617 170.103 132.012 169.808 132.202C169.699 132.274 169.578 132.304 169.456 132.304Z" fill="#FECB91"/>
<path d="M168.057 130.185C167.85 130.185 167.645 130.084 167.521 129.898L167.174 129.369C166.98 129.075 167.061 128.678 167.357 128.486C167.656 128.294 168.053 128.379 168.246 128.671L168.596 129.201C168.789 129.496 168.708 129.888 168.41 130.081C168.3 130.155 168.18 130.185 168.057 130.185Z" fill="#FECB91"/>
<path d="M166.659 128.064C166.452 128.064 166.248 127.961 166.127 127.776L165.775 127.248C165.58 126.952 165.665 126.559 165.962 126.364C166.257 126.175 166.655 126.255 166.848 126.548L167.197 127.082C167.392 127.374 167.309 127.767 167.013 127.959C166.901 128.032 166.781 128.064 166.659 128.064Z" fill="#FECB91"/>
<path d="M165.264 125.947C165.055 125.947 164.851 125.845 164.728 125.657L164.379 125.127C164.184 124.833 164.267 124.442 164.564 124.249C164.859 124.054 165.256 124.141 165.452 124.432L165.801 124.961C165.996 125.259 165.911 125.652 165.616 125.842C165.507 125.915 165.387 125.947 165.264 125.947Z" fill="#FECB91"/>
<path d="M163.866 123.825C163.658 123.825 163.452 123.72 163.332 123.537L162.981 123.004C162.788 122.711 162.872 122.317 163.167 122.124C163.462 121.931 163.859 122.013 164.054 122.309L164.402 122.84C164.597 123.134 164.514 123.527 164.216 123.719C164.108 123.788 163.988 123.825 163.866 123.825Z" fill="#FECB91"/>
<path d="M162.468 121.706C162.259 121.706 162.054 121.603 161.93 121.415L161.581 120.885C161.388 120.596 161.47 120.197 161.765 120.004C162.062 119.815 162.46 119.896 162.653 120.19L163.002 120.718C163.197 121.017 163.114 121.408 162.817 121.602C162.708 121.673 162.589 121.706 162.468 121.706Z" fill="#FECB91"/>
<path d="M161.07 119.584C160.861 119.584 160.654 119.481 160.532 119.3L160.182 118.767C159.989 118.469 160.072 118.078 160.367 117.885C160.664 117.694 161.062 117.774 161.255 118.068L161.606 118.601C161.798 118.892 161.717 119.287 161.419 119.481C161.311 119.551 161.19 119.584 161.07 119.584Z" fill="#FECB91"/>
<path d="M159.671 117.467C159.464 117.467 159.259 117.364 159.135 117.177L158.787 116.646C158.592 116.355 158.675 115.96 158.972 115.772C159.268 115.574 159.663 115.658 159.858 115.949L160.207 116.479C160.4 116.778 160.318 117.169 160.022 117.362C159.912 117.433 159.793 117.467 159.671 117.467Z" fill="#FECB91"/>
<path d="M158.273 115.341C158.064 115.341 157.86 115.239 157.736 115.055L157.387 114.525C157.195 114.228 157.277 113.838 157.572 113.641C157.867 113.452 158.265 113.532 158.458 113.827L158.808 114.356C159.001 114.652 158.919 115.046 158.622 115.237C158.516 115.308 158.394 115.341 158.273 115.341Z" fill="#FECB91"/>
<path d="M156.877 113.225C156.669 113.225 156.464 113.123 156.34 112.936L155.991 112.406C155.797 112.116 155.882 111.719 156.175 111.527C156.474 111.332 156.867 111.417 157.062 111.708L157.412 112.239C157.607 112.533 157.525 112.924 157.225 113.122C157.118 113.191 156.999 113.225 156.877 113.225Z" fill="#FECB91"/>
<path d="M155.478 111.102C155.27 111.102 155.064 111.001 154.943 110.815L154.591 110.286C154.397 109.989 154.48 109.597 154.778 109.403C155.072 109.214 155.469 109.294 155.663 109.589L156.014 110.116C156.206 110.41 156.126 110.803 155.827 110.995C155.72 111.068 155.599 111.102 155.478 111.102Z" fill="#FECB91"/>
<path d="M154.08 108.983C153.869 108.983 153.666 108.88 153.542 108.697L153.193 108.167C152.999 107.875 153.082 107.478 153.378 107.288C153.675 107.094 154.073 107.178 154.265 107.47L154.615 108.001C154.81 108.291 154.727 108.689 154.428 108.879C154.32 108.952 154.201 108.983 154.08 108.983Z" fill="#FECB91"/>
<path d="M152.684 106.865C152.476 106.865 152.269 106.761 152.148 106.573L151.797 106.044C151.602 105.75 151.685 105.356 151.982 105.162C152.279 104.971 152.675 105.052 152.868 105.346L153.219 105.876C153.411 106.168 153.329 106.561 153.032 106.759C152.924 106.825 152.804 106.865 152.684 106.865Z" fill="#FECB91"/>
<path d="M151.285 104.742C151.076 104.742 150.871 104.642 150.748 104.456L150.399 103.926C150.203 103.633 150.287 103.239 150.584 103.048C150.881 102.851 151.277 102.936 151.471 103.23L151.819 103.76C152.013 104.052 151.93 104.447 151.636 104.641C151.527 104.711 151.405 104.742 151.285 104.742Z" fill="#FECB91"/>
<path d="M149.888 102.623C149.677 102.623 149.474 102.52 149.352 102.334L149.001 101.805C148.808 101.512 148.89 101.12 149.187 100.924C149.482 100.732 149.875 100.815 150.072 101.108L150.422 101.637C150.614 101.933 150.532 102.324 150.237 102.518C150.128 102.587 150.006 102.623 149.888 102.623Z" fill="#FECB91"/>
<path d="M148.488 100.501C148.279 100.501 148.074 100.401 147.952 100.217L147.6 99.6887C147.408 99.3902 147.489 98.9959 147.787 98.8062C148.083 98.6085 148.479 98.6934 148.673 98.9899L149.022 99.5177C149.214 99.8122 149.131 100.208 148.839 100.397C148.731 100.468 148.611 100.501 148.488 100.501Z" fill="#FECB91"/>
<path d="M149.081 88.1625C148.935 88.1625 148.784 88.1121 148.664 88.0083C148.395 87.781 148.367 87.3787 148.596 87.1148L149.03 86.6128C149.262 86.3499 149.665 86.3192 149.933 86.5495C150.203 86.7798 150.23 87.183 149.999 87.4489L149.567 87.9451C149.441 88.0904 149.262 88.1625 149.081 88.1625Z" fill="#FECB91"/>
<path d="M150.813 86.1704C150.665 86.1704 150.516 86.1209 150.396 86.0162C150.126 85.7889 150.096 85.3857 150.327 85.1188L150.761 84.6228C150.991 84.3559 151.398 84.3272 151.664 84.5594C151.931 84.7867 151.962 85.192 151.729 85.4569L151.297 85.9539C151.17 86.0962 150.991 86.1704 150.813 86.1704Z" fill="#FECB91"/>
<path d="M152.542 84.1828C152.395 84.1828 152.244 84.1324 152.123 84.0306C151.855 83.7993 151.828 83.3972 152.059 83.1313L152.49 82.6351C152.721 82.3683 153.129 82.3387 153.393 82.57C153.661 82.7963 153.691 83.1995 153.461 83.4673L153.028 83.9634C152.903 84.1097 152.722 84.1828 152.542 84.1828Z" fill="#FECB91"/>
<path d="M154.272 82.1982C154.124 82.1982 153.975 82.1439 153.852 82.0421C153.585 81.8128 153.555 81.4086 153.786 81.1437L154.22 80.6466C154.451 80.3818 154.857 80.3491 155.124 80.5814C155.39 80.8107 155.418 81.2119 155.187 81.4777L154.755 81.9749C154.629 82.1182 154.453 82.1982 154.272 82.1982Z" fill="#FECB91"/>
<path d="M156.002 80.2041C155.852 80.2041 155.703 80.1547 155.583 80.0509C155.315 79.8177 155.286 79.4165 155.516 79.1516L155.948 78.6564C156.181 78.3886 156.584 78.3569 156.852 78.5902C157.118 78.8165 157.151 79.2218 156.917 79.4876L156.485 79.9847C156.359 80.127 156.18 80.2041 156.002 80.2041Z" fill="#FECB91"/>
<path d="M157.729 78.2144C157.579 78.2144 157.432 78.165 157.309 78.0602C157.043 77.8329 157.012 77.4266 157.245 77.1627L157.675 76.6667C157.908 76.4008 158.312 76.3692 158.58 76.6004C158.848 76.8307 158.877 77.233 158.649 77.4949L158.215 77.9969C158.086 78.1372 157.908 78.2144 157.729 78.2144Z" fill="#FECB91"/>
<path d="M159.457 76.2267C159.311 76.2267 159.161 76.1772 159.04 76.0735C158.773 75.8412 158.743 75.44 158.974 75.1742L159.406 74.68C159.636 74.4132 160.041 74.3805 160.309 74.6108C160.579 74.844 160.609 75.2413 160.375 75.5072L159.941 76.0043C159.817 76.1496 159.636 76.2267 159.457 76.2267Z" fill="#FECB91"/>
<path d="M161.187 74.2348C161.038 74.2348 160.891 74.1883 160.768 74.0825C160.501 73.8533 160.471 73.4541 160.705 73.1892L161.137 72.688C161.366 72.4251 161.773 72.3935 162.037 72.6208C162.307 72.8541 162.337 73.2534 162.104 73.5202L161.67 74.0164C161.546 74.1607 161.366 74.2348 161.187 74.2348Z" fill="#FECB91"/>
<path d="M162.919 72.2453C162.769 72.2453 162.62 72.1949 162.499 72.0911C162.23 71.8628 162.203 71.4616 162.433 71.1957L162.865 70.6976C163.093 70.4307 163.501 70.4021 163.769 70.6304C164.036 70.8616 164.065 71.2649 163.834 71.5298L163.403 72.0259C163.276 72.1731 163.096 72.2453 162.919 72.2453Z" fill="#FECB91"/>
<path d="M164.648 70.2553C164.499 70.2553 164.349 70.2068 164.229 70.1021C163.962 69.8728 163.932 69.4735 164.165 69.2057L164.597 68.7096C164.826 68.4418 165.231 68.4141 165.497 68.6424C165.767 68.8717 165.794 69.2739 165.566 69.5398L165.132 70.0369C165.008 70.1842 164.827 70.2553 164.648 70.2553Z" fill="#FECB91"/>
<path d="M166.376 68.2636C166.229 68.2636 166.079 68.2133 165.959 68.1075C165.69 67.8812 165.662 67.48 165.89 67.2161L166.324 66.714C166.555 66.4521 166.96 66.4205 167.227 66.6508C167.496 66.88 167.524 67.2833 167.291 67.5502L166.861 68.0443C166.734 68.1925 166.554 68.2636 166.376 68.2636Z" fill="#FECB91"/>
<path d="M168.105 66.2784C167.957 66.2784 167.808 66.225 167.686 66.1202C167.418 65.8929 167.386 65.4907 167.62 65.2229L168.054 64.7267C168.282 64.4599 168.688 64.4352 168.954 64.6625C169.224 64.8908 169.252 65.2959 169.02 65.5618L168.591 66.057C168.463 66.2033 168.286 66.2784 168.105 66.2784Z" fill="#FECB91"/>
<path d="M169.836 64.283C169.686 64.283 169.539 64.2327 169.418 64.1299C169.149 63.9036 169.12 63.4973 169.35 63.2334L169.784 62.7364C170.015 62.4695 170.419 62.4399 170.688 62.6732C170.954 62.8995 170.984 63.3046 170.753 63.5705L170.321 64.0675C170.192 64.2089 170.016 64.283 169.836 64.283Z" fill="#FECB91"/>
<path d="M171.566 62.2983C171.415 62.2983 171.266 62.245 171.146 62.1432C170.878 61.9129 170.849 61.5098 171.077 61.2439L171.513 60.7477C171.741 60.4819 172.149 60.4522 172.415 60.6825C172.683 60.9117 172.713 61.3131 172.48 61.579L172.048 62.077C171.923 62.2222 171.744 62.2983 171.566 62.2983Z" fill="#FECB91"/>
<path d="M173.293 60.3089C173.145 60.3089 172.995 60.2556 172.875 60.1528C172.606 59.9265 172.576 59.5192 172.809 59.2553L173.241 58.7583C173.472 58.4944 173.876 58.4628 174.145 58.696C174.411 58.9204 174.442 59.3235 174.21 59.5894L173.778 60.0905C173.652 60.2318 173.472 60.3089 173.293 60.3089Z" fill="#FECB91"/>
<path d="M175.024 58.3182C174.874 58.3182 174.725 58.2678 174.605 58.163C174.338 57.9327 174.31 57.5316 174.54 57.2638L174.97 56.7685C175.201 56.5046 175.607 56.4691 175.876 56.7013C176.142 56.9326 176.172 57.3348 175.941 57.5958L175.507 58.0979C175.382 58.2382 175.203 58.3182 175.024 58.3182Z" fill="#FECB91"/>
<path d="M176.751 56.3269C176.604 56.3269 176.454 56.2786 176.334 56.1738C176.065 55.9415 176.035 55.5413 176.268 55.2784L176.698 54.7812C176.931 54.5144 177.337 54.4818 177.601 54.714C177.871 54.9433 177.9 55.3426 177.669 55.6075L177.237 56.1085C177.108 56.2508 176.932 56.3269 176.751 56.3269Z" fill="#FECB91"/>
<path d="M178.481 54.34C178.333 54.34 178.181 54.2886 178.063 54.1848C177.796 53.9555 177.766 53.5552 177.997 53.2904L178.429 52.7893C178.662 52.5255 179.065 52.4947 179.335 52.726C179.601 52.9573 179.632 53.3576 179.401 53.6235L178.969 54.1216C178.837 54.2649 178.661 54.34 178.481 54.34Z" fill="#FECB91"/>
<path d="M180.209 52.3503C180.063 52.3503 179.913 52.296 179.793 52.1942C179.524 51.9629 179.494 51.5646 179.727 51.2988L180.157 50.8006C180.39 50.5328 180.796 50.5031 181.063 50.7314C181.33 50.9636 181.359 51.3649 181.128 51.6308L180.694 52.127C180.571 52.2742 180.392 52.3503 180.209 52.3503Z" fill="#FECB91"/>
<path d="M216.028 101.032C215.801 101.032 215.584 100.912 215.468 100.7L215.151 100.132C214.982 99.823 215.094 99.4385 215.401 99.2665C215.715 99.0965 216.102 99.2103 216.275 99.5166L216.587 100.089C216.761 100.394 216.648 100.782 216.337 100.952C216.238 101.005 216.134 101.032 216.028 101.032Z" fill="#FECB91"/>
<path d="M214.768 98.7545C214.543 98.7545 214.324 98.635 214.206 98.4245L213.891 97.8562C213.721 97.5469 213.836 97.1614 214.145 96.9934C214.454 96.8234 214.846 96.9361 215.014 97.2405L215.331 97.8127C215.499 98.122 215.39 98.5065 215.078 98.6725C214.979 98.7269 214.873 98.7545 214.768 98.7545Z" fill="#FECB91"/>
<path d="M213.507 96.4785C213.282 96.4785 213.062 96.362 212.945 96.1524L212.63 95.5831C212.46 95.2768 212.574 94.8884 212.88 94.7164C213.192 94.5455 213.581 94.6582 213.751 94.9715L214.066 95.5387C214.234 95.8461 214.124 96.2325 213.813 96.4035C213.718 96.4579 213.612 96.4785 213.507 96.4785Z" fill="#FECB91"/>
<path d="M212.244 94.207C212.018 94.207 211.8 94.0855 211.684 93.876L211.368 93.3057C211.199 92.9964 211.311 92.611 211.622 92.441C211.932 92.273 212.321 92.3866 212.492 92.6939L212.807 93.2593C212.977 93.5686 212.865 93.9531 212.556 94.1261C212.454 94.1795 212.35 94.207 212.244 94.207Z" fill="#FECB91"/>
<path d="M210.983 91.9282C210.76 91.9282 210.54 91.8086 210.421 91.5961L210.109 91.0309C209.938 90.7225 210.051 90.3341 210.361 90.1661C210.669 89.9951 211.061 90.1068 211.229 90.4141L211.546 90.9864C211.717 91.2937 211.605 91.6802 211.294 91.8492C211.196 91.9026 211.088 91.9282 210.983 91.9282Z" fill="#FECB91"/>
<path d="M209.723 89.6526C209.498 89.6526 209.28 89.537 209.162 89.3245L208.847 88.7533C208.677 88.4459 208.79 88.0604 209.099 87.8924C209.411 87.7214 209.8 87.8341 209.97 88.1425L210.285 88.7097C210.453 89.0181 210.343 89.4046 210.034 89.5726C209.934 89.6269 209.83 89.6526 209.723 89.6526Z" fill="#FECB91"/>
<path d="M208.459 87.3772C208.234 87.3772 208.018 87.2556 207.899 87.0451L207.586 86.4798C207.415 86.1694 207.526 85.787 207.835 85.615C208.147 85.444 208.536 85.5567 208.706 85.8661L209.021 86.4333C209.191 86.7417 209.08 87.1311 208.77 87.2981C208.672 87.3515 208.566 87.3772 208.459 87.3772Z" fill="#FECB91"/>
<path d="M207.199 85.104C206.976 85.104 206.756 84.9883 206.639 84.7728L206.323 84.2075C206.154 83.8982 206.266 83.5098 206.577 83.3418C206.887 83.1718 207.276 83.2805 207.447 83.5919L207.763 84.1631C207.933 84.4655 207.821 84.8548 207.51 85.0258C207.412 85.0782 207.305 85.104 207.199 85.104Z" fill="#FECB91"/>
<path d="M205.939 82.8279C205.714 82.8279 205.495 82.7084 205.377 82.4998L205.064 81.9286C204.894 81.6202 205.004 81.2328 205.317 81.0667C205.625 80.8987 206.016 81.0094 206.185 81.3148L206.501 81.8871C206.671 82.1954 206.562 82.5809 206.25 82.7469C206.152 82.8003 206.044 82.8279 205.939 82.8279Z" fill="#FECB91"/>
<path d="M204.678 80.547C204.454 80.547 204.236 80.4303 204.118 80.2208L203.801 79.6486C203.633 79.3442 203.744 78.9568 204.054 78.7869C204.365 78.6169 204.752 78.7266 204.924 79.0379L205.238 79.6081C205.41 79.9144 205.297 80.3 204.987 80.4699C204.889 80.5243 204.785 80.547 204.678 80.547Z" fill="#FECB91"/>
<path d="M203.417 78.2744C203.192 78.2744 202.973 78.1538 202.856 77.9453L202.541 77.3761C202.371 77.0678 202.481 76.6813 202.793 76.5114C203.105 76.3433 203.494 76.4569 203.665 76.7623L203.978 77.3297C204.148 77.639 204.035 78.0244 203.724 78.1954C203.627 78.2507 203.522 78.2744 203.417 78.2744Z" fill="#FECB91"/>
<path d="M202.159 75.998C201.931 75.998 201.712 75.8774 201.596 75.6689L201.282 75.1006C201.109 74.7943 201.223 74.4068 201.533 74.2368C201.843 74.0658 202.235 74.1755 202.404 74.4849L202.72 75.0571C202.89 75.3634 202.777 75.7509 202.466 75.9209C202.369 75.9742 202.263 75.998 202.159 75.998Z" fill="#FECB91"/>
<path d="M200.896 73.7212C200.669 73.7212 200.448 73.6054 200.334 73.3959L200.019 72.8237C199.848 72.5173 199.962 72.1279 200.27 71.9649C200.579 71.7909 200.97 71.9027 201.139 72.214L201.457 72.7793C201.628 73.0896 201.514 73.4741 201.204 73.6441C201.107 73.6974 201 73.7212 200.896 73.7212Z" fill="#FECB91"/>
<path d="M199.636 71.4476C199.409 71.4476 199.188 71.3242 199.074 71.1156L198.759 70.5503C198.586 70.241 198.7 69.8575 199.009 69.6865C199.321 69.5145 199.709 69.6252 199.88 69.9336L200.195 70.5018C200.366 70.8121 200.252 71.1996 199.945 71.3686C199.845 71.423 199.739 71.4476 199.636 71.4476Z" fill="#FECB91"/>
<path d="M198.375 69.1747C198.147 69.1747 197.927 69.057 197.813 68.8425L197.496 68.2753C197.325 67.9659 197.437 67.5815 197.749 67.4105C198.059 67.2415 198.449 67.3542 198.62 67.6646L198.934 68.2328C199.106 68.5372 198.993 68.9256 198.682 69.0956C198.586 69.149 198.48 69.1747 198.375 69.1747Z" fill="#FECB91"/>
<path d="M197.112 66.9008C196.885 66.9008 196.666 66.7813 196.55 66.5688L196.237 66.0015C196.063 65.6912 196.18 65.3058 196.488 65.1368C196.8 64.9687 197.189 65.0803 197.358 65.3877L197.674 65.957C197.843 66.2663 197.731 66.6518 197.422 66.8178C197.323 66.8712 197.219 66.9008 197.112 66.9008Z" fill="#FECB91"/>
<path d="M195.851 64.6218C195.623 64.6218 195.408 64.5043 195.29 64.2938L194.976 63.7264C194.806 63.4191 194.917 63.0317 195.225 62.8597C195.537 62.6917 195.923 62.8014 196.096 63.1127L196.41 63.682C196.581 63.9894 196.469 64.3768 196.157 64.5468C196.062 64.5992 195.954 64.6218 195.851 64.6218Z" fill="#FECB91"/>
<path d="M194.592 62.3517C194.363 62.3517 194.146 62.2282 194.029 62.0197L193.714 61.4494C193.544 61.14 193.656 60.7556 193.967 60.5846C194.274 60.4186 194.663 60.5302 194.837 60.8376L195.152 61.4039C195.322 61.7132 195.212 62.0988 194.901 62.2707C194.801 62.3231 194.697 62.3517 194.592 62.3517Z" fill="#FECB91"/>
<path d="M193.33 60.0733C193.102 60.0733 192.882 59.9537 192.768 59.7402L192.451 59.1739C192.283 58.8666 192.395 58.4791 192.705 58.3111C193.015 58.1391 193.404 58.2518 193.573 58.5582L193.889 59.1305C194.059 59.4379 193.947 59.8242 193.637 59.9932C193.538 60.0476 193.432 60.0733 193.33 60.0733Z" fill="#FECB91"/>
<path d="M192.069 57.792C191.844 57.792 191.625 57.6775 191.509 57.465L191.192 56.8937C191.023 56.5864 191.135 56.1999 191.444 56.0339C191.756 55.8619 192.143 55.9736 192.315 56.2829L192.628 56.8502C192.801 57.1585 192.686 57.544 192.377 57.714C192.28 57.7693 192.174 57.792 192.069 57.792Z" fill="#FECB91"/>
<path d="M190.808 55.5213C190.58 55.5213 190.359 55.3997 190.247 55.1902L189.929 54.6219C189.761 54.3156 189.875 53.9311 190.182 53.7591C190.491 53.5891 190.88 53.7008 191.051 54.0102L191.365 54.5755C191.535 54.8868 191.424 55.2742 191.114 55.4422C191.016 55.4965 190.912 55.5213 190.808 55.5213Z" fill="#FECB91"/>
<path d="M189.548 53.2464C189.321 53.2464 189.102 53.1288 188.986 52.9133L188.671 52.347C188.501 52.0377 188.614 51.6533 188.924 51.4813C189.234 51.3113 189.62 51.425 189.795 51.7343L190.108 52.3035C190.279 52.6079 190.166 52.9953 189.855 53.1663C189.757 53.2207 189.652 53.2464 189.548 53.2464Z" fill="#FECB91"/>
<path d="M98.6474 142.333C98.3708 142.333 98.1131 142.155 98.0305 141.873C97.9339 141.533 98.13 141.185 98.4683 141.086L99.0992 140.904C99.4345 140.807 99.7917 141.002 99.8902 141.338C99.9907 141.675 99.7937 142.027 99.4524 142.125L98.8265 142.309C98.7648 142.325 98.7051 142.333 98.6474 142.333Z" fill="#FECB91"/>
<path d="M101.159 141.609C100.884 141.609 100.627 141.424 100.545 141.146C100.447 140.809 100.642 140.455 100.982 140.361L101.611 140.179C101.952 140.078 102.307 140.276 102.403 140.613C102.503 140.951 102.307 141.305 101.965 141.402L101.339 141.58C101.279 141.6 101.218 141.609 101.159 141.609Z" fill="#FECB91"/>
<path d="M103.675 140.886C103.395 140.886 103.141 140.707 103.061 140.429C102.962 140.09 103.157 139.74 103.497 139.639L104.125 139.458C104.466 139.363 104.821 139.556 104.918 139.895C105.017 140.23 104.823 140.582 104.481 140.679L103.855 140.863C103.792 140.879 103.735 140.886 103.675 140.886Z" fill="#FECB91"/>
<path d="M106.189 140.163C105.911 140.163 105.656 139.979 105.573 139.701C105.477 139.366 105.672 139.009 106.012 138.914L106.638 138.733C106.982 138.632 107.333 138.833 107.432 139.167C107.529 139.506 107.332 139.859 106.995 139.958L106.367 140.134C106.311 140.153 106.248 140.163 106.189 140.163Z" fill="#FECB91"/>
<path d="M108.705 139.44C108.426 139.44 108.17 139.262 108.089 138.982C107.988 138.643 108.185 138.294 108.525 138.194L109.154 138.015C109.496 137.914 109.851 138.11 109.948 138.449C110.046 138.787 109.851 139.137 109.511 139.235L108.882 139.416C108.821 139.432 108.761 139.44 108.705 139.44Z" fill="#FECB91"/>
<path d="M111.219 138.724C110.942 138.724 110.685 138.539 110.605 138.26C110.507 137.924 110.704 137.573 111.041 137.476L111.669 137.291C112.008 137.193 112.364 137.391 112.462 137.724C112.564 138.064 112.367 138.414 112.026 138.512L111.396 138.694C111.336 138.714 111.279 138.724 111.219 138.724Z" fill="#FECB91"/>
<path d="M113.735 137.996C113.459 137.996 113.199 137.81 113.121 137.536C113.023 137.197 113.218 136.844 113.557 136.75L114.185 136.567C114.526 136.472 114.88 136.664 114.98 137.004C115.079 137.339 114.88 137.694 114.54 137.788L113.912 137.973C113.854 137.986 113.793 137.996 113.735 137.996Z" fill="#FECB91"/>
<path d="M116.247 137.275C115.969 137.275 115.713 137.093 115.63 136.816C115.534 136.479 115.729 136.128 116.069 136.03L116.698 135.846C117.037 135.747 117.392 135.945 117.489 136.281C117.589 136.619 117.394 136.967 117.055 137.067L116.424 137.249C116.368 137.267 116.307 137.275 116.247 137.275Z" fill="#FECB91"/>
<path d="M118.761 136.55C118.484 136.55 118.227 136.369 118.147 136.09C118.047 135.752 118.244 135.4 118.586 135.301L119.212 135.125C119.555 135.022 119.908 135.219 120.005 135.556C120.105 135.893 119.908 136.249 119.567 136.345L118.941 136.525C118.881 136.54 118.821 136.55 118.761 136.55Z" fill="#FECB91"/>
<path d="M121.275 135.831C120.999 135.831 120.741 135.646 120.662 135.369C120.565 135.032 120.758 134.679 121.101 134.582L121.727 134.401C122.071 134.302 122.424 134.498 122.52 134.834C122.619 135.174 122.424 135.523 122.082 135.623L121.457 135.802C121.396 135.824 121.335 135.831 121.275 135.831Z" fill="#FECB91"/>
<path d="M123.789 135.107C123.512 135.107 123.259 134.928 123.177 134.649C123.076 134.311 123.273 133.96 123.612 133.86L124.24 133.683C124.582 133.581 124.938 133.778 125.035 134.116C125.132 134.449 124.939 134.805 124.599 134.904L123.971 135.084C123.911 135.099 123.849 135.107 123.789 135.107Z" fill="#FECB91"/>
<path d="M126.307 134.385C126.028 134.385 125.772 134.204 125.691 133.923C125.594 133.587 125.789 133.234 126.128 133.139L126.758 132.955C127.098 132.856 127.453 133.053 127.548 133.389C127.647 133.729 127.453 134.081 127.112 134.175L126.486 134.36C126.426 134.375 126.365 134.385 126.307 134.385Z" fill="#FECB91"/>
<path d="M128.819 133.663C128.542 133.663 128.288 133.477 128.205 133.201C128.107 132.864 128.304 132.513 128.643 132.412L129.271 132.232C129.612 132.135 129.965 132.331 130.064 132.668C130.162 133.002 129.967 133.356 129.628 133.455L128.998 133.635C128.937 133.653 128.879 133.663 128.819 133.663Z" fill="#FECB91"/>
<path d="M131.335 132.944C131.057 132.944 130.8 132.76 130.721 132.48C130.622 132.143 130.818 131.794 131.158 131.695L131.786 131.513C132.128 131.416 132.481 131.61 132.58 131.948C132.676 132.289 132.481 132.638 132.142 132.735L131.511 132.917C131.453 132.935 131.395 132.944 131.335 132.944Z" fill="#FECB91"/>
<path d="M133.85 132.22C133.574 132.22 133.315 132.035 133.234 131.759C133.136 131.422 133.333 131.069 133.671 130.972L134.302 130.791C134.641 130.693 134.997 130.891 135.093 131.224C135.194 131.56 134.997 131.913 134.657 132.013L134.027 132.194C133.97 132.213 133.91 132.22 133.85 132.22Z" fill="#FECB91"/>
<path d="M136.365 131.493C136.087 131.493 135.83 131.315 135.749 131.035C135.653 130.696 135.848 130.347 136.186 130.25L136.814 130.064C137.153 129.967 137.509 130.16 137.607 130.499C137.706 130.836 137.511 131.189 137.171 131.286L136.543 131.469C136.484 131.486 136.423 131.493 136.365 131.493Z" fill="#FECB91"/>
<path d="M138.88 130.773C138.6 130.773 138.345 130.589 138.265 130.31C138.164 129.973 138.361 129.618 138.702 129.525L139.331 129.342C139.67 129.244 140.028 129.439 140.121 129.776C140.223 130.113 140.028 130.467 139.684 130.564L139.058 130.744C138.998 130.764 138.94 130.773 138.88 130.773Z" fill="#FECB91"/>
<path d="M141.394 130.048C141.115 130.048 140.86 129.87 140.78 129.591C140.681 129.25 140.874 128.901 141.215 128.801L141.844 128.619C142.184 128.522 142.539 128.717 142.639 129.056C142.736 129.393 142.539 129.743 142.201 129.844L141.574 130.025C141.512 130.042 141.451 130.048 141.394 130.048Z" fill="#FECB91"/>
<path d="M143.907 129.329C143.63 129.329 143.373 129.145 143.29 128.867C143.194 128.531 143.389 128.176 143.729 128.08L144.357 127.901C144.699 127.801 145.055 127.998 145.15 128.332C145.249 128.669 145.055 129.024 144.713 129.122L144.084 129.302C144.028 129.319 143.966 129.329 143.907 129.329Z" fill="#FECB91"/>
<path d="M146.419 128.602C146.142 128.602 145.887 128.423 145.808 128.146C145.707 127.806 145.904 127.456 146.243 127.36L146.871 127.177C147.214 127.08 147.568 127.275 147.666 127.611C147.763 127.948 147.567 128.301 147.228 128.399L146.599 128.58C146.538 128.598 146.48 128.602 146.419 128.602Z" fill="#FECB91"/>
<path d="M148.936 127.886C148.66 127.886 148.405 127.703 148.322 127.426C148.224 127.088 148.421 126.737 148.76 126.64L149.387 126.456C149.728 126.355 150.083 126.552 150.181 126.889C150.283 127.229 150.085 127.581 149.745 127.68L149.114 127.858C149.057 127.877 148.996 127.886 148.936 127.886Z" fill="#FECB91"/>
<path d="M151.452 127.156C151.175 127.156 150.916 126.978 150.835 126.7C150.739 126.362 150.936 126.008 151.273 125.912L151.903 125.732C152.244 125.636 152.597 125.828 152.696 126.164C152.794 126.502 152.597 126.855 152.258 126.952L151.628 127.136C151.57 127.148 151.51 127.156 151.452 127.156Z" fill="#FECB91"/>
<path d="M153.966 126.44C153.687 126.44 153.429 126.257 153.352 125.982C153.253 125.642 153.448 125.291 153.788 125.194L154.415 125.009C154.755 124.912 155.112 125.109 155.208 125.443C155.307 125.784 155.112 126.132 154.773 126.235L154.145 126.413C154.084 126.432 154.024 126.44 153.966 126.44Z" fill="#FECB91"/>
<path d="M156.481 125.716C156.203 125.716 155.946 125.535 155.866 125.259C155.766 124.92 155.964 124.569 156.302 124.47L156.93 124.292C157.272 124.191 157.627 124.386 157.725 124.722C157.822 125.06 157.627 125.414 157.286 125.512L156.658 125.692C156.6 125.706 156.537 125.716 156.481 125.716Z" fill="#FECB91"/>
<path d="M158.994 124.995C158.718 124.995 158.459 124.813 158.378 124.532C158.282 124.196 158.477 123.843 158.815 123.748L159.446 123.564C159.787 123.466 160.14 123.665 160.236 123.998C160.336 124.338 160.139 124.687 159.8 124.788L159.171 124.966C159.113 124.986 159.055 124.995 158.994 124.995Z" fill="#FECB91"/>
<path d="M161.51 124.271C161.231 124.271 160.976 124.093 160.896 123.813C160.795 123.475 160.99 123.122 161.333 123.022L161.959 122.847C162.299 122.746 162.656 122.943 162.754 123.28C162.853 123.616 162.656 123.968 162.315 124.065L161.689 124.248C161.629 124.264 161.57 124.271 161.51 124.271Z" fill="#FECB91"/>
<path d="M164.022 123.547C163.744 123.547 163.49 123.367 163.408 123.085C163.31 122.751 163.505 122.4 163.845 122.301L164.473 122.118C164.816 122.024 165.168 122.215 165.266 122.551C165.363 122.892 165.168 123.24 164.83 123.341L164.2 123.52C164.144 123.541 164.081 123.547 164.022 123.547Z" fill="#FECB91"/>
<path d="M166.538 122.827C166.262 122.827 166.004 122.646 165.924 122.366C165.825 122.03 166.021 121.677 166.358 121.576L166.989 121.395C167.33 121.3 167.686 121.495 167.784 121.828C167.882 122.165 167.686 122.524 167.346 122.621L166.715 122.801C166.657 122.821 166.597 122.827 166.538 122.827Z" fill="#FECB91"/>
<path d="M169.053 122.102C168.773 122.102 168.518 121.92 168.438 121.643C168.339 121.303 168.536 120.954 168.874 120.856L169.504 120.673C169.844 120.577 170.197 120.769 170.295 121.109C170.392 121.447 170.197 121.798 169.859 121.895L169.23 122.076C169.171 122.094 169.112 122.102 169.053 122.102Z" fill="#FECB91"/>
<path d="M171.57 121.383C171.291 121.383 171.034 121.201 170.953 120.921C170.855 120.586 171.049 120.232 171.391 120.132L172.021 119.955C172.36 119.856 172.713 120.053 172.812 120.388C172.909 120.725 172.712 121.077 172.374 121.178L171.745 121.358C171.685 121.375 171.626 121.383 171.57 121.383Z" fill="#FECB91"/>
<path d="M174.079 120.66C173.804 120.66 173.545 120.481 173.467 120.199C173.368 119.859 173.563 119.511 173.903 119.416L174.533 119.231C174.872 119.137 175.227 119.329 175.326 119.666C175.424 120.002 175.227 120.355 174.887 120.451L174.259 120.633C174.199 120.651 174.14 120.66 174.079 120.66Z" fill="#FECB91"/>
<path d="M176.597 119.937C176.317 119.937 176.06 119.755 175.98 119.477C175.883 119.141 176.078 118.787 176.418 118.689L177.048 118.512C177.388 118.409 177.741 118.607 177.84 118.944C177.94 119.279 177.743 119.634 177.402 119.731L176.773 119.911C176.715 119.929 176.655 119.937 176.597 119.937Z" fill="#FECB91"/>
<path d="M179.111 119.211C178.831 119.211 178.578 119.033 178.497 118.756C178.397 118.415 178.593 118.066 178.933 117.966L179.561 117.783C179.901 117.685 180.254 117.879 180.354 118.218C180.451 118.558 180.258 118.908 179.919 119.004L179.291 119.187C179.229 119.206 179.168 119.211 179.111 119.211Z" fill="#FECB91"/>
<path d="M181.625 118.492C181.346 118.492 181.088 118.309 181.011 118.033C180.91 117.695 181.105 117.341 181.449 117.244L182.074 117.065C182.416 116.965 182.771 117.162 182.868 117.496C182.968 117.838 182.773 118.189 182.429 118.287L181.802 118.465C181.743 118.482 181.685 118.492 181.625 118.492Z" fill="#FECB91"/>
<path d="M184.14 117.767C183.861 117.767 183.608 117.59 183.525 117.313C183.428 116.973 183.622 116.621 183.961 116.523L184.591 116.341C184.93 116.245 185.283 116.438 185.384 116.776C185.482 117.11 185.287 117.466 184.948 117.563L184.317 117.743C184.26 117.761 184.2 117.767 184.14 117.767Z" fill="#FECB91"/>
<path d="M186.655 117.049C186.376 117.049 186.121 116.866 186.041 116.585C185.943 116.248 186.14 115.897 186.479 115.799L187.107 115.62C187.448 115.52 187.801 115.717 187.898 116.051C187.996 116.393 187.801 116.744 187.462 116.842L186.834 117.02C186.773 117.039 186.715 117.049 186.655 117.049Z" fill="#FECB91"/>
<path d="M189.167 116.32C188.892 116.32 188.633 116.141 188.552 115.867C188.455 115.526 188.651 115.175 188.99 115.076L189.618 114.897C189.959 114.797 190.315 114.993 190.411 115.33C190.512 115.666 190.315 116.018 189.973 116.116L189.345 116.301C189.287 116.316 189.227 116.32 189.167 116.32Z" fill="#FECB91"/>
<path d="M191.682 115.606C191.406 115.606 191.148 115.422 191.068 115.143C190.97 114.809 191.167 114.454 191.506 114.358L192.134 114.173C192.473 114.076 192.827 114.273 192.927 114.606C193.026 114.947 192.829 115.298 192.491 115.395L191.863 115.577C191.803 115.598 191.743 115.606 191.682 115.606Z" fill="#FECB91"/>
<path d="M194.196 114.877C193.918 114.877 193.662 114.7 193.583 114.421C193.482 114.082 193.679 113.731 194.019 113.632L194.65 113.452C194.989 113.351 195.342 113.547 195.443 113.885C195.539 114.224 195.344 114.576 195.005 114.671L194.377 114.853C194.316 114.871 194.257 114.877 194.196 114.877Z" fill="#FECB91"/>
<path d="M196.711 114.158C196.433 114.158 196.18 113.975 196.097 113.697C196.001 113.362 196.194 113.006 196.534 112.911L197.163 112.728C197.501 112.631 197.859 112.825 197.955 113.159C198.053 113.5 197.858 113.851 197.517 113.951L196.891 114.132C196.828 114.151 196.771 114.158 196.711 114.158Z" fill="#FECB91"/>
<path d="M199.227 113.434C198.948 113.434 198.694 113.256 198.613 112.976C198.516 112.638 198.708 112.285 199.05 112.187L199.678 112.01C200.02 111.912 200.375 112.107 200.472 112.442C200.57 112.778 200.375 113.132 200.034 113.23L199.406 113.413C199.345 113.427 199.287 113.434 199.227 113.434Z" fill="#FECB91"/>
<path d="M201.741 112.711C201.463 112.711 201.208 112.531 201.127 112.253C201.029 111.916 201.222 111.562 201.565 111.466L202.191 111.283C202.534 111.185 202.888 111.383 202.986 111.72C203.083 112.058 202.889 112.405 202.549 112.504L201.92 112.687C201.861 112.705 201.8 112.711 201.741 112.711Z" fill="#FECB91"/>
<path d="M204.257 111.99C203.978 111.99 203.723 111.808 203.641 111.529C203.541 111.192 203.739 110.839 204.077 110.74L204.705 110.562C205.047 110.461 205.401 110.656 205.5 110.995C205.598 111.33 205.403 111.684 205.062 111.783L204.434 111.965C204.373 111.98 204.315 111.99 204.257 111.99Z" fill="#FECB91"/>
<path d="M206.772 111.266C206.493 111.266 206.236 111.085 206.153 110.806C206.057 110.468 206.254 110.116 206.591 110.019L207.221 109.837C207.562 109.741 207.916 109.935 208.014 110.272C208.113 110.609 207.916 110.961 207.577 111.058L206.947 111.24C206.889 111.262 206.83 111.266 206.772 111.266Z" fill="#FECB91"/>
<path d="M209.284 110.546C209.007 110.546 208.75 110.364 208.668 110.089C208.57 109.752 208.766 109.397 209.105 109.297L209.735 109.12C210.072 109.02 210.429 109.215 210.526 109.552C210.626 109.886 210.429 110.242 210.088 110.343L209.462 110.521C209.403 110.539 209.343 110.546 209.284 110.546Z" fill="#FECB91"/>
<path d="M211.8 109.821C211.521 109.821 211.264 109.641 211.184 109.36C211.085 109.02 211.282 108.672 211.62 108.576L212.248 108.393C212.591 108.294 212.944 108.491 213.039 108.827C213.14 109.166 212.943 109.515 212.604 109.612L211.976 109.794C211.916 109.812 211.856 109.821 211.8 109.821Z" fill="#FECB91"/>
<path d="M48.4266 32.1274C48.4266 42.2268 40.016 50.4032 29.6529 50.4032C19.2757 50.4032 10.8711 42.2258 10.8711 32.1274C10.8711 22.0221 19.2757 13.8359 29.6529 13.8359C40.016 13.8359 48.4266 22.0231 48.4266 32.1274Z" fill="#FECB91"/>
<path d="M29.6529 17.8533C37.7301 17.8533 44.3016 24.2561 44.3016 32.1274C44.3016 39.9908 37.7301 46.3878 29.6529 46.3878C21.5696 46.3878 14.9961 39.9908 14.9961 32.1274C14.9961 24.2561 21.5706 17.8533 29.6529 17.8533ZM29.6529 13.8359C19.2757 13.8359 10.8711 22.0221 10.8711 32.1274C10.8711 42.2268 19.2757 50.4032 29.6529 50.4032C40.0149 50.4032 48.4266 42.2258 48.4266 32.1274C48.4266 22.0231 40.016 13.8359 29.6529 13.8359Z" fill="#FF986D"/>
<path d="M29.6571 54.3555C18.9916 54.3555 8.91797 56.8829 0 61.3676C6.06744 71.38 17.0784 78.0748 29.6571 78.0748C42.2278 78.0748 53.2348 71.3761 59.2982 61.3666C50.3842 56.8819 40.3175 54.3555 29.6571 54.3555Z" fill="#FECB91"/>
<path d="M29.6571 58.401C37.8423 58.401 45.7287 59.9506 53.1752 63.0115C47.4076 69.9799 38.9027 74.0244 29.6571 74.0244C20.4075 74.0244 11.8986 69.98 6.127 63.0145C13.5735 59.9497 21.4679 58.401 29.6571 58.401ZM29.6571 54.3555C18.9916 54.3555 8.91797 56.8829 0 61.3676C6.06744 71.38 17.0784 78.0748 29.6571 78.0748C42.2278 78.0748 53.2348 71.3761 59.2982 61.3666C50.3842 56.8819 40.3175 54.3555 29.6571 54.3555Z" fill="#FF986D"/>
<path d="M330.094 45.4677C330.094 53.1103 323.895 59.2975 316.261 59.2975C308.615 59.2975 302.422 53.1103 302.422 45.4677C302.422 37.8171 308.614 31.625 316.261 31.625C323.896 31.626 330.094 37.8181 330.094 45.4677Z" fill="#FECB91"/>
<path d="M316.261 34.6636C322.212 34.6636 327.054 39.5083 327.054 45.4667C327.054 51.4171 322.211 56.2579 316.261 56.2579C310.306 56.2579 305.461 51.4171 305.461 45.4667C305.461 39.5083 310.305 34.6636 316.261 34.6636ZM316.261 31.625C308.615 31.625 302.422 37.8171 302.422 45.4677C302.422 53.1103 308.614 59.2975 316.261 59.2975C323.895 59.2975 330.094 53.1103 330.094 45.4677C330.093 37.8171 323.895 31.625 316.261 31.625Z" fill="#FF986D"/>
<path d="M315.768 62.2617C307.769 62.2617 300.214 64.1571 293.525 67.5207C298.077 75.0305 306.336 80.0512 315.768 80.0512C325.196 80.0512 333.451 75.0276 337.999 67.5188C331.312 64.1562 323.763 62.2617 315.768 62.2617Z" fill="#FECB91"/>
<path d="M315.768 65.2948C321.907 65.2948 327.822 66.4583 333.407 68.7545C329.081 73.9799 322.702 77.0151 315.768 77.0151C308.831 77.0151 302.451 73.9809 298.12 68.7574C303.705 66.4582 309.625 65.2948 315.768 65.2948ZM315.768 62.2617C307.769 62.2617 300.214 64.1571 293.525 67.5207C298.077 75.0305 306.336 80.0512 315.768 80.0512C325.196 80.0512 333.451 75.0276 337.999 67.5188C331.312 64.1562 323.763 62.2617 315.768 62.2617Z" fill="#FF986D"/>
<path d="M140.338 9.88853C140.338 15.3466 135.912 19.7661 130.459 19.7661C124.998 19.7661 120.572 15.3466 120.572 9.88853C120.572 4.42549 124.997 0 130.459 0C135.912 0 140.338 4.4245 140.338 9.88853Z" fill="#FECB91"/>
<path d="M130.459 2.17024C134.71 2.17024 138.168 5.63115 138.168 9.88853C138.168 14.137 134.71 17.5968 130.459 17.5968C126.206 17.5968 122.746 14.137 122.746 9.88853C122.746 5.63115 126.206 2.17024 130.459 2.17024ZM130.459 0C124.998 0 120.572 4.42549 120.572 9.88853C120.572 15.3466 124.997 19.7661 130.459 19.7661C135.912 19.7661 140.338 15.3466 140.338 9.88853C140.337 4.4245 135.911 0 130.459 0Z" fill="#FF986D"/>
<path d="M130.459 21.7422C124.77 21.7422 119.398 23.0059 114.643 25.2487C117.879 30.2547 123.75 33.6018 130.459 33.6018C137.162 33.6018 143.034 30.2529 146.268 25.2478C141.513 23.005 136.144 21.7422 130.459 21.7422Z" fill="#FECB91"/>
<path d="M130.459 23.7649C134.825 23.7649 139.03 24.5405 143.002 26.0713C139.926 29.5538 135.39 31.5773 130.459 31.5773C125.526 31.5773 120.99 29.5547 117.91 26.0731C121.88 24.5404 126.091 23.7649 130.459 23.7649ZM130.459 21.7422C124.77 21.7422 119.398 23.0059 114.643 25.2487C117.879 30.2547 123.75 33.6018 130.459 33.6018C137.162 33.6018 143.034 30.2529 146.268 25.2478C141.513 23.005 136.144 21.7422 130.459 21.7422Z" fill="#FF986D"/>
<path d="M185.801 226.817C185.801 230.91 182.482 234.227 178.39 234.227C174.294 234.227 170.977 230.91 170.977 226.817C170.977 222.719 174.294 219.402 178.39 219.402C182.482 219.402 185.801 222.719 185.801 226.817Z" fill="#FECB91"/>
<path d="M178.39 221.03C181.58 221.03 184.173 223.625 184.173 226.817C184.173 230.005 181.58 232.597 178.39 232.597C175.2 232.597 172.605 230.005 172.605 226.817C172.605 223.625 175.201 221.03 178.39 221.03ZM178.39 219.402C174.294 219.402 170.977 222.719 170.977 226.817C170.977 230.91 174.294 234.227 178.39 234.227C182.482 234.227 185.801 230.91 185.801 226.817C185.801 222.719 182.482 219.402 178.39 219.402Z" fill="#FF986D"/>
<path d="M178.391 236.203C173.948 236.203 169.751 237.15 166.035 238.833C168.564 242.588 173.151 245.098 178.391 245.098C183.63 245.098 188.215 242.586 190.743 238.833C187.027 237.151 182.833 236.203 178.391 236.203Z" fill="#FECB91"/>
<path d="M178.391 237.721C181.802 237.721 185.086 238.302 188.19 239.45C185.787 242.063 182.244 243.58 178.391 243.58C174.538 243.58 170.991 242.063 168.589 239.45C171.691 238.302 174.98 237.721 178.391 237.721ZM178.391 236.203C173.948 236.203 169.751 237.15 166.035 238.833C168.564 242.588 173.151 245.098 178.391 245.098C183.63 245.098 188.215 242.586 190.743 238.833C187.027 237.151 182.833 236.203 178.391 236.203Z" fill="#FF986D"/>
</svg>
