<svg width="359" height="129" viewBox="0 0 359 129" fill="none" xmlns="http://www.w3.org/2000/svg">
<path d="M42.5809 90.9805H5.54688V128.013H42.5809V90.9805Z" fill="white"/>
<path fill-rule="evenodd" clip-rule="evenodd" d="M68.2009 120.601C66.9999 120.601 65.8 120.601 64.599 120.601C64.52 120.584 64.437 120.559 64.359 120.552C63.173 120.458 61.983 120.405 60.804 120.278C58.817 120.063 56.8539 119.706 54.9619 119.029C53.9479 118.665 52.978 118.223 52.151 117.503C51.503 116.938 51.0849 116.257 51.0859 115.35C51.0919 108.06 51.0919 100.772 51.0919 93.4844C51.0919 93.3264 51.104 93.1662 51.132 93.0132C51.287 92.1922 51.813 91.6313 52.447 91.1533C53.374 90.4523 54.4319 90.0193 55.5299 89.6743C57.9239 88.9293 60.3859 88.5942 62.8729 88.4072C63.4499 88.3632 64.026 88.3213 64.599 88.2773C65.799 88.2773 66.9999 88.2773 68.2009 88.2773C68.2919 88.2983 68.384 88.3192 68.478 88.3242C69.651 88.4192 70.8279 88.4762 71.9979 88.6052C73.9349 88.8142 75.8429 89.1622 77.6909 89.7942C78.8109 90.1772 79.8859 90.6483 80.7789 91.4573C81.3779 91.9953 81.771 92.6364 81.771 93.4834C81.767 100.758 81.771 108.035 81.767 115.317C81.767 115.491 81.7619 115.675 81.7329 115.848C81.5849 116.691 81.042 117.272 80.39 117.76C79.48 118.444 78.442 118.871 77.364 119.211C74.975 119.966 72.51 120.288 70.02 120.471C69.414 120.518 68.8069 120.559 68.2009 120.601ZM53.137 96.1982C53.135 96.2612 53.125 96.3413 53.125 96.4253C53.125 97.7383 53.155 99.0542 53.116 100.366C53.099 100.936 53.317 101.311 53.782 101.545C54.372 101.841 54.9689 102.14 55.5919 102.352C58.5659 103.364 61.655 103.689 64.775 103.807C67.228 103.896 69.675 103.809 72.111 103.487C74.043 103.236 75.955 102.886 77.773 102.171C78.309 101.961 78.812 101.67 79.313 101.381C79.619 101.202 79.746 100.903 79.74 100.528C79.724 99.1713 79.738 97.8123 79.736 96.4553C79.736 96.3563 79.7239 96.2623 79.7159 96.1313C79.4139 96.2783 79.153 96.4113 78.887 96.5312C78.617 96.6503 78.346 96.7663 78.072 96.8643C75.139 97.9053 72.085 98.2733 69 98.4453C66.701 98.5733 64.397 98.5283 62.098 98.3203C59.961 98.1303 57.8399 97.8253 55.7839 97.1843C54.8929 96.9073 54.033 96.5382 53.137 96.1982ZM79.7329 103.541C78.9609 103.845 78.237 104.186 77.484 104.43C74.734 105.322 71.887 105.659 69.017 105.815C65.582 105.999 62.164 105.849 58.772 105.257C56.872 104.922 55.005 104.469 53.286 103.562C53.246 103.536 53.192 103.534 53.124 103.52C53.124 104.981 53.1369 106.423 53.1179 107.866C53.1149 108.282 53.2629 108.593 53.5969 108.792C54.0309 109.049 54.473 109.302 54.938 109.484C57.224 110.389 59.6309 110.77 62.0649 110.989C65.7959 111.332 69.522 111.261 73.231 110.685C74.938 110.421 76.619 110.052 78.208 109.36C78.628 109.173 79.0289 108.931 79.3989 108.661C79.5589 108.544 79.713 108.284 79.718 108.089C79.745 106.575 79.7329 105.059 79.7329 103.541ZM53.125 110.873C53.125 112.316 53.1459 113.726 53.1179 115.13C53.1079 115.654 53.295 116.022 53.73 116.244C54.306 116.542 54.891 116.846 55.5 117.056C58.326 118.043 61.2699 118.365 64.2369 118.506C66.9319 118.638 69.621 118.539 72.299 118.191C74.136 117.954 75.9539 117.612 77.6849 116.937C78.2479 116.716 78.782 116.414 79.308 116.11C79.618 115.935 79.745 115.633 79.739 115.256C79.727 113.9 79.737 112.541 79.735 111.188C79.735 111.086 79.723 110.987 79.718 110.901C79 111.193 78.317 111.523 77.605 111.758C74.642 112.737 71.575 113.069 68.48 113.207C65.826 113.32 63.1789 113.226 60.5449 112.894C58.6139 112.647 56.702 112.3 54.869 111.625C54.292 111.414 53.734 111.139 53.125 110.873ZM66.4409 96.4773C69.4559 96.4483 72.4529 96.2454 75.3929 95.5364C76.6099 95.2454 77.816 94.8993 78.913 94.2773C79.996 93.6683 80.0099 93.0964 78.9149 92.5244C78.2219 92.1614 77.482 91.8723 76.734 91.6323C74.325 90.8633 71.8339 90.5564 69.3199 90.4124C65.6309 90.1954 61.96 90.3402 58.329 91.0642C56.998 91.3222 55.688 91.6802 54.453 92.2522C54.086 92.4242 53.7279 92.6432 53.4139 92.8982C53.0299 93.2132 53.038 93.5622 53.407 93.8882C53.636 94.0882 53.8869 94.2843 54.1649 94.3933C55.1729 94.7763 56.1789 95.1922 57.2169 95.4592C60.2389 96.2552 63.3329 96.4463 66.4409 96.4773Z" fill="#FF664A"/>
<path fill-rule="evenodd" clip-rule="evenodd" d="M44.1621 29.5055C45.0421 30.9765 45.9222 32.4504 46.8522 34.0094C46.0212 33.8554 45.2761 33.7205 44.5321 33.5785C42.7161 33.2395 40.9032 32.8934 39.0882 32.5614C38.9212 32.5264 38.7312 32.5653 38.5592 32.6043C35.3282 33.3893 32.2002 33.1215 29.2322 31.5985C26.4982 30.2025 24.5122 28.0964 23.7972 25.0394C22.9872 21.5914 24.0732 18.6523 26.6182 16.2833C29.3062 13.7733 32.5811 12.8253 36.2141 13.0733C39.0801 13.2733 41.6302 14.2765 43.7582 16.2245C45.6992 18.0095 46.8162 20.2075 46.8752 22.8685C46.9262 25.1625 46.1092 27.1603 44.6402 28.9083C44.4942 29.0773 44.3492 29.2433 44.2032 29.4083C44.1952 29.4213 44.1931 29.4415 44.1621 29.5055ZM31.2162 23.5384C31.2212 22.4154 30.3322 21.5074 29.2262 21.5074C28.0732 21.5054 27.1842 22.3873 27.1822 23.5323C27.1772 24.6473 28.0762 25.5405 29.1932 25.5455C30.3062 25.5445 31.2142 24.6504 31.2162 23.5384ZM41.2172 25.5445C42.3342 25.5445 43.2342 24.6574 43.2442 23.5374C43.2512 22.4194 42.3623 21.5164 41.2513 21.5064C40.1083 21.4954 39.2072 22.3944 39.2072 23.5284C39.2072 24.6474 40.1002 25.5395 41.2172 25.5445ZM33.1902 23.5184C33.1902 24.6584 34.0892 25.5444 35.2342 25.5394C36.3282 25.5374 37.2222 24.6464 37.2272 23.5504C37.2342 22.4054 36.3492 21.5064 35.2072 21.5064C34.0912 21.5064 33.1902 22.4044 33.1902 23.5184Z" fill="#FF664A"/>
<path fill-rule="evenodd" clip-rule="evenodd" d="M9.87373 24.0158C10.8647 22.3538 11.7997 20.7857 12.7597 19.1757C12.6547 19.0627 12.5547 18.9497 12.4577 18.8407C10.6467 16.8057 9.68368 14.4457 9.87568 11.7067C10.0877 8.62669 11.5927 6.23178 13.9987 4.37978C16.1037 2.75478 18.5167 1.91368 21.1657 1.72768C24.6887 1.47168 27.9037 2.32166 30.7037 4.50966C32.7967 6.15066 34.1437 8.26582 34.5847 10.9198C34.6217 11.1488 34.6217 11.3787 34.6407 11.6117C33.7617 11.7257 32.9227 11.8357 32.0617 11.9467C31.9647 10.8457 31.6707 9.7998 31.0917 8.8478C29.7457 6.6468 27.7457 5.32662 25.3017 4.70962C21.6387 3.78562 18.2217 4.33064 15.2437 6.76064C13.4267 8.24064 12.4148 10.1776 12.4918 12.5746C12.5518 14.4046 13.3127 15.9337 14.5667 17.2287C15.0587 17.7327 15.6087 18.1897 16.1287 18.6627C15.7707 19.2717 15.4847 19.7568 15.1467 20.3378C15.8237 20.2138 16.4067 20.1117 16.9847 20.0077C17.3537 19.9387 17.7177 19.8388 18.0897 19.7968C18.3567 19.7708 18.6337 19.7968 18.9047 19.8388C19.9597 19.9938 21.0137 20.1626 22.0677 20.3246C22.1997 20.3446 22.3397 20.3447 22.4697 20.3537C22.3457 21.2127 22.2267 22.0436 22.0947 22.9806C21.3447 22.9086 20.5317 22.9347 19.7907 22.7177C18.5967 22.3687 17.4688 22.5698 16.3098 22.7978C14.2008 23.2208 12.0837 23.5998 9.87373 24.0158Z" fill="#FF664A"/>
<path fill-rule="evenodd" clip-rule="evenodd" d="M92.6501 46.3657C92.6501 56.0987 92.6501 65.8399 92.6501 75.5789C92.2861 76.4619 92.0412 77.4327 91.5352 78.2197C90.3742 80.0107 88.6651 80.7289 86.6411 80.7249C76.5711 80.7149 66.5032 80.7197 56.4362 80.7197C51.6802 80.7197 46.9201 80.7109 42.1621 80.7249C40.1531 80.7289 38.4671 79.9957 37.3181 78.2197C36.8111 77.4327 36.5681 76.4619 36.2031 75.5789C36.2031 65.8399 36.2031 56.0997 36.2031 46.3657C36.5691 45.4767 36.8111 44.4989 37.3181 43.7229C38.4791 41.9219 40.1911 41.2128 42.2151 41.2148C52.2821 41.2298 62.3481 41.2278 72.4191 41.2278C77.1751 41.2278 81.9351 41.2298 86.6941 41.2148C88.7041 41.2128 90.3911 41.9389 91.5341 43.7229C92.0411 44.4979 92.2861 45.4767 92.6501 46.3657ZM43.4241 45.2278C43.6061 45.4378 43.7051 45.5668 43.8181 45.6958C50.4131 52.7378 57.0122 59.7927 63.6082 66.8457C64.2452 67.5177 64.6061 67.5179 65.2361 66.8489C71.8491 59.7819 78.4571 52.7237 85.0701 45.6567C85.1761 45.5417 85.2641 45.4168 85.4071 45.2278C71.3871 45.2278 57.4731 45.2278 43.4241 45.2278ZM44.5961 76.6877C57.7951 76.6877 71.0721 76.6877 84.3091 76.6877C80.4801 72.5937 76.6541 68.5117 72.7661 64.3557C72.6751 64.4777 72.5561 64.6607 72.4161 64.8147C70.9011 66.4407 69.3901 68.0679 67.8601 69.6819C65.7691 71.8969 63.0731 71.8889 60.9791 69.6729C59.6481 68.2639 58.3252 66.8458 57.0092 65.4238C56.6762 65.0628 56.3642 64.6779 56.1132 64.3789C52.2182 68.5429 48.3961 72.6327 44.5961 76.6877ZM39.9751 47.3608C39.9641 47.4098 39.9462 47.4428 39.9462 47.4858C39.9432 56.5508 39.9431 65.6179 39.9501 74.6809C39.9501 74.9519 40.0391 75.2308 40.0841 75.4788C44.4971 70.7588 48.8601 66.0909 53.1831 61.4829C48.8141 56.8079 44.4061 52.0938 39.9751 47.3608ZM88.8621 47.4338C84.4691 52.1208 80.0491 56.8459 75.7291 61.4629C80.0421 66.0739 84.4121 70.7469 88.7581 75.3889C88.9331 74.9569 89.0501 48.5508 88.8621 47.4338Z" fill="#FF664A"/>
<path fill-rule="evenodd" clip-rule="evenodd" d="M0.00153052 60.9222C0.00153052 56.2942 -0.000469481 51.6662 0.00153052 47.0402C0.00253052 44.0232 2.6135 41.2832 5.6225 41.2492C9.8605 41.2002 14.0985 41.2001 18.3355 41.2721C19.0015 41.2841 19.7655 41.6482 20.2955 42.0822C21.6205 43.1642 22.8805 44.3391 24.0875 45.5541C25.8795 47.3611 27.6064 49.2322 29.3554 51.0802C30.0824 51.8502 30.2625 52.8192 30.2645 53.8212C30.2745 60.9712 30.2845 68.1221 30.2625 75.2721C30.2545 78.0161 27.5565 80.6733 24.6905 80.6923C18.2945 80.7353 11.8985 80.7312 5.50153 80.6962C2.64453 80.6782 0.00550708 77.9092 0.00250708 75.0392C-0.00249292 70.3342 0.00153052 65.6292 0.00153052 60.9222ZM15.1564 77.8981C18.3234 77.8981 21.4935 77.9332 24.6605 77.8812C26.0755 77.8582 27.3144 76.5911 27.4484 75.1881C27.5194 74.4391 27.5705 73.6852 27.5665 72.9332C27.5405 67.0462 27.5024 61.1562 27.4594 55.2672C27.4484 53.7462 26.9345 53.2702 25.3775 53.2492C23.5085 53.2222 21.6385 53.1961 19.7725 53.1141C18.7925 53.0721 18.4265 52.6092 18.4005 51.6002C18.3505 49.6552 18.3065 47.7061 18.2515 45.7611C18.2165 44.5481 17.6015 43.9132 16.4185 43.9222C12.8335 43.9532 9.24849 43.9901 5.66449 44.0541C4.25449 44.0791 2.90743 45.4012 2.82343 46.7902C2.76143 47.7992 2.69946 48.8122 2.70246 49.8222C2.73046 58.1902 2.77147 66.5572 2.81647 74.9242C2.82547 76.4872 4.06743 77.8522 5.65143 77.8812C8.81843 77.9412 11.9884 77.9011 15.1564 77.8981Z" fill="#FF664A"/>
<path fill-rule="evenodd" clip-rule="evenodd" d="M15.1649 56.6278C17.7069 56.6278 20.2499 56.606 22.7919 56.641C23.6189 56.653 24.1688 57.244 24.1628 57.934C24.1568 58.657 23.5699 59.1898 22.6869 59.2008C18.3279 59.2528 13.9679 59.2988 9.60692 59.3248C8.85692 59.3308 8.10484 59.252 7.35484 59.194C6.66884 59.144 6.11089 58.5799 6.09789 57.9479C6.08489 57.3229 6.62692 56.6629 7.30492 56.6559C9.92392 56.6249 12.5449 56.642 15.1659 56.642C15.1649 56.642 15.1649 56.6338 15.1649 56.6278Z" fill="#FF664A"/>
<path fill-rule="evenodd" clip-rule="evenodd" d="M15.1604 71.5117C12.6894 71.5117 10.2204 71.5137 7.7504 71.5117C6.7854 71.5097 6.12945 70.9959 6.10245 70.2349C6.07345 69.4439 6.75643 68.8428 7.72843 68.8418C12.6674 68.8368 17.6064 68.8449 22.5454 68.8399C23.2714 68.8379 23.8984 69.0797 24.0424 69.8047C24.1244 70.2137 23.9445 70.7837 23.6795 71.1167C23.4715 71.3777 22.9504 71.4909 22.5684 71.4959C20.0994 71.5279 17.6304 71.5117 15.1604 71.5117Z" fill="#FF664A"/>
<path fill-rule="evenodd" clip-rule="evenodd" d="M13.6774 62.7455C15.6524 62.7455 17.6275 62.7354 19.6025 62.7504C20.4825 62.7574 21.0444 63.2694 21.0634 64.0224C21.0814 64.7294 20.5605 65.2763 19.7425 65.3893C19.5135 65.4223 19.2764 65.4174 19.0424 65.4184C15.3524 65.4204 11.6625 65.4204 7.97346 65.4184C7.73946 65.4184 7.50151 65.4274 7.27351 65.3844C6.60451 65.2584 6.07844 64.6315 6.10444 64.0185C6.13344 63.3305 6.68348 62.7723 7.44148 62.7653C9.52048 62.7423 11.5984 62.7565 13.6774 62.7565V62.7455Z" fill="#FF664A"/>
<path d="M302.385 55.1401C288.583 55.1401 277.354 43.9111 277.354 30.1091C277.354 16.3071 288.582 5.07812 302.385 5.07812C316.188 5.07812 327.417 16.3071 327.417 30.1091C327.417 43.9111 316.188 55.1401 302.385 55.1401Z" fill="#005072"/>
<path d="M302.385 8.09668C314.522 8.09668 324.396 17.9707 324.396 30.1077C324.396 42.2447 314.522 52.1187 302.385 52.1187C290.248 52.1187 280.375 42.2447 280.375 30.1077C280.375 17.9707 290.248 8.09668 302.385 8.09668ZM302.385 2.05469C286.892 2.05469 274.332 14.6157 274.332 30.1077C274.332 45.6027 286.892 58.1606 302.385 58.1606C317.878 58.1606 330.438 45.6027 330.438 30.1077C330.438 14.6157 317.878 2.05469 302.385 2.05469Z" fill="#FF664A"/>
<path d="M330.436 87.2612C316.633 87.2612 305.404 76.0322 305.404 62.2302C305.404 48.4282 316.633 37.1992 330.436 37.1992C344.238 37.1992 355.468 48.4282 355.468 62.2302C355.468 76.0322 344.239 87.2612 330.436 87.2612Z" fill="#005072"/>
<path d="M330.436 40.2178C342.573 40.2178 352.447 50.0918 352.447 62.2288C352.447 74.3658 342.573 84.2397 330.436 84.2397C318.299 84.2397 308.425 74.3658 308.425 62.2288C308.425 50.0918 318.3 40.2178 330.436 40.2178ZM330.436 34.1758C314.943 34.1758 302.383 46.7368 302.383 62.2288C302.383 77.7228 314.943 90.2817 330.436 90.2817C345.929 90.2817 358.489 77.7228 358.489 62.2288C358.489 46.7368 345.93 34.1758 330.436 34.1758Z" fill="#FF664A"/>
<path fill-rule="evenodd" clip-rule="evenodd" d="M313.952 20.9375C315.796 21.8185 316.517 23.0957 315.968 24.6177C315.796 25.0707 315.495 25.5155 315.156 25.8635C310.127 30.9145 305.09 35.9516 300.048 40.9866C298.699 42.3276 297.108 42.3277 295.75 40.9827C293.52 38.7687 291.296 36.5486 289.083 34.3186C287.81 33.0326 287.747 31.3695 288.893 30.1975C290.055 29.0115 291.761 29.0746 293.068 30.3696C294.658 31.9526 296.235 33.5427 297.876 35.1907C298.131 34.9517 298.353 34.7505 298.565 34.5415C302.549 30.5555 306.529 26.5585 310.534 22.5935C311.159 21.9775 311.909 21.4855 312.602 20.9385C313.05 20.9375 313.497 20.9375 313.952 20.9375Z" fill="#FF664A"/>
<path fill-rule="evenodd" clip-rule="evenodd" d="M329.577 66.9081C328.66 67.8301 327.79 68.7023 326.922 69.5773C325.062 71.4513 323.208 73.3302 321.341 75.1952C320.444 76.0912 319.383 76.2732 318.332 75.7482C317.223 75.1952 316.574 74.0632 316.704 72.9022C316.776 72.2552 317.124 71.7572 317.568 71.3102C318.918 69.9502 320.263 68.5851 321.617 67.2301C322.981 65.8651 324.352 64.5092 325.757 63.1132C325.619 62.9682 325.504 62.8451 325.385 62.7281C322.772 60.1281 320.159 57.5322 317.547 54.9332C316.602 53.9942 316.383 52.9432 316.907 51.8702C317.453 50.7482 318.61 50.0831 319.781 50.2201C320.427 50.2961 320.924 50.6492 321.369 51.0912C323.014 52.7252 324.66 54.3573 326.303 55.9923C327.384 57.0703 328.457 58.1561 329.559 59.2621C329.684 59.1431 329.792 59.0491 329.893 58.9481C332.518 56.3231 335.146 53.7031 337.766 51.0731C338.523 50.3131 339.388 49.9233 340.452 50.2753C341.556 50.6413 342.252 51.4132 342.479 52.5602C342.646 53.4012 342.354 54.1253 341.769 54.7213C340.7 55.8133 339.613 56.8872 338.533 57.9672C336.837 59.6612 335.14 61.3571 333.413 63.0821C333.523 63.1971 333.619 63.3032 333.719 63.4042C336.252 65.9482 338.786 68.4942 341.32 71.0382C341.415 71.1332 341.507 71.2311 341.603 71.3241C342.393 72.0951 342.715 73.0042 342.311 74.0612C341.878 75.1932 341.038 75.8741 339.821 76.0011C339.038 76.0831 338.393 75.7341 337.846 75.1871C336.133 73.4701 334.416 71.7581 332.702 70.0421C331.67 69.0101 330.642 67.9761 329.577 66.9081Z" fill="#FF664A"/>
<path d="M298.39 110.964C299.608 110.964 300.497 110.67 301.058 110.083C301.627 109.496 301.912 108.693 301.912 107.675C301.912 107.209 301.839 106.786 301.692 106.406C301.554 106.018 301.338 105.69 301.045 105.422C300.76 105.146 300.397 104.934 299.957 104.788C299.517 104.641 298.995 104.567 298.39 104.567H295.93V110.964H298.39ZM298.39 101.615C299.677 101.615 300.786 101.766 301.718 102.069C302.659 102.371 303.431 102.794 304.036 103.337C304.64 103.873 305.084 104.511 305.369 105.254C305.663 105.996 305.809 106.803 305.809 107.675C305.809 108.598 305.658 109.444 305.356 110.213C305.054 110.981 304.597 111.641 303.984 112.194C303.371 112.746 302.598 113.178 301.666 113.488C300.734 113.79 299.642 113.941 298.39 113.941H295.93V120.402H292.046V101.615H298.39ZM325.126 111.002C325.126 112.375 324.893 113.639 324.427 114.796C323.969 115.944 323.318 116.932 322.472 117.761C321.635 118.59 320.625 119.237 319.442 119.703C318.26 120.169 316.947 120.402 315.506 120.402H308.281V101.615H315.506C316.947 101.615 318.26 101.848 319.442 102.315C320.625 102.781 321.635 103.432 322.472 104.27C323.318 105.098 323.969 106.087 324.427 107.235C324.893 108.383 325.126 109.639 325.126 111.002ZM321.138 111.002C321.138 110.018 321.009 109.134 320.75 108.348C320.491 107.563 320.12 106.898 319.636 106.354C319.153 105.81 318.562 105.392 317.862 105.098C317.172 104.805 316.386 104.658 315.506 104.658H312.191V117.36H315.506C316.386 117.36 317.172 117.217 317.862 116.932C318.562 116.639 319.153 116.22 319.636 115.676C320.12 115.124 320.491 114.455 320.75 113.67C321.009 112.884 321.138 111.995 321.138 111.002ZM334.325 110.964C335.542 110.964 336.431 110.67 336.992 110.083C337.562 109.496 337.847 108.693 337.847 107.675C337.847 107.209 337.774 106.786 337.627 106.406C337.489 106.018 337.273 105.69 336.979 105.422C336.695 105.146 336.332 104.934 335.892 104.788C335.452 104.641 334.929 104.567 334.325 104.567H331.865V110.964H334.325ZM334.325 101.615C335.611 101.615 336.72 101.766 337.653 102.069C338.594 102.371 339.366 102.794 339.97 103.337C340.575 103.873 341.019 104.511 341.304 105.254C341.597 105.996 341.744 106.803 341.744 107.675C341.744 108.598 341.593 109.444 341.291 110.213C340.989 110.981 340.531 111.641 339.918 112.194C339.306 112.746 338.533 113.178 337.601 113.488C336.669 113.79 335.577 113.941 334.325 113.941H331.865V120.402H327.981V101.615H334.325Z" fill="#FF664A"/>
<path fill-rule="evenodd" clip-rule="evenodd" d="M231.802 92.737C231.659 92.737 231.517 92.737 231.375 92.737C225.357 92.737 219.34 92.7371 213.322 92.7421C212.749 92.7421 212.239 92.6281 211.836 92.1931C211.34 91.6561 211.22 91.0321 211.486 90.3601C211.757 89.6901 212.273 89.3199 213.003 89.2709C213.14 89.2609 213.277 89.267 213.413 89.267C219.396 89.267 225.38 89.267 231.363 89.267C231.474 89.267 231.585 89.267 231.792 89.267C231.664 89.099 231.598 88.9929 231.512 88.9069C229.532 86.9289 227.548 84.957 225.57 82.978C225.016 82.421 224.886 81.672 225.202 80.999C225.513 80.339 226.171 79.9529 226.922 79.9999C227.402 80.0329 227.777 80.2709 228.11 80.6039C230.035 82.5399 231.968 84.4651 233.897 86.4001C235.024 87.5241 236.151 88.6471 237.275 89.7751C238.021 90.5261 238.032 91.555 237.291 92.298C234.262 95.335 231.228 98.3629 228.195 101.396C227.693 101.899 227.098 102.086 226.417 101.875C225.725 101.66 225.313 101.165 225.199 100.45C225.102 99.8451 225.337 99.343 225.765 98.916C227.298 97.395 228.828 95.867 230.359 94.343C230.778 93.924 231.197 93.5061 231.613 93.0881C231.692 93.0101 231.762 92.923 231.837 92.842C231.824 92.806 231.812 92.773 231.802 92.737Z" fill="#5FCEEA"/>
<path fill-rule="evenodd" clip-rule="evenodd" d="M136.418 34.7022C136.561 34.7022 136.703 34.7022 136.845 34.7022C142.863 34.7022 148.88 34.6981 154.898 34.7051C155.471 34.7051 155.981 34.589 156.384 34.155C156.879 33.618 157 32.993 156.734 32.323C156.463 31.654 155.947 31.2822 155.216 31.2332C155.08 31.2252 154.943 31.229 154.807 31.229C148.824 31.229 142.841 31.229 136.857 31.229C136.747 31.229 136.635 31.229 136.427 31.229C136.555 31.063 136.622 30.9581 136.709 30.8701C138.688 28.8921 140.673 26.9192 142.65 24.9402C143.205 24.3832 143.335 23.6351 143.018 22.9631C142.707 22.3031 142.05 21.9161 141.298 21.9651C140.819 21.9961 140.443 22.2341 140.11 22.5691C138.185 24.5031 136.253 26.4301 134.323 28.3621C133.196 29.4891 132.069 30.6112 130.945 31.7412C130.198 32.4912 130.188 33.52 130.93 34.261C133.957 37.299 136.993 40.3281 140.025 43.3601C140.526 43.8651 141.122 44.0531 141.803 43.8391C142.495 43.6251 142.907 43.13 143.021 42.416C143.118 41.808 142.883 41.3061 142.455 40.8811C140.922 39.3601 139.392 37.8331 137.862 36.3081C137.443 35.8891 137.023 35.4722 136.608 35.0542C136.529 34.9752 136.459 34.8892 136.384 34.8062C136.395 34.7702 136.408 34.7362 136.418 34.7022Z" fill="#5FCEEA"/>
<path d="M183.123 50.2476V82.7676L209.012 77.8535V62.0085C209.012 61.3455 209.589 60.8295 210.249 60.9045L213.435 61.3984C213.994 61.4614 214.417 61.9354 214.417 62.5024V80.9104C214.417 81.4324 214.052 81.8864 213.54 81.9934L185.196 88.0906C183.827 88.3856 182.411 88.3874 181.039 88.0974L153.002 82.2004C152.501 82.0964 152.135 81.6586 152.12 81.1436L151.636 62.4465C151.622 61.8615 152.066 61.3645 152.651 61.3135L176.465 59.2205C176.879 59.1855 177.238 58.9196 177.397 58.5386L180.985 49.8235C181.447 48.6985 183.123 49.0286 183.123 50.2476ZM151.367 39.5964L143.892 55.5735C143.526 56.3535 144.153 57.2354 145.009 57.1484L173.078 54.3125C173.475 54.2735 173.819 54.0225 173.98 53.6575L183.014 33.3125L152.171 38.9766C151.819 39.0416 151.518 39.2744 151.367 39.5964ZM183.016 33.3125L192.571 54.2944C192.738 54.6594 193.09 54.9085 193.492 54.9395L221.507 57.1926C222.351 57.2626 222.957 56.3964 222.607 55.6274L215.301 39.6106C215.149 39.2776 214.846 39.0416 214.486 38.9766L183.016 33.3125Z" fill="#5FCEEA"/>
<path d="M158.737 76.3293C157.904 76.3293 157.047 76.2423 156.189 76.0713C155.344 75.9043 154.511 75.6642 153.717 75.3562C152.924 75.0492 152.165 74.6793 151.463 74.2563C150.734 73.8173 150.086 73.3164 149.536 72.7664C149.081 72.3114 149.002 71.6013 149.347 71.0583L150.993 68.4583C151.233 68.0663 151.578 67.7413 152.008 67.5073C152.425 67.2783 152.886 67.1592 153.372 67.1592C153.962 67.1592 154.542 67.3352 155.097 67.6812C155.424 67.8852 155.794 68.1102 156.207 68.3552C156.556 68.5642 156.974 68.7632 157.454 68.9482C157.839 69.0932 158.33 69.1682 158.903 69.1682C159.579 69.1682 160.098 69.0403 160.404 68.7983C160.613 68.6323 160.721 68.2812 160.721 67.7612C160.721 67.4382 160.631 67.3343 160.601 67.3013C160.423 67.0993 160.168 66.9192 159.848 66.7712C159.415 66.5712 158.913 66.3922 158.36 66.2412C157.702 66.0592 157.031 65.8582 156.343 65.6372C155.618 65.4072 154.895 65.1162 154.198 64.7742C153.422 64.3912 152.723 63.8834 152.119 63.2654C151.495 62.6264 150.99 61.8332 150.617 60.9092C150.245 59.9892 150.055 58.8662 150.055 57.5732C150.055 56.4902 150.275 55.4233 150.708 54.4023C151.141 53.3783 151.785 52.4533 152.623 51.6553C153.451 50.8653 154.471 50.2294 155.654 49.7664C156.827 49.3044 158.176 49.0703 159.66 49.0703C160.467 49.0703 161.265 49.1342 162.033 49.2612C162.821 49.3932 163.568 49.5853 164.258 49.8333C164.965 50.0893 165.628 50.3952 166.232 50.7412C166.864 51.1072 167.435 51.5232 167.933 51.9812C168.395 52.4052 168.512 53.0893 168.216 53.6423L166.832 56.2283C166.534 56.7163 166.239 57.0462 165.913 57.2842C165.482 57.5932 164.977 57.7444 164.402 57.7444C163.91 57.7444 163.411 57.6053 162.92 57.3333L161.946 56.8052C161.646 56.6462 161.291 56.4952 160.902 56.3652C160.572 56.2552 160.177 56.1982 159.728 56.1982C158.817 56.1982 158.445 56.4044 158.305 56.5264C158.157 56.6554 158.009 56.8442 158.009 57.2922C158.009 57.4622 158.054 57.5092 158.088 57.5442C158.27 57.7322 158.54 57.9103 158.886 58.0713C159.323 58.2723 159.838 58.4633 160.412 58.6343C161.07 58.8283 161.748 59.0512 162.441 59.2952C163.164 59.5502 163.878 59.8522 164.562 60.1912C165.333 60.5732 166.029 61.0683 166.63 61.6633C167.252 62.2773 167.757 63.0283 168.134 63.8953C168.516 64.7743 168.71 65.8202 168.71 67.0032C168.71 68.2772 168.483 69.4944 168.036 70.6204C167.581 71.7644 166.913 72.7724 166.052 73.6194C165.19 74.4694 164.123 75.1412 162.881 75.6182C161.654 76.0892 160.261 76.3293 158.737 76.3293Z" fill="white"/>
<path d="M159.659 50.4453C160.395 50.4453 161.11 50.5032 161.807 50.6182C162.505 50.7352 163.166 50.9032 163.791 51.1282C164.416 51.3552 165.001 51.6223 165.545 51.9353C166.086 52.2483 166.573 52.6033 167.001 52.9963L165.617 55.5823C165.454 55.8463 165.28 56.0443 165.099 56.1763C164.918 56.3053 164.685 56.3713 164.399 56.3713C164.147 56.3713 163.875 56.2943 163.585 56.1333C163.295 55.9753 162.964 55.7964 162.598 55.5984C162.23 55.4034 161.811 55.2232 161.338 55.0642C160.867 54.9062 160.328 54.8252 159.725 54.8252C158.682 54.8252 157.906 55.0492 157.397 55.4932C156.885 55.9372 156.63 56.5382 156.63 57.2942C156.63 57.7772 156.785 58.1783 157.091 58.4973C157.399 58.8153 157.802 59.0883 158.301 59.3203C158.8 59.5493 159.37 59.7613 160.012 59.9543C160.653 60.1433 161.308 60.3582 161.979 60.5952C162.65 60.8322 163.305 61.1083 163.946 61.4263C164.589 61.7443 165.159 62.1503 165.658 62.6443C166.157 63.1383 166.56 63.7403 166.867 64.4473C167.175 65.1563 167.329 66.0103 167.329 67.0083C167.329 68.1153 167.136 69.1532 166.752 70.1172C166.367 71.0842 165.812 71.9263 165.082 72.6433C164.352 73.3633 163.451 73.9284 162.382 74.3384C161.311 74.7504 160.096 74.9563 158.735 74.9563C157.988 74.9563 157.229 74.8793 156.456 74.7253C155.683 74.5733 154.933 74.3564 154.211 74.0774C153.486 73.7974 152.806 73.4653 152.17 73.0823C151.532 72.6973 150.979 72.2694 150.506 71.7974L152.152 69.1973C152.273 69.0003 152.442 68.8393 152.663 68.7183C152.881 68.5983 153.118 68.5374 153.37 68.5374C153.701 68.5374 154.031 68.6413 154.367 68.8503C154.701 69.0593 155.08 69.2883 155.502 69.5393C155.924 69.7933 156.41 70.0222 156.958 70.2332C157.508 70.4392 158.156 70.5452 158.901 70.5452C159.91 70.5452 160.695 70.3212 161.255 69.8792C161.814 69.4342 162.095 68.7302 162.095 67.7632C162.095 67.2022 161.941 66.7462 161.635 66.3972C161.325 66.0462 160.923 65.7554 160.425 65.5254C159.924 65.2944 159.358 65.0902 158.721 64.9172C158.085 64.7412 157.432 64.5453 156.762 64.3303C156.094 64.1183 155.439 63.8542 154.804 63.5422C154.169 63.2292 153.601 62.8174 153.101 62.3074C152.601 61.7954 152.199 61.1602 151.891 60.3972C151.583 59.6362 151.429 58.6942 151.429 57.5762C151.429 56.6752 151.61 55.7984 151.973 54.9424C152.335 54.0864 152.867 53.3243 153.57 52.6543C154.272 51.9843 155.133 51.4493 156.153 51.0503C157.174 50.6453 158.343 50.4453 159.659 50.4453ZM159.659 47.6953C158.002 47.6953 156.484 47.9623 155.147 48.4873C153.801 49.0143 152.63 49.7474 151.671 50.6624C150.699 51.5884 149.947 52.6684 149.44 53.8694C148.936 55.0574 148.679 56.3042 148.679 57.5732C148.679 59.0442 148.902 60.3412 149.342 61.4272C149.781 62.5162 150.384 63.4583 151.133 64.2263C151.739 64.8463 152.424 65.3713 153.175 65.7903C152.527 65.8183 151.909 65.9924 151.338 66.3074C150.705 66.6524 150.188 67.1413 149.81 67.7563L148.184 70.3232C147.496 71.4102 147.654 72.8293 148.563 73.7383C149.192 74.3673 149.928 74.9373 150.752 75.4343C151.523 75.8983 152.354 76.3032 153.221 76.6392C154.089 76.9752 155 77.2382 155.926 77.4202C156.866 77.6082 157.814 77.7034 158.737 77.7034C160.43 77.7034 161.989 77.4334 163.372 76.9014C164.789 76.3574 166.015 75.5824 167.014 74.5984C168.01 73.6194 168.784 72.4512 169.309 71.1292C169.821 69.8402 170.08 68.4522 170.08 67.0032C170.08 65.6302 169.848 64.3992 169.39 63.3472C168.944 62.3192 168.339 61.4233 167.593 60.6853C166.922 60.0213 166.15 59.4622 165.298 59.0242C165.809 58.9142 166.283 58.7084 166.696 58.4124C167.19 58.0524 167.606 57.5924 167.955 57.0264C167.985 56.9774 168.014 56.9272 168.041 56.8772L169.425 54.2913C170.017 53.1853 169.784 51.8172 168.86 50.9692C168.289 50.4442 167.637 49.9682 166.924 49.5552C166.24 49.1622 165.505 48.8243 164.728 48.5413C163.954 48.2643 163.127 48.0513 162.262 47.9053C161.414 47.7653 160.54 47.6953 159.659 47.6953ZM158.706 67.7903C158.314 67.7743 158.067 67.7112 157.924 67.6572C157.669 67.5592 157.431 67.4542 157.219 67.3452C157.48 67.4222 157.737 67.4952 157.988 67.5652C158.244 67.6352 158.484 67.7093 158.706 67.7903Z" fill="#005072"/>
<path d="M170.096 76.0659C169.337 76.0659 168.721 75.4509 168.721 74.6909V50.7109C168.721 49.9509 169.337 49.3359 170.096 49.3359H179.412C181.444 49.3359 183.329 49.6729 185.012 50.3359C186.706 51.0049 188.18 51.946 189.394 53.135C190.609 54.325 191.564 55.7571 192.232 57.3921C192.895 59.0211 193.231 60.8031 193.231 62.6931C193.231 64.5951 192.895 66.384 192.232 68.009C191.564 69.643 190.61 71.0769 189.396 72.2729C188.177 73.4719 186.701 74.4159 185.007 75.0769C183.329 75.7329 181.446 76.0669 179.412 76.0669H170.096V76.0659ZM179.412 69.0371C180.283 69.0371 181.061 68.894 181.724 68.613C182.366 68.337 182.895 67.9541 183.337 67.4451C183.788 66.9251 184.143 66.27 184.392 65.498C184.654 64.682 184.787 63.7369 184.787 62.6919C184.787 61.6589 184.654 60.72 184.392 59.905C184.144 59.134 183.789 58.478 183.337 57.959C182.896 57.449 182.366 57.0659 181.717 56.7859C181.065 56.5069 180.289 56.365 179.412 56.365H177.068V69.0371H179.412V69.0371Z" fill="white"/>
<path d="M179.412 50.7109C181.277 50.7109 182.976 51.012 184.507 51.615C186.036 52.219 187.344 53.0529 188.431 54.1169C189.518 55.1809 190.36 56.4469 190.958 57.9119C191.555 59.3769 191.855 60.9699 191.855 62.6919C191.855 64.4249 191.555 66.026 190.958 67.49C190.359 68.955 189.518 70.222 188.431 71.293C187.344 72.362 186.035 73.1979 184.507 73.7949C182.976 74.3949 181.277 74.6909 179.412 74.6909H170.096V50.7109H179.412ZM175.694 70.4131H179.413C180.476 70.4131 181.427 70.2339 182.262 69.8799C183.094 69.5219 183.8 69.0119 184.376 68.3479C184.952 67.6849 185.395 66.8739 185.702 65.9199C186.008 64.9659 186.163 63.8899 186.163 62.6929C186.163 61.5069 186.008 60.4379 185.702 59.4849C185.395 58.5289 184.952 57.7199 184.376 57.0569C183.799 56.3909 183.094 55.8819 182.262 55.5239C181.427 55.1669 180.477 54.991 179.413 54.991H175.694V70.4131ZM179.412 47.9609H170.096C168.577 47.9609 167.346 49.1919 167.346 50.7109V74.6909C167.346 76.2099 168.577 77.4409 170.096 77.4409H179.412C181.619 77.4409 183.671 77.076 185.51 76.355C187.375 75.626 189.008 74.583 190.36 73.252C191.709 71.925 192.766 70.3351 193.505 68.5291C194.235 66.7351 194.606 64.7719 194.606 62.6909C194.606 60.6229 194.236 58.666 193.506 56.874C192.765 55.061 191.706 53.4739 190.356 52.1509C189.011 50.8339 187.383 49.7929 185.518 49.0559C183.672 48.3309 181.619 47.9609 179.412 47.9609ZM178.444 57.741H179.413C180.102 57.741 180.697 57.845 181.18 58.053C181.629 58.246 181.996 58.5109 182.297 58.8579C182.63 59.2409 182.893 59.7339 183.084 60.3269C183.302 61.0079 183.413 61.8041 183.413 62.6941C183.413 63.5961 183.302 64.3991 183.083 65.0801C182.893 65.6741 182.629 66.1669 182.3 66.5449C181.997 66.8949 181.628 67.159 181.174 67.356C180.695 67.559 180.099 67.665 179.413 67.665H178.444V57.741V57.741Z" fill="#005072"/>
<path d="M211.014 76.0659C210.603 76.0659 210.252 76.0371 209.94 75.9761C209.586 75.9091 209.255 75.794 208.963 75.637C208.687 75.492 208.423 75.2951 208.197 75.0601C208.032 74.8921 207.865 74.6841 207.698 74.4351L202.256 66.0759C202.209 66.0019 202.168 65.9601 202.13 65.9441C202.088 65.9261 201.901 65.8641 201.458 65.8621V74.6909C201.458 75.4509 200.842 76.0659 200.083 76.0659H194.52C193.761 76.0659 193.145 75.4509 193.145 74.6909V50.7109C193.145 49.9509 193.761 49.3359 194.52 49.3359H200.083C200.842 49.3359 201.458 49.9509 201.458 50.7109V58.979C201.534 58.949 201.59 58.9101 201.625 58.8601L207.019 51.033C207.47 50.383 208.014 49.9249 208.641 49.6689C209.196 49.4439 209.82 49.3369 210.553 49.3369H215.393C215.911 49.3369 216.385 49.6281 216.62 50.0911C216.854 50.5531 216.808 51.1081 216.502 51.5261L209.393 61.22C209.268 61.394 209.136 61.5591 209 61.7141C209.331 62.0291 209.634 62.404 209.906 62.834L217.138 73.9419C217.413 74.3649 217.434 74.9039 217.193 75.3469C216.953 75.7899 216.489 76.0669 215.985 76.0669H211.014V76.0659Z" fill="white"/>
<path d="M215.391 50.7109H215.396H215.391ZM215.391 50.7109L208.282 60.405C208.03 60.755 207.765 61.0469 207.492 61.2759C207.217 61.5059 206.937 61.6991 206.652 61.8521C207.068 62.0061 207.451 62.219 207.796 62.488C208.141 62.757 208.458 63.1149 208.742 63.5659L215.984 74.6909H211.014C210.696 74.6909 210.423 74.67 210.201 74.627C209.975 74.584 209.78 74.516 209.615 74.427C209.45 74.341 209.308 74.2339 209.188 74.1079C209.064 73.9829 208.952 73.8369 208.841 73.6709L203.409 65.3259C203.212 65.0189 202.962 64.802 202.66 64.676C202.358 64.551 201.949 64.488 201.433 64.488H200.083V74.6919H194.519V50.7119H200.083V60.4231H200.974C201.797 60.4231 202.389 60.1649 202.75 59.6499L208.15 51.814C208.446 51.386 208.784 51.0959 209.161 50.9419C209.541 50.7889 210.003 50.7129 210.552 50.7129H215.391V50.7109ZM215.396 47.9609H215.391H210.552C209.652 47.9609 208.837 48.1059 208.131 48.3909C207.242 48.7539 206.492 49.3771 205.89 50.2461L202.833 54.6809V50.7109C202.833 49.1919 201.602 47.9609 200.083 47.9609H194.52C193.001 47.9609 191.77 49.1919 191.77 50.7109V74.6909C191.77 76.2099 193.001 77.4409 194.52 77.4409H200.083C201.602 77.4409 202.833 76.2099 202.833 74.6909V69.4819L206.536 75.1699C206.77 75.5209 206.991 75.7939 207.228 76.0359C207.536 76.3549 207.917 76.641 208.341 76.863C208.727 77.071 209.19 77.2329 209.686 77.3269C210.078 77.4029 210.515 77.4399 211.014 77.4399H215.984C216.993 77.4399 217.921 76.887 218.401 76.001C218.881 75.115 218.838 74.0359 218.287 73.1899L211.046 62.0649C210.959 61.9259 210.867 61.7909 210.771 61.6589L217.557 52.405C217.924 51.938 218.143 51.349 218.143 50.71C218.144 49.193 216.914 47.9609 215.396 47.9609Z" fill="#005072"/>
<path d="M89.3699 0H52.3359V37.033H89.3699V0Z" fill="#F7DF1E"/>
<path d="M77.2139 28.9326C77.9599 30.1506 78.931 31.0457 80.647 31.0457C82.089 31.0457 83.0099 30.3248 83.0099 29.3298C83.0099 28.1358 82.0639 27.7128 80.4769 27.0188L79.6069 26.6458C77.0959 25.5758 75.4269 24.2359 75.4269 21.4019C75.4269 18.7919 77.4159 16.8047 80.5239 16.8047C82.7369 16.8047 84.3279 17.5748 85.4739 19.5908L82.7639 21.3308C82.1669 20.2608 81.5239 19.8398 80.5239 19.8398C79.5049 19.8398 78.8589 20.4858 78.8589 21.3308C78.8589 22.3748 79.5049 22.7978 80.9989 23.4438L81.8689 23.8167C84.8259 25.0847 86.4949 26.3777 86.4949 29.2837C86.4949 32.4167 84.0339 34.1338 80.7279 34.1338C77.4959 34.1338 75.4079 32.5927 74.3859 30.5747L77.2139 28.9326ZM64.9199 29.2346C65.4669 30.2046 65.9639 31.0247 67.1599 31.0247C68.3039 31.0247 69.0249 30.5776 69.0249 28.8376V17.0037H72.5049V28.8848C72.5049 32.4888 70.392 34.1277 67.309 34.1277C64.522 34.1277 62.9089 32.6857 62.0879 30.9487L64.9199 29.2346Z" fill="black"/>
<path d="M20.8449 111.427C20.8449 111.427 19.9838 111.951 21.4428 112.103C23.2038 112.327 24.1408 112.288 26.0868 111.915C26.0868 111.915 26.6119 112.252 27.3239 112.514C22.9409 114.387 17.3989 112.402 20.8449 111.427ZM20.2829 108.992C20.2829 108.992 19.3459 109.705 20.8079 109.854C22.7169 110.042 24.2139 110.078 26.7979 109.554C26.7979 109.554 27.1348 109.93 27.6958 110.117C22.4178 111.69 16.5019 110.265 20.2829 108.992ZM30.6178 113.264C30.6178 113.264 31.2528 113.786 29.9058 114.198C27.3968 114.949 19.3849 115.172 17.1369 114.198C16.3519 113.861 17.8489 113.376 18.3359 113.3C18.8219 113.188 19.0849 113.188 19.0849 113.188C18.2229 112.588 13.3558 114.422 16.6138 114.95C25.5628 116.407 32.9388 114.311 30.6178 113.264ZM21.2569 106.449C21.2569 106.449 17.1758 107.423 19.7968 107.758C20.9198 107.908 23.1289 107.869 25.1889 107.722C26.8739 107.573 28.5598 107.273 28.5598 107.273C28.5598 107.273 27.9599 107.535 27.5489 107.797C23.3929 108.883 15.4179 108.396 17.6999 107.273C19.6459 106.337 21.2569 106.449 21.2569 106.449ZM28.5589 110.529C32.7529 108.358 30.8048 106.26 29.4568 106.521C29.1208 106.598 28.9709 106.672 28.9709 106.672C28.9709 106.672 29.0829 106.449 29.3449 106.371C32.0039 105.436 34.1008 109.181 28.4828 110.641C28.4818 110.641 28.5209 110.605 28.5589 110.529ZM21.6689 116.444C25.7109 116.71 31.8918 116.297 32.0398 114.387C32.0398 114.387 31.7419 115.135 28.7089 115.697C25.2619 116.335 20.9929 116.258 18.4849 115.846C18.4859 115.846 19.0109 116.298 21.6689 116.444Z" fill="#4E7896"/>
<path d="M26.0111 94.0938C26.0111 94.0938 28.3311 96.4518 23.8021 100.008C20.1691 102.892 22.9781 104.538 23.8021 106.412C21.6681 104.503 20.132 102.818 21.181 101.244C22.716 98.9227 26.9471 97.7987 26.0111 94.0938ZM24.8141 104.838C25.8991 106.076 24.514 107.197 24.514 107.197C24.514 107.197 27.2851 105.777 26.0121 104.014C24.8511 102.328 23.952 101.505 28.821 98.6997C28.82 98.6997 21.1421 100.609 24.8141 104.838ZM22.0431 124.946V121.278C22.0431 120.34 21.5181 119.704 20.2081 119.704C19.4591 119.704 18.8221 119.892 18.2611 120.116L18.4491 120.79C18.8601 120.64 19.384 120.489 19.946 120.489C20.658 120.489 20.993 120.79 20.993 121.389V121.877H20.619C18.822 121.877 17.998 122.548 17.998 123.636C17.998 124.533 18.561 125.057 19.572 125.057C20.207 125.057 20.6941 124.757 21.1421 124.383L21.2191 124.946H22.0431V124.946ZM20.9921 123.748C20.6181 124.087 20.2071 124.271 19.8341 124.271C19.3451 124.271 19.0471 123.972 19.0471 123.448C19.0471 122.925 19.3451 122.549 20.5431 122.549H20.9921V123.748V123.748ZM25.5621 124.946H24.2511L22.6781 119.816H23.8021L24.775 122.963L25.0011 123.899C25.4871 122.548 25.8611 121.163 26.0121 119.816H27.1351C26.8351 121.502 26.3111 123.337 25.5621 124.946ZM31.6281 124.946V121.278C31.6281 120.34 31.1031 119.704 29.7941 119.704C29.0441 119.704 28.409 119.892 27.847 120.116L27.9961 120.79C28.4451 120.64 28.9701 120.489 29.5321 120.489C30.2421 120.489 30.5791 120.79 30.5791 121.389V121.877H30.2051C28.4081 121.877 27.5841 122.548 27.5841 123.636C27.5841 124.533 28.107 125.057 29.119 125.057C29.793 125.057 30.278 124.757 30.728 124.383L30.8031 124.946H31.6281V124.946ZM30.5791 123.748C30.2051 124.087 29.7941 124.271 29.4191 124.271C28.9321 124.271 28.6321 123.972 28.6321 123.448C28.6321 122.925 28.9321 122.549 30.1311 122.549H30.5791V123.748ZM16.8361 125.808C16.5391 126.257 16.0901 126.592 15.5281 126.781L15.0391 126.181C15.4151 125.957 15.7891 125.619 15.9391 125.319C16.0891 125.057 16.1261 124.683 16.1261 123.822V117.983H17.2501V123.748C17.2501 124.91 17.1361 125.357 16.8361 125.808Z" fill="#F58219"/>
</svg>
