<svg width="150" height="151" viewBox="0 0 150 151" fill="none" xmlns="http://www.w3.org/2000/svg">
<path fill-rule="evenodd" clip-rule="evenodd" d="M86.0858 148.044C63.2518 148.044 40.4088 148.269 17.5788 147.941C7.51582 147.795 0.304803 139.84 0.274803 129.744C0.184803 99.7444 0.164751 69.7522 0.383751 39.7532C0.401751 37.2372 1.84276 34.1414 3.64376 32.3304C13.2098 22.7134 22.9878 13.2924 32.9827 4.12237C34.9697 2.30037 38.2318 0.981193 40.9248 0.942193C59.9208 0.675193 78.9188 0.748296 97.9188 0.823296C109.546 0.866296 117.015 8.21139 117.101 19.7984C117.225 36.9374 117.14 54.0791 117.126 71.2171C117.126 72.1821 116.991 73.1471 116.905 74.2591C114.266 74.2591 111.895 74.2591 108.848 74.2591C108.848 72.7081 108.848 71.2122 108.848 69.7132C108.848 53.7132 108.866 37.7135 108.844 21.7205C108.83 12.7145 105.444 9.38833 96.3537 9.38433C79.9257 9.37433 63.4978 9.37823 47.0728 9.37823C45.6648 9.37823 44.2598 9.37823 42.2588 9.37823C42.2588 13.6142 42.2667 17.55 42.2547 21.49C42.2177 33.978 34.8228 41.4283 22.2818 41.5643C18.0028 41.6103 13.7228 41.5721 8.8138 41.5721C8.8138 43.1751 8.8138 44.54 8.8138 45.907C8.8138 73.188 8.80679 100.47 8.81979 127.756C8.81979 135.933 12.3638 139.493 20.5398 139.507C37.8228 139.532 55.1038 139.611 72.3878 139.445C76.8588 139.4 80.7897 139.557 83.3427 144.009C84.0437 145.237 85.7398 145.897 86.9818 146.815C86.6848 147.226 86.3868 147.635 86.0858 148.044Z" fill="#D1D4D3"/>
<path fill-rule="evenodd" clip-rule="evenodd" d="M58.5788 61.5855C47.3088 61.5855 36.0397 61.5444 24.7697 61.6104C21.5907 61.6314 18.7228 61.0608 18.7188 57.3038C18.7088 53.5418 21.5707 52.9765 24.7517 52.9845C47.1467 53.0355 69.5457 53.0278 91.9407 52.9928C95.0737 52.9908 97.9578 53.4617 97.9738 57.3077C97.9948 61.2007 95.0717 61.6166 91.9577 61.6026C80.8327 61.5616 69.7038 61.5855 58.5788 61.5855Z" fill="#D1D4D3"/>
<path fill-rule="evenodd" clip-rule="evenodd" d="M58.3539 78.7364C47.0839 78.7364 35.815 78.6968 24.547 78.7618C21.283 78.7848 18.592 77.9634 18.715 74.2374C18.828 70.7694 21.497 70.1298 24.543 70.1368C47.078 70.1868 69.618 70.1736 92.158 70.1456C95.133 70.1406 97.865 70.6036 97.976 74.2046C98.097 78.0246 95.353 78.7546 92.158 78.7466C80.891 78.7166 69.6239 78.7364 58.3539 78.7364Z" fill="#D1D4D3"/>
<path fill-rule="evenodd" clip-rule="evenodd" d="M82.4214 87.3169C80.4924 90.1389 79.1183 92.4631 77.4033 94.4961C76.7213 95.2991 75.2683 95.8251 74.1653 95.8291C57.4423 95.9151 40.7243 95.8668 24.0013 95.9058C21.0133 95.9148 18.7603 94.861 18.7043 91.687C18.6453 88.53 20.7783 87.2968 23.8253 87.3008C43.1153 87.3308 62.3984 87.3169 82.4214 87.3169Z" fill="#D1D4D3"/>
<path fill-rule="evenodd" clip-rule="evenodd" d="M71.8789 121.615C72.6319 124.559 73.265 127.029 73.991 129.875C72.814 129.99 71.7729 130.172 70.7339 130.178C55.3439 130.196 39.9529 130.165 24.5609 130.211C21.4579 130.217 18.4619 129.838 18.3729 126.047C18.2839 121.947 21.419 121.584 24.679 121.594C40.344 121.635 56.0079 121.615 71.8789 121.615Z" fill="#D1D4D3"/>
<path fill-rule="evenodd" clip-rule="evenodd" d="M72.9579 104.467C72.4539 107.484 72.0129 110.117 71.5239 113.042C57.3419 113.042 43.3789 113.042 29.4109 113.042C27.4129 113.042 25.4169 113.058 23.4179 113.028C20.5339 112.99 18.6599 111.525 18.7059 108.651C18.7489 105.754 20.7079 104.456 23.5809 104.461C32.7179 104.48 41.849 104.467 50.985 104.467C58.248 104.467 65.5099 104.467 72.9579 104.467Z" fill="#D1D4D3"/>
<path fill-rule="evenodd" clip-rule="evenodd" d="M74.4672 44.4385C68.3302 44.4385 62.1962 44.4164 56.0532 44.4454C53.1222 44.4594 50.8622 43.5164 50.8152 40.2144C50.7682 36.9204 52.9442 35.8594 55.9192 35.8594C68.1942 35.8714 80.4682 35.8774 92.7412 35.8594C95.6852 35.8514 97.9372 36.8406 97.9972 40.1006C98.0582 43.3836 95.8432 44.4524 92.8762 44.4424C86.7412 44.4254 80.6042 44.4385 74.4672 44.4385Z" fill="#D1D4D3"/>
<path d="M149.755 116.447C149.755 135.391 134.398 150.753 115.45 150.753C96.5006 150.753 81.1426 135.392 81.1426 116.447C81.1426 97.5043 96.4996 82.1406 115.45 82.1406C134.398 82.1416 149.755 97.5043 149.755 116.447Z" fill="#FF664A"/>
<path fill-rule="evenodd" clip-rule="evenodd" d="M139.75 131.439C134.822 139.587 125.878 145.033 115.664 145.033C105.442 145.033 96.4945 139.588 91.5645 131.442C98.8104 127.793 106.997 125.738 115.663 125.738C124.324 125.738 132.506 127.792 139.75 131.439Z" fill="white"/>
<path d="M130.443 107.699C130.443 115.98 123.728 122.686 115.459 122.686C107.178 122.686 100.467 115.98 100.467 107.699C100.467 99.4177 107.178 92.707 115.459 92.707C123.728 92.707 130.443 99.4177 130.443 107.699Z" fill="white"/>
</svg>
