<svg width="304" height="271" viewBox="0 0 304 271" fill="none" xmlns="http://www.w3.org/2000/svg">
<path fill-rule="evenodd" clip-rule="evenodd" d="M13.4327 240.025C12.4507 240.025 11.4667 239.827 10.5117 239.437C7.96972 238.395 6.86871 236.464 7.14771 233.537C7.35871 231.345 8.50574 229.352 10.5577 227.617C10.9017 227.325 11.2667 227.061 11.6307 226.798L30.2607 213.411C45.9367 202.148 61.6128 190.887 77.2808 179.61C79.5178 178.001 81.5627 177.219 83.5327 177.219C83.7637 177.219 83.9978 177.229 84.2328 177.251C87.4178 177.543 89.2218 179.088 89.7488 181.974C90.2578 184.757 88.6958 187.918 85.7698 190.028C77.6478 195.88 69.5128 201.723 61.3778 207.567L42.8678 220.869C34.8988 226.598 26.9288 232.329 18.9468 238.042C17.1088 239.358 15.2527 240.025 13.4327 240.025Z" fill="#FF664A"/>
<path d="M83.5316 178.345C83.7286 178.345 83.9296 178.355 84.1296 178.373C86.8146 178.619 88.2056 179.792 88.6416 182.178C89.0726 184.535 87.6867 187.259 85.1127 189.116C76.9957 194.964 68.8656 200.804 60.7356 206.644L51.7696 213.085L42.2186 219.949C34.2466 225.68 26.2766 231.412 18.2916 237.127C16.6476 238.303 15.0126 238.9 13.4326 238.9C12.5966 238.9 11.7567 238.73 10.9407 238.396C8.86066 237.543 8.03666 236.078 8.26866 233.646C8.45066 231.755 9.46468 230.015 11.2887 228.474C11.5877 228.22 11.9296 227.972 12.2926 227.708L12.4617 227.585L30.9076 214.331C46.5876 203.066 62.2656 191.802 77.9376 180.523C79.9766 179.058 81.8066 178.345 83.5316 178.345ZM83.5316 176.094C81.0936 176.094 78.8187 177.117 76.6227 178.697C54.8057 194.399 32.9756 210.072 11.1466 225.759C10.7016 226.083 10.2507 226.403 9.83067 226.759C7.60667 228.64 6.2726 230.872 6.0266 233.432C5.7066 236.797 7.05068 239.237 10.0857 240.481C11.1807 240.928 12.3006 241.153 13.4326 241.153C15.4746 241.153 17.5556 240.424 19.6026 238.959C30.7756 230.962 41.9246 222.932 53.0826 214.915C64.1996 206.926 75.3256 198.942 86.4276 190.943C89.6976 188.586 91.4456 185.001 90.8556 181.774C90.2396 178.397 88.0327 176.471 84.3357 176.132C84.0657 176.106 83.7976 176.094 83.5316 176.094Z" fill="#E55C42"/>
<path fill-rule="evenodd" clip-rule="evenodd" d="M7.22236 195.385C4.17236 195.385 1.90628 193.745 1.30928 191.108C0.697276 188.406 1.64432 185.833 4.12532 183.458C4.53732 183.063 5.03037 182.662 5.63337 182.23L61.4683 142.099C63.6113 140.558 65.6013 139.809 67.5563 139.809C67.8393 139.809 68.1264 139.824 68.4154 139.856C71.6104 140.219 73.3584 141.759 73.7584 144.561C74.2074 147.684 72.8663 150.403 69.7713 152.641C63.1263 157.443 56.4664 162.225 49.8054 167.006L41.3104 173.106L33.3503 178.833C26.5993 183.689 19.8493 188.546 13.0843 193.378C11.2733 194.672 9.19136 195.385 7.22236 195.385Z" fill="#FF664A"/>
<path d="M67.5561 140.935C67.7981 140.935 68.0451 140.949 68.2871 140.976C71.7311 141.368 72.4251 143.182 72.6431 144.722C73.0281 147.398 71.8392 149.755 69.1122 151.729C62.4692 156.529 55.6981 161.39 49.1501 166.091C46.3171 168.124 43.4841 170.158 40.6531 172.194C37.9981 174.102 35.3431 176.01 32.6891 177.921C26.0531 182.695 19.1921 187.633 12.4291 192.463C10.8061 193.622 8.95706 194.261 7.22106 194.261C4.68806 194.261 2.88812 192.991 2.40612 190.861C1.88012 188.54 2.69611 186.384 4.90111 184.273C5.27611 183.916 5.7291 183.548 6.2921 183.146L36.3391 161.548L62.1251 143.013C64.0691 141.613 65.8451 140.935 67.5561 140.935ZM67.5552 138.684C65.1832 138.684 62.9501 139.648 60.8111 141.186C42.2021 154.563 23.5861 167.939 4.97814 181.316C4.40814 181.724 3.85016 182.165 3.34716 182.645C0.578157 185.295 -0.495829 188.242 0.211171 191.357C0.962171 194.676 3.83816 196.511 7.22216 196.511C9.32716 196.511 11.6301 195.8 13.7391 194.294C23.1641 187.562 32.5591 180.782 41.9681 174.021C51.4571 167.201 60.9601 160.398 70.4321 153.553C73.8711 151.065 75.3772 147.907 74.8732 144.403C74.3932 141.03 72.1521 139.15 68.5421 138.74C68.2101 138.702 67.8812 138.684 67.5552 138.684Z" fill="#E55C42"/>
<path fill-rule="evenodd" clip-rule="evenodd" d="M53.904 260.033C53.011 260.033 52.112 259.873 51.23 259.556C48.738 258.66 47.544 256.901 47.585 254.18C47.62 251.528 48.944 249.2 51.523 247.259C52.972 246.164 54.484 245.088 55.945 244.048L57.6 242.865L66.844 236.222C80.501 226.407 94.159 216.591 107.82 206.784C109.975 205.236 112.201 204.418 114.256 204.418C115.664 204.418 116.928 204.802 118.012 205.559C119.477 206.584 120.293 208.17 120.307 210.024C120.327 212.685 118.78 215.4 116.167 217.288C109.295 222.257 102.406 227.2 95.519 232.143L79.049 243.974C72.528 248.662 66.0059 253.349 59.4789 258.027C57.6209 259.358 55.746 260.033 53.904 260.033Z" fill="#FF664A"/>
<path d="M114.255 205.544C115.429 205.544 116.476 205.859 117.364 206.481C118.85 207.52 119.172 208.986 119.179 210.033C119.197 212.296 117.789 214.726 115.505 216.376C108.637 221.343 101.635 226.367 94.863 231.227L87.1691 236.751L78.3851 243.064C71.8651 247.751 65.346 252.437 58.821 257.113C57.159 258.304 55.5051 258.908 53.9031 258.908C53.1401 258.908 52.369 258.77 51.612 258.499C49.571 257.765 48.6761 256.438 48.7101 254.195C48.7411 251.91 49.915 249.88 52.202 248.157C53.638 247.073 55.141 246.003 56.597 244.967C57.152 244.572 57.7041 244.178 58.2571 243.781L67.473 237.158C81.14 227.337 94.806 217.514 108.477 207.7C110.439 206.289 112.437 205.544 114.255 205.544ZM114.255 203.293C112.007 203.293 109.546 204.159 107.163 205.87C90.4201 217.891 73.6831 229.922 56.9431 241.951C54.9081 243.412 52.8451 244.848 50.8451 246.359C48.0401 248.47 46.4991 251.105 46.4581 254.163C46.4111 257.324 47.8881 259.55 50.8491 260.615C51.8581 260.977 52.8781 261.157 53.9031 261.157C55.9771 261.157 58.0721 260.418 60.1321 258.941C69.5881 252.165 79.033 245.366 88.483 238.578C97.933 231.789 107.394 225.018 116.825 218.199C122.135 214.363 123.001 207.676 118.655 204.636C117.369 203.737 115.867 203.292 114.255 203.293Z" fill="#E55C42"/>
<path fill-rule="evenodd" clip-rule="evenodd" d="M14.3334 142.625C11.4054 142.625 9.16739 141.07 8.49439 138.568C7.76539 135.865 8.65639 133.254 11.1404 130.805C11.7214 130.236 12.4334 129.71 13.1124 129.221C20.5274 123.886 27.9464 118.555 35.3644 113.224C43.5044 107.375 51.6434 101.527 59.7804 95.6707C61.8014 94.2137 63.4585 93.4696 65.1525 93.2566C65.5225 93.2106 65.8934 93.1875 66.2554 93.1875C69.2124 93.1875 71.4935 94.7256 72.2105 97.2026C73.0725 100.182 71.5794 103.684 68.4954 105.92C63.0924 109.834 57.6734 113.723 52.2534 117.612C49.5654 119.541 46.8784 121.469 44.1914 123.401L36.4694 128.956C31.0654 132.847 25.6605 136.736 20.2405 140.6C18.4095 141.906 16.3114 142.625 14.3334 142.625Z" fill="#FF664A"/>
<path d="M66.2572 94.3135C68.7282 94.3135 70.5491 95.5106 71.1301 97.5166C71.8601 100.04 70.5372 103.051 67.8362 105.008C62.4362 108.92 56.9262 112.874 51.5982 116.697C48.9102 118.626 46.2222 120.555 43.5362 122.487C40.9612 124.337 38.3881 126.189 35.8131 128.042C30.5001 131.867 25.0052 135.822 19.5882 139.684C17.9442 140.855 16.0781 141.5 14.3331 141.5C11.9011 141.5 10.1242 140.293 9.58119 138.273C8.95719 135.96 9.72619 133.78 11.9252 131.613C12.4542 131.095 13.1272 130.598 13.7682 130.135C21.1872 124.798 28.6082 119.465 36.0292 114.133C44.1662 108.285 52.3032 102.439 60.4402 96.5825C62.2992 95.2425 63.7962 94.5615 65.2892 94.3735C65.6152 94.3345 65.9422 94.3135 66.2572 94.3135ZM66.2561 92.0625C65.8511 92.0625 65.4362 92.0876 65.0132 92.1406C62.8542 92.4116 60.9532 93.4396 59.1242 94.7576C43.5702 105.95 28.0091 117.118 12.4541 128.309C11.7251 128.835 10.9872 129.382 10.3512 130.004C7.58121 132.733 6.56722 135.741 7.40822 138.86C8.26022 142.026 11.0541 143.75 14.3341 143.75C16.4511 143.75 18.7701 143.032 20.8961 141.517C28.8981 135.813 36.8681 130.049 44.8501 124.316C52.9531 118.488 61.0731 112.688 69.1571 106.832C72.6651 104.29 74.2731 100.276 73.2931 96.8916C72.4261 93.8996 69.6881 92.0625 66.2561 92.0625Z" fill="#E55C42"/>
<path fill-rule="evenodd" clip-rule="evenodd" d="M106.004 269.874C104.969 269.874 103.94 269.652 102.944 269.216C100.422 268.106 99.3715 266.146 99.7365 263.225C100.047 260.763 101.463 258.614 103.945 256.837C107.733 254.125 111.513 251.407 115.295 248.689L129.363 238.574C136.812 233.217 144.261 227.857 151.726 222.519C153.651 221.141 155.804 220.383 157.789 220.383C159.924 220.383 161.715 221.243 162.83 222.805C164.996 225.836 163.637 230.424 159.734 233.249C154.104 237.317 148.462 241.367 142.818 245.417L135.672 250.548L128.805 255.488C123.035 259.641 117.266 263.796 111.471 267.917C109.644 269.216 107.805 269.874 106.004 269.874Z" fill="#FF664A"/>
<path d="M157.791 221.509C159.552 221.509 161.017 222.202 161.915 223.46C163.716 225.981 162.469 229.882 159.077 232.337C153.449 236.403 147.713 240.521 142.166 244.501C139.781 246.212 137.397 247.923 135.015 249.635C132.726 251.28 130.438 252.927 128.151 254.573C122.478 258.658 116.612 262.882 110.819 267C109.186 268.161 107.567 268.749 106.005 268.749C105.126 268.749 104.249 268.56 103.4 268.187C101.337 267.279 100.552 265.791 100.855 263.367C101.128 261.198 102.354 259.362 104.603 257.753C108.391 255.042 112.171 252.323 115.952 249.605L121.594 245.549L130.021 239.489C137.346 234.22 144.92 228.772 152.385 223.434C154.117 222.192 156.038 221.509 157.791 221.509ZM157.79 219.258C155.635 219.258 153.269 220.03 151.072 221.604C140.792 228.957 130.541 236.346 120.279 243.721C114.615 247.789 108.962 251.864 103.291 255.923C100.626 257.829 98.9825 260.205 98.6205 263.086C98.1985 266.459 99.5015 268.932 102.493 270.248C103.637 270.749 104.812 271.001 106.004 271.001C108.025 271.001 110.092 270.279 112.124 268.835C120.22 263.079 128.264 257.258 136.328 251.463C144.352 245.697 152.387 239.949 160.395 234.162C164.833 230.948 166.271 225.686 163.746 222.151C162.378 220.235 160.216 219.258 157.79 219.258Z" fill="#E55C42"/>
<path fill-rule="evenodd" clip-rule="evenodd" d="M240.398 63.1431C237.406 68.5621 234.416 73.9791 231.416 79.3931C224.647 91.6081 217.946 103.859 211.073 116.011C207.052 123.122 200.308 126.677 193.523 125.406C186.31 124.052 181.422 119.856 179.504 112.712C177.554 105.457 180.444 98.4999 187.597 94.0239C204.749 83.2949 222.047 72.7951 239.283 62.2031C239.654 62.5151 240.024 62.8301 240.398 63.1431Z" fill="#FF664A" stroke="#E55C42" stroke-width="2.0302" stroke-miterlimit="10" stroke-linejoin="round"/>
<path fill-rule="evenodd" clip-rule="evenodd" d="M263.233 26.9722C257.417 33.3632 251.856 39.4763 245.782 46.1553C232.158 34.2563 216.656 28.0912 198.992 27.0222C198.992 18.4742 198.992 10.2332 198.992 1.49219C223.574 3.14319 245.084 11.4412 263.233 26.9722Z" fill="#FECB91" stroke="#FF986D" stroke-width="2.0302" stroke-miterlimit="10" stroke-linejoin="round"/>
<path fill-rule="evenodd" clip-rule="evenodd" d="M302.009 99.9417C293.48 99.9417 285.272 99.9417 276.642 99.9417C274.279 83.0917 268.039 67.9377 257.027 55.0347C263.189 48.9927 269.079 43.2197 275.239 37.1797C291.037 54.7237 300.143 75.4837 302.009 99.9417Z" fill="#FECB91" stroke="#FF986D" stroke-width="2.0302" stroke-miterlimit="10" stroke-linejoin="round"/>
<path d="M288.278 115C284.508 115 280.729 115 276.972 115C271.314 164 229.801 192.206 190.294 190.45C152.521 188.77 116.343 156.308 111.644 118.543C106.065 73.6865 139.79 31.1816 183.79 25.6196C183.79 21.6486 183.79 17.6636 183.79 13.6836C135.79 18.1066 98.9258 58.4835 98.9258 107.646C98.9258 159.771 141.551 203.142 193.674 203.142C244.075 203.143 285.619 163 288.278 115Z" fill="#FECB91" stroke="#FF986D" stroke-width="2" stroke-miterlimit="10" stroke-linejoin="round"/>
<path fill-rule="evenodd" clip-rule="evenodd" d="M293.505 115C290.846 167 247.33 208.361 194.044 208.361C139.038 208.361 93.7072 163.214 93.7072 108.208C93.7072 56.158 133.79 12.886 183.79 8.44604C183.79 5.96304 183.79 3.486 183.79 1C133.79 2.389 85.0412 46.8601 85.6502 108.341C86.2592 169.92 138.133 219.623 200.637 215.672C265.3 211.584 302.005 155 301.637 115C298.924 115 296.221 115 293.505 115Z" fill="#FF664A" stroke="#E55C42" stroke-width="2" stroke-miterlimit="10" stroke-linejoin="round"/>
</svg>
