<svg width="88" height="100" viewBox="0 0 88 100" fill="none" xmlns="http://www.w3.org/2000/svg">
<path fill-rule="evenodd" clip-rule="evenodd" d="M86.991 2.229C85.87 0.592004 84.699 0 82.774 0C57.528 0 31.619 0.003 6.375 0C3.352 0 0 1.53 0 4.353C0 27.843 0 51.335 0 74.825C0 75.541 1.479 78.314 1.909 78.955C3.034 80.586 5.60202 83.176 7.52802 83.176C12.094 83.176 16.655 83.176 21.221 83.176C20.233 80.176 19.252 78.176 18.274 78.176C14.901 78.176 10 78.176 10 78.176C10 58.176 10 38.176 10 21.176C30 21.176 57 21.176 80 21.176C80 38.176 80 58.176 80 78.176C78 78.176 78 78.176 76 78.176C76 78.176 76 73.132 76 73.269C76 74.536 76 75.802 76 77.07V78.322C76 78.611 76 80.176 76 83.176C78 83.176 81.208 83.176 83.288 83.176C86.315 83.176 87 77.655 87 74.825C87 51.336 87 27.844 87 4.353C87 3.642 87.421 2.871 86.991 2.229ZM64.661 11.283C64.557 12.288 63.886 12.816 62.874 12.888C62.311 12.927 61.741 12.92 61.177 12.907C59.7 12.875 59.011 12.848 58.964 11.368C58.952 11.081 58.964 11.175 58.964 11.175C58.974 11.175 58.989 11.175 59.003 11.175C59.003 11.175 58.964 9.66499 59.011 9.24699C59.12 8.29599 59.781 7.317 60.751 7.248C61.481 7.196 62.23 7.031 62.954 7.08C63.876 7.139 64.54 7.594 64.645 8.504C64.751 9.453 64.761 10.345 64.661 11.283ZM73.745 11.174C73.745 11.174 73.731 11.174 73.724 11.174C73.724 11.174 73.757 11.313 73.714 11.699C73.585 12.873 72.933 13.175 71.78 13.229C71.075 13.262 70.358 13.094 69.661 13.034C68.757 12.948 68.106 12.276 68.03 11.376C67.952 10.454 67.952 9.467 68.03 8.536C68.112 7.638 68.762 7.03 69.661 6.944C70.243 6.881 70.845 6.888 71.442 6.888C73.001 6.909 73.698 8.25899 73.745 9.83499C73.757 10.061 73.745 11.174 73.745 11.174ZM82.72 11.487C82.656 12.774 81.97 13.16 80.7 13.221C80.134 13.245 79.563 13.087 78.999 13.06C77.784 13.011 77.071 12.333 76.97 11.134C76.892 10.271 76.925 9.331 77.04 8.472C77.161 7.556 77.808 7.00701 78.72 6.93401C79.31 6.88201 79.906 6.88699 80.499 6.88899C81.981 6.91799 82.681 8.223 82.724 9.703C82.734 9.986 82.724 11.174 82.724 11.174H82.72C82.72 11.174 82.737 11.17 82.72 11.487Z" fill="#FF664A"/>
<path fill-rule="evenodd" clip-rule="evenodd" d="M40.4846 52.8015C41.2656 50.5515 42.7286 49.1455 45.1096 48.8695C48.0006 48.5435 50.5646 50.8695 50.6296 53.8185C50.6526 55.1635 50.6296 56.5055 50.7256 57.8815C50.7976 57.6935 50.8716 57.5105 50.9386 57.3155C51.7546 55.0225 54.0926 53.5895 56.4266 53.9615C58.8696 54.3445 60.6966 56.3505 60.7666 58.8005C60.8136 60.2985 60.7746 61.8065 60.8646 63.3205C60.9776 62.9595 61.0676 62.5865 61.2086 62.2295C62.0696 59.9995 64.3886 58.6415 66.6406 59.0465C69.1366 59.4985 70.9066 61.5065 70.9196 64.0155C70.9426 68.6385 70.9296 73.2635 70.9296 77.8865C70.9296 82.4535 70.9296 87.0285 70.9276 91.5965C70.9236 96.3035 67.6616 99.5595 62.9486 99.5595C53.3296 99.5705 43.7126 99.5545 34.0966 99.5705C32.7256 99.5705 31.8236 99.0325 31.2396 97.7635C26.0186 86.4905 20.7726 75.2265 15.5346 63.9585C14.3416 61.3955 16.0896 58.7535 18.9076 58.8435C20.7846 58.8995 22.2886 59.6525 23.2986 61.2485C23.8886 62.1835 24.3646 63.1885 24.9216 64.1485C25.7226 65.5425 26.5386 66.9225 27.3726 68.2995C27.7806 68.9805 28.3936 69.2915 29.1906 69.0725C29.9716 68.8545 30.3546 68.2695 30.3546 67.3165C30.3546 56.1175 30.3486 44.9115 30.3586 33.7115C30.3626 30.7105 32.7666 28.4065 35.6906 28.5535C38.4116 28.6965 40.4716 30.9225 40.4776 33.7835C40.4936 39.7525 40.4856 45.7235 40.4856 51.6905C40.4846 52.0635 40.4846 52.4325 40.4846 52.8015Z" fill="#FF664A"/>
</svg>
