<svg width="1848" height="914" viewBox="0 0 1848 914" fill="none" xmlns="http://www.w3.org/2000/svg">
<g opacity="0.5">
<path d="M164.493 133L216.517 223.109H112.468L164.493 133Z" fill="#06BAC5"/>
<path d="M112.283 222.952L164.307 313.061H60.2582L112.283 222.952Z" fill="#06BAC5"/>
<path d="M60.0726 133L112.097 223.109H8.0482L60.0726 133Z" fill="#06BAC5"/>
</g>
<g opacity="0.5">
<path d="M290.434 746L317.771 793.349H263.097L290.434 746Z" fill="#06BAC5"/>
<path d="M263 793.266L290.337 840.615H235.664L263 793.266Z" fill="#06BAC5"/>
<path d="M235.566 746L262.902 793.349H208.229L235.566 746Z" fill="#06BAC5"/>
</g>
<g opacity="0.5">
<path d="M820.336 83L843.215 122.626H797.458L820.336 83Z" fill="#06BAC5"/>
<path d="M797.377 122.557L820.256 162.183H774.499L797.377 122.557Z" fill="#06BAC5"/>
<path d="M774.417 83L797.296 122.626H751.539L774.417 83Z" fill="#06BAC5"/>
</g>
<g opacity="0.5">
<path d="M1760.16 0L1836.12 131.563H1684.21L1760.16 0Z" fill="#06BAC5"/>
<path d="M1683.94 131.333L1759.9 262.896H1607.98L1683.94 131.333Z" fill="#06BAC5"/>
<path d="M1607.71 0L1683.67 131.563H1531.75L1607.71 0Z" fill="#06BAC5"/>
</g>
<g opacity="0.5">
<path d="M1701.97 725L1748.77 806.061H1655.17L1701.97 725Z" fill="#06BAC5"/>
<path d="M1655.01 805.919L1701.81 886.98H1608.21L1655.01 805.919Z" fill="#06BAC5"/>
<path d="M1608.04 725L1654.84 806.061H1561.24L1608.04 725Z" fill="#06BAC5"/>
</g>
</svg>
