<svg width="360" height="1380" viewBox="0 0 360 1380" fill="none" xmlns="http://www.w3.org/2000/svg">
<mask id="mask0" mask-type="alpha" maskUnits="userSpaceOnUse" x="0" y="0" width="360" height="572">
<path d="M360 0H0V572H360V0Z" fill="#005072"/>
</mask>
<g mask="url(#mask0)">
<path opacity="0.2" fill-rule="evenodd" clip-rule="evenodd" d="M333.001 544.915C333.216 543.913 333.371 542.894 333.658 541.914C335.257 536.452 338.74 532.657 343.956 530.452C344.52 530.213 344.697 529.984 344.663 529.345C344.246 521.334 350.567 513.433 358.595 512.047C360.386 511.737 362.257 511.812 364.089 511.853C364.835 511.87 365.245 511.77 365.668 511.097C369.208 505.468 374.217 501.884 380.737 500.489C393.339 497.791 406.13 506.565 408.204 519.284C408.698 522.314 408.657 525.308 407.911 528.29C407.86 528.494 407.831 528.705 407.803 528.913C407.797 528.964 407.837 529.019 407.872 529.117C411.289 529.015 414.524 529.769 417.456 531.568C422.197 534.476 424.998 538.699 425.821 544.219C425.857 544.454 425.939 544.683 426 544.915C426 546.005 426 547.096 426 548.187C425.942 548.388 425.858 548.587 425.83 548.792C424.634 557.557 417.405 563.967 408.555 563.98C389.123 564.011 369.692 564.002 350.261 563.981C343.226 563.974 336.801 559.56 334.28 552.985C333.691 551.448 333.419 549.789 333 548.187C333.001 547.096 333.001 546.005 333.001 544.915ZM400.153 535.352C400.226 534.967 400.256 534.729 400.317 534.499C400.913 532.218 401.512 529.936 402.116 527.657C402.696 525.469 402.884 523.271 402.613 521.004C401.066 508.112 385.934 501.454 375.367 509.015C372.55 511.031 370.655 513.749 369.067 516.752C368.187 518.419 368.151 518.403 366.28 518.049C363.899 517.601 361.541 517.176 359.099 517.815C353.641 519.242 349.963 524.435 350.533 530.018C350.65 531.162 350.665 532.316 350.783 533.461C350.841 534.027 350.636 534.253 350.115 534.415C348.961 534.773 347.829 535.199 346.69 535.604C341.142 537.586 338.004 542.908 338.992 548.657C339.933 554.132 344.806 558.188 350.517 558.191C369.856 558.202 389.195 558.201 408.533 558.178C409.551 558.177 410.594 558.04 411.58 557.784C417.439 556.262 421.102 550.453 419.983 544.364C418.838 538.132 413.003 534.297 407.721 534.954C405.271 535.26 402.779 535.226 400.153 535.352Z" fill="#231F20"/>
<path fill-rule="evenodd" clip-rule="evenodd" d="M21 45.5988C20.7756 46.451 20.6289 47.3317 20.3122 48.1486C18.9572 51.6412 15.5028 53.986 11.72 53.9904C1.27334 54.0014 -9.17333 54.0053 -19.6205 53.9893C-24.3789 53.9827 -28.265 50.5781 -28.9083 45.9208C-28.9233 45.8115 -28.9683 45.706 -29 45.5988C-29 45.0192 -29 44.4401 -29 43.8605C-28.9672 43.7369 -28.9228 43.616 -28.9039 43.4913C-28.4611 40.5586 -26.955 38.3148 -24.4067 36.771C-22.8294 35.815 -21.0911 35.4134 -19.2539 35.4684C-19.235 35.4167 -19.2133 35.3871 -19.2172 35.3601C-19.2322 35.2497 -19.2478 35.1382 -19.275 35.0294C-19.6756 33.4455 -19.6978 31.8544 -19.4322 30.2446C-18.3178 23.4875 -11.4405 18.8264 -4.66499 20.2598C-1.15999 21.0015 1.53334 22.9046 3.43612 25.8955C3.66334 26.2527 3.88445 26.3065 4.28556 26.2966C5.27 26.2752 6.27611 26.2356 7.23945 26.3999C11.5556 27.1361 14.9539 31.3335 14.7295 35.5898C14.7117 35.9288 14.8067 36.0513 15.11 36.1776C17.9145 37.3495 19.7861 39.3648 20.6461 42.2662C20.8006 42.7875 20.8839 43.3287 21 43.8605C21 44.4396 21 45.0192 21 45.5988ZM-19.1722 38.5692C-22.0117 38.2214 -25.1489 40.2581 -25.765 43.5688C-26.3667 46.8031 -24.3972 49.8902 -21.2467 50.6984C-20.7172 50.8346 -20.1561 50.9077 -19.6089 50.9077C-9.21222 50.9204 1.18556 50.9204 11.5828 50.9154C14.6533 50.9132 17.2733 48.7585 17.7794 45.8505C18.3106 42.7952 16.6233 39.9691 13.64 38.9153C13.0283 38.6994 12.4195 38.4742 11.7995 38.2846C11.5195 38.1978 11.4083 38.0775 11.44 37.777C11.5039 37.1699 11.5117 36.5556 11.575 35.9485C11.8811 32.9829 9.9039 30.2237 6.96945 29.465C5.65667 29.126 4.3889 29.3502 3.10834 29.5898C2.10223 29.7777 2.08333 29.7859 1.60945 28.9008C0.756113 27.3053 -0.263328 25.8609 -1.77722 24.7901C-7.45888 20.7724 -15.5939 24.3105 -16.4256 31.1599C-16.5717 32.3637 -16.4705 33.5312 -16.1589 34.6937C-15.8339 35.9051 -15.5122 37.1166 -15.1917 38.3291C-15.1589 38.4505 -15.1428 38.5769 -15.1033 38.7818C-16.515 38.7126 -17.855 38.7313 -19.1722 38.5692Z" fill="#0081AB"/>
<path opacity="0.2" fill-rule="evenodd" clip-rule="evenodd" d="M-20.5078 516.216C-20.2989 515.261 -20.1484 514.29 -19.8711 513.355C-18.3235 508.149 -14.9539 504.533 -9.90615 502.431C-9.35981 502.204 -9.18945 501.985 -9.22142 501.375C-9.62553 493.74 -3.50821 486.209 4.26138 484.889C5.99524 484.594 7.80573 484.664 9.57874 484.705C10.3004 484.72 10.6979 484.625 11.107 483.984C14.5317 478.618 19.3794 475.202 25.6885 473.872C37.8851 471.302 50.2642 479.663 52.2704 491.786C52.7484 494.674 52.7082 497.528 51.9871 500.37C51.9374 500.564 51.9093 500.765 51.8823 500.964C51.8762 501.012 51.9148 501.065 51.949 501.158C55.2563 501.06 58.3855 501.779 61.2242 503.494C65.8117 506.266 68.5224 510.292 69.3196 515.552C69.3538 515.776 69.4343 515.994 69.4922 516.215C69.4922 517.254 69.4922 518.294 69.4922 519.334C69.436 519.525 69.3544 519.715 69.3273 519.91C68.1701 528.266 61.1746 534.374 52.61 534.388C33.8055 534.416 15.0009 534.408 -3.80371 534.388C-10.6124 534.38 -16.8295 530.174 -19.2696 523.907C-19.8396 522.442 -20.1037 520.862 -20.5078 519.334C-20.5078 518.295 -20.5078 517.256 -20.5078 516.216ZM44.4782 507.101C44.5488 506.734 44.5791 506.508 44.6376 506.289C45.2148 504.114 45.7942 501.94 46.3791 499.767C46.9398 497.683 47.1229 495.587 46.8599 493.427C45.3631 481.14 30.7192 474.792 20.4919 482C17.7673 483.921 15.9326 486.512 14.3966 489.375C13.5443 490.963 13.5096 490.947 11.6985 490.611C9.39461 490.183 7.11219 489.779 4.74928 490.388C-0.532805 491.748 -4.0915 496.698 -3.54075 502.02C-3.42718 503.11 -3.41339 504.21 -3.29817 505.301C-3.24193 505.84 -3.44096 506.056 -3.94596 506.21C-5.06181 506.552 -6.15836 506.957 -7.25932 507.344C-12.6296 509.233 -15.6657 514.305 -14.7097 519.786C-13.7995 525.004 -9.08305 528.869 -3.55673 528.872C15.1585 528.883 33.8738 528.882 52.5891 528.86C53.5732 528.859 54.5837 528.728 55.5369 528.485C61.2077 527.034 64.7526 521.497 63.6698 515.693C62.5617 509.754 56.9146 506.099 51.8035 506.725C49.4312 507.014 47.0198 506.981 44.4782 507.101Z" fill="#231F20"/>
<path fill-rule="evenodd" clip-rule="evenodd" d="M-38.3693 561.093C-49.9808 561.093 -61.5895 561.086 -73.2009 561.066C-85.4047 561.047 -95.4645 551.845 -97.1195 539.186C-97.126 539.14 -97.1678 539.007 -97.1991 538.91C-97.2321 538.807 -97.264 538.704 -97.2931 538.6L-97.3535 538.383V533.55L-97.3041 533.353C-97.2755 533.239 -97.2436 533.125 -97.2118 533.011C-97.1662 532.847 -97.1222 532.691 -97.1068 532.583C-95.9788 524.694 -92.0975 518.576 -85.5717 514.399C-82.1602 512.216 -78.3306 511.024 -74.174 510.85C-74.9619 507.063 -75.0267 503.175 -74.374 498.996C-71.9378 483.403 -58.5659 471.645 -43.2687 471.645C-41.1479 471.645 -39.022 471.879 -36.9501 472.342C-28.1853 474.299 -21.2908 479.359 -16.4579 487.381C-16.3887 487.497 -16.3392 487.558 -16.3134 487.587C-16.2722 487.594 -16.1826 487.604 -16.0107 487.604L-15.331 487.588C-14.5392 487.569 -13.7425 487.549 -12.948 487.549C-11.1387 487.549 -9.75136 487.653 -8.44972 487.888C2.58262 489.875 11.4205 501.277 10.8809 512.809C18.0957 516.013 22.8512 521.55 25.0165 529.267C25.2902 530.241 25.4737 531.222 25.6511 532.17C25.7297 532.588 25.8072 533.005 25.8929 533.419L25.927 533.584V538.361L25.8775 538.557C25.7116 539.221 25.5643 539.892 25.4165 540.564C25.0814 542.087 24.7341 543.662 24.1748 545.185C20.6874 554.673 11.7809 561.055 2.0112 561.067C-11.447 561.083 -24.91 561.093 -38.3693 561.093ZM-73.6504 521.897C-78.8185 521.897 -85.0151 525.893 -86.3201 533.3C-87.6206 540.686 -83.4717 547.647 -76.669 549.49C-75.5328 549.798 -74.3218 549.961 -73.1674 549.963C-58.1016 549.981 -43.033 549.989 -27.9666 549.989C-18.0837 549.989 -8.20247 549.986 1.68043 549.98C8.26225 549.976 13.8325 545.159 14.9248 538.526C16.0792 531.51 12.5095 525.177 6.04248 522.766L5.09633 522.411C3.97986 521.991 2.82547 521.556 1.69252 521.189C-0.143736 520.594 -0.405825 519.222 -0.301979 518.175C-0.227804 517.433 -0.187148 516.693 -0.143742 515.909C-0.100885 515.138 -0.0569275 514.34 0.0210939 513.542C0.671639 506.884 -3.56129 500.573 -9.82444 498.864C-10.7607 498.609 -11.7382 498.484 -12.8129 498.484C-14.67 498.484 -16.6184 498.868 -18.3376 499.206C-19.204 499.377 -19.8035 499.495 -20.359 499.495C-22.2502 499.495 -22.9326 498.148 -23.7227 496.588C-26.0507 491.992 -28.4078 488.957 -31.3649 486.748C-34.8358 484.157 -38.9034 482.788 -43.1281 482.788C-53.7236 482.788 -62.6521 490.942 -63.8955 501.755C-64.2142 504.534 -64.0175 507.269 -63.2944 510.116C-62.5147 513.187 -61.7417 516.26 -60.9713 519.332C-60.9109 519.574 -60.867 519.821 -60.8137 520.138C-60.7917 520.27 -60.767 520.417 -60.7362 520.587L-60.3653 522.63L-62.4395 522.526C-63.4983 522.473 -64.5395 522.441 -65.5675 522.41C-67.8927 522.339 -70.0894 522.271 -72.3334 521.98C-72.7647 521.925 -73.2081 521.897 -73.6504 521.897Z" fill="#0081AB"/>
<path d="M-43.2669 473.295C-41.2938 473.295 -39.2988 473.508 -37.307 473.953C-28.895 475.831 -22.4329 480.657 -17.867 488.234C-17.3561 489.081 -16.8588 489.254 -16.0088 489.254C-15.9506 489.254 -15.8907 489.253 -15.8291 489.252C-14.8726 489.228 -13.9083 489.199 -12.9456 489.199C-11.5286 489.199 -10.1165 489.264 -8.73963 489.512C1.618 491.377 9.77343 502.012 9.23443 512.796C9.19157 513.657 9.41904 513.966 10.1476 514.287C16.8767 517.255 21.3695 522.363 23.4327 529.715C23.803 531.035 24.0036 532.407 24.2816 533.756C24.2816 535.224 24.2816 536.692 24.2816 538.161C23.7426 540.318 23.3904 542.551 22.6305 544.619C19.3778 553.47 11.0888 559.411 2.0114 559.422C-11.4473 559.437 -24.9104 559.447 -38.3696 559.447C-49.9805 559.447 -61.5865 559.44 -73.1974 559.42C-84.616 559.402 -93.9418 550.775 -95.4852 538.974C-95.5215 538.698 -95.6297 538.431 -95.705 538.16C-95.705 536.692 -95.705 535.224 -95.705 533.755C-95.6269 533.444 -95.5204 533.136 -95.4747 532.819C-94.4121 525.389 -90.7984 519.704 -84.6825 515.789C-81.1226 513.511 -77.2188 512.477 -73.0985 512.477C-72.8386 512.477 -72.5788 512.481 -72.3172 512.489C-72.2722 512.357 -72.22 512.283 -72.2282 512.215C-72.2645 511.934 -72.3018 511.65 -72.3678 511.376C-73.3293 507.362 -73.3826 503.332 -72.7452 499.253C-70.3974 484.229 -57.4019 473.295 -43.2669 473.295ZM-62.3563 520.883C-65.7447 520.712 -68.9601 520.758 -72.1211 520.348C-72.6271 520.283 -73.1386 520.25 -73.6496 520.25C-80.0216 520.25 -86.5737 525.25 -87.9418 533.015C-89.3852 541.211 -84.6589 549.032 -77.099 551.081C-75.8282 551.425 -74.4809 551.609 -73.1689 551.612C-58.1036 551.63 -43.0366 551.637 -27.9708 551.637C-18.0863 551.637 -8.20226 551.634 1.68284 551.629C9.05092 551.624 15.3382 546.164 16.552 538.796C17.8256 531.056 13.7789 523.892 6.61906 521.224C5.15149 520.677 3.68942 520.106 2.20151 519.623C1.52844 519.406 1.26306 519.101 1.33833 518.339C1.49163 516.799 1.51031 515.244 1.66141 513.705C2.39547 506.189 -2.34846 499.198 -9.39017 497.277C-10.5435 496.962 -11.6819 496.839 -12.8127 496.839C-14.772 496.839 -16.7077 497.209 -18.6555 497.592C-19.4275 497.744 -19.9577 497.85 -20.3588 497.85C-21.211 497.85 -21.4802 497.372 -22.2527 495.847C-24.3005 491.804 -26.7461 488.144 -30.379 485.431C-34.3246 482.485 -38.7636 481.143 -43.1278 481.143C-53.8454 481.142 -64.1134 489.237 -65.5321 501.57C-65.8821 504.621 -65.6387 507.581 -64.8909 510.524C-64.1112 513.593 -63.3387 516.664 -62.5689 519.735C-62.4909 520.044 -62.4508 520.363 -62.3563 520.883ZM-43.2669 470C-50.9624 470 -58.5343 472.896 -64.587 478.153C-70.7018 483.464 -74.7551 490.777 -76.0002 498.745C-76.5793 502.454 -76.6183 505.949 -76.1128 509.352C-79.8468 509.777 -83.316 511.004 -86.4583 513.015C-93.4006 517.458 -97.5302 523.958 -98.7335 532.334C-98.744 532.381 -98.7742 532.489 -98.7967 532.568C-98.833 532.697 -98.8687 532.826 -98.9011 532.956L-99 533.35V533.756V538.161V538.611L-98.8797 539.044C-98.8456 539.167 -98.8077 539.289 -98.7687 539.411C-98.7588 539.441 -98.7489 539.472 -98.7396 539.502C-96.9363 552.938 -86.2122 562.694 -73.2035 562.715C-62.2261 562.733 -50.8327 562.742 -38.3707 562.742C-26.3082 562.742 -13.4759 562.734 2.0136 562.717C12.4701 562.705 21.9975 555.889 25.7211 545.756C26.3189 544.128 26.6783 542.498 27.0255 540.921C27.1755 540.239 27.3178 539.593 27.4761 538.96L27.5744 538.567V538.161V533.756V533.419L27.5063 533.09C27.4228 532.685 27.3464 532.278 27.2706 531.871C27.0865 530.887 26.8958 529.87 26.603 528.826C24.4003 520.976 19.6761 515.245 12.5525 511.773C12.5492 506.144 10.58 500.522 6.94214 495.799C3.01414 490.7 -2.34846 487.316 -8.15721 486.27C-9.97314 485.942 -11.761 485.904 -12.9473 485.904C-13.7704 485.904 -14.5846 485.925 -15.3725 485.945L-15.4072 485.945C-20.461 477.864 -27.5851 472.748 -36.59 470.737C-38.779 470.248 -41.0257 470 -43.2669 470ZM-58.3734 524.382L-59.1146 520.295C-59.1437 520.134 -59.1673 519.993 -59.1887 519.867C-59.2409 519.557 -59.2904 519.263 -59.3728 518.933C-60.1431 515.86 -60.9167 512.785 -61.697 509.713C-62.37 507.063 -62.5535 504.522 -62.2579 501.945C-61.1101 491.964 -52.8855 484.437 -43.1273 484.437C-39.2603 484.437 -35.5334 485.694 -32.3493 488.071C-29.6065 490.119 -27.3988 492.976 -25.1912 497.335C-24.3318 499.032 -23.2615 501.145 -20.3582 501.145C-19.6423 501.145 -18.9418 501.007 -18.0549 500.832L-18.0181 500.825C-16.3736 500.501 -14.5088 500.134 -12.8127 500.134C-11.8858 500.134 -11.05 500.239 -10.2572 500.456C-4.75888 501.956 -1.04407 507.515 -1.61769 513.385C-1.69901 514.216 -1.74407 515.032 -1.78802 515.82C-1.83033 516.585 -1.86989 517.308 -1.94022 518.012C-2.1644 520.279 -0.995173 522.052 1.18723 522.758C2.28173 523.113 3.36744 523.522 4.51633 523.955C4.83391 524.074 5.15094 524.194 5.46852 524.312C11.1762 526.439 14.324 532.045 13.3009 538.262C12.3399 544.095 7.45257 548.331 1.68118 548.335C-8.20282 548.34 -18.0863 548.343 -27.9703 548.343C-44.0746 548.343 -58.8574 548.335 -73.1639 548.318C-74.1749 548.317 -75.2381 548.173 -76.237 547.902C-82.2111 546.283 -85.8479 540.129 -84.6957 533.587C-83.5468 527.066 -78.1468 523.546 -73.6485 523.546C-73.2765 523.546 -72.9046 523.57 -72.5436 523.617C-70.22 523.918 -67.8799 523.99 -65.6167 524.06C-64.6046 524.09 -63.5579 524.122 -62.5211 524.174L-58.3734 524.382Z" fill="#005072"/>
<path fill-rule="evenodd" clip-rule="evenodd" d="M250 113.338C250.452 111.257 250.778 109.139 251.379 107.101C254.733 95.751 262.034 87.8655 272.97 83.2834C274.154 82.7877 274.524 82.3111 274.454 80.9812C273.579 64.3334 286.833 47.9143 303.666 45.035C307.423 44.3924 311.346 44.5464 315.186 44.6337C316.751 44.6692 317.612 44.4596 318.499 43.0631C325.92 31.3642 336.423 23.9154 350.093 21.0154C376.518 15.4108 403.338 33.6424 407.686 60.0734C408.721 66.3708 408.635 72.594 407.072 78.7898C406.965 79.214 406.904 79.6513 406.845 80.0864C406.832 80.1896 406.916 80.3053 406.99 80.5084C414.156 80.296 420.937 81.8629 427.087 85.6026C437.027 91.6456 442.9 100.423 444.626 111.893C444.7 112.382 444.873 112.856 445 113.338C445 115.605 445 117.871 445 120.138C444.878 120.556 444.702 120.968 444.643 121.395C442.135 139.613 426.979 152.931 408.422 152.959C367.679 153.022 326.936 153.004 286.193 152.961C271.441 152.945 257.97 143.772 252.685 130.109C251.449 126.915 250.878 123.468 250.001 120.138C250 117.872 250 115.605 250 113.338ZM390.803 93.4652C390.956 92.6637 391.021 92.1708 391.147 91.6936C392.398 86.9521 393.654 82.2112 394.92 77.4741C396.135 72.9292 396.532 68.3608 395.961 63.6499C392.717 36.8601 360.99 23.0222 338.832 38.736C332.927 42.9239 328.952 48.5738 325.625 54.8149C323.779 58.2784 323.703 58.2445 319.779 57.5108C314.787 56.5767 309.843 55.6966 304.724 57.0233C293.279 59.9904 285.567 70.7831 286.761 82.3848C287.006 84.7624 287.037 87.1612 287.285 89.5382C287.408 90.7142 286.977 91.1853 285.883 91.5216C283.465 92.2657 281.09 93.1485 278.704 93.9931C267.069 98.1117 260.49 109.171 262.562 121.12C264.534 132.495 274.753 140.925 286.727 140.932C327.276 140.954 367.825 140.953 408.374 140.906C410.507 140.902 412.697 140.618 414.761 140.087C427.047 136.924 434.728 124.85 432.382 112.196C429.982 99.2456 417.746 91.2787 406.672 92.6419C401.534 93.2741 396.308 93.2026 390.803 93.4652Z" fill="#0081AB" stroke="#005072" stroke-width="5.6645" stroke-miterlimit="10"/>
<path fill-rule="evenodd" clip-rule="evenodd" d="M310.001 359.229C310.056 358.978 310.096 358.723 310.17 358.478C310.583 357.113 311.482 356.164 312.828 355.613C312.974 355.554 313.019 355.496 313.01 355.336C312.903 353.333 314.534 351.358 316.606 351.012C317.068 350.934 317.551 350.953 318.024 350.964C318.216 350.968 318.322 350.942 318.431 350.774C319.345 349.367 320.638 348.471 322.319 348.122C325.572 347.448 328.873 349.641 329.408 352.821C329.535 353.579 329.524 354.327 329.332 355.072C329.319 355.123 329.311 355.176 329.304 355.228C329.303 355.24 329.313 355.254 329.322 355.279C330.204 355.253 331.038 355.443 331.795 355.893C333.018 356.619 333.742 357.675 333.954 359.055C333.963 359.114 333.984 359.171 334 359.229C334 359.501 334 359.774 334 360.047C333.985 360.097 333.963 360.147 333.956 360.198C333.647 362.389 331.782 363.992 329.498 363.995C324.484 364.003 319.469 364.001 314.455 363.995C312.639 363.993 310.981 362.89 310.33 361.247C310.178 360.863 310.108 360.448 310 360.047C310.001 359.774 310.001 359.501 310.001 359.229ZM327.331 356.838C327.349 356.742 327.357 356.683 327.372 356.624C327.527 356.054 327.681 355.484 327.837 354.914C327.987 354.368 328.035 353.818 327.965 353.251C327.566 350.029 323.661 348.364 320.934 350.254C320.207 350.758 319.719 351.438 319.309 352.189C319.081 352.605 319.072 352.601 318.589 352.513C317.974 352.4 317.366 352.295 316.735 352.455C315.327 352.811 314.378 354.109 314.525 355.506C314.555 355.791 314.559 356.08 314.589 356.366C314.605 356.508 314.552 356.564 314.417 356.605C314.119 356.694 313.826 356.8 313.533 356.902C312.101 357.397 311.291 358.728 311.546 360.165C311.789 361.533 313.046 362.548 314.52 362.548C319.511 362.551 324.501 362.551 329.492 362.545C329.755 362.545 330.024 362.51 330.279 362.446C331.79 362.066 332.736 360.612 332.447 359.092C332.151 357.533 330.645 356.575 329.283 356.739C328.651 356.815 328.008 356.807 327.331 356.838Z" fill="#0081AB"/>
<path fill-rule="evenodd" clip-rule="evenodd" d="M125.999 48.2291C125.944 47.9783 125.904 47.7232 125.83 47.4778C125.417 46.1129 124.518 45.1644 123.172 44.613C123.026 44.554 122.981 44.4955 122.99 44.3357C123.097 42.3332 121.466 40.3578 119.394 40.0123C118.932 39.9337 118.449 39.9532 117.976 39.9635C117.784 39.9678 117.678 39.9424 117.569 39.7739C116.655 38.3667 115.362 37.4708 113.681 37.122C110.428 36.4482 107.127 38.6413 106.592 41.8214C106.465 42.5786 106.476 43.3266 106.668 44.0725C106.681 44.1234 106.689 44.1759 106.696 44.2279C106.697 44.2404 106.687 44.2544 106.678 44.2788C105.796 44.2534 104.962 44.4429 104.205 44.8925C102.982 45.6194 102.258 46.6751 102.046 48.0547C102.037 48.1137 102.016 48.1711 102 48.2291C102 48.501 102 48.774 102 49.047C102.015 49.0968 102.037 49.1467 102.044 49.1981C102.353 51.3891 104.218 52.9918 106.502 52.9951C111.516 53.0027 116.531 53.0005 121.545 52.9951C123.361 52.9929 125.019 51.8896 125.67 50.2467C125.822 49.8627 125.892 49.4478 126 49.047C125.999 48.774 125.999 48.501 125.999 48.2291ZM108.669 45.8383C108.651 45.7418 108.643 45.6828 108.628 45.6243C108.473 45.0539 108.319 44.4841 108.163 43.9138C108.013 43.3678 107.965 42.818 108.035 42.2509C108.434 39.0286 112.339 37.3636 115.066 39.2539C115.793 39.7577 116.281 40.438 116.691 41.1887C116.919 41.6047 116.928 41.6014 117.411 41.5126C118.026 41.4005 118.634 41.2949 119.265 41.4547C120.673 41.8111 121.622 43.1094 121.475 44.5058C121.445 44.7912 121.441 45.0805 121.411 45.3659C121.395 45.5078 121.448 45.5636 121.583 45.6048C121.881 45.6936 122.174 45.8003 122.467 45.9022C123.899 46.3972 124.709 47.7281 124.454 49.1645C124.211 50.5333 122.954 51.5478 121.48 51.5478C116.489 51.5511 111.499 51.551 106.508 51.5445C106.245 51.5445 105.976 51.5104 105.721 51.4459C104.21 51.0662 103.264 49.6125 103.553 48.0915C103.849 46.5332 105.355 45.575 106.717 45.7386C107.349 45.8149 107.992 45.8068 108.669 45.8383Z" fill="#0081AB"/>
</g>
<mask id="mask1" mask-type="alpha" maskUnits="userSpaceOnUse" x="0" y="836" width="360" height="544">
<path d="M360 836H0V1380H360V836Z" fill="#005072"/>
</mask>
<g mask="url(#mask1)">
<path opacity="0.2" fill-rule="evenodd" clip-rule="evenodd" d="M292.001 1380.91C292.216 1379.91 292.371 1378.89 292.658 1377.91C294.257 1372.45 297.74 1368.66 302.956 1366.45C303.52 1366.21 303.697 1365.98 303.663 1365.34C303.246 1357.33 309.567 1349.43 317.595 1348.05C319.386 1347.74 321.257 1347.81 323.089 1347.85C323.835 1347.87 324.245 1347.77 324.668 1347.1C328.208 1341.47 333.217 1337.88 339.737 1336.49C352.339 1333.79 365.13 1342.56 367.204 1355.28C367.698 1358.31 367.657 1361.31 366.911 1364.29C366.86 1364.49 366.831 1364.7 366.803 1364.91C366.797 1364.96 366.837 1365.02 366.872 1365.12C370.289 1365.01 373.524 1365.77 376.456 1367.57C381.197 1370.48 383.998 1374.7 384.821 1380.22C384.857 1380.45 384.939 1380.68 385 1380.91C385 1382 385 1383.1 385 1384.19C384.942 1384.39 384.858 1384.59 384.83 1384.79C383.634 1393.56 376.405 1399.97 367.555 1399.98C348.123 1400.01 328.692 1400 309.261 1399.98C302.226 1399.97 295.801 1395.56 293.28 1388.99C292.691 1387.45 292.419 1385.79 292 1384.19C292.001 1383.1 292.001 1382 292.001 1380.91ZM359.153 1371.35C359.226 1370.97 359.256 1370.73 359.317 1370.5C359.913 1368.22 360.512 1365.94 361.116 1363.66C361.696 1361.47 361.884 1359.27 361.613 1357C360.066 1344.11 344.934 1337.45 334.367 1345.02C331.55 1347.03 329.655 1349.75 328.067 1352.75C327.187 1354.42 327.151 1354.4 325.28 1354.05C322.899 1353.6 320.541 1353.18 318.099 1353.82C312.641 1355.24 308.963 1360.44 309.533 1366.02C309.65 1367.16 309.665 1368.32 309.783 1369.46C309.841 1370.03 309.636 1370.25 309.115 1370.41C307.961 1370.77 306.829 1371.2 305.69 1371.6C300.142 1373.59 297.004 1378.91 297.992 1384.66C298.933 1390.13 303.806 1394.19 309.517 1394.19C328.856 1394.2 348.195 1394.2 367.533 1394.18C368.551 1394.18 369.594 1394.04 370.58 1393.78C376.439 1392.26 380.102 1386.45 378.983 1380.36C377.838 1374.13 372.003 1370.3 366.721 1370.95C364.271 1371.26 361.779 1371.23 359.153 1371.35Z" fill="#231F20"/>
<path fill-rule="evenodd" clip-rule="evenodd" d="M21 881.599C20.7756 882.451 20.6289 883.332 20.3122 884.149C18.9572 887.641 15.5028 889.986 11.72 889.99C1.27334 890.001 -9.17333 890.005 -19.6205 889.989C-24.3789 889.983 -28.265 886.578 -28.9083 881.921C-28.9233 881.811 -28.9683 881.706 -29 881.599C-29 881.019 -29 880.44 -29 879.861C-28.9672 879.737 -28.9228 879.616 -28.9039 879.491C-28.4611 876.559 -26.955 874.315 -24.4067 872.771C-22.8294 871.815 -21.0911 871.413 -19.2539 871.468C-19.235 871.417 -19.2133 871.387 -19.2172 871.36C-19.2322 871.25 -19.2478 871.138 -19.275 871.029C-19.6756 869.445 -19.6978 867.854 -19.4322 866.245C-18.3178 859.487 -11.4405 854.826 -4.66499 856.26C-1.15999 857.001 1.53334 858.905 3.43612 861.896C3.66334 862.253 3.88445 862.307 4.28556 862.297C5.27 862.275 6.27611 862.236 7.23945 862.4C11.5556 863.136 14.9539 867.334 14.7295 871.59C14.7117 871.929 14.8067 872.051 15.11 872.178C17.9145 873.35 19.7861 875.365 20.6461 878.266C20.8006 878.788 20.8839 879.329 21 879.861C21 880.44 21 881.019 21 881.599ZM-19.1722 874.569C-22.0117 874.221 -25.1489 876.258 -25.765 879.569C-26.3667 882.803 -24.3972 885.89 -21.2467 886.698C-20.7172 886.835 -20.1561 886.908 -19.6089 886.908C-9.21222 886.92 1.18556 886.92 11.5828 886.915C14.6533 886.913 17.2733 884.758 17.7794 881.85C18.3106 878.795 16.6233 875.969 13.64 874.915C13.0283 874.699 12.4195 874.474 11.7995 874.285C11.5195 874.198 11.4083 874.077 11.44 873.777C11.5039 873.17 11.5117 872.556 11.575 871.949C11.8811 868.983 9.9039 866.224 6.96945 865.465C5.65667 865.126 4.3889 865.35 3.10834 865.59C2.10223 865.778 2.08333 865.786 1.60945 864.901C0.756113 863.305 -0.263328 861.861 -1.77722 860.79C-7.45888 856.772 -15.5939 860.311 -16.4256 867.16C-16.5717 868.364 -16.4705 869.531 -16.1589 870.694C-15.8339 871.905 -15.5122 873.117 -15.1917 874.329C-15.1589 874.451 -15.1428 874.577 -15.1033 874.782C-16.515 874.713 -17.855 874.731 -19.1722 874.569Z" fill="#0081AB"/>
<path opacity="0.2" fill-rule="evenodd" clip-rule="evenodd" d="M36.4922 1352.22C36.7011 1351.26 36.8516 1350.29 37.1289 1349.35C38.6765 1344.15 42.0461 1340.53 47.0938 1338.43C47.6402 1338.2 47.8106 1337.98 47.7786 1337.38C47.3745 1329.74 53.4918 1322.21 61.2614 1320.89C62.9952 1320.59 64.8057 1320.66 66.5787 1320.7C67.3004 1320.72 67.6979 1320.62 68.107 1319.98C71.5317 1314.62 76.3794 1311.2 82.6885 1309.87C94.8851 1307.3 107.264 1315.66 109.27 1327.79C109.748 1330.67 109.708 1333.53 108.987 1336.37C108.937 1336.56 108.909 1336.77 108.882 1336.96C108.876 1337.01 108.915 1337.06 108.949 1337.16C112.256 1337.06 115.386 1337.78 118.224 1339.49C122.812 1342.27 125.522 1346.29 126.32 1351.55C126.354 1351.78 126.434 1351.99 126.492 1352.21C126.492 1353.25 126.492 1354.29 126.492 1355.33C126.436 1355.53 126.354 1355.71 126.327 1355.91C125.17 1364.27 118.175 1370.37 109.61 1370.39C90.8055 1370.42 72.0009 1370.41 53.1963 1370.39C46.3876 1370.38 40.1705 1366.17 37.7304 1359.91C37.1604 1358.44 36.8963 1356.86 36.4922 1355.33C36.4922 1354.3 36.4922 1353.26 36.4922 1352.22ZM101.478 1343.1C101.549 1342.73 101.579 1342.51 101.638 1342.29C102.215 1340.11 102.794 1337.94 103.379 1335.77C103.94 1333.68 104.123 1331.59 103.86 1329.43C102.363 1317.14 87.7192 1310.79 77.4919 1318C74.7673 1319.92 72.9326 1322.51 71.3966 1325.37C70.5443 1326.96 70.5096 1326.95 68.6985 1326.61C66.3946 1326.18 64.1122 1325.78 61.7493 1326.39C56.4672 1327.75 52.9085 1332.7 53.4593 1338.02C53.5728 1339.11 53.5866 1340.21 53.7018 1341.3C53.7581 1341.84 53.559 1342.06 53.054 1342.21C51.9382 1342.55 50.8416 1342.96 49.7407 1343.34C44.3704 1345.23 41.3343 1350.31 42.2903 1355.79C43.2005 1361 47.917 1364.87 53.4433 1364.87C72.1585 1364.88 90.8738 1364.88 109.589 1364.86C110.573 1364.86 111.584 1364.73 112.537 1364.49C118.208 1363.03 121.753 1357.5 120.67 1351.69C119.562 1345.75 113.915 1342.1 108.803 1342.72C106.431 1343.01 104.02 1342.98 101.478 1343.1Z" fill="#231F20"/>
<path fill-rule="evenodd" clip-rule="evenodd" d="M18.6307 1397.09C7.01924 1397.09 -4.58947 1397.09 -16.2009 1397.07C-28.4047 1397.05 -38.4645 1387.85 -40.1195 1375.19C-40.126 1375.14 -40.1678 1375.01 -40.1991 1374.91C-40.2321 1374.81 -40.264 1374.7 -40.2931 1374.6L-40.3535 1374.38V1369.55L-40.3041 1369.35C-40.2755 1369.24 -40.2436 1369.12 -40.2118 1369.01C-40.1662 1368.85 -40.1222 1368.69 -40.1068 1368.58C-38.9788 1360.69 -35.0975 1354.58 -28.5717 1350.4C-25.1602 1348.22 -21.3306 1347.02 -17.174 1346.85C-17.9619 1343.06 -18.0267 1339.18 -17.374 1335C-14.9378 1319.4 -1.56587 1307.64 13.7313 1307.64C15.8521 1307.64 17.978 1307.88 20.0499 1308.34C28.8147 1310.3 35.7092 1315.36 40.5421 1323.38C40.6113 1323.5 40.6608 1323.56 40.6866 1323.59C40.7278 1323.59 40.8174 1323.6 40.9893 1323.6L41.669 1323.59C42.4608 1323.57 43.2575 1323.55 44.052 1323.55C45.8613 1323.55 47.2486 1323.65 48.5503 1323.89C59.5826 1325.87 68.4205 1337.28 67.8809 1348.81C75.0957 1352.01 79.8512 1357.55 82.0165 1365.27C82.2902 1366.24 82.4737 1367.22 82.6511 1368.17C82.7297 1368.59 82.8072 1369 82.8929 1369.42L82.927 1369.58V1374.36L82.8775 1374.56C82.7116 1375.22 82.5643 1375.89 82.4165 1376.56C82.0814 1378.09 81.7341 1379.66 81.1748 1381.18C77.6874 1390.67 68.7809 1397.06 59.0112 1397.07C45.553 1397.08 32.09 1397.09 18.6307 1397.09ZM-16.6504 1357.9C-21.8185 1357.9 -28.0151 1361.89 -29.3201 1369.3C-30.6206 1376.69 -26.4717 1383.65 -19.669 1385.49C-18.5328 1385.8 -17.3218 1385.96 -16.1674 1385.96C-1.10158 1385.98 13.967 1385.99 29.0334 1385.99C38.9163 1385.99 48.7975 1385.99 58.6804 1385.98C65.2622 1385.98 70.8325 1381.16 71.9248 1374.53C73.0792 1367.51 69.5095 1361.18 63.0425 1358.77L62.0963 1358.41C60.9799 1357.99 59.8255 1357.56 58.6925 1357.19C56.8563 1356.59 56.5942 1355.22 56.698 1354.17C56.7722 1353.43 56.8129 1352.69 56.8563 1351.91C56.8991 1351.14 56.9431 1350.34 57.0211 1349.54C57.6716 1342.88 53.4387 1336.57 47.1756 1334.86C46.2393 1334.61 45.2618 1334.48 44.1871 1334.48C42.33 1334.48 40.3816 1334.87 38.6624 1335.21C37.796 1335.38 37.1965 1335.5 36.641 1335.5C34.7498 1335.5 34.0674 1334.15 33.2773 1332.59C30.9493 1327.99 28.5922 1324.96 25.6351 1322.75C22.1642 1320.16 18.0966 1318.79 13.8719 1318.79C3.2764 1318.79 -5.6521 1326.94 -6.8955 1337.76C-7.21418 1340.53 -7.01748 1343.27 -6.29441 1346.12C-5.51474 1349.19 -4.74167 1352.26 -3.97134 1355.33C-3.9109 1355.57 -3.86695 1355.82 -3.81365 1356.14C-3.79168 1356.27 -3.76695 1356.42 -3.73618 1356.59L-3.3653 1358.63L-5.43947 1358.53C-6.49825 1358.47 -7.53945 1358.44 -8.56747 1358.41C-10.8927 1358.34 -13.0894 1358.27 -15.3334 1357.98C-15.7647 1357.92 -16.2081 1357.9 -16.6504 1357.9Z" fill="#0081AB"/>
<path d="M13.7331 1309.3C15.7062 1309.3 17.7012 1309.51 19.693 1309.95C28.105 1311.83 34.5671 1316.66 39.133 1324.23C39.6439 1325.08 40.1412 1325.25 40.9912 1325.25C41.0494 1325.25 41.1093 1325.25 41.1709 1325.25C42.1274 1325.23 43.0917 1325.2 44.0544 1325.2C45.4714 1325.2 46.8835 1325.26 48.2604 1325.51C58.618 1327.38 66.7734 1338.01 66.2344 1348.8C66.1916 1349.66 66.419 1349.97 67.1476 1350.29C73.8767 1353.26 78.3695 1358.36 80.4327 1365.71C80.803 1367.03 81.0036 1368.41 81.2816 1369.76C81.2816 1371.22 81.2816 1372.69 81.2816 1374.16C80.7426 1376.32 80.3904 1378.55 79.6305 1380.62C76.3778 1389.47 68.0888 1395.41 59.0114 1395.42C45.5527 1395.44 32.0896 1395.45 18.6304 1395.45C7.01945 1395.45 -4.58652 1395.44 -16.1974 1395.42C-27.616 1395.4 -36.9418 1386.78 -38.4852 1374.97C-38.5215 1374.7 -38.6297 1374.43 -38.705 1374.16C-38.705 1372.69 -38.705 1371.22 -38.705 1369.76C-38.6269 1369.44 -38.5204 1369.14 -38.4747 1368.82C-37.4121 1361.39 -33.7984 1355.7 -27.6825 1351.79C-24.1226 1349.51 -20.2188 1348.48 -16.0985 1348.48C-15.8386 1348.48 -15.5788 1348.48 -15.3172 1348.49C-15.2722 1348.36 -15.22 1348.28 -15.2282 1348.22C-15.2645 1347.93 -15.3018 1347.65 -15.3678 1347.38C-16.3293 1343.36 -16.3826 1339.33 -15.7452 1335.25C-13.3974 1320.23 -0.401932 1309.3 13.7331 1309.3ZM-5.35629 1356.88C-8.74473 1356.71 -11.9601 1356.76 -15.1211 1356.35C-15.6271 1356.28 -16.1386 1356.25 -16.6496 1356.25C-23.0216 1356.25 -29.5737 1361.25 -30.9418 1369.01C-32.3852 1377.21 -27.6589 1385.03 -20.099 1387.08C-18.8282 1387.43 -17.4809 1387.61 -16.1689 1387.61C-1.10357 1387.63 13.9634 1387.64 29.0292 1387.64C38.9137 1387.64 48.7977 1387.63 58.6828 1387.63C66.0509 1387.62 72.3382 1382.16 73.552 1374.8C74.8256 1367.06 70.7789 1359.89 63.6191 1357.22C62.1515 1356.68 60.6894 1356.11 59.2015 1355.62C58.5284 1355.41 58.2631 1355.1 58.3383 1354.34C58.4916 1352.8 58.5103 1351.24 58.6614 1349.7C59.3955 1342.19 54.6515 1335.2 47.6098 1333.28C46.4565 1332.96 45.3181 1332.84 44.1873 1332.84C42.228 1332.84 40.2923 1333.21 38.3445 1333.59C37.5725 1333.74 37.0423 1333.85 36.6412 1333.85C35.789 1333.85 35.5198 1333.37 34.7473 1331.85C32.6995 1327.8 30.2539 1324.14 26.621 1321.43C22.6754 1318.49 18.2364 1317.14 13.8722 1317.14C3.15464 1317.14 -7.11342 1325.24 -8.53209 1337.57C-8.88209 1340.62 -8.63869 1343.58 -7.89089 1346.52C-7.11122 1349.59 -6.3387 1352.66 -5.56893 1355.74C-5.49091 1356.04 -5.4508 1356.36 -5.35629 1356.88ZM13.7331 1306C6.03759 1306 -1.53434 1308.9 -7.58705 1314.15C-13.7018 1319.46 -17.7551 1326.78 -19.0002 1334.74C-19.5793 1338.45 -19.6183 1341.95 -19.1128 1345.35C-22.8468 1345.78 -26.316 1347 -29.4583 1349.02C-36.4006 1353.46 -40.5302 1359.96 -41.7335 1368.33C-41.744 1368.38 -41.7742 1368.49 -41.7967 1368.57C-41.833 1368.7 -41.8687 1368.83 -41.9011 1368.96L-42 1369.35V1369.76V1374.16V1374.61L-41.8797 1375.04C-41.8456 1375.17 -41.8077 1375.29 -41.7687 1375.41C-41.7588 1375.44 -41.7489 1375.47 -41.7396 1375.5C-39.9363 1388.94 -29.2122 1398.69 -16.2035 1398.72C-5.22607 1398.73 6.16726 1398.74 18.6293 1398.74C30.6918 1398.74 43.5241 1398.73 59.0136 1398.72C69.4701 1398.7 78.9975 1391.89 82.7211 1381.76C83.3189 1380.13 83.6783 1378.5 84.0255 1376.92C84.1755 1376.24 84.3178 1375.59 84.4761 1374.96L84.5744 1374.57V1374.16V1369.76V1369.42L84.5063 1369.09C84.4228 1368.68 84.3464 1368.28 84.2706 1367.87C84.0865 1366.89 83.8958 1365.87 83.603 1364.83C81.4003 1356.98 76.6761 1351.24 69.5525 1347.77C69.5492 1342.14 67.58 1336.52 63.9421 1331.8C60.0141 1326.7 54.6515 1323.32 48.8428 1322.27C47.0269 1321.94 45.239 1321.9 44.0527 1321.9C43.2296 1321.9 42.4154 1321.93 41.6275 1321.94L41.5928 1321.95C36.539 1313.86 29.4149 1308.75 20.41 1306.74C18.221 1306.25 15.9743 1306 13.7331 1306ZM-1.37335 1360.38L-2.11456 1356.29C-2.14368 1356.13 -2.1673 1355.99 -2.18873 1355.87C-2.24093 1355.56 -2.29038 1355.26 -2.3728 1354.93C-3.14312 1351.86 -3.91674 1348.79 -4.69696 1345.71C-5.37003 1343.06 -5.55354 1340.52 -5.25794 1337.94C-4.11015 1327.96 4.11452 1320.44 13.8727 1320.44C17.7397 1320.44 21.4666 1321.69 24.6507 1324.07C27.3935 1326.12 29.6012 1328.98 31.8088 1333.33C32.6682 1335.03 33.7385 1337.14 36.6418 1337.14C37.3577 1337.14 38.0582 1337.01 38.9451 1336.83L38.9819 1336.83C40.6264 1336.5 42.4912 1336.13 44.1873 1336.13C45.1142 1336.13 45.95 1336.24 46.7428 1336.46C52.2411 1337.96 55.9559 1343.52 55.3823 1349.38C55.301 1350.22 55.2559 1351.03 55.212 1351.82C55.1697 1352.59 55.1301 1353.31 55.0598 1354.01C54.8356 1356.28 56.0048 1358.05 58.1872 1358.76C59.2817 1359.11 60.3674 1359.52 61.5163 1359.96C61.8339 1360.07 62.1509 1360.19 62.4685 1360.31C68.1762 1362.44 71.324 1368.04 70.3009 1374.26C69.3399 1380.1 64.4526 1384.33 58.6812 1384.33C48.7972 1384.34 38.9137 1384.34 29.0297 1384.34C12.9254 1384.34 -1.85742 1384.33 -16.1639 1384.32C-17.1749 1384.32 -18.2381 1384.17 -19.237 1383.9C-25.2111 1382.28 -28.8479 1376.13 -27.6957 1369.59C-26.5468 1363.07 -21.1468 1359.55 -16.6485 1359.55C-16.2765 1359.55 -15.9046 1359.57 -15.5436 1359.62C-13.22 1359.92 -10.8799 1359.99 -8.61671 1360.06C-7.60463 1360.09 -6.55793 1360.12 -5.52113 1360.17L-1.37335 1360.38Z" fill="#005072"/>
<path fill-rule="evenodd" clip-rule="evenodd" d="M310.001 1195.23C310.056 1194.98 310.096 1194.72 310.17 1194.48C310.583 1193.11 311.482 1192.16 312.828 1191.61C312.974 1191.55 313.019 1191.5 313.01 1191.34C312.903 1189.33 314.534 1187.36 316.606 1187.01C317.068 1186.93 317.551 1186.95 318.024 1186.96C318.216 1186.97 318.322 1186.94 318.431 1186.77C319.345 1185.37 320.638 1184.47 322.319 1184.12C325.572 1183.45 328.873 1185.64 329.408 1188.82C329.535 1189.58 329.524 1190.33 329.332 1191.07C329.319 1191.12 329.311 1191.18 329.304 1191.23C329.303 1191.24 329.313 1191.25 329.322 1191.28C330.204 1191.25 331.038 1191.44 331.795 1191.89C333.018 1192.62 333.742 1193.68 333.954 1195.05C333.963 1195.11 333.984 1195.17 334 1195.23C334 1195.5 334 1195.77 334 1196.05C333.985 1196.1 333.963 1196.15 333.956 1196.2C333.647 1198.39 331.782 1199.99 329.498 1200C324.484 1200 319.469 1200 314.455 1200C312.639 1199.99 310.981 1198.89 310.33 1197.25C310.178 1196.86 310.108 1196.45 310 1196.05C310.001 1195.77 310.001 1195.5 310.001 1195.23ZM327.331 1192.84C327.349 1192.74 327.357 1192.68 327.372 1192.62C327.527 1192.05 327.681 1191.48 327.837 1190.91C327.987 1190.37 328.035 1189.82 327.965 1189.25C327.566 1186.03 323.661 1184.36 320.934 1186.25C320.207 1186.76 319.719 1187.44 319.309 1188.19C319.081 1188.6 319.072 1188.6 318.589 1188.51C317.974 1188.4 317.366 1188.29 316.735 1188.45C315.327 1188.81 314.378 1190.11 314.525 1191.51C314.555 1191.79 314.559 1192.08 314.589 1192.37C314.605 1192.51 314.552 1192.56 314.417 1192.6C314.119 1192.69 313.826 1192.8 313.533 1192.9C312.101 1193.4 311.291 1194.73 311.546 1196.16C311.789 1197.53 313.046 1198.55 314.52 1198.55C319.511 1198.55 324.501 1198.55 329.492 1198.54C329.755 1198.54 330.024 1198.51 330.279 1198.45C331.79 1198.07 332.736 1196.61 332.447 1195.09C332.151 1193.53 330.645 1192.57 329.283 1192.74C328.651 1192.81 328.008 1192.81 327.331 1192.84Z" fill="#0081AB"/>
<path fill-rule="evenodd" clip-rule="evenodd" d="M125.999 884.229C125.944 883.978 125.904 883.723 125.83 883.478C125.417 882.113 124.518 881.164 123.172 880.613C123.026 880.554 122.981 880.496 122.99 880.336C123.097 878.333 121.466 876.358 119.394 876.012C118.932 875.934 118.449 875.953 117.976 875.964C117.784 875.968 117.678 875.942 117.569 875.774C116.655 874.367 115.362 873.471 113.681 873.122C110.428 872.448 107.127 874.641 106.592 877.821C106.465 878.579 106.476 879.327 106.668 880.072C106.681 880.123 106.689 880.176 106.696 880.228C106.697 880.24 106.687 880.254 106.678 880.279C105.796 880.253 104.962 880.443 104.205 880.893C102.982 881.619 102.258 882.675 102.046 884.055C102.037 884.114 102.016 884.171 102 884.229C102 884.501 102 884.774 102 885.047C102.015 885.097 102.037 885.147 102.044 885.198C102.353 887.389 104.218 888.992 106.502 888.995C111.516 889.003 116.531 889.001 121.545 888.995C123.361 888.993 125.019 887.89 125.67 886.247C125.822 885.863 125.892 885.448 126 885.047C125.999 884.774 125.999 884.501 125.999 884.229ZM108.669 881.838C108.651 881.742 108.643 881.683 108.628 881.624C108.473 881.054 108.319 880.484 108.163 879.914C108.013 879.368 107.965 878.818 108.035 878.251C108.434 875.029 112.339 873.364 115.066 875.254C115.793 875.758 116.281 876.438 116.691 877.189C116.919 877.605 116.928 877.601 117.411 877.513C118.026 877.4 118.634 877.295 119.265 877.455C120.673 877.811 121.622 879.109 121.475 880.506C121.445 880.791 121.441 881.08 121.411 881.366C121.395 881.508 121.448 881.564 121.583 881.605C121.881 881.694 122.174 881.8 122.467 881.902C123.899 882.397 124.709 883.728 124.454 885.165C124.211 886.533 122.954 887.548 121.48 887.548C116.489 887.551 111.499 887.551 106.508 887.545C106.245 887.545 105.976 887.51 105.721 887.446C104.21 887.066 103.264 885.612 103.553 884.092C103.849 882.533 105.355 881.575 106.717 881.739C107.349 881.815 107.992 881.807 108.669 881.838Z" fill="#0081AB"/>
<path fill-rule="evenodd" clip-rule="evenodd" d="M216.999 1354.23C216.944 1353.98 216.904 1353.72 216.83 1353.48C216.417 1352.11 215.518 1351.16 214.172 1350.61C214.026 1350.55 213.981 1350.5 213.99 1350.34C214.097 1348.33 212.466 1346.36 210.394 1346.01C209.932 1345.93 209.449 1345.95 208.976 1345.96C208.784 1345.97 208.678 1345.94 208.569 1345.77C207.655 1344.37 206.362 1343.47 204.681 1343.12C201.428 1342.45 198.127 1344.64 197.592 1347.82C197.465 1348.58 197.476 1349.33 197.668 1350.07C197.681 1350.12 197.689 1350.18 197.696 1350.23C197.697 1350.24 197.687 1350.25 197.678 1350.28C196.796 1350.25 195.962 1350.44 195.205 1350.89C193.982 1351.62 193.258 1352.68 193.046 1354.05C193.037 1354.11 193.016 1354.17 193 1354.23C193 1354.5 193 1354.77 193 1355.05C193.015 1355.1 193.037 1355.15 193.044 1355.2C193.353 1357.39 195.218 1358.99 197.502 1359C202.516 1359 207.531 1359 212.545 1359C214.361 1358.99 216.019 1357.89 216.67 1356.25C216.822 1355.86 216.892 1355.45 217 1355.05C216.999 1354.77 216.999 1354.5 216.999 1354.23ZM199.669 1351.84C199.651 1351.74 199.643 1351.68 199.628 1351.62C199.473 1351.05 199.319 1350.48 199.163 1349.91C199.013 1349.37 198.965 1348.82 199.035 1348.25C199.434 1345.03 203.339 1343.36 206.066 1345.25C206.793 1345.76 207.281 1346.44 207.691 1347.19C207.919 1347.6 207.928 1347.6 208.411 1347.51C209.026 1347.4 209.634 1347.29 210.265 1347.45C211.673 1347.81 212.622 1349.11 212.475 1350.51C212.445 1350.79 212.441 1351.08 212.411 1351.37C212.395 1351.51 212.448 1351.56 212.583 1351.6C212.881 1351.69 213.174 1351.8 213.467 1351.9C214.899 1352.4 215.709 1353.73 215.454 1355.16C215.211 1356.53 213.954 1357.55 212.48 1357.55C207.489 1357.55 202.499 1357.55 197.508 1357.54C197.245 1357.54 196.976 1357.51 196.721 1357.45C195.21 1357.07 194.264 1355.61 194.553 1354.09C194.849 1352.53 196.355 1351.57 197.717 1351.74C198.349 1351.81 198.992 1351.81 199.669 1351.84Z" fill="#0081AB"/>
</g>
</svg>
