<svg width="768" height="1341" viewBox="0 0 768 1341" fill="none" xmlns="http://www.w3.org/2000/svg">
<mask id="mask0" mask-type="alpha" maskUnits="userSpaceOnUse" x="0" y="0" width="768" height="1341">
<rect width="768" height="1341" fill="#C4C4C4"/>
</mask>
<g mask="url(#mask0)">
<path opacity="0.2" fill-rule="evenodd" clip-rule="evenodd" d="M326.001 976.354C326.291 975.008 326.499 973.639 326.885 972.321C329.034 964.982 333.715 959.883 340.725 956.92C341.484 956.599 341.721 956.29 341.676 955.432C341.115 944.667 349.611 934.05 360.402 932.188C362.809 931.772 365.324 931.872 367.786 931.928C368.788 931.951 369.341 931.816 369.909 930.912C374.666 923.348 381.4 918.531 390.162 916.657C407.1 913.032 424.293 924.821 427.081 941.912C427.745 945.985 427.689 950.008 426.687 954.015C426.619 954.289 426.58 954.572 426.542 954.852C426.533 954.92 426.588 954.995 426.634 955.126C431.227 954.989 435.575 956.002 439.516 958.419C445.888 962.327 449.653 968.002 450.76 975.419C450.807 975.735 450.918 976.043 451 976.354C451 977.819 451 979.285 451 980.751C450.922 981.021 450.809 981.288 450.771 981.564C449.164 993.343 439.448 1001.96 427.552 1001.97C401.435 1002.01 375.317 1002 349.201 1001.98C339.745 1001.96 331.109 996.034 327.72 987.199C326.928 985.134 326.563 982.904 326 980.751C326.001 979.285 326.001 977.819 326.001 976.354ZM416.259 963.504C416.357 962.986 416.398 962.667 416.48 962.358C417.281 959.292 418.086 956.227 418.898 953.164C419.677 950.224 419.93 947.27 419.565 944.224C417.486 926.901 397.148 917.954 382.944 928.114C379.159 930.823 376.611 934.475 374.478 938.511C373.294 940.75 373.246 940.729 370.731 940.254C367.531 939.651 364.362 939.081 361.079 939.939C353.743 941.857 348.8 948.835 349.565 956.337C349.723 957.874 349.743 959.425 349.902 960.963C349.98 961.724 349.704 962.028 349.004 962.245C347.453 962.726 345.931 963.298 344.401 963.843C336.943 966.507 332.726 973.657 334.054 981.383C335.318 988.739 341.868 994.189 349.545 994.194C375.538 994.209 401.531 994.207 427.523 994.177C428.891 994.175 430.294 993.991 431.618 993.647C439.493 991.602 444.417 983.796 442.913 975.614C441.374 967.24 433.531 962.087 426.432 962.969C423.138 963.38 419.788 963.334 416.259 963.504Z" fill="#231F20"/>
<path fill-rule="evenodd" clip-rule="evenodd" d="M124 393.398C123.668 394.676 123.451 395.997 122.982 397.223C120.977 402.462 115.864 405.979 110.266 405.986C94.8045 406.002 79.3435 406.008 63.8816 405.984C56.8393 405.974 51.0878 400.867 50.1357 393.881C50.1135 393.717 50.0469 393.559 50 393.398C50 392.529 50 391.66 50 390.791C50.0485 390.605 50.1143 390.424 50.1422 390.237C50.7976 385.838 53.0266 382.472 56.7981 380.157C59.1324 378.723 61.7052 378.12 64.4242 378.203C64.4522 378.125 64.4843 378.081 64.4785 378.04C64.4563 377.875 64.4333 377.707 64.393 377.544C63.8002 375.168 63.7673 372.782 64.1603 370.367C65.8097 360.231 75.988 353.24 86.0158 355.39C91.2032 356.502 95.1893 359.357 98.0055 363.843C98.3417 364.379 98.669 364.46 99.2626 364.445C100.72 364.413 102.209 364.353 103.634 364.6C110.022 365.704 115.052 372 114.72 378.385C114.693 378.893 114.834 379.077 115.283 379.266C119.433 381.024 122.203 384.047 123.476 388.399C123.705 389.181 123.828 389.993 124 390.791C124 391.659 124 392.529 124 393.398ZM64.5451 382.854C60.3427 382.332 55.6997 385.387 54.7878 390.353C53.8973 395.205 56.8121 399.835 61.4749 401.048C62.2585 401.252 63.089 401.362 63.8989 401.362C79.2859 401.381 94.6746 401.381 110.063 401.373C114.607 401.37 118.485 398.138 119.234 393.776C120.02 389.193 117.523 384.954 113.107 383.373C112.202 383.049 111.301 382.711 110.383 382.427C109.969 382.297 109.804 382.116 109.851 381.665C109.946 380.755 109.957 379.833 110.051 378.923C110.504 374.474 107.578 370.336 103.235 369.198C101.292 368.689 99.4156 369.025 97.5203 369.385C96.0313 369.666 96.0033 369.679 95.302 368.351C94.039 365.958 92.5303 363.791 90.2897 362.185C81.8809 356.159 69.841 361.466 68.6102 371.74C68.3939 373.546 68.5436 375.297 69.0049 377.041C69.4859 378.858 69.9619 380.675 70.4363 382.494C70.4849 382.676 70.5087 382.865 70.5671 383.173C68.4778 383.069 66.4946 383.097 64.5451 382.854Z" fill="#0081AB"/>
<path fill-rule="evenodd" clip-rule="evenodd" d="M731 706.399C731.333 707.676 731.549 708.998 732.018 710.223C734.024 715.462 739.137 718.979 744.734 718.985C760.195 719.002 775.657 719.008 791.118 718.984C798.16 718.973 803.913 713.866 804.864 706.88C804.886 706.717 804.953 706.559 805 706.399C805 705.53 805 704.661 805 703.791C804.951 703.607 804.886 703.425 804.858 703.237C804.202 698.839 801.974 695.473 798.202 693.156C795.868 691.722 793.294 691.121 790.576 691.202C790.548 691.125 790.515 691.08 790.521 691.04C790.543 690.874 790.567 690.706 790.607 690.544C791.2 688.168 791.232 685.781 790.84 683.366C789.19 673.231 779.012 666.24 768.984 668.389C763.797 669.502 759.811 672.358 756.995 676.844C756.658 677.379 756.331 677.459 755.738 677.446C754.281 677.412 752.792 677.353 751.366 677.6C744.978 678.704 739.948 684.999 740.281 691.384C740.307 691.894 740.167 692.076 739.718 692.266C735.568 694.024 732.797 697.047 731.524 701.4C731.296 702.181 731.172 702.993 731.001 703.792C731 704.661 731 705.53 731 706.399ZM790.454 695.855C794.658 695.332 799.3 698.387 800.212 703.353C801.102 708.205 798.187 712.835 793.525 714.048C792.742 714.252 791.91 714.36 791.101 714.362C775.713 714.38 760.325 714.381 744.937 714.372C740.393 714.369 736.516 711.137 735.767 706.775C734.982 702.193 737.477 697.953 741.893 696.373C742.798 696.05 743.7 695.711 744.617 695.426C745.032 695.297 745.196 695.116 745.15 694.665C745.055 693.754 745.043 692.833 744.95 691.922C744.498 687.473 747.424 683.334 751.766 682.197C753.71 681.688 755.586 682.025 757.481 682.384C758.969 682.665 758.998 682.678 759.699 681.35C760.962 678.957 762.471 676.79 764.711 675.185C773.12 669.159 785.16 674.465 786.391 684.738C786.607 686.544 786.456 688.297 785.995 690.039C785.515 691.856 785.038 693.674 784.564 695.492C784.516 695.675 784.491 695.864 784.433 696.171C786.522 696.071 788.505 696.098 790.454 695.855Z" fill="#0081AB"/>
<path fill-rule="evenodd" clip-rule="evenodd" d="M44.0011 1263.31C43.0341 1267.01 42.4051 1270.84 41.0421 1274.39C35.2141 1289.58 20.361 1299.78 4.09705 1299.79C-40.824 1299.84 -85.746 1299.86 -130.667 1299.79C-151.128 1299.76 -167.841 1284.96 -170.605 1264.71C-170.669 1264.23 -170.864 1263.77 -171 1263.31C-171 1260.79 -171 1258.27 -171 1255.75C-170.859 1255.22 -170.668 1254.69 -170.588 1254.14C-168.683 1241.4 -162.207 1231.64 -151.248 1224.92C-144.468 1220.76 -136.99 1219.02 -129.091 1219.26C-129.011 1219.03 -128.916 1218.9 -128.932 1218.79C-128.996 1218.31 -129.065 1217.82 -129.182 1217.35C-130.906 1210.46 -130.999 1203.54 -129.858 1196.54C-125.066 1167.16 -95.4949 1146.9 -66.3589 1153.13C-51.2869 1156.35 -39.7069 1164.63 -31.5249 1177.64C-30.5459 1179.19 -29.5959 1179.42 -27.8739 1179.38C-23.6389 1179.28 -19.3129 1179.11 -15.1709 1179.83C3.3891 1183.03 18.0021 1201.28 17.0371 1219.78C16.9601 1221.26 17.3671 1221.79 18.6721 1222.34C30.7301 1227.44 38.78 1236.2 42.478 1248.82C43.141 1251.08 43.501 1253.44 43.999 1255.75C44.001 1258.27 44.0011 1260.79 44.0011 1263.31ZM-128.739 1232.75C-140.951 1231.23 -154.44 1240.09 -157.088 1254.48C-159.675 1268.55 -151.205 1281.97 -137.659 1285.48C-135.384 1286.07 -132.968 1286.39 -130.617 1286.39C-85.9099 1286.44 -41.2009 1286.45 3.50708 1286.42C16.7101 1286.41 27.976 1277.04 30.15 1264.4C32.433 1251.12 25.1821 1238.83 12.3521 1234.25C9.72305 1233.31 7.10301 1232.33 4.43701 1231.5C3.23201 1231.13 2.75601 1230.6 2.89001 1229.3C3.16601 1226.65 3.19909 1223.99 3.47009 1221.34C4.78509 1208.45 -3.71698 1196.45 -16.334 1193.15C-21.98 1191.68 -27.4319 1192.66 -32.9359 1193.69C-37.2609 1194.51 -37.345 1194.55 -39.381 1190.7C-43.05 1183.76 -47.434 1177.48 -53.943 1172.83C-78.374 1155.36 -113.356 1170.74 -116.932 1200.52C-117.56 1205.76 -117.123 1210.84 -115.784 1215.89C-114.388 1221.15 -113.003 1226.42 -111.624 1231.69C-111.485 1232.22 -111.412 1232.77 -111.244 1233.66C-117.314 1233.37 -123.075 1233.45 -128.739 1232.75Z" fill="#0081AB"/>
<path opacity="0.2" fill-rule="evenodd" clip-rule="evenodd" d="M14.4785 78.9218C14.7347 77.7343 14.9192 76.5259 15.2591 75.3634C17.1562 68.8894 21.287 64.3916 27.4751 61.7775C28.1449 61.495 28.3537 61.2226 28.3145 60.4643C27.8191 50.9686 35.3184 41.6026 44.8431 39.9603C46.9687 39.5933 49.1882 39.6812 51.3617 39.7312C52.2464 39.7508 52.7337 39.6319 53.2351 38.835C57.4335 32.1617 63.3763 27.9133 71.1107 26.2588C86.0626 23.062 101.238 33.4614 103.698 48.5382C104.283 52.1304 104.234 55.6799 103.35 59.2146C103.289 59.4559 103.255 59.706 103.222 59.9533C103.214 60.0128 103.262 60.0784 103.303 60.1939C107.358 60.073 111.194 60.9671 114.674 63.0994C120.298 66.5469 123.621 71.5536 124.598 78.0959C124.64 78.3743 124.739 78.6453 124.81 78.9204C124.81 80.2133 124.81 81.5062 124.81 82.7991C124.741 83.0377 124.641 83.2729 124.608 83.5162C123.189 93.9081 114.613 101.505 104.114 101.522C81.0613 101.557 58.0087 101.547 34.9561 101.522C26.6094 101.513 18.9878 96.281 15.9965 88.4871C15.2976 86.665 14.9739 84.6996 14.4785 82.7991C14.4785 81.5076 14.4785 80.2147 14.4785 78.9218ZM94.145 67.5857C94.2316 67.1288 94.2687 66.8477 94.3404 66.5753C95.048 63.8706 95.7583 61.1665 96.4754 58.4644C97.1627 55.8719 97.3871 53.2658 97.0647 50.5793C95.2298 35.2976 77.2779 27.4037 64.7402 36.3675C61.4001 38.7566 59.1509 41.9791 57.2679 45.5395C56.2231 47.515 56.1805 47.4954 53.9603 47.077C51.136 46.5445 48.3379 46.0423 45.4412 46.7993C38.9659 48.4916 34.6033 54.6479 35.2785 61.2658C35.4177 62.6216 35.4346 63.9902 35.5759 65.3466C35.6448 66.0177 35.4008 66.2861 34.7817 66.478C33.4138 66.9024 32.0695 67.4059 30.7199 67.8878C24.1364 70.2371 20.4145 76.5455 21.5864 83.3614C22.7023 89.8509 28.4842 94.6583 35.2589 94.6623C58.202 94.6751 81.1451 94.6745 104.088 94.6474C105.295 94.6461 106.533 94.4832 107.702 94.1811C114.654 92.3766 118.999 85.4897 117.672 78.2716C116.314 70.8845 109.391 66.3395 103.125 67.1174C100.217 67.4769 97.2607 67.4357 94.145 67.5857Z" fill="#231F20"/>
<path fill-rule="evenodd" clip-rule="evenodd" d="M-7.41877 134.054C-21.7015 134.054 -35.9809 134.045 -50.2636 134.021C-65.2749 133.997 -77.6491 122.679 -79.6847 107.108C-79.6929 107.05 -79.7442 106.887 -79.7827 106.768C-79.8233 106.641 -79.8625 106.514 -79.8983 106.386L-79.9727 106.12V100.175L-79.9118 99.9321C-79.8767 99.7915 -79.8375 99.6516 -79.7983 99.511C-79.7422 99.3096 -79.6881 99.1184 -79.6692 98.9852C-78.2817 89.2814 -73.5075 81.7558 -65.4804 76.618C-61.284 73.9321 -56.5734 72.4662 -51.4606 72.252C-52.4297 67.594 -52.5095 62.8117 -51.7066 57.6712C-48.7098 38.4912 -32.2617 24.0273 -13.4453 24.0273C-10.8365 24.0273 -8.22168 24.3159 -5.67305 24.885C5.10811 27.2931 13.5887 33.517 19.5335 43.3844C19.6186 43.5263 19.6794 43.6013 19.7112 43.6371C19.7619 43.6459 19.8721 43.6581 20.0836 43.6581L20.9196 43.6392C21.8935 43.6148 22.8735 43.5905 23.8508 43.5905C26.0764 43.5905 27.7829 43.7189 29.384 44.0075C42.9544 46.4514 53.8254 60.4773 53.1617 74.6614C62.0363 78.6029 67.8858 85.4135 70.5493 94.9065C70.8859 96.1048 71.1117 97.3111 71.33 98.4777C71.4266 98.9906 71.5219 99.5036 71.6273 100.014L71.6692 100.217V106.092L71.6084 106.334C71.4043 107.15 71.2232 107.976 71.0414 108.802C70.6291 110.675 70.202 112.613 69.5139 114.486C65.2243 126.157 54.2688 134.008 42.2515 134.022C25.6972 134.042 9.13686 134.054 -7.41877 134.054ZM-50.8165 85.8406C-57.1735 85.8406 -64.7958 90.7561 -66.4009 99.8665C-68.0006 108.952 -62.8973 117.514 -54.5296 119.782C-53.1319 120.16 -51.6424 120.361 -50.2224 120.363C-31.6906 120.386 -13.1554 120.395 5.37711 120.395C17.5336 120.395 29.6881 120.391 41.8446 120.384C49.9406 120.379 56.7924 114.455 58.136 106.296C59.556 97.6653 55.165 89.8748 47.2102 86.9098L46.0464 86.4732C44.6731 85.9562 43.2531 85.4216 41.8595 84.9694C39.6008 84.2382 39.2784 82.5499 39.4062 81.2624C39.4974 80.35 39.5474 79.439 39.6008 78.4745C39.6535 77.5263 39.7076 76.5456 39.8036 75.5636C40.6038 67.3737 35.397 59.6115 27.693 57.509C26.5414 57.1947 25.339 57.042 24.0171 57.042C21.7327 57.042 19.3361 57.5137 17.2214 57.93C16.1556 58.1402 15.4182 58.2855 14.7349 58.2855C12.4086 58.2855 11.5692 56.6283 10.5974 54.7096C7.73379 49.0554 4.8344 45.3227 1.19697 42.6058C-3.07237 39.4185 -8.0757 37.7343 -13.2723 37.7343C-26.3054 37.7343 -37.288 47.7646 -38.8174 61.0653C-39.2094 64.4831 -38.9675 67.8475 -38.078 71.3497C-37.119 75.127 -36.1681 78.9064 -35.2205 82.6857C-35.1462 82.9831 -35.0921 83.2873 -35.0266 83.6772C-34.9995 83.8394 -34.9691 84.0206 -34.9313 84.2287L-34.4751 86.7429L-37.0264 86.6145C-38.3288 86.5489 -39.6095 86.5097 -40.874 86.4712C-43.7342 86.384 -46.4363 86.3009 -49.1965 85.9427C-49.727 85.8751 -50.2724 85.8406 -50.8165 85.8406Z" fill="#0081AB"/>
<path d="M-13.4451 26.0531C-11.0181 26.0531 -8.56413 26.3146 -6.11417 26.8621C4.23309 29.1728 12.1818 35.1081 17.7981 44.4294C18.4266 45.4709 19.0383 45.6831 20.0838 45.6831C20.1555 45.6831 20.2291 45.6825 20.3048 45.6804C21.4815 45.6521 22.6676 45.6156 23.8517 45.6156C25.5947 45.6156 27.3316 45.6953 29.0253 46.0008C41.7658 48.2953 51.7974 61.3771 51.1344 74.6413C51.0817 75.7004 51.3615 76.0809 52.2577 76.4756C60.5348 80.1265 66.0612 86.4099 68.5991 95.4528C69.0546 97.0762 69.3013 98.7644 69.6432 100.423C69.6432 102.23 69.6432 104.035 69.6432 105.841C68.9802 108.495 68.547 111.241 67.6123 113.786C63.6113 124.672 53.4154 131.981 42.2497 131.994C25.6947 132.012 9.13437 132.025 -7.42126 132.025C-21.7033 132.025 -35.9793 132.016 -50.2614 131.992C-64.3069 131.97 -75.7781 121.358 -77.6766 106.842C-77.7212 106.502 -77.8543 106.174 -77.9469 105.841C-77.9469 104.035 -77.9469 102.229 -77.9469 100.422C-77.851 100.039 -77.7198 99.6606 -77.6637 99.2706C-76.3566 90.1318 -71.9116 83.1381 -64.3887 78.3227C-60.0099 75.5206 -55.2079 74.2486 -50.1397 74.2486C-49.8201 74.2486 -49.5004 74.254 -49.1787 74.2635C-49.1233 74.102 -49.0591 74.0101 -49.0692 73.9269C-49.1138 73.5809 -49.1598 73.2322 -49.2409 72.8949C-50.4236 67.9578 -50.4892 62.9998 -49.7052 57.9823C-46.8173 39.5025 -30.832 26.0531 -13.4451 26.0531ZM-36.9262 84.5885C-41.0942 84.379 -45.0492 84.4357 -48.9374 83.9309C-49.5599 83.8504 -50.1891 83.8106 -50.8176 83.8106C-58.6555 83.8106 -66.715 89.9601 -68.3978 99.5119C-70.1733 109.594 -64.3596 119.214 -55.0606 121.735C-53.4974 122.158 -51.8402 122.384 -50.2262 122.387C-31.6951 122.41 -13.1619 122.419 5.36988 122.419C17.5284 122.419 29.6863 122.414 41.8455 122.408C50.9087 122.402 58.6424 115.686 60.1354 106.623C61.702 97.1018 56.7244 88.2901 47.9174 85.0088C46.1122 84.3357 44.3137 83.6328 42.4835 83.0394C41.6556 82.7718 41.3292 82.3967 41.4218 81.4593C41.6103 79.5649 41.6333 77.6529 41.8192 75.7592C42.7221 66.5149 36.8868 57.9154 28.2251 55.5519C26.8065 55.1653 25.4061 55.0139 24.0152 55.0139C21.6052 55.0139 19.2241 55.4681 16.8282 55.9398C15.8787 56.1271 15.2265 56.2568 14.7331 56.2568C13.6849 56.2568 13.3537 55.6688 12.4035 53.7927C9.88456 48.8198 6.87635 44.3179 2.40763 40.9806C-2.44565 37.3573 -7.90585 35.7062 -13.2741 35.7062C-26.4573 35.7056 -39.0876 45.6629 -40.8326 60.8323C-41.2631 64.586 -40.9637 68.2261 -40.0439 71.8473C-39.0849 75.622 -38.1346 79.3993 -37.1877 83.1773C-37.0918 83.5571 -37.0424 83.9498 -36.9262 84.5885ZM-13.4451 22C-22.9111 22 -32.225 25.5617 -39.6701 32.0283C-47.1917 38.5617 -52.1774 47.5573 -53.7089 57.3578C-54.4213 61.9198 -54.4692 66.2189 -53.8475 70.4051C-58.4405 70.9275 -62.7079 72.4367 -66.573 74.911C-75.1124 80.3766 -80.1921 88.3719 -81.6722 98.6745C-81.6851 98.732 -81.7222 98.8645 -81.7499 98.9625C-81.7945 99.1206 -81.8385 99.2794 -81.8783 99.4389L-82 99.9235V100.423V105.841V106.395L-81.852 106.928C-81.8101 107.079 -81.7635 107.229 -81.7155 107.379C-81.7033 107.417 -81.6911 107.455 -81.6796 107.492C-79.4615 124.019 -66.2703 136.019 -50.2688 136.045C-36.766 136.067 -22.7516 136.078 -7.42261 136.078C7.415 136.078 23.1995 136.068 42.2524 136.047C55.1145 136.032 66.8337 127.648 71.414 115.184C72.1493 113.182 72.5913 111.176 73.0184 109.237C73.2029 108.397 73.378 107.604 73.5726 106.825L73.6936 106.341V105.842V100.424V100.009L73.6098 99.6038C73.5071 99.1057 73.4131 98.6049 73.3199 98.1048C73.0935 96.895 72.8589 95.644 72.4987 94.3592C69.7892 84.7034 63.9783 77.6536 55.2159 73.3829C55.2118 66.4588 52.7896 59.5442 48.3148 53.7345C43.4831 47.462 36.8868 43.2994 29.7417 42.0126C27.508 41.6098 25.3088 41.5632 23.8497 41.5632C22.8372 41.5632 21.8356 41.5888 20.8665 41.6132L20.8239 41.6138C14.6074 31.6734 5.84433 25.3806 -5.23218 22.907C-7.92477 22.3048 -10.6883 22 -13.4451 22ZM-32.0269 88.893L-32.9387 83.8653C-32.9745 83.6673 -33.0036 83.4943 -33.0299 83.3395C-33.0941 82.9576 -33.1549 82.5967 -33.2563 82.1906C-34.2039 78.4098 -35.1555 74.6285 -36.1152 70.8491C-36.9431 67.5895 -37.1688 64.4637 -36.8052 61.2939C-35.3934 49.0164 -25.2766 39.758 -13.2735 39.7586C-8.51682 39.7586 -3.93252 41.3043 -0.0159701 44.228C3.35787 46.7476 6.07344 50.262 8.78901 55.6235C9.84604 57.7113 11.1626 60.3099 14.7338 60.3099C15.6144 60.3099 16.4761 60.1403 17.5669 59.9253L17.6122 59.9166C19.635 59.5185 21.9289 59.067 24.0152 59.067C25.1554 59.067 26.1834 59.1961 27.1586 59.4624C33.9218 61.3081 38.4913 68.1457 37.7857 75.3658C37.6857 76.3884 37.6302 77.3913 37.5762 78.3612C37.5241 79.3026 37.4755 80.1914 37.389 81.0578C37.1132 83.8457 38.5514 86.0274 41.2359 86.8958C42.5822 87.3324 43.9177 87.8353 45.3309 88.3678C45.7215 88.5145 46.1115 88.6618 46.5021 88.8071C53.5229 91.4234 57.3948 98.3184 56.1364 105.966C54.9543 113.141 48.9426 118.352 41.8435 118.356C29.6856 118.363 17.5284 118.367 5.37055 118.367C-14.4386 118.367 -32.6224 118.356 -50.2202 118.335C-51.4637 118.334 -52.7715 118.157 -54.0002 117.824C-61.3487 115.832 -65.8222 108.263 -64.4049 100.216C-62.9917 92.1938 -56.3495 87.865 -50.8163 87.865C-50.3587 87.865 -49.9012 87.8941 -49.4571 87.9515C-46.599 88.3225 -43.7205 88.4111 -40.9367 88.4962C-39.6918 88.5341 -38.4043 88.5733 -37.1289 88.6375L-32.0269 88.893Z" fill="#005072"/>
<path opacity="0.2" fill-rule="evenodd" clip-rule="evenodd" d="M761.172 111.162C760.866 112.336 760.666 113.55 760.234 114.676C758.387 119.492 753.677 122.725 748.52 122.73C734.276 122.745 720.032 122.752 705.788 122.73C699.3 122.72 694.002 118.026 693.125 111.605C693.104 111.454 693.043 111.309 693 111.162C693 110.363 693 109.564 693 108.765C693.044 108.595 693.104 108.428 693.131 108.256C693.734 104.213 695.787 101.119 699.262 98.9894C701.412 97.6713 703.783 97.1189 706.288 97.1937C706.314 97.1224 706.343 97.0815 706.339 97.0446C706.318 96.8916 706.296 96.7374 706.26 96.5883C705.713 94.4045 705.683 92.2112 706.045 89.9914C707.565 80.6757 716.942 74.2495 726.179 76.2251C730.959 77.2473 734.63 79.8726 737.224 83.9959C737.535 84.4878 737.836 84.5617 738.382 84.5495C739.725 84.5187 741.097 84.4648 742.411 84.6912C748.295 85.7059 752.929 91.4928 752.623 97.3606C752.599 97.8295 752.728 97.9972 753.141 98.1719C756.965 99.7868 759.517 102.566 760.69 106.566C760.899 107.285 761.014 108.031 761.172 108.765C761.172 109.564 761.172 110.363 761.172 111.162ZM706.399 101.47C702.527 100.99 698.25 103.798 697.411 108.362C696.59 112.822 699.276 117.077 703.571 118.192C704.293 118.38 705.058 118.479 705.804 118.481C719.98 118.498 734.157 118.498 748.333 118.49C752.519 118.488 756.092 115.517 756.78 111.507C757.504 107.296 755.205 103.398 751.138 101.947C750.303 101.649 749.473 101.338 748.627 101.076C748.245 100.957 748.094 100.791 748.138 100.377C748.224 99.5387 748.235 98.693 748.32 97.8551C748.738 93.7661 746.042 89.9622 742.042 88.9166C740.251 88.4486 738.522 88.7589 736.778 89.0883C735.406 89.3473 735.38 89.3595 734.734 88.1383C733.57 85.9384 732.181 83.9472 730.116 82.4709C722.37 76.9326 711.278 81.8099 710.144 91.2525C709.944 92.913 710.083 94.5232 710.508 96.1246C710.952 97.7947 711.389 99.4657 711.827 101.137C711.872 101.305 711.893 101.479 711.947 101.761C710.022 101.668 708.196 101.693 706.399 101.47Z" fill="#231F20"/>
<path fill-rule="evenodd" clip-rule="evenodd" d="M725.031 111.3C725.388 109.643 725.645 107.957 726.12 106.334C728.769 97.2998 734.533 91.0227 743.169 87.3753C744.103 86.9807 744.395 86.6013 744.34 85.5427C743.649 72.2905 754.114 59.2205 767.406 56.9285C770.372 56.417 773.47 56.5396 776.502 56.6091C777.737 56.6374 778.417 56.4705 779.117 55.3588C784.977 46.0462 793.27 40.1167 804.063 37.8083C824.928 33.3468 846.106 47.8597 849.538 68.8995C850.356 73.9124 850.288 78.8662 849.054 83.7983C848.969 84.1359 848.921 84.484 848.875 84.8304C848.864 84.9125 848.931 85.0047 848.989 85.1663C854.647 84.9973 860.001 86.2445 864.857 89.2214C872.706 94.0318 877.343 101.019 878.706 110.149C878.764 110.538 878.901 110.916 879.001 111.299C879.001 113.104 879.001 114.908 879.001 116.713C878.905 117.045 878.766 117.374 878.72 117.713C876.739 132.215 864.772 142.817 850.119 142.839C817.949 142.889 785.779 142.875 753.609 142.84C741.961 142.827 731.324 135.526 727.151 124.65C726.175 122.107 725.724 119.364 725.032 116.712C725.031 114.909 725.031 113.104 725.031 111.3ZM836.208 95.4802C836.328 94.8423 836.38 94.4499 836.48 94.07C837.467 90.2957 838.459 86.5218 839.458 82.7509C840.418 79.133 840.731 75.4965 840.28 71.7465C837.719 50.4211 812.668 39.4058 795.172 51.9143C790.51 55.248 787.371 59.7455 784.744 64.7136C783.286 67.4706 783.226 67.4437 780.128 66.8596C776.186 66.116 772.282 65.4155 768.24 66.4715C759.204 68.8335 753.115 77.4247 754.057 86.66C754.251 88.5526 754.275 90.4621 754.471 92.3543C754.568 93.2904 754.228 93.6654 753.364 93.9331C751.455 94.5255 749.579 95.2282 747.696 95.9005C738.508 99.179 733.314 107.983 734.95 117.494C736.507 126.549 744.576 133.259 754.03 133.265C786.048 133.283 818.065 133.281 850.082 133.244C851.766 133.241 853.495 133.015 855.125 132.593C864.826 130.075 870.891 120.463 869.038 110.391C867.143 100.082 857.482 93.7398 848.737 94.8249C844.681 95.3281 840.555 95.2712 836.208 95.4802Z" fill="#0081AB" stroke="#005072" stroke-width="5.6645" stroke-miterlimit="10"/>
<path fill-rule="evenodd" clip-rule="evenodd" d="M273.001 0.791214C273.175 -0.00686766 273.3 -0.819021 273.531 -1.60035C274.821 -5.95261 277.629 -8.97607 281.835 -10.7331C282.29 -10.9234 282.432 -11.1063 282.406 -11.6162C282.069 -17.9996 287.167 -24.2958 293.642 -25.4001C295.086 -25.6467 296.595 -25.5877 298.073 -25.5535C298.674 -25.5401 299.005 -25.6205 299.347 -26.1559C302.201 -30.6415 306.24 -33.4982 311.498 -34.6105C321.661 -36.7602 331.978 -29.7684 333.649 -19.6332C334.047 -17.2182 334.014 -14.832 333.413 -12.4565C333.371 -12.2937 333.348 -12.1262 333.325 -11.96C333.321 -11.9198 333.352 -11.8756 333.381 -11.7978C336.137 -11.8789 338.745 -11.2778 341.11 -9.84384C344.933 -7.52666 347.192 -4.16078 347.856 0.237049C347.885 0.424676 347.952 0.606268 348 0.791214C348 1.66033 348 2.52944 348 3.39855C347.953 3.55937 347.885 3.71684 347.863 3.88035C346.898 10.8661 341.069 15.9729 333.931 15.9843C318.26 16.0084 302.59 16.0017 286.92 15.9849C281.247 15.9789 276.065 12.4616 274.032 7.2221C273.557 5.99717 273.337 4.67575 273 3.39855C273.001 2.52944 273.001 1.66033 273.001 0.791214ZM327.155 -6.82909C327.214 -7.13667 327.239 -7.32563 327.287 -7.50857C327.768 -9.32653 328.252 -11.1445 328.739 -12.9611C329.206 -14.704 329.358 -16.4557 329.139 -18.2622C327.892 -28.5354 315.689 -33.8419 307.166 -27.8158C304.896 -26.2102 303.367 -24.0438 302.087 -21.6502C301.377 -20.3221 301.348 -20.3355 299.839 -20.6169C297.918 -20.9754 296.016 -21.3125 294.047 -20.8039C289.646 -19.6661 286.68 -15.5276 287.139 -11.0788C287.234 -10.1675 287.246 -9.24746 287.341 -8.33613C287.388 -7.88516 287.222 -7.70423 286.802 -7.57557C285.872 -7.29011 284.958 -6.95172 284.041 -6.62739C279.565 -5.04865 277.036 -0.806957 277.832 3.77447C278.591 8.13678 282.52 11.3686 287.126 11.3713C302.723 11.3794 318.318 11.3794 333.914 11.3606C334.734 11.3599 335.576 11.2507 336.37 11.047C341.096 9.83413 344.05 5.20445 343.148 0.352303C342.224 -4.61376 337.518 -7.66872 333.259 -7.14605C331.282 -6.9028 329.273 -6.93028 327.155 -6.82909Z" fill="#0081AB"/>
<path fill-rule="evenodd" clip-rule="evenodd" d="M734 1104.62C733.726 1105.67 733.547 1106.76 733.161 1107.77C731.508 1112.09 727.293 1114.98 722.678 1114.99C709.933 1115 697.189 1115.01 684.443 1114.99C678.638 1114.98 673.897 1110.77 673.112 1105.02C673.094 1104.88 673.039 1104.75 673 1104.62C673 1103.91 673 1103.19 673 1102.47C673.04 1102.32 673.094 1102.17 673.117 1102.02C673.657 1098.4 675.495 1095.62 678.604 1093.72C680.528 1092.54 682.649 1092.04 684.89 1092.11C684.913 1092.04 684.94 1092.01 684.935 1091.97C684.917 1091.84 684.898 1091.7 684.865 1091.57C684.376 1089.61 684.349 1087.64 684.673 1085.66C686.032 1077.31 694.423 1071.55 702.689 1073.32C706.965 1074.24 710.251 1076.59 712.572 1080.28C712.849 1080.72 713.119 1080.79 713.608 1080.78C714.809 1080.75 716.037 1080.7 717.212 1080.91C722.478 1081.82 726.624 1087 726.35 1092.26C726.328 1092.68 726.444 1092.83 726.814 1092.98C730.236 1094.43 732.519 1096.92 733.568 1100.51C733.757 1101.15 733.858 1101.82 734 1102.47C734 1103.19 734 1103.91 734 1104.62ZM684.99 1095.94C681.526 1095.51 677.698 1098.02 676.947 1102.11C676.213 1106.11 678.615 1109.92 682.459 1110.92C683.105 1111.09 683.79 1111.18 684.457 1111.18C697.141 1111.2 709.826 1111.2 722.511 1111.19C726.257 1111.19 729.453 1108.53 730.071 1104.93C730.719 1101.16 728.66 1097.67 725.021 1096.37C724.275 1096.1 723.532 1095.82 722.775 1095.59C722.434 1095.48 722.298 1095.33 722.337 1094.96C722.415 1094.21 722.424 1093.45 722.502 1092.7C722.875 1089.04 720.463 1085.63 716.883 1084.69C715.281 1084.27 713.734 1084.55 712.172 1084.85C710.945 1085.08 710.922 1085.09 710.344 1084C709.302 1082.02 708.059 1080.24 706.212 1078.92C699.28 1073.95 689.355 1078.32 688.341 1086.79C688.163 1088.27 688.286 1089.71 688.666 1091.15C689.063 1092.65 689.455 1094.14 689.846 1095.64C689.886 1095.79 689.906 1095.95 689.954 1096.2C688.232 1096.12 686.597 1096.14 684.99 1095.94Z" fill="#0081AB"/>
<path fill-rule="evenodd" clip-rule="evenodd" d="M725.001 1137.41C725.258 1136.22 725.443 1135.01 725.784 1133.84C727.687 1127.35 731.832 1122.84 738.039 1120.21C738.711 1119.93 738.92 1119.66 738.881 1118.9C738.384 1109.37 745.908 1099.97 755.463 1098.33C757.595 1097.96 759.822 1098.05 762.003 1098.1C762.89 1098.12 763.379 1098 763.883 1097.2C768.095 1090.5 774.056 1086.24 781.816 1084.58C796.815 1081.37 812.04 1091.81 814.507 1106.93C815.094 1110.54 815.045 1114.1 814.158 1117.64C814.097 1117.89 814.062 1118.14 814.029 1118.38C814.022 1118.44 814.069 1118.51 814.111 1118.63C818.178 1118.5 822.027 1119.4 825.518 1121.54C831.16 1125 834.494 1130.02 835.474 1136.59C835.516 1136.87 835.615 1137.14 835.686 1137.41C835.686 1138.71 835.686 1140.01 835.686 1141.3C835.617 1141.54 835.517 1141.78 835.484 1142.02C834.06 1152.45 825.457 1160.07 814.923 1160.09C791.796 1160.12 768.67 1160.11 745.544 1160.09C737.171 1160.08 729.524 1154.83 726.523 1147.01C725.822 1145.18 725.498 1143.21 725 1141.3C725.001 1140.01 725.001 1138.71 725.001 1137.41ZM804.923 1126.04C805.009 1125.58 805.047 1125.3 805.118 1125.03C805.828 1122.31 806.541 1119.6 807.26 1116.89C807.949 1114.29 808.174 1111.67 807.851 1108.98C806.01 1093.65 788.001 1085.73 775.423 1094.72C772.072 1097.12 769.816 1100.35 767.927 1103.92C766.879 1105.9 766.836 1105.88 764.609 1105.46C761.775 1104.93 758.968 1104.43 756.062 1105.19C749.566 1106.88 745.189 1113.06 745.867 1119.7C746.007 1121.06 746.024 1122.43 746.165 1123.79C746.234 1124.46 745.989 1124.73 745.369 1124.93C743.996 1125.35 742.648 1125.86 741.294 1126.34C734.689 1128.7 730.956 1135.03 732.131 1141.86C733.251 1148.37 739.05 1153.2 745.848 1153.2C768.865 1153.21 791.881 1153.21 814.897 1153.19C816.108 1153.18 817.351 1153.02 818.523 1152.72C825.497 1150.91 829.856 1144 828.525 1136.76C827.162 1129.35 820.216 1124.79 813.931 1125.57C811.014 1125.93 808.048 1125.89 804.923 1126.04Z" fill="#074662"/>
</g>
</svg>
